G04 #@! TF.FileFunction,Soldermask,Bot*
%FSLAX46Y46*%
G04 Gerber Fmt 4.6, Leading zero omitted, Abs format (unit mm)*
G04 Created by KiCad (PCBNEW 4.0.6) date Sat Apr 29 17:47:01 2017*
%MOMM*%
%LPD*%
G01*
G04 APERTURE LIST*
%ADD10C,0.100000*%
%ADD11C,2.000000*%
%ADD12R,2.000000X2.000000*%
%ADD13O,2.000000X2.000000*%
%ADD14R,2.100000X2.100000*%
%ADD15O,2.100000X2.100000*%
%ADD16C,2.500000*%
G04 APERTURE END LIST*
D10*
D11*
X73340346Y-131027070D03*
X73340346Y-133527070D03*
D12*
X77470000Y-156210000D03*
D13*
X95250000Y-148590000D03*
X80010000Y-156210000D03*
X92710000Y-148590000D03*
X82550000Y-156210000D03*
X90170000Y-148590000D03*
X85090000Y-156210000D03*
X87630000Y-148590000D03*
X87630000Y-156210000D03*
X85090000Y-148590000D03*
X90170000Y-156210000D03*
X82550000Y-148590000D03*
X92710000Y-156210000D03*
X80010000Y-148590000D03*
X95250000Y-156210000D03*
X77470000Y-148590000D03*
D11*
X135890000Y-118110000D03*
D13*
X143510000Y-118110000D03*
D12*
X77470000Y-137160000D03*
D13*
X95250000Y-129540000D03*
X80010000Y-137160000D03*
X92710000Y-129540000D03*
X82550000Y-137160000D03*
X90170000Y-129540000D03*
X85090000Y-137160000D03*
X87630000Y-129540000D03*
X87630000Y-137160000D03*
X85090000Y-129540000D03*
X90170000Y-137160000D03*
X82550000Y-129540000D03*
X92710000Y-137160000D03*
X80010000Y-129540000D03*
X95250000Y-137160000D03*
X77470000Y-129540000D03*
D12*
X102829360Y-154929840D03*
D13*
X151089360Y-139689840D03*
X105369360Y-154929840D03*
X148549360Y-139689840D03*
X107909360Y-154929840D03*
X146009360Y-139689840D03*
X110449360Y-154929840D03*
X143469360Y-139689840D03*
X112989360Y-154929840D03*
X140929360Y-139689840D03*
X115529360Y-154929840D03*
X138389360Y-139689840D03*
X118069360Y-154929840D03*
X135849360Y-139689840D03*
X120609360Y-154929840D03*
X133309360Y-139689840D03*
X123149360Y-154929840D03*
X130769360Y-139689840D03*
X125689360Y-154929840D03*
X128229360Y-139689840D03*
X128229360Y-154929840D03*
X125689360Y-139689840D03*
X130769360Y-154929840D03*
X123149360Y-139689840D03*
X133309360Y-154929840D03*
X120609360Y-139689840D03*
X135849360Y-154929840D03*
X118069360Y-139689840D03*
X138389360Y-154929840D03*
X115529360Y-139689840D03*
X140929360Y-154929840D03*
X112989360Y-139689840D03*
X143469360Y-154929840D03*
X110449360Y-139689840D03*
X146009360Y-154929840D03*
X107909360Y-139689840D03*
X148549360Y-154929840D03*
X105369360Y-139689840D03*
X151089360Y-154929840D03*
X102829360Y-139689840D03*
D12*
X101600000Y-124460000D03*
D13*
X116840000Y-116840000D03*
X104140000Y-124460000D03*
X114300000Y-116840000D03*
X106680000Y-124460000D03*
X111760000Y-116840000D03*
X109220000Y-124460000D03*
X109220000Y-116840000D03*
X111760000Y-124460000D03*
X106680000Y-116840000D03*
X114300000Y-124460000D03*
X104140000Y-116840000D03*
X116840000Y-124460000D03*
X101600000Y-116840000D03*
D11*
X130810000Y-125730000D03*
D13*
X123190000Y-125730000D03*
D11*
X123190000Y-129540000D03*
D13*
X130810000Y-129540000D03*
D11*
X143510000Y-121920000D03*
D13*
X135890000Y-121920000D03*
D11*
X130810000Y-118110000D03*
D13*
X123190000Y-118110000D03*
D11*
X102870000Y-135890000D03*
X105370000Y-135890000D03*
D12*
X135890000Y-127000000D03*
D11*
X135890000Y-129500000D03*
D12*
X142240000Y-127040000D03*
D11*
X142240000Y-129540000D03*
D14*
X137160000Y-134620000D03*
D15*
X139700000Y-134620000D03*
D11*
X123190000Y-121920000D03*
D13*
X130810000Y-121920000D03*
D11*
X130810000Y-133350000D03*
D13*
X123190000Y-133350000D03*
D12*
X77470000Y-124460000D03*
D13*
X92710000Y-116840000D03*
X80010000Y-124460000D03*
X90170000Y-116840000D03*
X82550000Y-124460000D03*
X87630000Y-116840000D03*
X85090000Y-124460000D03*
X85090000Y-116840000D03*
X87630000Y-124460000D03*
X82550000Y-116840000D03*
X90170000Y-124460000D03*
X80010000Y-116840000D03*
X92710000Y-124460000D03*
X77470000Y-116840000D03*
D11*
X73660000Y-149860000D03*
X73660000Y-152360000D03*
X97790000Y-116840000D03*
X97790000Y-119340000D03*
X73660000Y-119380000D03*
X73660000Y-121880000D03*
D14*
X156189680Y-135884920D03*
D15*
X158729680Y-135884920D03*
X156189680Y-138424920D03*
X158729680Y-138424920D03*
X156189680Y-140964920D03*
X158729680Y-140964920D03*
X156189680Y-143504920D03*
X158729680Y-143504920D03*
X156189680Y-146044920D03*
X158729680Y-146044920D03*
X156189680Y-148584920D03*
X158729680Y-148584920D03*
X156189680Y-151124920D03*
X158729680Y-151124920D03*
X156189680Y-153664920D03*
X158729680Y-153664920D03*
X156189680Y-156204920D03*
X158729680Y-156204920D03*
D14*
X111760000Y-129540000D03*
D15*
X114300000Y-129540000D03*
X116840000Y-129540000D03*
D14*
X64770000Y-149860000D03*
D15*
X67310000Y-149860000D03*
X64770000Y-152400000D03*
X67310000Y-152400000D03*
X64770000Y-154940000D03*
X67310000Y-154940000D03*
D14*
X77470000Y-144780000D03*
D15*
X77470000Y-142240000D03*
X80010000Y-144780000D03*
X80010000Y-142240000D03*
X82550000Y-144780000D03*
X82550000Y-142240000D03*
X85090000Y-144780000D03*
X85090000Y-142240000D03*
X87630000Y-144780000D03*
X87630000Y-142240000D03*
X90170000Y-144780000D03*
X90170000Y-142240000D03*
X92710000Y-144780000D03*
X92710000Y-142240000D03*
X95250000Y-144780000D03*
X95250000Y-142240000D03*
D14*
X67310000Y-137160000D03*
D15*
X67310000Y-139700000D03*
X67310000Y-142240000D03*
D14*
X64770000Y-137160000D03*
D15*
X64770000Y-139700000D03*
X64770000Y-142240000D03*
D14*
X62230000Y-162560000D03*
D15*
X64770000Y-162560000D03*
X67310000Y-162560000D03*
X69850000Y-162560000D03*
X72390000Y-162560000D03*
X74930000Y-162560000D03*
X77470000Y-162560000D03*
X80010000Y-162560000D03*
X82550000Y-162560000D03*
X85090000Y-162560000D03*
X87630000Y-162560000D03*
X90170000Y-162560000D03*
X92710000Y-162560000D03*
X95250000Y-162560000D03*
X97790000Y-162560000D03*
X100330000Y-162560000D03*
X102870000Y-162560000D03*
X105410000Y-162560000D03*
X107950000Y-162560000D03*
X110490000Y-162560000D03*
X113030000Y-162560000D03*
X115570000Y-162560000D03*
X118110000Y-162560000D03*
X120650000Y-162560000D03*
X123190000Y-162560000D03*
X125730000Y-162560000D03*
X128270000Y-162560000D03*
X130810000Y-162560000D03*
X133350000Y-162560000D03*
X135890000Y-162560000D03*
X138430000Y-162560000D03*
X140970000Y-162560000D03*
X143510000Y-162560000D03*
X146050000Y-162560000D03*
X148590000Y-162560000D03*
X151130000Y-162560000D03*
X153670000Y-162560000D03*
X156210000Y-162560000D03*
X158750000Y-162560000D03*
D16*
X149870000Y-119380000D03*
X153670000Y-119380000D03*
X157470000Y-119380000D03*
X157470000Y-128780000D03*
X153670000Y-128780000D03*
X149870000Y-128780000D03*
M02*
