G04 #@! TF.GenerationSoftware,KiCad,Pcbnew,5.1.6*
G04 #@! TF.CreationDate,2020-07-01T19:59:56+01:00*
G04 #@! TF.ProjectId,rc2014-ym2149,72633230-3134-42d7-996d-323134392e6b,5*
G04 #@! TF.SameCoordinates,Original*
G04 #@! TF.FileFunction,Copper,L1,Top*
G04 #@! TF.FilePolarity,Positive*
%FSLAX46Y46*%
G04 Gerber Fmt 4.6, Leading zero omitted, Abs format (unit mm)*
G04 Created by KiCad (PCBNEW 5.1.6) date 2020-07-01 19:59:56*
%MOMM*%
%LPD*%
G01*
G04 APERTURE LIST*
G04 #@! TA.AperFunction,Profile*
%ADD10C,0.150000*%
G04 #@! TD*
G04 #@! TA.AperFunction,ComponentPad*
%ADD11C,1.600000*%
G04 #@! TD*
G04 #@! TA.AperFunction,ComponentPad*
%ADD12O,1.600000X1.600000*%
G04 #@! TD*
G04 #@! TA.AperFunction,ComponentPad*
%ADD13R,1.600000X2.400000*%
G04 #@! TD*
G04 #@! TA.AperFunction,ComponentPad*
%ADD14O,1.600000X2.400000*%
G04 #@! TD*
G04 #@! TA.AperFunction,ComponentPad*
%ADD15R,1.600000X1.600000*%
G04 #@! TD*
G04 #@! TA.AperFunction,ComponentPad*
%ADD16R,1.700000X1.700000*%
G04 #@! TD*
G04 #@! TA.AperFunction,ComponentPad*
%ADD17O,1.700000X1.700000*%
G04 #@! TD*
G04 #@! TA.AperFunction,ComponentPad*
%ADD18O,2.400000X1.600000*%
G04 #@! TD*
G04 #@! TA.AperFunction,ComponentPad*
%ADD19R,2.400000X1.600000*%
G04 #@! TD*
G04 #@! TA.AperFunction,ComponentPad*
%ADD20R,2.500000X1.800000*%
G04 #@! TD*
G04 #@! TA.AperFunction,ComponentPad*
%ADD21R,1.800000X2.500000*%
G04 #@! TD*
G04 #@! TA.AperFunction,ViaPad*
%ADD22C,0.685800*%
G04 #@! TD*
G04 #@! TA.AperFunction,Conductor*
%ADD23C,0.762000*%
G04 #@! TD*
G04 #@! TA.AperFunction,Conductor*
%ADD24C,0.381000*%
G04 #@! TD*
G04 #@! TA.AperFunction,Conductor*
%ADD25C,0.508000*%
G04 #@! TD*
G04 APERTURE END LIST*
D10*
X160500000Y-121539000D02*
X160500000Y-120000000D01*
X158369000Y-121793000D02*
X158369000Y-128397000D01*
X158369000Y-121793000D02*
G75*
G02*
X158623000Y-121539000I254000J0D01*
G01*
X158623000Y-128651000D02*
G75*
G02*
X158369000Y-128397000I0J254000D01*
G01*
X160500000Y-121539000D02*
X158623000Y-121539000D01*
X160500000Y-128651000D02*
X158623000Y-128651000D01*
X160500000Y-120000000D02*
G75*
G03*
X155000000Y-114500000I-5500000J0D01*
G01*
X60500000Y-129500000D02*
X75500000Y-114500000D01*
X60500000Y-164500000D02*
X160500000Y-164500000D01*
X60500000Y-129500000D02*
X60500000Y-164500000D01*
X155000000Y-114500000D02*
X75500000Y-114500000D01*
X160500000Y-164500000D02*
X160500000Y-128651000D01*
D11*
X138684000Y-116586000D03*
D12*
X128524000Y-116586000D03*
X138684000Y-120142000D03*
D11*
X128524000Y-120142000D03*
X138684000Y-127254000D03*
D12*
X128524000Y-127254000D03*
D11*
X128524000Y-130810000D03*
D12*
X138684000Y-130810000D03*
D13*
X109855000Y-149860000D03*
D14*
X158115000Y-134620000D03*
X112395000Y-149860000D03*
X155575000Y-134620000D03*
X114935000Y-149860000D03*
X153035000Y-134620000D03*
X117475000Y-149860000D03*
X150495000Y-134620000D03*
X120015000Y-149860000D03*
X147955000Y-134620000D03*
X122555000Y-149860000D03*
X145415000Y-134620000D03*
X125095000Y-149860000D03*
X142875000Y-134620000D03*
X127635000Y-149860000D03*
X140335000Y-134620000D03*
X130175000Y-149860000D03*
X137795000Y-134620000D03*
X132715000Y-149860000D03*
X135255000Y-134620000D03*
X135255000Y-149860000D03*
X132715000Y-134620000D03*
X137795000Y-149860000D03*
X130175000Y-134620000D03*
X140335000Y-149860000D03*
X127635000Y-134620000D03*
X142875000Y-149860000D03*
X125095000Y-134620000D03*
X145415000Y-149860000D03*
X122555000Y-134620000D03*
X147955000Y-149860000D03*
X120015000Y-134620000D03*
X150495000Y-149860000D03*
X117475000Y-134620000D03*
X153035000Y-149860000D03*
X114935000Y-134620000D03*
X155575000Y-149860000D03*
X112395000Y-134620000D03*
X158115000Y-149860000D03*
X109855000Y-134620000D03*
D15*
X70866000Y-132842000D03*
D11*
X70866000Y-125222000D03*
X78486000Y-125222000D03*
X78486000Y-132842000D03*
X93980000Y-157226000D03*
X96480000Y-157226000D03*
X84074000Y-159512000D03*
X81574000Y-159512000D03*
X83312000Y-128230000D03*
X83312000Y-125730000D03*
X71628000Y-159512000D03*
X69128000Y-159512000D03*
X109220000Y-131064000D03*
X111720000Y-131064000D03*
D15*
X143764000Y-118110000D03*
D11*
X143764000Y-120610000D03*
X143764000Y-128865000D03*
D15*
X143764000Y-126365000D03*
D16*
X137668000Y-157480000D03*
D17*
X137668000Y-154940000D03*
X140208000Y-157480000D03*
X140208000Y-154940000D03*
X142748000Y-157480000D03*
X142748000Y-154940000D03*
X145288000Y-157480000D03*
X145288000Y-154940000D03*
X147828000Y-157480000D03*
X147828000Y-154940000D03*
X150368000Y-157480000D03*
X150368000Y-154940000D03*
X152908000Y-157480000D03*
X152908000Y-154940000D03*
X155448000Y-157480000D03*
X155448000Y-154940000D03*
X157988000Y-157480000D03*
X157988000Y-154940000D03*
D16*
X119634000Y-117348000D03*
D17*
X122174000Y-117348000D03*
X124714000Y-117348000D03*
D16*
X107950000Y-121666000D03*
D17*
X110490000Y-121666000D03*
X113030000Y-121666000D03*
X113030000Y-117348000D03*
X110490000Y-117348000D03*
D16*
X107950000Y-117348000D03*
D17*
X101346000Y-117348000D03*
X98806000Y-117348000D03*
D16*
X96266000Y-117348000D03*
D17*
X89662000Y-121666000D03*
X87122000Y-121666000D03*
D16*
X84582000Y-121666000D03*
D11*
X115316000Y-130810000D03*
D12*
X125476000Y-130810000D03*
X115316000Y-127254000D03*
D11*
X125476000Y-127254000D03*
D12*
X128524000Y-123698000D03*
D11*
X138684000Y-123698000D03*
D18*
X69596000Y-155956000D03*
X77216000Y-138176000D03*
X69596000Y-153416000D03*
X77216000Y-140716000D03*
X69596000Y-150876000D03*
X77216000Y-143256000D03*
X69596000Y-148336000D03*
X77216000Y-145796000D03*
X69596000Y-145796000D03*
X77216000Y-148336000D03*
X69596000Y-143256000D03*
X77216000Y-150876000D03*
X69596000Y-140716000D03*
X77216000Y-153416000D03*
X69596000Y-138176000D03*
D19*
X77216000Y-155956000D03*
X89662000Y-155956000D03*
D18*
X82042000Y-138176000D03*
X89662000Y-153416000D03*
X82042000Y-140716000D03*
X89662000Y-150876000D03*
X82042000Y-143256000D03*
X89662000Y-148336000D03*
X82042000Y-145796000D03*
X89662000Y-145796000D03*
X82042000Y-148336000D03*
X89662000Y-143256000D03*
X82042000Y-150876000D03*
X89662000Y-140716000D03*
X82042000Y-153416000D03*
X89662000Y-138176000D03*
X82042000Y-155956000D03*
D19*
X102108000Y-153416000D03*
D18*
X94488000Y-138176000D03*
X102108000Y-150876000D03*
X94488000Y-140716000D03*
X102108000Y-148336000D03*
X94488000Y-143256000D03*
X102108000Y-145796000D03*
X94488000Y-145796000D03*
X102108000Y-143256000D03*
X94488000Y-148336000D03*
X102108000Y-140716000D03*
X94488000Y-150876000D03*
X102108000Y-138176000D03*
X94488000Y-153416000D03*
D14*
X86868000Y-126238000D03*
X102108000Y-133858000D03*
X89408000Y-126238000D03*
X99568000Y-133858000D03*
X91948000Y-126238000D03*
X97028000Y-133858000D03*
X94488000Y-126238000D03*
X94488000Y-133858000D03*
X97028000Y-126238000D03*
X91948000Y-133858000D03*
X99568000Y-126238000D03*
X89408000Y-133858000D03*
X102108000Y-126238000D03*
D13*
X86868000Y-133858000D03*
D20*
X151130000Y-130095000D03*
X151130000Y-120095000D03*
D21*
X156130000Y-125095000D03*
D20*
X151130000Y-127595000D03*
X151130000Y-122595000D03*
D16*
X84582000Y-117348000D03*
D17*
X87122000Y-117348000D03*
X89662000Y-117348000D03*
D16*
X62000000Y-163000000D03*
D17*
X64540000Y-163000000D03*
X67080000Y-163000000D03*
X69620000Y-163000000D03*
X72160000Y-163000000D03*
X74700000Y-163000000D03*
X77240000Y-163000000D03*
X79780000Y-163000000D03*
X82320000Y-163000000D03*
X84860000Y-163000000D03*
X87400000Y-163000000D03*
X89940000Y-163000000D03*
X92480000Y-163000000D03*
X95020000Y-163000000D03*
X97560000Y-163000000D03*
X100100000Y-163000000D03*
X102640000Y-163000000D03*
X105180000Y-163000000D03*
X107720000Y-163000000D03*
X110260000Y-163000000D03*
X112800000Y-163000000D03*
X115340000Y-163000000D03*
X117880000Y-163000000D03*
X120420000Y-163000000D03*
X122960000Y-163000000D03*
X125500000Y-163000000D03*
X128040000Y-163000000D03*
X130580000Y-163000000D03*
X133120000Y-163000000D03*
X135660000Y-163000000D03*
X138200000Y-163000000D03*
X140740000Y-163000000D03*
X143280000Y-163000000D03*
X145820000Y-163000000D03*
X148360000Y-163000000D03*
X150900000Y-163000000D03*
X153440000Y-163000000D03*
X155980000Y-163000000D03*
X158520000Y-163000000D03*
D16*
X96266000Y-121666000D03*
D17*
X98806000Y-121666000D03*
X101346000Y-121666000D03*
D16*
X65278000Y-155956000D03*
D17*
X62738000Y-155956000D03*
X65278000Y-153416000D03*
X62738000Y-153416000D03*
X65278000Y-150876000D03*
X62738000Y-150876000D03*
X65278000Y-148336000D03*
X62738000Y-148336000D03*
X65278000Y-145796000D03*
X62738000Y-145796000D03*
X65278000Y-143256000D03*
X62738000Y-143256000D03*
X65278000Y-140716000D03*
X62738000Y-140716000D03*
X65278000Y-138176000D03*
X62738000Y-138176000D03*
X65278000Y-135636000D03*
X62738000Y-135636000D03*
D16*
X119634000Y-121666000D03*
D17*
X122174000Y-121666000D03*
D22*
X105029110Y-138672586D03*
X107083499Y-151002167D03*
X95250000Y-124460000D03*
D23*
X81574000Y-159512000D02*
X81574000Y-156024000D01*
X81574000Y-156024000D02*
X81642000Y-155956000D01*
X81642000Y-155956000D02*
X82042000Y-155956000D01*
X82042000Y-155956000D02*
X82442000Y-155956000D01*
X82442000Y-155956000D02*
X84004100Y-157518100D01*
X84004100Y-157518100D02*
X90546300Y-157518100D01*
X90546300Y-157518100D02*
X91177700Y-157518100D01*
X91177700Y-157518100D02*
X93687900Y-157518100D01*
X93687900Y-157518100D02*
X93980000Y-157226000D01*
X89408000Y-126238000D02*
X89408000Y-126638000D01*
X89408000Y-126638000D02*
X90970100Y-128200100D01*
X90970100Y-128200100D02*
X93841000Y-128200100D01*
X93841000Y-128200100D02*
X95135000Y-128200100D01*
X95135000Y-128200100D02*
X95465900Y-128200100D01*
X95465900Y-128200100D02*
X97028000Y-126638000D01*
X97028000Y-126638000D02*
X97028000Y-126238000D01*
X93980000Y-157226000D02*
X94302300Y-157226000D01*
X94302300Y-157226000D02*
X95842200Y-155686100D01*
X95842200Y-155686100D02*
X97117800Y-155686100D01*
X97117800Y-155686100D02*
X102819600Y-161387900D01*
X102819600Y-161387900D02*
X103307800Y-161387900D01*
X103307800Y-161387900D02*
X104919900Y-163000000D01*
X104919900Y-163000000D02*
X105180000Y-163000000D01*
X140335000Y-134620000D02*
X140335000Y-134220000D01*
X140335000Y-134220000D02*
X140665900Y-134220000D01*
X140665900Y-134220000D02*
X142228000Y-132657900D01*
X142228000Y-132657900D02*
X144768000Y-132657900D01*
X144768000Y-132657900D02*
X146062000Y-132657900D01*
X146062000Y-132657900D02*
X147624100Y-134220000D01*
X147624100Y-134220000D02*
X147955000Y-134220000D01*
X147955000Y-134220000D02*
X147955000Y-134620000D01*
X147955000Y-134620000D02*
X147955000Y-135020000D01*
X147955000Y-135020000D02*
X147955000Y-137090900D01*
X147955000Y-137090900D02*
X159677100Y-148813000D01*
X159677100Y-148813000D02*
X159677100Y-149233900D01*
X159677100Y-149233900D02*
X159677100Y-149613000D01*
X159677100Y-149613000D02*
X159677100Y-150907000D01*
X159677100Y-150907000D02*
X158762000Y-151822100D01*
X158762000Y-151822100D02*
X157256200Y-153327900D01*
X157256200Y-153327900D02*
X139540200Y-153327900D01*
X139540200Y-153327900D02*
X137928100Y-154940000D01*
X137928100Y-154940000D02*
X137668000Y-154940000D01*
X70866000Y-130164200D02*
X70866000Y-125222000D01*
X72428100Y-133957700D02*
X72428100Y-131726300D01*
X71558100Y-134827700D02*
X72428100Y-133957700D01*
X71558100Y-154063000D02*
X71558100Y-134827700D01*
X69996000Y-155625100D02*
X71558100Y-154063000D01*
X69996000Y-155956000D02*
X69996000Y-155625100D01*
X72428100Y-131726300D02*
X70866000Y-130164200D01*
X69596000Y-155956000D02*
X69996000Y-155956000D01*
X150495000Y-134220000D02*
X150495000Y-134620000D01*
X102108000Y-133858000D02*
X102108000Y-133458000D01*
X102108000Y-133458000D02*
X102108000Y-131002700D01*
X102108000Y-131002700D02*
X105194300Y-127916400D01*
X105194300Y-127916400D02*
X105194300Y-125773000D01*
X105194300Y-125773000D02*
X105757700Y-125209600D01*
X140826400Y-129260600D02*
X139277000Y-130810000D01*
X139277000Y-130810000D02*
X138684000Y-130810000D01*
X77216000Y-138176000D02*
X77616000Y-138176000D01*
X77616000Y-138176000D02*
X77616000Y-133712000D01*
X77616000Y-133712000D02*
X78486000Y-132842000D01*
X102640000Y-163000000D02*
X102379900Y-163000000D01*
X102379900Y-163000000D02*
X100767800Y-161387900D01*
X100767800Y-161387900D02*
X100641900Y-161387900D01*
X100641900Y-161387900D02*
X96480000Y-157226000D01*
X89662000Y-138176000D02*
X90062000Y-138176000D01*
X90062000Y-138176000D02*
X91878900Y-138176000D01*
X91878900Y-138176000D02*
X93441000Y-136613900D01*
X93441000Y-136613900D02*
X94241000Y-136613900D01*
X94241000Y-136613900D02*
X95535000Y-136613900D01*
X95535000Y-136613900D02*
X97097100Y-138176000D01*
X97097100Y-138176000D02*
X101708000Y-138176000D01*
X101708000Y-138176000D02*
X102108000Y-138176000D01*
X102108000Y-133858000D02*
X102108000Y-134258000D01*
X102108000Y-134258000D02*
X102108000Y-138176000D01*
X84074000Y-159512000D02*
X94194000Y-159512000D01*
X94194000Y-159512000D02*
X96480000Y-157226000D01*
X150495000Y-134620000D02*
X150495000Y-134220000D01*
X101346000Y-121666000D02*
X102431700Y-122751700D01*
X102431700Y-122751700D02*
X103386400Y-122751700D01*
X103386400Y-122751700D02*
X105194300Y-124559600D01*
X105194300Y-124559600D02*
X105194300Y-124646200D01*
X105194300Y-124646200D02*
X105757700Y-125209600D01*
X138684000Y-120142000D02*
X138684000Y-121488900D01*
X138684000Y-121488900D02*
X140246100Y-123051000D01*
X140246100Y-123051000D02*
X140246100Y-126607000D01*
X140246100Y-126607000D02*
X140246100Y-128680300D01*
X140246100Y-128680300D02*
X140826400Y-129260600D01*
X107816299Y-123151001D02*
X105757700Y-125209600D01*
X113742801Y-123151001D02*
X107816299Y-123151001D01*
X115227802Y-121666000D02*
X113742801Y-123151001D01*
X119634000Y-121666000D02*
X115227802Y-121666000D01*
X143080600Y-131514800D02*
X140826400Y-129260600D01*
X147458900Y-131514800D02*
X143080600Y-131514800D01*
X150164100Y-134220000D02*
X147458900Y-131514800D01*
X150495000Y-134220000D02*
X150164100Y-134220000D01*
X153924000Y-130528800D02*
X150495000Y-133957800D01*
X153924000Y-128189800D02*
X153924000Y-130528800D01*
X150495000Y-133957800D02*
X150495000Y-134220000D01*
X155611000Y-126502800D02*
X153924000Y-128189800D01*
X155611000Y-125964000D02*
X155611000Y-126502800D01*
X156130000Y-125095000D02*
X155611000Y-125964000D01*
X102108000Y-138286590D02*
X109855000Y-146033590D01*
X109855000Y-146033590D02*
X109855000Y-149860000D01*
X102108000Y-138176000D02*
X102108000Y-138286590D01*
D24*
X124184400Y-117348000D02*
X124714000Y-117348000D01*
X122762800Y-115926400D02*
X124184400Y-117348000D01*
X100472600Y-115926400D02*
X122762800Y-115926400D01*
X99710500Y-115164300D02*
X100472600Y-115926400D01*
X64540000Y-162160300D02*
X68559900Y-158140400D01*
X71367600Y-156524100D02*
X71367600Y-155600700D01*
X72510700Y-135222300D02*
X73380700Y-134352300D01*
X81685700Y-119482300D02*
X90545600Y-119482300D01*
X64540000Y-163000000D02*
X64540000Y-162160300D01*
X69751300Y-158140400D02*
X71367600Y-156524100D01*
X71367600Y-155600700D02*
X72510700Y-154457600D01*
X90545600Y-119482300D02*
X94863600Y-115164300D01*
X72510700Y-154457600D02*
X72510700Y-135222300D01*
X68559900Y-158140400D02*
X69751300Y-158140400D01*
X73380700Y-134352300D02*
X73380700Y-127787300D01*
X73380700Y-127787300D02*
X81685700Y-119482300D01*
X94863600Y-115164300D02*
X99710500Y-115164300D01*
X79749700Y-153319800D02*
X79749700Y-152532200D01*
X88255700Y-154658000D02*
X88227700Y-154686000D01*
X88227700Y-154686000D02*
X81115900Y-154686000D01*
X88812001Y-122515999D02*
X89662000Y-121666000D01*
X88668300Y-154658000D02*
X88255700Y-154658000D01*
X95456800Y-154755700D02*
X95424900Y-154787600D01*
X76289900Y-149606000D02*
X74904900Y-148221000D01*
X90655700Y-154658000D02*
X90627700Y-154686000D01*
X85713700Y-123051200D02*
X87602300Y-123051200D01*
X81115900Y-154686000D02*
X79749700Y-153319800D01*
X78142100Y-149606000D02*
X76289900Y-149606000D01*
X78886000Y-151668500D02*
X78886000Y-150349900D01*
X82743900Y-124358400D02*
X84406500Y-124358400D01*
X78886000Y-150349900D02*
X78142100Y-149606000D01*
X97503200Y-154755700D02*
X95456800Y-154755700D01*
X103182800Y-160435300D02*
X97503200Y-154755700D01*
X91068300Y-154658000D02*
X90655700Y-154658000D01*
X79749700Y-152532200D02*
X78886000Y-151668500D01*
X84406500Y-124358400D02*
X85713700Y-123051200D01*
X110848800Y-161578400D02*
X104845400Y-161578400D01*
X112270400Y-163000000D02*
X110848800Y-161578400D01*
X91197900Y-154787600D02*
X91068300Y-154658000D01*
X88696300Y-154686000D02*
X88668300Y-154658000D01*
X88137501Y-122515999D02*
X88812001Y-122515999D01*
X74904900Y-132197400D02*
X82743900Y-124358400D01*
X103702300Y-160435300D02*
X103182800Y-160435300D01*
X112800000Y-163000000D02*
X112270400Y-163000000D01*
X87602300Y-123051200D02*
X88137501Y-122515999D01*
X90627700Y-154686000D02*
X88696300Y-154686000D01*
X104845400Y-161578400D02*
X103702300Y-160435300D01*
X74904900Y-148221000D02*
X74904900Y-132197400D01*
X95424900Y-154787600D02*
X91197900Y-154787600D01*
X118745000Y-134709000D02*
X118656000Y-134620000D01*
X118656000Y-134620000D02*
X117475000Y-134620000D01*
X118745000Y-153705000D02*
X118745000Y-134709000D01*
X128040000Y-163000000D02*
X118745000Y-153705000D01*
X130580000Y-163000000D02*
X121285000Y-153705000D01*
X121285000Y-153705000D02*
X121285000Y-148933900D01*
X121285000Y-148933900D02*
X120015000Y-147663900D01*
X120015000Y-147663900D02*
X120015000Y-135020000D01*
X120015000Y-135020000D02*
X120015000Y-134620000D01*
X133120000Y-163000000D02*
X123825000Y-153705000D01*
X123825000Y-153705000D02*
X123825000Y-148933900D01*
X123825000Y-148933900D02*
X122555000Y-147663900D01*
X122555000Y-147663900D02*
X122555000Y-135020000D01*
X122555000Y-135020000D02*
X122555000Y-134620000D01*
X125095000Y-135020000D02*
X125095000Y-134620000D01*
X125095000Y-147663900D02*
X125095000Y-135020000D01*
X126365000Y-153543000D02*
X126365000Y-148933900D01*
X135660000Y-162838000D02*
X126365000Y-153543000D01*
X126365000Y-148933900D02*
X125095000Y-147663900D01*
X135660000Y-163000000D02*
X135660000Y-162838000D01*
X127635000Y-134620000D02*
X127635000Y-147701000D01*
X128930490Y-148995488D02*
X128930490Y-154584490D01*
X127636002Y-147701000D02*
X128930490Y-148995488D01*
X127635000Y-147701000D02*
X127636002Y-147701000D01*
X128930490Y-154584490D02*
X129160352Y-154584490D01*
X129160352Y-154584490D02*
X135865862Y-161290000D01*
X136490000Y-161290000D02*
X138200000Y-163000000D01*
X135865862Y-161290000D02*
X136490000Y-161290000D01*
X140740000Y-163000000D02*
X138394989Y-160654989D01*
X138394989Y-160654989D02*
X136270989Y-160654989D01*
X136270989Y-160654989D02*
X131445000Y-155829000D01*
X130175000Y-147447000D02*
X131445000Y-148717000D01*
X130175000Y-134620000D02*
X130175000Y-147447000D01*
X131445000Y-155829000D02*
X131445000Y-148717000D01*
X143280000Y-163000000D02*
X142750400Y-163000000D01*
X136801535Y-160019978D02*
X133985000Y-157203441D01*
X139770378Y-160019978D02*
X136801535Y-160019978D01*
X142750400Y-163000000D02*
X139770378Y-160019978D01*
X132715000Y-147447000D02*
X133985000Y-148717000D01*
X132715000Y-134620000D02*
X132715000Y-147447000D01*
X133985000Y-157203441D02*
X133985000Y-148717000D01*
X142204967Y-159384967D02*
X145820000Y-163000000D01*
X136246400Y-158566800D02*
X137064567Y-159384967D01*
X136525000Y-150786100D02*
X136246400Y-151064700D01*
X137064567Y-159384967D02*
X142204967Y-159384967D01*
X136525000Y-148969998D02*
X136525000Y-150786100D01*
X135255000Y-147699998D02*
X136525000Y-148969998D01*
X136246400Y-151064700D02*
X136246400Y-158566800D01*
X135255000Y-134620000D02*
X135255000Y-147699998D01*
D25*
X113538000Y-132588000D02*
X115316000Y-130810000D01*
X108966000Y-132588000D02*
X113538000Y-132588000D01*
X107696000Y-137668000D02*
X107696000Y-133858000D01*
X107696000Y-133858000D02*
X108966000Y-132588000D01*
X117475000Y-147447000D02*
X107696000Y-137668000D01*
X117475000Y-149860000D02*
X117475000Y-147447000D01*
X123952000Y-124714000D02*
X128524000Y-120142000D01*
X110998000Y-124714000D02*
X123952000Y-124714000D01*
X104051098Y-131660902D02*
X110998000Y-124714000D01*
X114935000Y-149856340D02*
X104051098Y-138972438D01*
X104051098Y-138972438D02*
X104051098Y-131660902D01*
X114935000Y-149860000D02*
X114935000Y-149856340D01*
D24*
X137160010Y-134620000D02*
X137160010Y-135283072D01*
X137795000Y-134620000D02*
X137160010Y-134620000D01*
X105029110Y-132514989D02*
X105029110Y-138672586D01*
X109045597Y-128498502D02*
X105029110Y-132514989D01*
X120919428Y-132213390D02*
X117204541Y-128498502D01*
X128593526Y-132213390D02*
X120919428Y-132213390D01*
X128714136Y-132334000D02*
X128593526Y-132213390D01*
X136027042Y-132334000D02*
X128714136Y-132334000D01*
X137160010Y-133466968D02*
X136027042Y-132334000D01*
X117204541Y-128498502D02*
X109045597Y-128498502D01*
X137160010Y-134620000D02*
X137160010Y-133466968D01*
X102108000Y-126238000D02*
X101868800Y-126238000D01*
X101868800Y-126238000D02*
X100124700Y-124493900D01*
X100124700Y-124493900D02*
X98721940Y-124493900D01*
X98721940Y-124493900D02*
X97900639Y-123672599D01*
X97900639Y-123672599D02*
X94513401Y-123672599D01*
X94513401Y-123672599D02*
X91948000Y-126238000D01*
X89408000Y-133858000D02*
X89408000Y-134258000D01*
X89408000Y-134258000D02*
X90779600Y-135629600D01*
X90779600Y-135629600D02*
X96459900Y-135629600D01*
X96459900Y-135629600D02*
X97596100Y-135629600D01*
X97596100Y-135629600D02*
X98196400Y-135629600D01*
X98196400Y-135629600D02*
X99568000Y-134258000D01*
X99568000Y-134258000D02*
X99568000Y-133858000D01*
X107975499Y-130666541D02*
X107975499Y-130466639D01*
X106934000Y-131708040D02*
X107975499Y-130666541D01*
X107975499Y-130466639D02*
X108622639Y-129819499D01*
X106934000Y-139662900D02*
X106934000Y-131708040D01*
X108622639Y-129819499D02*
X108822541Y-129819499D01*
X108822541Y-129819499D02*
X109508528Y-129133512D01*
X109508528Y-129133512D02*
X116941512Y-129133512D01*
X128330497Y-132848400D02*
X128457587Y-132975490D01*
X106299011Y-152527011D02*
X114464089Y-152527011D01*
X136525000Y-133729997D02*
X136525000Y-135546100D01*
X136525000Y-135546100D02*
X137370500Y-136391600D01*
X137370500Y-136391600D02*
X142684400Y-136391600D01*
X142684400Y-136391600D02*
X142875000Y-136201000D01*
X135770493Y-132975490D02*
X136525000Y-133729997D01*
X142875000Y-136201000D02*
X142875000Y-134620000D01*
X116205000Y-150786100D02*
X116205000Y-148933900D01*
X116205000Y-148933900D02*
X106934000Y-139662900D01*
X114464089Y-152527011D02*
X116205000Y-150786100D01*
X102108000Y-148336000D02*
X106299011Y-152527011D01*
X128457587Y-132975490D02*
X135770493Y-132975490D01*
X120656400Y-132848400D02*
X128330497Y-132848400D01*
X116941512Y-129133512D02*
X120656400Y-132848400D01*
X81700700Y-161578400D02*
X87988800Y-161578400D01*
X78987600Y-154919200D02*
X78987600Y-158865300D01*
X87988800Y-161578400D02*
X89410400Y-163000000D01*
X101346000Y-117348000D02*
X100816400Y-117348000D01*
X100816400Y-117348000D02*
X99394800Y-115926400D01*
X99394800Y-115926400D02*
X95179200Y-115926400D01*
X76289900Y-152146000D02*
X78142100Y-152146000D01*
X78142100Y-152146000D02*
X78886000Y-152889900D01*
X95179200Y-115926400D02*
X90861200Y-120244400D01*
X89410400Y-163000000D02*
X89940000Y-163000000D01*
X90861200Y-120244400D02*
X83495200Y-120244400D01*
X83495200Y-120244400D02*
X79857600Y-123882000D01*
X78987600Y-158865300D02*
X81700700Y-161578400D01*
X78886000Y-154817600D02*
X78987600Y-154919200D01*
X79857600Y-123882000D02*
X79857600Y-125790100D01*
X79857600Y-125790100D02*
X74142800Y-131504900D01*
X74142800Y-131504900D02*
X74142800Y-149998900D01*
X74142800Y-149998900D02*
X76289900Y-152146000D01*
X78886000Y-152889900D02*
X78886000Y-154817600D01*
X82320000Y-163000000D02*
X82044500Y-163000000D01*
X82044500Y-163000000D02*
X80690200Y-161645700D01*
X80690200Y-161645700D02*
X79440300Y-160395800D01*
X79440300Y-160395800D02*
X78225500Y-159181000D01*
X78225500Y-159181000D02*
X78225500Y-156756000D01*
X78225500Y-156756000D02*
X78225500Y-156565500D01*
X78225500Y-156565500D02*
X77216000Y-155956000D01*
X138684000Y-127254000D02*
X135938000Y-124508000D01*
X135938000Y-124508000D02*
X135938000Y-124234600D01*
X125476000Y-127254000D02*
X126584300Y-127254000D01*
X126584300Y-127254000D02*
X127955900Y-125882400D01*
X127955900Y-125882400D02*
X134290200Y-125882400D01*
X134290200Y-125882400D02*
X135938000Y-124234600D01*
X135938000Y-120948300D02*
X135938000Y-124234600D01*
X138522300Y-118364000D02*
X135938000Y-120948300D01*
X143154500Y-118719500D02*
X142885100Y-118719500D01*
X143510000Y-118364000D02*
X143764000Y-118110000D01*
X138522300Y-118364000D02*
X143510000Y-118364000D01*
X96742490Y-149631490D02*
X100527000Y-153416000D01*
X82042000Y-153416000D02*
X85826510Y-149631490D01*
X85826510Y-149631490D02*
X96742490Y-149631490D01*
X100527000Y-153416000D02*
X102108000Y-153416000D01*
X82042000Y-150876000D02*
X85852000Y-147066000D01*
X85852000Y-147066000D02*
X91057998Y-147066000D01*
X91057998Y-147066000D02*
X93572508Y-144551490D01*
X93572508Y-144551490D02*
X95783490Y-144551490D01*
X95783490Y-144551490D02*
X102108000Y-150876000D01*
X82042000Y-138176000D02*
X82442000Y-138176000D01*
X82442000Y-138176000D02*
X82442000Y-132117500D01*
X82442000Y-132117500D02*
X85445700Y-129113800D01*
X85445700Y-129113800D02*
X85445700Y-126613800D01*
X85445700Y-126613800D02*
X85445700Y-125371900D01*
X85445700Y-125371900D02*
X85532700Y-125284900D01*
X85532700Y-125284900D02*
X86314900Y-124502700D01*
X86314900Y-124502700D02*
X88016000Y-124502700D01*
X88016000Y-124502700D02*
X88609200Y-123909500D01*
X88609200Y-123909500D02*
X90471300Y-123909500D01*
X90471300Y-123909500D02*
X94873800Y-119507000D01*
X94873800Y-119507000D02*
X95064300Y-119507000D01*
X95064300Y-119507000D02*
X96383300Y-119507000D01*
X96383300Y-119507000D02*
X96573800Y-119507000D01*
X96573800Y-119507000D02*
X97335600Y-119507000D01*
X97335600Y-119507000D02*
X97743000Y-119099600D01*
X97743000Y-119099600D02*
X99798700Y-119099600D01*
X99798700Y-119099600D02*
X100141100Y-118757200D01*
X100141100Y-118757200D02*
X106271400Y-118757200D01*
X106271400Y-118757200D02*
X107021100Y-118007500D01*
X107021100Y-118007500D02*
X107100000Y-118007500D01*
X107100000Y-118007500D02*
X107290500Y-118007500D01*
X107290500Y-118007500D02*
X107950000Y-117348000D01*
X82042000Y-140716000D02*
X82442000Y-140716000D01*
X82442000Y-140716000D02*
X82442000Y-140115700D01*
X82442000Y-140115700D02*
X83813600Y-138744100D01*
X83813600Y-138744100D02*
X83813600Y-131823700D01*
X83813600Y-131823700D02*
X86207800Y-129429500D01*
X86207800Y-129429500D02*
X86207800Y-129094300D01*
X86207800Y-129094300D02*
X88138000Y-127164100D01*
X88138000Y-127164100D02*
X88138000Y-126364100D01*
X88138000Y-126364100D02*
X88138000Y-125313400D01*
X88138000Y-125313400D02*
X88139000Y-125312400D01*
X88139000Y-125312400D02*
X88882400Y-124569000D01*
X88882400Y-124569000D02*
X90872000Y-124569000D01*
X90872000Y-124569000D02*
X95184300Y-120256700D01*
X95184300Y-120256700D02*
X95374800Y-120256700D01*
X95374800Y-120256700D02*
X96693800Y-120256700D01*
X96693800Y-120256700D02*
X96884300Y-120256700D01*
X96884300Y-120256700D02*
X97484700Y-120256700D01*
X97484700Y-120256700D02*
X98006200Y-119735200D01*
X98006200Y-119735200D02*
X100223500Y-119735200D01*
X100223500Y-119735200D02*
X100451700Y-119507000D01*
X100451700Y-119507000D02*
X110871000Y-119507000D01*
X110871000Y-119507000D02*
X113030000Y-117348000D01*
X77216000Y-143256000D02*
X77616000Y-143256000D01*
X77616000Y-143256000D02*
X77616000Y-142655700D01*
X77616000Y-142655700D02*
X78987600Y-141284100D01*
X78987600Y-141284100D02*
X78987600Y-138744100D01*
X78987600Y-138744100D02*
X78987600Y-134494100D01*
X78987600Y-134494100D02*
X84683600Y-128798100D01*
X84683600Y-128798100D02*
X84683600Y-126298100D01*
X84683600Y-126298100D02*
X84683600Y-125107700D01*
X84683600Y-125107700D02*
X84807000Y-124984300D01*
X84807000Y-124984300D02*
X86014300Y-123777000D01*
X86014300Y-123777000D02*
X87809200Y-123777000D01*
X87809200Y-123777000D02*
X88336100Y-123250100D01*
X88336100Y-123250100D02*
X90070300Y-123250100D01*
X90070300Y-123250100D02*
X94563200Y-118757200D01*
X94563200Y-118757200D02*
X94753700Y-118757200D01*
X94753700Y-118757200D02*
X96072700Y-118757200D01*
X96072700Y-118757200D02*
X96263200Y-118757200D01*
X96263200Y-118757200D02*
X97186300Y-118757200D01*
X97186300Y-118757200D02*
X97479600Y-118463900D01*
X97479600Y-118463900D02*
X97690100Y-118463900D01*
X97690100Y-118463900D02*
X98806000Y-117348000D01*
X90062000Y-143256000D02*
X89662000Y-143256000D01*
X101217998Y-147066000D02*
X103147332Y-147066000D01*
X96163488Y-142011490D02*
X101217998Y-147066000D01*
X90906510Y-142011490D02*
X96163488Y-142011490D01*
X89662000Y-143256000D02*
X90906510Y-142011490D01*
X103147332Y-147066000D02*
X107083499Y-151002167D01*
X89662000Y-152057000D02*
X89662000Y-150876000D01*
X95414100Y-152146000D02*
X89751000Y-152146000D01*
X97217300Y-153949200D02*
X95414100Y-152146000D01*
X103561300Y-159673200D02*
X97837300Y-153949200D01*
X105161100Y-160816300D02*
X104018000Y-159673200D01*
X89751000Y-152146000D02*
X89662000Y-152057000D01*
X111164500Y-160816300D02*
X105161100Y-160816300D01*
X112053699Y-161705499D02*
X111164500Y-160816300D01*
X104018000Y-159673200D02*
X103561300Y-159673200D01*
X97837300Y-153949200D02*
X97217300Y-153949200D01*
X119125499Y-161705499D02*
X112053699Y-161705499D01*
X120420000Y-163000000D02*
X119125499Y-161705499D01*
X89662000Y-148336000D02*
X89408000Y-148336000D01*
X92327998Y-148336000D02*
X93597998Y-147066000D01*
X89662000Y-148336000D02*
X92327998Y-148336000D01*
X101243496Y-152171498D02*
X104419498Y-152171498D01*
X96137998Y-147066000D02*
X101243496Y-152171498D01*
X93597998Y-147066000D02*
X96137998Y-147066000D01*
X104419498Y-152171498D02*
X113318488Y-161070488D01*
X123570488Y-161070488D02*
X125500000Y-163000000D01*
X113318488Y-161070488D02*
X123570488Y-161070488D01*
X100990503Y-122960501D02*
X100100501Y-122960501D01*
X103632000Y-125601998D02*
X100990503Y-122960501D01*
X103632000Y-127762000D02*
X103632000Y-125601998D01*
X101346000Y-130048000D02*
X103632000Y-127762000D01*
X100100501Y-122960501D02*
X98806000Y-121666000D01*
X91057998Y-130048000D02*
X101346000Y-130048000D01*
X88163490Y-132942508D02*
X91057998Y-130048000D01*
X88163490Y-135610510D02*
X88163490Y-132942508D01*
X85090000Y-138684000D02*
X88163490Y-135610510D01*
X85090000Y-142368002D02*
X85090000Y-138684000D01*
X82957492Y-144500510D02*
X85090000Y-142368002D01*
X78511490Y-144500510D02*
X82957492Y-144500510D01*
X77216000Y-145796000D02*
X78511490Y-144500510D01*
X97790000Y-124460000D02*
X99568000Y-126238000D01*
X95250000Y-124460000D02*
X97790000Y-124460000D01*
M02*
