M48
;DRILL file {KiCad 4.0.6} date Sat May 13 23:18:34 2017
;FORMAT={-:-/ absolute / metric / decimal}
FMAT,2
METRIC,TZ
T1C0.330
T2C0.800
T3C1.000
T4C1.300
%
G90
G05
M71
T1
X93.109Y-122.319
X111.76Y-120.65
X112.632Y-158.242
T2
X73.34Y-131.027
X73.34Y-133.527
X73.66Y-119.38
X73.66Y-121.88
X73.66Y-149.86
X73.66Y-152.36
X77.47Y-116.84
X77.47Y-124.46
X77.47Y-129.54
X77.47Y-137.16
X77.47Y-148.59
X77.47Y-156.21
X80.01Y-116.84
X80.01Y-124.46
X80.01Y-129.54
X80.01Y-137.16
X80.01Y-148.59
X80.01Y-156.21
X82.55Y-116.84
X82.55Y-124.46
X82.55Y-129.54
X82.55Y-137.16
X82.55Y-148.59
X82.55Y-156.21
X85.09Y-116.84
X85.09Y-124.46
X85.09Y-129.54
X85.09Y-137.16
X85.09Y-148.59
X85.09Y-156.21
X87.63Y-116.84
X87.63Y-124.46
X87.63Y-129.54
X87.63Y-137.16
X87.63Y-148.59
X87.63Y-156.21
X90.17Y-116.84
X90.17Y-124.46
X90.17Y-129.54
X90.17Y-137.16
X90.17Y-148.59
X90.17Y-156.21
X92.71Y-116.84
X92.71Y-124.46
X92.71Y-129.54
X92.71Y-137.16
X92.71Y-148.59
X92.71Y-156.21
X95.25Y-129.54
X95.25Y-137.16
X95.25Y-148.59
X95.25Y-156.21
X97.79Y-116.84
X97.79Y-119.34
X101.6Y-116.84
X101.6Y-124.46
X102.829Y-139.69
X102.829Y-154.93
X102.87Y-135.89
X104.14Y-116.84
X104.14Y-124.46
X105.369Y-139.69
X105.369Y-154.93
X105.37Y-135.89
X106.68Y-116.84
X106.68Y-124.46
X107.909Y-139.69
X107.909Y-154.93
X109.22Y-116.84
X109.22Y-124.46
X110.449Y-139.69
X110.449Y-154.93
X111.76Y-116.84
X111.76Y-124.46
X112.989Y-139.69
X112.989Y-154.93
X114.3Y-116.84
X114.3Y-124.46
X115.529Y-139.69
X115.529Y-154.93
X116.84Y-116.84
X116.84Y-124.46
X118.069Y-139.69
X118.069Y-154.93
X120.609Y-139.69
X120.609Y-154.93
X121.92Y-118.11
X121.92Y-121.92
X121.92Y-125.73
X121.92Y-129.54
X121.92Y-133.35
X123.149Y-139.69
X123.149Y-154.93
X125.689Y-139.69
X125.689Y-154.93
X128.229Y-139.69
X128.229Y-154.93
X130.769Y-139.69
X130.769Y-154.93
X130.81Y-118.11
X130.81Y-121.92
X130.81Y-125.73
X130.81Y-129.54
X130.81Y-133.35
X133.309Y-139.69
X133.309Y-154.93
X135.255Y-118.11
X135.255Y-121.92
X135.849Y-139.69
X135.849Y-154.93
X135.89Y-127.
X135.89Y-129.5
X138.389Y-139.69
X138.389Y-154.93
X140.929Y-139.69
X140.929Y-154.93
X142.24Y-127.04
X142.24Y-129.54
X143.469Y-139.69
X143.469Y-154.93
X144.145Y-118.11
X144.145Y-121.92
X146.009Y-139.69
X146.009Y-154.93
X148.549Y-139.69
X148.549Y-154.93
X151.089Y-139.69
X151.089Y-154.93
T3
X62.Y-163.
X64.54Y-163.
X64.77Y-137.16
X64.77Y-139.7
X64.77Y-142.24
X64.77Y-149.86
X64.77Y-152.4
X64.77Y-154.94
X67.08Y-163.
X67.31Y-137.16
X67.31Y-139.7
X67.31Y-142.24
X67.31Y-149.86
X67.31Y-152.4
X67.31Y-154.94
X69.62Y-163.
X72.16Y-163.
X74.7Y-163.
X77.24Y-163.
X77.47Y-142.24
X77.47Y-144.78
X79.78Y-163.
X80.01Y-142.24
X80.01Y-144.78
X82.32Y-163.
X82.55Y-142.24
X82.55Y-144.78
X84.86Y-163.
X85.09Y-142.24
X85.09Y-144.78
X87.4Y-163.
X87.63Y-142.24
X87.63Y-144.78
X89.94Y-163.
X90.17Y-142.24
X90.17Y-144.78
X92.48Y-163.
X92.71Y-142.24
X92.71Y-144.78
X95.02Y-163.
X95.25Y-142.24
X95.25Y-144.78
X97.56Y-163.
X100.1Y-163.
X102.64Y-163.
X105.18Y-163.
X107.72Y-163.
X110.26Y-163.
X111.76Y-129.54
X112.8Y-163.
X114.3Y-129.54
X115.34Y-163.
X116.84Y-129.54
X117.88Y-163.
X120.42Y-163.
X122.96Y-163.
X125.5Y-163.
X128.04Y-163.
X130.58Y-163.
X133.12Y-163.
X135.66Y-163.
X137.16Y-134.62
X138.2Y-163.
X139.7Y-134.62
X140.74Y-163.
X143.28Y-163.
X145.82Y-163.
X148.36Y-163.
X150.9Y-163.
X153.44Y-163.
X155.98Y-163.
X156.46Y-135.96
X156.46Y-138.5
X156.46Y-141.04
X156.46Y-143.58
X156.46Y-146.12
X156.46Y-148.66
X156.46Y-151.2
X156.46Y-153.74
X156.46Y-156.28
X158.52Y-163.
X159.Y-135.96
X159.Y-138.5
X159.Y-141.04
X159.Y-143.58
X159.Y-146.12
X159.Y-148.66
X159.Y-151.2
X159.Y-153.74
X159.Y-156.28
T4
X150.4Y-119.38
X150.4Y-128.78
X154.2Y-119.38
X154.2Y-128.78
X158.Y-119.38
X158.Y-128.78
T0
M30
