G04 #@! TF.GenerationSoftware,KiCad,Pcbnew,5.1.6*
G04 #@! TF.CreationDate,2020-07-01T19:59:56+01:00*
G04 #@! TF.ProjectId,rc2014-ym2149,72633230-3134-42d7-996d-323134392e6b,5*
G04 #@! TF.SameCoordinates,Original*
G04 #@! TF.FileFunction,Copper,L2,Bot*
G04 #@! TF.FilePolarity,Positive*
%FSLAX46Y46*%
G04 Gerber Fmt 4.6, Leading zero omitted, Abs format (unit mm)*
G04 Created by KiCad (PCBNEW 5.1.6) date 2020-07-01 19:59:56*
%MOMM*%
%LPD*%
G01*
G04 APERTURE LIST*
G04 #@! TA.AperFunction,Profile*
%ADD10C,0.150000*%
G04 #@! TD*
G04 #@! TA.AperFunction,ComponentPad*
%ADD11C,1.600000*%
G04 #@! TD*
G04 #@! TA.AperFunction,ComponentPad*
%ADD12O,1.600000X1.600000*%
G04 #@! TD*
G04 #@! TA.AperFunction,ComponentPad*
%ADD13R,1.600000X2.400000*%
G04 #@! TD*
G04 #@! TA.AperFunction,ComponentPad*
%ADD14O,1.600000X2.400000*%
G04 #@! TD*
G04 #@! TA.AperFunction,ComponentPad*
%ADD15R,1.600000X1.600000*%
G04 #@! TD*
G04 #@! TA.AperFunction,ComponentPad*
%ADD16R,1.700000X1.700000*%
G04 #@! TD*
G04 #@! TA.AperFunction,ComponentPad*
%ADD17O,1.700000X1.700000*%
G04 #@! TD*
G04 #@! TA.AperFunction,ComponentPad*
%ADD18O,2.400000X1.600000*%
G04 #@! TD*
G04 #@! TA.AperFunction,ComponentPad*
%ADD19R,2.400000X1.600000*%
G04 #@! TD*
G04 #@! TA.AperFunction,ComponentPad*
%ADD20R,2.500000X1.800000*%
G04 #@! TD*
G04 #@! TA.AperFunction,ComponentPad*
%ADD21R,1.800000X2.500000*%
G04 #@! TD*
G04 #@! TA.AperFunction,ViaPad*
%ADD22C,0.685800*%
G04 #@! TD*
G04 #@! TA.AperFunction,Conductor*
%ADD23C,0.762000*%
G04 #@! TD*
G04 #@! TA.AperFunction,Conductor*
%ADD24C,0.381000*%
G04 #@! TD*
G04 #@! TA.AperFunction,Conductor*
%ADD25C,0.508000*%
G04 #@! TD*
G04 #@! TA.AperFunction,Conductor*
%ADD26C,0.254000*%
G04 #@! TD*
G04 APERTURE END LIST*
D10*
X160500000Y-121539000D02*
X160500000Y-120000000D01*
X158369000Y-121793000D02*
X158369000Y-128397000D01*
X158369000Y-121793000D02*
G75*
G02*
X158623000Y-121539000I254000J0D01*
G01*
X158623000Y-128651000D02*
G75*
G02*
X158369000Y-128397000I0J254000D01*
G01*
X160500000Y-121539000D02*
X158623000Y-121539000D01*
X160500000Y-128651000D02*
X158623000Y-128651000D01*
X160500000Y-120000000D02*
G75*
G03*
X155000000Y-114500000I-5500000J0D01*
G01*
X60500000Y-129500000D02*
X75500000Y-114500000D01*
X60500000Y-164500000D02*
X160500000Y-164500000D01*
X60500000Y-129500000D02*
X60500000Y-164500000D01*
X155000000Y-114500000D02*
X75500000Y-114500000D01*
X160500000Y-164500000D02*
X160500000Y-128651000D01*
D11*
X138684000Y-116586000D03*
D12*
X128524000Y-116586000D03*
X138684000Y-120142000D03*
D11*
X128524000Y-120142000D03*
X138684000Y-127254000D03*
D12*
X128524000Y-127254000D03*
D11*
X128524000Y-130810000D03*
D12*
X138684000Y-130810000D03*
D13*
X109855000Y-149860000D03*
D14*
X158115000Y-134620000D03*
X112395000Y-149860000D03*
X155575000Y-134620000D03*
X114935000Y-149860000D03*
X153035000Y-134620000D03*
X117475000Y-149860000D03*
X150495000Y-134620000D03*
X120015000Y-149860000D03*
X147955000Y-134620000D03*
X122555000Y-149860000D03*
X145415000Y-134620000D03*
X125095000Y-149860000D03*
X142875000Y-134620000D03*
X127635000Y-149860000D03*
X140335000Y-134620000D03*
X130175000Y-149860000D03*
X137795000Y-134620000D03*
X132715000Y-149860000D03*
X135255000Y-134620000D03*
X135255000Y-149860000D03*
X132715000Y-134620000D03*
X137795000Y-149860000D03*
X130175000Y-134620000D03*
X140335000Y-149860000D03*
X127635000Y-134620000D03*
X142875000Y-149860000D03*
X125095000Y-134620000D03*
X145415000Y-149860000D03*
X122555000Y-134620000D03*
X147955000Y-149860000D03*
X120015000Y-134620000D03*
X150495000Y-149860000D03*
X117475000Y-134620000D03*
X153035000Y-149860000D03*
X114935000Y-134620000D03*
X155575000Y-149860000D03*
X112395000Y-134620000D03*
X158115000Y-149860000D03*
X109855000Y-134620000D03*
D15*
X70866000Y-132842000D03*
D11*
X70866000Y-125222000D03*
X78486000Y-125222000D03*
X78486000Y-132842000D03*
X93980000Y-157226000D03*
X96480000Y-157226000D03*
X84074000Y-159512000D03*
X81574000Y-159512000D03*
X83312000Y-128230000D03*
X83312000Y-125730000D03*
X71628000Y-159512000D03*
X69128000Y-159512000D03*
X109220000Y-131064000D03*
X111720000Y-131064000D03*
D15*
X143764000Y-118110000D03*
D11*
X143764000Y-120610000D03*
X143764000Y-128865000D03*
D15*
X143764000Y-126365000D03*
D16*
X137668000Y-157480000D03*
D17*
X137668000Y-154940000D03*
X140208000Y-157480000D03*
X140208000Y-154940000D03*
X142748000Y-157480000D03*
X142748000Y-154940000D03*
X145288000Y-157480000D03*
X145288000Y-154940000D03*
X147828000Y-157480000D03*
X147828000Y-154940000D03*
X150368000Y-157480000D03*
X150368000Y-154940000D03*
X152908000Y-157480000D03*
X152908000Y-154940000D03*
X155448000Y-157480000D03*
X155448000Y-154940000D03*
X157988000Y-157480000D03*
X157988000Y-154940000D03*
D16*
X119634000Y-117348000D03*
D17*
X122174000Y-117348000D03*
X124714000Y-117348000D03*
D16*
X107950000Y-121666000D03*
D17*
X110490000Y-121666000D03*
X113030000Y-121666000D03*
X113030000Y-117348000D03*
X110490000Y-117348000D03*
D16*
X107950000Y-117348000D03*
D17*
X101346000Y-117348000D03*
X98806000Y-117348000D03*
D16*
X96266000Y-117348000D03*
D17*
X89662000Y-121666000D03*
X87122000Y-121666000D03*
D16*
X84582000Y-121666000D03*
D11*
X115316000Y-130810000D03*
D12*
X125476000Y-130810000D03*
X115316000Y-127254000D03*
D11*
X125476000Y-127254000D03*
D12*
X128524000Y-123698000D03*
D11*
X138684000Y-123698000D03*
D18*
X69596000Y-155956000D03*
X77216000Y-138176000D03*
X69596000Y-153416000D03*
X77216000Y-140716000D03*
X69596000Y-150876000D03*
X77216000Y-143256000D03*
X69596000Y-148336000D03*
X77216000Y-145796000D03*
X69596000Y-145796000D03*
X77216000Y-148336000D03*
X69596000Y-143256000D03*
X77216000Y-150876000D03*
X69596000Y-140716000D03*
X77216000Y-153416000D03*
X69596000Y-138176000D03*
D19*
X77216000Y-155956000D03*
X89662000Y-155956000D03*
D18*
X82042000Y-138176000D03*
X89662000Y-153416000D03*
X82042000Y-140716000D03*
X89662000Y-150876000D03*
X82042000Y-143256000D03*
X89662000Y-148336000D03*
X82042000Y-145796000D03*
X89662000Y-145796000D03*
X82042000Y-148336000D03*
X89662000Y-143256000D03*
X82042000Y-150876000D03*
X89662000Y-140716000D03*
X82042000Y-153416000D03*
X89662000Y-138176000D03*
X82042000Y-155956000D03*
D19*
X102108000Y-153416000D03*
D18*
X94488000Y-138176000D03*
X102108000Y-150876000D03*
X94488000Y-140716000D03*
X102108000Y-148336000D03*
X94488000Y-143256000D03*
X102108000Y-145796000D03*
X94488000Y-145796000D03*
X102108000Y-143256000D03*
X94488000Y-148336000D03*
X102108000Y-140716000D03*
X94488000Y-150876000D03*
X102108000Y-138176000D03*
X94488000Y-153416000D03*
D14*
X86868000Y-126238000D03*
X102108000Y-133858000D03*
X89408000Y-126238000D03*
X99568000Y-133858000D03*
X91948000Y-126238000D03*
X97028000Y-133858000D03*
X94488000Y-126238000D03*
X94488000Y-133858000D03*
X97028000Y-126238000D03*
X91948000Y-133858000D03*
X99568000Y-126238000D03*
X89408000Y-133858000D03*
X102108000Y-126238000D03*
D13*
X86868000Y-133858000D03*
D20*
X151130000Y-130095000D03*
X151130000Y-120095000D03*
D21*
X156130000Y-125095000D03*
D20*
X151130000Y-127595000D03*
X151130000Y-122595000D03*
D16*
X84582000Y-117348000D03*
D17*
X87122000Y-117348000D03*
X89662000Y-117348000D03*
D16*
X62000000Y-163000000D03*
D17*
X64540000Y-163000000D03*
X67080000Y-163000000D03*
X69620000Y-163000000D03*
X72160000Y-163000000D03*
X74700000Y-163000000D03*
X77240000Y-163000000D03*
X79780000Y-163000000D03*
X82320000Y-163000000D03*
X84860000Y-163000000D03*
X87400000Y-163000000D03*
X89940000Y-163000000D03*
X92480000Y-163000000D03*
X95020000Y-163000000D03*
X97560000Y-163000000D03*
X100100000Y-163000000D03*
X102640000Y-163000000D03*
X105180000Y-163000000D03*
X107720000Y-163000000D03*
X110260000Y-163000000D03*
X112800000Y-163000000D03*
X115340000Y-163000000D03*
X117880000Y-163000000D03*
X120420000Y-163000000D03*
X122960000Y-163000000D03*
X125500000Y-163000000D03*
X128040000Y-163000000D03*
X130580000Y-163000000D03*
X133120000Y-163000000D03*
X135660000Y-163000000D03*
X138200000Y-163000000D03*
X140740000Y-163000000D03*
X143280000Y-163000000D03*
X145820000Y-163000000D03*
X148360000Y-163000000D03*
X150900000Y-163000000D03*
X153440000Y-163000000D03*
X155980000Y-163000000D03*
X158520000Y-163000000D03*
D16*
X96266000Y-121666000D03*
D17*
X98806000Y-121666000D03*
X101346000Y-121666000D03*
D16*
X65278000Y-155956000D03*
D17*
X62738000Y-155956000D03*
X65278000Y-153416000D03*
X62738000Y-153416000D03*
X65278000Y-150876000D03*
X62738000Y-150876000D03*
X65278000Y-148336000D03*
X62738000Y-148336000D03*
X65278000Y-145796000D03*
X62738000Y-145796000D03*
X65278000Y-143256000D03*
X62738000Y-143256000D03*
X65278000Y-140716000D03*
X62738000Y-140716000D03*
X65278000Y-138176000D03*
X62738000Y-138176000D03*
X65278000Y-135636000D03*
X62738000Y-135636000D03*
D16*
X119634000Y-121666000D03*
D17*
X122174000Y-121666000D03*
D22*
X105029110Y-138672586D03*
X107083499Y-151002167D03*
X95250000Y-124460000D03*
D23*
X109220000Y-131064000D02*
X109220000Y-133585000D01*
X109220000Y-133585000D02*
X109855000Y-134220000D01*
X109855000Y-134220000D02*
X109855000Y-134620000D01*
X109855000Y-134620000D02*
X109855000Y-135020000D01*
X109855000Y-135020000D02*
X109855000Y-135704300D01*
X109855000Y-135704300D02*
X111480400Y-137329700D01*
X69596000Y-155956000D02*
X69996000Y-155956000D01*
X69996000Y-155956000D02*
X69996000Y-157880000D01*
X69996000Y-157880000D02*
X71628000Y-159512000D01*
X71628000Y-159512000D02*
X81574000Y-159512000D01*
X93980000Y-157226000D02*
X93980000Y-153524000D01*
X93980000Y-153524000D02*
X94088000Y-153416000D01*
X94088000Y-153416000D02*
X94488000Y-153416000D01*
X140335000Y-134620000D02*
X140335000Y-135020000D01*
X140335000Y-135020000D02*
X138025300Y-137329700D01*
X138025300Y-137329700D02*
X111480400Y-137329700D01*
X70866000Y-125222000D02*
X72428100Y-126784100D01*
X72428100Y-126784100D02*
X77839000Y-126784100D01*
X77839000Y-126784100D02*
X79133000Y-126784100D01*
X79133000Y-126784100D02*
X81471000Y-126784100D01*
X81471000Y-126784100D02*
X82349300Y-125905800D01*
X82349300Y-125905800D02*
X83136200Y-125905800D01*
X83136200Y-125905800D02*
X83312000Y-125730000D01*
X83312000Y-125730000D02*
X83420000Y-125838000D01*
X83420000Y-125838000D02*
X86868000Y-125838000D01*
X86868000Y-125838000D02*
X86868000Y-126238000D01*
X89408000Y-126238000D02*
X86868000Y-126238000D01*
X86868000Y-126238000D02*
X86868000Y-126638000D01*
X86868000Y-126638000D02*
X86868000Y-132658000D01*
X86868000Y-132658000D02*
X86868000Y-133039000D01*
X86868000Y-133039000D02*
X86868000Y-133858000D01*
X86868000Y-133858000D02*
X87287000Y-134677000D01*
X87287000Y-134677000D02*
X87287000Y-135058000D01*
X87287000Y-135058000D02*
X87287000Y-135215800D01*
X87287000Y-135215800D02*
X87510200Y-135439000D01*
X87510200Y-135439000D02*
X87891300Y-135820100D01*
X87891300Y-135820100D02*
X91301000Y-135820100D01*
X91301000Y-135820100D02*
X92595000Y-135820100D01*
X92595000Y-135820100D02*
X92925900Y-135820100D01*
X92925900Y-135820100D02*
X94488000Y-134258000D01*
X94488000Y-134258000D02*
X94488000Y-133858000D01*
X105848043Y-148829484D02*
X105848043Y-161129876D01*
X105180000Y-161797919D02*
X105180000Y-163000000D01*
X105848043Y-161129876D02*
X105180000Y-161797919D01*
X111480400Y-137329700D02*
X111480400Y-143197127D01*
X111480400Y-143197127D02*
X105848043Y-148829484D01*
X120770000Y-128729300D02*
X117680200Y-131819100D01*
X117680200Y-131819100D02*
X116480500Y-131819100D01*
X116480500Y-131819100D02*
X115952700Y-132346900D01*
X115952700Y-132346900D02*
X115952600Y-132346900D01*
X115952600Y-132346900D02*
X114679400Y-132346900D01*
X114679400Y-132346900D02*
X113002900Y-132346900D01*
X113002900Y-132346900D02*
X111720000Y-131064000D01*
X89662000Y-138176000D02*
X89262000Y-138176000D01*
X89262000Y-138176000D02*
X87030500Y-138176000D01*
X87030500Y-138176000D02*
X85436700Y-136582200D01*
X85436700Y-136582200D02*
X84543800Y-135689300D01*
X84543800Y-135689300D02*
X81800400Y-132945900D01*
X81800400Y-132945900D02*
X81800400Y-132284200D01*
X83312000Y-128230000D02*
X81800400Y-129741600D01*
X81800400Y-129741600D02*
X81800400Y-132284200D01*
X120770000Y-128729300D02*
X122850700Y-130810000D01*
X122850700Y-130810000D02*
X125476000Y-130810000D01*
X119634000Y-121666000D02*
X120103000Y-122135000D01*
X120103000Y-122135000D02*
X120103000Y-122516000D01*
X120103000Y-122516000D02*
X120103000Y-128062300D01*
X120103000Y-128062300D02*
X120770000Y-128729300D01*
X137668000Y-157480000D02*
X137199000Y-157011000D01*
X137199000Y-157011000D02*
X136818000Y-157011000D01*
X136818000Y-157011000D02*
X116067200Y-157011000D01*
X116067200Y-157011000D02*
X110497200Y-151441000D01*
X110497200Y-151441000D02*
X110274000Y-151217800D01*
X110274000Y-151217800D02*
X110274000Y-151060000D01*
X110274000Y-151060000D02*
X110274000Y-150679000D01*
X110274000Y-150679000D02*
X109855000Y-149860000D01*
X69128000Y-159512000D02*
X70690100Y-161074100D01*
X70690100Y-161074100D02*
X80927000Y-161074100D01*
X80927000Y-161074100D02*
X82221000Y-161074100D01*
X82221000Y-161074100D02*
X82511900Y-161074100D01*
X82511900Y-161074100D02*
X84074000Y-159512000D01*
X78486000Y-132842000D02*
X81242600Y-132842000D01*
X81242600Y-132842000D02*
X81800400Y-132284200D01*
X137232000Y-121594000D02*
X138684000Y-120142000D01*
X120873200Y-119888000D02*
X123952000Y-119888000D01*
X120103000Y-120658200D02*
X120873200Y-119888000D01*
X125658000Y-121594000D02*
X137232000Y-121594000D01*
X120103000Y-121197000D02*
X120103000Y-120658200D01*
X123952000Y-119888000D02*
X125658000Y-121594000D01*
X119634000Y-121666000D02*
X120103000Y-121197000D01*
X101257551Y-138176000D02*
X102108000Y-138176000D01*
X96480000Y-157226000D02*
X99504489Y-154201511D01*
X99504489Y-154201511D02*
X99504489Y-139929062D01*
X99504489Y-139929062D02*
X101257551Y-138176000D01*
D24*
X62000000Y-163000000D02*
X62659500Y-162340500D01*
X62659500Y-162340500D02*
X62659500Y-162150000D01*
X62659500Y-162150000D02*
X62659500Y-161082900D01*
X62659500Y-161082900D02*
X66699600Y-157042800D01*
X66699600Y-157042800D02*
X66699600Y-156852300D01*
X66699600Y-156852300D02*
X66699600Y-156656300D01*
X66699600Y-156656300D02*
X67926000Y-155429900D01*
X67926000Y-155429900D02*
X68669900Y-154686000D01*
X68669900Y-154686000D02*
X69469900Y-154686000D01*
X69469900Y-154686000D02*
X70522100Y-154686000D01*
X70522100Y-154686000D02*
X71266000Y-153942100D01*
X71266000Y-153942100D02*
X71266000Y-151545700D01*
X71266000Y-151545700D02*
X71367600Y-151444100D01*
X71367600Y-151444100D02*
X71367600Y-149448300D01*
X71367600Y-149448300D02*
X75546000Y-145269900D01*
X75546000Y-145269900D02*
X76289900Y-144526000D01*
X76289900Y-144526000D02*
X77089900Y-144526000D01*
X77089900Y-144526000D02*
X78575900Y-144526000D01*
X78575900Y-144526000D02*
X81115900Y-141986000D01*
X81115900Y-141986000D02*
X81915900Y-141986000D01*
X81915900Y-141986000D02*
X88735900Y-141986000D01*
X88735900Y-141986000D02*
X89535900Y-141986000D01*
X89535900Y-141986000D02*
X92818000Y-141986000D01*
X92818000Y-141986000D02*
X94088000Y-140716000D01*
X94088000Y-140716000D02*
X94488000Y-140716000D01*
X94488000Y-140716000D02*
X94488000Y-143256000D01*
D25*
X115316000Y-127254000D02*
X115316000Y-130810000D01*
X128524000Y-120142000D02*
X128524000Y-116586000D01*
D26*
X140208000Y-157480000D02*
X140036900Y-157480000D01*
X140036900Y-157480000D02*
X138713900Y-156157000D01*
X138713900Y-156157000D02*
X138322100Y-156157000D01*
X138322100Y-156157000D02*
X138269100Y-156210000D01*
X138269100Y-156210000D02*
X138194100Y-156210000D01*
X138194100Y-156210000D02*
X137141900Y-156210000D01*
X137141900Y-156210000D02*
X137066900Y-156210000D01*
X137066900Y-156210000D02*
X137013900Y-156157000D01*
X137013900Y-156157000D02*
X128452000Y-156157000D01*
X128452000Y-156157000D02*
X122555000Y-150260000D01*
X122555000Y-150260000D02*
X122555000Y-149860000D01*
X140208000Y-154940000D02*
X139458000Y-154940000D01*
X139458000Y-154940000D02*
X138192300Y-153674300D01*
X138192300Y-153674300D02*
X128509300Y-153674300D01*
X128509300Y-153674300D02*
X125095000Y-150260000D01*
X125095000Y-150260000D02*
X125095000Y-149860000D01*
X142748000Y-157480000D02*
X141473700Y-156205700D01*
X141473700Y-156205700D02*
X141473700Y-154415700D01*
X141473700Y-154415700D02*
X140732300Y-153674300D01*
X140732300Y-153674300D02*
X138959900Y-153674300D01*
X138959900Y-153674300D02*
X138417100Y-153131500D01*
X138417100Y-153131500D02*
X130506500Y-153131500D01*
X130506500Y-153131500D02*
X127635000Y-150260000D01*
X127635000Y-150260000D02*
X127635000Y-149860000D01*
X138641900Y-152588800D02*
X131449800Y-152588800D01*
X131449800Y-152588800D02*
X130175000Y-151314000D01*
X140970040Y-153162040D02*
X139215140Y-153162040D01*
X139215140Y-153162040D02*
X138641900Y-152588800D01*
X130175000Y-151314000D02*
X130175000Y-149860000D01*
X142748000Y-154940000D02*
X140970040Y-153162040D01*
D24*
X103689000Y-140716000D02*
X105029110Y-139375890D01*
X102108000Y-140716000D02*
X103689000Y-140716000D01*
X105029110Y-139375890D02*
X105029110Y-138672586D01*
D26*
X138866700Y-152046100D02*
X133447100Y-152046100D01*
X144018000Y-156210000D02*
X144018000Y-154413900D01*
X143274100Y-153670000D02*
X142263100Y-153670000D01*
X141247131Y-152654031D02*
X139474631Y-152654031D01*
X139474631Y-152654031D02*
X138866700Y-152046100D01*
X144018000Y-154413900D02*
X143274100Y-153670000D01*
X142263100Y-153670000D02*
X141247131Y-152654031D01*
X145288000Y-157480000D02*
X144018000Y-156210000D01*
X132715000Y-151314000D02*
X132715000Y-149860000D01*
X133447100Y-152046100D02*
X132715000Y-151314000D01*
X145288000Y-154940000D02*
X143298600Y-152950600D01*
X141506621Y-152146021D02*
X139734121Y-152146021D01*
X139091500Y-151503400D02*
X135444400Y-151503400D01*
X135255000Y-151314000D02*
X135255000Y-149860000D01*
X143298600Y-152950600D02*
X142311200Y-152950600D01*
X142311200Y-152950600D02*
X141506621Y-152146021D01*
X135444400Y-151503400D02*
X135255000Y-151314000D01*
X139734121Y-152146021D02*
X139091500Y-151503400D01*
X142528111Y-152400011D02*
X141766111Y-151638011D01*
X139993711Y-151638011D02*
X138215700Y-149860000D01*
X141766111Y-151638011D02*
X139993711Y-151638011D01*
X143916911Y-152400011D02*
X142528111Y-152400011D01*
X146558000Y-154413900D02*
X145814100Y-153670000D01*
X146558000Y-156210000D02*
X146558000Y-154413900D01*
X147828000Y-157480000D02*
X146558000Y-156210000D01*
X145186900Y-153670000D02*
X143916911Y-152400011D01*
X145814100Y-153670000D02*
X145186900Y-153670000D01*
X138215700Y-149860000D02*
X137795000Y-149860000D01*
X140335000Y-150260000D02*
X140335000Y-149860000D01*
X141205000Y-151130000D02*
X140335000Y-150260000D01*
X142787700Y-151892000D02*
X142025700Y-151130000D01*
X144304300Y-151892000D02*
X142787700Y-151892000D01*
X146113600Y-152946800D02*
X145359100Y-152946800D01*
X142025700Y-151130000D02*
X141205000Y-151130000D01*
X145359100Y-152946800D02*
X144304300Y-151892000D01*
X147828000Y-154940000D02*
X147281200Y-154393200D01*
X147281200Y-154393200D02*
X147281200Y-154114400D01*
X147281200Y-154114400D02*
X146113600Y-152946800D01*
X150368000Y-157480000D02*
X149098000Y-156210000D01*
X149098000Y-156210000D02*
X149098000Y-154413900D01*
X149098000Y-154413900D02*
X148354100Y-153670000D01*
X148354100Y-153670000D02*
X147735000Y-153670000D01*
X147735000Y-153670000D02*
X146376700Y-152311700D01*
X146376700Y-152311700D02*
X145619400Y-152311700D01*
X145619400Y-152311700D02*
X144358800Y-151051100D01*
X144358800Y-151051100D02*
X143666100Y-151051100D01*
X143666100Y-151051100D02*
X142875000Y-150260000D01*
X142875000Y-150260000D02*
X142875000Y-149860000D01*
X150368000Y-154940000D02*
X149821200Y-154393200D01*
X149821200Y-154393200D02*
X149821200Y-154114400D01*
X149821200Y-154114400D02*
X148653600Y-152946800D01*
X148653600Y-152946800D02*
X148101800Y-152946800D01*
X148101800Y-152946800D02*
X145415000Y-150260000D01*
X145415000Y-150260000D02*
X145415000Y-149860000D01*
X152908000Y-157480000D02*
X151638000Y-156210000D01*
X151638000Y-156210000D02*
X151638000Y-154413900D01*
X151638000Y-154413900D02*
X147955000Y-150730900D01*
X147955000Y-150730900D02*
X147955000Y-150260000D01*
X147955000Y-150260000D02*
X147955000Y-149860000D01*
X152908000Y-154940000D02*
X152361200Y-154393200D01*
X152361200Y-154393200D02*
X152361200Y-154114400D01*
X152361200Y-154114400D02*
X150495000Y-152248200D01*
X150495000Y-152248200D02*
X150495000Y-150260000D01*
X150495000Y-150260000D02*
X150495000Y-149860000D01*
X155448000Y-157480000D02*
X154178000Y-156210000D01*
X154178000Y-156210000D02*
X154178000Y-154413900D01*
X154178000Y-154413900D02*
X153035000Y-153270900D01*
X153035000Y-153270900D02*
X153035000Y-150260000D01*
X153035000Y-150260000D02*
X153035000Y-149860000D01*
X155448000Y-154940000D02*
X155448000Y-150387000D01*
X155448000Y-150387000D02*
X155575000Y-150260000D01*
X155575000Y-150260000D02*
X155575000Y-149860000D01*
X157988000Y-157480000D02*
X157988000Y-156860600D01*
X157988000Y-156860600D02*
X159346100Y-155502500D01*
X159346100Y-155502500D02*
X159346100Y-154377500D01*
X159346100Y-154377500D02*
X158115000Y-153146400D01*
X158115000Y-153146400D02*
X158115000Y-150260000D01*
X158115000Y-150260000D02*
X158115000Y-149860000D01*
D25*
X114935000Y-134620000D02*
X114935000Y-134220000D01*
X114935000Y-134220000D02*
X115481100Y-134220000D01*
X115481100Y-134220000D02*
X116891000Y-132810100D01*
X116891000Y-132810100D02*
X119395400Y-132810100D01*
X119395400Y-132810100D02*
X119420600Y-132784900D01*
X119420600Y-132784900D02*
X121960600Y-132784900D01*
X121960600Y-132784900D02*
X124500600Y-132784900D01*
X124500600Y-132784900D02*
X126549100Y-132784900D01*
X126549100Y-132784900D02*
X128524000Y-130810000D01*
X128524000Y-123698000D02*
X128524000Y-127254000D01*
X128524000Y-130810000D02*
X128524000Y-127254000D01*
D26*
X157988000Y-154940000D02*
X156845000Y-153797000D01*
X156845000Y-153797000D02*
X156845000Y-149986100D01*
X156845000Y-149986100D02*
X156845000Y-148933900D01*
X156845000Y-148933900D02*
X156845000Y-136290000D01*
X156845000Y-136290000D02*
X158115000Y-135020000D01*
X158115000Y-135020000D02*
X158115000Y-134620000D01*
D24*
X97560000Y-163000000D02*
X97030400Y-163000000D01*
X97030400Y-163000000D02*
X95608800Y-161578400D01*
X95608800Y-161578400D02*
X94146600Y-161578400D01*
X94146600Y-161578400D02*
X93384500Y-160816300D01*
X93384500Y-160816300D02*
X91922300Y-160816300D01*
X91922300Y-160816300D02*
X91160200Y-160054200D01*
X91160200Y-160054200D02*
X90951800Y-160054200D01*
X90951800Y-160054200D02*
X88225200Y-157327600D01*
X88225200Y-157327600D02*
X87890400Y-156992800D01*
X87890400Y-156992800D02*
X87890400Y-155392800D01*
X87890400Y-155392800D02*
X87890400Y-154919200D01*
X87890400Y-154919200D02*
X87890400Y-154787600D01*
X87890400Y-154787600D02*
X89262000Y-153416000D01*
X89262000Y-153416000D02*
X89662000Y-153416000D01*
X94488000Y-150876000D02*
X94488000Y-148336000D01*
X103529700Y-122570500D02*
X103529700Y-119531700D01*
X103479600Y-134646402D02*
X103479600Y-122620600D01*
X95042141Y-148336000D02*
X98545900Y-144832241D01*
X98545900Y-144832241D02*
X98545900Y-139547187D01*
X94488000Y-148336000D02*
X95042141Y-148336000D01*
X98545900Y-139547187D02*
X102590577Y-135502510D01*
X103479600Y-122620600D02*
X103529700Y-122570500D01*
X103529700Y-119531700D02*
X102195999Y-118197999D01*
X102590577Y-135502510D02*
X102623492Y-135502510D01*
X102623492Y-135502510D02*
X103479600Y-134646402D01*
X102195999Y-118197999D02*
X101346000Y-117348000D01*
X82968100Y-152146000D02*
X83712000Y-152889900D01*
X83712000Y-152889900D02*
X83712000Y-154208500D01*
X80682100Y-152146000D02*
X82968100Y-152146000D01*
X76289900Y-149606000D02*
X78142100Y-149606000D01*
X84575700Y-155787500D02*
X91788200Y-163000000D01*
X78142100Y-149606000D02*
X80682100Y-152146000D01*
X96266000Y-121666000D02*
X96925500Y-122325500D01*
X96925500Y-122325500D02*
X96925500Y-123939400D01*
X98298000Y-125311900D02*
X98298000Y-130391900D01*
X98298000Y-130391900D02*
X100838000Y-132931900D01*
X100838000Y-132931900D02*
X100838000Y-134784100D01*
X100838000Y-134784100D02*
X97783800Y-137838300D01*
X76289900Y-147066000D02*
X75546000Y-147809900D01*
X91788200Y-163000000D02*
X92480000Y-163000000D01*
X84575700Y-155072200D02*
X84575700Y-155787500D01*
X75546000Y-147809900D02*
X75546000Y-148862100D01*
X83712000Y-154208500D02*
X84575700Y-155072200D01*
X97783800Y-137838300D02*
X97783800Y-144696300D01*
X97783800Y-144696300D02*
X95414100Y-147066000D01*
X95414100Y-147066000D02*
X76289900Y-147066000D01*
X96925500Y-123939400D02*
X98298000Y-125311900D01*
X75546000Y-148862100D02*
X76289900Y-149606000D01*
X91426840Y-161578400D02*
X87128300Y-157279860D01*
X87128300Y-157279860D02*
X87128300Y-156547000D01*
X78022300Y-148742300D02*
X77616000Y-148336000D01*
X84575700Y-153994400D02*
X84575700Y-152532200D01*
X87128300Y-156547000D02*
X84575700Y-153994400D01*
X79363500Y-149606000D02*
X78499800Y-148742300D01*
X84575700Y-152532200D02*
X83712000Y-151668500D01*
X95020000Y-163000000D02*
X94490400Y-163000000D01*
X83712000Y-150349900D02*
X82968100Y-149606000D01*
X78499800Y-148742300D02*
X78022300Y-148742300D01*
X93068800Y-161578400D02*
X91426840Y-161578400D01*
X77616000Y-148336000D02*
X77216000Y-148336000D01*
X83712000Y-151668500D02*
X83712000Y-150349900D01*
X82968100Y-149606000D02*
X79363500Y-149606000D01*
X94490400Y-163000000D02*
X93068800Y-161578400D01*
X87400000Y-163000000D02*
X86207700Y-161807700D01*
X86207700Y-161807700D02*
X86207700Y-158628200D01*
X86207700Y-158628200D02*
X83712000Y-156132500D01*
X83712000Y-156132500D02*
X83712000Y-155429900D01*
X83712000Y-155429900D02*
X82968100Y-154686000D01*
X82968100Y-154686000D02*
X82168100Y-154686000D01*
X82168100Y-154686000D02*
X81115900Y-154686000D01*
X81115900Y-154686000D02*
X80372000Y-153942100D01*
X80372000Y-153942100D02*
X77616000Y-151186100D01*
X77616000Y-151186100D02*
X77616000Y-150876000D01*
X77616000Y-150876000D02*
X77216000Y-150876000D01*
X84860000Y-163000000D02*
X84860000Y-160665700D01*
X84860000Y-160665700D02*
X85445600Y-160080100D01*
X85445600Y-160080100D02*
X85445600Y-158943900D01*
X85445600Y-158943900D02*
X84642100Y-158140400D01*
X84642100Y-158140400D02*
X82142100Y-158140400D01*
X82142100Y-158140400D02*
X81886700Y-158140400D01*
X81886700Y-158140400D02*
X81073900Y-157327600D01*
X81073900Y-157327600D02*
X80270400Y-156524100D01*
X80270400Y-156524100D02*
X78987600Y-155241300D01*
X78987600Y-155241300D02*
X78987600Y-154919200D01*
X78987600Y-154919200D02*
X77616000Y-153547600D01*
X77616000Y-153547600D02*
X77616000Y-153416000D01*
X77616000Y-153416000D02*
X77216000Y-153416000D01*
X151130000Y-122595000D02*
X151130000Y-121885500D01*
X151130000Y-121885500D02*
X151130000Y-121695000D01*
X151130000Y-121695000D02*
X151130000Y-120995000D01*
X151130000Y-120995000D02*
X151130000Y-120804500D01*
X151130000Y-120804500D02*
X151130000Y-120095000D01*
X151130000Y-120095000D02*
X150070500Y-120610000D01*
X150070500Y-120610000D02*
X149880000Y-120610000D01*
X149880000Y-120610000D02*
X143764000Y-120610000D01*
X143764000Y-126365000D02*
X143154500Y-125755500D01*
X143154500Y-125755500D02*
X142964000Y-125755500D01*
X142964000Y-125755500D02*
X140741500Y-125755500D01*
X140741500Y-125755500D02*
X138684000Y-123698000D01*
X138684000Y-116586000D02*
X138684000Y-118202300D01*
X138684000Y-118202300D02*
X140055600Y-119573900D01*
X140055600Y-119573900D02*
X140055600Y-120710100D01*
X140055600Y-120710100D02*
X138684000Y-122081700D01*
X138684000Y-122081700D02*
X138684000Y-123698000D01*
X151130000Y-127595000D02*
X151130000Y-128304500D01*
X151130000Y-128304500D02*
X151130000Y-128495000D01*
X151130000Y-128495000D02*
X151130000Y-129195000D01*
X151130000Y-129195000D02*
X151130000Y-129385500D01*
X151130000Y-129385500D02*
X151130000Y-130095000D01*
X151130000Y-130095000D02*
X150070500Y-129385500D01*
X150070500Y-129385500D02*
X149880000Y-129385500D01*
X149880000Y-129385500D02*
X144284500Y-129385500D01*
X144284500Y-129385500D02*
X143764000Y-128865000D01*
X104387521Y-147472563D02*
X107740358Y-144119726D01*
X89662000Y-155956000D02*
X89662000Y-157137000D01*
X114959512Y-122550391D02*
X114959512Y-119514088D01*
X120802510Y-115976510D02*
X122174000Y-117348000D01*
X89662000Y-157137000D02*
X91122600Y-158597600D01*
X107232366Y-135512930D02*
X107232366Y-130277537D01*
X107740358Y-136020922D02*
X107232366Y-135512930D01*
X99734800Y-158597600D02*
X104387521Y-153944879D01*
X107232366Y-130277537D02*
X114959512Y-122550391D01*
X104387521Y-153944879D02*
X104387521Y-147472563D01*
X114959512Y-119514088D02*
X118497090Y-115976510D01*
X107740358Y-144119726D02*
X107740358Y-136020922D01*
X118497090Y-115976510D02*
X120802510Y-115976510D01*
X91122600Y-158597600D02*
X99734800Y-158597600D01*
X105833592Y-137942238D02*
X104927401Y-137036047D01*
X105833592Y-142070408D02*
X105833592Y-137942238D01*
X104927401Y-137036047D02*
X104927401Y-127228599D01*
X104927401Y-127228599D02*
X110490000Y-121666000D01*
X102108000Y-145796000D02*
X105833592Y-142070408D01*
X96059260Y-125046738D02*
X96059260Y-123849904D01*
X96059260Y-123849904D02*
X94844400Y-122635044D01*
X95758000Y-125347998D02*
X96059260Y-125046738D01*
X95758000Y-130391900D02*
X95758000Y-125347998D01*
X94844400Y-118769600D02*
X96266000Y-117348000D01*
X98298000Y-132931900D02*
X95758000Y-130391900D01*
X98298000Y-134784100D02*
X98298000Y-132931900D01*
X97021700Y-136060400D02*
X98298000Y-134784100D01*
X94844400Y-122635044D02*
X94844400Y-118769600D01*
X97021700Y-144093400D02*
X97021700Y-136060400D01*
X95319100Y-145796000D02*
X97021700Y-144093400D01*
X94488000Y-145796000D02*
X95319100Y-145796000D01*
X122174000Y-121666000D02*
X122944500Y-122436500D01*
X122944500Y-122436500D02*
X129046500Y-122436500D01*
X129046500Y-122436500D02*
X136048400Y-129438400D01*
X136048400Y-129438400D02*
X139252100Y-129438400D01*
X139252100Y-129438400D02*
X142662100Y-132848400D01*
X142662100Y-132848400D02*
X143443100Y-132848400D01*
X143443100Y-132848400D02*
X144814700Y-134220000D01*
X144814700Y-134220000D02*
X145415000Y-134220000D01*
X145415000Y-134220000D02*
X145415000Y-134620000D01*
X108375369Y-144382756D02*
X108375369Y-135757892D01*
X108375369Y-135757892D02*
X107873900Y-135256423D01*
X100100000Y-163000000D02*
X105022532Y-158077468D01*
X119634000Y-118773942D02*
X119634000Y-117348000D01*
X107873900Y-135256423D02*
X107873900Y-130534043D01*
X107873900Y-130534043D02*
X119634000Y-118773942D01*
X105022532Y-147735593D02*
X108375369Y-144382756D01*
X105022532Y-158077468D02*
X105022532Y-147735593D01*
X103752510Y-151771490D02*
X103752510Y-147209533D01*
X102108000Y-153416000D02*
X103752510Y-151771490D01*
X113651361Y-120371499D02*
X109244501Y-120371499D01*
X107105347Y-136283952D02*
X106597355Y-135775960D01*
X114324501Y-122287361D02*
X114324501Y-121044639D01*
X106597355Y-130014507D02*
X114324501Y-122287361D01*
X103752510Y-147209533D02*
X107105347Y-143856696D01*
X114324501Y-121044639D02*
X113651361Y-120371499D01*
X107105347Y-143856696D02*
X107105347Y-136283952D01*
X109244501Y-120371499D02*
X107950000Y-121666000D01*
X106597355Y-135775960D02*
X106597355Y-130014507D01*
X100463490Y-147820508D02*
X100463490Y-149231490D01*
X101192508Y-147091490D02*
X100463490Y-147820508D01*
X105962344Y-128733656D02*
X105962344Y-136038990D01*
X100463490Y-149231490D02*
X102108000Y-150876000D01*
X102972512Y-147091490D02*
X101192508Y-147091490D01*
X105962344Y-136038990D02*
X106470336Y-136546982D01*
X106470336Y-136546982D02*
X106470336Y-143593666D01*
X113030000Y-121666000D02*
X105962344Y-128733656D01*
X106470336Y-143593666D02*
X102972512Y-147091490D01*
X106863200Y-120244400D02*
X107593600Y-120244400D01*
X107593600Y-120244400D02*
X110490000Y-117348000D01*
X104241700Y-138836300D02*
X104241700Y-122865900D01*
X103634550Y-139443450D02*
X104241700Y-138836300D01*
X101157549Y-139443450D02*
X103634550Y-139443450D01*
X100330000Y-140270999D02*
X101157549Y-139443450D01*
X100330000Y-141478000D02*
X100330000Y-140270999D01*
X102108000Y-143256000D02*
X100330000Y-141478000D01*
X104241700Y-122865900D02*
X106863200Y-120244400D01*
X62738000Y-148336000D02*
X62738000Y-150876000D01*
X62738000Y-135636000D02*
X62738000Y-138176000D01*
X62738000Y-138176000D02*
X62738000Y-140716000D01*
X62738000Y-140716000D02*
X62738000Y-143256000D01*
X62738000Y-143256000D02*
X62738000Y-145796000D01*
X62738000Y-155956000D02*
X62738000Y-153416000D01*
X62738000Y-153416000D02*
X62738000Y-150876000D01*
X62738000Y-145796000D02*
X62738000Y-148336000D01*
X90062000Y-145796000D02*
X89662000Y-145796000D01*
X95414100Y-144526000D02*
X93561900Y-144526000D01*
X96259600Y-143680500D02*
X95414100Y-144526000D01*
X62738000Y-135636000D02*
X63267600Y-135636000D01*
X63267600Y-135636000D02*
X64689200Y-134214400D01*
X64689200Y-134214400D02*
X67085200Y-134214400D01*
X67085200Y-134214400D02*
X69829200Y-131470400D01*
X87006000Y-136804400D02*
X95456100Y-136804400D01*
X69829200Y-131470400D02*
X78303800Y-131470400D01*
X78303800Y-131470400D02*
X82794200Y-126980000D01*
X92291900Y-145796000D02*
X90062000Y-145796000D01*
X95456100Y-136804400D02*
X96259600Y-137607900D01*
X96259600Y-137607900D02*
X96259600Y-143680500D01*
X82794200Y-126980000D02*
X83829800Y-126980000D01*
X83829800Y-126980000D02*
X84562000Y-127712200D01*
X84562000Y-127712200D02*
X84562000Y-134360400D01*
X93561900Y-144526000D02*
X92291900Y-145796000D01*
X84562000Y-134360400D02*
X87006000Y-136804400D01*
X91948000Y-133858000D02*
X91948000Y-133458000D01*
X91948000Y-133458000D02*
X90678000Y-132188000D01*
X90678000Y-132188000D02*
X90678000Y-125311900D01*
X90678000Y-125311900D02*
X87122000Y-121755900D01*
X87122000Y-121755900D02*
X87122000Y-121666000D01*
X107720000Y-163000000D02*
X107720000Y-151638668D01*
X107720000Y-151638668D02*
X107083499Y-151002167D01*
X110260000Y-163000000D02*
X108483400Y-161223400D01*
X108483400Y-161223400D02*
X108483400Y-148896800D01*
X108483400Y-148896800D02*
X108483400Y-148423200D01*
X108483400Y-148423200D02*
X108818200Y-148088400D01*
X108818200Y-148088400D02*
X109199200Y-148088400D01*
X109199200Y-148088400D02*
X110037200Y-148088400D01*
X110037200Y-148088400D02*
X110418200Y-148088400D01*
X110418200Y-148088400D02*
X139966600Y-148088400D01*
X139966600Y-148088400D02*
X153035000Y-135020000D01*
X153035000Y-135020000D02*
X153035000Y-134620000D01*
X84582000Y-121666000D02*
X83922500Y-122325500D01*
X83922500Y-122325500D02*
X83732000Y-122325500D01*
X83732000Y-122325500D02*
X83653100Y-122325500D01*
X83653100Y-122325500D02*
X80756600Y-125222000D01*
X80756600Y-125222000D02*
X78486000Y-125222000D01*
X154432000Y-133477000D02*
X155575000Y-134620000D01*
X154432000Y-120446898D02*
X154432000Y-133477000D01*
X149326601Y-115341499D02*
X154432000Y-120446898D01*
X89128501Y-115341499D02*
X149326601Y-115341499D01*
X87122000Y-117348000D02*
X89128501Y-115341499D01*
X65278000Y-155956000D02*
X65937500Y-155296500D01*
X65937500Y-155296500D02*
X66128000Y-155296500D01*
X66128000Y-155296500D02*
X66838000Y-155296500D01*
X66838000Y-155296500D02*
X68312200Y-153822300D01*
X68312200Y-153822300D02*
X68789700Y-153822300D01*
X68789700Y-153822300D02*
X69196000Y-153416000D01*
X69196000Y-153416000D02*
X69596000Y-153416000D01*
X65278000Y-153416000D02*
X66656000Y-153416000D01*
X66656000Y-153416000D02*
X69196000Y-150876000D01*
X69196000Y-150876000D02*
X69596000Y-150876000D01*
X65278000Y-150876000D02*
X66656000Y-150876000D01*
X66656000Y-150876000D02*
X69196000Y-148336000D01*
X69196000Y-148336000D02*
X69596000Y-148336000D01*
X65278000Y-148336000D02*
X66656000Y-148336000D01*
X66656000Y-148336000D02*
X69196000Y-145796000D01*
X69196000Y-145796000D02*
X69596000Y-145796000D01*
X65278000Y-145796000D02*
X66656000Y-145796000D01*
X66656000Y-145796000D02*
X69196000Y-143256000D01*
X69196000Y-143256000D02*
X69596000Y-143256000D01*
X65278000Y-143256000D02*
X66656000Y-143256000D01*
X66656000Y-143256000D02*
X69196000Y-140716000D01*
X69196000Y-140716000D02*
X69596000Y-140716000D01*
X65278000Y-140716000D02*
X66656000Y-140716000D01*
X66656000Y-140716000D02*
X69196000Y-138176000D01*
X69196000Y-138176000D02*
X69596000Y-138176000D01*
X65278000Y-138176000D02*
X67256300Y-138176000D01*
X67256300Y-138176000D02*
X68627900Y-136804400D01*
X68627900Y-136804400D02*
X69427900Y-136804400D01*
X69427900Y-136804400D02*
X70564100Y-136804400D01*
X70564100Y-136804400D02*
X74475700Y-140716000D01*
X74475700Y-140716000D02*
X76816000Y-140716000D01*
X76816000Y-140716000D02*
X77216000Y-140716000D01*
X65278000Y-135636000D02*
X65684300Y-136042300D01*
X65684300Y-136042300D02*
X70879800Y-136042300D01*
X70879800Y-136042300D02*
X71641900Y-136804400D01*
X71641900Y-136804400D02*
X83010100Y-136804400D01*
X83010100Y-136804400D02*
X85651700Y-139446000D01*
X85651700Y-139446000D02*
X89535900Y-139446000D01*
X89535900Y-139446000D02*
X90588100Y-139446000D01*
X90588100Y-139446000D02*
X92818000Y-139446000D01*
X92818000Y-139446000D02*
X94088000Y-138176000D01*
X94088000Y-138176000D02*
X94488000Y-138176000D01*
X97028000Y-133858000D02*
X97028000Y-133458000D01*
X97028000Y-133458000D02*
X94488000Y-130918000D01*
X94488000Y-130918000D02*
X94488000Y-126638000D01*
X94488000Y-126638000D02*
X94488000Y-126238000D01*
X86374499Y-120371499D02*
X84582000Y-118579000D01*
X90956501Y-121044639D02*
X90283361Y-120371499D01*
X90956501Y-122706501D02*
X90956501Y-121044639D01*
X90283361Y-120371499D02*
X86374499Y-120371499D01*
X94488000Y-126238000D02*
X90956501Y-122706501D01*
X84582000Y-118579000D02*
X84582000Y-117348000D01*
X91591512Y-120801512D02*
X95250000Y-124460000D01*
X89662000Y-117348000D02*
X91591512Y-119277512D01*
X91591512Y-119277512D02*
X91591512Y-120801512D01*
D26*
G36*
X102767000Y-162873000D02*
G01*
X102787000Y-162873000D01*
X102787000Y-163127000D01*
X102767000Y-163127000D01*
X102767000Y-163147000D01*
X102513000Y-163147000D01*
X102513000Y-163127000D01*
X102493000Y-163127000D01*
X102493000Y-162873000D01*
X102513000Y-162873000D01*
X102513000Y-162853000D01*
X102767000Y-162853000D01*
X102767000Y-162873000D01*
G37*
X102767000Y-162873000D02*
X102787000Y-162873000D01*
X102787000Y-163127000D01*
X102767000Y-163127000D01*
X102767000Y-163147000D01*
X102513000Y-163147000D01*
X102513000Y-163127000D01*
X102493000Y-163127000D01*
X102493000Y-162873000D01*
X102513000Y-162873000D01*
X102513000Y-162853000D01*
X102767000Y-162853000D01*
X102767000Y-162873000D01*
G36*
X109982000Y-149733000D02*
G01*
X110002000Y-149733000D01*
X110002000Y-149987000D01*
X109982000Y-149987000D01*
X109982000Y-151536250D01*
X110140750Y-151695000D01*
X110655000Y-151698072D01*
X110779482Y-151685812D01*
X110899180Y-151649502D01*
X111009494Y-151590537D01*
X111106185Y-151511185D01*
X111185537Y-151414494D01*
X111244502Y-151304180D01*
X111280812Y-151184482D01*
X111282581Y-151166517D01*
X111375393Y-151279608D01*
X111593900Y-151458932D01*
X111843193Y-151592182D01*
X112113692Y-151674236D01*
X112395000Y-151701943D01*
X112676309Y-151674236D01*
X112946808Y-151592182D01*
X113196101Y-151458932D01*
X113414608Y-151279608D01*
X113593932Y-151061101D01*
X113665000Y-150928142D01*
X113736068Y-151061101D01*
X113915393Y-151279608D01*
X114133900Y-151458932D01*
X114383193Y-151592182D01*
X114653692Y-151674236D01*
X114935000Y-151701943D01*
X115216309Y-151674236D01*
X115486808Y-151592182D01*
X115736101Y-151458932D01*
X115954608Y-151279608D01*
X116133932Y-151061101D01*
X116205000Y-150928142D01*
X116276068Y-151061101D01*
X116455393Y-151279608D01*
X116673900Y-151458932D01*
X116923193Y-151592182D01*
X117193692Y-151674236D01*
X117475000Y-151701943D01*
X117756309Y-151674236D01*
X118026808Y-151592182D01*
X118276101Y-151458932D01*
X118494608Y-151279608D01*
X118673932Y-151061101D01*
X118745000Y-150928142D01*
X118816068Y-151061101D01*
X118995393Y-151279608D01*
X119213900Y-151458932D01*
X119463193Y-151592182D01*
X119733692Y-151674236D01*
X120015000Y-151701943D01*
X120296309Y-151674236D01*
X120566808Y-151592182D01*
X120816101Y-151458932D01*
X121034608Y-151279608D01*
X121213932Y-151061101D01*
X121285000Y-150928142D01*
X121356068Y-151061101D01*
X121535393Y-151279608D01*
X121753900Y-151458932D01*
X122003193Y-151592182D01*
X122273692Y-151674236D01*
X122555000Y-151701943D01*
X122836309Y-151674236D01*
X122878736Y-151661366D01*
X127886720Y-156669351D01*
X127910578Y-156698422D01*
X128026608Y-156793645D01*
X128158985Y-156864402D01*
X128302622Y-156907974D01*
X128414574Y-156919000D01*
X128414576Y-156919000D01*
X128451999Y-156922686D01*
X128489422Y-156919000D01*
X136181501Y-156919000D01*
X136183000Y-157194250D01*
X136341750Y-157353000D01*
X137541000Y-157353000D01*
X137541000Y-157333000D01*
X137795000Y-157333000D01*
X137795000Y-157353000D01*
X137815000Y-157353000D01*
X137815000Y-157607000D01*
X137795000Y-157607000D01*
X137795000Y-158806250D01*
X137953750Y-158965000D01*
X138518000Y-158968072D01*
X138642482Y-158955812D01*
X138762180Y-158919502D01*
X138872494Y-158860537D01*
X138969185Y-158781185D01*
X139048537Y-158684494D01*
X139107502Y-158574180D01*
X139129513Y-158501620D01*
X139261368Y-158633475D01*
X139504589Y-158795990D01*
X139774842Y-158907932D01*
X140061740Y-158965000D01*
X140354260Y-158965000D01*
X140641158Y-158907932D01*
X140911411Y-158795990D01*
X141154632Y-158633475D01*
X141361475Y-158426632D01*
X141478000Y-158252240D01*
X141594525Y-158426632D01*
X141801368Y-158633475D01*
X142044589Y-158795990D01*
X142314842Y-158907932D01*
X142601740Y-158965000D01*
X142894260Y-158965000D01*
X143181158Y-158907932D01*
X143451411Y-158795990D01*
X143694632Y-158633475D01*
X143901475Y-158426632D01*
X144018000Y-158252240D01*
X144134525Y-158426632D01*
X144341368Y-158633475D01*
X144584589Y-158795990D01*
X144854842Y-158907932D01*
X145141740Y-158965000D01*
X145434260Y-158965000D01*
X145721158Y-158907932D01*
X145991411Y-158795990D01*
X146234632Y-158633475D01*
X146441475Y-158426632D01*
X146558000Y-158252240D01*
X146674525Y-158426632D01*
X146881368Y-158633475D01*
X147124589Y-158795990D01*
X147394842Y-158907932D01*
X147681740Y-158965000D01*
X147974260Y-158965000D01*
X148261158Y-158907932D01*
X148531411Y-158795990D01*
X148774632Y-158633475D01*
X148981475Y-158426632D01*
X149098000Y-158252240D01*
X149214525Y-158426632D01*
X149421368Y-158633475D01*
X149664589Y-158795990D01*
X149934842Y-158907932D01*
X150221740Y-158965000D01*
X150514260Y-158965000D01*
X150801158Y-158907932D01*
X151071411Y-158795990D01*
X151314632Y-158633475D01*
X151521475Y-158426632D01*
X151638000Y-158252240D01*
X151754525Y-158426632D01*
X151961368Y-158633475D01*
X152204589Y-158795990D01*
X152474842Y-158907932D01*
X152761740Y-158965000D01*
X153054260Y-158965000D01*
X153341158Y-158907932D01*
X153611411Y-158795990D01*
X153854632Y-158633475D01*
X154061475Y-158426632D01*
X154178000Y-158252240D01*
X154294525Y-158426632D01*
X154501368Y-158633475D01*
X154744589Y-158795990D01*
X155014842Y-158907932D01*
X155301740Y-158965000D01*
X155594260Y-158965000D01*
X155881158Y-158907932D01*
X156151411Y-158795990D01*
X156394632Y-158633475D01*
X156601475Y-158426632D01*
X156718000Y-158252240D01*
X156834525Y-158426632D01*
X157041368Y-158633475D01*
X157284589Y-158795990D01*
X157554842Y-158907932D01*
X157841740Y-158965000D01*
X158134260Y-158965000D01*
X158421158Y-158907932D01*
X158691411Y-158795990D01*
X158934632Y-158633475D01*
X159141475Y-158426632D01*
X159303990Y-158183411D01*
X159415932Y-157913158D01*
X159473000Y-157626260D01*
X159473000Y-157333740D01*
X159415932Y-157046842D01*
X159303990Y-156776589D01*
X159242167Y-156684064D01*
X159790000Y-156136231D01*
X159790000Y-162227760D01*
X159673475Y-162053368D01*
X159466632Y-161846525D01*
X159223411Y-161684010D01*
X158953158Y-161572068D01*
X158666260Y-161515000D01*
X158373740Y-161515000D01*
X158086842Y-161572068D01*
X157816589Y-161684010D01*
X157573368Y-161846525D01*
X157366525Y-162053368D01*
X157250000Y-162227760D01*
X157133475Y-162053368D01*
X156926632Y-161846525D01*
X156683411Y-161684010D01*
X156413158Y-161572068D01*
X156126260Y-161515000D01*
X155833740Y-161515000D01*
X155546842Y-161572068D01*
X155276589Y-161684010D01*
X155033368Y-161846525D01*
X154826525Y-162053368D01*
X154710000Y-162227760D01*
X154593475Y-162053368D01*
X154386632Y-161846525D01*
X154143411Y-161684010D01*
X153873158Y-161572068D01*
X153586260Y-161515000D01*
X153293740Y-161515000D01*
X153006842Y-161572068D01*
X152736589Y-161684010D01*
X152493368Y-161846525D01*
X152286525Y-162053368D01*
X152170000Y-162227760D01*
X152053475Y-162053368D01*
X151846632Y-161846525D01*
X151603411Y-161684010D01*
X151333158Y-161572068D01*
X151046260Y-161515000D01*
X150753740Y-161515000D01*
X150466842Y-161572068D01*
X150196589Y-161684010D01*
X149953368Y-161846525D01*
X149746525Y-162053368D01*
X149630000Y-162227760D01*
X149513475Y-162053368D01*
X149306632Y-161846525D01*
X149063411Y-161684010D01*
X148793158Y-161572068D01*
X148506260Y-161515000D01*
X148213740Y-161515000D01*
X147926842Y-161572068D01*
X147656589Y-161684010D01*
X147413368Y-161846525D01*
X147206525Y-162053368D01*
X147090000Y-162227760D01*
X146973475Y-162053368D01*
X146766632Y-161846525D01*
X146523411Y-161684010D01*
X146253158Y-161572068D01*
X145966260Y-161515000D01*
X145673740Y-161515000D01*
X145386842Y-161572068D01*
X145116589Y-161684010D01*
X144873368Y-161846525D01*
X144666525Y-162053368D01*
X144550000Y-162227760D01*
X144433475Y-162053368D01*
X144226632Y-161846525D01*
X143983411Y-161684010D01*
X143713158Y-161572068D01*
X143426260Y-161515000D01*
X143133740Y-161515000D01*
X142846842Y-161572068D01*
X142576589Y-161684010D01*
X142333368Y-161846525D01*
X142126525Y-162053368D01*
X142010000Y-162227760D01*
X141893475Y-162053368D01*
X141686632Y-161846525D01*
X141443411Y-161684010D01*
X141173158Y-161572068D01*
X140886260Y-161515000D01*
X140593740Y-161515000D01*
X140306842Y-161572068D01*
X140036589Y-161684010D01*
X139793368Y-161846525D01*
X139586525Y-162053368D01*
X139470000Y-162227760D01*
X139353475Y-162053368D01*
X139146632Y-161846525D01*
X138903411Y-161684010D01*
X138633158Y-161572068D01*
X138346260Y-161515000D01*
X138053740Y-161515000D01*
X137766842Y-161572068D01*
X137496589Y-161684010D01*
X137253368Y-161846525D01*
X137046525Y-162053368D01*
X136930000Y-162227760D01*
X136813475Y-162053368D01*
X136606632Y-161846525D01*
X136363411Y-161684010D01*
X136093158Y-161572068D01*
X135806260Y-161515000D01*
X135513740Y-161515000D01*
X135226842Y-161572068D01*
X134956589Y-161684010D01*
X134713368Y-161846525D01*
X134506525Y-162053368D01*
X134390000Y-162227760D01*
X134273475Y-162053368D01*
X134066632Y-161846525D01*
X133823411Y-161684010D01*
X133553158Y-161572068D01*
X133266260Y-161515000D01*
X132973740Y-161515000D01*
X132686842Y-161572068D01*
X132416589Y-161684010D01*
X132173368Y-161846525D01*
X131966525Y-162053368D01*
X131850000Y-162227760D01*
X131733475Y-162053368D01*
X131526632Y-161846525D01*
X131283411Y-161684010D01*
X131013158Y-161572068D01*
X130726260Y-161515000D01*
X130433740Y-161515000D01*
X130146842Y-161572068D01*
X129876589Y-161684010D01*
X129633368Y-161846525D01*
X129426525Y-162053368D01*
X129310000Y-162227760D01*
X129193475Y-162053368D01*
X128986632Y-161846525D01*
X128743411Y-161684010D01*
X128473158Y-161572068D01*
X128186260Y-161515000D01*
X127893740Y-161515000D01*
X127606842Y-161572068D01*
X127336589Y-161684010D01*
X127093368Y-161846525D01*
X126886525Y-162053368D01*
X126770000Y-162227760D01*
X126653475Y-162053368D01*
X126446632Y-161846525D01*
X126203411Y-161684010D01*
X125933158Y-161572068D01*
X125646260Y-161515000D01*
X125353740Y-161515000D01*
X125066842Y-161572068D01*
X124796589Y-161684010D01*
X124553368Y-161846525D01*
X124346525Y-162053368D01*
X124230000Y-162227760D01*
X124113475Y-162053368D01*
X123906632Y-161846525D01*
X123663411Y-161684010D01*
X123393158Y-161572068D01*
X123106260Y-161515000D01*
X122813740Y-161515000D01*
X122526842Y-161572068D01*
X122256589Y-161684010D01*
X122013368Y-161846525D01*
X121806525Y-162053368D01*
X121690000Y-162227760D01*
X121573475Y-162053368D01*
X121366632Y-161846525D01*
X121123411Y-161684010D01*
X120853158Y-161572068D01*
X120566260Y-161515000D01*
X120273740Y-161515000D01*
X119986842Y-161572068D01*
X119716589Y-161684010D01*
X119473368Y-161846525D01*
X119266525Y-162053368D01*
X119150000Y-162227760D01*
X119033475Y-162053368D01*
X118826632Y-161846525D01*
X118583411Y-161684010D01*
X118313158Y-161572068D01*
X118026260Y-161515000D01*
X117733740Y-161515000D01*
X117446842Y-161572068D01*
X117176589Y-161684010D01*
X116933368Y-161846525D01*
X116726525Y-162053368D01*
X116610000Y-162227760D01*
X116493475Y-162053368D01*
X116286632Y-161846525D01*
X116043411Y-161684010D01*
X115773158Y-161572068D01*
X115486260Y-161515000D01*
X115193740Y-161515000D01*
X114906842Y-161572068D01*
X114636589Y-161684010D01*
X114393368Y-161846525D01*
X114186525Y-162053368D01*
X114070000Y-162227760D01*
X113953475Y-162053368D01*
X113746632Y-161846525D01*
X113503411Y-161684010D01*
X113233158Y-161572068D01*
X112946260Y-161515000D01*
X112653740Y-161515000D01*
X112366842Y-161572068D01*
X112096589Y-161684010D01*
X111853368Y-161846525D01*
X111646525Y-162053368D01*
X111530000Y-162227760D01*
X111413475Y-162053368D01*
X111206632Y-161846525D01*
X110963411Y-161684010D01*
X110693158Y-161572068D01*
X110406260Y-161515000D01*
X110113740Y-161515000D01*
X109970855Y-161543422D01*
X109308900Y-160881468D01*
X109308900Y-158330000D01*
X136179928Y-158330000D01*
X136192188Y-158454482D01*
X136228498Y-158574180D01*
X136287463Y-158684494D01*
X136366815Y-158781185D01*
X136463506Y-158860537D01*
X136573820Y-158919502D01*
X136693518Y-158955812D01*
X136818000Y-158968072D01*
X137382250Y-158965000D01*
X137541000Y-158806250D01*
X137541000Y-157607000D01*
X136341750Y-157607000D01*
X136183000Y-157765750D01*
X136179928Y-158330000D01*
X109308900Y-158330000D01*
X109308900Y-151696555D01*
X109569250Y-151695000D01*
X109728000Y-151536250D01*
X109728000Y-149987000D01*
X109708000Y-149987000D01*
X109708000Y-149733000D01*
X109728000Y-149733000D01*
X109728000Y-149713000D01*
X109982000Y-149713000D01*
X109982000Y-149733000D01*
G37*
X109982000Y-149733000D02*
X110002000Y-149733000D01*
X110002000Y-149987000D01*
X109982000Y-149987000D01*
X109982000Y-151536250D01*
X110140750Y-151695000D01*
X110655000Y-151698072D01*
X110779482Y-151685812D01*
X110899180Y-151649502D01*
X111009494Y-151590537D01*
X111106185Y-151511185D01*
X111185537Y-151414494D01*
X111244502Y-151304180D01*
X111280812Y-151184482D01*
X111282581Y-151166517D01*
X111375393Y-151279608D01*
X111593900Y-151458932D01*
X111843193Y-151592182D01*
X112113692Y-151674236D01*
X112395000Y-151701943D01*
X112676309Y-151674236D01*
X112946808Y-151592182D01*
X113196101Y-151458932D01*
X113414608Y-151279608D01*
X113593932Y-151061101D01*
X113665000Y-150928142D01*
X113736068Y-151061101D01*
X113915393Y-151279608D01*
X114133900Y-151458932D01*
X114383193Y-151592182D01*
X114653692Y-151674236D01*
X114935000Y-151701943D01*
X115216309Y-151674236D01*
X115486808Y-151592182D01*
X115736101Y-151458932D01*
X115954608Y-151279608D01*
X116133932Y-151061101D01*
X116205000Y-150928142D01*
X116276068Y-151061101D01*
X116455393Y-151279608D01*
X116673900Y-151458932D01*
X116923193Y-151592182D01*
X117193692Y-151674236D01*
X117475000Y-151701943D01*
X117756309Y-151674236D01*
X118026808Y-151592182D01*
X118276101Y-151458932D01*
X118494608Y-151279608D01*
X118673932Y-151061101D01*
X118745000Y-150928142D01*
X118816068Y-151061101D01*
X118995393Y-151279608D01*
X119213900Y-151458932D01*
X119463193Y-151592182D01*
X119733692Y-151674236D01*
X120015000Y-151701943D01*
X120296309Y-151674236D01*
X120566808Y-151592182D01*
X120816101Y-151458932D01*
X121034608Y-151279608D01*
X121213932Y-151061101D01*
X121285000Y-150928142D01*
X121356068Y-151061101D01*
X121535393Y-151279608D01*
X121753900Y-151458932D01*
X122003193Y-151592182D01*
X122273692Y-151674236D01*
X122555000Y-151701943D01*
X122836309Y-151674236D01*
X122878736Y-151661366D01*
X127886720Y-156669351D01*
X127910578Y-156698422D01*
X128026608Y-156793645D01*
X128158985Y-156864402D01*
X128302622Y-156907974D01*
X128414574Y-156919000D01*
X128414576Y-156919000D01*
X128451999Y-156922686D01*
X128489422Y-156919000D01*
X136181501Y-156919000D01*
X136183000Y-157194250D01*
X136341750Y-157353000D01*
X137541000Y-157353000D01*
X137541000Y-157333000D01*
X137795000Y-157333000D01*
X137795000Y-157353000D01*
X137815000Y-157353000D01*
X137815000Y-157607000D01*
X137795000Y-157607000D01*
X137795000Y-158806250D01*
X137953750Y-158965000D01*
X138518000Y-158968072D01*
X138642482Y-158955812D01*
X138762180Y-158919502D01*
X138872494Y-158860537D01*
X138969185Y-158781185D01*
X139048537Y-158684494D01*
X139107502Y-158574180D01*
X139129513Y-158501620D01*
X139261368Y-158633475D01*
X139504589Y-158795990D01*
X139774842Y-158907932D01*
X140061740Y-158965000D01*
X140354260Y-158965000D01*
X140641158Y-158907932D01*
X140911411Y-158795990D01*
X141154632Y-158633475D01*
X141361475Y-158426632D01*
X141478000Y-158252240D01*
X141594525Y-158426632D01*
X141801368Y-158633475D01*
X142044589Y-158795990D01*
X142314842Y-158907932D01*
X142601740Y-158965000D01*
X142894260Y-158965000D01*
X143181158Y-158907932D01*
X143451411Y-158795990D01*
X143694632Y-158633475D01*
X143901475Y-158426632D01*
X144018000Y-158252240D01*
X144134525Y-158426632D01*
X144341368Y-158633475D01*
X144584589Y-158795990D01*
X144854842Y-158907932D01*
X145141740Y-158965000D01*
X145434260Y-158965000D01*
X145721158Y-158907932D01*
X145991411Y-158795990D01*
X146234632Y-158633475D01*
X146441475Y-158426632D01*
X146558000Y-158252240D01*
X146674525Y-158426632D01*
X146881368Y-158633475D01*
X147124589Y-158795990D01*
X147394842Y-158907932D01*
X147681740Y-158965000D01*
X147974260Y-158965000D01*
X148261158Y-158907932D01*
X148531411Y-158795990D01*
X148774632Y-158633475D01*
X148981475Y-158426632D01*
X149098000Y-158252240D01*
X149214525Y-158426632D01*
X149421368Y-158633475D01*
X149664589Y-158795990D01*
X149934842Y-158907932D01*
X150221740Y-158965000D01*
X150514260Y-158965000D01*
X150801158Y-158907932D01*
X151071411Y-158795990D01*
X151314632Y-158633475D01*
X151521475Y-158426632D01*
X151638000Y-158252240D01*
X151754525Y-158426632D01*
X151961368Y-158633475D01*
X152204589Y-158795990D01*
X152474842Y-158907932D01*
X152761740Y-158965000D01*
X153054260Y-158965000D01*
X153341158Y-158907932D01*
X153611411Y-158795990D01*
X153854632Y-158633475D01*
X154061475Y-158426632D01*
X154178000Y-158252240D01*
X154294525Y-158426632D01*
X154501368Y-158633475D01*
X154744589Y-158795990D01*
X155014842Y-158907932D01*
X155301740Y-158965000D01*
X155594260Y-158965000D01*
X155881158Y-158907932D01*
X156151411Y-158795990D01*
X156394632Y-158633475D01*
X156601475Y-158426632D01*
X156718000Y-158252240D01*
X156834525Y-158426632D01*
X157041368Y-158633475D01*
X157284589Y-158795990D01*
X157554842Y-158907932D01*
X157841740Y-158965000D01*
X158134260Y-158965000D01*
X158421158Y-158907932D01*
X158691411Y-158795990D01*
X158934632Y-158633475D01*
X159141475Y-158426632D01*
X159303990Y-158183411D01*
X159415932Y-157913158D01*
X159473000Y-157626260D01*
X159473000Y-157333740D01*
X159415932Y-157046842D01*
X159303990Y-156776589D01*
X159242167Y-156684064D01*
X159790000Y-156136231D01*
X159790000Y-162227760D01*
X159673475Y-162053368D01*
X159466632Y-161846525D01*
X159223411Y-161684010D01*
X158953158Y-161572068D01*
X158666260Y-161515000D01*
X158373740Y-161515000D01*
X158086842Y-161572068D01*
X157816589Y-161684010D01*
X157573368Y-161846525D01*
X157366525Y-162053368D01*
X157250000Y-162227760D01*
X157133475Y-162053368D01*
X156926632Y-161846525D01*
X156683411Y-161684010D01*
X156413158Y-161572068D01*
X156126260Y-161515000D01*
X155833740Y-161515000D01*
X155546842Y-161572068D01*
X155276589Y-161684010D01*
X155033368Y-161846525D01*
X154826525Y-162053368D01*
X154710000Y-162227760D01*
X154593475Y-162053368D01*
X154386632Y-161846525D01*
X154143411Y-161684010D01*
X153873158Y-161572068D01*
X153586260Y-161515000D01*
X153293740Y-161515000D01*
X153006842Y-161572068D01*
X152736589Y-161684010D01*
X152493368Y-161846525D01*
X152286525Y-162053368D01*
X152170000Y-162227760D01*
X152053475Y-162053368D01*
X151846632Y-161846525D01*
X151603411Y-161684010D01*
X151333158Y-161572068D01*
X151046260Y-161515000D01*
X150753740Y-161515000D01*
X150466842Y-161572068D01*
X150196589Y-161684010D01*
X149953368Y-161846525D01*
X149746525Y-162053368D01*
X149630000Y-162227760D01*
X149513475Y-162053368D01*
X149306632Y-161846525D01*
X149063411Y-161684010D01*
X148793158Y-161572068D01*
X148506260Y-161515000D01*
X148213740Y-161515000D01*
X147926842Y-161572068D01*
X147656589Y-161684010D01*
X147413368Y-161846525D01*
X147206525Y-162053368D01*
X147090000Y-162227760D01*
X146973475Y-162053368D01*
X146766632Y-161846525D01*
X146523411Y-161684010D01*
X146253158Y-161572068D01*
X145966260Y-161515000D01*
X145673740Y-161515000D01*
X145386842Y-161572068D01*
X145116589Y-161684010D01*
X144873368Y-161846525D01*
X144666525Y-162053368D01*
X144550000Y-162227760D01*
X144433475Y-162053368D01*
X144226632Y-161846525D01*
X143983411Y-161684010D01*
X143713158Y-161572068D01*
X143426260Y-161515000D01*
X143133740Y-161515000D01*
X142846842Y-161572068D01*
X142576589Y-161684010D01*
X142333368Y-161846525D01*
X142126525Y-162053368D01*
X142010000Y-162227760D01*
X141893475Y-162053368D01*
X141686632Y-161846525D01*
X141443411Y-161684010D01*
X141173158Y-161572068D01*
X140886260Y-161515000D01*
X140593740Y-161515000D01*
X140306842Y-161572068D01*
X140036589Y-161684010D01*
X139793368Y-161846525D01*
X139586525Y-162053368D01*
X139470000Y-162227760D01*
X139353475Y-162053368D01*
X139146632Y-161846525D01*
X138903411Y-161684010D01*
X138633158Y-161572068D01*
X138346260Y-161515000D01*
X138053740Y-161515000D01*
X137766842Y-161572068D01*
X137496589Y-161684010D01*
X137253368Y-161846525D01*
X137046525Y-162053368D01*
X136930000Y-162227760D01*
X136813475Y-162053368D01*
X136606632Y-161846525D01*
X136363411Y-161684010D01*
X136093158Y-161572068D01*
X135806260Y-161515000D01*
X135513740Y-161515000D01*
X135226842Y-161572068D01*
X134956589Y-161684010D01*
X134713368Y-161846525D01*
X134506525Y-162053368D01*
X134390000Y-162227760D01*
X134273475Y-162053368D01*
X134066632Y-161846525D01*
X133823411Y-161684010D01*
X133553158Y-161572068D01*
X133266260Y-161515000D01*
X132973740Y-161515000D01*
X132686842Y-161572068D01*
X132416589Y-161684010D01*
X132173368Y-161846525D01*
X131966525Y-162053368D01*
X131850000Y-162227760D01*
X131733475Y-162053368D01*
X131526632Y-161846525D01*
X131283411Y-161684010D01*
X131013158Y-161572068D01*
X130726260Y-161515000D01*
X130433740Y-161515000D01*
X130146842Y-161572068D01*
X129876589Y-161684010D01*
X129633368Y-161846525D01*
X129426525Y-162053368D01*
X129310000Y-162227760D01*
X129193475Y-162053368D01*
X128986632Y-161846525D01*
X128743411Y-161684010D01*
X128473158Y-161572068D01*
X128186260Y-161515000D01*
X127893740Y-161515000D01*
X127606842Y-161572068D01*
X127336589Y-161684010D01*
X127093368Y-161846525D01*
X126886525Y-162053368D01*
X126770000Y-162227760D01*
X126653475Y-162053368D01*
X126446632Y-161846525D01*
X126203411Y-161684010D01*
X125933158Y-161572068D01*
X125646260Y-161515000D01*
X125353740Y-161515000D01*
X125066842Y-161572068D01*
X124796589Y-161684010D01*
X124553368Y-161846525D01*
X124346525Y-162053368D01*
X124230000Y-162227760D01*
X124113475Y-162053368D01*
X123906632Y-161846525D01*
X123663411Y-161684010D01*
X123393158Y-161572068D01*
X123106260Y-161515000D01*
X122813740Y-161515000D01*
X122526842Y-161572068D01*
X122256589Y-161684010D01*
X122013368Y-161846525D01*
X121806525Y-162053368D01*
X121690000Y-162227760D01*
X121573475Y-162053368D01*
X121366632Y-161846525D01*
X121123411Y-161684010D01*
X120853158Y-161572068D01*
X120566260Y-161515000D01*
X120273740Y-161515000D01*
X119986842Y-161572068D01*
X119716589Y-161684010D01*
X119473368Y-161846525D01*
X119266525Y-162053368D01*
X119150000Y-162227760D01*
X119033475Y-162053368D01*
X118826632Y-161846525D01*
X118583411Y-161684010D01*
X118313158Y-161572068D01*
X118026260Y-161515000D01*
X117733740Y-161515000D01*
X117446842Y-161572068D01*
X117176589Y-161684010D01*
X116933368Y-161846525D01*
X116726525Y-162053368D01*
X116610000Y-162227760D01*
X116493475Y-162053368D01*
X116286632Y-161846525D01*
X116043411Y-161684010D01*
X115773158Y-161572068D01*
X115486260Y-161515000D01*
X115193740Y-161515000D01*
X114906842Y-161572068D01*
X114636589Y-161684010D01*
X114393368Y-161846525D01*
X114186525Y-162053368D01*
X114070000Y-162227760D01*
X113953475Y-162053368D01*
X113746632Y-161846525D01*
X113503411Y-161684010D01*
X113233158Y-161572068D01*
X112946260Y-161515000D01*
X112653740Y-161515000D01*
X112366842Y-161572068D01*
X112096589Y-161684010D01*
X111853368Y-161846525D01*
X111646525Y-162053368D01*
X111530000Y-162227760D01*
X111413475Y-162053368D01*
X111206632Y-161846525D01*
X110963411Y-161684010D01*
X110693158Y-161572068D01*
X110406260Y-161515000D01*
X110113740Y-161515000D01*
X109970855Y-161543422D01*
X109308900Y-160881468D01*
X109308900Y-158330000D01*
X136179928Y-158330000D01*
X136192188Y-158454482D01*
X136228498Y-158574180D01*
X136287463Y-158684494D01*
X136366815Y-158781185D01*
X136463506Y-158860537D01*
X136573820Y-158919502D01*
X136693518Y-158955812D01*
X136818000Y-158968072D01*
X137382250Y-158965000D01*
X137541000Y-158806250D01*
X137541000Y-157607000D01*
X136341750Y-157607000D01*
X136183000Y-157765750D01*
X136179928Y-158330000D01*
X109308900Y-158330000D01*
X109308900Y-151696555D01*
X109569250Y-151695000D01*
X109728000Y-151536250D01*
X109728000Y-149987000D01*
X109708000Y-149987000D01*
X109708000Y-149733000D01*
X109728000Y-149733000D01*
X109728000Y-149713000D01*
X109982000Y-149713000D01*
X109982000Y-149733000D01*
G36*
X67997068Y-156757101D02*
G01*
X68176392Y-156975608D01*
X68394899Y-157154932D01*
X68644192Y-157288182D01*
X68914691Y-157370236D01*
X68980001Y-157376669D01*
X68980001Y-157830089D01*
X68975085Y-157880000D01*
X68994702Y-158079170D01*
X68995258Y-158081003D01*
X68777870Y-158113213D01*
X68511708Y-158208397D01*
X68386486Y-158275329D01*
X68314903Y-158519298D01*
X69128000Y-159332395D01*
X69142143Y-159318253D01*
X69321748Y-159497858D01*
X69307605Y-159512000D01*
X70120702Y-160325097D01*
X70364671Y-160253514D01*
X70378324Y-160224659D01*
X70513363Y-160426759D01*
X70713241Y-160626637D01*
X70948273Y-160783680D01*
X71209426Y-160891853D01*
X71486665Y-160947000D01*
X71769335Y-160947000D01*
X72046574Y-160891853D01*
X72307727Y-160783680D01*
X72542759Y-160626637D01*
X72641396Y-160528000D01*
X80560604Y-160528000D01*
X80659241Y-160626637D01*
X80894273Y-160783680D01*
X81155426Y-160891853D01*
X81432665Y-160947000D01*
X81715335Y-160947000D01*
X81992574Y-160891853D01*
X82253727Y-160783680D01*
X82488759Y-160626637D01*
X82688637Y-160426759D01*
X82822692Y-160226131D01*
X82837329Y-160253514D01*
X83081298Y-160325097D01*
X83894395Y-159512000D01*
X83880253Y-159497858D01*
X84059858Y-159318253D01*
X84074000Y-159332395D01*
X84088143Y-159318253D01*
X84267748Y-159497858D01*
X84253605Y-159512000D01*
X84267748Y-159526143D01*
X84088143Y-159705748D01*
X84074000Y-159691605D01*
X83260903Y-160504702D01*
X83332486Y-160748671D01*
X83587996Y-160869571D01*
X83862184Y-160938300D01*
X84034501Y-160946794D01*
X84034501Y-161765587D01*
X83913368Y-161846525D01*
X83706525Y-162053368D01*
X83590000Y-162227760D01*
X83473475Y-162053368D01*
X83266632Y-161846525D01*
X83023411Y-161684010D01*
X82753158Y-161572068D01*
X82466260Y-161515000D01*
X82173740Y-161515000D01*
X81886842Y-161572068D01*
X81616589Y-161684010D01*
X81373368Y-161846525D01*
X81166525Y-162053368D01*
X81050000Y-162227760D01*
X80933475Y-162053368D01*
X80726632Y-161846525D01*
X80483411Y-161684010D01*
X80213158Y-161572068D01*
X79926260Y-161515000D01*
X79633740Y-161515000D01*
X79346842Y-161572068D01*
X79076589Y-161684010D01*
X78833368Y-161846525D01*
X78626525Y-162053368D01*
X78510000Y-162227760D01*
X78393475Y-162053368D01*
X78186632Y-161846525D01*
X77943411Y-161684010D01*
X77673158Y-161572068D01*
X77386260Y-161515000D01*
X77093740Y-161515000D01*
X76806842Y-161572068D01*
X76536589Y-161684010D01*
X76293368Y-161846525D01*
X76086525Y-162053368D01*
X75970000Y-162227760D01*
X75853475Y-162053368D01*
X75646632Y-161846525D01*
X75403411Y-161684010D01*
X75133158Y-161572068D01*
X74846260Y-161515000D01*
X74553740Y-161515000D01*
X74266842Y-161572068D01*
X73996589Y-161684010D01*
X73753368Y-161846525D01*
X73546525Y-162053368D01*
X73430000Y-162227760D01*
X73313475Y-162053368D01*
X73106632Y-161846525D01*
X72863411Y-161684010D01*
X72593158Y-161572068D01*
X72306260Y-161515000D01*
X72013740Y-161515000D01*
X71726842Y-161572068D01*
X71456589Y-161684010D01*
X71213368Y-161846525D01*
X71006525Y-162053368D01*
X70890000Y-162227760D01*
X70773475Y-162053368D01*
X70566632Y-161846525D01*
X70323411Y-161684010D01*
X70053158Y-161572068D01*
X69766260Y-161515000D01*
X69473740Y-161515000D01*
X69186842Y-161572068D01*
X68916589Y-161684010D01*
X68673368Y-161846525D01*
X68466525Y-162053368D01*
X68350000Y-162227760D01*
X68233475Y-162053368D01*
X68026632Y-161846525D01*
X67783411Y-161684010D01*
X67513158Y-161572068D01*
X67226260Y-161515000D01*
X66933740Y-161515000D01*
X66646842Y-161572068D01*
X66376589Y-161684010D01*
X66133368Y-161846525D01*
X65926525Y-162053368D01*
X65810000Y-162227760D01*
X65693475Y-162053368D01*
X65486632Y-161846525D01*
X65243411Y-161684010D01*
X64973158Y-161572068D01*
X64686260Y-161515000D01*
X64393740Y-161515000D01*
X64106842Y-161572068D01*
X63836589Y-161684010D01*
X63593368Y-161846525D01*
X63485000Y-161954893D01*
X63485000Y-161424832D01*
X64405130Y-160504702D01*
X68314903Y-160504702D01*
X68386486Y-160748671D01*
X68641996Y-160869571D01*
X68916184Y-160938300D01*
X69198512Y-160952217D01*
X69478130Y-160910787D01*
X69744292Y-160815603D01*
X69869514Y-160748671D01*
X69941097Y-160504702D01*
X69128000Y-159691605D01*
X68314903Y-160504702D01*
X64405130Y-160504702D01*
X65327320Y-159582512D01*
X67687783Y-159582512D01*
X67729213Y-159862130D01*
X67824397Y-160128292D01*
X67891329Y-160253514D01*
X68135298Y-160325097D01*
X68948395Y-159512000D01*
X68135298Y-158698903D01*
X67891329Y-158770486D01*
X67770429Y-159025996D01*
X67701700Y-159300184D01*
X67687783Y-159582512D01*
X65327320Y-159582512D01*
X67254641Y-157655192D01*
X67286141Y-157629341D01*
X67338777Y-157565204D01*
X67389299Y-157503643D01*
X67421140Y-157444072D01*
X67465953Y-157360234D01*
X67513156Y-157204626D01*
X67525100Y-157083353D01*
X67525100Y-157083351D01*
X67529094Y-157042801D01*
X67525100Y-157002250D01*
X67525100Y-156998232D01*
X67916662Y-156606671D01*
X67997068Y-156757101D01*
G37*
X67997068Y-156757101D02*
X68176392Y-156975608D01*
X68394899Y-157154932D01*
X68644192Y-157288182D01*
X68914691Y-157370236D01*
X68980001Y-157376669D01*
X68980001Y-157830089D01*
X68975085Y-157880000D01*
X68994702Y-158079170D01*
X68995258Y-158081003D01*
X68777870Y-158113213D01*
X68511708Y-158208397D01*
X68386486Y-158275329D01*
X68314903Y-158519298D01*
X69128000Y-159332395D01*
X69142143Y-159318253D01*
X69321748Y-159497858D01*
X69307605Y-159512000D01*
X70120702Y-160325097D01*
X70364671Y-160253514D01*
X70378324Y-160224659D01*
X70513363Y-160426759D01*
X70713241Y-160626637D01*
X70948273Y-160783680D01*
X71209426Y-160891853D01*
X71486665Y-160947000D01*
X71769335Y-160947000D01*
X72046574Y-160891853D01*
X72307727Y-160783680D01*
X72542759Y-160626637D01*
X72641396Y-160528000D01*
X80560604Y-160528000D01*
X80659241Y-160626637D01*
X80894273Y-160783680D01*
X81155426Y-160891853D01*
X81432665Y-160947000D01*
X81715335Y-160947000D01*
X81992574Y-160891853D01*
X82253727Y-160783680D01*
X82488759Y-160626637D01*
X82688637Y-160426759D01*
X82822692Y-160226131D01*
X82837329Y-160253514D01*
X83081298Y-160325097D01*
X83894395Y-159512000D01*
X83880253Y-159497858D01*
X84059858Y-159318253D01*
X84074000Y-159332395D01*
X84088143Y-159318253D01*
X84267748Y-159497858D01*
X84253605Y-159512000D01*
X84267748Y-159526143D01*
X84088143Y-159705748D01*
X84074000Y-159691605D01*
X83260903Y-160504702D01*
X83332486Y-160748671D01*
X83587996Y-160869571D01*
X83862184Y-160938300D01*
X84034501Y-160946794D01*
X84034501Y-161765587D01*
X83913368Y-161846525D01*
X83706525Y-162053368D01*
X83590000Y-162227760D01*
X83473475Y-162053368D01*
X83266632Y-161846525D01*
X83023411Y-161684010D01*
X82753158Y-161572068D01*
X82466260Y-161515000D01*
X82173740Y-161515000D01*
X81886842Y-161572068D01*
X81616589Y-161684010D01*
X81373368Y-161846525D01*
X81166525Y-162053368D01*
X81050000Y-162227760D01*
X80933475Y-162053368D01*
X80726632Y-161846525D01*
X80483411Y-161684010D01*
X80213158Y-161572068D01*
X79926260Y-161515000D01*
X79633740Y-161515000D01*
X79346842Y-161572068D01*
X79076589Y-161684010D01*
X78833368Y-161846525D01*
X78626525Y-162053368D01*
X78510000Y-162227760D01*
X78393475Y-162053368D01*
X78186632Y-161846525D01*
X77943411Y-161684010D01*
X77673158Y-161572068D01*
X77386260Y-161515000D01*
X77093740Y-161515000D01*
X76806842Y-161572068D01*
X76536589Y-161684010D01*
X76293368Y-161846525D01*
X76086525Y-162053368D01*
X75970000Y-162227760D01*
X75853475Y-162053368D01*
X75646632Y-161846525D01*
X75403411Y-161684010D01*
X75133158Y-161572068D01*
X74846260Y-161515000D01*
X74553740Y-161515000D01*
X74266842Y-161572068D01*
X73996589Y-161684010D01*
X73753368Y-161846525D01*
X73546525Y-162053368D01*
X73430000Y-162227760D01*
X73313475Y-162053368D01*
X73106632Y-161846525D01*
X72863411Y-161684010D01*
X72593158Y-161572068D01*
X72306260Y-161515000D01*
X72013740Y-161515000D01*
X71726842Y-161572068D01*
X71456589Y-161684010D01*
X71213368Y-161846525D01*
X71006525Y-162053368D01*
X70890000Y-162227760D01*
X70773475Y-162053368D01*
X70566632Y-161846525D01*
X70323411Y-161684010D01*
X70053158Y-161572068D01*
X69766260Y-161515000D01*
X69473740Y-161515000D01*
X69186842Y-161572068D01*
X68916589Y-161684010D01*
X68673368Y-161846525D01*
X68466525Y-162053368D01*
X68350000Y-162227760D01*
X68233475Y-162053368D01*
X68026632Y-161846525D01*
X67783411Y-161684010D01*
X67513158Y-161572068D01*
X67226260Y-161515000D01*
X66933740Y-161515000D01*
X66646842Y-161572068D01*
X66376589Y-161684010D01*
X66133368Y-161846525D01*
X65926525Y-162053368D01*
X65810000Y-162227760D01*
X65693475Y-162053368D01*
X65486632Y-161846525D01*
X65243411Y-161684010D01*
X64973158Y-161572068D01*
X64686260Y-161515000D01*
X64393740Y-161515000D01*
X64106842Y-161572068D01*
X63836589Y-161684010D01*
X63593368Y-161846525D01*
X63485000Y-161954893D01*
X63485000Y-161424832D01*
X64405130Y-160504702D01*
X68314903Y-160504702D01*
X68386486Y-160748671D01*
X68641996Y-160869571D01*
X68916184Y-160938300D01*
X69198512Y-160952217D01*
X69478130Y-160910787D01*
X69744292Y-160815603D01*
X69869514Y-160748671D01*
X69941097Y-160504702D01*
X69128000Y-159691605D01*
X68314903Y-160504702D01*
X64405130Y-160504702D01*
X65327320Y-159582512D01*
X67687783Y-159582512D01*
X67729213Y-159862130D01*
X67824397Y-160128292D01*
X67891329Y-160253514D01*
X68135298Y-160325097D01*
X68948395Y-159512000D01*
X68135298Y-158698903D01*
X67891329Y-158770486D01*
X67770429Y-159025996D01*
X67701700Y-159300184D01*
X67687783Y-159582512D01*
X65327320Y-159582512D01*
X67254641Y-157655192D01*
X67286141Y-157629341D01*
X67338777Y-157565204D01*
X67389299Y-157503643D01*
X67421140Y-157444072D01*
X67465953Y-157360234D01*
X67513156Y-157204626D01*
X67525100Y-157083353D01*
X67525100Y-157083351D01*
X67529094Y-157042801D01*
X67525100Y-157002250D01*
X67525100Y-156998232D01*
X67916662Y-156606671D01*
X67997068Y-156757101D01*
G36*
X100444285Y-138867646D02*
G01*
X100493630Y-138939936D01*
X99774961Y-139658606D01*
X99743460Y-139684458D01*
X99717609Y-139715958D01*
X99640301Y-139810157D01*
X99563647Y-139953566D01*
X99516445Y-140109173D01*
X99500506Y-140270999D01*
X99504501Y-140311559D01*
X99504500Y-141437449D01*
X99500506Y-141478000D01*
X99504500Y-141518550D01*
X99504500Y-141518552D01*
X99516444Y-141639825D01*
X99550768Y-141752975D01*
X99563647Y-141795433D01*
X99640301Y-141938842D01*
X99641260Y-141940010D01*
X99743459Y-142064541D01*
X99774966Y-142090398D01*
X100380326Y-142695759D01*
X100375818Y-142704192D01*
X100293764Y-142974691D01*
X100266057Y-143256000D01*
X100293764Y-143537309D01*
X100375818Y-143807808D01*
X100509068Y-144057101D01*
X100688392Y-144275608D01*
X100906899Y-144454932D01*
X101039858Y-144526000D01*
X100906899Y-144597068D01*
X100688392Y-144776392D01*
X100509068Y-144994899D01*
X100375818Y-145244192D01*
X100293764Y-145514691D01*
X100266057Y-145796000D01*
X100293764Y-146077309D01*
X100375818Y-146347808D01*
X100509068Y-146597101D01*
X100513754Y-146602811D01*
X99908456Y-147208110D01*
X99876949Y-147233967D01*
X99838351Y-147281000D01*
X99773791Y-147359666D01*
X99735122Y-147432010D01*
X99697137Y-147503075D01*
X99649934Y-147658683D01*
X99637990Y-147779955D01*
X99633996Y-147820508D01*
X99637990Y-147861059D01*
X99637991Y-149190930D01*
X99633996Y-149231490D01*
X99649935Y-149393316D01*
X99697137Y-149548923D01*
X99773791Y-149692332D01*
X99807167Y-149733000D01*
X99876950Y-149818031D01*
X99908451Y-149843883D01*
X100380326Y-150315758D01*
X100375818Y-150324192D01*
X100293764Y-150594691D01*
X100266057Y-150876000D01*
X100293764Y-151157309D01*
X100375818Y-151427808D01*
X100509068Y-151677101D01*
X100688392Y-151895608D01*
X100801482Y-151988419D01*
X100783518Y-151990188D01*
X100663820Y-152026498D01*
X100553506Y-152085463D01*
X100456815Y-152164815D01*
X100377463Y-152261506D01*
X100318498Y-152371820D01*
X100282188Y-152491518D01*
X100269928Y-152616000D01*
X100269928Y-154216000D01*
X100282188Y-154340482D01*
X100318498Y-154460180D01*
X100377463Y-154570494D01*
X100456815Y-154667185D01*
X100553506Y-154746537D01*
X100663820Y-154805502D01*
X100783518Y-154841812D01*
X100908000Y-154854072D01*
X102310895Y-154854072D01*
X99392868Y-157772100D01*
X97809135Y-157772100D01*
X97837571Y-157712004D01*
X97906300Y-157437816D01*
X97920217Y-157155488D01*
X97878787Y-156875870D01*
X97783603Y-156609708D01*
X97716671Y-156484486D01*
X97472702Y-156412903D01*
X96659605Y-157226000D01*
X96673748Y-157240143D01*
X96494143Y-157419748D01*
X96480000Y-157405605D01*
X96465858Y-157419748D01*
X96286253Y-157240143D01*
X96300395Y-157226000D01*
X95487298Y-156412903D01*
X95243329Y-156484486D01*
X95229676Y-156513341D01*
X95094637Y-156311241D01*
X95016694Y-156233298D01*
X95666903Y-156233298D01*
X96480000Y-157046395D01*
X97293097Y-156233298D01*
X97221514Y-155989329D01*
X96966004Y-155868429D01*
X96691816Y-155799700D01*
X96409488Y-155785783D01*
X96129870Y-155827213D01*
X95863708Y-155922397D01*
X95738486Y-155989329D01*
X95666903Y-156233298D01*
X95016694Y-156233298D01*
X94996000Y-156212604D01*
X94996000Y-154847306D01*
X95169309Y-154830236D01*
X95439808Y-154748182D01*
X95689101Y-154614932D01*
X95907608Y-154435608D01*
X96086932Y-154217101D01*
X96220182Y-153967808D01*
X96302236Y-153697309D01*
X96329943Y-153416000D01*
X96302236Y-153134691D01*
X96220182Y-152864192D01*
X96086932Y-152614899D01*
X95907608Y-152396392D01*
X95689101Y-152217068D01*
X95556142Y-152146000D01*
X95689101Y-152074932D01*
X95907608Y-151895608D01*
X96086932Y-151677101D01*
X96220182Y-151427808D01*
X96302236Y-151157309D01*
X96329943Y-150876000D01*
X96302236Y-150594691D01*
X96220182Y-150324192D01*
X96086932Y-150074899D01*
X95907608Y-149856392D01*
X95689101Y-149677068D01*
X95556142Y-149606000D01*
X95689101Y-149534932D01*
X95907608Y-149355608D01*
X96086932Y-149137101D01*
X96220182Y-148887808D01*
X96302236Y-148617309D01*
X96329943Y-148336000D01*
X96319150Y-148226423D01*
X99100941Y-145444633D01*
X99132441Y-145418782D01*
X99201069Y-145335158D01*
X99235598Y-145293085D01*
X99276962Y-145215699D01*
X99312253Y-145149675D01*
X99359456Y-144994067D01*
X99371400Y-144872794D01*
X99371400Y-144872782D01*
X99375393Y-144832242D01*
X99371400Y-144791702D01*
X99371400Y-139889119D01*
X100428930Y-138831590D01*
X100444285Y-138867646D01*
G37*
X100444285Y-138867646D02*
X100493630Y-138939936D01*
X99774961Y-139658606D01*
X99743460Y-139684458D01*
X99717609Y-139715958D01*
X99640301Y-139810157D01*
X99563647Y-139953566D01*
X99516445Y-140109173D01*
X99500506Y-140270999D01*
X99504501Y-140311559D01*
X99504500Y-141437449D01*
X99500506Y-141478000D01*
X99504500Y-141518550D01*
X99504500Y-141518552D01*
X99516444Y-141639825D01*
X99550768Y-141752975D01*
X99563647Y-141795433D01*
X99640301Y-141938842D01*
X99641260Y-141940010D01*
X99743459Y-142064541D01*
X99774966Y-142090398D01*
X100380326Y-142695759D01*
X100375818Y-142704192D01*
X100293764Y-142974691D01*
X100266057Y-143256000D01*
X100293764Y-143537309D01*
X100375818Y-143807808D01*
X100509068Y-144057101D01*
X100688392Y-144275608D01*
X100906899Y-144454932D01*
X101039858Y-144526000D01*
X100906899Y-144597068D01*
X100688392Y-144776392D01*
X100509068Y-144994899D01*
X100375818Y-145244192D01*
X100293764Y-145514691D01*
X100266057Y-145796000D01*
X100293764Y-146077309D01*
X100375818Y-146347808D01*
X100509068Y-146597101D01*
X100513754Y-146602811D01*
X99908456Y-147208110D01*
X99876949Y-147233967D01*
X99838351Y-147281000D01*
X99773791Y-147359666D01*
X99735122Y-147432010D01*
X99697137Y-147503075D01*
X99649934Y-147658683D01*
X99637990Y-147779955D01*
X99633996Y-147820508D01*
X99637990Y-147861059D01*
X99637991Y-149190930D01*
X99633996Y-149231490D01*
X99649935Y-149393316D01*
X99697137Y-149548923D01*
X99773791Y-149692332D01*
X99807167Y-149733000D01*
X99876950Y-149818031D01*
X99908451Y-149843883D01*
X100380326Y-150315758D01*
X100375818Y-150324192D01*
X100293764Y-150594691D01*
X100266057Y-150876000D01*
X100293764Y-151157309D01*
X100375818Y-151427808D01*
X100509068Y-151677101D01*
X100688392Y-151895608D01*
X100801482Y-151988419D01*
X100783518Y-151990188D01*
X100663820Y-152026498D01*
X100553506Y-152085463D01*
X100456815Y-152164815D01*
X100377463Y-152261506D01*
X100318498Y-152371820D01*
X100282188Y-152491518D01*
X100269928Y-152616000D01*
X100269928Y-154216000D01*
X100282188Y-154340482D01*
X100318498Y-154460180D01*
X100377463Y-154570494D01*
X100456815Y-154667185D01*
X100553506Y-154746537D01*
X100663820Y-154805502D01*
X100783518Y-154841812D01*
X100908000Y-154854072D01*
X102310895Y-154854072D01*
X99392868Y-157772100D01*
X97809135Y-157772100D01*
X97837571Y-157712004D01*
X97906300Y-157437816D01*
X97920217Y-157155488D01*
X97878787Y-156875870D01*
X97783603Y-156609708D01*
X97716671Y-156484486D01*
X97472702Y-156412903D01*
X96659605Y-157226000D01*
X96673748Y-157240143D01*
X96494143Y-157419748D01*
X96480000Y-157405605D01*
X96465858Y-157419748D01*
X96286253Y-157240143D01*
X96300395Y-157226000D01*
X95487298Y-156412903D01*
X95243329Y-156484486D01*
X95229676Y-156513341D01*
X95094637Y-156311241D01*
X95016694Y-156233298D01*
X95666903Y-156233298D01*
X96480000Y-157046395D01*
X97293097Y-156233298D01*
X97221514Y-155989329D01*
X96966004Y-155868429D01*
X96691816Y-155799700D01*
X96409488Y-155785783D01*
X96129870Y-155827213D01*
X95863708Y-155922397D01*
X95738486Y-155989329D01*
X95666903Y-156233298D01*
X95016694Y-156233298D01*
X94996000Y-156212604D01*
X94996000Y-154847306D01*
X95169309Y-154830236D01*
X95439808Y-154748182D01*
X95689101Y-154614932D01*
X95907608Y-154435608D01*
X96086932Y-154217101D01*
X96220182Y-153967808D01*
X96302236Y-153697309D01*
X96329943Y-153416000D01*
X96302236Y-153134691D01*
X96220182Y-152864192D01*
X96086932Y-152614899D01*
X95907608Y-152396392D01*
X95689101Y-152217068D01*
X95556142Y-152146000D01*
X95689101Y-152074932D01*
X95907608Y-151895608D01*
X96086932Y-151677101D01*
X96220182Y-151427808D01*
X96302236Y-151157309D01*
X96329943Y-150876000D01*
X96302236Y-150594691D01*
X96220182Y-150324192D01*
X96086932Y-150074899D01*
X95907608Y-149856392D01*
X95689101Y-149677068D01*
X95556142Y-149606000D01*
X95689101Y-149534932D01*
X95907608Y-149355608D01*
X96086932Y-149137101D01*
X96220182Y-148887808D01*
X96302236Y-148617309D01*
X96329943Y-148336000D01*
X96319150Y-148226423D01*
X99100941Y-145444633D01*
X99132441Y-145418782D01*
X99201069Y-145335158D01*
X99235598Y-145293085D01*
X99276962Y-145215699D01*
X99312253Y-145149675D01*
X99359456Y-144994067D01*
X99371400Y-144872794D01*
X99371400Y-144872782D01*
X99375393Y-144832242D01*
X99371400Y-144791702D01*
X99371400Y-139889119D01*
X100428930Y-138831590D01*
X100444285Y-138867646D01*
G36*
X155806639Y-115280996D02*
G01*
X156590205Y-115484370D01*
X157328307Y-115816861D01*
X157999833Y-116268959D01*
X158585589Y-116827743D01*
X159068818Y-117477227D01*
X159435708Y-118198847D01*
X159675769Y-118971965D01*
X159757732Y-119590375D01*
X159724443Y-119510008D01*
X159589287Y-119307733D01*
X159417267Y-119135713D01*
X159214992Y-119000557D01*
X158990236Y-118907460D01*
X158751637Y-118860000D01*
X158508363Y-118860000D01*
X158269764Y-118907460D01*
X158045008Y-119000557D01*
X157842733Y-119135713D01*
X157670713Y-119307733D01*
X157535557Y-119510008D01*
X157442460Y-119734764D01*
X157395000Y-119973363D01*
X157395000Y-120216637D01*
X157442460Y-120455236D01*
X157535557Y-120679992D01*
X157670713Y-120882267D01*
X157842733Y-121054287D01*
X157938844Y-121118506D01*
X157898875Y-121157647D01*
X157892556Y-121165285D01*
X157861225Y-121203701D01*
X157825625Y-121257284D01*
X157789264Y-121310387D01*
X157784549Y-121319107D01*
X157761276Y-121362876D01*
X157736768Y-121422335D01*
X157711400Y-121481523D01*
X157708469Y-121490993D01*
X157694141Y-121538449D01*
X157681642Y-121601573D01*
X157673497Y-121639892D01*
X157669273Y-121653817D01*
X157667579Y-121671019D01*
X157667225Y-121674386D01*
X157662393Y-121723674D01*
X157659000Y-121758124D01*
X157659000Y-123752890D01*
X157655812Y-123720518D01*
X157619502Y-123600820D01*
X157560537Y-123490506D01*
X157481185Y-123393815D01*
X157384494Y-123314463D01*
X157274180Y-123255498D01*
X157154482Y-123219188D01*
X157030000Y-123206928D01*
X156415750Y-123210000D01*
X156257000Y-123368750D01*
X156257000Y-124968000D01*
X156277000Y-124968000D01*
X156277000Y-125222000D01*
X156257000Y-125222000D01*
X156257000Y-126821250D01*
X156415750Y-126980000D01*
X157030000Y-126983072D01*
X157154482Y-126970812D01*
X157274180Y-126934502D01*
X157384494Y-126875537D01*
X157481185Y-126796185D01*
X157560537Y-126699494D01*
X157619502Y-126589180D01*
X157655812Y-126469482D01*
X157659001Y-126437105D01*
X157659001Y-128431877D01*
X157661938Y-128461698D01*
X157661928Y-128463126D01*
X157662896Y-128472992D01*
X157665346Y-128496301D01*
X157669274Y-128536184D01*
X157674395Y-128553065D01*
X157681012Y-128585299D01*
X157693076Y-128648539D01*
X157695941Y-128658029D01*
X157710600Y-128705384D01*
X157735522Y-128764670D01*
X157759638Y-128824362D01*
X157764292Y-128833115D01*
X157787870Y-128876721D01*
X157823848Y-128930063D01*
X157859098Y-128983928D01*
X157865363Y-128991610D01*
X157896962Y-129029806D01*
X157938903Y-129071454D01*
X157842733Y-129135713D01*
X157670713Y-129307733D01*
X157535557Y-129510008D01*
X157442460Y-129734764D01*
X157395000Y-129973363D01*
X157395000Y-130216637D01*
X157442460Y-130455236D01*
X157535557Y-130679992D01*
X157670713Y-130882267D01*
X157842733Y-131054287D01*
X158045008Y-131189443D01*
X158269764Y-131282540D01*
X158508363Y-131330000D01*
X158751637Y-131330000D01*
X158990236Y-131282540D01*
X159214992Y-131189443D01*
X159417267Y-131054287D01*
X159589287Y-130882267D01*
X159724443Y-130679992D01*
X159790001Y-130521721D01*
X159790000Y-153743769D01*
X158877000Y-152830770D01*
X158877000Y-151479832D01*
X158916101Y-151458932D01*
X159134608Y-151279608D01*
X159313932Y-151061101D01*
X159447182Y-150811808D01*
X159529236Y-150541309D01*
X159550000Y-150330491D01*
X159550000Y-149389508D01*
X159529236Y-149178691D01*
X159447182Y-148908192D01*
X159313932Y-148658899D01*
X159134607Y-148440392D01*
X158916100Y-148261068D01*
X158666807Y-148127818D01*
X158396308Y-148045764D01*
X158115000Y-148018057D01*
X157833691Y-148045764D01*
X157607000Y-148114529D01*
X157607000Y-136605630D01*
X157791264Y-136421366D01*
X157833692Y-136434236D01*
X158115000Y-136461943D01*
X158396309Y-136434236D01*
X158666808Y-136352182D01*
X158916101Y-136218932D01*
X159134608Y-136039608D01*
X159313932Y-135821101D01*
X159447182Y-135571808D01*
X159529236Y-135301309D01*
X159550000Y-135090491D01*
X159550000Y-134149508D01*
X159529236Y-133938691D01*
X159447182Y-133668192D01*
X159313932Y-133418899D01*
X159134607Y-133200392D01*
X158916100Y-133021068D01*
X158666807Y-132887818D01*
X158396308Y-132805764D01*
X158115000Y-132778057D01*
X157833691Y-132805764D01*
X157563192Y-132887818D01*
X157313899Y-133021068D01*
X157095392Y-133200393D01*
X156916068Y-133418900D01*
X156845000Y-133551858D01*
X156773932Y-133418899D01*
X156594607Y-133200392D01*
X156376100Y-133021068D01*
X156126807Y-132887818D01*
X155856308Y-132805764D01*
X155575000Y-132778057D01*
X155293691Y-132805764D01*
X155257500Y-132816742D01*
X155257500Y-130969054D01*
X155342733Y-131054287D01*
X155545008Y-131189443D01*
X155769764Y-131282540D01*
X156008363Y-131330000D01*
X156251637Y-131330000D01*
X156490236Y-131282540D01*
X156714992Y-131189443D01*
X156917267Y-131054287D01*
X157089287Y-130882267D01*
X157224443Y-130679992D01*
X157317540Y-130455236D01*
X157365000Y-130216637D01*
X157365000Y-129973363D01*
X157317540Y-129734764D01*
X157224443Y-129510008D01*
X157089287Y-129307733D01*
X156917267Y-129135713D01*
X156714992Y-129000557D01*
X156490236Y-128907460D01*
X156251637Y-128860000D01*
X156008363Y-128860000D01*
X155769764Y-128907460D01*
X155545008Y-129000557D01*
X155342733Y-129135713D01*
X155257500Y-129220946D01*
X155257500Y-126982934D01*
X155844250Y-126980000D01*
X156003000Y-126821250D01*
X156003000Y-125222000D01*
X155983000Y-125222000D01*
X155983000Y-124968000D01*
X156003000Y-124968000D01*
X156003000Y-123368750D01*
X155844250Y-123210000D01*
X155257500Y-123207066D01*
X155257500Y-120969054D01*
X155342733Y-121054287D01*
X155545008Y-121189443D01*
X155769764Y-121282540D01*
X156008363Y-121330000D01*
X156251637Y-121330000D01*
X156490236Y-121282540D01*
X156714992Y-121189443D01*
X156917267Y-121054287D01*
X157089287Y-120882267D01*
X157224443Y-120679992D01*
X157317540Y-120455236D01*
X157365000Y-120216637D01*
X157365000Y-119973363D01*
X157317540Y-119734764D01*
X157224443Y-119510008D01*
X157089287Y-119307733D01*
X156917267Y-119135713D01*
X156714992Y-119000557D01*
X156490236Y-118907460D01*
X156251637Y-118860000D01*
X156008363Y-118860000D01*
X155769764Y-118907460D01*
X155545008Y-119000557D01*
X155342733Y-119135713D01*
X155170713Y-119307733D01*
X155035557Y-119510008D01*
X154942460Y-119734764D01*
X154933308Y-119780773D01*
X150362534Y-115210000D01*
X154969929Y-115210000D01*
X155806639Y-115280996D01*
G37*
X155806639Y-115280996D02*
X156590205Y-115484370D01*
X157328307Y-115816861D01*
X157999833Y-116268959D01*
X158585589Y-116827743D01*
X159068818Y-117477227D01*
X159435708Y-118198847D01*
X159675769Y-118971965D01*
X159757732Y-119590375D01*
X159724443Y-119510008D01*
X159589287Y-119307733D01*
X159417267Y-119135713D01*
X159214992Y-119000557D01*
X158990236Y-118907460D01*
X158751637Y-118860000D01*
X158508363Y-118860000D01*
X158269764Y-118907460D01*
X158045008Y-119000557D01*
X157842733Y-119135713D01*
X157670713Y-119307733D01*
X157535557Y-119510008D01*
X157442460Y-119734764D01*
X157395000Y-119973363D01*
X157395000Y-120216637D01*
X157442460Y-120455236D01*
X157535557Y-120679992D01*
X157670713Y-120882267D01*
X157842733Y-121054287D01*
X157938844Y-121118506D01*
X157898875Y-121157647D01*
X157892556Y-121165285D01*
X157861225Y-121203701D01*
X157825625Y-121257284D01*
X157789264Y-121310387D01*
X157784549Y-121319107D01*
X157761276Y-121362876D01*
X157736768Y-121422335D01*
X157711400Y-121481523D01*
X157708469Y-121490993D01*
X157694141Y-121538449D01*
X157681642Y-121601573D01*
X157673497Y-121639892D01*
X157669273Y-121653817D01*
X157667579Y-121671019D01*
X157667225Y-121674386D01*
X157662393Y-121723674D01*
X157659000Y-121758124D01*
X157659000Y-123752890D01*
X157655812Y-123720518D01*
X157619502Y-123600820D01*
X157560537Y-123490506D01*
X157481185Y-123393815D01*
X157384494Y-123314463D01*
X157274180Y-123255498D01*
X157154482Y-123219188D01*
X157030000Y-123206928D01*
X156415750Y-123210000D01*
X156257000Y-123368750D01*
X156257000Y-124968000D01*
X156277000Y-124968000D01*
X156277000Y-125222000D01*
X156257000Y-125222000D01*
X156257000Y-126821250D01*
X156415750Y-126980000D01*
X157030000Y-126983072D01*
X157154482Y-126970812D01*
X157274180Y-126934502D01*
X157384494Y-126875537D01*
X157481185Y-126796185D01*
X157560537Y-126699494D01*
X157619502Y-126589180D01*
X157655812Y-126469482D01*
X157659001Y-126437105D01*
X157659001Y-128431877D01*
X157661938Y-128461698D01*
X157661928Y-128463126D01*
X157662896Y-128472992D01*
X157665346Y-128496301D01*
X157669274Y-128536184D01*
X157674395Y-128553065D01*
X157681012Y-128585299D01*
X157693076Y-128648539D01*
X157695941Y-128658029D01*
X157710600Y-128705384D01*
X157735522Y-128764670D01*
X157759638Y-128824362D01*
X157764292Y-128833115D01*
X157787870Y-128876721D01*
X157823848Y-128930063D01*
X157859098Y-128983928D01*
X157865363Y-128991610D01*
X157896962Y-129029806D01*
X157938903Y-129071454D01*
X157842733Y-129135713D01*
X157670713Y-129307733D01*
X157535557Y-129510008D01*
X157442460Y-129734764D01*
X157395000Y-129973363D01*
X157395000Y-130216637D01*
X157442460Y-130455236D01*
X157535557Y-130679992D01*
X157670713Y-130882267D01*
X157842733Y-131054287D01*
X158045008Y-131189443D01*
X158269764Y-131282540D01*
X158508363Y-131330000D01*
X158751637Y-131330000D01*
X158990236Y-131282540D01*
X159214992Y-131189443D01*
X159417267Y-131054287D01*
X159589287Y-130882267D01*
X159724443Y-130679992D01*
X159790001Y-130521721D01*
X159790000Y-153743769D01*
X158877000Y-152830770D01*
X158877000Y-151479832D01*
X158916101Y-151458932D01*
X159134608Y-151279608D01*
X159313932Y-151061101D01*
X159447182Y-150811808D01*
X159529236Y-150541309D01*
X159550000Y-150330491D01*
X159550000Y-149389508D01*
X159529236Y-149178691D01*
X159447182Y-148908192D01*
X159313932Y-148658899D01*
X159134607Y-148440392D01*
X158916100Y-148261068D01*
X158666807Y-148127818D01*
X158396308Y-148045764D01*
X158115000Y-148018057D01*
X157833691Y-148045764D01*
X157607000Y-148114529D01*
X157607000Y-136605630D01*
X157791264Y-136421366D01*
X157833692Y-136434236D01*
X158115000Y-136461943D01*
X158396309Y-136434236D01*
X158666808Y-136352182D01*
X158916101Y-136218932D01*
X159134608Y-136039608D01*
X159313932Y-135821101D01*
X159447182Y-135571808D01*
X159529236Y-135301309D01*
X159550000Y-135090491D01*
X159550000Y-134149508D01*
X159529236Y-133938691D01*
X159447182Y-133668192D01*
X159313932Y-133418899D01*
X159134607Y-133200392D01*
X158916100Y-133021068D01*
X158666807Y-132887818D01*
X158396308Y-132805764D01*
X158115000Y-132778057D01*
X157833691Y-132805764D01*
X157563192Y-132887818D01*
X157313899Y-133021068D01*
X157095392Y-133200393D01*
X156916068Y-133418900D01*
X156845000Y-133551858D01*
X156773932Y-133418899D01*
X156594607Y-133200392D01*
X156376100Y-133021068D01*
X156126807Y-132887818D01*
X155856308Y-132805764D01*
X155575000Y-132778057D01*
X155293691Y-132805764D01*
X155257500Y-132816742D01*
X155257500Y-130969054D01*
X155342733Y-131054287D01*
X155545008Y-131189443D01*
X155769764Y-131282540D01*
X156008363Y-131330000D01*
X156251637Y-131330000D01*
X156490236Y-131282540D01*
X156714992Y-131189443D01*
X156917267Y-131054287D01*
X157089287Y-130882267D01*
X157224443Y-130679992D01*
X157317540Y-130455236D01*
X157365000Y-130216637D01*
X157365000Y-129973363D01*
X157317540Y-129734764D01*
X157224443Y-129510008D01*
X157089287Y-129307733D01*
X156917267Y-129135713D01*
X156714992Y-129000557D01*
X156490236Y-128907460D01*
X156251637Y-128860000D01*
X156008363Y-128860000D01*
X155769764Y-128907460D01*
X155545008Y-129000557D01*
X155342733Y-129135713D01*
X155257500Y-129220946D01*
X155257500Y-126982934D01*
X155844250Y-126980000D01*
X156003000Y-126821250D01*
X156003000Y-125222000D01*
X155983000Y-125222000D01*
X155983000Y-124968000D01*
X156003000Y-124968000D01*
X156003000Y-123368750D01*
X155844250Y-123210000D01*
X155257500Y-123207066D01*
X155257500Y-120969054D01*
X155342733Y-121054287D01*
X155545008Y-121189443D01*
X155769764Y-121282540D01*
X156008363Y-121330000D01*
X156251637Y-121330000D01*
X156490236Y-121282540D01*
X156714992Y-121189443D01*
X156917267Y-121054287D01*
X157089287Y-120882267D01*
X157224443Y-120679992D01*
X157317540Y-120455236D01*
X157365000Y-120216637D01*
X157365000Y-119973363D01*
X157317540Y-119734764D01*
X157224443Y-119510008D01*
X157089287Y-119307733D01*
X156917267Y-119135713D01*
X156714992Y-119000557D01*
X156490236Y-118907460D01*
X156251637Y-118860000D01*
X156008363Y-118860000D01*
X155769764Y-118907460D01*
X155545008Y-119000557D01*
X155342733Y-119135713D01*
X155170713Y-119307733D01*
X155035557Y-119510008D01*
X154942460Y-119734764D01*
X154933308Y-119780773D01*
X150362534Y-115210000D01*
X154969929Y-115210000D01*
X155806639Y-115280996D01*
G36*
X75441633Y-137744182D02*
G01*
X75424096Y-137826961D01*
X75546085Y-138049000D01*
X77089000Y-138049000D01*
X77089000Y-138029000D01*
X77343000Y-138029000D01*
X77343000Y-138049000D01*
X78885915Y-138049000D01*
X79007904Y-137826961D01*
X78990367Y-137744182D01*
X78941698Y-137629900D01*
X80308087Y-137629900D01*
X80227764Y-137894691D01*
X80200057Y-138176000D01*
X80227764Y-138457309D01*
X80309818Y-138727808D01*
X80443068Y-138977101D01*
X80622392Y-139195608D01*
X80840899Y-139374932D01*
X80973858Y-139446000D01*
X80840899Y-139517068D01*
X80622392Y-139696392D01*
X80443068Y-139914899D01*
X80309818Y-140164192D01*
X80227764Y-140434691D01*
X80200057Y-140716000D01*
X80227764Y-140997309D01*
X80309818Y-141267808D01*
X80434115Y-141500352D01*
X79013837Y-142920630D01*
X78948182Y-142704192D01*
X78814932Y-142454899D01*
X78635608Y-142236392D01*
X78417101Y-142057068D01*
X78284142Y-141986000D01*
X78417101Y-141914932D01*
X78635608Y-141735608D01*
X78814932Y-141517101D01*
X78948182Y-141267808D01*
X79030236Y-140997309D01*
X79057943Y-140716000D01*
X79030236Y-140434691D01*
X78948182Y-140164192D01*
X78814932Y-139914899D01*
X78635608Y-139696392D01*
X78417101Y-139517068D01*
X78289259Y-139448735D01*
X78518839Y-139298601D01*
X78720500Y-139100895D01*
X78879715Y-138867646D01*
X78990367Y-138607818D01*
X79007904Y-138525039D01*
X78885915Y-138303000D01*
X77343000Y-138303000D01*
X77343000Y-138323000D01*
X77089000Y-138323000D01*
X77089000Y-138303000D01*
X75546085Y-138303000D01*
X75424096Y-138525039D01*
X75441633Y-138607818D01*
X75552285Y-138867646D01*
X75711500Y-139100895D01*
X75913161Y-139298601D01*
X76142741Y-139448735D01*
X76014899Y-139517068D01*
X75796392Y-139696392D01*
X75637092Y-139890500D01*
X74817634Y-139890500D01*
X72557033Y-137629900D01*
X75490302Y-137629900D01*
X75441633Y-137744182D01*
G37*
X75441633Y-137744182D02*
X75424096Y-137826961D01*
X75546085Y-138049000D01*
X77089000Y-138049000D01*
X77089000Y-138029000D01*
X77343000Y-138029000D01*
X77343000Y-138049000D01*
X78885915Y-138049000D01*
X79007904Y-137826961D01*
X78990367Y-137744182D01*
X78941698Y-137629900D01*
X80308087Y-137629900D01*
X80227764Y-137894691D01*
X80200057Y-138176000D01*
X80227764Y-138457309D01*
X80309818Y-138727808D01*
X80443068Y-138977101D01*
X80622392Y-139195608D01*
X80840899Y-139374932D01*
X80973858Y-139446000D01*
X80840899Y-139517068D01*
X80622392Y-139696392D01*
X80443068Y-139914899D01*
X80309818Y-140164192D01*
X80227764Y-140434691D01*
X80200057Y-140716000D01*
X80227764Y-140997309D01*
X80309818Y-141267808D01*
X80434115Y-141500352D01*
X79013837Y-142920630D01*
X78948182Y-142704192D01*
X78814932Y-142454899D01*
X78635608Y-142236392D01*
X78417101Y-142057068D01*
X78284142Y-141986000D01*
X78417101Y-141914932D01*
X78635608Y-141735608D01*
X78814932Y-141517101D01*
X78948182Y-141267808D01*
X79030236Y-140997309D01*
X79057943Y-140716000D01*
X79030236Y-140434691D01*
X78948182Y-140164192D01*
X78814932Y-139914899D01*
X78635608Y-139696392D01*
X78417101Y-139517068D01*
X78289259Y-139448735D01*
X78518839Y-139298601D01*
X78720500Y-139100895D01*
X78879715Y-138867646D01*
X78990367Y-138607818D01*
X79007904Y-138525039D01*
X78885915Y-138303000D01*
X77343000Y-138303000D01*
X77343000Y-138323000D01*
X77089000Y-138323000D01*
X77089000Y-138303000D01*
X75546085Y-138303000D01*
X75424096Y-138525039D01*
X75441633Y-138607818D01*
X75552285Y-138867646D01*
X75711500Y-139100895D01*
X75913161Y-139298601D01*
X76142741Y-139448735D01*
X76014899Y-139517068D01*
X75796392Y-139696392D01*
X75637092Y-139890500D01*
X74817634Y-139890500D01*
X72557033Y-137629900D01*
X75490302Y-137629900D01*
X75441633Y-137744182D01*
G36*
X83505748Y-128215858D02*
G01*
X83491605Y-128230000D01*
X83505748Y-128244143D01*
X83326143Y-128423748D01*
X83312000Y-128409605D01*
X82498903Y-129222702D01*
X82570486Y-129466671D01*
X82825996Y-129587571D01*
X83100184Y-129656300D01*
X83382512Y-129670217D01*
X83662130Y-129628787D01*
X83736500Y-129602191D01*
X83736501Y-134319840D01*
X83732506Y-134360400D01*
X83748445Y-134522226D01*
X83795647Y-134677833D01*
X83872301Y-134821242D01*
X83917977Y-134876898D01*
X83975460Y-134946941D01*
X84006961Y-134972793D01*
X86393606Y-137359439D01*
X86419459Y-137390941D01*
X86483596Y-137443577D01*
X86545157Y-137494099D01*
X86610209Y-137528870D01*
X86688566Y-137570753D01*
X86844174Y-137617956D01*
X86965447Y-137629900D01*
X86965449Y-137629900D01*
X87006000Y-137633894D01*
X87046550Y-137629900D01*
X87936302Y-137629900D01*
X87887633Y-137744182D01*
X87870096Y-137826961D01*
X87992085Y-138049000D01*
X89535000Y-138049000D01*
X89535000Y-138029000D01*
X89789000Y-138029000D01*
X89789000Y-138049000D01*
X91331915Y-138049000D01*
X91453904Y-137826961D01*
X91436367Y-137744182D01*
X91387698Y-137629900D01*
X92754087Y-137629900D01*
X92673764Y-137894691D01*
X92646057Y-138176000D01*
X92670670Y-138425897D01*
X92476068Y-138620500D01*
X91430966Y-138620500D01*
X91436367Y-138607818D01*
X91453904Y-138525039D01*
X91331915Y-138303000D01*
X89789000Y-138303000D01*
X89789000Y-138323000D01*
X89535000Y-138323000D01*
X89535000Y-138303000D01*
X87992085Y-138303000D01*
X87870096Y-138525039D01*
X87887633Y-138607818D01*
X87893034Y-138620500D01*
X85993634Y-138620500D01*
X83622498Y-136249366D01*
X83596641Y-136217859D01*
X83470942Y-136114701D01*
X83327534Y-136038047D01*
X83171926Y-135990844D01*
X83050653Y-135978900D01*
X83050650Y-135978900D01*
X83010100Y-135974906D01*
X82969550Y-135978900D01*
X71983833Y-135978900D01*
X71492198Y-135487266D01*
X71466341Y-135455759D01*
X71340642Y-135352601D01*
X71197234Y-135275947D01*
X71041626Y-135228744D01*
X70920353Y-135216800D01*
X70920350Y-135216800D01*
X70879800Y-135212806D01*
X70839250Y-135216800D01*
X66708708Y-135216800D01*
X66705932Y-135202842D01*
X66638439Y-135039900D01*
X67044650Y-135039900D01*
X67085200Y-135043894D01*
X67125750Y-135039900D01*
X67125753Y-135039900D01*
X67247026Y-135027956D01*
X67402634Y-134980753D01*
X67546042Y-134904099D01*
X67671741Y-134800941D01*
X67697598Y-134769434D01*
X69427928Y-133039105D01*
X69427928Y-133642000D01*
X69440188Y-133766482D01*
X69476498Y-133886180D01*
X69535463Y-133996494D01*
X69614815Y-134093185D01*
X69711506Y-134172537D01*
X69821820Y-134231502D01*
X69941518Y-134267812D01*
X70066000Y-134280072D01*
X71666000Y-134280072D01*
X71790482Y-134267812D01*
X71910180Y-134231502D01*
X72020494Y-134172537D01*
X72117185Y-134093185D01*
X72196537Y-133996494D01*
X72255502Y-133886180D01*
X72271117Y-133834702D01*
X77672903Y-133834702D01*
X77744486Y-134078671D01*
X77999996Y-134199571D01*
X78274184Y-134268300D01*
X78556512Y-134282217D01*
X78836130Y-134240787D01*
X79102292Y-134145603D01*
X79227514Y-134078671D01*
X79299097Y-133834702D01*
X78486000Y-133021605D01*
X77672903Y-133834702D01*
X72271117Y-133834702D01*
X72291812Y-133766482D01*
X72304072Y-133642000D01*
X72304072Y-132295900D01*
X77156865Y-132295900D01*
X77128429Y-132355996D01*
X77059700Y-132630184D01*
X77045783Y-132912512D01*
X77087213Y-133192130D01*
X77182397Y-133458292D01*
X77249329Y-133583514D01*
X77493298Y-133655097D01*
X78306395Y-132842000D01*
X78665605Y-132842000D01*
X79478702Y-133655097D01*
X79722671Y-133583514D01*
X79843571Y-133328004D01*
X79912300Y-133053816D01*
X79926217Y-132771488D01*
X79884787Y-132491870D01*
X79789603Y-132225708D01*
X79722671Y-132100486D01*
X79478702Y-132028903D01*
X78665605Y-132842000D01*
X78306395Y-132842000D01*
X78292253Y-132827858D01*
X78471858Y-132648253D01*
X78486000Y-132662395D01*
X79299097Y-131849298D01*
X79252193Y-131689439D01*
X82038682Y-128902952D01*
X82075329Y-128971514D01*
X82319298Y-129043097D01*
X83132395Y-128230000D01*
X83118253Y-128215858D01*
X83297858Y-128036253D01*
X83312000Y-128050395D01*
X83326143Y-128036253D01*
X83505748Y-128215858D01*
G37*
X83505748Y-128215858D02*
X83491605Y-128230000D01*
X83505748Y-128244143D01*
X83326143Y-128423748D01*
X83312000Y-128409605D01*
X82498903Y-129222702D01*
X82570486Y-129466671D01*
X82825996Y-129587571D01*
X83100184Y-129656300D01*
X83382512Y-129670217D01*
X83662130Y-129628787D01*
X83736500Y-129602191D01*
X83736501Y-134319840D01*
X83732506Y-134360400D01*
X83748445Y-134522226D01*
X83795647Y-134677833D01*
X83872301Y-134821242D01*
X83917977Y-134876898D01*
X83975460Y-134946941D01*
X84006961Y-134972793D01*
X86393606Y-137359439D01*
X86419459Y-137390941D01*
X86483596Y-137443577D01*
X86545157Y-137494099D01*
X86610209Y-137528870D01*
X86688566Y-137570753D01*
X86844174Y-137617956D01*
X86965447Y-137629900D01*
X86965449Y-137629900D01*
X87006000Y-137633894D01*
X87046550Y-137629900D01*
X87936302Y-137629900D01*
X87887633Y-137744182D01*
X87870096Y-137826961D01*
X87992085Y-138049000D01*
X89535000Y-138049000D01*
X89535000Y-138029000D01*
X89789000Y-138029000D01*
X89789000Y-138049000D01*
X91331915Y-138049000D01*
X91453904Y-137826961D01*
X91436367Y-137744182D01*
X91387698Y-137629900D01*
X92754087Y-137629900D01*
X92673764Y-137894691D01*
X92646057Y-138176000D01*
X92670670Y-138425897D01*
X92476068Y-138620500D01*
X91430966Y-138620500D01*
X91436367Y-138607818D01*
X91453904Y-138525039D01*
X91331915Y-138303000D01*
X89789000Y-138303000D01*
X89789000Y-138323000D01*
X89535000Y-138323000D01*
X89535000Y-138303000D01*
X87992085Y-138303000D01*
X87870096Y-138525039D01*
X87887633Y-138607818D01*
X87893034Y-138620500D01*
X85993634Y-138620500D01*
X83622498Y-136249366D01*
X83596641Y-136217859D01*
X83470942Y-136114701D01*
X83327534Y-136038047D01*
X83171926Y-135990844D01*
X83050653Y-135978900D01*
X83050650Y-135978900D01*
X83010100Y-135974906D01*
X82969550Y-135978900D01*
X71983833Y-135978900D01*
X71492198Y-135487266D01*
X71466341Y-135455759D01*
X71340642Y-135352601D01*
X71197234Y-135275947D01*
X71041626Y-135228744D01*
X70920353Y-135216800D01*
X70920350Y-135216800D01*
X70879800Y-135212806D01*
X70839250Y-135216800D01*
X66708708Y-135216800D01*
X66705932Y-135202842D01*
X66638439Y-135039900D01*
X67044650Y-135039900D01*
X67085200Y-135043894D01*
X67125750Y-135039900D01*
X67125753Y-135039900D01*
X67247026Y-135027956D01*
X67402634Y-134980753D01*
X67546042Y-134904099D01*
X67671741Y-134800941D01*
X67697598Y-134769434D01*
X69427928Y-133039105D01*
X69427928Y-133642000D01*
X69440188Y-133766482D01*
X69476498Y-133886180D01*
X69535463Y-133996494D01*
X69614815Y-134093185D01*
X69711506Y-134172537D01*
X69821820Y-134231502D01*
X69941518Y-134267812D01*
X70066000Y-134280072D01*
X71666000Y-134280072D01*
X71790482Y-134267812D01*
X71910180Y-134231502D01*
X72020494Y-134172537D01*
X72117185Y-134093185D01*
X72196537Y-133996494D01*
X72255502Y-133886180D01*
X72271117Y-133834702D01*
X77672903Y-133834702D01*
X77744486Y-134078671D01*
X77999996Y-134199571D01*
X78274184Y-134268300D01*
X78556512Y-134282217D01*
X78836130Y-134240787D01*
X79102292Y-134145603D01*
X79227514Y-134078671D01*
X79299097Y-133834702D01*
X78486000Y-133021605D01*
X77672903Y-133834702D01*
X72271117Y-133834702D01*
X72291812Y-133766482D01*
X72304072Y-133642000D01*
X72304072Y-132295900D01*
X77156865Y-132295900D01*
X77128429Y-132355996D01*
X77059700Y-132630184D01*
X77045783Y-132912512D01*
X77087213Y-133192130D01*
X77182397Y-133458292D01*
X77249329Y-133583514D01*
X77493298Y-133655097D01*
X78306395Y-132842000D01*
X78665605Y-132842000D01*
X79478702Y-133655097D01*
X79722671Y-133583514D01*
X79843571Y-133328004D01*
X79912300Y-133053816D01*
X79926217Y-132771488D01*
X79884787Y-132491870D01*
X79789603Y-132225708D01*
X79722671Y-132100486D01*
X79478702Y-132028903D01*
X78665605Y-132842000D01*
X78306395Y-132842000D01*
X78292253Y-132827858D01*
X78471858Y-132648253D01*
X78486000Y-132662395D01*
X79299097Y-131849298D01*
X79252193Y-131689439D01*
X82038682Y-128902952D01*
X82075329Y-128971514D01*
X82319298Y-129043097D01*
X83132395Y-128230000D01*
X83118253Y-128215858D01*
X83297858Y-128036253D01*
X83312000Y-128050395D01*
X83326143Y-128036253D01*
X83505748Y-128215858D01*
G36*
X102235000Y-138049000D02*
G01*
X102255000Y-138049000D01*
X102255000Y-138303000D01*
X102235000Y-138303000D01*
X102235000Y-138323000D01*
X101981000Y-138323000D01*
X101981000Y-138303000D01*
X101961000Y-138303000D01*
X101961000Y-138049000D01*
X101981000Y-138049000D01*
X101981000Y-138029000D01*
X102235000Y-138029000D01*
X102235000Y-138049000D01*
G37*
X102235000Y-138049000D02*
X102255000Y-138049000D01*
X102255000Y-138303000D01*
X102235000Y-138303000D01*
X102235000Y-138323000D01*
X101981000Y-138323000D01*
X101981000Y-138303000D01*
X101961000Y-138303000D01*
X101961000Y-138049000D01*
X101981000Y-138049000D01*
X101981000Y-138029000D01*
X102235000Y-138029000D01*
X102235000Y-138049000D01*
G36*
X127144147Y-116167426D02*
G01*
X127089000Y-116444665D01*
X127089000Y-116727335D01*
X127144147Y-117004574D01*
X127252320Y-117265727D01*
X127409363Y-117500759D01*
X127609241Y-117700637D01*
X127635001Y-117717849D01*
X127635000Y-119010151D01*
X127609241Y-119027363D01*
X127409363Y-119227241D01*
X127252320Y-119462273D01*
X127144147Y-119723426D01*
X127089000Y-120000665D01*
X127089000Y-120283335D01*
X127144147Y-120560574D01*
X127252320Y-120821727D01*
X127409363Y-121056759D01*
X127609241Y-121256637D01*
X127844273Y-121413680D01*
X128105426Y-121521853D01*
X128382665Y-121577000D01*
X128665335Y-121577000D01*
X128942574Y-121521853D01*
X129203727Y-121413680D01*
X129438759Y-121256637D01*
X129638637Y-121056759D01*
X129795680Y-120821727D01*
X129903853Y-120560574D01*
X129959000Y-120283335D01*
X129959000Y-120000665D01*
X129903853Y-119723426D01*
X129795680Y-119462273D01*
X129638637Y-119227241D01*
X129438759Y-119027363D01*
X129413000Y-119010151D01*
X129413000Y-117717849D01*
X129438759Y-117700637D01*
X129638637Y-117500759D01*
X129795680Y-117265727D01*
X129903853Y-117004574D01*
X129959000Y-116727335D01*
X129959000Y-116444665D01*
X129903853Y-116167426D01*
X129903676Y-116166999D01*
X137304324Y-116166999D01*
X137304147Y-116167426D01*
X137249000Y-116444665D01*
X137249000Y-116727335D01*
X137304147Y-117004574D01*
X137412320Y-117265727D01*
X137569363Y-117500759D01*
X137769241Y-117700637D01*
X137858501Y-117760278D01*
X137858501Y-118161740D01*
X137854506Y-118202300D01*
X137870445Y-118364126D01*
X137917647Y-118519733D01*
X137994301Y-118663142D01*
X138055863Y-118738154D01*
X138097460Y-118788841D01*
X138128961Y-118814693D01*
X138135710Y-118821442D01*
X138070119Y-118844930D01*
X137828869Y-118989615D01*
X137620481Y-119178586D01*
X137452963Y-119404580D01*
X137332754Y-119658913D01*
X137292096Y-119792961D01*
X137414085Y-120015000D01*
X138557000Y-120015000D01*
X138557000Y-119995000D01*
X138811000Y-119995000D01*
X138811000Y-120015000D01*
X138831000Y-120015000D01*
X138831000Y-120269000D01*
X138811000Y-120269000D01*
X138811000Y-120289000D01*
X138557000Y-120289000D01*
X138557000Y-120269000D01*
X137414085Y-120269000D01*
X137292096Y-120491039D01*
X137332754Y-120625087D01*
X137452963Y-120879420D01*
X137620481Y-121105414D01*
X137828869Y-121294385D01*
X138070119Y-121439070D01*
X138135710Y-121462558D01*
X138128966Y-121469302D01*
X138097459Y-121495159D01*
X138032858Y-121573877D01*
X137994301Y-121620858D01*
X137922119Y-121755900D01*
X137917647Y-121764267D01*
X137870444Y-121919875D01*
X137858505Y-122041099D01*
X137854506Y-122081700D01*
X137858500Y-122122251D01*
X137858500Y-122523722D01*
X137769241Y-122583363D01*
X137569363Y-122783241D01*
X137412320Y-123018273D01*
X137304147Y-123279426D01*
X137249000Y-123556665D01*
X137249000Y-123839335D01*
X137304147Y-124116574D01*
X137412320Y-124377727D01*
X137569363Y-124612759D01*
X137769241Y-124812637D01*
X138004273Y-124969680D01*
X138265426Y-125077853D01*
X138542665Y-125133000D01*
X138825335Y-125133000D01*
X138930624Y-125112056D01*
X140129106Y-126310539D01*
X140154959Y-126342041D01*
X140280658Y-126445199D01*
X140424066Y-126521853D01*
X140579674Y-126569056D01*
X140700947Y-126581000D01*
X140700956Y-126581000D01*
X140741499Y-126584993D01*
X140782042Y-126581000D01*
X142325928Y-126581000D01*
X142325928Y-127165000D01*
X142338188Y-127289482D01*
X142374498Y-127409180D01*
X142433463Y-127519494D01*
X142512815Y-127616185D01*
X142609506Y-127695537D01*
X142719820Y-127754502D01*
X142815943Y-127783661D01*
X142649363Y-127950241D01*
X142492320Y-128185273D01*
X142384147Y-128446426D01*
X142329000Y-128723665D01*
X142329000Y-129006335D01*
X142384147Y-129283574D01*
X142492320Y-129544727D01*
X142649363Y-129779759D01*
X142849241Y-129979637D01*
X143084273Y-130136680D01*
X143345426Y-130244853D01*
X143622665Y-130300000D01*
X143905335Y-130300000D01*
X144182574Y-130244853D01*
X144260392Y-130212620D01*
X144284499Y-130214994D01*
X144325050Y-130211000D01*
X149241928Y-130211000D01*
X149241928Y-130995000D01*
X149254188Y-131119482D01*
X149290498Y-131239180D01*
X149349463Y-131349494D01*
X149428815Y-131446185D01*
X149525506Y-131525537D01*
X149635820Y-131584502D01*
X149755518Y-131620812D01*
X149880000Y-131633072D01*
X152380000Y-131633072D01*
X152504482Y-131620812D01*
X152624180Y-131584502D01*
X152734494Y-131525537D01*
X152831185Y-131446185D01*
X152910537Y-131349494D01*
X152969502Y-131239180D01*
X153005812Y-131119482D01*
X153018072Y-130995000D01*
X153018072Y-129195000D01*
X153005812Y-129070518D01*
X152969502Y-128950820D01*
X152912939Y-128845000D01*
X152969502Y-128739180D01*
X153005812Y-128619482D01*
X153018072Y-128495000D01*
X153018072Y-126695000D01*
X153005812Y-126570518D01*
X152969502Y-126450820D01*
X152910537Y-126340506D01*
X152831185Y-126243815D01*
X152734494Y-126164463D01*
X152624180Y-126105498D01*
X152504482Y-126069188D01*
X152380000Y-126056928D01*
X151913314Y-126056928D01*
X151917267Y-126054287D01*
X152089287Y-125882267D01*
X152224443Y-125679992D01*
X152317540Y-125455236D01*
X152365000Y-125216637D01*
X152365000Y-124973363D01*
X152317540Y-124734764D01*
X152224443Y-124510008D01*
X152089287Y-124307733D01*
X151917267Y-124135713D01*
X151913314Y-124133072D01*
X152380000Y-124133072D01*
X152504482Y-124120812D01*
X152624180Y-124084502D01*
X152734494Y-124025537D01*
X152831185Y-123946185D01*
X152910537Y-123849494D01*
X152969502Y-123739180D01*
X153005812Y-123619482D01*
X153018072Y-123495000D01*
X153018072Y-121695000D01*
X153005812Y-121570518D01*
X152969502Y-121450820D01*
X152912939Y-121345000D01*
X152969502Y-121239180D01*
X153005812Y-121119482D01*
X153018072Y-120995000D01*
X153018072Y-120200403D01*
X153606500Y-120788831D01*
X153606501Y-132898345D01*
X153586807Y-132887818D01*
X153316308Y-132805764D01*
X153035000Y-132778057D01*
X152753691Y-132805764D01*
X152483192Y-132887818D01*
X152233899Y-133021068D01*
X152015392Y-133200393D01*
X151836068Y-133418900D01*
X151767735Y-133546742D01*
X151617601Y-133317161D01*
X151419895Y-133115500D01*
X151186646Y-132956285D01*
X150926818Y-132845633D01*
X150844039Y-132828096D01*
X150622000Y-132950085D01*
X150622000Y-134493000D01*
X150642000Y-134493000D01*
X150642000Y-134747000D01*
X150622000Y-134747000D01*
X150622000Y-134767000D01*
X150368000Y-134767000D01*
X150368000Y-134747000D01*
X150348000Y-134747000D01*
X150348000Y-134493000D01*
X150368000Y-134493000D01*
X150368000Y-132950085D01*
X150145961Y-132828096D01*
X150063182Y-132845633D01*
X149803354Y-132956285D01*
X149570105Y-133115500D01*
X149372399Y-133317161D01*
X149222265Y-133546741D01*
X149153932Y-133418899D01*
X148974607Y-133200392D01*
X148756100Y-133021068D01*
X148506807Y-132887818D01*
X148236308Y-132805764D01*
X147955000Y-132778057D01*
X147673691Y-132805764D01*
X147403192Y-132887818D01*
X147153899Y-133021068D01*
X146935392Y-133200393D01*
X146756068Y-133418900D01*
X146685000Y-133551858D01*
X146613932Y-133418899D01*
X146434607Y-133200392D01*
X146216100Y-133021068D01*
X145966807Y-132887818D01*
X145696308Y-132805764D01*
X145415000Y-132778057D01*
X145133691Y-132805764D01*
X144863192Y-132887818D01*
X144724228Y-132962096D01*
X144055498Y-132293366D01*
X144029641Y-132261859D01*
X143903942Y-132158701D01*
X143760534Y-132082047D01*
X143604926Y-132034844D01*
X143483653Y-132022900D01*
X143483650Y-132022900D01*
X143443100Y-132018906D01*
X143402550Y-132022900D01*
X143004033Y-132022900D01*
X139864498Y-128883366D01*
X139838641Y-128851859D01*
X139712942Y-128748701D01*
X139569534Y-128672047D01*
X139413926Y-128624844D01*
X139292653Y-128612900D01*
X139292650Y-128612900D01*
X139252100Y-128608906D01*
X139211550Y-128612900D01*
X139153159Y-128612900D01*
X139363727Y-128525680D01*
X139598759Y-128368637D01*
X139798637Y-128168759D01*
X139955680Y-127933727D01*
X140063853Y-127672574D01*
X140119000Y-127395335D01*
X140119000Y-127112665D01*
X140063853Y-126835426D01*
X139955680Y-126574273D01*
X139798637Y-126339241D01*
X139598759Y-126139363D01*
X139363727Y-125982320D01*
X139102574Y-125874147D01*
X138825335Y-125819000D01*
X138542665Y-125819000D01*
X138265426Y-125874147D01*
X138004273Y-125982320D01*
X137769241Y-126139363D01*
X137569363Y-126339241D01*
X137412320Y-126574273D01*
X137304147Y-126835426D01*
X137249000Y-127112665D01*
X137249000Y-127395335D01*
X137304147Y-127672574D01*
X137412320Y-127933727D01*
X137569363Y-128168759D01*
X137769241Y-128368637D01*
X138004273Y-128525680D01*
X138214841Y-128612900D01*
X136390333Y-128612900D01*
X129658898Y-121881466D01*
X129633041Y-121849959D01*
X129507342Y-121746801D01*
X129363934Y-121670147D01*
X129208326Y-121622944D01*
X129087053Y-121611000D01*
X129087050Y-121611000D01*
X129046500Y-121607006D01*
X129005950Y-121611000D01*
X123659000Y-121611000D01*
X123659000Y-121519740D01*
X123601932Y-121232842D01*
X123489990Y-120962589D01*
X123327475Y-120719368D01*
X123120632Y-120512525D01*
X122877411Y-120350010D01*
X122607158Y-120238068D01*
X122320260Y-120181000D01*
X122027740Y-120181000D01*
X121740842Y-120238068D01*
X121470589Y-120350010D01*
X121227368Y-120512525D01*
X121095513Y-120644380D01*
X121073502Y-120571820D01*
X121014537Y-120461506D01*
X120935185Y-120364815D01*
X120838494Y-120285463D01*
X120728180Y-120226498D01*
X120608482Y-120190188D01*
X120484000Y-120177928D01*
X119919750Y-120181000D01*
X119761000Y-120339750D01*
X119761000Y-121539000D01*
X119781000Y-121539000D01*
X119781000Y-121793000D01*
X119761000Y-121793000D01*
X119761000Y-122992250D01*
X119919750Y-123151000D01*
X120484000Y-123154072D01*
X120608482Y-123141812D01*
X120728180Y-123105502D01*
X120838494Y-123046537D01*
X120935185Y-122967185D01*
X121014537Y-122870494D01*
X121073502Y-122760180D01*
X121095513Y-122687620D01*
X121227368Y-122819475D01*
X121470589Y-122981990D01*
X121740842Y-123093932D01*
X122027740Y-123151000D01*
X122320260Y-123151000D01*
X122476104Y-123120000D01*
X122483657Y-123126199D01*
X122547278Y-123160205D01*
X122627066Y-123202853D01*
X122782674Y-123250056D01*
X122903947Y-123262000D01*
X122903949Y-123262000D01*
X122944500Y-123265994D01*
X122985050Y-123262000D01*
X127151365Y-123262000D01*
X127144147Y-123279426D01*
X127089000Y-123556665D01*
X127089000Y-123839335D01*
X127144147Y-124116574D01*
X127252320Y-124377727D01*
X127409363Y-124612759D01*
X127609241Y-124812637D01*
X127635000Y-124829849D01*
X127635001Y-126122151D01*
X127609241Y-126139363D01*
X127409363Y-126339241D01*
X127252320Y-126574273D01*
X127144147Y-126835426D01*
X127089000Y-127112665D01*
X127089000Y-127395335D01*
X127144147Y-127672574D01*
X127252320Y-127933727D01*
X127409363Y-128168759D01*
X127609241Y-128368637D01*
X127635001Y-128385849D01*
X127635000Y-129678151D01*
X127609241Y-129695363D01*
X127409363Y-129895241D01*
X127252320Y-130130273D01*
X127144147Y-130391426D01*
X127089000Y-130668665D01*
X127089000Y-130951335D01*
X127095044Y-130981721D01*
X126846214Y-131230551D01*
X126867904Y-131159039D01*
X126745915Y-130937000D01*
X125603000Y-130937000D01*
X125603000Y-130957000D01*
X125349000Y-130957000D01*
X125349000Y-130937000D01*
X124206085Y-130937000D01*
X124084096Y-131159039D01*
X124124754Y-131293087D01*
X124244963Y-131547420D01*
X124412481Y-131773414D01*
X124547553Y-131895900D01*
X119464259Y-131895900D01*
X119420599Y-131891600D01*
X119376939Y-131895900D01*
X119376933Y-131895900D01*
X119264673Y-131906957D01*
X119246325Y-131908764D01*
X119219834Y-131916800D01*
X119205659Y-131921100D01*
X116934660Y-131921100D01*
X116891000Y-131916800D01*
X116847340Y-131921100D01*
X116847333Y-131921100D01*
X116733325Y-131932329D01*
X116716725Y-131933964D01*
X116665892Y-131949384D01*
X116549149Y-131984797D01*
X116394709Y-132067347D01*
X116259341Y-132178441D01*
X116231506Y-132212359D01*
X115531929Y-132911936D01*
X115486807Y-132887818D01*
X115216308Y-132805764D01*
X114935000Y-132778057D01*
X114653691Y-132805764D01*
X114383192Y-132887818D01*
X114133899Y-133021068D01*
X113915392Y-133200393D01*
X113736068Y-133418900D01*
X113665000Y-133551858D01*
X113593932Y-133418899D01*
X113414607Y-133200392D01*
X113196100Y-133021068D01*
X112946807Y-132887818D01*
X112676308Y-132805764D01*
X112395000Y-132778057D01*
X112113691Y-132805764D01*
X111843192Y-132887818D01*
X111593899Y-133021068D01*
X111375392Y-133200393D01*
X111196068Y-133418900D01*
X111125000Y-133551858D01*
X111053932Y-133418899D01*
X110874607Y-133200392D01*
X110656100Y-133021068D01*
X110406807Y-132887818D01*
X110236000Y-132836005D01*
X110236000Y-132077396D01*
X110256694Y-132056702D01*
X110906903Y-132056702D01*
X110978486Y-132300671D01*
X111233996Y-132421571D01*
X111508184Y-132490300D01*
X111790512Y-132504217D01*
X112070130Y-132462787D01*
X112336292Y-132367603D01*
X112461514Y-132300671D01*
X112533097Y-132056702D01*
X111720000Y-131243605D01*
X110906903Y-132056702D01*
X110256694Y-132056702D01*
X110334637Y-131978759D01*
X110468692Y-131778131D01*
X110483329Y-131805514D01*
X110727298Y-131877097D01*
X111540395Y-131064000D01*
X111899605Y-131064000D01*
X112712702Y-131877097D01*
X112956671Y-131805514D01*
X113077571Y-131550004D01*
X113146300Y-131275816D01*
X113160217Y-130993488D01*
X113118787Y-130713870D01*
X113023603Y-130447708D01*
X112956671Y-130322486D01*
X112712702Y-130250903D01*
X111899605Y-131064000D01*
X111540395Y-131064000D01*
X110727298Y-130250903D01*
X110483329Y-130322486D01*
X110469676Y-130351341D01*
X110334637Y-130149241D01*
X110256694Y-130071298D01*
X110906903Y-130071298D01*
X111720000Y-130884395D01*
X112533097Y-130071298D01*
X112461514Y-129827329D01*
X112206004Y-129706429D01*
X111931816Y-129637700D01*
X111649488Y-129623783D01*
X111369870Y-129665213D01*
X111103708Y-129760397D01*
X110978486Y-129827329D01*
X110906903Y-130071298D01*
X110256694Y-130071298D01*
X110134759Y-129949363D01*
X109899727Y-129792320D01*
X109817227Y-129758148D01*
X112462710Y-127112665D01*
X113881000Y-127112665D01*
X113881000Y-127395335D01*
X113936147Y-127672574D01*
X114044320Y-127933727D01*
X114201363Y-128168759D01*
X114401241Y-128368637D01*
X114427000Y-128385849D01*
X114427001Y-129678151D01*
X114401241Y-129695363D01*
X114201363Y-129895241D01*
X114044320Y-130130273D01*
X113936147Y-130391426D01*
X113881000Y-130668665D01*
X113881000Y-130951335D01*
X113936147Y-131228574D01*
X114044320Y-131489727D01*
X114201363Y-131724759D01*
X114401241Y-131924637D01*
X114636273Y-132081680D01*
X114897426Y-132189853D01*
X115174665Y-132245000D01*
X115457335Y-132245000D01*
X115734574Y-132189853D01*
X115995727Y-132081680D01*
X116230759Y-131924637D01*
X116430637Y-131724759D01*
X116587680Y-131489727D01*
X116695853Y-131228574D01*
X116751000Y-130951335D01*
X116751000Y-130668665D01*
X116709685Y-130460961D01*
X124084096Y-130460961D01*
X124206085Y-130683000D01*
X125349000Y-130683000D01*
X125349000Y-129539376D01*
X125603000Y-129539376D01*
X125603000Y-130683000D01*
X126745915Y-130683000D01*
X126867904Y-130460961D01*
X126827246Y-130326913D01*
X126707037Y-130072580D01*
X126539519Y-129846586D01*
X126331131Y-129657615D01*
X126089881Y-129512930D01*
X125825040Y-129418091D01*
X125603000Y-129539376D01*
X125349000Y-129539376D01*
X125126960Y-129418091D01*
X124862119Y-129512930D01*
X124620869Y-129657615D01*
X124412481Y-129846586D01*
X124244963Y-130072580D01*
X124124754Y-130326913D01*
X124084096Y-130460961D01*
X116709685Y-130460961D01*
X116695853Y-130391426D01*
X116587680Y-130130273D01*
X116430637Y-129895241D01*
X116230759Y-129695363D01*
X116205000Y-129678151D01*
X116205000Y-128385849D01*
X116230759Y-128368637D01*
X116430637Y-128168759D01*
X116587680Y-127933727D01*
X116695853Y-127672574D01*
X116751000Y-127395335D01*
X116751000Y-127112665D01*
X124041000Y-127112665D01*
X124041000Y-127395335D01*
X124096147Y-127672574D01*
X124204320Y-127933727D01*
X124361363Y-128168759D01*
X124561241Y-128368637D01*
X124796273Y-128525680D01*
X125057426Y-128633853D01*
X125334665Y-128689000D01*
X125617335Y-128689000D01*
X125894574Y-128633853D01*
X126155727Y-128525680D01*
X126390759Y-128368637D01*
X126590637Y-128168759D01*
X126747680Y-127933727D01*
X126855853Y-127672574D01*
X126911000Y-127395335D01*
X126911000Y-127112665D01*
X126855853Y-126835426D01*
X126747680Y-126574273D01*
X126590637Y-126339241D01*
X126390759Y-126139363D01*
X126155727Y-125982320D01*
X125894574Y-125874147D01*
X125617335Y-125819000D01*
X125334665Y-125819000D01*
X125057426Y-125874147D01*
X124796273Y-125982320D01*
X124561241Y-126139363D01*
X124361363Y-126339241D01*
X124204320Y-126574273D01*
X124096147Y-126835426D01*
X124041000Y-127112665D01*
X116751000Y-127112665D01*
X116695853Y-126835426D01*
X116587680Y-126574273D01*
X116430637Y-126339241D01*
X116230759Y-126139363D01*
X115995727Y-125982320D01*
X115734574Y-125874147D01*
X115457335Y-125819000D01*
X115174665Y-125819000D01*
X114897426Y-125874147D01*
X114636273Y-125982320D01*
X114401241Y-126139363D01*
X114201363Y-126339241D01*
X114044320Y-126574273D01*
X113936147Y-126835426D01*
X113881000Y-127112665D01*
X112462710Y-127112665D01*
X117059375Y-122516000D01*
X118145928Y-122516000D01*
X118158188Y-122640482D01*
X118194498Y-122760180D01*
X118253463Y-122870494D01*
X118332815Y-122967185D01*
X118429506Y-123046537D01*
X118539820Y-123105502D01*
X118659518Y-123141812D01*
X118784000Y-123154072D01*
X119348250Y-123151000D01*
X119507000Y-122992250D01*
X119507000Y-121793000D01*
X118307750Y-121793000D01*
X118149000Y-121951750D01*
X118145928Y-122516000D01*
X117059375Y-122516000D01*
X118172063Y-121403313D01*
X118307750Y-121539000D01*
X119507000Y-121539000D01*
X119507000Y-120339750D01*
X119371313Y-120204063D01*
X120189046Y-119386330D01*
X120220541Y-119360483D01*
X120246389Y-119328987D01*
X120246392Y-119328984D01*
X120323699Y-119234785D01*
X120400353Y-119091376D01*
X120408094Y-119065857D01*
X120447556Y-118935768D01*
X120457375Y-118836072D01*
X120484000Y-118836072D01*
X120608482Y-118823812D01*
X120728180Y-118787502D01*
X120838494Y-118728537D01*
X120935185Y-118649185D01*
X121014537Y-118552494D01*
X121073502Y-118442180D01*
X121095513Y-118369620D01*
X121227368Y-118501475D01*
X121470589Y-118663990D01*
X121740842Y-118775932D01*
X122027740Y-118833000D01*
X122320260Y-118833000D01*
X122607158Y-118775932D01*
X122877411Y-118663990D01*
X123120632Y-118501475D01*
X123327475Y-118294632D01*
X123444000Y-118120240D01*
X123560525Y-118294632D01*
X123767368Y-118501475D01*
X124010589Y-118663990D01*
X124280842Y-118775932D01*
X124567740Y-118833000D01*
X124860260Y-118833000D01*
X125147158Y-118775932D01*
X125417411Y-118663990D01*
X125660632Y-118501475D01*
X125867475Y-118294632D01*
X126029990Y-118051411D01*
X126141932Y-117781158D01*
X126199000Y-117494260D01*
X126199000Y-117201740D01*
X126141932Y-116914842D01*
X126029990Y-116644589D01*
X125867475Y-116401368D01*
X125660632Y-116194525D01*
X125619436Y-116166999D01*
X127144324Y-116166999D01*
X127144147Y-116167426D01*
G37*
X127144147Y-116167426D02*
X127089000Y-116444665D01*
X127089000Y-116727335D01*
X127144147Y-117004574D01*
X127252320Y-117265727D01*
X127409363Y-117500759D01*
X127609241Y-117700637D01*
X127635001Y-117717849D01*
X127635000Y-119010151D01*
X127609241Y-119027363D01*
X127409363Y-119227241D01*
X127252320Y-119462273D01*
X127144147Y-119723426D01*
X127089000Y-120000665D01*
X127089000Y-120283335D01*
X127144147Y-120560574D01*
X127252320Y-120821727D01*
X127409363Y-121056759D01*
X127609241Y-121256637D01*
X127844273Y-121413680D01*
X128105426Y-121521853D01*
X128382665Y-121577000D01*
X128665335Y-121577000D01*
X128942574Y-121521853D01*
X129203727Y-121413680D01*
X129438759Y-121256637D01*
X129638637Y-121056759D01*
X129795680Y-120821727D01*
X129903853Y-120560574D01*
X129959000Y-120283335D01*
X129959000Y-120000665D01*
X129903853Y-119723426D01*
X129795680Y-119462273D01*
X129638637Y-119227241D01*
X129438759Y-119027363D01*
X129413000Y-119010151D01*
X129413000Y-117717849D01*
X129438759Y-117700637D01*
X129638637Y-117500759D01*
X129795680Y-117265727D01*
X129903853Y-117004574D01*
X129959000Y-116727335D01*
X129959000Y-116444665D01*
X129903853Y-116167426D01*
X129903676Y-116166999D01*
X137304324Y-116166999D01*
X137304147Y-116167426D01*
X137249000Y-116444665D01*
X137249000Y-116727335D01*
X137304147Y-117004574D01*
X137412320Y-117265727D01*
X137569363Y-117500759D01*
X137769241Y-117700637D01*
X137858501Y-117760278D01*
X137858501Y-118161740D01*
X137854506Y-118202300D01*
X137870445Y-118364126D01*
X137917647Y-118519733D01*
X137994301Y-118663142D01*
X138055863Y-118738154D01*
X138097460Y-118788841D01*
X138128961Y-118814693D01*
X138135710Y-118821442D01*
X138070119Y-118844930D01*
X137828869Y-118989615D01*
X137620481Y-119178586D01*
X137452963Y-119404580D01*
X137332754Y-119658913D01*
X137292096Y-119792961D01*
X137414085Y-120015000D01*
X138557000Y-120015000D01*
X138557000Y-119995000D01*
X138811000Y-119995000D01*
X138811000Y-120015000D01*
X138831000Y-120015000D01*
X138831000Y-120269000D01*
X138811000Y-120269000D01*
X138811000Y-120289000D01*
X138557000Y-120289000D01*
X138557000Y-120269000D01*
X137414085Y-120269000D01*
X137292096Y-120491039D01*
X137332754Y-120625087D01*
X137452963Y-120879420D01*
X137620481Y-121105414D01*
X137828869Y-121294385D01*
X138070119Y-121439070D01*
X138135710Y-121462558D01*
X138128966Y-121469302D01*
X138097459Y-121495159D01*
X138032858Y-121573877D01*
X137994301Y-121620858D01*
X137922119Y-121755900D01*
X137917647Y-121764267D01*
X137870444Y-121919875D01*
X137858505Y-122041099D01*
X137854506Y-122081700D01*
X137858500Y-122122251D01*
X137858500Y-122523722D01*
X137769241Y-122583363D01*
X137569363Y-122783241D01*
X137412320Y-123018273D01*
X137304147Y-123279426D01*
X137249000Y-123556665D01*
X137249000Y-123839335D01*
X137304147Y-124116574D01*
X137412320Y-124377727D01*
X137569363Y-124612759D01*
X137769241Y-124812637D01*
X138004273Y-124969680D01*
X138265426Y-125077853D01*
X138542665Y-125133000D01*
X138825335Y-125133000D01*
X138930624Y-125112056D01*
X140129106Y-126310539D01*
X140154959Y-126342041D01*
X140280658Y-126445199D01*
X140424066Y-126521853D01*
X140579674Y-126569056D01*
X140700947Y-126581000D01*
X140700956Y-126581000D01*
X140741499Y-126584993D01*
X140782042Y-126581000D01*
X142325928Y-126581000D01*
X142325928Y-127165000D01*
X142338188Y-127289482D01*
X142374498Y-127409180D01*
X142433463Y-127519494D01*
X142512815Y-127616185D01*
X142609506Y-127695537D01*
X142719820Y-127754502D01*
X142815943Y-127783661D01*
X142649363Y-127950241D01*
X142492320Y-128185273D01*
X142384147Y-128446426D01*
X142329000Y-128723665D01*
X142329000Y-129006335D01*
X142384147Y-129283574D01*
X142492320Y-129544727D01*
X142649363Y-129779759D01*
X142849241Y-129979637D01*
X143084273Y-130136680D01*
X143345426Y-130244853D01*
X143622665Y-130300000D01*
X143905335Y-130300000D01*
X144182574Y-130244853D01*
X144260392Y-130212620D01*
X144284499Y-130214994D01*
X144325050Y-130211000D01*
X149241928Y-130211000D01*
X149241928Y-130995000D01*
X149254188Y-131119482D01*
X149290498Y-131239180D01*
X149349463Y-131349494D01*
X149428815Y-131446185D01*
X149525506Y-131525537D01*
X149635820Y-131584502D01*
X149755518Y-131620812D01*
X149880000Y-131633072D01*
X152380000Y-131633072D01*
X152504482Y-131620812D01*
X152624180Y-131584502D01*
X152734494Y-131525537D01*
X152831185Y-131446185D01*
X152910537Y-131349494D01*
X152969502Y-131239180D01*
X153005812Y-131119482D01*
X153018072Y-130995000D01*
X153018072Y-129195000D01*
X153005812Y-129070518D01*
X152969502Y-128950820D01*
X152912939Y-128845000D01*
X152969502Y-128739180D01*
X153005812Y-128619482D01*
X153018072Y-128495000D01*
X153018072Y-126695000D01*
X153005812Y-126570518D01*
X152969502Y-126450820D01*
X152910537Y-126340506D01*
X152831185Y-126243815D01*
X152734494Y-126164463D01*
X152624180Y-126105498D01*
X152504482Y-126069188D01*
X152380000Y-126056928D01*
X151913314Y-126056928D01*
X151917267Y-126054287D01*
X152089287Y-125882267D01*
X152224443Y-125679992D01*
X152317540Y-125455236D01*
X152365000Y-125216637D01*
X152365000Y-124973363D01*
X152317540Y-124734764D01*
X152224443Y-124510008D01*
X152089287Y-124307733D01*
X151917267Y-124135713D01*
X151913314Y-124133072D01*
X152380000Y-124133072D01*
X152504482Y-124120812D01*
X152624180Y-124084502D01*
X152734494Y-124025537D01*
X152831185Y-123946185D01*
X152910537Y-123849494D01*
X152969502Y-123739180D01*
X153005812Y-123619482D01*
X153018072Y-123495000D01*
X153018072Y-121695000D01*
X153005812Y-121570518D01*
X152969502Y-121450820D01*
X152912939Y-121345000D01*
X152969502Y-121239180D01*
X153005812Y-121119482D01*
X153018072Y-120995000D01*
X153018072Y-120200403D01*
X153606500Y-120788831D01*
X153606501Y-132898345D01*
X153586807Y-132887818D01*
X153316308Y-132805764D01*
X153035000Y-132778057D01*
X152753691Y-132805764D01*
X152483192Y-132887818D01*
X152233899Y-133021068D01*
X152015392Y-133200393D01*
X151836068Y-133418900D01*
X151767735Y-133546742D01*
X151617601Y-133317161D01*
X151419895Y-133115500D01*
X151186646Y-132956285D01*
X150926818Y-132845633D01*
X150844039Y-132828096D01*
X150622000Y-132950085D01*
X150622000Y-134493000D01*
X150642000Y-134493000D01*
X150642000Y-134747000D01*
X150622000Y-134747000D01*
X150622000Y-134767000D01*
X150368000Y-134767000D01*
X150368000Y-134747000D01*
X150348000Y-134747000D01*
X150348000Y-134493000D01*
X150368000Y-134493000D01*
X150368000Y-132950085D01*
X150145961Y-132828096D01*
X150063182Y-132845633D01*
X149803354Y-132956285D01*
X149570105Y-133115500D01*
X149372399Y-133317161D01*
X149222265Y-133546741D01*
X149153932Y-133418899D01*
X148974607Y-133200392D01*
X148756100Y-133021068D01*
X148506807Y-132887818D01*
X148236308Y-132805764D01*
X147955000Y-132778057D01*
X147673691Y-132805764D01*
X147403192Y-132887818D01*
X147153899Y-133021068D01*
X146935392Y-133200393D01*
X146756068Y-133418900D01*
X146685000Y-133551858D01*
X146613932Y-133418899D01*
X146434607Y-133200392D01*
X146216100Y-133021068D01*
X145966807Y-132887818D01*
X145696308Y-132805764D01*
X145415000Y-132778057D01*
X145133691Y-132805764D01*
X144863192Y-132887818D01*
X144724228Y-132962096D01*
X144055498Y-132293366D01*
X144029641Y-132261859D01*
X143903942Y-132158701D01*
X143760534Y-132082047D01*
X143604926Y-132034844D01*
X143483653Y-132022900D01*
X143483650Y-132022900D01*
X143443100Y-132018906D01*
X143402550Y-132022900D01*
X143004033Y-132022900D01*
X139864498Y-128883366D01*
X139838641Y-128851859D01*
X139712942Y-128748701D01*
X139569534Y-128672047D01*
X139413926Y-128624844D01*
X139292653Y-128612900D01*
X139292650Y-128612900D01*
X139252100Y-128608906D01*
X139211550Y-128612900D01*
X139153159Y-128612900D01*
X139363727Y-128525680D01*
X139598759Y-128368637D01*
X139798637Y-128168759D01*
X139955680Y-127933727D01*
X140063853Y-127672574D01*
X140119000Y-127395335D01*
X140119000Y-127112665D01*
X140063853Y-126835426D01*
X139955680Y-126574273D01*
X139798637Y-126339241D01*
X139598759Y-126139363D01*
X139363727Y-125982320D01*
X139102574Y-125874147D01*
X138825335Y-125819000D01*
X138542665Y-125819000D01*
X138265426Y-125874147D01*
X138004273Y-125982320D01*
X137769241Y-126139363D01*
X137569363Y-126339241D01*
X137412320Y-126574273D01*
X137304147Y-126835426D01*
X137249000Y-127112665D01*
X137249000Y-127395335D01*
X137304147Y-127672574D01*
X137412320Y-127933727D01*
X137569363Y-128168759D01*
X137769241Y-128368637D01*
X138004273Y-128525680D01*
X138214841Y-128612900D01*
X136390333Y-128612900D01*
X129658898Y-121881466D01*
X129633041Y-121849959D01*
X129507342Y-121746801D01*
X129363934Y-121670147D01*
X129208326Y-121622944D01*
X129087053Y-121611000D01*
X129087050Y-121611000D01*
X129046500Y-121607006D01*
X129005950Y-121611000D01*
X123659000Y-121611000D01*
X123659000Y-121519740D01*
X123601932Y-121232842D01*
X123489990Y-120962589D01*
X123327475Y-120719368D01*
X123120632Y-120512525D01*
X122877411Y-120350010D01*
X122607158Y-120238068D01*
X122320260Y-120181000D01*
X122027740Y-120181000D01*
X121740842Y-120238068D01*
X121470589Y-120350010D01*
X121227368Y-120512525D01*
X121095513Y-120644380D01*
X121073502Y-120571820D01*
X121014537Y-120461506D01*
X120935185Y-120364815D01*
X120838494Y-120285463D01*
X120728180Y-120226498D01*
X120608482Y-120190188D01*
X120484000Y-120177928D01*
X119919750Y-120181000D01*
X119761000Y-120339750D01*
X119761000Y-121539000D01*
X119781000Y-121539000D01*
X119781000Y-121793000D01*
X119761000Y-121793000D01*
X119761000Y-122992250D01*
X119919750Y-123151000D01*
X120484000Y-123154072D01*
X120608482Y-123141812D01*
X120728180Y-123105502D01*
X120838494Y-123046537D01*
X120935185Y-122967185D01*
X121014537Y-122870494D01*
X121073502Y-122760180D01*
X121095513Y-122687620D01*
X121227368Y-122819475D01*
X121470589Y-122981990D01*
X121740842Y-123093932D01*
X122027740Y-123151000D01*
X122320260Y-123151000D01*
X122476104Y-123120000D01*
X122483657Y-123126199D01*
X122547278Y-123160205D01*
X122627066Y-123202853D01*
X122782674Y-123250056D01*
X122903947Y-123262000D01*
X122903949Y-123262000D01*
X122944500Y-123265994D01*
X122985050Y-123262000D01*
X127151365Y-123262000D01*
X127144147Y-123279426D01*
X127089000Y-123556665D01*
X127089000Y-123839335D01*
X127144147Y-124116574D01*
X127252320Y-124377727D01*
X127409363Y-124612759D01*
X127609241Y-124812637D01*
X127635000Y-124829849D01*
X127635001Y-126122151D01*
X127609241Y-126139363D01*
X127409363Y-126339241D01*
X127252320Y-126574273D01*
X127144147Y-126835426D01*
X127089000Y-127112665D01*
X127089000Y-127395335D01*
X127144147Y-127672574D01*
X127252320Y-127933727D01*
X127409363Y-128168759D01*
X127609241Y-128368637D01*
X127635001Y-128385849D01*
X127635000Y-129678151D01*
X127609241Y-129695363D01*
X127409363Y-129895241D01*
X127252320Y-130130273D01*
X127144147Y-130391426D01*
X127089000Y-130668665D01*
X127089000Y-130951335D01*
X127095044Y-130981721D01*
X126846214Y-131230551D01*
X126867904Y-131159039D01*
X126745915Y-130937000D01*
X125603000Y-130937000D01*
X125603000Y-130957000D01*
X125349000Y-130957000D01*
X125349000Y-130937000D01*
X124206085Y-130937000D01*
X124084096Y-131159039D01*
X124124754Y-131293087D01*
X124244963Y-131547420D01*
X124412481Y-131773414D01*
X124547553Y-131895900D01*
X119464259Y-131895900D01*
X119420599Y-131891600D01*
X119376939Y-131895900D01*
X119376933Y-131895900D01*
X119264673Y-131906957D01*
X119246325Y-131908764D01*
X119219834Y-131916800D01*
X119205659Y-131921100D01*
X116934660Y-131921100D01*
X116891000Y-131916800D01*
X116847340Y-131921100D01*
X116847333Y-131921100D01*
X116733325Y-131932329D01*
X116716725Y-131933964D01*
X116665892Y-131949384D01*
X116549149Y-131984797D01*
X116394709Y-132067347D01*
X116259341Y-132178441D01*
X116231506Y-132212359D01*
X115531929Y-132911936D01*
X115486807Y-132887818D01*
X115216308Y-132805764D01*
X114935000Y-132778057D01*
X114653691Y-132805764D01*
X114383192Y-132887818D01*
X114133899Y-133021068D01*
X113915392Y-133200393D01*
X113736068Y-133418900D01*
X113665000Y-133551858D01*
X113593932Y-133418899D01*
X113414607Y-133200392D01*
X113196100Y-133021068D01*
X112946807Y-132887818D01*
X112676308Y-132805764D01*
X112395000Y-132778057D01*
X112113691Y-132805764D01*
X111843192Y-132887818D01*
X111593899Y-133021068D01*
X111375392Y-133200393D01*
X111196068Y-133418900D01*
X111125000Y-133551858D01*
X111053932Y-133418899D01*
X110874607Y-133200392D01*
X110656100Y-133021068D01*
X110406807Y-132887818D01*
X110236000Y-132836005D01*
X110236000Y-132077396D01*
X110256694Y-132056702D01*
X110906903Y-132056702D01*
X110978486Y-132300671D01*
X111233996Y-132421571D01*
X111508184Y-132490300D01*
X111790512Y-132504217D01*
X112070130Y-132462787D01*
X112336292Y-132367603D01*
X112461514Y-132300671D01*
X112533097Y-132056702D01*
X111720000Y-131243605D01*
X110906903Y-132056702D01*
X110256694Y-132056702D01*
X110334637Y-131978759D01*
X110468692Y-131778131D01*
X110483329Y-131805514D01*
X110727298Y-131877097D01*
X111540395Y-131064000D01*
X111899605Y-131064000D01*
X112712702Y-131877097D01*
X112956671Y-131805514D01*
X113077571Y-131550004D01*
X113146300Y-131275816D01*
X113160217Y-130993488D01*
X113118787Y-130713870D01*
X113023603Y-130447708D01*
X112956671Y-130322486D01*
X112712702Y-130250903D01*
X111899605Y-131064000D01*
X111540395Y-131064000D01*
X110727298Y-130250903D01*
X110483329Y-130322486D01*
X110469676Y-130351341D01*
X110334637Y-130149241D01*
X110256694Y-130071298D01*
X110906903Y-130071298D01*
X111720000Y-130884395D01*
X112533097Y-130071298D01*
X112461514Y-129827329D01*
X112206004Y-129706429D01*
X111931816Y-129637700D01*
X111649488Y-129623783D01*
X111369870Y-129665213D01*
X111103708Y-129760397D01*
X110978486Y-129827329D01*
X110906903Y-130071298D01*
X110256694Y-130071298D01*
X110134759Y-129949363D01*
X109899727Y-129792320D01*
X109817227Y-129758148D01*
X112462710Y-127112665D01*
X113881000Y-127112665D01*
X113881000Y-127395335D01*
X113936147Y-127672574D01*
X114044320Y-127933727D01*
X114201363Y-128168759D01*
X114401241Y-128368637D01*
X114427000Y-128385849D01*
X114427001Y-129678151D01*
X114401241Y-129695363D01*
X114201363Y-129895241D01*
X114044320Y-130130273D01*
X113936147Y-130391426D01*
X113881000Y-130668665D01*
X113881000Y-130951335D01*
X113936147Y-131228574D01*
X114044320Y-131489727D01*
X114201363Y-131724759D01*
X114401241Y-131924637D01*
X114636273Y-132081680D01*
X114897426Y-132189853D01*
X115174665Y-132245000D01*
X115457335Y-132245000D01*
X115734574Y-132189853D01*
X115995727Y-132081680D01*
X116230759Y-131924637D01*
X116430637Y-131724759D01*
X116587680Y-131489727D01*
X116695853Y-131228574D01*
X116751000Y-130951335D01*
X116751000Y-130668665D01*
X116709685Y-130460961D01*
X124084096Y-130460961D01*
X124206085Y-130683000D01*
X125349000Y-130683000D01*
X125349000Y-129539376D01*
X125603000Y-129539376D01*
X125603000Y-130683000D01*
X126745915Y-130683000D01*
X126867904Y-130460961D01*
X126827246Y-130326913D01*
X126707037Y-130072580D01*
X126539519Y-129846586D01*
X126331131Y-129657615D01*
X126089881Y-129512930D01*
X125825040Y-129418091D01*
X125603000Y-129539376D01*
X125349000Y-129539376D01*
X125126960Y-129418091D01*
X124862119Y-129512930D01*
X124620869Y-129657615D01*
X124412481Y-129846586D01*
X124244963Y-130072580D01*
X124124754Y-130326913D01*
X124084096Y-130460961D01*
X116709685Y-130460961D01*
X116695853Y-130391426D01*
X116587680Y-130130273D01*
X116430637Y-129895241D01*
X116230759Y-129695363D01*
X116205000Y-129678151D01*
X116205000Y-128385849D01*
X116230759Y-128368637D01*
X116430637Y-128168759D01*
X116587680Y-127933727D01*
X116695853Y-127672574D01*
X116751000Y-127395335D01*
X116751000Y-127112665D01*
X124041000Y-127112665D01*
X124041000Y-127395335D01*
X124096147Y-127672574D01*
X124204320Y-127933727D01*
X124361363Y-128168759D01*
X124561241Y-128368637D01*
X124796273Y-128525680D01*
X125057426Y-128633853D01*
X125334665Y-128689000D01*
X125617335Y-128689000D01*
X125894574Y-128633853D01*
X126155727Y-128525680D01*
X126390759Y-128368637D01*
X126590637Y-128168759D01*
X126747680Y-127933727D01*
X126855853Y-127672574D01*
X126911000Y-127395335D01*
X126911000Y-127112665D01*
X126855853Y-126835426D01*
X126747680Y-126574273D01*
X126590637Y-126339241D01*
X126390759Y-126139363D01*
X126155727Y-125982320D01*
X125894574Y-125874147D01*
X125617335Y-125819000D01*
X125334665Y-125819000D01*
X125057426Y-125874147D01*
X124796273Y-125982320D01*
X124561241Y-126139363D01*
X124361363Y-126339241D01*
X124204320Y-126574273D01*
X124096147Y-126835426D01*
X124041000Y-127112665D01*
X116751000Y-127112665D01*
X116695853Y-126835426D01*
X116587680Y-126574273D01*
X116430637Y-126339241D01*
X116230759Y-126139363D01*
X115995727Y-125982320D01*
X115734574Y-125874147D01*
X115457335Y-125819000D01*
X115174665Y-125819000D01*
X114897426Y-125874147D01*
X114636273Y-125982320D01*
X114401241Y-126139363D01*
X114201363Y-126339241D01*
X114044320Y-126574273D01*
X113936147Y-126835426D01*
X113881000Y-127112665D01*
X112462710Y-127112665D01*
X117059375Y-122516000D01*
X118145928Y-122516000D01*
X118158188Y-122640482D01*
X118194498Y-122760180D01*
X118253463Y-122870494D01*
X118332815Y-122967185D01*
X118429506Y-123046537D01*
X118539820Y-123105502D01*
X118659518Y-123141812D01*
X118784000Y-123154072D01*
X119348250Y-123151000D01*
X119507000Y-122992250D01*
X119507000Y-121793000D01*
X118307750Y-121793000D01*
X118149000Y-121951750D01*
X118145928Y-122516000D01*
X117059375Y-122516000D01*
X118172063Y-121403313D01*
X118307750Y-121539000D01*
X119507000Y-121539000D01*
X119507000Y-120339750D01*
X119371313Y-120204063D01*
X120189046Y-119386330D01*
X120220541Y-119360483D01*
X120246389Y-119328987D01*
X120246392Y-119328984D01*
X120323699Y-119234785D01*
X120400353Y-119091376D01*
X120408094Y-119065857D01*
X120447556Y-118935768D01*
X120457375Y-118836072D01*
X120484000Y-118836072D01*
X120608482Y-118823812D01*
X120728180Y-118787502D01*
X120838494Y-118728537D01*
X120935185Y-118649185D01*
X121014537Y-118552494D01*
X121073502Y-118442180D01*
X121095513Y-118369620D01*
X121227368Y-118501475D01*
X121470589Y-118663990D01*
X121740842Y-118775932D01*
X122027740Y-118833000D01*
X122320260Y-118833000D01*
X122607158Y-118775932D01*
X122877411Y-118663990D01*
X123120632Y-118501475D01*
X123327475Y-118294632D01*
X123444000Y-118120240D01*
X123560525Y-118294632D01*
X123767368Y-118501475D01*
X124010589Y-118663990D01*
X124280842Y-118775932D01*
X124567740Y-118833000D01*
X124860260Y-118833000D01*
X125147158Y-118775932D01*
X125417411Y-118663990D01*
X125660632Y-118501475D01*
X125867475Y-118294632D01*
X126029990Y-118051411D01*
X126141932Y-117781158D01*
X126199000Y-117494260D01*
X126199000Y-117201740D01*
X126141932Y-116914842D01*
X126029990Y-116644589D01*
X125867475Y-116401368D01*
X125660632Y-116194525D01*
X125619436Y-116166999D01*
X127144324Y-116166999D01*
X127144147Y-116167426D01*
G36*
X100909068Y-127439101D02*
G01*
X101088393Y-127657608D01*
X101306900Y-127836932D01*
X101556193Y-127970182D01*
X101826692Y-128052236D01*
X102108000Y-128079943D01*
X102389309Y-128052236D01*
X102654101Y-127971913D01*
X102654100Y-132132302D01*
X102539818Y-132083633D01*
X102457039Y-132066096D01*
X102235000Y-132188085D01*
X102235000Y-133731000D01*
X102255000Y-133731000D01*
X102255000Y-133985000D01*
X102235000Y-133985000D01*
X102235000Y-134005000D01*
X101981000Y-134005000D01*
X101981000Y-133985000D01*
X101961000Y-133985000D01*
X101961000Y-133731000D01*
X101981000Y-133731000D01*
X101981000Y-132188085D01*
X101758961Y-132066096D01*
X101676182Y-132083633D01*
X101416354Y-132194285D01*
X101328076Y-132254543D01*
X99123500Y-130049968D01*
X99123500Y-128002733D01*
X99286692Y-128052236D01*
X99568000Y-128079943D01*
X99849309Y-128052236D01*
X100119808Y-127970182D01*
X100369101Y-127836932D01*
X100587608Y-127657608D01*
X100766932Y-127439101D01*
X100838000Y-127306142D01*
X100909068Y-127439101D01*
G37*
X100909068Y-127439101D02*
X101088393Y-127657608D01*
X101306900Y-127836932D01*
X101556193Y-127970182D01*
X101826692Y-128052236D01*
X102108000Y-128079943D01*
X102389309Y-128052236D01*
X102654101Y-127971913D01*
X102654100Y-132132302D01*
X102539818Y-132083633D01*
X102457039Y-132066096D01*
X102235000Y-132188085D01*
X102235000Y-133731000D01*
X102255000Y-133731000D01*
X102255000Y-133985000D01*
X102235000Y-133985000D01*
X102235000Y-134005000D01*
X101981000Y-134005000D01*
X101981000Y-133985000D01*
X101961000Y-133985000D01*
X101961000Y-133731000D01*
X101981000Y-133731000D01*
X101981000Y-132188085D01*
X101758961Y-132066096D01*
X101676182Y-132083633D01*
X101416354Y-132194285D01*
X101328076Y-132254543D01*
X99123500Y-130049968D01*
X99123500Y-128002733D01*
X99286692Y-128052236D01*
X99568000Y-128079943D01*
X99849309Y-128052236D01*
X100119808Y-127970182D01*
X100369101Y-127836932D01*
X100587608Y-127657608D01*
X100766932Y-127439101D01*
X100838000Y-127306142D01*
X100909068Y-127439101D01*
G36*
X135436007Y-129993440D02*
G01*
X135461859Y-130024941D01*
X135519908Y-130072580D01*
X135587557Y-130128099D01*
X135677796Y-130176333D01*
X135730966Y-130204753D01*
X135886574Y-130251956D01*
X136007847Y-130263900D01*
X136007849Y-130263900D01*
X136048400Y-130267894D01*
X136088950Y-130263900D01*
X137362537Y-130263900D01*
X137332754Y-130326913D01*
X137292096Y-130460961D01*
X137414085Y-130683000D01*
X138557000Y-130683000D01*
X138557000Y-130663000D01*
X138811000Y-130663000D01*
X138811000Y-130683000D01*
X138831000Y-130683000D01*
X138831000Y-130937000D01*
X138811000Y-130937000D01*
X138811000Y-132080624D01*
X139033040Y-132201909D01*
X139297881Y-132107070D01*
X139539131Y-131962385D01*
X139747519Y-131773414D01*
X139915037Y-131547420D01*
X140004470Y-131358202D01*
X141851456Y-133205189D01*
X141676068Y-133418900D01*
X141605000Y-133551858D01*
X141533932Y-133418899D01*
X141354607Y-133200392D01*
X141136100Y-133021068D01*
X140886807Y-132887818D01*
X140616308Y-132805764D01*
X140335000Y-132778057D01*
X140053691Y-132805764D01*
X139783192Y-132887818D01*
X139533899Y-133021068D01*
X139315392Y-133200393D01*
X139136068Y-133418900D01*
X139065000Y-133551858D01*
X138993932Y-133418899D01*
X138814607Y-133200392D01*
X138596100Y-133021068D01*
X138346807Y-132887818D01*
X138076308Y-132805764D01*
X137795000Y-132778057D01*
X137513691Y-132805764D01*
X137243192Y-132887818D01*
X136993899Y-133021068D01*
X136775392Y-133200393D01*
X136596068Y-133418900D01*
X136525000Y-133551858D01*
X136453932Y-133418899D01*
X136274607Y-133200392D01*
X136056100Y-133021068D01*
X135806807Y-132887818D01*
X135536308Y-132805764D01*
X135255000Y-132778057D01*
X134973691Y-132805764D01*
X134703192Y-132887818D01*
X134453899Y-133021068D01*
X134235392Y-133200393D01*
X134056068Y-133418900D01*
X133985000Y-133551858D01*
X133913932Y-133418899D01*
X133734607Y-133200392D01*
X133516100Y-133021068D01*
X133266807Y-132887818D01*
X132996308Y-132805764D01*
X132715000Y-132778057D01*
X132433691Y-132805764D01*
X132163192Y-132887818D01*
X131913899Y-133021068D01*
X131695392Y-133200393D01*
X131516068Y-133418900D01*
X131445000Y-133551858D01*
X131373932Y-133418899D01*
X131194607Y-133200392D01*
X130976100Y-133021068D01*
X130726807Y-132887818D01*
X130456308Y-132805764D01*
X130175000Y-132778057D01*
X129893691Y-132805764D01*
X129623192Y-132887818D01*
X129373899Y-133021068D01*
X129155392Y-133200393D01*
X128976068Y-133418900D01*
X128905000Y-133551858D01*
X128833932Y-133418899D01*
X128654607Y-133200392D01*
X128436100Y-133021068D01*
X128186807Y-132887818D01*
X127916308Y-132805764D01*
X127797202Y-132794033D01*
X128352279Y-132238956D01*
X128382665Y-132245000D01*
X128665335Y-132245000D01*
X128942574Y-132189853D01*
X129203727Y-132081680D01*
X129438759Y-131924637D01*
X129638637Y-131724759D01*
X129795680Y-131489727D01*
X129903853Y-131228574D01*
X129917684Y-131159039D01*
X137292096Y-131159039D01*
X137332754Y-131293087D01*
X137452963Y-131547420D01*
X137620481Y-131773414D01*
X137828869Y-131962385D01*
X138070119Y-132107070D01*
X138334960Y-132201909D01*
X138557000Y-132080624D01*
X138557000Y-130937000D01*
X137414085Y-130937000D01*
X137292096Y-131159039D01*
X129917684Y-131159039D01*
X129959000Y-130951335D01*
X129959000Y-130668665D01*
X129903853Y-130391426D01*
X129795680Y-130130273D01*
X129638637Y-129895241D01*
X129438759Y-129695363D01*
X129413000Y-129678151D01*
X129413000Y-128385849D01*
X129438759Y-128368637D01*
X129638637Y-128168759D01*
X129795680Y-127933727D01*
X129903853Y-127672574D01*
X129959000Y-127395335D01*
X129959000Y-127112665D01*
X129903853Y-126835426D01*
X129795680Y-126574273D01*
X129638637Y-126339241D01*
X129438759Y-126139363D01*
X129413000Y-126122151D01*
X129413000Y-124829849D01*
X129438759Y-124812637D01*
X129638637Y-124612759D01*
X129795680Y-124377727D01*
X129802890Y-124360322D01*
X135436007Y-129993440D01*
G37*
X135436007Y-129993440D02*
X135461859Y-130024941D01*
X135519908Y-130072580D01*
X135587557Y-130128099D01*
X135677796Y-130176333D01*
X135730966Y-130204753D01*
X135886574Y-130251956D01*
X136007847Y-130263900D01*
X136007849Y-130263900D01*
X136048400Y-130267894D01*
X136088950Y-130263900D01*
X137362537Y-130263900D01*
X137332754Y-130326913D01*
X137292096Y-130460961D01*
X137414085Y-130683000D01*
X138557000Y-130683000D01*
X138557000Y-130663000D01*
X138811000Y-130663000D01*
X138811000Y-130683000D01*
X138831000Y-130683000D01*
X138831000Y-130937000D01*
X138811000Y-130937000D01*
X138811000Y-132080624D01*
X139033040Y-132201909D01*
X139297881Y-132107070D01*
X139539131Y-131962385D01*
X139747519Y-131773414D01*
X139915037Y-131547420D01*
X140004470Y-131358202D01*
X141851456Y-133205189D01*
X141676068Y-133418900D01*
X141605000Y-133551858D01*
X141533932Y-133418899D01*
X141354607Y-133200392D01*
X141136100Y-133021068D01*
X140886807Y-132887818D01*
X140616308Y-132805764D01*
X140335000Y-132778057D01*
X140053691Y-132805764D01*
X139783192Y-132887818D01*
X139533899Y-133021068D01*
X139315392Y-133200393D01*
X139136068Y-133418900D01*
X139065000Y-133551858D01*
X138993932Y-133418899D01*
X138814607Y-133200392D01*
X138596100Y-133021068D01*
X138346807Y-132887818D01*
X138076308Y-132805764D01*
X137795000Y-132778057D01*
X137513691Y-132805764D01*
X137243192Y-132887818D01*
X136993899Y-133021068D01*
X136775392Y-133200393D01*
X136596068Y-133418900D01*
X136525000Y-133551858D01*
X136453932Y-133418899D01*
X136274607Y-133200392D01*
X136056100Y-133021068D01*
X135806807Y-132887818D01*
X135536308Y-132805764D01*
X135255000Y-132778057D01*
X134973691Y-132805764D01*
X134703192Y-132887818D01*
X134453899Y-133021068D01*
X134235392Y-133200393D01*
X134056068Y-133418900D01*
X133985000Y-133551858D01*
X133913932Y-133418899D01*
X133734607Y-133200392D01*
X133516100Y-133021068D01*
X133266807Y-132887818D01*
X132996308Y-132805764D01*
X132715000Y-132778057D01*
X132433691Y-132805764D01*
X132163192Y-132887818D01*
X131913899Y-133021068D01*
X131695392Y-133200393D01*
X131516068Y-133418900D01*
X131445000Y-133551858D01*
X131373932Y-133418899D01*
X131194607Y-133200392D01*
X130976100Y-133021068D01*
X130726807Y-132887818D01*
X130456308Y-132805764D01*
X130175000Y-132778057D01*
X129893691Y-132805764D01*
X129623192Y-132887818D01*
X129373899Y-133021068D01*
X129155392Y-133200393D01*
X128976068Y-133418900D01*
X128905000Y-133551858D01*
X128833932Y-133418899D01*
X128654607Y-133200392D01*
X128436100Y-133021068D01*
X128186807Y-132887818D01*
X127916308Y-132805764D01*
X127797202Y-132794033D01*
X128352279Y-132238956D01*
X128382665Y-132245000D01*
X128665335Y-132245000D01*
X128942574Y-132189853D01*
X129203727Y-132081680D01*
X129438759Y-131924637D01*
X129638637Y-131724759D01*
X129795680Y-131489727D01*
X129903853Y-131228574D01*
X129917684Y-131159039D01*
X137292096Y-131159039D01*
X137332754Y-131293087D01*
X137452963Y-131547420D01*
X137620481Y-131773414D01*
X137828869Y-131962385D01*
X138070119Y-132107070D01*
X138334960Y-132201909D01*
X138557000Y-132080624D01*
X138557000Y-130937000D01*
X137414085Y-130937000D01*
X137292096Y-131159039D01*
X129917684Y-131159039D01*
X129959000Y-130951335D01*
X129959000Y-130668665D01*
X129903853Y-130391426D01*
X129795680Y-130130273D01*
X129638637Y-129895241D01*
X129438759Y-129695363D01*
X129413000Y-129678151D01*
X129413000Y-128385849D01*
X129438759Y-128368637D01*
X129638637Y-128168759D01*
X129795680Y-127933727D01*
X129903853Y-127672574D01*
X129959000Y-127395335D01*
X129959000Y-127112665D01*
X129903853Y-126835426D01*
X129795680Y-126574273D01*
X129638637Y-126339241D01*
X129438759Y-126139363D01*
X129413000Y-126122151D01*
X129413000Y-124829849D01*
X129438759Y-124812637D01*
X129638637Y-124612759D01*
X129795680Y-124377727D01*
X129802890Y-124360322D01*
X135436007Y-129993440D01*
G36*
X100192525Y-118294632D02*
G01*
X100399368Y-118501475D01*
X100642589Y-118663990D01*
X100912842Y-118775932D01*
X101199740Y-118833000D01*
X101492260Y-118833000D01*
X101635145Y-118804578D01*
X101640957Y-118810390D01*
X101640962Y-118810394D01*
X102704201Y-119873634D01*
X102704200Y-121074337D01*
X102690157Y-121034748D01*
X102541178Y-120784645D01*
X102346269Y-120568412D01*
X102112920Y-120394359D01*
X101850099Y-120269175D01*
X101702890Y-120224524D01*
X101473000Y-120345845D01*
X101473000Y-121539000D01*
X101493000Y-121539000D01*
X101493000Y-121793000D01*
X101473000Y-121793000D01*
X101473000Y-122986155D01*
X101702890Y-123107476D01*
X101850099Y-123062825D01*
X102112920Y-122937641D01*
X102346269Y-122763588D01*
X102541178Y-122547355D01*
X102690157Y-122297252D01*
X102704200Y-122257664D01*
X102704200Y-122332991D01*
X102666045Y-122458774D01*
X102650106Y-122620600D01*
X102654101Y-122661160D01*
X102654101Y-124504087D01*
X102389308Y-124423764D01*
X102108000Y-124396057D01*
X101826691Y-124423764D01*
X101556192Y-124505818D01*
X101306899Y-124639068D01*
X101088392Y-124818393D01*
X100909068Y-125036900D01*
X100838000Y-125169858D01*
X100766932Y-125036899D01*
X100587607Y-124818392D01*
X100369100Y-124639068D01*
X100119807Y-124505818D01*
X99849308Y-124423764D01*
X99568000Y-124396057D01*
X99286691Y-124423764D01*
X99016192Y-124505818D01*
X98783648Y-124630115D01*
X97751000Y-123597468D01*
X97751000Y-122711107D01*
X97859368Y-122819475D01*
X98102589Y-122981990D01*
X98372842Y-123093932D01*
X98659740Y-123151000D01*
X98952260Y-123151000D01*
X99239158Y-123093932D01*
X99509411Y-122981990D01*
X99752632Y-122819475D01*
X99959475Y-122612632D01*
X100081195Y-122430466D01*
X100150822Y-122547355D01*
X100345731Y-122763588D01*
X100579080Y-122937641D01*
X100841901Y-123062825D01*
X100989110Y-123107476D01*
X101219000Y-122986155D01*
X101219000Y-121793000D01*
X101199000Y-121793000D01*
X101199000Y-121539000D01*
X101219000Y-121539000D01*
X101219000Y-120345845D01*
X100989110Y-120224524D01*
X100841901Y-120269175D01*
X100579080Y-120394359D01*
X100345731Y-120568412D01*
X100150822Y-120784645D01*
X100081195Y-120901534D01*
X99959475Y-120719368D01*
X99752632Y-120512525D01*
X99509411Y-120350010D01*
X99239158Y-120238068D01*
X98952260Y-120181000D01*
X98659740Y-120181000D01*
X98372842Y-120238068D01*
X98102589Y-120350010D01*
X97859368Y-120512525D01*
X97727513Y-120644380D01*
X97705502Y-120571820D01*
X97646537Y-120461506D01*
X97567185Y-120364815D01*
X97470494Y-120285463D01*
X97360180Y-120226498D01*
X97240482Y-120190188D01*
X97116000Y-120177928D01*
X95669900Y-120177928D01*
X95669900Y-119111532D01*
X95945360Y-118836072D01*
X97116000Y-118836072D01*
X97240482Y-118823812D01*
X97360180Y-118787502D01*
X97470494Y-118728537D01*
X97567185Y-118649185D01*
X97646537Y-118552494D01*
X97705502Y-118442180D01*
X97727513Y-118369620D01*
X97859368Y-118501475D01*
X98102589Y-118663990D01*
X98372842Y-118775932D01*
X98659740Y-118833000D01*
X98952260Y-118833000D01*
X99239158Y-118775932D01*
X99509411Y-118663990D01*
X99752632Y-118501475D01*
X99959475Y-118294632D01*
X100076000Y-118120240D01*
X100192525Y-118294632D01*
G37*
X100192525Y-118294632D02*
X100399368Y-118501475D01*
X100642589Y-118663990D01*
X100912842Y-118775932D01*
X101199740Y-118833000D01*
X101492260Y-118833000D01*
X101635145Y-118804578D01*
X101640957Y-118810390D01*
X101640962Y-118810394D01*
X102704201Y-119873634D01*
X102704200Y-121074337D01*
X102690157Y-121034748D01*
X102541178Y-120784645D01*
X102346269Y-120568412D01*
X102112920Y-120394359D01*
X101850099Y-120269175D01*
X101702890Y-120224524D01*
X101473000Y-120345845D01*
X101473000Y-121539000D01*
X101493000Y-121539000D01*
X101493000Y-121793000D01*
X101473000Y-121793000D01*
X101473000Y-122986155D01*
X101702890Y-123107476D01*
X101850099Y-123062825D01*
X102112920Y-122937641D01*
X102346269Y-122763588D01*
X102541178Y-122547355D01*
X102690157Y-122297252D01*
X102704200Y-122257664D01*
X102704200Y-122332991D01*
X102666045Y-122458774D01*
X102650106Y-122620600D01*
X102654101Y-122661160D01*
X102654101Y-124504087D01*
X102389308Y-124423764D01*
X102108000Y-124396057D01*
X101826691Y-124423764D01*
X101556192Y-124505818D01*
X101306899Y-124639068D01*
X101088392Y-124818393D01*
X100909068Y-125036900D01*
X100838000Y-125169858D01*
X100766932Y-125036899D01*
X100587607Y-124818392D01*
X100369100Y-124639068D01*
X100119807Y-124505818D01*
X99849308Y-124423764D01*
X99568000Y-124396057D01*
X99286691Y-124423764D01*
X99016192Y-124505818D01*
X98783648Y-124630115D01*
X97751000Y-123597468D01*
X97751000Y-122711107D01*
X97859368Y-122819475D01*
X98102589Y-122981990D01*
X98372842Y-123093932D01*
X98659740Y-123151000D01*
X98952260Y-123151000D01*
X99239158Y-123093932D01*
X99509411Y-122981990D01*
X99752632Y-122819475D01*
X99959475Y-122612632D01*
X100081195Y-122430466D01*
X100150822Y-122547355D01*
X100345731Y-122763588D01*
X100579080Y-122937641D01*
X100841901Y-123062825D01*
X100989110Y-123107476D01*
X101219000Y-122986155D01*
X101219000Y-121793000D01*
X101199000Y-121793000D01*
X101199000Y-121539000D01*
X101219000Y-121539000D01*
X101219000Y-120345845D01*
X100989110Y-120224524D01*
X100841901Y-120269175D01*
X100579080Y-120394359D01*
X100345731Y-120568412D01*
X100150822Y-120784645D01*
X100081195Y-120901534D01*
X99959475Y-120719368D01*
X99752632Y-120512525D01*
X99509411Y-120350010D01*
X99239158Y-120238068D01*
X98952260Y-120181000D01*
X98659740Y-120181000D01*
X98372842Y-120238068D01*
X98102589Y-120350010D01*
X97859368Y-120512525D01*
X97727513Y-120644380D01*
X97705502Y-120571820D01*
X97646537Y-120461506D01*
X97567185Y-120364815D01*
X97470494Y-120285463D01*
X97360180Y-120226498D01*
X97240482Y-120190188D01*
X97116000Y-120177928D01*
X95669900Y-120177928D01*
X95669900Y-119111532D01*
X95945360Y-118836072D01*
X97116000Y-118836072D01*
X97240482Y-118823812D01*
X97360180Y-118787502D01*
X97470494Y-118728537D01*
X97567185Y-118649185D01*
X97646537Y-118552494D01*
X97705502Y-118442180D01*
X97727513Y-118369620D01*
X97859368Y-118501475D01*
X98102589Y-118663990D01*
X98372842Y-118775932D01*
X98659740Y-118833000D01*
X98952260Y-118833000D01*
X99239158Y-118775932D01*
X99509411Y-118663990D01*
X99752632Y-118501475D01*
X99959475Y-118294632D01*
X100076000Y-118120240D01*
X100192525Y-118294632D01*
M02*
