G04 #@! TF.FileFunction,Copper,L2,Bot,Signal*
%FSLAX46Y46*%
G04 Gerber Fmt 4.6, Leading zero omitted, Abs format (unit mm)*
G04 Created by KiCad (PCBNEW 4.0.6) date Sat Apr 29 17:47:01 2017*
%MOMM*%
%LPD*%
G01*
G04 APERTURE LIST*
%ADD10C,0.100000*%
%ADD11C,1.600000*%
%ADD12R,1.600000X1.600000*%
%ADD13O,1.600000X1.600000*%
%ADD14R,1.700000X1.700000*%
%ADD15O,1.700000X1.700000*%
%ADD16C,2.100000*%
%ADD17C,0.685800*%
%ADD18C,1.270000*%
%ADD19C,0.635000*%
%ADD20C,0.381000*%
%ADD21C,0.254000*%
G04 APERTURE END LIST*
D10*
D11*
X73340346Y-131027070D03*
X73340346Y-133527070D03*
D12*
X77470000Y-156210000D03*
D13*
X95250000Y-148590000D03*
X80010000Y-156210000D03*
X92710000Y-148590000D03*
X82550000Y-156210000D03*
X90170000Y-148590000D03*
X85090000Y-156210000D03*
X87630000Y-148590000D03*
X87630000Y-156210000D03*
X85090000Y-148590000D03*
X90170000Y-156210000D03*
X82550000Y-148590000D03*
X92710000Y-156210000D03*
X80010000Y-148590000D03*
X95250000Y-156210000D03*
X77470000Y-148590000D03*
D11*
X135890000Y-118110000D03*
D13*
X143510000Y-118110000D03*
D12*
X77470000Y-137160000D03*
D13*
X95250000Y-129540000D03*
X80010000Y-137160000D03*
X92710000Y-129540000D03*
X82550000Y-137160000D03*
X90170000Y-129540000D03*
X85090000Y-137160000D03*
X87630000Y-129540000D03*
X87630000Y-137160000D03*
X85090000Y-129540000D03*
X90170000Y-137160000D03*
X82550000Y-129540000D03*
X92710000Y-137160000D03*
X80010000Y-129540000D03*
X95250000Y-137160000D03*
X77470000Y-129540000D03*
D12*
X102829360Y-154929840D03*
D13*
X151089360Y-139689840D03*
X105369360Y-154929840D03*
X148549360Y-139689840D03*
X107909360Y-154929840D03*
X146009360Y-139689840D03*
X110449360Y-154929840D03*
X143469360Y-139689840D03*
X112989360Y-154929840D03*
X140929360Y-139689840D03*
X115529360Y-154929840D03*
X138389360Y-139689840D03*
X118069360Y-154929840D03*
X135849360Y-139689840D03*
X120609360Y-154929840D03*
X133309360Y-139689840D03*
X123149360Y-154929840D03*
X130769360Y-139689840D03*
X125689360Y-154929840D03*
X128229360Y-139689840D03*
X128229360Y-154929840D03*
X125689360Y-139689840D03*
X130769360Y-154929840D03*
X123149360Y-139689840D03*
X133309360Y-154929840D03*
X120609360Y-139689840D03*
X135849360Y-154929840D03*
X118069360Y-139689840D03*
X138389360Y-154929840D03*
X115529360Y-139689840D03*
X140929360Y-154929840D03*
X112989360Y-139689840D03*
X143469360Y-154929840D03*
X110449360Y-139689840D03*
X146009360Y-154929840D03*
X107909360Y-139689840D03*
X148549360Y-154929840D03*
X105369360Y-139689840D03*
X151089360Y-154929840D03*
X102829360Y-139689840D03*
D12*
X101600000Y-124460000D03*
D13*
X116840000Y-116840000D03*
X104140000Y-124460000D03*
X114300000Y-116840000D03*
X106680000Y-124460000D03*
X111760000Y-116840000D03*
X109220000Y-124460000D03*
X109220000Y-116840000D03*
X111760000Y-124460000D03*
X106680000Y-116840000D03*
X114300000Y-124460000D03*
X104140000Y-116840000D03*
X116840000Y-124460000D03*
X101600000Y-116840000D03*
D11*
X130810000Y-125730000D03*
D13*
X123190000Y-125730000D03*
D11*
X123190000Y-129540000D03*
D13*
X130810000Y-129540000D03*
D11*
X143510000Y-121920000D03*
D13*
X135890000Y-121920000D03*
D11*
X130810000Y-118110000D03*
D13*
X123190000Y-118110000D03*
D11*
X102870000Y-135890000D03*
X105370000Y-135890000D03*
D12*
X135890000Y-127000000D03*
D11*
X135890000Y-129500000D03*
D12*
X142240000Y-127040000D03*
D11*
X142240000Y-129540000D03*
D14*
X137160000Y-134620000D03*
D15*
X139700000Y-134620000D03*
D11*
X123190000Y-121920000D03*
D13*
X130810000Y-121920000D03*
D11*
X130810000Y-133350000D03*
D13*
X123190000Y-133350000D03*
D12*
X77470000Y-124460000D03*
D13*
X92710000Y-116840000D03*
X80010000Y-124460000D03*
X90170000Y-116840000D03*
X82550000Y-124460000D03*
X87630000Y-116840000D03*
X85090000Y-124460000D03*
X85090000Y-116840000D03*
X87630000Y-124460000D03*
X82550000Y-116840000D03*
X90170000Y-124460000D03*
X80010000Y-116840000D03*
X92710000Y-124460000D03*
X77470000Y-116840000D03*
D11*
X73660000Y-149860000D03*
X73660000Y-152360000D03*
X97790000Y-116840000D03*
X97790000Y-119340000D03*
X73660000Y-119380000D03*
X73660000Y-121880000D03*
D14*
X156189680Y-135884920D03*
D15*
X158729680Y-135884920D03*
X156189680Y-138424920D03*
X158729680Y-138424920D03*
X156189680Y-140964920D03*
X158729680Y-140964920D03*
X156189680Y-143504920D03*
X158729680Y-143504920D03*
X156189680Y-146044920D03*
X158729680Y-146044920D03*
X156189680Y-148584920D03*
X158729680Y-148584920D03*
X156189680Y-151124920D03*
X158729680Y-151124920D03*
X156189680Y-153664920D03*
X158729680Y-153664920D03*
X156189680Y-156204920D03*
X158729680Y-156204920D03*
D14*
X111760000Y-129540000D03*
D15*
X114300000Y-129540000D03*
X116840000Y-129540000D03*
D14*
X64770000Y-149860000D03*
D15*
X67310000Y-149860000D03*
X64770000Y-152400000D03*
X67310000Y-152400000D03*
X64770000Y-154940000D03*
X67310000Y-154940000D03*
D14*
X77470000Y-144780000D03*
D15*
X77470000Y-142240000D03*
X80010000Y-144780000D03*
X80010000Y-142240000D03*
X82550000Y-144780000D03*
X82550000Y-142240000D03*
X85090000Y-144780000D03*
X85090000Y-142240000D03*
X87630000Y-144780000D03*
X87630000Y-142240000D03*
X90170000Y-144780000D03*
X90170000Y-142240000D03*
X92710000Y-144780000D03*
X92710000Y-142240000D03*
X95250000Y-144780000D03*
X95250000Y-142240000D03*
D14*
X67310000Y-137160000D03*
D15*
X67310000Y-139700000D03*
X67310000Y-142240000D03*
D14*
X64770000Y-137160000D03*
D15*
X64770000Y-139700000D03*
X64770000Y-142240000D03*
D14*
X62230000Y-162560000D03*
D15*
X64770000Y-162560000D03*
X67310000Y-162560000D03*
X69850000Y-162560000D03*
X72390000Y-162560000D03*
X74930000Y-162560000D03*
X77470000Y-162560000D03*
X80010000Y-162560000D03*
X82550000Y-162560000D03*
X85090000Y-162560000D03*
X87630000Y-162560000D03*
X90170000Y-162560000D03*
X92710000Y-162560000D03*
X95250000Y-162560000D03*
X97790000Y-162560000D03*
X100330000Y-162560000D03*
X102870000Y-162560000D03*
X105410000Y-162560000D03*
X107950000Y-162560000D03*
X110490000Y-162560000D03*
X113030000Y-162560000D03*
X115570000Y-162560000D03*
X118110000Y-162560000D03*
X120650000Y-162560000D03*
X123190000Y-162560000D03*
X125730000Y-162560000D03*
X128270000Y-162560000D03*
X130810000Y-162560000D03*
X133350000Y-162560000D03*
X135890000Y-162560000D03*
X138430000Y-162560000D03*
X140970000Y-162560000D03*
X143510000Y-162560000D03*
X146050000Y-162560000D03*
X148590000Y-162560000D03*
X151130000Y-162560000D03*
X153670000Y-162560000D03*
X156210000Y-162560000D03*
X158750000Y-162560000D03*
D16*
X149870000Y-119380000D03*
X153670000Y-119380000D03*
X157470000Y-119380000D03*
X157470000Y-128780000D03*
X153670000Y-128780000D03*
X149870000Y-128780000D03*
D17*
X113030000Y-157480000D03*
X93108908Y-122318908D03*
D18*
X101600000Y-116840000D02*
X97790000Y-116840000D01*
X140929360Y-139689840D02*
X146473281Y-134145919D01*
X146473281Y-134145919D02*
X158192760Y-134145919D01*
X158192760Y-134145919D02*
X158729680Y-134682839D01*
X158729680Y-134682839D02*
X158729680Y-135884920D01*
X77470000Y-129540000D02*
X81280000Y-133350000D01*
X81280000Y-133350000D02*
X100330000Y-133350000D01*
X100330000Y-133350000D02*
X102870000Y-135890000D01*
X103670999Y-160820999D02*
X105410000Y-162560000D01*
X73660000Y-149860000D02*
X74459999Y-150659999D01*
X74459999Y-150659999D02*
X92239999Y-150659999D01*
X92239999Y-150659999D02*
X97584316Y-156004316D01*
X97584316Y-156004316D02*
X97584317Y-157791514D01*
X97584317Y-157791514D02*
X100613802Y-160820999D01*
X100613802Y-160820999D02*
X103670999Y-160820999D01*
X77470000Y-116840000D02*
X76200000Y-116840000D01*
X76200000Y-116840000D02*
X73660000Y-119380000D01*
X101600000Y-116840000D02*
X104140000Y-116840000D01*
X77470000Y-129540000D02*
X71970999Y-124040999D01*
X71970999Y-124040999D02*
X71970999Y-121069001D01*
X71970999Y-121069001D02*
X73660000Y-119380000D01*
X73660000Y-149860000D02*
X76200000Y-149860000D01*
X76200000Y-149860000D02*
X77470000Y-148590000D01*
X67310000Y-137160000D02*
X73660000Y-143510000D01*
X73660000Y-143510000D02*
X73660000Y-149860000D01*
X101600000Y-116840000D02*
X101600000Y-124460000D01*
X101600000Y-124460000D02*
X103289001Y-122770999D01*
X103289001Y-122770999D02*
X107530999Y-122770999D01*
X107530999Y-122770999D02*
X109220000Y-124460000D01*
X101600000Y-124460000D02*
X101600000Y-134620000D01*
X101600000Y-134620000D02*
X102870000Y-135890000D01*
X73340346Y-131027070D02*
X75982930Y-131027070D01*
X75982930Y-131027070D02*
X77470000Y-129540000D01*
X102870000Y-135890000D02*
X102870000Y-139649200D01*
X102870000Y-139649200D02*
X102829360Y-139689840D01*
X102849680Y-139669520D02*
X102829360Y-139689840D01*
X102824280Y-139694920D02*
X102829360Y-139689840D01*
X92710000Y-124460000D02*
X91020999Y-122770999D01*
X91020999Y-122770999D02*
X88480999Y-122770999D01*
X88480999Y-122770999D02*
X83349999Y-117639999D01*
X83349999Y-117639999D02*
X82550000Y-116840000D01*
X97790000Y-119340000D02*
X97790000Y-119380000D01*
X97790000Y-119380000D02*
X92710000Y-124460000D01*
X87630000Y-156210000D02*
X89319001Y-157899001D01*
X89319001Y-157899001D02*
X93560999Y-157899001D01*
X93560999Y-157899001D02*
X95250000Y-156210000D01*
D19*
X62230000Y-162560000D02*
X62230000Y-143295000D01*
X62230000Y-143295000D02*
X63285000Y-142240000D01*
X63285000Y-142240000D02*
X64770000Y-142240000D01*
X64770000Y-149860000D02*
X63348499Y-151281501D01*
X63348499Y-151281501D02*
X63348499Y-161138499D01*
X63348499Y-161138499D02*
X64770000Y-162560000D01*
X112497458Y-156947458D02*
X113030000Y-157480000D01*
X101537740Y-156266922D02*
X102218276Y-156947458D01*
X102218276Y-156947458D02*
X112497458Y-156947458D01*
X101457859Y-143621859D02*
X101457859Y-156187040D01*
X101457859Y-156187040D02*
X101537740Y-156266922D01*
X104124859Y-140954859D02*
X101457859Y-143621859D01*
D20*
X104140000Y-138430000D02*
X104124859Y-138445141D01*
X104124859Y-138445141D02*
X104124859Y-140954859D01*
D19*
X105308499Y-137261501D02*
X104140000Y-138430000D01*
X107479999Y-136360001D02*
X106578499Y-137261501D01*
X106578499Y-137261501D02*
X105308499Y-137261501D01*
X106680000Y-124460000D02*
X107479999Y-125259999D01*
X107479999Y-125259999D02*
X107479999Y-136360001D01*
D20*
X110449360Y-139689840D02*
X121904859Y-151145339D01*
X121904859Y-151145339D02*
X121904859Y-156194859D01*
X121904859Y-156194859D02*
X128270000Y-162560000D01*
X112989360Y-139689840D02*
X124444859Y-151145339D01*
X124444859Y-151145339D02*
X124444859Y-156194859D01*
X124444859Y-156194859D02*
X130810000Y-162560000D01*
X115529360Y-139689840D02*
X126984859Y-151145339D01*
X126984859Y-151145339D02*
X126984859Y-156194859D01*
X126984859Y-156194859D02*
X133350000Y-162560000D01*
X118069360Y-139689840D02*
X129473861Y-151094341D01*
X129473861Y-151094341D02*
X129473861Y-156143861D01*
X129473861Y-156143861D02*
X135890000Y-162560000D01*
X120609360Y-139689840D02*
X132013861Y-151094341D01*
X132013861Y-151094341D02*
X132013861Y-156143861D01*
X132013861Y-156143861D02*
X138430000Y-162560000D01*
X123149360Y-139689840D02*
X134553861Y-151094341D01*
X134553861Y-151094341D02*
X134553861Y-156143861D01*
X134553861Y-156143861D02*
X140970000Y-162560000D01*
X125689360Y-139689840D02*
X137093861Y-151094341D01*
X137093861Y-151094341D02*
X137093861Y-156143861D01*
X137093861Y-156143861D02*
X143510000Y-162560000D01*
X128229360Y-139689840D02*
X139684859Y-151145339D01*
X139684859Y-151145339D02*
X139684859Y-156194859D01*
X139684859Y-156194859D02*
X146050000Y-162560000D01*
D19*
X123598677Y-123291501D02*
X118261501Y-128628677D01*
X135890000Y-121920000D02*
X134518499Y-123291501D01*
X134518499Y-123291501D02*
X123598677Y-123291501D01*
X118261501Y-128628677D02*
X118261501Y-130847201D01*
X118261501Y-130847201D02*
X113122281Y-135986421D01*
X113122281Y-135986421D02*
X109352179Y-135986421D01*
X107909360Y-154929840D02*
X107909360Y-142214600D01*
X106613861Y-138724739D02*
X109352179Y-135986421D01*
X106613861Y-138978739D02*
X106613861Y-138724739D01*
D20*
X106596180Y-140901420D02*
X106613861Y-140883739D01*
X106613861Y-140883739D02*
X106613861Y-138978739D01*
D19*
X107909360Y-142214600D02*
X106596180Y-140901420D01*
X135890000Y-118110000D02*
X135890000Y-121920000D01*
X109199680Y-138678920D02*
X110114157Y-137764443D01*
X110114157Y-137764443D02*
X118775557Y-137764443D01*
X118775557Y-137764443D02*
X123190000Y-133350000D01*
D20*
X109199680Y-138678920D02*
X109199680Y-141472920D01*
D19*
X109199680Y-152548790D02*
X109199680Y-141472920D01*
X109199680Y-152548790D02*
X110449360Y-153798470D01*
X110449360Y-153798470D02*
X110449360Y-154929840D01*
X123190000Y-129540000D02*
X123190000Y-133350000D01*
X106680000Y-116840000D02*
X108051501Y-115468499D01*
X108051501Y-115468499D02*
X115468499Y-115468499D01*
X115468499Y-115468499D02*
X116840000Y-116840000D01*
X123190000Y-127175953D02*
X123190000Y-125730000D01*
X109720418Y-136875432D02*
X113490521Y-136875432D01*
X107909360Y-138686490D02*
X109720418Y-136875432D01*
X107909360Y-139689840D02*
X107909360Y-138686490D01*
X113490521Y-136875432D02*
X123190000Y-127175953D01*
X123190000Y-118110000D02*
X123190000Y-121920000D01*
X138389360Y-139689840D02*
X138389360Y-135849360D01*
X138389360Y-135849360D02*
X137160000Y-134620000D01*
D21*
X151089360Y-139689840D02*
X151089360Y-152926482D01*
X151089360Y-152926482D02*
X155598799Y-157435921D01*
X155598799Y-157435921D02*
X157498679Y-157435921D01*
X157498679Y-157435921D02*
X158729680Y-156204920D01*
D19*
X67310000Y-152400000D02*
X67310000Y-149860000D01*
X67310000Y-154940000D02*
X67310000Y-152400000D01*
X87630000Y-162560000D02*
X87630000Y-161290000D01*
X87630000Y-161290000D02*
X82550000Y-156210000D01*
X85090000Y-162560000D02*
X85090000Y-161290000D01*
X85090000Y-161290000D02*
X80010000Y-156210000D01*
X82550000Y-162560000D02*
X82550000Y-161290000D01*
X82550000Y-161290000D02*
X77470000Y-156210000D01*
X130810000Y-133350000D02*
X130810000Y-132080000D01*
X130810000Y-132080000D02*
X135890000Y-127000000D01*
X149870000Y-128780000D02*
X149870000Y-119380000D01*
X135890000Y-129500000D02*
X137301501Y-130911501D01*
X137301501Y-130911501D02*
X147738499Y-130911501D01*
X147738499Y-130911501D02*
X149870000Y-128780000D01*
X130810000Y-125730000D02*
X131609999Y-124930001D01*
X131609999Y-124930001D02*
X138695001Y-124930001D01*
X138695001Y-124930001D02*
X140805000Y-127040000D01*
X140805000Y-127040000D02*
X142240000Y-127040000D01*
X143510000Y-121920000D02*
X143510000Y-125770000D01*
X143510000Y-125770000D02*
X142240000Y-127040000D01*
X142240000Y-129540000D02*
X144881501Y-126898499D01*
X144881501Y-126898499D02*
X144881501Y-120548499D01*
X144881501Y-120548499D02*
X148590000Y-116840000D01*
X148590000Y-116840000D02*
X152400000Y-116840000D01*
X152400000Y-116840000D02*
X153670000Y-118110000D01*
X153670000Y-118110000D02*
X153670000Y-119380000D01*
X153670000Y-119380000D02*
X153670000Y-128780000D01*
X67310000Y-139700000D02*
X68731501Y-141121501D01*
X68731501Y-141121501D02*
X68731501Y-149461323D01*
X88798499Y-154838499D02*
X90170000Y-156210000D01*
X68731501Y-149461323D02*
X74108677Y-154838499D01*
X74108677Y-154838499D02*
X88798499Y-154838499D01*
X64581298Y-134620000D02*
X72403454Y-134620000D01*
X63348499Y-135852799D02*
X64581298Y-134620000D01*
X63348499Y-138278499D02*
X63348499Y-135852799D01*
X64770000Y-139700000D02*
X63348499Y-138278499D01*
X88798499Y-135788499D02*
X90170000Y-137160000D01*
X73571953Y-135788499D02*
X88798499Y-135788499D01*
X72403454Y-134620000D02*
X73571953Y-135788499D01*
X77470000Y-144780000D02*
X77470000Y-146050000D01*
X77470000Y-146050000D02*
X80010000Y-148590000D01*
X80010000Y-144780000D02*
X80010000Y-146050000D01*
X80010000Y-146050000D02*
X82550000Y-148590000D01*
X82550000Y-144780000D02*
X82550000Y-146050000D01*
X82550000Y-146050000D02*
X85090000Y-148590000D01*
X85090000Y-144780000D02*
X85090000Y-146050000D01*
X85090000Y-146050000D02*
X87630000Y-148590000D01*
X87630000Y-144780000D02*
X87630000Y-146050000D01*
X87630000Y-146050000D02*
X90170000Y-148590000D01*
X90170000Y-144780000D02*
X90170000Y-146050000D01*
X90170000Y-146050000D02*
X92710000Y-148590000D01*
X92710000Y-144780000D02*
X92710000Y-146050000D01*
X92710000Y-146050000D02*
X95250000Y-148590000D01*
X111760000Y-124460000D02*
X111760000Y-129540000D01*
X109220000Y-116840000D02*
X109220000Y-121920000D01*
X109220000Y-121920000D02*
X111760000Y-124460000D01*
X116840000Y-128055000D02*
X116840000Y-129540000D01*
X118211501Y-126683499D02*
X116840000Y-128055000D01*
X114300000Y-116840000D02*
X118211501Y-120751501D01*
X118211501Y-120751501D02*
X118211501Y-126683499D01*
X80010000Y-124460000D02*
X81381501Y-125831501D01*
X83718499Y-125831501D02*
X85090000Y-124460000D01*
X81381501Y-125831501D02*
X83718499Y-125831501D01*
X85090000Y-124460000D02*
X86461501Y-125831501D01*
X86461501Y-125831501D02*
X89001501Y-125831501D01*
X89001501Y-125831501D02*
X92710000Y-129540000D01*
X87350512Y-126720512D02*
X90170000Y-129540000D01*
X78295512Y-126720512D02*
X87350512Y-126720512D01*
X77470000Y-125895000D02*
X78295512Y-126720512D01*
X77470000Y-124460000D02*
X77470000Y-125895000D01*
X105465165Y-158394401D02*
X104907231Y-157836469D01*
X104907231Y-157836469D02*
X101850035Y-157836468D01*
X121564401Y-158394401D02*
X105465165Y-158394401D01*
X125730000Y-162560000D02*
X121564401Y-158394401D01*
X100568848Y-142940524D02*
X96668801Y-139040477D01*
X96668801Y-139040477D02*
X86970477Y-139040477D01*
X86970477Y-139040477D02*
X85090000Y-137160000D01*
X101850035Y-157836468D02*
X100568848Y-156555280D01*
X100568848Y-156555280D02*
X100568848Y-142940524D01*
X119913412Y-159283412D02*
X105096926Y-159283412D01*
X104538992Y-158725479D02*
X101481794Y-158725478D01*
X123190000Y-162560000D02*
X119913412Y-159283412D01*
X105096926Y-159283412D02*
X104538992Y-158725479D01*
X101481794Y-158725478D02*
X99679837Y-156923520D01*
X96300561Y-139929488D02*
X85319488Y-139929488D01*
X85319488Y-139929488D02*
X82550000Y-137160000D01*
X99679837Y-143308764D02*
X96300561Y-139929488D01*
X99679837Y-156923520D02*
X99679837Y-143308764D01*
X104170753Y-159614489D02*
X104728687Y-160172423D01*
X104728687Y-160172423D02*
X118262423Y-160172423D01*
X83668499Y-140818499D02*
X95932321Y-140818499D01*
X118262423Y-160172423D02*
X120650000Y-162560000D01*
X101113555Y-159614488D02*
X104170753Y-159614489D01*
X98790826Y-143677004D02*
X98790826Y-157291759D01*
X95932321Y-140818499D02*
X98790826Y-143677004D01*
X80010000Y-137160000D02*
X83668499Y-140818499D01*
X98790826Y-157291759D02*
X101113555Y-159614488D01*
X120650000Y-162560000D02*
X120213822Y-162560000D01*
X90170000Y-116840000D02*
X90170000Y-119380000D01*
X90170000Y-119380000D02*
X92766009Y-121976009D01*
X92766009Y-121976009D02*
X93108908Y-122318908D01*
X87630000Y-116840000D02*
X90170000Y-116840000D01*
X92710000Y-142240000D02*
X95250000Y-142240000D01*
X90170000Y-142240000D02*
X92710000Y-142240000D01*
X87630000Y-142240000D02*
X90170000Y-142240000D01*
X85090000Y-142240000D02*
X87630000Y-142240000D01*
X82550000Y-142240000D02*
X85090000Y-142240000D01*
X80010000Y-142240000D02*
X82550000Y-142240000D01*
X77470000Y-142240000D02*
X80010000Y-142240000D01*
M02*
