G04 #@! TF.FileFunction,Legend,Top*
%FSLAX46Y46*%
G04 Gerber Fmt 4.6, Leading zero omitted, Abs format (unit mm)*
G04 Created by KiCad (PCBNEW 4.0.6) date Sun Jul 16 10:48:13 2017*
%MOMM*%
%LPD*%
G01*
G04 APERTURE LIST*
%ADD10C,0.100000*%
%ADD11C,0.120000*%
%ADD12C,0.010000*%
%ADD13C,0.150000*%
G04 APERTURE END LIST*
D10*
D11*
X73540000Y-132350000D02*
G75*
G02X73540000Y-134350000I0J-1000000D01*
G01*
X73540000Y-134350000D02*
X73540000Y-136120000D01*
X73540000Y-135890000D02*
X94100000Y-135890000D01*
X94100000Y-136120000D02*
X94100000Y-130580000D01*
X94100000Y-130810000D02*
X73540000Y-130810000D01*
X73540000Y-130580000D02*
X73540000Y-132350000D01*
X73540000Y-138550000D02*
X94100000Y-138550000D01*
X94100000Y-138550000D02*
X94100000Y-128150000D01*
X94100000Y-128150000D02*
X73540000Y-128150000D01*
X73540000Y-128150000D02*
X73540000Y-138550000D01*
D12*
G36*
X65960814Y-128278931D02*
X66044635Y-128723555D01*
X66353920Y-128851053D01*
X66663206Y-128978551D01*
X67034246Y-128726246D01*
X67138157Y-128655996D01*
X67232087Y-128593272D01*
X67311652Y-128540938D01*
X67372470Y-128501857D01*
X67410157Y-128478893D01*
X67420421Y-128473942D01*
X67438910Y-128486676D01*
X67478420Y-128521882D01*
X67534522Y-128575062D01*
X67602787Y-128641718D01*
X67678786Y-128717354D01*
X67758092Y-128797472D01*
X67836275Y-128877574D01*
X67908907Y-128953164D01*
X67971559Y-129019745D01*
X68019803Y-129072818D01*
X68049210Y-129107887D01*
X68056241Y-129119623D01*
X68046123Y-129141260D01*
X68017759Y-129188662D01*
X67974129Y-129257193D01*
X67918218Y-129342215D01*
X67853006Y-129439093D01*
X67815219Y-129494350D01*
X67746343Y-129595248D01*
X67685140Y-129686299D01*
X67634578Y-129762970D01*
X67597628Y-129820728D01*
X67577258Y-129855043D01*
X67574197Y-129862254D01*
X67581136Y-129882748D01*
X67600051Y-129930513D01*
X67628087Y-129998832D01*
X67662391Y-130080989D01*
X67700109Y-130170270D01*
X67738387Y-130259958D01*
X67774370Y-130343338D01*
X67805206Y-130413694D01*
X67828039Y-130464310D01*
X67840017Y-130488471D01*
X67840724Y-130489422D01*
X67859531Y-130494036D01*
X67909618Y-130504328D01*
X67985793Y-130519287D01*
X68082865Y-130537901D01*
X68195643Y-130559159D01*
X68261442Y-130571418D01*
X68381950Y-130594362D01*
X68490797Y-130616195D01*
X68582476Y-130635722D01*
X68651481Y-130651748D01*
X68692304Y-130663079D01*
X68700511Y-130666674D01*
X68708548Y-130691006D01*
X68715033Y-130745959D01*
X68719970Y-130825108D01*
X68723364Y-130922026D01*
X68725218Y-131030287D01*
X68725538Y-131143465D01*
X68724327Y-131255135D01*
X68721590Y-131358868D01*
X68717331Y-131448241D01*
X68711555Y-131516826D01*
X68704267Y-131558197D01*
X68699895Y-131566810D01*
X68673764Y-131577133D01*
X68618393Y-131591892D01*
X68541107Y-131609352D01*
X68449230Y-131627780D01*
X68417158Y-131633741D01*
X68262524Y-131662066D01*
X68140375Y-131684876D01*
X68046673Y-131703080D01*
X67977384Y-131717583D01*
X67928471Y-131729292D01*
X67895897Y-131739115D01*
X67875628Y-131747956D01*
X67863626Y-131756724D01*
X67861947Y-131758457D01*
X67845184Y-131786371D01*
X67819614Y-131840695D01*
X67787788Y-131914777D01*
X67752260Y-132001965D01*
X67715583Y-132095608D01*
X67680311Y-132189052D01*
X67648996Y-132275647D01*
X67624193Y-132348740D01*
X67608454Y-132401678D01*
X67604332Y-132427811D01*
X67604676Y-132428726D01*
X67618641Y-132450086D01*
X67650322Y-132497084D01*
X67696391Y-132564827D01*
X67753518Y-132648423D01*
X67818373Y-132742982D01*
X67836843Y-132769854D01*
X67902699Y-132867275D01*
X67960650Y-132956163D01*
X68007538Y-133031412D01*
X68040207Y-133087920D01*
X68055500Y-133120581D01*
X68056241Y-133124593D01*
X68043392Y-133145684D01*
X68007888Y-133187464D01*
X67954293Y-133245445D01*
X67887171Y-133315135D01*
X67811087Y-133392045D01*
X67730604Y-133471683D01*
X67650287Y-133549561D01*
X67574699Y-133621186D01*
X67508405Y-133682070D01*
X67455969Y-133727721D01*
X67421955Y-133753650D01*
X67412545Y-133757883D01*
X67390643Y-133747912D01*
X67345800Y-133721020D01*
X67285321Y-133681736D01*
X67238789Y-133650117D01*
X67154475Y-133592098D01*
X67054626Y-133523784D01*
X66954473Y-133455579D01*
X66900627Y-133419075D01*
X66718371Y-133295800D01*
X66565381Y-133378520D01*
X66495682Y-133414759D01*
X66436414Y-133442926D01*
X66396311Y-133458991D01*
X66386103Y-133461226D01*
X66373829Y-133444722D01*
X66349613Y-133398082D01*
X66315263Y-133325609D01*
X66272588Y-133231606D01*
X66223394Y-133120374D01*
X66169490Y-132996215D01*
X66112684Y-132863432D01*
X66054782Y-132726327D01*
X65997593Y-132589202D01*
X65942924Y-132456358D01*
X65892584Y-132332098D01*
X65848380Y-132220725D01*
X65812119Y-132126539D01*
X65785609Y-132053844D01*
X65770658Y-132006941D01*
X65768254Y-131990833D01*
X65787311Y-131970286D01*
X65829036Y-131936933D01*
X65884706Y-131897702D01*
X65889378Y-131894599D01*
X66033264Y-131779423D01*
X66149283Y-131645053D01*
X66236430Y-131495784D01*
X66293699Y-131335913D01*
X66320086Y-131169737D01*
X66314585Y-131001552D01*
X66276190Y-130835655D01*
X66203895Y-130676342D01*
X66182626Y-130641487D01*
X66071996Y-130500737D01*
X65941302Y-130387714D01*
X65795064Y-130303003D01*
X65637808Y-130247194D01*
X65474057Y-130220874D01*
X65308333Y-130224630D01*
X65145162Y-130259050D01*
X64989065Y-130324723D01*
X64844567Y-130422235D01*
X64799869Y-130461813D01*
X64686112Y-130585703D01*
X64603218Y-130716124D01*
X64546356Y-130862315D01*
X64514687Y-131007088D01*
X64506869Y-131169860D01*
X64532938Y-131333440D01*
X64590245Y-131492298D01*
X64676144Y-131640906D01*
X64787986Y-131773735D01*
X64923123Y-131885256D01*
X64940883Y-131897011D01*
X64997150Y-131935508D01*
X65039923Y-131968863D01*
X65060372Y-131990160D01*
X65060669Y-131990833D01*
X65056279Y-132013871D01*
X65038876Y-132066157D01*
X65010268Y-132143390D01*
X64972265Y-132241268D01*
X64926674Y-132355491D01*
X64875303Y-132481758D01*
X64819962Y-132615767D01*
X64762458Y-132753218D01*
X64704601Y-132889808D01*
X64648198Y-133021237D01*
X64595058Y-133143205D01*
X64546990Y-133251409D01*
X64505801Y-133341549D01*
X64473301Y-133409323D01*
X64451297Y-133450430D01*
X64442436Y-133461226D01*
X64415360Y-133452819D01*
X64364697Y-133430272D01*
X64299183Y-133397613D01*
X64263159Y-133378520D01*
X64110168Y-133295800D01*
X63927912Y-133419075D01*
X63834875Y-133482228D01*
X63733015Y-133551727D01*
X63637562Y-133617165D01*
X63589750Y-133650117D01*
X63522505Y-133695273D01*
X63465564Y-133731057D01*
X63426354Y-133752938D01*
X63413619Y-133757563D01*
X63395083Y-133745085D01*
X63354059Y-133710252D01*
X63294525Y-133656678D01*
X63220458Y-133587983D01*
X63135835Y-133507781D01*
X63082315Y-133456286D01*
X62988681Y-133364286D01*
X62907759Y-133281999D01*
X62842823Y-133212945D01*
X62797142Y-133160644D01*
X62773989Y-133128616D01*
X62771768Y-133122116D01*
X62782076Y-133097394D01*
X62810561Y-133047405D01*
X62854063Y-132977212D01*
X62909423Y-132891875D01*
X62973480Y-132796456D01*
X62991697Y-132769854D01*
X63058073Y-132673167D01*
X63117622Y-132586117D01*
X63167016Y-132513595D01*
X63202925Y-132460493D01*
X63222019Y-132431703D01*
X63223864Y-132428726D01*
X63221105Y-132405782D01*
X63206462Y-132355336D01*
X63182487Y-132284041D01*
X63151734Y-132198547D01*
X63116756Y-132105507D01*
X63080107Y-132011574D01*
X63044339Y-131923399D01*
X63012006Y-131847634D01*
X62985662Y-131790931D01*
X62967858Y-131759943D01*
X62966593Y-131758457D01*
X62955706Y-131749601D01*
X62937318Y-131740843D01*
X62907394Y-131731277D01*
X62861897Y-131719996D01*
X62796791Y-131706093D01*
X62708039Y-131688663D01*
X62591607Y-131666798D01*
X62443458Y-131639591D01*
X62411382Y-131633741D01*
X62316314Y-131615374D01*
X62233435Y-131597405D01*
X62170070Y-131581569D01*
X62133542Y-131569600D01*
X62128644Y-131566810D01*
X62120573Y-131542072D01*
X62114013Y-131486790D01*
X62108967Y-131407389D01*
X62105441Y-131310296D01*
X62103439Y-131201938D01*
X62102964Y-131088740D01*
X62104023Y-130977128D01*
X62106618Y-130873529D01*
X62110754Y-130784368D01*
X62116437Y-130716072D01*
X62123669Y-130675066D01*
X62128029Y-130666674D01*
X62152302Y-130658208D01*
X62207574Y-130644435D01*
X62288338Y-130626550D01*
X62389088Y-130605748D01*
X62504317Y-130583223D01*
X62567098Y-130571418D01*
X62686213Y-130549151D01*
X62792435Y-130528979D01*
X62880573Y-130511915D01*
X62945434Y-130498969D01*
X62981826Y-130491155D01*
X62987816Y-130489422D01*
X62997939Y-130469890D01*
X63019338Y-130422843D01*
X63049161Y-130355003D01*
X63084555Y-130273091D01*
X63122668Y-130183828D01*
X63160647Y-130093935D01*
X63195640Y-130010135D01*
X63224794Y-129939147D01*
X63245257Y-129887694D01*
X63254177Y-129862497D01*
X63254343Y-129861396D01*
X63244231Y-129841519D01*
X63215883Y-129795777D01*
X63172277Y-129728717D01*
X63116394Y-129644884D01*
X63051213Y-129548826D01*
X63013321Y-129493650D01*
X62944275Y-129392481D01*
X62882950Y-129300630D01*
X62832337Y-129222744D01*
X62795429Y-129163469D01*
X62775218Y-129127451D01*
X62772299Y-129119377D01*
X62784847Y-129100584D01*
X62819537Y-129060457D01*
X62871937Y-129003493D01*
X62937616Y-128934185D01*
X63012144Y-128857031D01*
X63091087Y-128776525D01*
X63170017Y-128697163D01*
X63244500Y-128623440D01*
X63310106Y-128559852D01*
X63362404Y-128510894D01*
X63396961Y-128481061D01*
X63408522Y-128473942D01*
X63427346Y-128483953D01*
X63472369Y-128512078D01*
X63539213Y-128555454D01*
X63623501Y-128611218D01*
X63720856Y-128676506D01*
X63794293Y-128726246D01*
X64165333Y-128978551D01*
X64783905Y-128723555D01*
X64867725Y-128278931D01*
X64951546Y-127834307D01*
X65876994Y-127834307D01*
X65960814Y-128278931D01*
X65960814Y-128278931D01*
G37*
X65960814Y-128278931D02*
X66044635Y-128723555D01*
X66353920Y-128851053D01*
X66663206Y-128978551D01*
X67034246Y-128726246D01*
X67138157Y-128655996D01*
X67232087Y-128593272D01*
X67311652Y-128540938D01*
X67372470Y-128501857D01*
X67410157Y-128478893D01*
X67420421Y-128473942D01*
X67438910Y-128486676D01*
X67478420Y-128521882D01*
X67534522Y-128575062D01*
X67602787Y-128641718D01*
X67678786Y-128717354D01*
X67758092Y-128797472D01*
X67836275Y-128877574D01*
X67908907Y-128953164D01*
X67971559Y-129019745D01*
X68019803Y-129072818D01*
X68049210Y-129107887D01*
X68056241Y-129119623D01*
X68046123Y-129141260D01*
X68017759Y-129188662D01*
X67974129Y-129257193D01*
X67918218Y-129342215D01*
X67853006Y-129439093D01*
X67815219Y-129494350D01*
X67746343Y-129595248D01*
X67685140Y-129686299D01*
X67634578Y-129762970D01*
X67597628Y-129820728D01*
X67577258Y-129855043D01*
X67574197Y-129862254D01*
X67581136Y-129882748D01*
X67600051Y-129930513D01*
X67628087Y-129998832D01*
X67662391Y-130080989D01*
X67700109Y-130170270D01*
X67738387Y-130259958D01*
X67774370Y-130343338D01*
X67805206Y-130413694D01*
X67828039Y-130464310D01*
X67840017Y-130488471D01*
X67840724Y-130489422D01*
X67859531Y-130494036D01*
X67909618Y-130504328D01*
X67985793Y-130519287D01*
X68082865Y-130537901D01*
X68195643Y-130559159D01*
X68261442Y-130571418D01*
X68381950Y-130594362D01*
X68490797Y-130616195D01*
X68582476Y-130635722D01*
X68651481Y-130651748D01*
X68692304Y-130663079D01*
X68700511Y-130666674D01*
X68708548Y-130691006D01*
X68715033Y-130745959D01*
X68719970Y-130825108D01*
X68723364Y-130922026D01*
X68725218Y-131030287D01*
X68725538Y-131143465D01*
X68724327Y-131255135D01*
X68721590Y-131358868D01*
X68717331Y-131448241D01*
X68711555Y-131516826D01*
X68704267Y-131558197D01*
X68699895Y-131566810D01*
X68673764Y-131577133D01*
X68618393Y-131591892D01*
X68541107Y-131609352D01*
X68449230Y-131627780D01*
X68417158Y-131633741D01*
X68262524Y-131662066D01*
X68140375Y-131684876D01*
X68046673Y-131703080D01*
X67977384Y-131717583D01*
X67928471Y-131729292D01*
X67895897Y-131739115D01*
X67875628Y-131747956D01*
X67863626Y-131756724D01*
X67861947Y-131758457D01*
X67845184Y-131786371D01*
X67819614Y-131840695D01*
X67787788Y-131914777D01*
X67752260Y-132001965D01*
X67715583Y-132095608D01*
X67680311Y-132189052D01*
X67648996Y-132275647D01*
X67624193Y-132348740D01*
X67608454Y-132401678D01*
X67604332Y-132427811D01*
X67604676Y-132428726D01*
X67618641Y-132450086D01*
X67650322Y-132497084D01*
X67696391Y-132564827D01*
X67753518Y-132648423D01*
X67818373Y-132742982D01*
X67836843Y-132769854D01*
X67902699Y-132867275D01*
X67960650Y-132956163D01*
X68007538Y-133031412D01*
X68040207Y-133087920D01*
X68055500Y-133120581D01*
X68056241Y-133124593D01*
X68043392Y-133145684D01*
X68007888Y-133187464D01*
X67954293Y-133245445D01*
X67887171Y-133315135D01*
X67811087Y-133392045D01*
X67730604Y-133471683D01*
X67650287Y-133549561D01*
X67574699Y-133621186D01*
X67508405Y-133682070D01*
X67455969Y-133727721D01*
X67421955Y-133753650D01*
X67412545Y-133757883D01*
X67390643Y-133747912D01*
X67345800Y-133721020D01*
X67285321Y-133681736D01*
X67238789Y-133650117D01*
X67154475Y-133592098D01*
X67054626Y-133523784D01*
X66954473Y-133455579D01*
X66900627Y-133419075D01*
X66718371Y-133295800D01*
X66565381Y-133378520D01*
X66495682Y-133414759D01*
X66436414Y-133442926D01*
X66396311Y-133458991D01*
X66386103Y-133461226D01*
X66373829Y-133444722D01*
X66349613Y-133398082D01*
X66315263Y-133325609D01*
X66272588Y-133231606D01*
X66223394Y-133120374D01*
X66169490Y-132996215D01*
X66112684Y-132863432D01*
X66054782Y-132726327D01*
X65997593Y-132589202D01*
X65942924Y-132456358D01*
X65892584Y-132332098D01*
X65848380Y-132220725D01*
X65812119Y-132126539D01*
X65785609Y-132053844D01*
X65770658Y-132006941D01*
X65768254Y-131990833D01*
X65787311Y-131970286D01*
X65829036Y-131936933D01*
X65884706Y-131897702D01*
X65889378Y-131894599D01*
X66033264Y-131779423D01*
X66149283Y-131645053D01*
X66236430Y-131495784D01*
X66293699Y-131335913D01*
X66320086Y-131169737D01*
X66314585Y-131001552D01*
X66276190Y-130835655D01*
X66203895Y-130676342D01*
X66182626Y-130641487D01*
X66071996Y-130500737D01*
X65941302Y-130387714D01*
X65795064Y-130303003D01*
X65637808Y-130247194D01*
X65474057Y-130220874D01*
X65308333Y-130224630D01*
X65145162Y-130259050D01*
X64989065Y-130324723D01*
X64844567Y-130422235D01*
X64799869Y-130461813D01*
X64686112Y-130585703D01*
X64603218Y-130716124D01*
X64546356Y-130862315D01*
X64514687Y-131007088D01*
X64506869Y-131169860D01*
X64532938Y-131333440D01*
X64590245Y-131492298D01*
X64676144Y-131640906D01*
X64787986Y-131773735D01*
X64923123Y-131885256D01*
X64940883Y-131897011D01*
X64997150Y-131935508D01*
X65039923Y-131968863D01*
X65060372Y-131990160D01*
X65060669Y-131990833D01*
X65056279Y-132013871D01*
X65038876Y-132066157D01*
X65010268Y-132143390D01*
X64972265Y-132241268D01*
X64926674Y-132355491D01*
X64875303Y-132481758D01*
X64819962Y-132615767D01*
X64762458Y-132753218D01*
X64704601Y-132889808D01*
X64648198Y-133021237D01*
X64595058Y-133143205D01*
X64546990Y-133251409D01*
X64505801Y-133341549D01*
X64473301Y-133409323D01*
X64451297Y-133450430D01*
X64442436Y-133461226D01*
X64415360Y-133452819D01*
X64364697Y-133430272D01*
X64299183Y-133397613D01*
X64263159Y-133378520D01*
X64110168Y-133295800D01*
X63927912Y-133419075D01*
X63834875Y-133482228D01*
X63733015Y-133551727D01*
X63637562Y-133617165D01*
X63589750Y-133650117D01*
X63522505Y-133695273D01*
X63465564Y-133731057D01*
X63426354Y-133752938D01*
X63413619Y-133757563D01*
X63395083Y-133745085D01*
X63354059Y-133710252D01*
X63294525Y-133656678D01*
X63220458Y-133587983D01*
X63135835Y-133507781D01*
X63082315Y-133456286D01*
X62988681Y-133364286D01*
X62907759Y-133281999D01*
X62842823Y-133212945D01*
X62797142Y-133160644D01*
X62773989Y-133128616D01*
X62771768Y-133122116D01*
X62782076Y-133097394D01*
X62810561Y-133047405D01*
X62854063Y-132977212D01*
X62909423Y-132891875D01*
X62973480Y-132796456D01*
X62991697Y-132769854D01*
X63058073Y-132673167D01*
X63117622Y-132586117D01*
X63167016Y-132513595D01*
X63202925Y-132460493D01*
X63222019Y-132431703D01*
X63223864Y-132428726D01*
X63221105Y-132405782D01*
X63206462Y-132355336D01*
X63182487Y-132284041D01*
X63151734Y-132198547D01*
X63116756Y-132105507D01*
X63080107Y-132011574D01*
X63044339Y-131923399D01*
X63012006Y-131847634D01*
X62985662Y-131790931D01*
X62967858Y-131759943D01*
X62966593Y-131758457D01*
X62955706Y-131749601D01*
X62937318Y-131740843D01*
X62907394Y-131731277D01*
X62861897Y-131719996D01*
X62796791Y-131706093D01*
X62708039Y-131688663D01*
X62591607Y-131666798D01*
X62443458Y-131639591D01*
X62411382Y-131633741D01*
X62316314Y-131615374D01*
X62233435Y-131597405D01*
X62170070Y-131581569D01*
X62133542Y-131569600D01*
X62128644Y-131566810D01*
X62120573Y-131542072D01*
X62114013Y-131486790D01*
X62108967Y-131407389D01*
X62105441Y-131310296D01*
X62103439Y-131201938D01*
X62102964Y-131088740D01*
X62104023Y-130977128D01*
X62106618Y-130873529D01*
X62110754Y-130784368D01*
X62116437Y-130716072D01*
X62123669Y-130675066D01*
X62128029Y-130666674D01*
X62152302Y-130658208D01*
X62207574Y-130644435D01*
X62288338Y-130626550D01*
X62389088Y-130605748D01*
X62504317Y-130583223D01*
X62567098Y-130571418D01*
X62686213Y-130549151D01*
X62792435Y-130528979D01*
X62880573Y-130511915D01*
X62945434Y-130498969D01*
X62981826Y-130491155D01*
X62987816Y-130489422D01*
X62997939Y-130469890D01*
X63019338Y-130422843D01*
X63049161Y-130355003D01*
X63084555Y-130273091D01*
X63122668Y-130183828D01*
X63160647Y-130093935D01*
X63195640Y-130010135D01*
X63224794Y-129939147D01*
X63245257Y-129887694D01*
X63254177Y-129862497D01*
X63254343Y-129861396D01*
X63244231Y-129841519D01*
X63215883Y-129795777D01*
X63172277Y-129728717D01*
X63116394Y-129644884D01*
X63051213Y-129548826D01*
X63013321Y-129493650D01*
X62944275Y-129392481D01*
X62882950Y-129300630D01*
X62832337Y-129222744D01*
X62795429Y-129163469D01*
X62775218Y-129127451D01*
X62772299Y-129119377D01*
X62784847Y-129100584D01*
X62819537Y-129060457D01*
X62871937Y-129003493D01*
X62937616Y-128934185D01*
X63012144Y-128857031D01*
X63091087Y-128776525D01*
X63170017Y-128697163D01*
X63244500Y-128623440D01*
X63310106Y-128559852D01*
X63362404Y-128510894D01*
X63396961Y-128481061D01*
X63408522Y-128473942D01*
X63427346Y-128483953D01*
X63472369Y-128512078D01*
X63539213Y-128555454D01*
X63623501Y-128611218D01*
X63720856Y-128676506D01*
X63794293Y-128726246D01*
X64165333Y-128978551D01*
X64783905Y-128723555D01*
X64867725Y-128278931D01*
X64951546Y-127834307D01*
X65876994Y-127834307D01*
X65960814Y-128278931D01*
D11*
X62000000Y-164330000D02*
X60670000Y-164330000D01*
X60670000Y-164330000D02*
X60670000Y-163000000D01*
X123155000Y-115530000D02*
X123155000Y-118150000D01*
X123155000Y-118150000D02*
X129575000Y-118150000D01*
X129575000Y-118150000D02*
X129575000Y-115530000D01*
X129575000Y-115530000D02*
X123155000Y-115530000D01*
X136490000Y-115530000D02*
X136490000Y-118150000D01*
X136490000Y-118150000D02*
X142910000Y-118150000D01*
X142910000Y-118150000D02*
X142910000Y-115530000D01*
X142910000Y-115530000D02*
X136490000Y-115530000D01*
X123155000Y-126960000D02*
X123155000Y-129580000D01*
X123155000Y-129580000D02*
X129575000Y-129580000D01*
X129575000Y-129580000D02*
X129575000Y-126960000D01*
X129575000Y-126960000D02*
X123155000Y-126960000D01*
X129575000Y-133390000D02*
X129575000Y-130770000D01*
X129575000Y-130770000D02*
X123155000Y-130770000D01*
X123155000Y-130770000D02*
X123155000Y-133390000D01*
X123155000Y-133390000D02*
X129575000Y-133390000D01*
X142910000Y-121960000D02*
X142910000Y-119340000D01*
X142910000Y-119340000D02*
X136490000Y-119340000D01*
X136490000Y-119340000D02*
X136490000Y-121960000D01*
X136490000Y-121960000D02*
X142910000Y-121960000D01*
X129575000Y-125770000D02*
X129575000Y-123150000D01*
X129575000Y-123150000D02*
X123155000Y-123150000D01*
X123155000Y-123150000D02*
X123155000Y-125770000D01*
X123155000Y-125770000D02*
X129575000Y-125770000D01*
X129575000Y-121960000D02*
X129575000Y-119340000D01*
X129575000Y-119340000D02*
X123155000Y-119340000D01*
X123155000Y-119340000D02*
X123155000Y-121960000D01*
X123155000Y-121960000D02*
X129575000Y-121960000D01*
D13*
X148000000Y-118680000D02*
X160400000Y-118680000D01*
X160400000Y-118680000D02*
X160400000Y-129480000D01*
X160400000Y-129480000D02*
X148000000Y-129480000D01*
X148000000Y-129480000D02*
X148000000Y-118680000D01*
D11*
X72480000Y-147880000D02*
X72480000Y-151800000D01*
X69760000Y-147880000D02*
X69760000Y-151800000D01*
X72480000Y-147880000D02*
X71870000Y-147880000D01*
X70370000Y-147880000D02*
X69760000Y-147880000D01*
X72480000Y-151800000D02*
X71870000Y-151800000D01*
X70370000Y-151800000D02*
X69760000Y-151800000D01*
X99150000Y-116130000D02*
X99150000Y-120050000D01*
X96430000Y-116130000D02*
X96430000Y-120050000D01*
X99150000Y-116130000D02*
X98540000Y-116130000D01*
X97040000Y-116130000D02*
X96430000Y-116130000D01*
X99150000Y-120050000D02*
X98540000Y-120050000D01*
X97040000Y-120050000D02*
X96430000Y-120050000D01*
X75020000Y-118670000D02*
X75020000Y-122590000D01*
X72300000Y-118670000D02*
X72300000Y-122590000D01*
X75020000Y-118670000D02*
X74410000Y-118670000D01*
X72910000Y-118670000D02*
X72300000Y-118670000D01*
X75020000Y-122590000D02*
X74410000Y-122590000D01*
X72910000Y-122590000D02*
X72300000Y-122590000D01*
X72480000Y-128870000D02*
X72480000Y-132790000D01*
X69760000Y-128870000D02*
X69760000Y-132790000D01*
X72480000Y-128870000D02*
X71870000Y-128870000D01*
X70370000Y-128870000D02*
X69760000Y-128870000D01*
X72480000Y-132790000D02*
X71870000Y-132790000D01*
X70370000Y-132790000D02*
X69760000Y-132790000D01*
X96430000Y-132790000D02*
X96430000Y-128870000D01*
X99150000Y-132790000D02*
X99150000Y-128870000D01*
X96430000Y-132790000D02*
X97040000Y-132790000D01*
X98540000Y-132790000D02*
X99150000Y-132790000D01*
X96430000Y-128870000D02*
X97040000Y-128870000D01*
X98540000Y-128870000D02*
X99150000Y-128870000D01*
X155070000Y-137230000D02*
X155070000Y-157670000D01*
X155070000Y-157670000D02*
X160390000Y-157670000D01*
X160390000Y-157670000D02*
X160390000Y-134570000D01*
X160390000Y-134570000D02*
X157730000Y-134570000D01*
X157730000Y-134570000D02*
X157730000Y-137230000D01*
X157730000Y-137230000D02*
X155070000Y-137230000D01*
X155070000Y-135960000D02*
X155070000Y-134570000D01*
X155070000Y-134570000D02*
X156460000Y-134570000D01*
X67885000Y-139700000D02*
X67885000Y-144840000D01*
X67885000Y-144840000D02*
X70545000Y-144840000D01*
X70545000Y-144840000D02*
X70545000Y-139700000D01*
X70545000Y-139700000D02*
X67885000Y-139700000D01*
X67885000Y-138430000D02*
X67885000Y-137100000D01*
X67885000Y-137100000D02*
X69215000Y-137100000D01*
X61535000Y-139700000D02*
X61535000Y-144840000D01*
X61535000Y-144840000D02*
X64195000Y-144840000D01*
X64195000Y-144840000D02*
X64195000Y-139700000D01*
X64195000Y-139700000D02*
X61535000Y-139700000D01*
X61535000Y-138430000D02*
X61535000Y-137100000D01*
X61535000Y-137100000D02*
X62865000Y-137100000D01*
X62805000Y-151130000D02*
X62805000Y-156270000D01*
X62805000Y-156270000D02*
X68005000Y-156270000D01*
X68005000Y-156270000D02*
X68005000Y-148530000D01*
X68005000Y-148530000D02*
X65405000Y-148530000D01*
X65405000Y-148530000D02*
X65405000Y-151130000D01*
X65405000Y-151130000D02*
X62805000Y-151130000D01*
X62805000Y-149860000D02*
X62805000Y-148530000D01*
X62805000Y-148530000D02*
X64135000Y-148530000D01*
X76200000Y-146110000D02*
X94040000Y-146110000D01*
X94040000Y-146110000D02*
X94040000Y-140910000D01*
X94040000Y-140910000D02*
X73600000Y-140910000D01*
X73600000Y-140910000D02*
X73600000Y-143510000D01*
X73600000Y-143510000D02*
X76200000Y-143510000D01*
X76200000Y-143510000D02*
X76200000Y-146110000D01*
X74930000Y-146110000D02*
X73600000Y-146110000D01*
X73600000Y-146110000D02*
X73600000Y-144780000D01*
X111760000Y-130870000D02*
X116900000Y-130870000D01*
X116900000Y-130870000D02*
X116900000Y-128210000D01*
X116900000Y-128210000D02*
X111760000Y-128210000D01*
X111760000Y-128210000D02*
X111760000Y-130870000D01*
X110490000Y-130870000D02*
X109160000Y-130870000D01*
X109160000Y-130870000D02*
X109160000Y-129540000D01*
X104140000Y-130930000D02*
X106800000Y-130930000D01*
X106800000Y-130930000D02*
X106800000Y-128150000D01*
X106800000Y-128150000D02*
X104140000Y-128150000D01*
X104140000Y-128150000D02*
X104140000Y-130930000D01*
X102870000Y-130930000D02*
X101480000Y-130930000D01*
X101480000Y-130930000D02*
X101480000Y-129540000D01*
X73540000Y-151400000D02*
G75*
G02X73540000Y-153400000I0J-1000000D01*
G01*
X73540000Y-153400000D02*
X73540000Y-155170000D01*
X73540000Y-154940000D02*
X94100000Y-154940000D01*
X94100000Y-155170000D02*
X94100000Y-149630000D01*
X94100000Y-149860000D02*
X73540000Y-149860000D01*
X73540000Y-149630000D02*
X73540000Y-151400000D01*
X73540000Y-157600000D02*
X94100000Y-157600000D01*
X94100000Y-157600000D02*
X94100000Y-147200000D01*
X94100000Y-147200000D02*
X73540000Y-147200000D01*
X73540000Y-147200000D02*
X73540000Y-157600000D01*
X76080000Y-119650000D02*
G75*
G02X76080000Y-121650000I0J-1000000D01*
G01*
X76080000Y-121650000D02*
X76080000Y-123420000D01*
X76080000Y-123190000D02*
X94100000Y-123190000D01*
X94100000Y-123420000D02*
X94100000Y-117880000D01*
X94100000Y-118110000D02*
X76080000Y-118110000D01*
X76080000Y-117880000D02*
X76080000Y-119650000D01*
X76080000Y-125850000D02*
X94100000Y-125850000D01*
X94100000Y-125850000D02*
X94100000Y-115450000D01*
X94100000Y-115450000D02*
X76080000Y-115450000D01*
X76080000Y-115450000D02*
X76080000Y-125850000D01*
X100210000Y-119650000D02*
G75*
G02X100210000Y-121650000I0J-1000000D01*
G01*
X100210000Y-121650000D02*
X100210000Y-123420000D01*
X100210000Y-123190000D02*
X118230000Y-123190000D01*
X118230000Y-123420000D02*
X118230000Y-117880000D01*
X118230000Y-118110000D02*
X100210000Y-118110000D01*
X100210000Y-117880000D02*
X100210000Y-119650000D01*
X100210000Y-125850000D02*
X118230000Y-125850000D01*
X118230000Y-125850000D02*
X118230000Y-115450000D01*
X118230000Y-115450000D02*
X100210000Y-115450000D01*
X100210000Y-115450000D02*
X100210000Y-125850000D01*
X101439360Y-146309840D02*
G75*
G02X101439360Y-148309840I0J-1000000D01*
G01*
X101439360Y-148309840D02*
X101439360Y-153889840D01*
X101439360Y-153659840D02*
X152479360Y-153659840D01*
X152479360Y-153889840D02*
X152479360Y-140729840D01*
X152479360Y-140959840D02*
X101439360Y-140959840D01*
X101439360Y-140729840D02*
X101439360Y-146309840D01*
X101439360Y-156319840D02*
X152479360Y-156319840D01*
X152479360Y-156319840D02*
X152479360Y-138299840D01*
X152479360Y-138299840D02*
X101439360Y-138299840D01*
X101439360Y-138299840D02*
X101439360Y-156319840D01*
X146710000Y-128250000D02*
X140310000Y-128250000D01*
X146710000Y-128290000D02*
X140310000Y-128290000D01*
X146710000Y-128330000D02*
X140310000Y-128330000D01*
X146708000Y-128370000D02*
X140312000Y-128370000D01*
X146707000Y-128410000D02*
X140313000Y-128410000D01*
X146704000Y-128450000D02*
X140316000Y-128450000D01*
X146702000Y-128490000D02*
X140318000Y-128490000D01*
X146698000Y-128530000D02*
X144490000Y-128530000D01*
X142530000Y-128530000D02*
X140322000Y-128530000D01*
X146695000Y-128570000D02*
X144490000Y-128570000D01*
X142530000Y-128570000D02*
X140325000Y-128570000D01*
X146690000Y-128610000D02*
X144490000Y-128610000D01*
X142530000Y-128610000D02*
X140330000Y-128610000D01*
X146686000Y-128650000D02*
X144490000Y-128650000D01*
X142530000Y-128650000D02*
X140334000Y-128650000D01*
X146680000Y-128690000D02*
X144490000Y-128690000D01*
X142530000Y-128690000D02*
X140340000Y-128690000D01*
X146675000Y-128730000D02*
X144490000Y-128730000D01*
X142530000Y-128730000D02*
X140345000Y-128730000D01*
X146668000Y-128770000D02*
X144490000Y-128770000D01*
X142530000Y-128770000D02*
X140352000Y-128770000D01*
X146662000Y-128810000D02*
X144490000Y-128810000D01*
X142530000Y-128810000D02*
X140358000Y-128810000D01*
X146654000Y-128850000D02*
X144490000Y-128850000D01*
X142530000Y-128850000D02*
X140366000Y-128850000D01*
X146647000Y-128890000D02*
X144490000Y-128890000D01*
X142530000Y-128890000D02*
X140373000Y-128890000D01*
X146638000Y-128930000D02*
X144490000Y-128930000D01*
X142530000Y-128930000D02*
X140382000Y-128930000D01*
X146629000Y-128971000D02*
X144490000Y-128971000D01*
X142530000Y-128971000D02*
X140391000Y-128971000D01*
X146620000Y-129011000D02*
X144490000Y-129011000D01*
X142530000Y-129011000D02*
X140400000Y-129011000D01*
X146610000Y-129051000D02*
X144490000Y-129051000D01*
X142530000Y-129051000D02*
X140410000Y-129051000D01*
X146600000Y-129091000D02*
X144490000Y-129091000D01*
X142530000Y-129091000D02*
X140420000Y-129091000D01*
X146589000Y-129131000D02*
X144490000Y-129131000D01*
X142530000Y-129131000D02*
X140431000Y-129131000D01*
X146577000Y-129171000D02*
X144490000Y-129171000D01*
X142530000Y-129171000D02*
X140443000Y-129171000D01*
X146565000Y-129211000D02*
X144490000Y-129211000D01*
X142530000Y-129211000D02*
X140455000Y-129211000D01*
X146552000Y-129251000D02*
X144490000Y-129251000D01*
X142530000Y-129251000D02*
X140468000Y-129251000D01*
X146539000Y-129291000D02*
X144490000Y-129291000D01*
X142530000Y-129291000D02*
X140481000Y-129291000D01*
X146525000Y-129331000D02*
X144490000Y-129331000D01*
X142530000Y-129331000D02*
X140495000Y-129331000D01*
X146511000Y-129371000D02*
X144490000Y-129371000D01*
X142530000Y-129371000D02*
X140509000Y-129371000D01*
X146496000Y-129411000D02*
X144490000Y-129411000D01*
X142530000Y-129411000D02*
X140524000Y-129411000D01*
X146480000Y-129451000D02*
X144490000Y-129451000D01*
X142530000Y-129451000D02*
X140540000Y-129451000D01*
X146464000Y-129491000D02*
X144490000Y-129491000D01*
X142530000Y-129491000D02*
X140556000Y-129491000D01*
X146447000Y-129531000D02*
X144490000Y-129531000D01*
X142530000Y-129531000D02*
X140573000Y-129531000D01*
X146429000Y-129571000D02*
X144490000Y-129571000D01*
X142530000Y-129571000D02*
X140591000Y-129571000D01*
X146411000Y-129611000D02*
X144490000Y-129611000D01*
X142530000Y-129611000D02*
X140609000Y-129611000D01*
X146392000Y-129651000D02*
X144490000Y-129651000D01*
X142530000Y-129651000D02*
X140628000Y-129651000D01*
X146373000Y-129691000D02*
X144490000Y-129691000D01*
X142530000Y-129691000D02*
X140647000Y-129691000D01*
X146353000Y-129731000D02*
X144490000Y-129731000D01*
X142530000Y-129731000D02*
X140667000Y-129731000D01*
X146332000Y-129771000D02*
X144490000Y-129771000D01*
X142530000Y-129771000D02*
X140688000Y-129771000D01*
X146310000Y-129811000D02*
X144490000Y-129811000D01*
X142530000Y-129811000D02*
X140710000Y-129811000D01*
X146288000Y-129851000D02*
X144490000Y-129851000D01*
X142530000Y-129851000D02*
X140732000Y-129851000D01*
X146265000Y-129891000D02*
X144490000Y-129891000D01*
X142530000Y-129891000D02*
X140755000Y-129891000D01*
X146241000Y-129931000D02*
X144490000Y-129931000D01*
X142530000Y-129931000D02*
X140779000Y-129931000D01*
X146216000Y-129971000D02*
X144490000Y-129971000D01*
X142530000Y-129971000D02*
X140804000Y-129971000D01*
X146191000Y-130011000D02*
X144490000Y-130011000D01*
X142530000Y-130011000D02*
X140829000Y-130011000D01*
X146164000Y-130051000D02*
X144490000Y-130051000D01*
X142530000Y-130051000D02*
X140856000Y-130051000D01*
X146137000Y-130091000D02*
X144490000Y-130091000D01*
X142530000Y-130091000D02*
X140883000Y-130091000D01*
X146109000Y-130131000D02*
X144490000Y-130131000D01*
X142530000Y-130131000D02*
X140911000Y-130131000D01*
X146080000Y-130171000D02*
X144490000Y-130171000D01*
X142530000Y-130171000D02*
X140940000Y-130171000D01*
X146050000Y-130211000D02*
X144490000Y-130211000D01*
X142530000Y-130211000D02*
X140970000Y-130211000D01*
X146020000Y-130251000D02*
X144490000Y-130251000D01*
X142530000Y-130251000D02*
X141000000Y-130251000D01*
X145988000Y-130291000D02*
X144490000Y-130291000D01*
X142530000Y-130291000D02*
X141032000Y-130291000D01*
X145955000Y-130331000D02*
X144490000Y-130331000D01*
X142530000Y-130331000D02*
X141065000Y-130331000D01*
X145921000Y-130371000D02*
X144490000Y-130371000D01*
X142530000Y-130371000D02*
X141099000Y-130371000D01*
X145885000Y-130411000D02*
X144490000Y-130411000D01*
X142530000Y-130411000D02*
X141135000Y-130411000D01*
X145849000Y-130451000D02*
X144490000Y-130451000D01*
X142530000Y-130451000D02*
X141171000Y-130451000D01*
X145811000Y-130491000D02*
X141209000Y-130491000D01*
X145772000Y-130531000D02*
X141248000Y-130531000D01*
X145732000Y-130571000D02*
X141288000Y-130571000D01*
X145690000Y-130611000D02*
X141330000Y-130611000D01*
X145647000Y-130651000D02*
X141373000Y-130651000D01*
X145602000Y-130691000D02*
X141418000Y-130691000D01*
X145555000Y-130731000D02*
X141465000Y-130731000D01*
X145507000Y-130771000D02*
X141513000Y-130771000D01*
X145456000Y-130811000D02*
X141564000Y-130811000D01*
X145404000Y-130851000D02*
X141616000Y-130851000D01*
X145349000Y-130891000D02*
X141671000Y-130891000D01*
X145291000Y-130931000D02*
X141729000Y-130931000D01*
X145231000Y-130971000D02*
X141789000Y-130971000D01*
X145168000Y-131011000D02*
X141852000Y-131011000D01*
X145101000Y-131051000D02*
X141919000Y-131051000D01*
X145030000Y-131091000D02*
X141990000Y-131091000D01*
X144955000Y-131131000D02*
X142065000Y-131131000D01*
X144874000Y-131171000D02*
X142146000Y-131171000D01*
X144788000Y-131211000D02*
X142232000Y-131211000D01*
X144694000Y-131251000D02*
X142326000Y-131251000D01*
X144591000Y-131291000D02*
X142429000Y-131291000D01*
X144476000Y-131331000D02*
X142544000Y-131331000D01*
X144344000Y-131371000D02*
X142676000Y-131371000D01*
X144186000Y-131411000D02*
X142834000Y-131411000D01*
X143978000Y-131451000D02*
X143042000Y-131451000D01*
X143510000Y-124800000D02*
X143510000Y-126000000D01*
X144160000Y-125400000D02*
X142860000Y-125400000D01*
X144489357Y-131338440D02*
G75*
G03X144490000Y-125161764I-979357J3088440D01*
G01*
X142530643Y-131338440D02*
G75*
G02X142530000Y-125161764I979357J3088440D01*
G01*
X142530643Y-131338440D02*
G75*
G03X144490000Y-131338236I979357J3088440D01*
G01*
X139090000Y-128250000D02*
X132690000Y-128250000D01*
X139090000Y-128290000D02*
X132690000Y-128290000D01*
X139090000Y-128330000D02*
X132690000Y-128330000D01*
X139088000Y-128370000D02*
X132692000Y-128370000D01*
X139087000Y-128410000D02*
X132693000Y-128410000D01*
X139084000Y-128450000D02*
X132696000Y-128450000D01*
X139082000Y-128490000D02*
X132698000Y-128490000D01*
X139078000Y-128530000D02*
X136870000Y-128530000D01*
X134910000Y-128530000D02*
X132702000Y-128530000D01*
X139075000Y-128570000D02*
X136870000Y-128570000D01*
X134910000Y-128570000D02*
X132705000Y-128570000D01*
X139070000Y-128610000D02*
X136870000Y-128610000D01*
X134910000Y-128610000D02*
X132710000Y-128610000D01*
X139066000Y-128650000D02*
X136870000Y-128650000D01*
X134910000Y-128650000D02*
X132714000Y-128650000D01*
X139060000Y-128690000D02*
X136870000Y-128690000D01*
X134910000Y-128690000D02*
X132720000Y-128690000D01*
X139055000Y-128730000D02*
X136870000Y-128730000D01*
X134910000Y-128730000D02*
X132725000Y-128730000D01*
X139048000Y-128770000D02*
X136870000Y-128770000D01*
X134910000Y-128770000D02*
X132732000Y-128770000D01*
X139042000Y-128810000D02*
X136870000Y-128810000D01*
X134910000Y-128810000D02*
X132738000Y-128810000D01*
X139034000Y-128850000D02*
X136870000Y-128850000D01*
X134910000Y-128850000D02*
X132746000Y-128850000D01*
X139027000Y-128890000D02*
X136870000Y-128890000D01*
X134910000Y-128890000D02*
X132753000Y-128890000D01*
X139018000Y-128930000D02*
X136870000Y-128930000D01*
X134910000Y-128930000D02*
X132762000Y-128930000D01*
X139009000Y-128971000D02*
X136870000Y-128971000D01*
X134910000Y-128971000D02*
X132771000Y-128971000D01*
X139000000Y-129011000D02*
X136870000Y-129011000D01*
X134910000Y-129011000D02*
X132780000Y-129011000D01*
X138990000Y-129051000D02*
X136870000Y-129051000D01*
X134910000Y-129051000D02*
X132790000Y-129051000D01*
X138980000Y-129091000D02*
X136870000Y-129091000D01*
X134910000Y-129091000D02*
X132800000Y-129091000D01*
X138969000Y-129131000D02*
X136870000Y-129131000D01*
X134910000Y-129131000D02*
X132811000Y-129131000D01*
X138957000Y-129171000D02*
X136870000Y-129171000D01*
X134910000Y-129171000D02*
X132823000Y-129171000D01*
X138945000Y-129211000D02*
X136870000Y-129211000D01*
X134910000Y-129211000D02*
X132835000Y-129211000D01*
X138932000Y-129251000D02*
X136870000Y-129251000D01*
X134910000Y-129251000D02*
X132848000Y-129251000D01*
X138919000Y-129291000D02*
X136870000Y-129291000D01*
X134910000Y-129291000D02*
X132861000Y-129291000D01*
X138905000Y-129331000D02*
X136870000Y-129331000D01*
X134910000Y-129331000D02*
X132875000Y-129331000D01*
X138891000Y-129371000D02*
X136870000Y-129371000D01*
X134910000Y-129371000D02*
X132889000Y-129371000D01*
X138876000Y-129411000D02*
X136870000Y-129411000D01*
X134910000Y-129411000D02*
X132904000Y-129411000D01*
X138860000Y-129451000D02*
X136870000Y-129451000D01*
X134910000Y-129451000D02*
X132920000Y-129451000D01*
X138844000Y-129491000D02*
X136870000Y-129491000D01*
X134910000Y-129491000D02*
X132936000Y-129491000D01*
X138827000Y-129531000D02*
X136870000Y-129531000D01*
X134910000Y-129531000D02*
X132953000Y-129531000D01*
X138809000Y-129571000D02*
X136870000Y-129571000D01*
X134910000Y-129571000D02*
X132971000Y-129571000D01*
X138791000Y-129611000D02*
X136870000Y-129611000D01*
X134910000Y-129611000D02*
X132989000Y-129611000D01*
X138772000Y-129651000D02*
X136870000Y-129651000D01*
X134910000Y-129651000D02*
X133008000Y-129651000D01*
X138753000Y-129691000D02*
X136870000Y-129691000D01*
X134910000Y-129691000D02*
X133027000Y-129691000D01*
X138733000Y-129731000D02*
X136870000Y-129731000D01*
X134910000Y-129731000D02*
X133047000Y-129731000D01*
X138712000Y-129771000D02*
X136870000Y-129771000D01*
X134910000Y-129771000D02*
X133068000Y-129771000D01*
X138690000Y-129811000D02*
X136870000Y-129811000D01*
X134910000Y-129811000D02*
X133090000Y-129811000D01*
X138668000Y-129851000D02*
X136870000Y-129851000D01*
X134910000Y-129851000D02*
X133112000Y-129851000D01*
X138645000Y-129891000D02*
X136870000Y-129891000D01*
X134910000Y-129891000D02*
X133135000Y-129891000D01*
X138621000Y-129931000D02*
X136870000Y-129931000D01*
X134910000Y-129931000D02*
X133159000Y-129931000D01*
X138596000Y-129971000D02*
X136870000Y-129971000D01*
X134910000Y-129971000D02*
X133184000Y-129971000D01*
X138571000Y-130011000D02*
X136870000Y-130011000D01*
X134910000Y-130011000D02*
X133209000Y-130011000D01*
X138544000Y-130051000D02*
X136870000Y-130051000D01*
X134910000Y-130051000D02*
X133236000Y-130051000D01*
X138517000Y-130091000D02*
X136870000Y-130091000D01*
X134910000Y-130091000D02*
X133263000Y-130091000D01*
X138489000Y-130131000D02*
X136870000Y-130131000D01*
X134910000Y-130131000D02*
X133291000Y-130131000D01*
X138460000Y-130171000D02*
X136870000Y-130171000D01*
X134910000Y-130171000D02*
X133320000Y-130171000D01*
X138430000Y-130211000D02*
X136870000Y-130211000D01*
X134910000Y-130211000D02*
X133350000Y-130211000D01*
X138400000Y-130251000D02*
X136870000Y-130251000D01*
X134910000Y-130251000D02*
X133380000Y-130251000D01*
X138368000Y-130291000D02*
X136870000Y-130291000D01*
X134910000Y-130291000D02*
X133412000Y-130291000D01*
X138335000Y-130331000D02*
X136870000Y-130331000D01*
X134910000Y-130331000D02*
X133445000Y-130331000D01*
X138301000Y-130371000D02*
X136870000Y-130371000D01*
X134910000Y-130371000D02*
X133479000Y-130371000D01*
X138265000Y-130411000D02*
X136870000Y-130411000D01*
X134910000Y-130411000D02*
X133515000Y-130411000D01*
X138229000Y-130451000D02*
X136870000Y-130451000D01*
X134910000Y-130451000D02*
X133551000Y-130451000D01*
X138191000Y-130491000D02*
X133589000Y-130491000D01*
X138152000Y-130531000D02*
X133628000Y-130531000D01*
X138112000Y-130571000D02*
X133668000Y-130571000D01*
X138070000Y-130611000D02*
X133710000Y-130611000D01*
X138027000Y-130651000D02*
X133753000Y-130651000D01*
X137982000Y-130691000D02*
X133798000Y-130691000D01*
X137935000Y-130731000D02*
X133845000Y-130731000D01*
X137887000Y-130771000D02*
X133893000Y-130771000D01*
X137836000Y-130811000D02*
X133944000Y-130811000D01*
X137784000Y-130851000D02*
X133996000Y-130851000D01*
X137729000Y-130891000D02*
X134051000Y-130891000D01*
X137671000Y-130931000D02*
X134109000Y-130931000D01*
X137611000Y-130971000D02*
X134169000Y-130971000D01*
X137548000Y-131011000D02*
X134232000Y-131011000D01*
X137481000Y-131051000D02*
X134299000Y-131051000D01*
X137410000Y-131091000D02*
X134370000Y-131091000D01*
X137335000Y-131131000D02*
X134445000Y-131131000D01*
X137254000Y-131171000D02*
X134526000Y-131171000D01*
X137168000Y-131211000D02*
X134612000Y-131211000D01*
X137074000Y-131251000D02*
X134706000Y-131251000D01*
X136971000Y-131291000D02*
X134809000Y-131291000D01*
X136856000Y-131331000D02*
X134924000Y-131331000D01*
X136724000Y-131371000D02*
X135056000Y-131371000D01*
X136566000Y-131411000D02*
X135214000Y-131411000D01*
X136358000Y-131451000D02*
X135422000Y-131451000D01*
X135890000Y-124800000D02*
X135890000Y-126000000D01*
X136540000Y-125400000D02*
X135240000Y-125400000D01*
X136869357Y-131338440D02*
G75*
G03X136870000Y-125161764I-979357J3088440D01*
G01*
X134910643Y-131338440D02*
G75*
G02X134910000Y-125161764I979357J3088440D01*
G01*
X134910643Y-131338440D02*
G75*
G03X136870000Y-131338236I979357J3088440D01*
G01*
D12*
G36*
X64730794Y-158834626D02*
X64863382Y-158856987D01*
X64993076Y-158889578D01*
X65088555Y-158924144D01*
X65241866Y-159016884D01*
X65338881Y-159141082D01*
X65389052Y-159310683D01*
X65396963Y-159379286D01*
X65402411Y-159485264D01*
X65389876Y-159559205D01*
X65348596Y-159627700D01*
X65267809Y-159717341D01*
X65254528Y-159731220D01*
X65105975Y-159871224D01*
X64942980Y-159991312D01*
X64745198Y-160105089D01*
X64561357Y-160194664D01*
X64413909Y-160269560D01*
X64336466Y-160325508D01*
X64328994Y-160362565D01*
X64391460Y-160380785D01*
X64444959Y-160382857D01*
X64582727Y-160393945D01*
X64763335Y-160423528D01*
X64961138Y-160466090D01*
X65150492Y-160516111D01*
X65305755Y-160568074D01*
X65305864Y-160568117D01*
X65407449Y-160605942D01*
X65476225Y-160627350D01*
X65493907Y-160629116D01*
X65510369Y-160589912D01*
X65545536Y-160498485D01*
X65593491Y-160370879D01*
X65648317Y-160223140D01*
X65704095Y-160071310D01*
X65754911Y-159931434D01*
X65794845Y-159819556D01*
X65817982Y-159751720D01*
X65820240Y-159744266D01*
X65818471Y-159685668D01*
X65775983Y-159612431D01*
X65684519Y-159510866D01*
X65671574Y-159497837D01*
X65581504Y-159403597D01*
X65538273Y-159343660D01*
X65534377Y-159304224D01*
X65552940Y-159279630D01*
X65605572Y-159256015D01*
X65716608Y-159222551D01*
X65873012Y-159182150D01*
X66061747Y-159137727D01*
X66269776Y-159092194D01*
X66484063Y-159048463D01*
X66691571Y-159009447D01*
X66879264Y-158978059D01*
X66947143Y-158968116D01*
X67090941Y-158952337D01*
X67254243Y-158940868D01*
X67419942Y-158934076D01*
X67570931Y-158932329D01*
X67690104Y-158935995D01*
X67760355Y-158945442D01*
X67770472Y-158950424D01*
X67779143Y-158996705D01*
X67773106Y-159055012D01*
X67723608Y-159138578D01*
X67624947Y-159198799D01*
X67500929Y-159221714D01*
X67447805Y-159226420D01*
X67461618Y-159250035D01*
X67483466Y-159267071D01*
X67512862Y-159307344D01*
X67537245Y-159386163D01*
X67558843Y-159514147D01*
X67579881Y-159701917D01*
X67584243Y-159747857D01*
X67601386Y-159922096D01*
X67617979Y-160072627D01*
X67632104Y-160183127D01*
X67641684Y-160236783D01*
X67663444Y-160226704D01*
X67711456Y-160161055D01*
X67764331Y-160074428D01*
X68162715Y-160074428D01*
X68180857Y-160092571D01*
X68199000Y-160074428D01*
X68180857Y-160056286D01*
X68162715Y-160074428D01*
X67764331Y-160074428D01*
X67779692Y-160049262D01*
X67862126Y-159900751D01*
X67888878Y-159850151D01*
X68038081Y-159571909D01*
X68165423Y-159349147D01*
X68269191Y-159184562D01*
X68347674Y-159080849D01*
X68399158Y-159040705D01*
X68403179Y-159040286D01*
X68452201Y-159011343D01*
X68464771Y-158989378D01*
X68508400Y-158955540D01*
X68586369Y-158941519D01*
X68669893Y-158946714D01*
X68730185Y-158970525D01*
X68743286Y-158995190D01*
X68761377Y-159027949D01*
X68776472Y-159024058D01*
X68816026Y-159017658D01*
X68821772Y-159060022D01*
X68796376Y-159137171D01*
X68742501Y-159235128D01*
X68733713Y-159248413D01*
X68663124Y-159357808D01*
X68577277Y-159498053D01*
X68483675Y-159655987D01*
X68389823Y-159818447D01*
X68303224Y-159972271D01*
X68231383Y-160104299D01*
X68181802Y-160201368D01*
X68161985Y-160250317D01*
X68161908Y-160251367D01*
X68140593Y-160306631D01*
X68090439Y-160382478D01*
X68090143Y-160382857D01*
X68039752Y-160460324D01*
X68018378Y-160518928D01*
X67987755Y-160557649D01*
X67954072Y-160564841D01*
X67913626Y-160571813D01*
X67940578Y-160597070D01*
X67969471Y-160641913D01*
X67953295Y-160683822D01*
X67907349Y-160691281D01*
X67897136Y-160686554D01*
X67873216Y-160679193D01*
X67892713Y-160704432D01*
X67907279Y-160756598D01*
X67892157Y-160856268D01*
X67856427Y-160981123D01*
X67781715Y-161215878D01*
X67631520Y-161216653D01*
X67502293Y-161203726D01*
X67409745Y-161156139D01*
X67344170Y-161063017D01*
X67295860Y-160913485D01*
X67275917Y-160818285D01*
X67267862Y-160763857D01*
X67836143Y-160763857D01*
X67854286Y-160782000D01*
X67872429Y-160763857D01*
X67854286Y-160745714D01*
X67836143Y-160763857D01*
X67267862Y-160763857D01*
X67257943Y-160696835D01*
X67239273Y-160526881D01*
X67224630Y-160364714D01*
X67945000Y-160364714D01*
X67963143Y-160382857D01*
X67981286Y-160364714D01*
X68017572Y-160364714D01*
X68035715Y-160382857D01*
X68053857Y-160364714D01*
X68035715Y-160346571D01*
X68017572Y-160364714D01*
X67981286Y-160364714D01*
X67963143Y-160346571D01*
X67945000Y-160364714D01*
X67224630Y-160364714D01*
X67220989Y-160324396D01*
X67218513Y-160292143D01*
X67981286Y-160292143D01*
X67999429Y-160310286D01*
X68017572Y-160292143D01*
X67999429Y-160274000D01*
X67981286Y-160292143D01*
X67218513Y-160292143D01*
X67204169Y-160105354D01*
X67189893Y-159885728D01*
X67179242Y-159681490D01*
X67173296Y-159508613D01*
X67173133Y-159383072D01*
X67175942Y-159339643D01*
X67167705Y-159273597D01*
X67116969Y-159262143D01*
X67046436Y-159288887D01*
X66962704Y-159323982D01*
X66854610Y-159361648D01*
X66740920Y-159396480D01*
X66640401Y-159423077D01*
X66571819Y-159436034D01*
X66553289Y-159430871D01*
X66544323Y-159418646D01*
X66506440Y-159434101D01*
X66420387Y-159473809D01*
X66379296Y-159488668D01*
X66337467Y-159527639D01*
X66292444Y-159604359D01*
X66256297Y-159691665D01*
X66241097Y-159762393D01*
X66247261Y-159785784D01*
X66288238Y-159788540D01*
X66378594Y-159780136D01*
X66465719Y-159767580D01*
X66596837Y-159754671D01*
X66718796Y-159756768D01*
X66813597Y-159771783D01*
X66863241Y-159797627D01*
X66865500Y-159813968D01*
X66858313Y-159866378D01*
X66856429Y-159922604D01*
X66822968Y-159996851D01*
X66730977Y-160077085D01*
X66593041Y-160154833D01*
X66421746Y-160221622D01*
X66404054Y-160227133D01*
X66304655Y-160251464D01*
X66242595Y-160245142D01*
X66195188Y-160212243D01*
X66140489Y-160172720D01*
X66115677Y-160168389D01*
X66088112Y-160219123D01*
X66055106Y-160309967D01*
X66022744Y-160418761D01*
X65997108Y-160523344D01*
X65984283Y-160601558D01*
X65988650Y-160631065D01*
X66035286Y-160623499D01*
X66132368Y-160593087D01*
X66263510Y-160545268D01*
X66350753Y-160510876D01*
X66565841Y-160433434D01*
X66727756Y-160396395D01*
X66834297Y-160400040D01*
X66882731Y-160442946D01*
X66868438Y-160495086D01*
X66816419Y-160572349D01*
X66745044Y-160653817D01*
X66672687Y-160718573D01*
X66617718Y-160745699D01*
X66616813Y-160745714D01*
X66570960Y-160764560D01*
X66566143Y-160778450D01*
X66535607Y-160811634D01*
X66461519Y-160847613D01*
X66455681Y-160849693D01*
X66343084Y-160900561D01*
X66244825Y-160959688D01*
X66139006Y-161019537D01*
X66037787Y-161057317D01*
X65952972Y-161088366D01*
X65904962Y-161123230D01*
X65863091Y-161142198D01*
X65814247Y-161117419D01*
X65698384Y-161048646D01*
X65541521Y-160972304D01*
X65368431Y-160898778D01*
X65203883Y-160838453D01*
X65072650Y-160801716D01*
X65052749Y-160798140D01*
X64955623Y-160788158D01*
X64810312Y-160779137D01*
X64641202Y-160772438D01*
X64555652Y-160770390D01*
X64196161Y-160763857D01*
X64143409Y-160952134D01*
X64101326Y-161073556D01*
X64049700Y-161147075D01*
X63971469Y-161196970D01*
X63971273Y-161197063D01*
X63878363Y-161238870D01*
X63828902Y-161250386D01*
X63801575Y-161234064D01*
X63790549Y-161217854D01*
X63782129Y-161164726D01*
X63783070Y-161063906D01*
X63790463Y-160966231D01*
X63799998Y-160842324D01*
X63794189Y-160770308D01*
X63769437Y-160730459D01*
X63744418Y-160714010D01*
X63683704Y-160655108D01*
X63624662Y-160558028D01*
X63579992Y-160450184D01*
X63562390Y-160358989D01*
X63566763Y-160330480D01*
X63610361Y-160282410D01*
X63696639Y-160224025D01*
X63749467Y-160195928D01*
X63910575Y-160117656D01*
X63945432Y-159884630D01*
X64292751Y-159884630D01*
X64301622Y-159911143D01*
X64342060Y-159895367D01*
X64429643Y-159853467D01*
X64547544Y-159793581D01*
X64582987Y-159775071D01*
X64735068Y-159685245D01*
X64886260Y-159579753D01*
X65004193Y-159481207D01*
X65005579Y-159479863D01*
X65169143Y-159320726D01*
X65052009Y-159271440D01*
X64955795Y-159245124D01*
X64817429Y-159223995D01*
X64671218Y-159212863D01*
X64407561Y-159203571D01*
X64368003Y-159403143D01*
X64324833Y-159632108D01*
X64299806Y-159792166D01*
X64292751Y-159884630D01*
X63945432Y-159884630D01*
X63951803Y-159842042D01*
X63975594Y-159699507D01*
X64006593Y-159536632D01*
X64041208Y-159369696D01*
X64075847Y-159214976D01*
X64106918Y-159088753D01*
X64130828Y-159007304D01*
X64140657Y-158986248D01*
X64183000Y-158970089D01*
X64254057Y-158954124D01*
X64400570Y-158920356D01*
X64479661Y-158883589D01*
X64497857Y-158851372D01*
X64529812Y-158829574D01*
X64613531Y-158824740D01*
X64730794Y-158834626D01*
X64730794Y-158834626D01*
G37*
X64730794Y-158834626D02*
X64863382Y-158856987D01*
X64993076Y-158889578D01*
X65088555Y-158924144D01*
X65241866Y-159016884D01*
X65338881Y-159141082D01*
X65389052Y-159310683D01*
X65396963Y-159379286D01*
X65402411Y-159485264D01*
X65389876Y-159559205D01*
X65348596Y-159627700D01*
X65267809Y-159717341D01*
X65254528Y-159731220D01*
X65105975Y-159871224D01*
X64942980Y-159991312D01*
X64745198Y-160105089D01*
X64561357Y-160194664D01*
X64413909Y-160269560D01*
X64336466Y-160325508D01*
X64328994Y-160362565D01*
X64391460Y-160380785D01*
X64444959Y-160382857D01*
X64582727Y-160393945D01*
X64763335Y-160423528D01*
X64961138Y-160466090D01*
X65150492Y-160516111D01*
X65305755Y-160568074D01*
X65305864Y-160568117D01*
X65407449Y-160605942D01*
X65476225Y-160627350D01*
X65493907Y-160629116D01*
X65510369Y-160589912D01*
X65545536Y-160498485D01*
X65593491Y-160370879D01*
X65648317Y-160223140D01*
X65704095Y-160071310D01*
X65754911Y-159931434D01*
X65794845Y-159819556D01*
X65817982Y-159751720D01*
X65820240Y-159744266D01*
X65818471Y-159685668D01*
X65775983Y-159612431D01*
X65684519Y-159510866D01*
X65671574Y-159497837D01*
X65581504Y-159403597D01*
X65538273Y-159343660D01*
X65534377Y-159304224D01*
X65552940Y-159279630D01*
X65605572Y-159256015D01*
X65716608Y-159222551D01*
X65873012Y-159182150D01*
X66061747Y-159137727D01*
X66269776Y-159092194D01*
X66484063Y-159048463D01*
X66691571Y-159009447D01*
X66879264Y-158978059D01*
X66947143Y-158968116D01*
X67090941Y-158952337D01*
X67254243Y-158940868D01*
X67419942Y-158934076D01*
X67570931Y-158932329D01*
X67690104Y-158935995D01*
X67760355Y-158945442D01*
X67770472Y-158950424D01*
X67779143Y-158996705D01*
X67773106Y-159055012D01*
X67723608Y-159138578D01*
X67624947Y-159198799D01*
X67500929Y-159221714D01*
X67447805Y-159226420D01*
X67461618Y-159250035D01*
X67483466Y-159267071D01*
X67512862Y-159307344D01*
X67537245Y-159386163D01*
X67558843Y-159514147D01*
X67579881Y-159701917D01*
X67584243Y-159747857D01*
X67601386Y-159922096D01*
X67617979Y-160072627D01*
X67632104Y-160183127D01*
X67641684Y-160236783D01*
X67663444Y-160226704D01*
X67711456Y-160161055D01*
X67764331Y-160074428D01*
X68162715Y-160074428D01*
X68180857Y-160092571D01*
X68199000Y-160074428D01*
X68180857Y-160056286D01*
X68162715Y-160074428D01*
X67764331Y-160074428D01*
X67779692Y-160049262D01*
X67862126Y-159900751D01*
X67888878Y-159850151D01*
X68038081Y-159571909D01*
X68165423Y-159349147D01*
X68269191Y-159184562D01*
X68347674Y-159080849D01*
X68399158Y-159040705D01*
X68403179Y-159040286D01*
X68452201Y-159011343D01*
X68464771Y-158989378D01*
X68508400Y-158955540D01*
X68586369Y-158941519D01*
X68669893Y-158946714D01*
X68730185Y-158970525D01*
X68743286Y-158995190D01*
X68761377Y-159027949D01*
X68776472Y-159024058D01*
X68816026Y-159017658D01*
X68821772Y-159060022D01*
X68796376Y-159137171D01*
X68742501Y-159235128D01*
X68733713Y-159248413D01*
X68663124Y-159357808D01*
X68577277Y-159498053D01*
X68483675Y-159655987D01*
X68389823Y-159818447D01*
X68303224Y-159972271D01*
X68231383Y-160104299D01*
X68181802Y-160201368D01*
X68161985Y-160250317D01*
X68161908Y-160251367D01*
X68140593Y-160306631D01*
X68090439Y-160382478D01*
X68090143Y-160382857D01*
X68039752Y-160460324D01*
X68018378Y-160518928D01*
X67987755Y-160557649D01*
X67954072Y-160564841D01*
X67913626Y-160571813D01*
X67940578Y-160597070D01*
X67969471Y-160641913D01*
X67953295Y-160683822D01*
X67907349Y-160691281D01*
X67897136Y-160686554D01*
X67873216Y-160679193D01*
X67892713Y-160704432D01*
X67907279Y-160756598D01*
X67892157Y-160856268D01*
X67856427Y-160981123D01*
X67781715Y-161215878D01*
X67631520Y-161216653D01*
X67502293Y-161203726D01*
X67409745Y-161156139D01*
X67344170Y-161063017D01*
X67295860Y-160913485D01*
X67275917Y-160818285D01*
X67267862Y-160763857D01*
X67836143Y-160763857D01*
X67854286Y-160782000D01*
X67872429Y-160763857D01*
X67854286Y-160745714D01*
X67836143Y-160763857D01*
X67267862Y-160763857D01*
X67257943Y-160696835D01*
X67239273Y-160526881D01*
X67224630Y-160364714D01*
X67945000Y-160364714D01*
X67963143Y-160382857D01*
X67981286Y-160364714D01*
X68017572Y-160364714D01*
X68035715Y-160382857D01*
X68053857Y-160364714D01*
X68035715Y-160346571D01*
X68017572Y-160364714D01*
X67981286Y-160364714D01*
X67963143Y-160346571D01*
X67945000Y-160364714D01*
X67224630Y-160364714D01*
X67220989Y-160324396D01*
X67218513Y-160292143D01*
X67981286Y-160292143D01*
X67999429Y-160310286D01*
X68017572Y-160292143D01*
X67999429Y-160274000D01*
X67981286Y-160292143D01*
X67218513Y-160292143D01*
X67204169Y-160105354D01*
X67189893Y-159885728D01*
X67179242Y-159681490D01*
X67173296Y-159508613D01*
X67173133Y-159383072D01*
X67175942Y-159339643D01*
X67167705Y-159273597D01*
X67116969Y-159262143D01*
X67046436Y-159288887D01*
X66962704Y-159323982D01*
X66854610Y-159361648D01*
X66740920Y-159396480D01*
X66640401Y-159423077D01*
X66571819Y-159436034D01*
X66553289Y-159430871D01*
X66544323Y-159418646D01*
X66506440Y-159434101D01*
X66420387Y-159473809D01*
X66379296Y-159488668D01*
X66337467Y-159527639D01*
X66292444Y-159604359D01*
X66256297Y-159691665D01*
X66241097Y-159762393D01*
X66247261Y-159785784D01*
X66288238Y-159788540D01*
X66378594Y-159780136D01*
X66465719Y-159767580D01*
X66596837Y-159754671D01*
X66718796Y-159756768D01*
X66813597Y-159771783D01*
X66863241Y-159797627D01*
X66865500Y-159813968D01*
X66858313Y-159866378D01*
X66856429Y-159922604D01*
X66822968Y-159996851D01*
X66730977Y-160077085D01*
X66593041Y-160154833D01*
X66421746Y-160221622D01*
X66404054Y-160227133D01*
X66304655Y-160251464D01*
X66242595Y-160245142D01*
X66195188Y-160212243D01*
X66140489Y-160172720D01*
X66115677Y-160168389D01*
X66088112Y-160219123D01*
X66055106Y-160309967D01*
X66022744Y-160418761D01*
X65997108Y-160523344D01*
X65984283Y-160601558D01*
X65988650Y-160631065D01*
X66035286Y-160623499D01*
X66132368Y-160593087D01*
X66263510Y-160545268D01*
X66350753Y-160510876D01*
X66565841Y-160433434D01*
X66727756Y-160396395D01*
X66834297Y-160400040D01*
X66882731Y-160442946D01*
X66868438Y-160495086D01*
X66816419Y-160572349D01*
X66745044Y-160653817D01*
X66672687Y-160718573D01*
X66617718Y-160745699D01*
X66616813Y-160745714D01*
X66570960Y-160764560D01*
X66566143Y-160778450D01*
X66535607Y-160811634D01*
X66461519Y-160847613D01*
X66455681Y-160849693D01*
X66343084Y-160900561D01*
X66244825Y-160959688D01*
X66139006Y-161019537D01*
X66037787Y-161057317D01*
X65952972Y-161088366D01*
X65904962Y-161123230D01*
X65863091Y-161142198D01*
X65814247Y-161117419D01*
X65698384Y-161048646D01*
X65541521Y-160972304D01*
X65368431Y-160898778D01*
X65203883Y-160838453D01*
X65072650Y-160801716D01*
X65052749Y-160798140D01*
X64955623Y-160788158D01*
X64810312Y-160779137D01*
X64641202Y-160772438D01*
X64555652Y-160770390D01*
X64196161Y-160763857D01*
X64143409Y-160952134D01*
X64101326Y-161073556D01*
X64049700Y-161147075D01*
X63971469Y-161196970D01*
X63971273Y-161197063D01*
X63878363Y-161238870D01*
X63828902Y-161250386D01*
X63801575Y-161234064D01*
X63790549Y-161217854D01*
X63782129Y-161164726D01*
X63783070Y-161063906D01*
X63790463Y-160966231D01*
X63799998Y-160842324D01*
X63794189Y-160770308D01*
X63769437Y-160730459D01*
X63744418Y-160714010D01*
X63683704Y-160655108D01*
X63624662Y-160558028D01*
X63579992Y-160450184D01*
X63562390Y-160358989D01*
X63566763Y-160330480D01*
X63610361Y-160282410D01*
X63696639Y-160224025D01*
X63749467Y-160195928D01*
X63910575Y-160117656D01*
X63945432Y-159884630D01*
X64292751Y-159884630D01*
X64301622Y-159911143D01*
X64342060Y-159895367D01*
X64429643Y-159853467D01*
X64547544Y-159793581D01*
X64582987Y-159775071D01*
X64735068Y-159685245D01*
X64886260Y-159579753D01*
X65004193Y-159481207D01*
X65005579Y-159479863D01*
X65169143Y-159320726D01*
X65052009Y-159271440D01*
X64955795Y-159245124D01*
X64817429Y-159223995D01*
X64671218Y-159212863D01*
X64407561Y-159203571D01*
X64368003Y-159403143D01*
X64324833Y-159632108D01*
X64299806Y-159792166D01*
X64292751Y-159884630D01*
X63945432Y-159884630D01*
X63951803Y-159842042D01*
X63975594Y-159699507D01*
X64006593Y-159536632D01*
X64041208Y-159369696D01*
X64075847Y-159214976D01*
X64106918Y-159088753D01*
X64130828Y-159007304D01*
X64140657Y-158986248D01*
X64183000Y-158970089D01*
X64254057Y-158954124D01*
X64400570Y-158920356D01*
X64479661Y-158883589D01*
X64497857Y-158851372D01*
X64529812Y-158829574D01*
X64613531Y-158824740D01*
X64730794Y-158834626D01*
G36*
X71349787Y-159123797D02*
X71489194Y-159154389D01*
X71564567Y-159205276D01*
X71573070Y-159276104D01*
X71571287Y-159281264D01*
X71519823Y-159354141D01*
X71476822Y-159382322D01*
X71412079Y-159400201D01*
X71297279Y-159425996D01*
X71153910Y-159455462D01*
X71003460Y-159484350D01*
X70867416Y-159508414D01*
X70767268Y-159523407D01*
X70757143Y-159524561D01*
X70669560Y-159546891D01*
X70633310Y-159564222D01*
X70561764Y-159594316D01*
X70470025Y-159619063D01*
X70379224Y-159653226D01*
X70353993Y-159694527D01*
X70390866Y-159727725D01*
X70486378Y-159737579D01*
X70496806Y-159736874D01*
X70711336Y-159755352D01*
X70913275Y-159843301D01*
X71016393Y-159920620D01*
X71171448Y-160097432D01*
X71259163Y-160293375D01*
X71277682Y-160502195D01*
X71240576Y-160676799D01*
X71195204Y-160765078D01*
X71124799Y-160860857D01*
X71047162Y-160943798D01*
X70980096Y-160993562D01*
X70957941Y-160999714D01*
X70913250Y-161018445D01*
X70834672Y-161065280D01*
X70805134Y-161084828D01*
X70610465Y-161180107D01*
X70385742Y-161231848D01*
X70157137Y-161236865D01*
X69950823Y-161191977D01*
X69944454Y-161189513D01*
X69777537Y-161092392D01*
X69670193Y-160954723D01*
X69628281Y-160827916D01*
X69626974Y-160728742D01*
X69668032Y-160685258D01*
X69744732Y-160699701D01*
X69833454Y-160759632D01*
X69891158Y-160803979D01*
X69947879Y-160830813D01*
X70022522Y-160843631D01*
X70133989Y-160845931D01*
X70278595Y-160841995D01*
X70447753Y-160833448D01*
X70566922Y-160818286D01*
X70658667Y-160791411D01*
X70745554Y-160747724D01*
X70775391Y-160729748D01*
X70908912Y-160639049D01*
X70987459Y-160560692D01*
X71023208Y-160479491D01*
X71029286Y-160413044D01*
X70998047Y-160310300D01*
X70903209Y-160235972D01*
X70743086Y-160189035D01*
X70638437Y-160175557D01*
X70478538Y-160174137D01*
X70372854Y-160207690D01*
X70309610Y-160280994D01*
X70296135Y-160314453D01*
X70256424Y-160339306D01*
X70182126Y-160321315D01*
X70092157Y-160266668D01*
X70055968Y-160235886D01*
X70014327Y-160186729D01*
X69990306Y-160122827D01*
X69979380Y-160024303D01*
X69977000Y-159889165D01*
X69973830Y-159740706D01*
X69960390Y-159640461D01*
X69930791Y-159564205D01*
X69879473Y-159488150D01*
X69816682Y-159384882D01*
X69812924Y-159310371D01*
X69871920Y-159259365D01*
X69997389Y-159226613D01*
X70071511Y-159216961D01*
X70218028Y-159200510D01*
X70397986Y-159179231D01*
X70572863Y-159157681D01*
X70575714Y-159157320D01*
X70890213Y-159124910D01*
X71149182Y-159113853D01*
X71349787Y-159123797D01*
X71349787Y-159123797D01*
G37*
X71349787Y-159123797D02*
X71489194Y-159154389D01*
X71564567Y-159205276D01*
X71573070Y-159276104D01*
X71571287Y-159281264D01*
X71519823Y-159354141D01*
X71476822Y-159382322D01*
X71412079Y-159400201D01*
X71297279Y-159425996D01*
X71153910Y-159455462D01*
X71003460Y-159484350D01*
X70867416Y-159508414D01*
X70767268Y-159523407D01*
X70757143Y-159524561D01*
X70669560Y-159546891D01*
X70633310Y-159564222D01*
X70561764Y-159594316D01*
X70470025Y-159619063D01*
X70379224Y-159653226D01*
X70353993Y-159694527D01*
X70390866Y-159727725D01*
X70486378Y-159737579D01*
X70496806Y-159736874D01*
X70711336Y-159755352D01*
X70913275Y-159843301D01*
X71016393Y-159920620D01*
X71171448Y-160097432D01*
X71259163Y-160293375D01*
X71277682Y-160502195D01*
X71240576Y-160676799D01*
X71195204Y-160765078D01*
X71124799Y-160860857D01*
X71047162Y-160943798D01*
X70980096Y-160993562D01*
X70957941Y-160999714D01*
X70913250Y-161018445D01*
X70834672Y-161065280D01*
X70805134Y-161084828D01*
X70610465Y-161180107D01*
X70385742Y-161231848D01*
X70157137Y-161236865D01*
X69950823Y-161191977D01*
X69944454Y-161189513D01*
X69777537Y-161092392D01*
X69670193Y-160954723D01*
X69628281Y-160827916D01*
X69626974Y-160728742D01*
X69668032Y-160685258D01*
X69744732Y-160699701D01*
X69833454Y-160759632D01*
X69891158Y-160803979D01*
X69947879Y-160830813D01*
X70022522Y-160843631D01*
X70133989Y-160845931D01*
X70278595Y-160841995D01*
X70447753Y-160833448D01*
X70566922Y-160818286D01*
X70658667Y-160791411D01*
X70745554Y-160747724D01*
X70775391Y-160729748D01*
X70908912Y-160639049D01*
X70987459Y-160560692D01*
X71023208Y-160479491D01*
X71029286Y-160413044D01*
X70998047Y-160310300D01*
X70903209Y-160235972D01*
X70743086Y-160189035D01*
X70638437Y-160175557D01*
X70478538Y-160174137D01*
X70372854Y-160207690D01*
X70309610Y-160280994D01*
X70296135Y-160314453D01*
X70256424Y-160339306D01*
X70182126Y-160321315D01*
X70092157Y-160266668D01*
X70055968Y-160235886D01*
X70014327Y-160186729D01*
X69990306Y-160122827D01*
X69979380Y-160024303D01*
X69977000Y-159889165D01*
X69973830Y-159740706D01*
X69960390Y-159640461D01*
X69930791Y-159564205D01*
X69879473Y-159488150D01*
X69816682Y-159384882D01*
X69812924Y-159310371D01*
X69871920Y-159259365D01*
X69997389Y-159226613D01*
X70071511Y-159216961D01*
X70218028Y-159200510D01*
X70397986Y-159179231D01*
X70572863Y-159157681D01*
X70575714Y-159157320D01*
X70890213Y-159124910D01*
X71149182Y-159113853D01*
X71349787Y-159123797D01*
G36*
X155273965Y-158777833D02*
X155359509Y-158845946D01*
X155407981Y-158931256D01*
X155411431Y-158958643D01*
X155401339Y-159031192D01*
X155373875Y-159158527D01*
X155332720Y-159325984D01*
X155281555Y-159518899D01*
X155224059Y-159722608D01*
X155195140Y-159820429D01*
X155142964Y-159996575D01*
X155086548Y-160190788D01*
X155048783Y-160323268D01*
X154978742Y-160572108D01*
X155059156Y-160547559D01*
X155201508Y-160508117D01*
X155368763Y-160467745D01*
X155539585Y-160430923D01*
X155692633Y-160402129D01*
X155806570Y-160385843D01*
X155839361Y-160383789D01*
X155897298Y-160377186D01*
X155945545Y-160351786D01*
X155990102Y-160297688D01*
X156036973Y-160204988D01*
X156092160Y-160063783D01*
X156161665Y-159864172D01*
X156170947Y-159836730D01*
X156251196Y-159599031D01*
X156079180Y-159427015D01*
X155988496Y-159332199D01*
X155944642Y-159271826D01*
X155940126Y-159232216D01*
X155958796Y-159207209D01*
X156013520Y-159182019D01*
X156126801Y-159147457D01*
X156285667Y-159106388D01*
X156477144Y-159061678D01*
X156688257Y-159016192D01*
X156906033Y-158972796D01*
X157117498Y-158934356D01*
X157309679Y-158903738D01*
X157371143Y-158895248D01*
X157555782Y-158876806D01*
X157752803Y-158866171D01*
X157921931Y-158865443D01*
X157933571Y-158865898D01*
X158065981Y-158872967D01*
X158140843Y-158883862D01*
X158173136Y-158904906D01*
X158177842Y-158942425D01*
X158174760Y-158967715D01*
X158147691Y-159052587D01*
X158084127Y-159104466D01*
X157976940Y-159136918D01*
X157904586Y-159167916D01*
X157893287Y-159206236D01*
X157914080Y-159270431D01*
X157942541Y-159369348D01*
X157948962Y-159392923D01*
X157987882Y-159503523D01*
X158034647Y-159593834D01*
X158041842Y-159603836D01*
X158081593Y-159648175D01*
X158114681Y-159646294D01*
X158164927Y-159593525D01*
X158178656Y-159577028D01*
X158232256Y-159504301D01*
X158310713Y-159387902D01*
X158401675Y-159246465D01*
X158459714Y-159153095D01*
X158550829Y-159007239D01*
X158615475Y-158914015D01*
X158663410Y-158863169D01*
X158704388Y-158844449D01*
X158748165Y-158847602D01*
X158750000Y-158848012D01*
X158841879Y-158884290D01*
X158922269Y-158940111D01*
X158965645Y-158996643D01*
X158967714Y-159008632D01*
X158947299Y-159086105D01*
X158892918Y-159203680D01*
X158814868Y-159344953D01*
X158723445Y-159493516D01*
X158628947Y-159632963D01*
X158541669Y-159746887D01*
X158471908Y-159818883D01*
X158450643Y-159832524D01*
X158424707Y-159874293D01*
X158423428Y-159887960D01*
X158398206Y-159942335D01*
X158350857Y-159993438D01*
X158295130Y-160067495D01*
X158278286Y-160128502D01*
X158264905Y-160187684D01*
X158246232Y-160201429D01*
X158208513Y-160230759D01*
X158190933Y-160264929D01*
X158157597Y-160335622D01*
X158103445Y-160432873D01*
X158086916Y-160460388D01*
X157943688Y-160701211D01*
X157830126Y-160906481D01*
X157749577Y-161069605D01*
X157705387Y-161183992D01*
X157697714Y-161227085D01*
X157676880Y-161311229D01*
X157613133Y-161338026D01*
X157512497Y-161311719D01*
X157409482Y-161261734D01*
X157340707Y-161207262D01*
X157307403Y-161140031D01*
X157310805Y-161051769D01*
X157352146Y-160934204D01*
X157432659Y-160779064D01*
X157553577Y-160578077D01*
X157642936Y-160436883D01*
X157987301Y-159898325D01*
X157877220Y-159845012D01*
X157772786Y-159762048D01*
X157672333Y-159624126D01*
X157587066Y-159448499D01*
X157550797Y-159342406D01*
X157516753Y-159248023D01*
X157482672Y-159212847D01*
X157447870Y-159219079D01*
X157363352Y-159253902D01*
X157254987Y-159291125D01*
X157141650Y-159325373D01*
X157042219Y-159351267D01*
X156975569Y-159363431D01*
X156959146Y-159358300D01*
X156950180Y-159346076D01*
X156912297Y-159361530D01*
X156826244Y-159401238D01*
X156785152Y-159416097D01*
X156743324Y-159455068D01*
X156698301Y-159531788D01*
X156662154Y-159619094D01*
X156646954Y-159689822D01*
X156653118Y-159713213D01*
X156694095Y-159715970D01*
X156784451Y-159707565D01*
X156871576Y-159695009D01*
X157016661Y-159680508D01*
X157141473Y-159684381D01*
X157228843Y-159704702D01*
X157261596Y-159738786D01*
X157259313Y-159855222D01*
X157234897Y-159927319D01*
X157173251Y-159982969D01*
X157108071Y-160022383D01*
X156979545Y-160087430D01*
X156846057Y-160142497D01*
X156809911Y-160154562D01*
X156710512Y-160178893D01*
X156648452Y-160172571D01*
X156601045Y-160139672D01*
X156546345Y-160100149D01*
X156521534Y-160095818D01*
X156493969Y-160146552D01*
X156460963Y-160237396D01*
X156428600Y-160346190D01*
X156402964Y-160450774D01*
X156390140Y-160528988D01*
X156394507Y-160558494D01*
X156441143Y-160550929D01*
X156538225Y-160520517D01*
X156669366Y-160472697D01*
X156756610Y-160438306D01*
X156971698Y-160360864D01*
X157133613Y-160323824D01*
X157240154Y-160327469D01*
X157288588Y-160370375D01*
X157274295Y-160422515D01*
X157222276Y-160499778D01*
X157150901Y-160581246D01*
X157078544Y-160646002D01*
X157023575Y-160673128D01*
X157022670Y-160673143D01*
X156976803Y-160690882D01*
X156972000Y-160703925D01*
X156941875Y-160736196D01*
X156866602Y-160779432D01*
X156835929Y-160793473D01*
X156707677Y-160854651D01*
X156580591Y-160923595D01*
X156572857Y-160928180D01*
X156428649Y-160985555D01*
X156297022Y-160988838D01*
X156163304Y-160954530D01*
X156035832Y-160888067D01*
X155938481Y-160804446D01*
X155899491Y-160739161D01*
X155848070Y-160684792D01*
X155791031Y-160673143D01*
X155719491Y-160682793D01*
X155615229Y-160707722D01*
X155497126Y-160741903D01*
X155384060Y-160779308D01*
X155294910Y-160813907D01*
X155248556Y-160839672D01*
X155246823Y-160846919D01*
X155228157Y-160872178D01*
X155160993Y-160917921D01*
X155096681Y-160954362D01*
X154991128Y-161005977D01*
X154915788Y-161024091D01*
X154839016Y-161013153D01*
X154788629Y-160997659D01*
X154688871Y-160956338D01*
X154617496Y-160911971D01*
X154608117Y-160902600D01*
X154599475Y-160868683D01*
X154603747Y-160798116D01*
X154622163Y-160684575D01*
X154635828Y-160618715D01*
X155883429Y-160618715D01*
X155901571Y-160636857D01*
X155919714Y-160618715D01*
X155901571Y-160600572D01*
X155883429Y-160618715D01*
X154635828Y-160618715D01*
X154655951Y-160521736D01*
X154706343Y-160303275D01*
X154774565Y-160022869D01*
X154795650Y-159937937D01*
X154859035Y-159683170D01*
X154918181Y-159444928D01*
X154970327Y-159234374D01*
X155012710Y-159062673D01*
X155042571Y-158940986D01*
X155055841Y-158886072D01*
X155086223Y-158794442D01*
X155130129Y-158755855D01*
X155177256Y-158750000D01*
X155273965Y-158777833D01*
X155273965Y-158777833D01*
G37*
X155273965Y-158777833D02*
X155359509Y-158845946D01*
X155407981Y-158931256D01*
X155411431Y-158958643D01*
X155401339Y-159031192D01*
X155373875Y-159158527D01*
X155332720Y-159325984D01*
X155281555Y-159518899D01*
X155224059Y-159722608D01*
X155195140Y-159820429D01*
X155142964Y-159996575D01*
X155086548Y-160190788D01*
X155048783Y-160323268D01*
X154978742Y-160572108D01*
X155059156Y-160547559D01*
X155201508Y-160508117D01*
X155368763Y-160467745D01*
X155539585Y-160430923D01*
X155692633Y-160402129D01*
X155806570Y-160385843D01*
X155839361Y-160383789D01*
X155897298Y-160377186D01*
X155945545Y-160351786D01*
X155990102Y-160297688D01*
X156036973Y-160204988D01*
X156092160Y-160063783D01*
X156161665Y-159864172D01*
X156170947Y-159836730D01*
X156251196Y-159599031D01*
X156079180Y-159427015D01*
X155988496Y-159332199D01*
X155944642Y-159271826D01*
X155940126Y-159232216D01*
X155958796Y-159207209D01*
X156013520Y-159182019D01*
X156126801Y-159147457D01*
X156285667Y-159106388D01*
X156477144Y-159061678D01*
X156688257Y-159016192D01*
X156906033Y-158972796D01*
X157117498Y-158934356D01*
X157309679Y-158903738D01*
X157371143Y-158895248D01*
X157555782Y-158876806D01*
X157752803Y-158866171D01*
X157921931Y-158865443D01*
X157933571Y-158865898D01*
X158065981Y-158872967D01*
X158140843Y-158883862D01*
X158173136Y-158904906D01*
X158177842Y-158942425D01*
X158174760Y-158967715D01*
X158147691Y-159052587D01*
X158084127Y-159104466D01*
X157976940Y-159136918D01*
X157904586Y-159167916D01*
X157893287Y-159206236D01*
X157914080Y-159270431D01*
X157942541Y-159369348D01*
X157948962Y-159392923D01*
X157987882Y-159503523D01*
X158034647Y-159593834D01*
X158041842Y-159603836D01*
X158081593Y-159648175D01*
X158114681Y-159646294D01*
X158164927Y-159593525D01*
X158178656Y-159577028D01*
X158232256Y-159504301D01*
X158310713Y-159387902D01*
X158401675Y-159246465D01*
X158459714Y-159153095D01*
X158550829Y-159007239D01*
X158615475Y-158914015D01*
X158663410Y-158863169D01*
X158704388Y-158844449D01*
X158748165Y-158847602D01*
X158750000Y-158848012D01*
X158841879Y-158884290D01*
X158922269Y-158940111D01*
X158965645Y-158996643D01*
X158967714Y-159008632D01*
X158947299Y-159086105D01*
X158892918Y-159203680D01*
X158814868Y-159344953D01*
X158723445Y-159493516D01*
X158628947Y-159632963D01*
X158541669Y-159746887D01*
X158471908Y-159818883D01*
X158450643Y-159832524D01*
X158424707Y-159874293D01*
X158423428Y-159887960D01*
X158398206Y-159942335D01*
X158350857Y-159993438D01*
X158295130Y-160067495D01*
X158278286Y-160128502D01*
X158264905Y-160187684D01*
X158246232Y-160201429D01*
X158208513Y-160230759D01*
X158190933Y-160264929D01*
X158157597Y-160335622D01*
X158103445Y-160432873D01*
X158086916Y-160460388D01*
X157943688Y-160701211D01*
X157830126Y-160906481D01*
X157749577Y-161069605D01*
X157705387Y-161183992D01*
X157697714Y-161227085D01*
X157676880Y-161311229D01*
X157613133Y-161338026D01*
X157512497Y-161311719D01*
X157409482Y-161261734D01*
X157340707Y-161207262D01*
X157307403Y-161140031D01*
X157310805Y-161051769D01*
X157352146Y-160934204D01*
X157432659Y-160779064D01*
X157553577Y-160578077D01*
X157642936Y-160436883D01*
X157987301Y-159898325D01*
X157877220Y-159845012D01*
X157772786Y-159762048D01*
X157672333Y-159624126D01*
X157587066Y-159448499D01*
X157550797Y-159342406D01*
X157516753Y-159248023D01*
X157482672Y-159212847D01*
X157447870Y-159219079D01*
X157363352Y-159253902D01*
X157254987Y-159291125D01*
X157141650Y-159325373D01*
X157042219Y-159351267D01*
X156975569Y-159363431D01*
X156959146Y-159358300D01*
X156950180Y-159346076D01*
X156912297Y-159361530D01*
X156826244Y-159401238D01*
X156785152Y-159416097D01*
X156743324Y-159455068D01*
X156698301Y-159531788D01*
X156662154Y-159619094D01*
X156646954Y-159689822D01*
X156653118Y-159713213D01*
X156694095Y-159715970D01*
X156784451Y-159707565D01*
X156871576Y-159695009D01*
X157016661Y-159680508D01*
X157141473Y-159684381D01*
X157228843Y-159704702D01*
X157261596Y-159738786D01*
X157259313Y-159855222D01*
X157234897Y-159927319D01*
X157173251Y-159982969D01*
X157108071Y-160022383D01*
X156979545Y-160087430D01*
X156846057Y-160142497D01*
X156809911Y-160154562D01*
X156710512Y-160178893D01*
X156648452Y-160172571D01*
X156601045Y-160139672D01*
X156546345Y-160100149D01*
X156521534Y-160095818D01*
X156493969Y-160146552D01*
X156460963Y-160237396D01*
X156428600Y-160346190D01*
X156402964Y-160450774D01*
X156390140Y-160528988D01*
X156394507Y-160558494D01*
X156441143Y-160550929D01*
X156538225Y-160520517D01*
X156669366Y-160472697D01*
X156756610Y-160438306D01*
X156971698Y-160360864D01*
X157133613Y-160323824D01*
X157240154Y-160327469D01*
X157288588Y-160370375D01*
X157274295Y-160422515D01*
X157222276Y-160499778D01*
X157150901Y-160581246D01*
X157078544Y-160646002D01*
X157023575Y-160673128D01*
X157022670Y-160673143D01*
X156976803Y-160690882D01*
X156972000Y-160703925D01*
X156941875Y-160736196D01*
X156866602Y-160779432D01*
X156835929Y-160793473D01*
X156707677Y-160854651D01*
X156580591Y-160923595D01*
X156572857Y-160928180D01*
X156428649Y-160985555D01*
X156297022Y-160988838D01*
X156163304Y-160954530D01*
X156035832Y-160888067D01*
X155938481Y-160804446D01*
X155899491Y-160739161D01*
X155848070Y-160684792D01*
X155791031Y-160673143D01*
X155719491Y-160682793D01*
X155615229Y-160707722D01*
X155497126Y-160741903D01*
X155384060Y-160779308D01*
X155294910Y-160813907D01*
X155248556Y-160839672D01*
X155246823Y-160846919D01*
X155228157Y-160872178D01*
X155160993Y-160917921D01*
X155096681Y-160954362D01*
X154991128Y-161005977D01*
X154915788Y-161024091D01*
X154839016Y-161013153D01*
X154788629Y-160997659D01*
X154688871Y-160956338D01*
X154617496Y-160911971D01*
X154608117Y-160902600D01*
X154599475Y-160868683D01*
X154603747Y-160798116D01*
X154622163Y-160684575D01*
X154635828Y-160618715D01*
X155883429Y-160618715D01*
X155901571Y-160636857D01*
X155919714Y-160618715D01*
X155901571Y-160600572D01*
X155883429Y-160618715D01*
X154635828Y-160618715D01*
X154655951Y-160521736D01*
X154706343Y-160303275D01*
X154774565Y-160022869D01*
X154795650Y-159937937D01*
X154859035Y-159683170D01*
X154918181Y-159444928D01*
X154970327Y-159234374D01*
X155012710Y-159062673D01*
X155042571Y-158940986D01*
X155055841Y-158886072D01*
X155086223Y-158794442D01*
X155130129Y-158755855D01*
X155177256Y-158750000D01*
X155273965Y-158777833D01*
G36*
X140058525Y-158992825D02*
X140102134Y-159001564D01*
X140197778Y-159015241D01*
X140347224Y-159026767D01*
X140531712Y-159035093D01*
X140732482Y-159039171D01*
X140779500Y-159039399D01*
X141296571Y-159040286D01*
X141296571Y-159227364D01*
X141291326Y-159330356D01*
X141269634Y-159418559D01*
X141222559Y-159514767D01*
X141141168Y-159641774D01*
X141124564Y-159666184D01*
X141036929Y-159787278D01*
X140956262Y-159886304D01*
X140896721Y-159946222D01*
X140885599Y-159953760D01*
X140840737Y-159990513D01*
X140839719Y-160010671D01*
X140833123Y-160049550D01*
X140791236Y-160121537D01*
X140770255Y-160150453D01*
X140713477Y-160230523D01*
X140681975Y-160285883D01*
X140679714Y-160294460D01*
X140660103Y-160335438D01*
X140609383Y-160415225D01*
X140557047Y-160490506D01*
X140488756Y-160594504D01*
X140431397Y-160697413D01*
X140393355Y-160781924D01*
X140383015Y-160830727D01*
X140389469Y-160836429D01*
X140381063Y-160865224D01*
X140347607Y-160938336D01*
X140323768Y-160986168D01*
X140253086Y-161101976D01*
X140185056Y-161154377D01*
X140106194Y-161150718D01*
X140058984Y-161130417D01*
X139990325Y-161066726D01*
X139981534Y-161002334D01*
X140003668Y-160917000D01*
X140053288Y-160781786D01*
X140123966Y-160610970D01*
X140209271Y-160418830D01*
X140302775Y-160219646D01*
X140398047Y-160027694D01*
X140488659Y-159857254D01*
X140528825Y-159786911D01*
X140607353Y-159650725D01*
X140669665Y-159537406D01*
X140707850Y-159461649D01*
X140716000Y-159439133D01*
X140684263Y-159423553D01*
X140605471Y-159421991D01*
X140579929Y-159424255D01*
X140364123Y-159444091D01*
X140184008Y-159453183D01*
X140050750Y-159451354D01*
X139975520Y-159438426D01*
X139967791Y-159434015D01*
X139936567Y-159443294D01*
X139897021Y-159516965D01*
X139847293Y-159658538D01*
X139845058Y-159665688D01*
X139797625Y-159814829D01*
X139739257Y-159993546D01*
X139674287Y-160189111D01*
X139607051Y-160388795D01*
X139541880Y-160579870D01*
X139483111Y-160749609D01*
X139435075Y-160885282D01*
X139402107Y-160974162D01*
X139389948Y-161002341D01*
X139339293Y-161028373D01*
X139253455Y-161035444D01*
X139164835Y-161025078D01*
X139105836Y-160998798D01*
X139098983Y-160988655D01*
X139103100Y-160938782D01*
X139126708Y-160833640D01*
X139166291Y-160686791D01*
X139218337Y-160511796D01*
X139242386Y-160435298D01*
X139325864Y-160172697D01*
X139388027Y-159972463D01*
X139430006Y-159827952D01*
X139452932Y-159732520D01*
X139457935Y-159679520D01*
X139446148Y-159662309D01*
X139418702Y-159674242D01*
X139376727Y-159708673D01*
X139364172Y-159719949D01*
X139267313Y-159767142D01*
X139156770Y-159779136D01*
X139018769Y-159775518D01*
X139002335Y-159961259D01*
X138980103Y-160092496D01*
X138940816Y-160222704D01*
X138892200Y-160333946D01*
X138841983Y-160408281D01*
X138801005Y-160428650D01*
X138775296Y-160446595D01*
X138780947Y-160476729D01*
X138779135Y-160522042D01*
X138752427Y-160526423D01*
X138661336Y-160525276D01*
X138626823Y-160559485D01*
X138628373Y-160594350D01*
X138612254Y-160678123D01*
X138547359Y-160777165D01*
X138449406Y-160873466D01*
X138334112Y-160949017D01*
X138308558Y-160960821D01*
X138148730Y-160999485D01*
X137976268Y-160995075D01*
X137818423Y-160950998D01*
X137718319Y-160886997D01*
X137667977Y-160844927D01*
X137618063Y-160826295D01*
X137545986Y-160828767D01*
X137429158Y-160850006D01*
X137406115Y-160854721D01*
X137248287Y-160888910D01*
X137063168Y-160931521D01*
X136909267Y-160968788D01*
X136738319Y-161003454D01*
X136556993Y-161027724D01*
X136416664Y-161036000D01*
X136240801Y-161018419D01*
X136119915Y-160961136D01*
X136044293Y-160857347D01*
X136016257Y-160763857D01*
X138502571Y-160763857D01*
X138520714Y-160782000D01*
X138538857Y-160763857D01*
X138520714Y-160745715D01*
X138502571Y-160763857D01*
X136016257Y-160763857D01*
X136013040Y-160753132D01*
X136004244Y-160693120D01*
X136010038Y-160641159D01*
X136038278Y-160587249D01*
X136096816Y-160521386D01*
X136193507Y-160433569D01*
X136336203Y-160313795D01*
X136398000Y-160262859D01*
X136570792Y-160116697D01*
X136740579Y-159965914D01*
X136898443Y-159819204D01*
X137035463Y-159685261D01*
X137142721Y-159572778D01*
X137211297Y-159490449D01*
X137232571Y-159449408D01*
X137204638Y-159414699D01*
X137131986Y-159413362D01*
X137031340Y-159440151D01*
X136919423Y-159489817D01*
X136812959Y-159557114D01*
X136767380Y-159595375D01*
X136682198Y-159675286D01*
X136592568Y-159571198D01*
X136536030Y-159483240D01*
X136513293Y-159402022D01*
X136513969Y-159391390D01*
X136560246Y-159299587D01*
X136660950Y-159209380D01*
X136798209Y-159128661D01*
X136954152Y-159065322D01*
X137110906Y-159027254D01*
X137250601Y-159022350D01*
X137315643Y-159037380D01*
X137410570Y-159108453D01*
X137483834Y-159228041D01*
X137527985Y-159373491D01*
X137535576Y-159522153D01*
X137510091Y-159628714D01*
X137457795Y-159711100D01*
X137358369Y-159830782D01*
X137220467Y-159978641D01*
X137052747Y-160145556D01*
X136863864Y-160322409D01*
X136781160Y-160396698D01*
X136676029Y-160492817D01*
X136597679Y-160569968D01*
X136557564Y-160616604D01*
X136555108Y-160624633D01*
X136593807Y-160622427D01*
X136690064Y-160606390D01*
X136830720Y-160578990D01*
X137002617Y-160542695D01*
X137064120Y-160529149D01*
X137243426Y-160489457D01*
X137395649Y-160456134D01*
X137507651Y-160432028D01*
X137566295Y-160419985D01*
X137571694Y-160419143D01*
X137580737Y-160385892D01*
X137582792Y-160370889D01*
X138008577Y-160370889D01*
X138028787Y-160419381D01*
X138049559Y-160443029D01*
X138093113Y-160530602D01*
X138093392Y-160588473D01*
X138087740Y-160646420D01*
X138112437Y-160644496D01*
X138134440Y-160628103D01*
X138199436Y-160568573D01*
X138273002Y-160491715D01*
X138346923Y-160389385D01*
X138429042Y-160246037D01*
X138506869Y-160087103D01*
X138567911Y-159938015D01*
X138599126Y-159827751D01*
X138599501Y-159699553D01*
X138566235Y-159578789D01*
X138508670Y-159485782D01*
X138436148Y-159440856D01*
X138420644Y-159439429D01*
X138322617Y-159459942D01*
X138269055Y-159487659D01*
X138224586Y-159538045D01*
X138238353Y-159601407D01*
X138243950Y-159612222D01*
X138265498Y-159673419D01*
X138234787Y-159703886D01*
X138219494Y-159709284D01*
X138165664Y-159751120D01*
X138116831Y-159845068D01*
X138070069Y-159998347D01*
X138031046Y-160174231D01*
X138009839Y-160296566D01*
X138008577Y-160370889D01*
X137582792Y-160370889D01*
X137592797Y-160297882D01*
X137605544Y-160172729D01*
X137607918Y-160145421D01*
X137643207Y-159915207D01*
X137704962Y-159707310D01*
X137786714Y-159539551D01*
X137861432Y-159446891D01*
X137933694Y-159398258D01*
X138006492Y-159403151D01*
X138030857Y-159412428D01*
X138141751Y-159452835D01*
X138193862Y-159457589D01*
X138192745Y-159437168D01*
X138200904Y-159421286D01*
X138248571Y-159421286D01*
X138266714Y-159439429D01*
X138284857Y-159421286D01*
X138266714Y-159403143D01*
X138248571Y-159421286D01*
X138200904Y-159421286D01*
X138209273Y-159404996D01*
X138272361Y-159361921D01*
X138359239Y-159318476D01*
X138447134Y-159285196D01*
X138513274Y-159272616D01*
X138533242Y-159279652D01*
X138580027Y-159318255D01*
X138659842Y-159365643D01*
X138661701Y-159366606D01*
X138756255Y-159430218D01*
X138824085Y-159497139D01*
X138881767Y-159573611D01*
X139064098Y-159445957D01*
X139218857Y-159334968D01*
X139369165Y-159222596D01*
X139496797Y-159122770D01*
X139583527Y-159049416D01*
X139585996Y-159047128D01*
X139659705Y-159013230D01*
X139732035Y-159006979D01*
X139827129Y-159003497D01*
X139884420Y-158989516D01*
X139953348Y-158982057D01*
X140058525Y-158992825D01*
X140058525Y-158992825D01*
G37*
X140058525Y-158992825D02*
X140102134Y-159001564D01*
X140197778Y-159015241D01*
X140347224Y-159026767D01*
X140531712Y-159035093D01*
X140732482Y-159039171D01*
X140779500Y-159039399D01*
X141296571Y-159040286D01*
X141296571Y-159227364D01*
X141291326Y-159330356D01*
X141269634Y-159418559D01*
X141222559Y-159514767D01*
X141141168Y-159641774D01*
X141124564Y-159666184D01*
X141036929Y-159787278D01*
X140956262Y-159886304D01*
X140896721Y-159946222D01*
X140885599Y-159953760D01*
X140840737Y-159990513D01*
X140839719Y-160010671D01*
X140833123Y-160049550D01*
X140791236Y-160121537D01*
X140770255Y-160150453D01*
X140713477Y-160230523D01*
X140681975Y-160285883D01*
X140679714Y-160294460D01*
X140660103Y-160335438D01*
X140609383Y-160415225D01*
X140557047Y-160490506D01*
X140488756Y-160594504D01*
X140431397Y-160697413D01*
X140393355Y-160781924D01*
X140383015Y-160830727D01*
X140389469Y-160836429D01*
X140381063Y-160865224D01*
X140347607Y-160938336D01*
X140323768Y-160986168D01*
X140253086Y-161101976D01*
X140185056Y-161154377D01*
X140106194Y-161150718D01*
X140058984Y-161130417D01*
X139990325Y-161066726D01*
X139981534Y-161002334D01*
X140003668Y-160917000D01*
X140053288Y-160781786D01*
X140123966Y-160610970D01*
X140209271Y-160418830D01*
X140302775Y-160219646D01*
X140398047Y-160027694D01*
X140488659Y-159857254D01*
X140528825Y-159786911D01*
X140607353Y-159650725D01*
X140669665Y-159537406D01*
X140707850Y-159461649D01*
X140716000Y-159439133D01*
X140684263Y-159423553D01*
X140605471Y-159421991D01*
X140579929Y-159424255D01*
X140364123Y-159444091D01*
X140184008Y-159453183D01*
X140050750Y-159451354D01*
X139975520Y-159438426D01*
X139967791Y-159434015D01*
X139936567Y-159443294D01*
X139897021Y-159516965D01*
X139847293Y-159658538D01*
X139845058Y-159665688D01*
X139797625Y-159814829D01*
X139739257Y-159993546D01*
X139674287Y-160189111D01*
X139607051Y-160388795D01*
X139541880Y-160579870D01*
X139483111Y-160749609D01*
X139435075Y-160885282D01*
X139402107Y-160974162D01*
X139389948Y-161002341D01*
X139339293Y-161028373D01*
X139253455Y-161035444D01*
X139164835Y-161025078D01*
X139105836Y-160998798D01*
X139098983Y-160988655D01*
X139103100Y-160938782D01*
X139126708Y-160833640D01*
X139166291Y-160686791D01*
X139218337Y-160511796D01*
X139242386Y-160435298D01*
X139325864Y-160172697D01*
X139388027Y-159972463D01*
X139430006Y-159827952D01*
X139452932Y-159732520D01*
X139457935Y-159679520D01*
X139446148Y-159662309D01*
X139418702Y-159674242D01*
X139376727Y-159708673D01*
X139364172Y-159719949D01*
X139267313Y-159767142D01*
X139156770Y-159779136D01*
X139018769Y-159775518D01*
X139002335Y-159961259D01*
X138980103Y-160092496D01*
X138940816Y-160222704D01*
X138892200Y-160333946D01*
X138841983Y-160408281D01*
X138801005Y-160428650D01*
X138775296Y-160446595D01*
X138780947Y-160476729D01*
X138779135Y-160522042D01*
X138752427Y-160526423D01*
X138661336Y-160525276D01*
X138626823Y-160559485D01*
X138628373Y-160594350D01*
X138612254Y-160678123D01*
X138547359Y-160777165D01*
X138449406Y-160873466D01*
X138334112Y-160949017D01*
X138308558Y-160960821D01*
X138148730Y-160999485D01*
X137976268Y-160995075D01*
X137818423Y-160950998D01*
X137718319Y-160886997D01*
X137667977Y-160844927D01*
X137618063Y-160826295D01*
X137545986Y-160828767D01*
X137429158Y-160850006D01*
X137406115Y-160854721D01*
X137248287Y-160888910D01*
X137063168Y-160931521D01*
X136909267Y-160968788D01*
X136738319Y-161003454D01*
X136556993Y-161027724D01*
X136416664Y-161036000D01*
X136240801Y-161018419D01*
X136119915Y-160961136D01*
X136044293Y-160857347D01*
X136016257Y-160763857D01*
X138502571Y-160763857D01*
X138520714Y-160782000D01*
X138538857Y-160763857D01*
X138520714Y-160745715D01*
X138502571Y-160763857D01*
X136016257Y-160763857D01*
X136013040Y-160753132D01*
X136004244Y-160693120D01*
X136010038Y-160641159D01*
X136038278Y-160587249D01*
X136096816Y-160521386D01*
X136193507Y-160433569D01*
X136336203Y-160313795D01*
X136398000Y-160262859D01*
X136570792Y-160116697D01*
X136740579Y-159965914D01*
X136898443Y-159819204D01*
X137035463Y-159685261D01*
X137142721Y-159572778D01*
X137211297Y-159490449D01*
X137232571Y-159449408D01*
X137204638Y-159414699D01*
X137131986Y-159413362D01*
X137031340Y-159440151D01*
X136919423Y-159489817D01*
X136812959Y-159557114D01*
X136767380Y-159595375D01*
X136682198Y-159675286D01*
X136592568Y-159571198D01*
X136536030Y-159483240D01*
X136513293Y-159402022D01*
X136513969Y-159391390D01*
X136560246Y-159299587D01*
X136660950Y-159209380D01*
X136798209Y-159128661D01*
X136954152Y-159065322D01*
X137110906Y-159027254D01*
X137250601Y-159022350D01*
X137315643Y-159037380D01*
X137410570Y-159108453D01*
X137483834Y-159228041D01*
X137527985Y-159373491D01*
X137535576Y-159522153D01*
X137510091Y-159628714D01*
X137457795Y-159711100D01*
X137358369Y-159830782D01*
X137220467Y-159978641D01*
X137052747Y-160145556D01*
X136863864Y-160322409D01*
X136781160Y-160396698D01*
X136676029Y-160492817D01*
X136597679Y-160569968D01*
X136557564Y-160616604D01*
X136555108Y-160624633D01*
X136593807Y-160622427D01*
X136690064Y-160606390D01*
X136830720Y-160578990D01*
X137002617Y-160542695D01*
X137064120Y-160529149D01*
X137243426Y-160489457D01*
X137395649Y-160456134D01*
X137507651Y-160432028D01*
X137566295Y-160419985D01*
X137571694Y-160419143D01*
X137580737Y-160385892D01*
X137582792Y-160370889D01*
X138008577Y-160370889D01*
X138028787Y-160419381D01*
X138049559Y-160443029D01*
X138093113Y-160530602D01*
X138093392Y-160588473D01*
X138087740Y-160646420D01*
X138112437Y-160644496D01*
X138134440Y-160628103D01*
X138199436Y-160568573D01*
X138273002Y-160491715D01*
X138346923Y-160389385D01*
X138429042Y-160246037D01*
X138506869Y-160087103D01*
X138567911Y-159938015D01*
X138599126Y-159827751D01*
X138599501Y-159699553D01*
X138566235Y-159578789D01*
X138508670Y-159485782D01*
X138436148Y-159440856D01*
X138420644Y-159439429D01*
X138322617Y-159459942D01*
X138269055Y-159487659D01*
X138224586Y-159538045D01*
X138238353Y-159601407D01*
X138243950Y-159612222D01*
X138265498Y-159673419D01*
X138234787Y-159703886D01*
X138219494Y-159709284D01*
X138165664Y-159751120D01*
X138116831Y-159845068D01*
X138070069Y-159998347D01*
X138031046Y-160174231D01*
X138009839Y-160296566D01*
X138008577Y-160370889D01*
X137582792Y-160370889D01*
X137592797Y-160297882D01*
X137605544Y-160172729D01*
X137607918Y-160145421D01*
X137643207Y-159915207D01*
X137704962Y-159707310D01*
X137786714Y-159539551D01*
X137861432Y-159446891D01*
X137933694Y-159398258D01*
X138006492Y-159403151D01*
X138030857Y-159412428D01*
X138141751Y-159452835D01*
X138193862Y-159457589D01*
X138192745Y-159437168D01*
X138200904Y-159421286D01*
X138248571Y-159421286D01*
X138266714Y-159439429D01*
X138284857Y-159421286D01*
X138266714Y-159403143D01*
X138248571Y-159421286D01*
X138200904Y-159421286D01*
X138209273Y-159404996D01*
X138272361Y-159361921D01*
X138359239Y-159318476D01*
X138447134Y-159285196D01*
X138513274Y-159272616D01*
X138533242Y-159279652D01*
X138580027Y-159318255D01*
X138659842Y-159365643D01*
X138661701Y-159366606D01*
X138756255Y-159430218D01*
X138824085Y-159497139D01*
X138881767Y-159573611D01*
X139064098Y-159445957D01*
X139218857Y-159334968D01*
X139369165Y-159222596D01*
X139496797Y-159122770D01*
X139583527Y-159049416D01*
X139585996Y-159047128D01*
X139659705Y-159013230D01*
X139732035Y-159006979D01*
X139827129Y-159003497D01*
X139884420Y-158989516D01*
X139953348Y-158982057D01*
X140058525Y-158992825D01*
G36*
X149621222Y-158762055D02*
X149753811Y-158784416D01*
X149883505Y-158817007D01*
X149978983Y-158851573D01*
X150132294Y-158944314D01*
X150229309Y-159068511D01*
X150279480Y-159238113D01*
X150287391Y-159306715D01*
X150292839Y-159412693D01*
X150280304Y-159486634D01*
X150239024Y-159555129D01*
X150158237Y-159644770D01*
X150144956Y-159658649D01*
X149996403Y-159798653D01*
X149833408Y-159918741D01*
X149635626Y-160032518D01*
X149451786Y-160122093D01*
X149333683Y-160180733D01*
X149246813Y-160231524D01*
X149207610Y-160264704D01*
X149206857Y-160267581D01*
X149239890Y-160287128D01*
X149326262Y-160306803D01*
X149440471Y-160321607D01*
X149795590Y-160379078D01*
X150146195Y-160480639D01*
X150461598Y-160617267D01*
X150480940Y-160627573D01*
X150500981Y-160602421D01*
X150525319Y-160514894D01*
X150552201Y-160374933D01*
X150579879Y-160192483D01*
X150606599Y-159977487D01*
X150623071Y-159820429D01*
X150642037Y-159629789D01*
X150661609Y-159439870D01*
X150678945Y-159277967D01*
X150687328Y-159203572D01*
X150712714Y-158985857D01*
X150841763Y-158975014D01*
X151006788Y-158979312D01*
X151112431Y-159025281D01*
X151159070Y-159113420D01*
X151147084Y-159244228D01*
X151115361Y-159335212D01*
X151074131Y-159458570D01*
X151043381Y-159591384D01*
X151042135Y-159599007D01*
X151022986Y-159712265D01*
X151004998Y-159806260D01*
X151002723Y-159816721D01*
X150982608Y-159915457D01*
X150970217Y-159983715D01*
X150952857Y-160076244D01*
X150928095Y-160197749D01*
X150919582Y-160237715D01*
X150898294Y-160349152D01*
X150872044Y-160504900D01*
X150845413Y-160677326D01*
X150836503Y-160738944D01*
X150813002Y-160896251D01*
X150793436Y-160994051D01*
X150772991Y-161044883D01*
X150746854Y-161061282D01*
X150714402Y-161056940D01*
X150620986Y-161039732D01*
X150576643Y-161036496D01*
X150522949Y-161010083D01*
X150513143Y-160980433D01*
X150483222Y-160923465D01*
X150449643Y-160903936D01*
X150378256Y-160876632D01*
X150274509Y-160832961D01*
X150233463Y-160814896D01*
X150118233Y-160769723D01*
X149997518Y-160737926D01*
X149854361Y-160716986D01*
X149671802Y-160704379D01*
X149446080Y-160697819D01*
X149086589Y-160691286D01*
X149033837Y-160879563D01*
X148991754Y-161000985D01*
X148940129Y-161074504D01*
X148861897Y-161124399D01*
X148861701Y-161124492D01*
X148768792Y-161166299D01*
X148719331Y-161177815D01*
X148692003Y-161161493D01*
X148680977Y-161145283D01*
X148672544Y-161092135D01*
X148673481Y-160991338D01*
X148680836Y-160894206D01*
X148690062Y-160768623D01*
X148683373Y-160695417D01*
X148657751Y-160655545D01*
X148641274Y-160644524D01*
X148537948Y-160625666D01*
X148413013Y-160662925D01*
X148355140Y-160696927D01*
X148275521Y-160735915D01*
X148227603Y-160745715D01*
X148161852Y-160762082D01*
X148066243Y-160802916D01*
X148035449Y-160818708D01*
X147940005Y-160859756D01*
X147797564Y-160909005D01*
X147631890Y-160958552D01*
X147546130Y-160981385D01*
X147193000Y-161071069D01*
X147031343Y-160990035D01*
X146912498Y-160921047D01*
X146863641Y-160867442D01*
X146884203Y-160827621D01*
X146964292Y-160801718D01*
X147153631Y-160764196D01*
X147281545Y-160735433D01*
X147358067Y-160711522D01*
X147393228Y-160688555D01*
X147397062Y-160662627D01*
X147384833Y-160637951D01*
X147367215Y-160582641D01*
X147367063Y-160569569D01*
X147694504Y-160569569D01*
X147706843Y-160597698D01*
X147717497Y-160600572D01*
X147765068Y-160585982D01*
X147862292Y-160546622D01*
X147993386Y-160489104D01*
X148095572Y-160442176D01*
X148239451Y-160372477D01*
X148357861Y-160310498D01*
X148435662Y-160264431D01*
X148457753Y-160246204D01*
X148439861Y-160217126D01*
X148359564Y-160185485D01*
X148226844Y-160153913D01*
X148051682Y-160125042D01*
X147950097Y-160112306D01*
X147763766Y-160091178D01*
X147742108Y-160209804D01*
X147711463Y-160386320D01*
X147695820Y-160502676D01*
X147694504Y-160569569D01*
X147367063Y-160569569D01*
X147366141Y-160490399D01*
X147382054Y-160348095D01*
X147398147Y-160244102D01*
X147422784Y-160084611D01*
X147433574Y-159978328D01*
X147430388Y-159907196D01*
X147413098Y-159853160D01*
X147395115Y-159820120D01*
X147359290Y-159750007D01*
X147366436Y-159708834D01*
X147402857Y-159677078D01*
X147452295Y-159602992D01*
X147485467Y-159474143D01*
X147489300Y-159445754D01*
X147499841Y-159338618D01*
X147494700Y-159287210D01*
X147468605Y-159275434D01*
X147435656Y-159281994D01*
X147380248Y-159282418D01*
X147345656Y-159235739D01*
X147328333Y-159180067D01*
X147322402Y-159149143D01*
X147864286Y-159149143D01*
X147864286Y-159314874D01*
X147867170Y-159415179D01*
X147882098Y-159459224D01*
X147918486Y-159463273D01*
X147945928Y-159455910D01*
X148024775Y-159424646D01*
X148135286Y-159372305D01*
X148199928Y-159338841D01*
X148295745Y-159283074D01*
X148358324Y-159238182D01*
X148372286Y-159220484D01*
X148339282Y-159194741D01*
X148253387Y-159171724D01*
X148134268Y-159155253D01*
X148004893Y-159149143D01*
X147864286Y-159149143D01*
X147322402Y-159149143D01*
X147313818Y-159104390D01*
X147328018Y-159050932D01*
X147382882Y-158995761D01*
X147443404Y-158949572D01*
X147516493Y-158898684D01*
X147581918Y-158866899D01*
X147659621Y-158849904D01*
X147769543Y-158843387D01*
X147931628Y-158843038D01*
X147935998Y-158843068D01*
X148203476Y-158860765D01*
X148410544Y-158911762D01*
X148562723Y-158999031D01*
X148665536Y-159125549D01*
X148717755Y-159264197D01*
X148710446Y-159381227D01*
X148633921Y-159498748D01*
X148491400Y-159612825D01*
X148381800Y-159674832D01*
X148177499Y-159778279D01*
X148367588Y-159840248D01*
X148492114Y-159890083D01*
X148599249Y-159948582D01*
X148639678Y-159979251D01*
X148709349Y-160033879D01*
X148760521Y-160056286D01*
X148783721Y-160023132D01*
X148810516Y-159935181D01*
X148835462Y-159812060D01*
X149183180Y-159812060D01*
X149192051Y-159838572D01*
X149232488Y-159822797D01*
X149320071Y-159780897D01*
X149437973Y-159721010D01*
X149473415Y-159702500D01*
X149625497Y-159612674D01*
X149776688Y-159507182D01*
X149894621Y-159408636D01*
X149896007Y-159407292D01*
X150059571Y-159248155D01*
X149942438Y-159198870D01*
X149846223Y-159172553D01*
X149707857Y-159151424D01*
X149561647Y-159140292D01*
X149297989Y-159131000D01*
X149258432Y-159330572D01*
X149215261Y-159559537D01*
X149190234Y-159719595D01*
X149183180Y-159812060D01*
X148835462Y-159812060D01*
X148835940Y-159809701D01*
X148841413Y-159775072D01*
X148865433Y-159630856D01*
X148896579Y-159466734D01*
X148931288Y-159298896D01*
X148965992Y-159143536D01*
X148997127Y-159016845D01*
X149021127Y-158935015D01*
X149031085Y-158913677D01*
X149073428Y-158897518D01*
X149144486Y-158881553D01*
X149290999Y-158847785D01*
X149370089Y-158811018D01*
X149388286Y-158778801D01*
X149420241Y-158757003D01*
X149503959Y-158752169D01*
X149621222Y-158762055D01*
X149621222Y-158762055D01*
G37*
X149621222Y-158762055D02*
X149753811Y-158784416D01*
X149883505Y-158817007D01*
X149978983Y-158851573D01*
X150132294Y-158944314D01*
X150229309Y-159068511D01*
X150279480Y-159238113D01*
X150287391Y-159306715D01*
X150292839Y-159412693D01*
X150280304Y-159486634D01*
X150239024Y-159555129D01*
X150158237Y-159644770D01*
X150144956Y-159658649D01*
X149996403Y-159798653D01*
X149833408Y-159918741D01*
X149635626Y-160032518D01*
X149451786Y-160122093D01*
X149333683Y-160180733D01*
X149246813Y-160231524D01*
X149207610Y-160264704D01*
X149206857Y-160267581D01*
X149239890Y-160287128D01*
X149326262Y-160306803D01*
X149440471Y-160321607D01*
X149795590Y-160379078D01*
X150146195Y-160480639D01*
X150461598Y-160617267D01*
X150480940Y-160627573D01*
X150500981Y-160602421D01*
X150525319Y-160514894D01*
X150552201Y-160374933D01*
X150579879Y-160192483D01*
X150606599Y-159977487D01*
X150623071Y-159820429D01*
X150642037Y-159629789D01*
X150661609Y-159439870D01*
X150678945Y-159277967D01*
X150687328Y-159203572D01*
X150712714Y-158985857D01*
X150841763Y-158975014D01*
X151006788Y-158979312D01*
X151112431Y-159025281D01*
X151159070Y-159113420D01*
X151147084Y-159244228D01*
X151115361Y-159335212D01*
X151074131Y-159458570D01*
X151043381Y-159591384D01*
X151042135Y-159599007D01*
X151022986Y-159712265D01*
X151004998Y-159806260D01*
X151002723Y-159816721D01*
X150982608Y-159915457D01*
X150970217Y-159983715D01*
X150952857Y-160076244D01*
X150928095Y-160197749D01*
X150919582Y-160237715D01*
X150898294Y-160349152D01*
X150872044Y-160504900D01*
X150845413Y-160677326D01*
X150836503Y-160738944D01*
X150813002Y-160896251D01*
X150793436Y-160994051D01*
X150772991Y-161044883D01*
X150746854Y-161061282D01*
X150714402Y-161056940D01*
X150620986Y-161039732D01*
X150576643Y-161036496D01*
X150522949Y-161010083D01*
X150513143Y-160980433D01*
X150483222Y-160923465D01*
X150449643Y-160903936D01*
X150378256Y-160876632D01*
X150274509Y-160832961D01*
X150233463Y-160814896D01*
X150118233Y-160769723D01*
X149997518Y-160737926D01*
X149854361Y-160716986D01*
X149671802Y-160704379D01*
X149446080Y-160697819D01*
X149086589Y-160691286D01*
X149033837Y-160879563D01*
X148991754Y-161000985D01*
X148940129Y-161074504D01*
X148861897Y-161124399D01*
X148861701Y-161124492D01*
X148768792Y-161166299D01*
X148719331Y-161177815D01*
X148692003Y-161161493D01*
X148680977Y-161145283D01*
X148672544Y-161092135D01*
X148673481Y-160991338D01*
X148680836Y-160894206D01*
X148690062Y-160768623D01*
X148683373Y-160695417D01*
X148657751Y-160655545D01*
X148641274Y-160644524D01*
X148537948Y-160625666D01*
X148413013Y-160662925D01*
X148355140Y-160696927D01*
X148275521Y-160735915D01*
X148227603Y-160745715D01*
X148161852Y-160762082D01*
X148066243Y-160802916D01*
X148035449Y-160818708D01*
X147940005Y-160859756D01*
X147797564Y-160909005D01*
X147631890Y-160958552D01*
X147546130Y-160981385D01*
X147193000Y-161071069D01*
X147031343Y-160990035D01*
X146912498Y-160921047D01*
X146863641Y-160867442D01*
X146884203Y-160827621D01*
X146964292Y-160801718D01*
X147153631Y-160764196D01*
X147281545Y-160735433D01*
X147358067Y-160711522D01*
X147393228Y-160688555D01*
X147397062Y-160662627D01*
X147384833Y-160637951D01*
X147367215Y-160582641D01*
X147367063Y-160569569D01*
X147694504Y-160569569D01*
X147706843Y-160597698D01*
X147717497Y-160600572D01*
X147765068Y-160585982D01*
X147862292Y-160546622D01*
X147993386Y-160489104D01*
X148095572Y-160442176D01*
X148239451Y-160372477D01*
X148357861Y-160310498D01*
X148435662Y-160264431D01*
X148457753Y-160246204D01*
X148439861Y-160217126D01*
X148359564Y-160185485D01*
X148226844Y-160153913D01*
X148051682Y-160125042D01*
X147950097Y-160112306D01*
X147763766Y-160091178D01*
X147742108Y-160209804D01*
X147711463Y-160386320D01*
X147695820Y-160502676D01*
X147694504Y-160569569D01*
X147367063Y-160569569D01*
X147366141Y-160490399D01*
X147382054Y-160348095D01*
X147398147Y-160244102D01*
X147422784Y-160084611D01*
X147433574Y-159978328D01*
X147430388Y-159907196D01*
X147413098Y-159853160D01*
X147395115Y-159820120D01*
X147359290Y-159750007D01*
X147366436Y-159708834D01*
X147402857Y-159677078D01*
X147452295Y-159602992D01*
X147485467Y-159474143D01*
X147489300Y-159445754D01*
X147499841Y-159338618D01*
X147494700Y-159287210D01*
X147468605Y-159275434D01*
X147435656Y-159281994D01*
X147380248Y-159282418D01*
X147345656Y-159235739D01*
X147328333Y-159180067D01*
X147322402Y-159149143D01*
X147864286Y-159149143D01*
X147864286Y-159314874D01*
X147867170Y-159415179D01*
X147882098Y-159459224D01*
X147918486Y-159463273D01*
X147945928Y-159455910D01*
X148024775Y-159424646D01*
X148135286Y-159372305D01*
X148199928Y-159338841D01*
X148295745Y-159283074D01*
X148358324Y-159238182D01*
X148372286Y-159220484D01*
X148339282Y-159194741D01*
X148253387Y-159171724D01*
X148134268Y-159155253D01*
X148004893Y-159149143D01*
X147864286Y-159149143D01*
X147322402Y-159149143D01*
X147313818Y-159104390D01*
X147328018Y-159050932D01*
X147382882Y-158995761D01*
X147443404Y-158949572D01*
X147516493Y-158898684D01*
X147581918Y-158866899D01*
X147659621Y-158849904D01*
X147769543Y-158843387D01*
X147931628Y-158843038D01*
X147935998Y-158843068D01*
X148203476Y-158860765D01*
X148410544Y-158911762D01*
X148562723Y-158999031D01*
X148665536Y-159125549D01*
X148717755Y-159264197D01*
X148710446Y-159381227D01*
X148633921Y-159498748D01*
X148491400Y-159612825D01*
X148381800Y-159674832D01*
X148177499Y-159778279D01*
X148367588Y-159840248D01*
X148492114Y-159890083D01*
X148599249Y-159948582D01*
X148639678Y-159979251D01*
X148709349Y-160033879D01*
X148760521Y-160056286D01*
X148783721Y-160023132D01*
X148810516Y-159935181D01*
X148835462Y-159812060D01*
X149183180Y-159812060D01*
X149192051Y-159838572D01*
X149232488Y-159822797D01*
X149320071Y-159780897D01*
X149437973Y-159721010D01*
X149473415Y-159702500D01*
X149625497Y-159612674D01*
X149776688Y-159507182D01*
X149894621Y-159408636D01*
X149896007Y-159407292D01*
X150059571Y-159248155D01*
X149942438Y-159198870D01*
X149846223Y-159172553D01*
X149707857Y-159151424D01*
X149561647Y-159140292D01*
X149297989Y-159131000D01*
X149258432Y-159330572D01*
X149215261Y-159559537D01*
X149190234Y-159719595D01*
X149183180Y-159812060D01*
X148835462Y-159812060D01*
X148835940Y-159809701D01*
X148841413Y-159775072D01*
X148865433Y-159630856D01*
X148896579Y-159466734D01*
X148931288Y-159298896D01*
X148965992Y-159143536D01*
X148997127Y-159016845D01*
X149021127Y-158935015D01*
X149031085Y-158913677D01*
X149073428Y-158897518D01*
X149144486Y-158881553D01*
X149290999Y-158847785D01*
X149370089Y-158811018D01*
X149388286Y-158778801D01*
X149420241Y-158757003D01*
X149503959Y-158752169D01*
X149621222Y-158762055D01*
G36*
X152866004Y-158542341D02*
X152867373Y-158572493D01*
X152858637Y-158641498D01*
X152839178Y-158761396D01*
X152818169Y-158886056D01*
X152794418Y-159042683D01*
X152767203Y-159247277D01*
X152739574Y-159475529D01*
X152714582Y-159703125D01*
X152710025Y-159747858D01*
X152688894Y-159958032D01*
X152668481Y-160160234D01*
X152650741Y-160335134D01*
X152637633Y-160463405D01*
X152634709Y-160491715D01*
X152613992Y-160691286D01*
X152736216Y-160437286D01*
X152794894Y-160573117D01*
X152837419Y-160659125D01*
X152881143Y-160693114D01*
X152952394Y-160691147D01*
X152980571Y-160686393D01*
X153113449Y-160656270D01*
X153174784Y-160625316D01*
X153165606Y-160592610D01*
X153114401Y-160566884D01*
X153012374Y-160528092D01*
X153013471Y-160464987D01*
X153380601Y-160464987D01*
X153383354Y-160529281D01*
X153406443Y-160547572D01*
X153469726Y-160527539D01*
X153504802Y-160512995D01*
X153600304Y-160465025D01*
X153726054Y-160391435D01*
X153843147Y-160315910D01*
X154088717Y-160121165D01*
X154262825Y-159919138D01*
X154365177Y-159710256D01*
X154395714Y-159512499D01*
X154390262Y-159428162D01*
X154361759Y-159377385D01*
X154291980Y-159338017D01*
X154232813Y-159314504D01*
X154133989Y-159282344D01*
X154041851Y-159270049D01*
X153928594Y-159276227D01*
X153806548Y-159293154D01*
X153674493Y-159316592D01*
X153571506Y-159340345D01*
X153517912Y-159359649D01*
X153515932Y-159361268D01*
X153502107Y-159407395D01*
X153487752Y-159508344D01*
X153475100Y-159646423D01*
X153470033Y-159725219D01*
X153457682Y-159895270D01*
X153440929Y-160056599D01*
X153422744Y-160182160D01*
X153416437Y-160213316D01*
X153393580Y-160335460D01*
X153381239Y-160446133D01*
X153380601Y-160464987D01*
X153013471Y-160464987D01*
X153020734Y-160047261D01*
X153021827Y-159857080D01*
X153018796Y-159683733D01*
X153012222Y-159545082D01*
X153002688Y-159458988D01*
X153001390Y-159453111D01*
X152990969Y-159395229D01*
X153000524Y-159349778D01*
X153040924Y-159303041D01*
X153123036Y-159241297D01*
X153222058Y-159174542D01*
X153473794Y-159026918D01*
X153702831Y-158937386D01*
X153923238Y-158901468D01*
X154069648Y-158904851D01*
X154265038Y-158942389D01*
X154412822Y-159022029D01*
X154529962Y-159155475D01*
X154592163Y-159265372D01*
X154662672Y-159450002D01*
X154685835Y-159643544D01*
X154686000Y-159664760D01*
X154682382Y-159783047D01*
X154666758Y-159881301D01*
X154631975Y-159977904D01*
X154570879Y-160091236D01*
X154476317Y-160239679D01*
X154442350Y-160290815D01*
X154365799Y-160394505D01*
X154292853Y-160475471D01*
X154255293Y-160505874D01*
X154193399Y-160544680D01*
X154091093Y-160612245D01*
X153967526Y-160695869D01*
X153930382Y-160721357D01*
X153781344Y-160816808D01*
X153623927Y-160906309D01*
X153489433Y-160972195D01*
X153475883Y-160977854D01*
X153360684Y-161020671D01*
X153267460Y-161040084D01*
X153165191Y-161039004D01*
X153022941Y-161020355D01*
X152825172Y-160974335D01*
X152689962Y-160907476D01*
X152620764Y-160821758D01*
X152612565Y-160785448D01*
X152604834Y-160779601D01*
X152591446Y-160833087D01*
X152585351Y-160868764D01*
X152546892Y-160984096D01*
X152472407Y-161040338D01*
X152354672Y-161041556D01*
X152300214Y-161029283D01*
X152210722Y-160988623D01*
X152182305Y-160926722D01*
X152182286Y-160924636D01*
X152161675Y-160844537D01*
X152112070Y-160753910D01*
X152111645Y-160753317D01*
X152063827Y-160663734D01*
X152014571Y-160535767D01*
X151985317Y-160437286D01*
X151941527Y-160281893D01*
X151890332Y-160122186D01*
X151861748Y-160042683D01*
X151793867Y-159865794D01*
X151769513Y-160024540D01*
X151756563Y-160095821D01*
X151732911Y-160214650D01*
X151701909Y-160365278D01*
X151666904Y-160531956D01*
X151631249Y-160698935D01*
X151598292Y-160850468D01*
X151571383Y-160970804D01*
X151553874Y-161044194D01*
X151549533Y-161058707D01*
X151507845Y-161075964D01*
X151422735Y-161084375D01*
X151323015Y-161082112D01*
X151275143Y-161076141D01*
X151186713Y-161051124D01*
X151147072Y-161003103D01*
X151135865Y-160946104D01*
X151138392Y-160855240D01*
X151157053Y-160711386D01*
X151188335Y-160530504D01*
X151228727Y-160328552D01*
X151274715Y-160121491D01*
X151322788Y-159925283D01*
X151369433Y-159755886D01*
X151411138Y-159629262D01*
X151438933Y-159568934D01*
X151482727Y-159470710D01*
X151498968Y-159403143D01*
X151513425Y-159348715D01*
X151565428Y-159348715D01*
X151583571Y-159366857D01*
X151601714Y-159348715D01*
X151583571Y-159330572D01*
X151565428Y-159348715D01*
X151513425Y-159348715D01*
X151523759Y-159309814D01*
X151561563Y-159257574D01*
X151601057Y-159259863D01*
X151610230Y-159271087D01*
X151632303Y-159282337D01*
X151637444Y-159248929D01*
X151618023Y-159195151D01*
X151595667Y-159185429D01*
X151573192Y-159169105D01*
X151580490Y-159158272D01*
X151619104Y-159162532D01*
X151661502Y-159203629D01*
X151698614Y-159249928D01*
X151704541Y-159236631D01*
X151691483Y-159178729D01*
X151679479Y-159116053D01*
X151697467Y-159096372D01*
X151762305Y-159110480D01*
X151797096Y-159121056D01*
X151894410Y-159160788D01*
X151970558Y-159220299D01*
X152033424Y-159311826D01*
X152090889Y-159447606D01*
X152150838Y-159639873D01*
X152165822Y-159693429D01*
X152270930Y-160074429D01*
X152313965Y-159693429D01*
X152349218Y-159418932D01*
X152386194Y-159201573D01*
X152420801Y-159058429D01*
X152472571Y-159058429D01*
X152490714Y-159076572D01*
X152508857Y-159058429D01*
X152490714Y-159040286D01*
X152472571Y-159058429D01*
X152420801Y-159058429D01*
X152423951Y-159045403D01*
X152448571Y-158985857D01*
X152581429Y-158985857D01*
X152599571Y-159004000D01*
X152617714Y-158985857D01*
X152599571Y-158967715D01*
X152581429Y-158985857D01*
X152448571Y-158985857D01*
X152461547Y-158954475D01*
X152490987Y-158931429D01*
X152528481Y-158899894D01*
X152559599Y-158823018D01*
X152561824Y-158813500D01*
X152581207Y-158739453D01*
X152598085Y-158729583D01*
X152618238Y-158768143D01*
X152641997Y-158818210D01*
X152642279Y-158817520D01*
X152714329Y-158817520D01*
X152716670Y-158861201D01*
X152737446Y-158921799D01*
X152754248Y-158913646D01*
X152771105Y-158844027D01*
X152771561Y-158779877D01*
X152743059Y-158773799D01*
X152714329Y-158817520D01*
X152642279Y-158817520D01*
X152649876Y-158798955D01*
X152651450Y-158762096D01*
X152635069Y-158691268D01*
X152608643Y-158664607D01*
X152600356Y-158652871D01*
X152635857Y-158653562D01*
X152719706Y-158673883D01*
X152753786Y-158689692D01*
X152790767Y-158689657D01*
X152799143Y-158645426D01*
X152815335Y-158575073D01*
X152835429Y-158550429D01*
X152855149Y-158539000D01*
X152866004Y-158542341D01*
X152866004Y-158542341D01*
G37*
X152866004Y-158542341D02*
X152867373Y-158572493D01*
X152858637Y-158641498D01*
X152839178Y-158761396D01*
X152818169Y-158886056D01*
X152794418Y-159042683D01*
X152767203Y-159247277D01*
X152739574Y-159475529D01*
X152714582Y-159703125D01*
X152710025Y-159747858D01*
X152688894Y-159958032D01*
X152668481Y-160160234D01*
X152650741Y-160335134D01*
X152637633Y-160463405D01*
X152634709Y-160491715D01*
X152613992Y-160691286D01*
X152736216Y-160437286D01*
X152794894Y-160573117D01*
X152837419Y-160659125D01*
X152881143Y-160693114D01*
X152952394Y-160691147D01*
X152980571Y-160686393D01*
X153113449Y-160656270D01*
X153174784Y-160625316D01*
X153165606Y-160592610D01*
X153114401Y-160566884D01*
X153012374Y-160528092D01*
X153013471Y-160464987D01*
X153380601Y-160464987D01*
X153383354Y-160529281D01*
X153406443Y-160547572D01*
X153469726Y-160527539D01*
X153504802Y-160512995D01*
X153600304Y-160465025D01*
X153726054Y-160391435D01*
X153843147Y-160315910D01*
X154088717Y-160121165D01*
X154262825Y-159919138D01*
X154365177Y-159710256D01*
X154395714Y-159512499D01*
X154390262Y-159428162D01*
X154361759Y-159377385D01*
X154291980Y-159338017D01*
X154232813Y-159314504D01*
X154133989Y-159282344D01*
X154041851Y-159270049D01*
X153928594Y-159276227D01*
X153806548Y-159293154D01*
X153674493Y-159316592D01*
X153571506Y-159340345D01*
X153517912Y-159359649D01*
X153515932Y-159361268D01*
X153502107Y-159407395D01*
X153487752Y-159508344D01*
X153475100Y-159646423D01*
X153470033Y-159725219D01*
X153457682Y-159895270D01*
X153440929Y-160056599D01*
X153422744Y-160182160D01*
X153416437Y-160213316D01*
X153393580Y-160335460D01*
X153381239Y-160446133D01*
X153380601Y-160464987D01*
X153013471Y-160464987D01*
X153020734Y-160047261D01*
X153021827Y-159857080D01*
X153018796Y-159683733D01*
X153012222Y-159545082D01*
X153002688Y-159458988D01*
X153001390Y-159453111D01*
X152990969Y-159395229D01*
X153000524Y-159349778D01*
X153040924Y-159303041D01*
X153123036Y-159241297D01*
X153222058Y-159174542D01*
X153473794Y-159026918D01*
X153702831Y-158937386D01*
X153923238Y-158901468D01*
X154069648Y-158904851D01*
X154265038Y-158942389D01*
X154412822Y-159022029D01*
X154529962Y-159155475D01*
X154592163Y-159265372D01*
X154662672Y-159450002D01*
X154685835Y-159643544D01*
X154686000Y-159664760D01*
X154682382Y-159783047D01*
X154666758Y-159881301D01*
X154631975Y-159977904D01*
X154570879Y-160091236D01*
X154476317Y-160239679D01*
X154442350Y-160290815D01*
X154365799Y-160394505D01*
X154292853Y-160475471D01*
X154255293Y-160505874D01*
X154193399Y-160544680D01*
X154091093Y-160612245D01*
X153967526Y-160695869D01*
X153930382Y-160721357D01*
X153781344Y-160816808D01*
X153623927Y-160906309D01*
X153489433Y-160972195D01*
X153475883Y-160977854D01*
X153360684Y-161020671D01*
X153267460Y-161040084D01*
X153165191Y-161039004D01*
X153022941Y-161020355D01*
X152825172Y-160974335D01*
X152689962Y-160907476D01*
X152620764Y-160821758D01*
X152612565Y-160785448D01*
X152604834Y-160779601D01*
X152591446Y-160833087D01*
X152585351Y-160868764D01*
X152546892Y-160984096D01*
X152472407Y-161040338D01*
X152354672Y-161041556D01*
X152300214Y-161029283D01*
X152210722Y-160988623D01*
X152182305Y-160926722D01*
X152182286Y-160924636D01*
X152161675Y-160844537D01*
X152112070Y-160753910D01*
X152111645Y-160753317D01*
X152063827Y-160663734D01*
X152014571Y-160535767D01*
X151985317Y-160437286D01*
X151941527Y-160281893D01*
X151890332Y-160122186D01*
X151861748Y-160042683D01*
X151793867Y-159865794D01*
X151769513Y-160024540D01*
X151756563Y-160095821D01*
X151732911Y-160214650D01*
X151701909Y-160365278D01*
X151666904Y-160531956D01*
X151631249Y-160698935D01*
X151598292Y-160850468D01*
X151571383Y-160970804D01*
X151553874Y-161044194D01*
X151549533Y-161058707D01*
X151507845Y-161075964D01*
X151422735Y-161084375D01*
X151323015Y-161082112D01*
X151275143Y-161076141D01*
X151186713Y-161051124D01*
X151147072Y-161003103D01*
X151135865Y-160946104D01*
X151138392Y-160855240D01*
X151157053Y-160711386D01*
X151188335Y-160530504D01*
X151228727Y-160328552D01*
X151274715Y-160121491D01*
X151322788Y-159925283D01*
X151369433Y-159755886D01*
X151411138Y-159629262D01*
X151438933Y-159568934D01*
X151482727Y-159470710D01*
X151498968Y-159403143D01*
X151513425Y-159348715D01*
X151565428Y-159348715D01*
X151583571Y-159366857D01*
X151601714Y-159348715D01*
X151583571Y-159330572D01*
X151565428Y-159348715D01*
X151513425Y-159348715D01*
X151523759Y-159309814D01*
X151561563Y-159257574D01*
X151601057Y-159259863D01*
X151610230Y-159271087D01*
X151632303Y-159282337D01*
X151637444Y-159248929D01*
X151618023Y-159195151D01*
X151595667Y-159185429D01*
X151573192Y-159169105D01*
X151580490Y-159158272D01*
X151619104Y-159162532D01*
X151661502Y-159203629D01*
X151698614Y-159249928D01*
X151704541Y-159236631D01*
X151691483Y-159178729D01*
X151679479Y-159116053D01*
X151697467Y-159096372D01*
X151762305Y-159110480D01*
X151797096Y-159121056D01*
X151894410Y-159160788D01*
X151970558Y-159220299D01*
X152033424Y-159311826D01*
X152090889Y-159447606D01*
X152150838Y-159639873D01*
X152165822Y-159693429D01*
X152270930Y-160074429D01*
X152313965Y-159693429D01*
X152349218Y-159418932D01*
X152386194Y-159201573D01*
X152420801Y-159058429D01*
X152472571Y-159058429D01*
X152490714Y-159076572D01*
X152508857Y-159058429D01*
X152490714Y-159040286D01*
X152472571Y-159058429D01*
X152420801Y-159058429D01*
X152423951Y-159045403D01*
X152448571Y-158985857D01*
X152581429Y-158985857D01*
X152599571Y-159004000D01*
X152617714Y-158985857D01*
X152599571Y-158967715D01*
X152581429Y-158985857D01*
X152448571Y-158985857D01*
X152461547Y-158954475D01*
X152490987Y-158931429D01*
X152528481Y-158899894D01*
X152559599Y-158823018D01*
X152561824Y-158813500D01*
X152581207Y-158739453D01*
X152598085Y-158729583D01*
X152618238Y-158768143D01*
X152641997Y-158818210D01*
X152642279Y-158817520D01*
X152714329Y-158817520D01*
X152716670Y-158861201D01*
X152737446Y-158921799D01*
X152754248Y-158913646D01*
X152771105Y-158844027D01*
X152771561Y-158779877D01*
X152743059Y-158773799D01*
X152714329Y-158817520D01*
X152642279Y-158817520D01*
X152649876Y-158798955D01*
X152651450Y-158762096D01*
X152635069Y-158691268D01*
X152608643Y-158664607D01*
X152600356Y-158652871D01*
X152635857Y-158653562D01*
X152719706Y-158673883D01*
X152753786Y-158689692D01*
X152790767Y-158689657D01*
X152799143Y-158645426D01*
X152815335Y-158575073D01*
X152835429Y-158550429D01*
X152855149Y-158539000D01*
X152866004Y-158542341D01*
G36*
X144568723Y-158865588D02*
X144704130Y-158875245D01*
X144793973Y-158893933D01*
X144825364Y-158921205D01*
X144825106Y-158923112D01*
X144838216Y-158951853D01*
X144903770Y-158944506D01*
X144915820Y-158941255D01*
X145003356Y-158926976D01*
X145134134Y-158917051D01*
X145270277Y-158913726D01*
X145422950Y-158919165D01*
X145528504Y-158938540D01*
X145611909Y-158977393D01*
X145639083Y-158995617D01*
X145764502Y-159123641D01*
X145863170Y-159299936D01*
X145924992Y-159502140D01*
X145941143Y-159664760D01*
X145937525Y-159783047D01*
X145921901Y-159881301D01*
X145887118Y-159977904D01*
X145826022Y-160091236D01*
X145731460Y-160239679D01*
X145697493Y-160290815D01*
X145620787Y-160394529D01*
X145547477Y-160475501D01*
X145509627Y-160505874D01*
X145444609Y-160546614D01*
X145342566Y-160614738D01*
X145225571Y-160695509D01*
X145225387Y-160695638D01*
X145004084Y-160843187D01*
X144820198Y-160945368D01*
X144658902Y-161007186D01*
X144505371Y-161033648D01*
X144344780Y-161029758D01*
X144266316Y-161019448D01*
X144074619Y-160976390D01*
X143950085Y-160914557D01*
X143888511Y-160828322D01*
X143885690Y-160712057D01*
X143932043Y-160572192D01*
X143991230Y-160437286D01*
X144049972Y-160573117D01*
X144092539Y-160659120D01*
X144136282Y-160693111D01*
X144207535Y-160691147D01*
X144235714Y-160686393D01*
X144368591Y-160656270D01*
X144429927Y-160625316D01*
X144420749Y-160592610D01*
X144369544Y-160566884D01*
X144267517Y-160528092D01*
X144268614Y-160464987D01*
X144635744Y-160464987D01*
X144638497Y-160529281D01*
X144661586Y-160547572D01*
X144724869Y-160527539D01*
X144759945Y-160512995D01*
X144855447Y-160465025D01*
X144981197Y-160391435D01*
X145098290Y-160315910D01*
X145343860Y-160121165D01*
X145517968Y-159919138D01*
X145620320Y-159710256D01*
X145650857Y-159512499D01*
X145645405Y-159428162D01*
X145616902Y-159377385D01*
X145547123Y-159338017D01*
X145487956Y-159314504D01*
X145389132Y-159282344D01*
X145296994Y-159270049D01*
X145183737Y-159276227D01*
X145061691Y-159293154D01*
X144929636Y-159316592D01*
X144826649Y-159340345D01*
X144773054Y-159359649D01*
X144771075Y-159361268D01*
X144757250Y-159407395D01*
X144742895Y-159508344D01*
X144730242Y-159646423D01*
X144725176Y-159725219D01*
X144712825Y-159895270D01*
X144696072Y-160056599D01*
X144677887Y-160182160D01*
X144671580Y-160213316D01*
X144648723Y-160335460D01*
X144636382Y-160446133D01*
X144635744Y-160464987D01*
X144268614Y-160464987D01*
X144275876Y-160047261D01*
X144276930Y-159856662D01*
X144273787Y-159682487D01*
X144267045Y-159542751D01*
X144257304Y-159455465D01*
X144256019Y-159449610D01*
X144243958Y-159371737D01*
X144265518Y-159320678D01*
X144334758Y-159269879D01*
X144358759Y-159255526D01*
X144439690Y-159203955D01*
X144485708Y-159167227D01*
X144489714Y-159160512D01*
X144458343Y-159154171D01*
X144380191Y-159160505D01*
X144279200Y-159175912D01*
X144179311Y-159196791D01*
X144108714Y-159217834D01*
X143980683Y-159264479D01*
X143849968Y-159306843D01*
X143733023Y-159340331D01*
X143646299Y-159360346D01*
X143606248Y-159362290D01*
X143606003Y-159358300D01*
X143597037Y-159346076D01*
X143559154Y-159361530D01*
X143473101Y-159401238D01*
X143432010Y-159416097D01*
X143390181Y-159455068D01*
X143345158Y-159531788D01*
X143309011Y-159619094D01*
X143293811Y-159689822D01*
X143299975Y-159713213D01*
X143340952Y-159715970D01*
X143431308Y-159707565D01*
X143518433Y-159695009D01*
X143663518Y-159680508D01*
X143788330Y-159684381D01*
X143875700Y-159704702D01*
X143908453Y-159738786D01*
X143906170Y-159855222D01*
X143881755Y-159927319D01*
X143820108Y-159982969D01*
X143754929Y-160022383D01*
X143626402Y-160087430D01*
X143492914Y-160142497D01*
X143456768Y-160154562D01*
X143357369Y-160178893D01*
X143295309Y-160172571D01*
X143247902Y-160139672D01*
X143193203Y-160100149D01*
X143168391Y-160095818D01*
X143140826Y-160146552D01*
X143107820Y-160237396D01*
X143075458Y-160346190D01*
X143049822Y-160450774D01*
X143036997Y-160528988D01*
X143041364Y-160558494D01*
X143088000Y-160550929D01*
X143185082Y-160520517D01*
X143316224Y-160472697D01*
X143403467Y-160438306D01*
X143618555Y-160360864D01*
X143780470Y-160323824D01*
X143887011Y-160327469D01*
X143935445Y-160370375D01*
X143921152Y-160422515D01*
X143869133Y-160499778D01*
X143797758Y-160581246D01*
X143725401Y-160646002D01*
X143670432Y-160673128D01*
X143669527Y-160673143D01*
X143623660Y-160690882D01*
X143618857Y-160703925D01*
X143588732Y-160736196D01*
X143513459Y-160779432D01*
X143482786Y-160793473D01*
X143354865Y-160853958D01*
X143228249Y-160921368D01*
X143220280Y-160925977D01*
X143046560Y-160992373D01*
X142876927Y-160986388D01*
X142711057Y-160907976D01*
X142628394Y-160840630D01*
X142578542Y-160784309D01*
X142551358Y-160720914D01*
X142548169Y-160638968D01*
X142570304Y-160526991D01*
X142619090Y-160373506D01*
X142695855Y-160167034D01*
X142710782Y-160128419D01*
X142786766Y-159931912D01*
X142837782Y-159789988D01*
X142864068Y-159689175D01*
X142865861Y-159616004D01*
X142843398Y-159557003D01*
X142796916Y-159498701D01*
X142726652Y-159427627D01*
X142723177Y-159424155D01*
X142633496Y-159330267D01*
X142590684Y-159270604D01*
X142587241Y-159231321D01*
X142605654Y-159207209D01*
X142660377Y-159182019D01*
X142773658Y-159147457D01*
X142932524Y-159106388D01*
X143124001Y-159061678D01*
X143335114Y-159016192D01*
X143552890Y-158972796D01*
X143764356Y-158934356D01*
X143956536Y-158903738D01*
X144018000Y-158895248D01*
X144212770Y-158875145D01*
X144400640Y-158865406D01*
X144568723Y-158865588D01*
X144568723Y-158865588D01*
G37*
X144568723Y-158865588D02*
X144704130Y-158875245D01*
X144793973Y-158893933D01*
X144825364Y-158921205D01*
X144825106Y-158923112D01*
X144838216Y-158951853D01*
X144903770Y-158944506D01*
X144915820Y-158941255D01*
X145003356Y-158926976D01*
X145134134Y-158917051D01*
X145270277Y-158913726D01*
X145422950Y-158919165D01*
X145528504Y-158938540D01*
X145611909Y-158977393D01*
X145639083Y-158995617D01*
X145764502Y-159123641D01*
X145863170Y-159299936D01*
X145924992Y-159502140D01*
X145941143Y-159664760D01*
X145937525Y-159783047D01*
X145921901Y-159881301D01*
X145887118Y-159977904D01*
X145826022Y-160091236D01*
X145731460Y-160239679D01*
X145697493Y-160290815D01*
X145620787Y-160394529D01*
X145547477Y-160475501D01*
X145509627Y-160505874D01*
X145444609Y-160546614D01*
X145342566Y-160614738D01*
X145225571Y-160695509D01*
X145225387Y-160695638D01*
X145004084Y-160843187D01*
X144820198Y-160945368D01*
X144658902Y-161007186D01*
X144505371Y-161033648D01*
X144344780Y-161029758D01*
X144266316Y-161019448D01*
X144074619Y-160976390D01*
X143950085Y-160914557D01*
X143888511Y-160828322D01*
X143885690Y-160712057D01*
X143932043Y-160572192D01*
X143991230Y-160437286D01*
X144049972Y-160573117D01*
X144092539Y-160659120D01*
X144136282Y-160693111D01*
X144207535Y-160691147D01*
X144235714Y-160686393D01*
X144368591Y-160656270D01*
X144429927Y-160625316D01*
X144420749Y-160592610D01*
X144369544Y-160566884D01*
X144267517Y-160528092D01*
X144268614Y-160464987D01*
X144635744Y-160464987D01*
X144638497Y-160529281D01*
X144661586Y-160547572D01*
X144724869Y-160527539D01*
X144759945Y-160512995D01*
X144855447Y-160465025D01*
X144981197Y-160391435D01*
X145098290Y-160315910D01*
X145343860Y-160121165D01*
X145517968Y-159919138D01*
X145620320Y-159710256D01*
X145650857Y-159512499D01*
X145645405Y-159428162D01*
X145616902Y-159377385D01*
X145547123Y-159338017D01*
X145487956Y-159314504D01*
X145389132Y-159282344D01*
X145296994Y-159270049D01*
X145183737Y-159276227D01*
X145061691Y-159293154D01*
X144929636Y-159316592D01*
X144826649Y-159340345D01*
X144773054Y-159359649D01*
X144771075Y-159361268D01*
X144757250Y-159407395D01*
X144742895Y-159508344D01*
X144730242Y-159646423D01*
X144725176Y-159725219D01*
X144712825Y-159895270D01*
X144696072Y-160056599D01*
X144677887Y-160182160D01*
X144671580Y-160213316D01*
X144648723Y-160335460D01*
X144636382Y-160446133D01*
X144635744Y-160464987D01*
X144268614Y-160464987D01*
X144275876Y-160047261D01*
X144276930Y-159856662D01*
X144273787Y-159682487D01*
X144267045Y-159542751D01*
X144257304Y-159455465D01*
X144256019Y-159449610D01*
X144243958Y-159371737D01*
X144265518Y-159320678D01*
X144334758Y-159269879D01*
X144358759Y-159255526D01*
X144439690Y-159203955D01*
X144485708Y-159167227D01*
X144489714Y-159160512D01*
X144458343Y-159154171D01*
X144380191Y-159160505D01*
X144279200Y-159175912D01*
X144179311Y-159196791D01*
X144108714Y-159217834D01*
X143980683Y-159264479D01*
X143849968Y-159306843D01*
X143733023Y-159340331D01*
X143646299Y-159360346D01*
X143606248Y-159362290D01*
X143606003Y-159358300D01*
X143597037Y-159346076D01*
X143559154Y-159361530D01*
X143473101Y-159401238D01*
X143432010Y-159416097D01*
X143390181Y-159455068D01*
X143345158Y-159531788D01*
X143309011Y-159619094D01*
X143293811Y-159689822D01*
X143299975Y-159713213D01*
X143340952Y-159715970D01*
X143431308Y-159707565D01*
X143518433Y-159695009D01*
X143663518Y-159680508D01*
X143788330Y-159684381D01*
X143875700Y-159704702D01*
X143908453Y-159738786D01*
X143906170Y-159855222D01*
X143881755Y-159927319D01*
X143820108Y-159982969D01*
X143754929Y-160022383D01*
X143626402Y-160087430D01*
X143492914Y-160142497D01*
X143456768Y-160154562D01*
X143357369Y-160178893D01*
X143295309Y-160172571D01*
X143247902Y-160139672D01*
X143193203Y-160100149D01*
X143168391Y-160095818D01*
X143140826Y-160146552D01*
X143107820Y-160237396D01*
X143075458Y-160346190D01*
X143049822Y-160450774D01*
X143036997Y-160528988D01*
X143041364Y-160558494D01*
X143088000Y-160550929D01*
X143185082Y-160520517D01*
X143316224Y-160472697D01*
X143403467Y-160438306D01*
X143618555Y-160360864D01*
X143780470Y-160323824D01*
X143887011Y-160327469D01*
X143935445Y-160370375D01*
X143921152Y-160422515D01*
X143869133Y-160499778D01*
X143797758Y-160581246D01*
X143725401Y-160646002D01*
X143670432Y-160673128D01*
X143669527Y-160673143D01*
X143623660Y-160690882D01*
X143618857Y-160703925D01*
X143588732Y-160736196D01*
X143513459Y-160779432D01*
X143482786Y-160793473D01*
X143354865Y-160853958D01*
X143228249Y-160921368D01*
X143220280Y-160925977D01*
X143046560Y-160992373D01*
X142876927Y-160986388D01*
X142711057Y-160907976D01*
X142628394Y-160840630D01*
X142578542Y-160784309D01*
X142551358Y-160720914D01*
X142548169Y-160638968D01*
X142570304Y-160526991D01*
X142619090Y-160373506D01*
X142695855Y-160167034D01*
X142710782Y-160128419D01*
X142786766Y-159931912D01*
X142837782Y-159789988D01*
X142864068Y-159689175D01*
X142865861Y-159616004D01*
X142843398Y-159557003D01*
X142796916Y-159498701D01*
X142726652Y-159427627D01*
X142723177Y-159424155D01*
X142633496Y-159330267D01*
X142590684Y-159270604D01*
X142587241Y-159231321D01*
X142605654Y-159207209D01*
X142660377Y-159182019D01*
X142773658Y-159147457D01*
X142932524Y-159106388D01*
X143124001Y-159061678D01*
X143335114Y-159016192D01*
X143552890Y-158972796D01*
X143764356Y-158934356D01*
X143956536Y-158903738D01*
X144018000Y-158895248D01*
X144212770Y-158875145D01*
X144400640Y-158865406D01*
X144568723Y-158865588D01*
G36*
X152508857Y-158804429D02*
X152490714Y-158822572D01*
X152472571Y-158804429D01*
X152490714Y-158786286D01*
X152508857Y-158804429D01*
X152508857Y-158804429D01*
G37*
X152508857Y-158804429D02*
X152490714Y-158822572D01*
X152472571Y-158804429D01*
X152490714Y-158786286D01*
X152508857Y-158804429D01*
D11*
X64710000Y-139700000D02*
X64710000Y-144840000D01*
X64710000Y-144840000D02*
X67370000Y-144840000D01*
X67370000Y-144840000D02*
X67370000Y-139700000D01*
X67370000Y-139700000D02*
X64710000Y-139700000D01*
X64710000Y-138430000D02*
X64710000Y-137100000D01*
X64710000Y-137100000D02*
X66040000Y-137100000D01*
D13*
X70993095Y-136612381D02*
X70993095Y-137421905D01*
X71040714Y-137517143D01*
X71088333Y-137564762D01*
X71183571Y-137612381D01*
X71374048Y-137612381D01*
X71469286Y-137564762D01*
X71516905Y-137517143D01*
X71564524Y-137421905D01*
X71564524Y-136612381D01*
X71993095Y-136707619D02*
X72040714Y-136660000D01*
X72135952Y-136612381D01*
X72374048Y-136612381D01*
X72469286Y-136660000D01*
X72516905Y-136707619D01*
X72564524Y-136802857D01*
X72564524Y-136898095D01*
X72516905Y-137040952D01*
X71945476Y-137612381D01*
X72564524Y-137612381D01*
X61261905Y-160912381D02*
X61261905Y-159912381D01*
X61642858Y-159912381D01*
X61738096Y-159960000D01*
X61785715Y-160007619D01*
X61833334Y-160102857D01*
X61833334Y-160245714D01*
X61785715Y-160340952D01*
X61738096Y-160388571D01*
X61642858Y-160436190D01*
X61261905Y-160436190D01*
X62785715Y-160912381D02*
X62214286Y-160912381D01*
X62500000Y-160912381D02*
X62500000Y-159912381D01*
X62404762Y-160055238D01*
X62309524Y-160150476D01*
X62214286Y-160198095D01*
X119467334Y-117292381D02*
X119134000Y-116816190D01*
X118895905Y-117292381D02*
X118895905Y-116292381D01*
X119276858Y-116292381D01*
X119372096Y-116340000D01*
X119419715Y-116387619D01*
X119467334Y-116482857D01*
X119467334Y-116625714D01*
X119419715Y-116720952D01*
X119372096Y-116768571D01*
X119276858Y-116816190D01*
X118895905Y-116816190D01*
X120419715Y-117292381D02*
X119848286Y-117292381D01*
X120134000Y-117292381D02*
X120134000Y-116292381D01*
X120038762Y-116435238D01*
X119943524Y-116530476D01*
X119848286Y-116578095D01*
X132929334Y-117292381D02*
X132596000Y-116816190D01*
X132357905Y-117292381D02*
X132357905Y-116292381D01*
X132738858Y-116292381D01*
X132834096Y-116340000D01*
X132881715Y-116387619D01*
X132929334Y-116482857D01*
X132929334Y-116625714D01*
X132881715Y-116720952D01*
X132834096Y-116768571D01*
X132738858Y-116816190D01*
X132357905Y-116816190D01*
X133310286Y-116387619D02*
X133357905Y-116340000D01*
X133453143Y-116292381D01*
X133691239Y-116292381D01*
X133786477Y-116340000D01*
X133834096Y-116387619D01*
X133881715Y-116482857D01*
X133881715Y-116578095D01*
X133834096Y-116720952D01*
X133262667Y-117292381D01*
X133881715Y-117292381D01*
X119467334Y-128722381D02*
X119134000Y-128246190D01*
X118895905Y-128722381D02*
X118895905Y-127722381D01*
X119276858Y-127722381D01*
X119372096Y-127770000D01*
X119419715Y-127817619D01*
X119467334Y-127912857D01*
X119467334Y-128055714D01*
X119419715Y-128150952D01*
X119372096Y-128198571D01*
X119276858Y-128246190D01*
X118895905Y-128246190D01*
X119800667Y-127722381D02*
X120419715Y-127722381D01*
X120086381Y-128103333D01*
X120229239Y-128103333D01*
X120324477Y-128150952D01*
X120372096Y-128198571D01*
X120419715Y-128293810D01*
X120419715Y-128531905D01*
X120372096Y-128627143D01*
X120324477Y-128674762D01*
X120229239Y-128722381D01*
X119943524Y-128722381D01*
X119848286Y-128674762D01*
X119800667Y-128627143D01*
X119467334Y-132532381D02*
X119134000Y-132056190D01*
X118895905Y-132532381D02*
X118895905Y-131532381D01*
X119276858Y-131532381D01*
X119372096Y-131580000D01*
X119419715Y-131627619D01*
X119467334Y-131722857D01*
X119467334Y-131865714D01*
X119419715Y-131960952D01*
X119372096Y-132008571D01*
X119276858Y-132056190D01*
X118895905Y-132056190D01*
X120324477Y-131865714D02*
X120324477Y-132532381D01*
X120086381Y-131484762D02*
X119848286Y-132199048D01*
X120467334Y-132199048D01*
X132929334Y-121102381D02*
X132596000Y-120626190D01*
X132357905Y-121102381D02*
X132357905Y-120102381D01*
X132738858Y-120102381D01*
X132834096Y-120150000D01*
X132881715Y-120197619D01*
X132929334Y-120292857D01*
X132929334Y-120435714D01*
X132881715Y-120530952D01*
X132834096Y-120578571D01*
X132738858Y-120626190D01*
X132357905Y-120626190D01*
X133834096Y-120102381D02*
X133357905Y-120102381D01*
X133310286Y-120578571D01*
X133357905Y-120530952D01*
X133453143Y-120483333D01*
X133691239Y-120483333D01*
X133786477Y-120530952D01*
X133834096Y-120578571D01*
X133881715Y-120673810D01*
X133881715Y-120911905D01*
X133834096Y-121007143D01*
X133786477Y-121054762D01*
X133691239Y-121102381D01*
X133453143Y-121102381D01*
X133357905Y-121054762D01*
X133310286Y-121007143D01*
X119467334Y-124912381D02*
X119134000Y-124436190D01*
X118895905Y-124912381D02*
X118895905Y-123912381D01*
X119276858Y-123912381D01*
X119372096Y-123960000D01*
X119419715Y-124007619D01*
X119467334Y-124102857D01*
X119467334Y-124245714D01*
X119419715Y-124340952D01*
X119372096Y-124388571D01*
X119276858Y-124436190D01*
X118895905Y-124436190D01*
X120324477Y-123912381D02*
X120134000Y-123912381D01*
X120038762Y-123960000D01*
X119991143Y-124007619D01*
X119895905Y-124150476D01*
X119848286Y-124340952D01*
X119848286Y-124721905D01*
X119895905Y-124817143D01*
X119943524Y-124864762D01*
X120038762Y-124912381D01*
X120229239Y-124912381D01*
X120324477Y-124864762D01*
X120372096Y-124817143D01*
X120419715Y-124721905D01*
X120419715Y-124483810D01*
X120372096Y-124388571D01*
X120324477Y-124340952D01*
X120229239Y-124293333D01*
X120038762Y-124293333D01*
X119943524Y-124340952D01*
X119895905Y-124388571D01*
X119848286Y-124483810D01*
X119467334Y-121102381D02*
X119134000Y-120626190D01*
X118895905Y-121102381D02*
X118895905Y-120102381D01*
X119276858Y-120102381D01*
X119372096Y-120150000D01*
X119419715Y-120197619D01*
X119467334Y-120292857D01*
X119467334Y-120435714D01*
X119419715Y-120530952D01*
X119372096Y-120578571D01*
X119276858Y-120626190D01*
X118895905Y-120626190D01*
X119800667Y-120102381D02*
X120467334Y-120102381D01*
X120038762Y-121102381D01*
X153856667Y-123912381D02*
X153856667Y-124626667D01*
X153809047Y-124769524D01*
X153713809Y-124864762D01*
X153570952Y-124912381D01*
X153475714Y-124912381D01*
X154856667Y-124912381D02*
X154285238Y-124912381D01*
X154570952Y-124912381D02*
X154570952Y-123912381D01*
X154475714Y-124055238D01*
X154380476Y-124150476D01*
X154285238Y-124198095D01*
X70953334Y-154027143D02*
X70905715Y-154074762D01*
X70762858Y-154122381D01*
X70667620Y-154122381D01*
X70524762Y-154074762D01*
X70429524Y-153979524D01*
X70381905Y-153884286D01*
X70334286Y-153693810D01*
X70334286Y-153550952D01*
X70381905Y-153360476D01*
X70429524Y-153265238D01*
X70524762Y-153170000D01*
X70667620Y-153122381D01*
X70762858Y-153122381D01*
X70905715Y-153170000D01*
X70953334Y-153217619D01*
X71905715Y-154122381D02*
X71334286Y-154122381D01*
X71620000Y-154122381D02*
X71620000Y-153122381D01*
X71524762Y-153265238D01*
X71429524Y-153360476D01*
X71334286Y-153408095D01*
X97623334Y-121642143D02*
X97575715Y-121689762D01*
X97432858Y-121737381D01*
X97337620Y-121737381D01*
X97194762Y-121689762D01*
X97099524Y-121594524D01*
X97051905Y-121499286D01*
X97004286Y-121308810D01*
X97004286Y-121165952D01*
X97051905Y-120975476D01*
X97099524Y-120880238D01*
X97194762Y-120785000D01*
X97337620Y-120737381D01*
X97432858Y-120737381D01*
X97575715Y-120785000D01*
X97623334Y-120832619D01*
X98004286Y-120832619D02*
X98051905Y-120785000D01*
X98147143Y-120737381D01*
X98385239Y-120737381D01*
X98480477Y-120785000D01*
X98528096Y-120832619D01*
X98575715Y-120927857D01*
X98575715Y-121023095D01*
X98528096Y-121165952D01*
X97956667Y-121737381D01*
X98575715Y-121737381D01*
X70318334Y-122277143D02*
X70270715Y-122324762D01*
X70127858Y-122372381D01*
X70032620Y-122372381D01*
X69889762Y-122324762D01*
X69794524Y-122229524D01*
X69746905Y-122134286D01*
X69699286Y-121943810D01*
X69699286Y-121800952D01*
X69746905Y-121610476D01*
X69794524Y-121515238D01*
X69889762Y-121420000D01*
X70032620Y-121372381D01*
X70127858Y-121372381D01*
X70270715Y-121420000D01*
X70318334Y-121467619D01*
X70651667Y-121372381D02*
X71270715Y-121372381D01*
X70937381Y-121753333D01*
X71080239Y-121753333D01*
X71175477Y-121800952D01*
X71223096Y-121848571D01*
X71270715Y-121943810D01*
X71270715Y-122181905D01*
X71223096Y-122277143D01*
X71175477Y-122324762D01*
X71080239Y-122372381D01*
X70794524Y-122372381D01*
X70699286Y-122324762D01*
X70651667Y-122277143D01*
X70953334Y-134800073D02*
X70905715Y-134847692D01*
X70762858Y-134895311D01*
X70667620Y-134895311D01*
X70524762Y-134847692D01*
X70429524Y-134752454D01*
X70381905Y-134657216D01*
X70334286Y-134466740D01*
X70334286Y-134323882D01*
X70381905Y-134133406D01*
X70429524Y-134038168D01*
X70524762Y-133942930D01*
X70667620Y-133895311D01*
X70762858Y-133895311D01*
X70905715Y-133942930D01*
X70953334Y-133990549D01*
X71810477Y-134228644D02*
X71810477Y-134895311D01*
X71572381Y-133847692D02*
X71334286Y-134561978D01*
X71953334Y-134561978D01*
X97623334Y-134977143D02*
X97575715Y-135024762D01*
X97432858Y-135072381D01*
X97337620Y-135072381D01*
X97194762Y-135024762D01*
X97099524Y-134929524D01*
X97051905Y-134834286D01*
X97004286Y-134643810D01*
X97004286Y-134500952D01*
X97051905Y-134310476D01*
X97099524Y-134215238D01*
X97194762Y-134120000D01*
X97337620Y-134072381D01*
X97432858Y-134072381D01*
X97575715Y-134120000D01*
X97623334Y-134167619D01*
X98528096Y-134072381D02*
X98051905Y-134072381D01*
X98004286Y-134548571D01*
X98051905Y-134500952D01*
X98147143Y-134453333D01*
X98385239Y-134453333D01*
X98480477Y-134500952D01*
X98528096Y-134548571D01*
X98575715Y-134643810D01*
X98575715Y-134881905D01*
X98528096Y-134977143D01*
X98480477Y-135024762D01*
X98385239Y-135072381D01*
X98147143Y-135072381D01*
X98051905Y-135024762D01*
X98004286Y-134977143D01*
X156146987Y-133022381D02*
X156146987Y-133736667D01*
X156099367Y-133879524D01*
X156004129Y-133974762D01*
X155861272Y-134022381D01*
X155766034Y-134022381D01*
X156575558Y-133117619D02*
X156623177Y-133070000D01*
X156718415Y-133022381D01*
X156956511Y-133022381D01*
X157051749Y-133070000D01*
X157099368Y-133117619D01*
X157146987Y-133212857D01*
X157146987Y-133308095D01*
X157099368Y-133450952D01*
X156527939Y-134022381D01*
X157146987Y-134022381D01*
X68381667Y-135342381D02*
X68381667Y-136056667D01*
X68334047Y-136199524D01*
X68238809Y-136294762D01*
X68095952Y-136342381D01*
X68000714Y-136342381D01*
X68857857Y-136342381D02*
X68857857Y-135342381D01*
X69238810Y-135342381D01*
X69334048Y-135390000D01*
X69381667Y-135437619D01*
X69429286Y-135532857D01*
X69429286Y-135675714D01*
X69381667Y-135770952D01*
X69334048Y-135818571D01*
X69238810Y-135866190D01*
X68857857Y-135866190D01*
X70381667Y-136342381D02*
X69810238Y-136342381D01*
X70095952Y-136342381D02*
X70095952Y-135342381D01*
X70000714Y-135485238D01*
X69905476Y-135580476D01*
X69810238Y-135628095D01*
X62031667Y-135342381D02*
X62031667Y-136056667D01*
X61984047Y-136199524D01*
X61888809Y-136294762D01*
X61745952Y-136342381D01*
X61650714Y-136342381D01*
X62507857Y-136342381D02*
X62507857Y-135342381D01*
X62888810Y-135342381D01*
X62984048Y-135390000D01*
X63031667Y-135437619D01*
X63079286Y-135532857D01*
X63079286Y-135675714D01*
X63031667Y-135770952D01*
X62984048Y-135818571D01*
X62888810Y-135866190D01*
X62507857Y-135866190D01*
X63460238Y-135437619D02*
X63507857Y-135390000D01*
X63603095Y-135342381D01*
X63841191Y-135342381D01*
X63936429Y-135390000D01*
X63984048Y-135437619D01*
X64031667Y-135532857D01*
X64031667Y-135628095D01*
X63984048Y-135770952D01*
X63412619Y-136342381D01*
X64031667Y-136342381D01*
X63301667Y-146772381D02*
X63301667Y-147486667D01*
X63254047Y-147629524D01*
X63158809Y-147724762D01*
X63015952Y-147772381D01*
X62920714Y-147772381D01*
X63777857Y-147772381D02*
X63777857Y-146772381D01*
X64158810Y-146772381D01*
X64254048Y-146820000D01*
X64301667Y-146867619D01*
X64349286Y-146962857D01*
X64349286Y-147105714D01*
X64301667Y-147200952D01*
X64254048Y-147248571D01*
X64158810Y-147296190D01*
X63777857Y-147296190D01*
X64682619Y-146772381D02*
X65301667Y-146772381D01*
X64968333Y-147153333D01*
X65111191Y-147153333D01*
X65206429Y-147200952D01*
X65254048Y-147248571D01*
X65301667Y-147343810D01*
X65301667Y-147581905D01*
X65254048Y-147677143D01*
X65206429Y-147724762D01*
X65111191Y-147772381D01*
X64825476Y-147772381D01*
X64730238Y-147724762D01*
X64682619Y-147677143D01*
X70921667Y-144232381D02*
X70921667Y-144946667D01*
X70874047Y-145089524D01*
X70778809Y-145184762D01*
X70635952Y-145232381D01*
X70540714Y-145232381D01*
X71397857Y-145232381D02*
X71397857Y-144232381D01*
X71778810Y-144232381D01*
X71874048Y-144280000D01*
X71921667Y-144327619D01*
X71969286Y-144422857D01*
X71969286Y-144565714D01*
X71921667Y-144660952D01*
X71874048Y-144708571D01*
X71778810Y-144756190D01*
X71397857Y-144756190D01*
X72826429Y-144565714D02*
X72826429Y-145232381D01*
X72588333Y-144184762D02*
X72350238Y-144899048D01*
X72969286Y-144899048D01*
X109656667Y-131532381D02*
X109656667Y-132246667D01*
X109609047Y-132389524D01*
X109513809Y-132484762D01*
X109370952Y-132532381D01*
X109275714Y-132532381D01*
X110132857Y-132532381D02*
X110132857Y-131532381D01*
X110513810Y-131532381D01*
X110609048Y-131580000D01*
X110656667Y-131627619D01*
X110704286Y-131722857D01*
X110704286Y-131865714D01*
X110656667Y-131960952D01*
X110609048Y-132008571D01*
X110513810Y-132056190D01*
X110132857Y-132056190D01*
X111609048Y-131532381D02*
X111132857Y-131532381D01*
X111085238Y-132008571D01*
X111132857Y-131960952D01*
X111228095Y-131913333D01*
X111466191Y-131913333D01*
X111561429Y-131960952D01*
X111609048Y-132008571D01*
X111656667Y-132103810D01*
X111656667Y-132341905D01*
X111609048Y-132437143D01*
X111561429Y-132484762D01*
X111466191Y-132532381D01*
X111228095Y-132532381D01*
X111132857Y-132484762D01*
X111085238Y-132437143D01*
X102036667Y-131532381D02*
X102036667Y-132246667D01*
X101989047Y-132389524D01*
X101893809Y-132484762D01*
X101750952Y-132532381D01*
X101655714Y-132532381D01*
X102512857Y-132532381D02*
X102512857Y-131532381D01*
X102893810Y-131532381D01*
X102989048Y-131580000D01*
X103036667Y-131627619D01*
X103084286Y-131722857D01*
X103084286Y-131865714D01*
X103036667Y-131960952D01*
X102989048Y-132008571D01*
X102893810Y-132056190D01*
X102512857Y-132056190D01*
X103941429Y-131532381D02*
X103750952Y-131532381D01*
X103655714Y-131580000D01*
X103608095Y-131627619D01*
X103512857Y-131770476D01*
X103465238Y-131960952D01*
X103465238Y-132341905D01*
X103512857Y-132437143D01*
X103560476Y-132484762D01*
X103655714Y-132532381D01*
X103846191Y-132532381D01*
X103941429Y-132484762D01*
X103989048Y-132437143D01*
X104036667Y-132341905D01*
X104036667Y-132103810D01*
X103989048Y-132008571D01*
X103941429Y-131960952D01*
X103846191Y-131913333D01*
X103655714Y-131913333D01*
X103560476Y-131960952D01*
X103512857Y-132008571D01*
X103465238Y-132103810D01*
X70993095Y-155662381D02*
X70993095Y-156471905D01*
X71040714Y-156567143D01*
X71088333Y-156614762D01*
X71183571Y-156662381D01*
X71374048Y-156662381D01*
X71469286Y-156614762D01*
X71516905Y-156567143D01*
X71564524Y-156471905D01*
X71564524Y-155662381D01*
X72564524Y-156662381D02*
X71993095Y-156662381D01*
X72278809Y-156662381D02*
X72278809Y-155662381D01*
X72183571Y-155805238D01*
X72088333Y-155900476D01*
X71993095Y-155948095D01*
X73533095Y-123912381D02*
X73533095Y-124721905D01*
X73580714Y-124817143D01*
X73628333Y-124864762D01*
X73723571Y-124912381D01*
X73914048Y-124912381D01*
X74009286Y-124864762D01*
X74056905Y-124817143D01*
X74104524Y-124721905D01*
X74104524Y-123912381D01*
X74485476Y-123912381D02*
X75104524Y-123912381D01*
X74771190Y-124293333D01*
X74914048Y-124293333D01*
X75009286Y-124340952D01*
X75056905Y-124388571D01*
X75104524Y-124483810D01*
X75104524Y-124721905D01*
X75056905Y-124817143D01*
X75009286Y-124864762D01*
X74914048Y-124912381D01*
X74628333Y-124912381D01*
X74533095Y-124864762D01*
X74485476Y-124817143D01*
X97663095Y-123912381D02*
X97663095Y-124721905D01*
X97710714Y-124817143D01*
X97758333Y-124864762D01*
X97853571Y-124912381D01*
X98044048Y-124912381D01*
X98139286Y-124864762D01*
X98186905Y-124817143D01*
X98234524Y-124721905D01*
X98234524Y-123912381D01*
X99139286Y-124245714D02*
X99139286Y-124912381D01*
X98901190Y-123864762D02*
X98663095Y-124579048D01*
X99282143Y-124579048D01*
X98933095Y-154392381D02*
X98933095Y-155201905D01*
X98980714Y-155297143D01*
X99028333Y-155344762D01*
X99123571Y-155392381D01*
X99314048Y-155392381D01*
X99409286Y-155344762D01*
X99456905Y-155297143D01*
X99504524Y-155201905D01*
X99504524Y-154392381D01*
X100456905Y-154392381D02*
X99980714Y-154392381D01*
X99933095Y-154868571D01*
X99980714Y-154820952D01*
X100075952Y-154773333D01*
X100314048Y-154773333D01*
X100409286Y-154820952D01*
X100456905Y-154868571D01*
X100504524Y-154963810D01*
X100504524Y-155201905D01*
X100456905Y-155297143D01*
X100409286Y-155344762D01*
X100314048Y-155392381D01*
X100075952Y-155392381D01*
X99980714Y-155344762D01*
X99933095Y-155297143D01*
X143343334Y-133707143D02*
X143295715Y-133754762D01*
X143152858Y-133802381D01*
X143057620Y-133802381D01*
X142914762Y-133754762D01*
X142819524Y-133659524D01*
X142771905Y-133564286D01*
X142724286Y-133373810D01*
X142724286Y-133230952D01*
X142771905Y-133040476D01*
X142819524Y-132945238D01*
X142914762Y-132850000D01*
X143057620Y-132802381D01*
X143152858Y-132802381D01*
X143295715Y-132850000D01*
X143343334Y-132897619D01*
X144200477Y-132802381D02*
X144010000Y-132802381D01*
X143914762Y-132850000D01*
X143867143Y-132897619D01*
X143771905Y-133040476D01*
X143724286Y-133230952D01*
X143724286Y-133611905D01*
X143771905Y-133707143D01*
X143819524Y-133754762D01*
X143914762Y-133802381D01*
X144105239Y-133802381D01*
X144200477Y-133754762D01*
X144248096Y-133707143D01*
X144295715Y-133611905D01*
X144295715Y-133373810D01*
X144248096Y-133278571D01*
X144200477Y-133230952D01*
X144105239Y-133183333D01*
X143914762Y-133183333D01*
X143819524Y-133230952D01*
X143771905Y-133278571D01*
X143724286Y-133373810D01*
X135723334Y-133707143D02*
X135675715Y-133754762D01*
X135532858Y-133802381D01*
X135437620Y-133802381D01*
X135294762Y-133754762D01*
X135199524Y-133659524D01*
X135151905Y-133564286D01*
X135104286Y-133373810D01*
X135104286Y-133230952D01*
X135151905Y-133040476D01*
X135199524Y-132945238D01*
X135294762Y-132850000D01*
X135437620Y-132802381D01*
X135532858Y-132802381D01*
X135675715Y-132850000D01*
X135723334Y-132897619D01*
X136056667Y-132802381D02*
X136723334Y-132802381D01*
X136294762Y-133802381D01*
X65206667Y-135342381D02*
X65206667Y-136056667D01*
X65159047Y-136199524D01*
X65063809Y-136294762D01*
X64920952Y-136342381D01*
X64825714Y-136342381D01*
X65682857Y-136342381D02*
X65682857Y-135342381D01*
X66063810Y-135342381D01*
X66159048Y-135390000D01*
X66206667Y-135437619D01*
X66254286Y-135532857D01*
X66254286Y-135675714D01*
X66206667Y-135770952D01*
X66159048Y-135818571D01*
X66063810Y-135866190D01*
X65682857Y-135866190D01*
X66587619Y-135342381D02*
X67254286Y-135342381D01*
X66825714Y-136342381D01*
M02*
