G04 #@! TF.FileFunction,Legend,Bot*
%FSLAX46Y46*%
G04 Gerber Fmt 4.6, Leading zero omitted, Abs format (unit mm)*
G04 Created by KiCad (PCBNEW 4.0.6) date Sat Apr 29 17:47:01 2017*
%MOMM*%
%LPD*%
G01*
G04 APERTURE LIST*
%ADD10C,0.100000*%
%ADD11C,0.300000*%
%ADD12C,0.635000*%
%ADD13C,0.010000*%
G04 APERTURE END LIST*
D10*
D11*
X150019998Y-158428571D02*
X150019998Y-159642857D01*
X150091427Y-159785714D01*
X150162855Y-159857143D01*
X150305712Y-159928571D01*
X150519998Y-159928571D01*
X150662855Y-159857143D01*
X150019998Y-159357143D02*
X150162855Y-159428571D01*
X150448569Y-159428571D01*
X150591427Y-159357143D01*
X150662855Y-159285714D01*
X150734284Y-159142857D01*
X150734284Y-158714286D01*
X150662855Y-158571429D01*
X150591427Y-158500000D01*
X150448569Y-158428571D01*
X150162855Y-158428571D01*
X150019998Y-158500000D01*
X149305712Y-159428571D02*
X149305712Y-158428571D01*
X149305712Y-157928571D02*
X149377141Y-158000000D01*
X149305712Y-158071429D01*
X149234284Y-158000000D01*
X149305712Y-157928571D01*
X149305712Y-158071429D01*
X148805712Y-158428571D02*
X148234283Y-158428571D01*
X148591426Y-157928571D02*
X148591426Y-159214286D01*
X148519998Y-159357143D01*
X148377140Y-159428571D01*
X148234283Y-159428571D01*
X147734283Y-159428571D02*
X147734283Y-157928571D01*
X147091426Y-159428571D02*
X147091426Y-158642857D01*
X147162855Y-158500000D01*
X147305712Y-158428571D01*
X147519997Y-158428571D01*
X147662855Y-158500000D01*
X147734283Y-158571429D01*
X145734283Y-158428571D02*
X145734283Y-159428571D01*
X146377140Y-158428571D02*
X146377140Y-159214286D01*
X146305712Y-159357143D01*
X146162854Y-159428571D01*
X145948569Y-159428571D01*
X145805712Y-159357143D01*
X145734283Y-159285714D01*
X145019997Y-159428571D02*
X145019997Y-157928571D01*
X145019997Y-158500000D02*
X144877140Y-158428571D01*
X144591426Y-158428571D01*
X144448569Y-158500000D01*
X144377140Y-158571429D01*
X144305711Y-158714286D01*
X144305711Y-159142857D01*
X144377140Y-159285714D01*
X144448569Y-159357143D01*
X144591426Y-159428571D01*
X144877140Y-159428571D01*
X145019997Y-159357143D01*
X143662854Y-159285714D02*
X143591426Y-159357143D01*
X143662854Y-159428571D01*
X143734283Y-159357143D01*
X143662854Y-159285714D01*
X143662854Y-159428571D01*
X142305711Y-159357143D02*
X142448568Y-159428571D01*
X142734282Y-159428571D01*
X142877140Y-159357143D01*
X142948568Y-159285714D01*
X143019997Y-159142857D01*
X143019997Y-158714286D01*
X142948568Y-158571429D01*
X142877140Y-158500000D01*
X142734282Y-158428571D01*
X142448568Y-158428571D01*
X142305711Y-158500000D01*
X141448568Y-159428571D02*
X141591426Y-159357143D01*
X141662854Y-159285714D01*
X141734283Y-159142857D01*
X141734283Y-158714286D01*
X141662854Y-158571429D01*
X141591426Y-158500000D01*
X141448568Y-158428571D01*
X141234283Y-158428571D01*
X141091426Y-158500000D01*
X141019997Y-158571429D01*
X140948568Y-158714286D01*
X140948568Y-159142857D01*
X141019997Y-159285714D01*
X141091426Y-159357143D01*
X141234283Y-159428571D01*
X141448568Y-159428571D01*
X140305711Y-159428571D02*
X140305711Y-158428571D01*
X140305711Y-158571429D02*
X140234283Y-158500000D01*
X140091425Y-158428571D01*
X139877140Y-158428571D01*
X139734283Y-158500000D01*
X139662854Y-158642857D01*
X139662854Y-159428571D01*
X139662854Y-158642857D02*
X139591425Y-158500000D01*
X139448568Y-158428571D01*
X139234283Y-158428571D01*
X139091425Y-158500000D01*
X139019997Y-158642857D01*
X139019997Y-159428571D01*
X137234283Y-157857143D02*
X138519997Y-159785714D01*
X136162854Y-159357143D02*
X136305711Y-159428571D01*
X136591425Y-159428571D01*
X136734282Y-159357143D01*
X136805711Y-159214286D01*
X136805711Y-158642857D01*
X136734282Y-158500000D01*
X136591425Y-158428571D01*
X136305711Y-158428571D01*
X136162854Y-158500000D01*
X136091425Y-158642857D01*
X136091425Y-158785714D01*
X136805711Y-158928571D01*
X135234282Y-159428571D02*
X135377140Y-159357143D01*
X135448568Y-159214286D01*
X135448568Y-157928571D01*
X134091426Y-159357143D02*
X134234283Y-159428571D01*
X134519997Y-159428571D01*
X134662854Y-159357143D01*
X134734283Y-159214286D01*
X134734283Y-158642857D01*
X134662854Y-158500000D01*
X134519997Y-158428571D01*
X134234283Y-158428571D01*
X134091426Y-158500000D01*
X134019997Y-158642857D01*
X134019997Y-158785714D01*
X134734283Y-158928571D01*
X132734283Y-159357143D02*
X132877140Y-159428571D01*
X133162854Y-159428571D01*
X133305712Y-159357143D01*
X133377140Y-159285714D01*
X133448569Y-159142857D01*
X133448569Y-158714286D01*
X133377140Y-158571429D01*
X133305712Y-158500000D01*
X133162854Y-158428571D01*
X132877140Y-158428571D01*
X132734283Y-158500000D01*
X132305712Y-158428571D02*
X131734283Y-158428571D01*
X132091426Y-157928571D02*
X132091426Y-159214286D01*
X132019998Y-159357143D01*
X131877140Y-159428571D01*
X131734283Y-159428571D01*
X131234283Y-159428571D02*
X131234283Y-158428571D01*
X131234283Y-158714286D02*
X131162855Y-158571429D01*
X131091426Y-158500000D01*
X130948569Y-158428571D01*
X130805712Y-158428571D01*
X130305712Y-159428571D02*
X130305712Y-158428571D01*
X130305712Y-157928571D02*
X130377141Y-158000000D01*
X130305712Y-158071429D01*
X130234284Y-158000000D01*
X130305712Y-157928571D01*
X130305712Y-158071429D01*
X129805712Y-158428571D02*
X129234283Y-158428571D01*
X129591426Y-159428571D02*
X129591426Y-158142857D01*
X129519998Y-158000000D01*
X129377140Y-157928571D01*
X129234283Y-157928571D01*
X128734283Y-159428571D02*
X128734283Y-158428571D01*
X128734283Y-157928571D02*
X128805712Y-158000000D01*
X128734283Y-158071429D01*
X128662855Y-158000000D01*
X128734283Y-157928571D01*
X128734283Y-158071429D01*
X127448569Y-159357143D02*
X127591426Y-159428571D01*
X127877140Y-159428571D01*
X128019997Y-159357143D01*
X128091426Y-159214286D01*
X128091426Y-158642857D01*
X128019997Y-158500000D01*
X127877140Y-158428571D01*
X127591426Y-158428571D01*
X127448569Y-158500000D01*
X127377140Y-158642857D01*
X127377140Y-158785714D01*
X128091426Y-158928571D01*
X126091426Y-159428571D02*
X126091426Y-157928571D01*
X126091426Y-159357143D02*
X126234283Y-159428571D01*
X126519997Y-159428571D01*
X126662855Y-159357143D01*
X126734283Y-159285714D01*
X126805712Y-159142857D01*
X126805712Y-158714286D01*
X126734283Y-158571429D01*
X126662855Y-158500000D01*
X126519997Y-158428571D01*
X126234283Y-158428571D01*
X126091426Y-158500000D01*
X124305712Y-157857143D02*
X125591426Y-159785714D01*
X123805711Y-159428571D02*
X123805711Y-158428571D01*
X123805711Y-158714286D02*
X123734283Y-158571429D01*
X123662854Y-158500000D01*
X123519997Y-158428571D01*
X123377140Y-158428571D01*
X122234283Y-159357143D02*
X122377140Y-159428571D01*
X122662854Y-159428571D01*
X122805712Y-159357143D01*
X122877140Y-159285714D01*
X122948569Y-159142857D01*
X122948569Y-158714286D01*
X122877140Y-158571429D01*
X122805712Y-158500000D01*
X122662854Y-158428571D01*
X122377140Y-158428571D01*
X122234283Y-158500000D01*
X121662855Y-158071429D02*
X121591426Y-158000000D01*
X121448569Y-157928571D01*
X121091426Y-157928571D01*
X120948569Y-158000000D01*
X120877140Y-158071429D01*
X120805712Y-158214286D01*
X120805712Y-158357143D01*
X120877140Y-158571429D01*
X121734283Y-159428571D01*
X120805712Y-159428571D01*
X119877141Y-157928571D02*
X119734284Y-157928571D01*
X119591427Y-158000000D01*
X119519998Y-158071429D01*
X119448569Y-158214286D01*
X119377141Y-158500000D01*
X119377141Y-158857143D01*
X119448569Y-159142857D01*
X119519998Y-159285714D01*
X119591427Y-159357143D01*
X119734284Y-159428571D01*
X119877141Y-159428571D01*
X120019998Y-159357143D01*
X120091427Y-159285714D01*
X120162855Y-159142857D01*
X120234284Y-158857143D01*
X120234284Y-158500000D01*
X120162855Y-158214286D01*
X120091427Y-158071429D01*
X120019998Y-158000000D01*
X119877141Y-157928571D01*
X117948570Y-159428571D02*
X118805713Y-159428571D01*
X118377141Y-159428571D02*
X118377141Y-157928571D01*
X118519998Y-158142857D01*
X118662856Y-158285714D01*
X118805713Y-158357143D01*
X116662856Y-158428571D02*
X116662856Y-159428571D01*
X117019999Y-157857143D02*
X117377142Y-158928571D01*
X116448570Y-158928571D01*
X115877142Y-158857143D02*
X114734285Y-158857143D01*
X114162856Y-158428571D02*
X113805713Y-159428571D01*
X113448571Y-158428571D02*
X113805713Y-159428571D01*
X113948571Y-159785714D01*
X114019999Y-159857143D01*
X114162856Y-159928571D01*
X112877142Y-159428571D02*
X112877142Y-158428571D01*
X112877142Y-158571429D02*
X112805714Y-158500000D01*
X112662856Y-158428571D01*
X112448571Y-158428571D01*
X112305714Y-158500000D01*
X112234285Y-158642857D01*
X112234285Y-159428571D01*
X112234285Y-158642857D02*
X112162856Y-158500000D01*
X112019999Y-158428571D01*
X111805714Y-158428571D01*
X111662856Y-158500000D01*
X111591428Y-158642857D01*
X111591428Y-159428571D01*
X110948571Y-158071429D02*
X110877142Y-158000000D01*
X110734285Y-157928571D01*
X110377142Y-157928571D01*
X110234285Y-158000000D01*
X110162856Y-158071429D01*
X110091428Y-158214286D01*
X110091428Y-158357143D01*
X110162856Y-158571429D01*
X111019999Y-159428571D01*
X110091428Y-159428571D01*
X108662857Y-159428571D02*
X109520000Y-159428571D01*
X109091428Y-159428571D02*
X109091428Y-157928571D01*
X109234285Y-158142857D01*
X109377143Y-158285714D01*
X109520000Y-158357143D01*
X107377143Y-158428571D02*
X107377143Y-159428571D01*
X107734286Y-157857143D02*
X108091429Y-158928571D01*
X107162857Y-158928571D01*
X106520001Y-159428571D02*
X106234286Y-159428571D01*
X106091429Y-159357143D01*
X106020001Y-159285714D01*
X105877143Y-159071429D01*
X105805715Y-158785714D01*
X105805715Y-158214286D01*
X105877143Y-158071429D01*
X105948572Y-158000000D01*
X106091429Y-157928571D01*
X106377143Y-157928571D01*
X106520001Y-158000000D01*
X106591429Y-158071429D01*
X106662858Y-158214286D01*
X106662858Y-158571429D01*
X106591429Y-158714286D01*
X106520001Y-158785714D01*
X106377143Y-158857143D01*
X106091429Y-158857143D01*
X105948572Y-158785714D01*
X105877143Y-158714286D01*
X105805715Y-158571429D01*
D12*
X148701429Y-146104563D02*
X149701429Y-144675991D01*
X150415714Y-146104563D02*
X150415714Y-143104563D01*
X149272857Y-143104563D01*
X148987143Y-143247420D01*
X148844286Y-143390277D01*
X148701429Y-143675991D01*
X148701429Y-144104563D01*
X148844286Y-144390277D01*
X148987143Y-144533134D01*
X149272857Y-144675991D01*
X150415714Y-144675991D01*
X145701429Y-145818849D02*
X145844286Y-145961706D01*
X146272857Y-146104563D01*
X146558571Y-146104563D01*
X146987143Y-145961706D01*
X147272857Y-145675991D01*
X147415714Y-145390277D01*
X147558571Y-144818849D01*
X147558571Y-144390277D01*
X147415714Y-143818849D01*
X147272857Y-143533134D01*
X146987143Y-143247420D01*
X146558571Y-143104563D01*
X146272857Y-143104563D01*
X145844286Y-143247420D01*
X145701429Y-143390277D01*
X144558571Y-143390277D02*
X144415714Y-143247420D01*
X144130000Y-143104563D01*
X143415714Y-143104563D01*
X143130000Y-143247420D01*
X142987143Y-143390277D01*
X142844286Y-143675991D01*
X142844286Y-143961706D01*
X142987143Y-144390277D01*
X144701429Y-146104563D01*
X142844286Y-146104563D01*
X140987143Y-143104563D02*
X140701428Y-143104563D01*
X140415714Y-143247420D01*
X140272857Y-143390277D01*
X140130000Y-143675991D01*
X139987143Y-144247420D01*
X139987143Y-144961706D01*
X140130000Y-145533134D01*
X140272857Y-145818849D01*
X140415714Y-145961706D01*
X140701428Y-146104563D01*
X140987143Y-146104563D01*
X141272857Y-145961706D01*
X141415714Y-145818849D01*
X141558571Y-145533134D01*
X141701428Y-144961706D01*
X141701428Y-144247420D01*
X141558571Y-143675991D01*
X141415714Y-143390277D01*
X141272857Y-143247420D01*
X140987143Y-143104563D01*
X137130000Y-146104563D02*
X138844285Y-146104563D01*
X137987143Y-146104563D02*
X137987143Y-143104563D01*
X138272857Y-143533134D01*
X138558571Y-143818849D01*
X138844285Y-143961706D01*
X134558571Y-144104563D02*
X134558571Y-146104563D01*
X135272857Y-142961706D02*
X135987142Y-145104563D01*
X134130000Y-145104563D01*
X130130000Y-144675991D02*
X130130000Y-146104563D01*
X131130000Y-143104563D02*
X130130000Y-144675991D01*
X129130000Y-143104563D01*
X128129999Y-146104563D02*
X128129999Y-143104563D01*
X127129999Y-145247420D01*
X126129999Y-143104563D01*
X126129999Y-146104563D01*
X122558571Y-142961706D02*
X125130000Y-146818849D01*
X121701428Y-145247420D02*
X120272857Y-145247420D01*
X121987143Y-146104563D02*
X120987143Y-143104563D01*
X119987143Y-146104563D01*
X118415714Y-144675991D02*
X118415714Y-146104563D01*
X119415714Y-143104563D02*
X118415714Y-144675991D01*
X117415714Y-143104563D01*
X150558571Y-151096706D02*
X150130000Y-151239563D01*
X149415714Y-151239563D01*
X149130000Y-151096706D01*
X148987143Y-150953849D01*
X148844286Y-150668134D01*
X148844286Y-150382420D01*
X148987143Y-150096706D01*
X149130000Y-149953849D01*
X149415714Y-149810991D01*
X149987143Y-149668134D01*
X150272857Y-149525277D01*
X150415714Y-149382420D01*
X150558571Y-149096706D01*
X150558571Y-148810991D01*
X150415714Y-148525277D01*
X150272857Y-148382420D01*
X149987143Y-148239563D01*
X149272857Y-148239563D01*
X148844286Y-148382420D01*
X147130000Y-151239563D02*
X147415714Y-151096706D01*
X147558571Y-150953849D01*
X147701428Y-150668134D01*
X147701428Y-149810991D01*
X147558571Y-149525277D01*
X147415714Y-149382420D01*
X147130000Y-149239563D01*
X146701428Y-149239563D01*
X146415714Y-149382420D01*
X146272857Y-149525277D01*
X146130000Y-149810991D01*
X146130000Y-150668134D01*
X146272857Y-150953849D01*
X146415714Y-151096706D01*
X146701428Y-151239563D01*
X147130000Y-151239563D01*
X143558571Y-149239563D02*
X143558571Y-151239563D01*
X144844285Y-149239563D02*
X144844285Y-150810991D01*
X144701428Y-151096706D01*
X144415714Y-151239563D01*
X143987142Y-151239563D01*
X143701428Y-151096706D01*
X143558571Y-150953849D01*
X142129999Y-149239563D02*
X142129999Y-151239563D01*
X142129999Y-149525277D02*
X141987142Y-149382420D01*
X141701428Y-149239563D01*
X141272856Y-149239563D01*
X140987142Y-149382420D01*
X140844285Y-149668134D01*
X140844285Y-151239563D01*
X138129999Y-151239563D02*
X138129999Y-148239563D01*
X138129999Y-151096706D02*
X138415713Y-151239563D01*
X138987142Y-151239563D01*
X139272856Y-151096706D01*
X139415713Y-150953849D01*
X139558570Y-150668134D01*
X139558570Y-149810991D01*
X139415713Y-149525277D01*
X139272856Y-149382420D01*
X138987142Y-149239563D01*
X138415713Y-149239563D01*
X138129999Y-149382420D01*
X132701428Y-150953849D02*
X132844285Y-151096706D01*
X133272856Y-151239563D01*
X133558570Y-151239563D01*
X133987142Y-151096706D01*
X134272856Y-150810991D01*
X134415713Y-150525277D01*
X134558570Y-149953849D01*
X134558570Y-149525277D01*
X134415713Y-148953849D01*
X134272856Y-148668134D01*
X133987142Y-148382420D01*
X133558570Y-148239563D01*
X133272856Y-148239563D01*
X132844285Y-148382420D01*
X132701428Y-148525277D01*
X130129999Y-151239563D02*
X130129999Y-149668134D01*
X130272856Y-149382420D01*
X130558570Y-149239563D01*
X131129999Y-149239563D01*
X131415713Y-149382420D01*
X130129999Y-151096706D02*
X130415713Y-151239563D01*
X131129999Y-151239563D01*
X131415713Y-151096706D01*
X131558570Y-150810991D01*
X131558570Y-150525277D01*
X131415713Y-150239563D01*
X131129999Y-150096706D01*
X130415713Y-150096706D01*
X130129999Y-149953849D01*
X128701427Y-151239563D02*
X128701427Y-149239563D01*
X128701427Y-149810991D02*
X128558570Y-149525277D01*
X128415713Y-149382420D01*
X128129999Y-149239563D01*
X127844284Y-149239563D01*
X125558570Y-151239563D02*
X125558570Y-148239563D01*
X125558570Y-151096706D02*
X125844284Y-151239563D01*
X126415713Y-151239563D01*
X126701427Y-151096706D01*
X126844284Y-150953849D01*
X126987141Y-150668134D01*
X126987141Y-149810991D01*
X126844284Y-149525277D01*
X126701427Y-149382420D01*
X126415713Y-149239563D01*
X125844284Y-149239563D01*
X125558570Y-149382420D01*
D13*
G36*
X110252092Y-144093368D02*
X110222931Y-144098783D01*
X110216156Y-144100716D01*
X110169828Y-144119085D01*
X110128301Y-144143528D01*
X110091978Y-144173577D01*
X110061260Y-144208760D01*
X110036552Y-144248606D01*
X110018255Y-144292646D01*
X110006773Y-144340407D01*
X110005852Y-144346514D01*
X110005556Y-144351221D01*
X110005274Y-144361123D01*
X110005006Y-144376309D01*
X110004751Y-144396873D01*
X110004510Y-144422907D01*
X110004283Y-144454502D01*
X110004069Y-144491751D01*
X110003868Y-144534745D01*
X110003680Y-144583577D01*
X110003506Y-144638339D01*
X110003344Y-144699122D01*
X110003196Y-144766019D01*
X110003060Y-144839122D01*
X110002937Y-144918523D01*
X110002826Y-145004313D01*
X110002728Y-145096585D01*
X110002642Y-145195430D01*
X110002569Y-145300942D01*
X110002508Y-145413211D01*
X110002458Y-145532331D01*
X110002421Y-145658392D01*
X110002396Y-145791487D01*
X110002383Y-145931708D01*
X110002381Y-146079146D01*
X110002391Y-146233895D01*
X110002412Y-146396046D01*
X110002445Y-146565691D01*
X110002488Y-146742921D01*
X110002544Y-146927830D01*
X110002610Y-147120509D01*
X110002672Y-147284282D01*
X110002745Y-147466636D01*
X110002817Y-147641223D01*
X110002887Y-147808213D01*
X110002956Y-147967777D01*
X110003025Y-148120083D01*
X110003095Y-148265303D01*
X110003164Y-148403607D01*
X110003236Y-148535164D01*
X110003308Y-148660146D01*
X110003383Y-148778722D01*
X110003461Y-148891062D01*
X110003541Y-148997337D01*
X110003625Y-149097717D01*
X110003713Y-149192372D01*
X110003806Y-149281472D01*
X110003903Y-149365187D01*
X110004006Y-149443688D01*
X110004115Y-149517145D01*
X110004230Y-149585728D01*
X110004353Y-149649607D01*
X110004482Y-149708952D01*
X110004619Y-149763935D01*
X110004765Y-149814723D01*
X110004920Y-149861489D01*
X110005083Y-149904402D01*
X110005257Y-149943633D01*
X110005441Y-149979351D01*
X110005635Y-150011726D01*
X110005841Y-150040930D01*
X110006058Y-150067132D01*
X110006288Y-150090502D01*
X110006530Y-150111210D01*
X110006785Y-150129428D01*
X110007054Y-150145324D01*
X110007337Y-150159070D01*
X110007634Y-150170834D01*
X110007946Y-150180789D01*
X110008274Y-150189103D01*
X110008618Y-150195947D01*
X110008978Y-150201491D01*
X110009355Y-150205905D01*
X110009750Y-150209360D01*
X110010162Y-150212025D01*
X110010593Y-150214071D01*
X110010899Y-150215203D01*
X110018282Y-150236457D01*
X110028259Y-150260312D01*
X110039461Y-150283801D01*
X110050522Y-150303955D01*
X110055119Y-150311189D01*
X110070407Y-150330654D01*
X110090294Y-150351521D01*
X110112366Y-150371473D01*
X110134211Y-150388191D01*
X110137720Y-150390540D01*
X110178719Y-150412751D01*
X110222908Y-150428312D01*
X110268921Y-150436930D01*
X110315392Y-150438316D01*
X110346646Y-150434964D01*
X110378757Y-150427236D01*
X110412418Y-150414983D01*
X110443896Y-150399606D01*
X110449542Y-150396316D01*
X110455032Y-150392216D01*
X110466377Y-150383022D01*
X110483445Y-150368848D01*
X110506101Y-150349809D01*
X110534213Y-150326019D01*
X110567647Y-150297594D01*
X110606268Y-150264647D01*
X110649945Y-150227293D01*
X110698543Y-150185647D01*
X110751929Y-150139824D01*
X110809970Y-150089938D01*
X110872531Y-150036103D01*
X110939480Y-149978435D01*
X111010682Y-149917048D01*
X111086005Y-149852056D01*
X111165316Y-149783574D01*
X111248479Y-149711717D01*
X111335363Y-149636600D01*
X111425833Y-149558336D01*
X111464328Y-149525022D01*
X112452547Y-148669711D01*
X113350127Y-148669543D01*
X113451367Y-148669527D01*
X113544984Y-148669513D01*
X113631292Y-148669495D01*
X113710606Y-148669465D01*
X113783240Y-148669417D01*
X113849508Y-148669344D01*
X113909725Y-148669240D01*
X113964206Y-148669096D01*
X114013264Y-148668907D01*
X114057214Y-148668666D01*
X114096370Y-148668366D01*
X114131047Y-148667999D01*
X114161559Y-148667560D01*
X114188221Y-148667041D01*
X114211346Y-148666435D01*
X114231250Y-148665736D01*
X114248247Y-148664936D01*
X114262650Y-148664030D01*
X114274776Y-148663009D01*
X114284937Y-148661868D01*
X114293448Y-148660599D01*
X114300623Y-148659196D01*
X114306778Y-148657651D01*
X114312226Y-148655958D01*
X114317282Y-148654111D01*
X114322260Y-148652101D01*
X114327475Y-148649923D01*
X114331707Y-148648184D01*
X114366377Y-148631862D01*
X114396985Y-148612045D01*
X114426414Y-148586819D01*
X114431297Y-148582063D01*
X114462598Y-148546182D01*
X114487248Y-148506711D01*
X114505154Y-148464985D01*
X114516297Y-148433235D01*
X114517393Y-147264438D01*
X114517507Y-147148632D01*
X114517622Y-147040491D01*
X114517731Y-146939742D01*
X114517829Y-146846113D01*
X114517909Y-146759330D01*
X114517967Y-146679123D01*
X114517997Y-146605216D01*
X114517992Y-146537339D01*
X114517947Y-146475219D01*
X114517856Y-146418582D01*
X114517714Y-146367157D01*
X114517514Y-146320670D01*
X114517250Y-146278849D01*
X114516918Y-146241421D01*
X114516511Y-146208114D01*
X114516024Y-146178655D01*
X114515450Y-146152772D01*
X114514784Y-146130191D01*
X114514021Y-146110641D01*
X114513153Y-146093848D01*
X114512177Y-146079540D01*
X114511085Y-146067444D01*
X114509872Y-146057288D01*
X114508533Y-146048799D01*
X114507061Y-146041705D01*
X114505451Y-146035732D01*
X114503696Y-146030608D01*
X114501792Y-146026061D01*
X114499733Y-146021818D01*
X114497512Y-146017606D01*
X114495124Y-146013153D01*
X114492563Y-146008186D01*
X114490712Y-146004360D01*
X114466725Y-145962247D01*
X114436799Y-145925240D01*
X114401345Y-145893684D01*
X114360774Y-145867921D01*
X114315497Y-145848296D01*
X114297169Y-145842526D01*
X114266266Y-145833740D01*
X113344393Y-145832640D01*
X112422521Y-145831540D01*
X111455166Y-144994856D01*
X111379128Y-144929099D01*
X111304536Y-144864610D01*
X111231621Y-144801590D01*
X111160613Y-144740234D01*
X111091740Y-144680743D01*
X111025234Y-144623313D01*
X110961323Y-144568143D01*
X110900239Y-144515431D01*
X110842210Y-144465375D01*
X110787467Y-144418173D01*
X110736239Y-144374024D01*
X110688756Y-144333125D01*
X110645249Y-144295675D01*
X110605947Y-144261871D01*
X110571079Y-144231912D01*
X110540877Y-144205997D01*
X110515569Y-144184322D01*
X110495386Y-144167087D01*
X110480557Y-144154489D01*
X110471313Y-144146726D01*
X110468069Y-144144114D01*
X110435656Y-144124016D01*
X110400038Y-144108043D01*
X110378775Y-144100737D01*
X110351193Y-144094541D01*
X110319021Y-144091247D01*
X110285055Y-144090856D01*
X110252092Y-144093368D01*
X110252092Y-144093368D01*
G37*
X110252092Y-144093368D02*
X110222931Y-144098783D01*
X110216156Y-144100716D01*
X110169828Y-144119085D01*
X110128301Y-144143528D01*
X110091978Y-144173577D01*
X110061260Y-144208760D01*
X110036552Y-144248606D01*
X110018255Y-144292646D01*
X110006773Y-144340407D01*
X110005852Y-144346514D01*
X110005556Y-144351221D01*
X110005274Y-144361123D01*
X110005006Y-144376309D01*
X110004751Y-144396873D01*
X110004510Y-144422907D01*
X110004283Y-144454502D01*
X110004069Y-144491751D01*
X110003868Y-144534745D01*
X110003680Y-144583577D01*
X110003506Y-144638339D01*
X110003344Y-144699122D01*
X110003196Y-144766019D01*
X110003060Y-144839122D01*
X110002937Y-144918523D01*
X110002826Y-145004313D01*
X110002728Y-145096585D01*
X110002642Y-145195430D01*
X110002569Y-145300942D01*
X110002508Y-145413211D01*
X110002458Y-145532331D01*
X110002421Y-145658392D01*
X110002396Y-145791487D01*
X110002383Y-145931708D01*
X110002381Y-146079146D01*
X110002391Y-146233895D01*
X110002412Y-146396046D01*
X110002445Y-146565691D01*
X110002488Y-146742921D01*
X110002544Y-146927830D01*
X110002610Y-147120509D01*
X110002672Y-147284282D01*
X110002745Y-147466636D01*
X110002817Y-147641223D01*
X110002887Y-147808213D01*
X110002956Y-147967777D01*
X110003025Y-148120083D01*
X110003095Y-148265303D01*
X110003164Y-148403607D01*
X110003236Y-148535164D01*
X110003308Y-148660146D01*
X110003383Y-148778722D01*
X110003461Y-148891062D01*
X110003541Y-148997337D01*
X110003625Y-149097717D01*
X110003713Y-149192372D01*
X110003806Y-149281472D01*
X110003903Y-149365187D01*
X110004006Y-149443688D01*
X110004115Y-149517145D01*
X110004230Y-149585728D01*
X110004353Y-149649607D01*
X110004482Y-149708952D01*
X110004619Y-149763935D01*
X110004765Y-149814723D01*
X110004920Y-149861489D01*
X110005083Y-149904402D01*
X110005257Y-149943633D01*
X110005441Y-149979351D01*
X110005635Y-150011726D01*
X110005841Y-150040930D01*
X110006058Y-150067132D01*
X110006288Y-150090502D01*
X110006530Y-150111210D01*
X110006785Y-150129428D01*
X110007054Y-150145324D01*
X110007337Y-150159070D01*
X110007634Y-150170834D01*
X110007946Y-150180789D01*
X110008274Y-150189103D01*
X110008618Y-150195947D01*
X110008978Y-150201491D01*
X110009355Y-150205905D01*
X110009750Y-150209360D01*
X110010162Y-150212025D01*
X110010593Y-150214071D01*
X110010899Y-150215203D01*
X110018282Y-150236457D01*
X110028259Y-150260312D01*
X110039461Y-150283801D01*
X110050522Y-150303955D01*
X110055119Y-150311189D01*
X110070407Y-150330654D01*
X110090294Y-150351521D01*
X110112366Y-150371473D01*
X110134211Y-150388191D01*
X110137720Y-150390540D01*
X110178719Y-150412751D01*
X110222908Y-150428312D01*
X110268921Y-150436930D01*
X110315392Y-150438316D01*
X110346646Y-150434964D01*
X110378757Y-150427236D01*
X110412418Y-150414983D01*
X110443896Y-150399606D01*
X110449542Y-150396316D01*
X110455032Y-150392216D01*
X110466377Y-150383022D01*
X110483445Y-150368848D01*
X110506101Y-150349809D01*
X110534213Y-150326019D01*
X110567647Y-150297594D01*
X110606268Y-150264647D01*
X110649945Y-150227293D01*
X110698543Y-150185647D01*
X110751929Y-150139824D01*
X110809970Y-150089938D01*
X110872531Y-150036103D01*
X110939480Y-149978435D01*
X111010682Y-149917048D01*
X111086005Y-149852056D01*
X111165316Y-149783574D01*
X111248479Y-149711717D01*
X111335363Y-149636600D01*
X111425833Y-149558336D01*
X111464328Y-149525022D01*
X112452547Y-148669711D01*
X113350127Y-148669543D01*
X113451367Y-148669527D01*
X113544984Y-148669513D01*
X113631292Y-148669495D01*
X113710606Y-148669465D01*
X113783240Y-148669417D01*
X113849508Y-148669344D01*
X113909725Y-148669240D01*
X113964206Y-148669096D01*
X114013264Y-148668907D01*
X114057214Y-148668666D01*
X114096370Y-148668366D01*
X114131047Y-148667999D01*
X114161559Y-148667560D01*
X114188221Y-148667041D01*
X114211346Y-148666435D01*
X114231250Y-148665736D01*
X114248247Y-148664936D01*
X114262650Y-148664030D01*
X114274776Y-148663009D01*
X114284937Y-148661868D01*
X114293448Y-148660599D01*
X114300623Y-148659196D01*
X114306778Y-148657651D01*
X114312226Y-148655958D01*
X114317282Y-148654111D01*
X114322260Y-148652101D01*
X114327475Y-148649923D01*
X114331707Y-148648184D01*
X114366377Y-148631862D01*
X114396985Y-148612045D01*
X114426414Y-148586819D01*
X114431297Y-148582063D01*
X114462598Y-148546182D01*
X114487248Y-148506711D01*
X114505154Y-148464985D01*
X114516297Y-148433235D01*
X114517393Y-147264438D01*
X114517507Y-147148632D01*
X114517622Y-147040491D01*
X114517731Y-146939742D01*
X114517829Y-146846113D01*
X114517909Y-146759330D01*
X114517967Y-146679123D01*
X114517997Y-146605216D01*
X114517992Y-146537339D01*
X114517947Y-146475219D01*
X114517856Y-146418582D01*
X114517714Y-146367157D01*
X114517514Y-146320670D01*
X114517250Y-146278849D01*
X114516918Y-146241421D01*
X114516511Y-146208114D01*
X114516024Y-146178655D01*
X114515450Y-146152772D01*
X114514784Y-146130191D01*
X114514021Y-146110641D01*
X114513153Y-146093848D01*
X114512177Y-146079540D01*
X114511085Y-146067444D01*
X114509872Y-146057288D01*
X114508533Y-146048799D01*
X114507061Y-146041705D01*
X114505451Y-146035732D01*
X114503696Y-146030608D01*
X114501792Y-146026061D01*
X114499733Y-146021818D01*
X114497512Y-146017606D01*
X114495124Y-146013153D01*
X114492563Y-146008186D01*
X114490712Y-146004360D01*
X114466725Y-145962247D01*
X114436799Y-145925240D01*
X114401345Y-145893684D01*
X114360774Y-145867921D01*
X114315497Y-145848296D01*
X114297169Y-145842526D01*
X114266266Y-145833740D01*
X113344393Y-145832640D01*
X112422521Y-145831540D01*
X111455166Y-144994856D01*
X111379128Y-144929099D01*
X111304536Y-144864610D01*
X111231621Y-144801590D01*
X111160613Y-144740234D01*
X111091740Y-144680743D01*
X111025234Y-144623313D01*
X110961323Y-144568143D01*
X110900239Y-144515431D01*
X110842210Y-144465375D01*
X110787467Y-144418173D01*
X110736239Y-144374024D01*
X110688756Y-144333125D01*
X110645249Y-144295675D01*
X110605947Y-144261871D01*
X110571079Y-144231912D01*
X110540877Y-144205997D01*
X110515569Y-144184322D01*
X110495386Y-144167087D01*
X110480557Y-144154489D01*
X110471313Y-144146726D01*
X110468069Y-144144114D01*
X110435656Y-144124016D01*
X110400038Y-144108043D01*
X110378775Y-144100737D01*
X110351193Y-144094541D01*
X110319021Y-144091247D01*
X110285055Y-144090856D01*
X110252092Y-144093368D01*
G36*
X107623940Y-144124667D02*
X107579925Y-144137600D01*
X107536621Y-144157857D01*
X107530390Y-144161452D01*
X107511055Y-144174812D01*
X107489954Y-144193196D01*
X107466642Y-144217070D01*
X107440673Y-144246899D01*
X107411604Y-144283148D01*
X107401853Y-144295813D01*
X107283224Y-144457583D01*
X107171812Y-144622615D01*
X107067648Y-144790827D01*
X106970764Y-144962138D01*
X106881191Y-145136466D01*
X106798960Y-145313729D01*
X106724103Y-145493847D01*
X106656650Y-145676737D01*
X106596632Y-145862319D01*
X106544081Y-146050511D01*
X106499029Y-146241232D01*
X106461505Y-146434399D01*
X106431541Y-146629933D01*
X106409169Y-146827750D01*
X106402372Y-146907250D01*
X106396629Y-146995665D01*
X106392586Y-147089911D01*
X106390243Y-147188068D01*
X106389600Y-147288214D01*
X106390657Y-147388429D01*
X106393414Y-147486790D01*
X106397870Y-147581377D01*
X106402383Y-147649407D01*
X106421172Y-147845543D01*
X106447714Y-148040104D01*
X106481947Y-148232915D01*
X106523812Y-148423799D01*
X106573249Y-148612583D01*
X106630196Y-148799091D01*
X106694593Y-148983148D01*
X106766381Y-149164580D01*
X106845498Y-149343210D01*
X106931883Y-149518865D01*
X107025478Y-149691368D01*
X107126220Y-149860546D01*
X107211638Y-149992953D01*
X107236965Y-150030436D01*
X107263521Y-150068925D01*
X107290745Y-150107665D01*
X107318076Y-150145898D01*
X107344953Y-150182867D01*
X107370816Y-150217815D01*
X107395105Y-150249985D01*
X107417258Y-150278619D01*
X107436716Y-150302960D01*
X107452917Y-150322252D01*
X107465302Y-150335737D01*
X107465817Y-150336251D01*
X107501588Y-150366433D01*
X107541485Y-150390512D01*
X107584431Y-150408125D01*
X107629347Y-150418910D01*
X107675155Y-150422505D01*
X107713952Y-150419642D01*
X107758507Y-150409355D01*
X107803412Y-150391462D01*
X107813078Y-150386650D01*
X107841422Y-150368929D01*
X107869846Y-150345563D01*
X107896342Y-150318563D01*
X107918898Y-150289940D01*
X107933093Y-150266573D01*
X107952702Y-150220598D01*
X107964430Y-150173999D01*
X107968265Y-150126969D01*
X107964193Y-150079704D01*
X107952201Y-150032395D01*
X107949675Y-150025188D01*
X107944597Y-150012349D01*
X107938460Y-149999316D01*
X107930710Y-149985241D01*
X107920795Y-149969275D01*
X107908163Y-149950572D01*
X107892259Y-149928285D01*
X107872532Y-149901565D01*
X107848429Y-149869565D01*
X107846487Y-149867005D01*
X107739314Y-149719188D01*
X107638586Y-149566756D01*
X107544355Y-149409800D01*
X107456674Y-149248409D01*
X107375595Y-149082672D01*
X107324043Y-148967032D01*
X107255863Y-148797949D01*
X107195097Y-148626212D01*
X107141783Y-148452092D01*
X107095957Y-148275860D01*
X107057655Y-148097786D01*
X107026912Y-147918140D01*
X107003765Y-147737194D01*
X106988250Y-147555218D01*
X106980403Y-147372482D01*
X106980261Y-147189257D01*
X106987859Y-147005815D01*
X107003234Y-146822424D01*
X107019628Y-146686985D01*
X107048440Y-146505814D01*
X107084981Y-146326300D01*
X107129176Y-146148658D01*
X107180947Y-145973106D01*
X107240220Y-145799860D01*
X107306917Y-145629136D01*
X107380963Y-145461150D01*
X107462282Y-145296119D01*
X107550796Y-145134259D01*
X107589825Y-145067735D01*
X107649846Y-144970812D01*
X107715016Y-144871746D01*
X107783832Y-144772727D01*
X107854792Y-144675945D01*
X107891845Y-144627480D01*
X107918441Y-144591674D01*
X107939442Y-144559602D01*
X107955382Y-144529950D01*
X107966795Y-144501408D01*
X107974215Y-144472664D01*
X107978176Y-144442406D01*
X107979225Y-144412891D01*
X107975608Y-144365335D01*
X107965174Y-144320888D01*
X107948552Y-144279900D01*
X107926368Y-144242723D01*
X107899250Y-144209709D01*
X107867824Y-144181208D01*
X107832718Y-144157572D01*
X107794559Y-144139153D01*
X107753975Y-144126301D01*
X107711592Y-144119369D01*
X107668038Y-144118707D01*
X107623940Y-144124667D01*
X107623940Y-144124667D01*
G37*
X107623940Y-144124667D02*
X107579925Y-144137600D01*
X107536621Y-144157857D01*
X107530390Y-144161452D01*
X107511055Y-144174812D01*
X107489954Y-144193196D01*
X107466642Y-144217070D01*
X107440673Y-144246899D01*
X107411604Y-144283148D01*
X107401853Y-144295813D01*
X107283224Y-144457583D01*
X107171812Y-144622615D01*
X107067648Y-144790827D01*
X106970764Y-144962138D01*
X106881191Y-145136466D01*
X106798960Y-145313729D01*
X106724103Y-145493847D01*
X106656650Y-145676737D01*
X106596632Y-145862319D01*
X106544081Y-146050511D01*
X106499029Y-146241232D01*
X106461505Y-146434399D01*
X106431541Y-146629933D01*
X106409169Y-146827750D01*
X106402372Y-146907250D01*
X106396629Y-146995665D01*
X106392586Y-147089911D01*
X106390243Y-147188068D01*
X106389600Y-147288214D01*
X106390657Y-147388429D01*
X106393414Y-147486790D01*
X106397870Y-147581377D01*
X106402383Y-147649407D01*
X106421172Y-147845543D01*
X106447714Y-148040104D01*
X106481947Y-148232915D01*
X106523812Y-148423799D01*
X106573249Y-148612583D01*
X106630196Y-148799091D01*
X106694593Y-148983148D01*
X106766381Y-149164580D01*
X106845498Y-149343210D01*
X106931883Y-149518865D01*
X107025478Y-149691368D01*
X107126220Y-149860546D01*
X107211638Y-149992953D01*
X107236965Y-150030436D01*
X107263521Y-150068925D01*
X107290745Y-150107665D01*
X107318076Y-150145898D01*
X107344953Y-150182867D01*
X107370816Y-150217815D01*
X107395105Y-150249985D01*
X107417258Y-150278619D01*
X107436716Y-150302960D01*
X107452917Y-150322252D01*
X107465302Y-150335737D01*
X107465817Y-150336251D01*
X107501588Y-150366433D01*
X107541485Y-150390512D01*
X107584431Y-150408125D01*
X107629347Y-150418910D01*
X107675155Y-150422505D01*
X107713952Y-150419642D01*
X107758507Y-150409355D01*
X107803412Y-150391462D01*
X107813078Y-150386650D01*
X107841422Y-150368929D01*
X107869846Y-150345563D01*
X107896342Y-150318563D01*
X107918898Y-150289940D01*
X107933093Y-150266573D01*
X107952702Y-150220598D01*
X107964430Y-150173999D01*
X107968265Y-150126969D01*
X107964193Y-150079704D01*
X107952201Y-150032395D01*
X107949675Y-150025188D01*
X107944597Y-150012349D01*
X107938460Y-149999316D01*
X107930710Y-149985241D01*
X107920795Y-149969275D01*
X107908163Y-149950572D01*
X107892259Y-149928285D01*
X107872532Y-149901565D01*
X107848429Y-149869565D01*
X107846487Y-149867005D01*
X107739314Y-149719188D01*
X107638586Y-149566756D01*
X107544355Y-149409800D01*
X107456674Y-149248409D01*
X107375595Y-149082672D01*
X107324043Y-148967032D01*
X107255863Y-148797949D01*
X107195097Y-148626212D01*
X107141783Y-148452092D01*
X107095957Y-148275860D01*
X107057655Y-148097786D01*
X107026912Y-147918140D01*
X107003765Y-147737194D01*
X106988250Y-147555218D01*
X106980403Y-147372482D01*
X106980261Y-147189257D01*
X106987859Y-147005815D01*
X107003234Y-146822424D01*
X107019628Y-146686985D01*
X107048440Y-146505814D01*
X107084981Y-146326300D01*
X107129176Y-146148658D01*
X107180947Y-145973106D01*
X107240220Y-145799860D01*
X107306917Y-145629136D01*
X107380963Y-145461150D01*
X107462282Y-145296119D01*
X107550796Y-145134259D01*
X107589825Y-145067735D01*
X107649846Y-144970812D01*
X107715016Y-144871746D01*
X107783832Y-144772727D01*
X107854792Y-144675945D01*
X107891845Y-144627480D01*
X107918441Y-144591674D01*
X107939442Y-144559602D01*
X107955382Y-144529950D01*
X107966795Y-144501408D01*
X107974215Y-144472664D01*
X107978176Y-144442406D01*
X107979225Y-144412891D01*
X107975608Y-144365335D01*
X107965174Y-144320888D01*
X107948552Y-144279900D01*
X107926368Y-144242723D01*
X107899250Y-144209709D01*
X107867824Y-144181208D01*
X107832718Y-144157572D01*
X107794559Y-144139153D01*
X107753975Y-144126301D01*
X107711592Y-144119369D01*
X107668038Y-144118707D01*
X107623940Y-144124667D01*
G36*
X108407097Y-144889188D02*
X108362111Y-144899864D01*
X108319117Y-144917642D01*
X108282000Y-144940303D01*
X108264635Y-144953657D01*
X108248548Y-144968088D01*
X108232581Y-144984863D01*
X108215575Y-145005249D01*
X108196371Y-145030515D01*
X108184256Y-145047225D01*
X108085318Y-145192069D01*
X107993427Y-145340404D01*
X107908656Y-145492055D01*
X107831077Y-145646849D01*
X107760761Y-145804611D01*
X107697780Y-145965169D01*
X107642207Y-146128349D01*
X107594113Y-146293976D01*
X107553569Y-146461877D01*
X107520649Y-146631879D01*
X107515461Y-146663172D01*
X107503103Y-146743789D01*
X107492860Y-146820154D01*
X107484560Y-146894245D01*
X107478030Y-146968038D01*
X107473098Y-147043511D01*
X107469593Y-147122642D01*
X107467342Y-147207407D01*
X107467135Y-147218797D01*
X107468056Y-147392813D01*
X107476824Y-147565821D01*
X107493389Y-147737639D01*
X107517704Y-147908090D01*
X107549722Y-148076992D01*
X107589392Y-148244167D01*
X107636669Y-148409434D01*
X107691503Y-148572614D01*
X107753847Y-148733526D01*
X107823652Y-148891991D01*
X107900871Y-149047830D01*
X107985455Y-149200862D01*
X108006699Y-149236907D01*
X108025484Y-149267837D01*
X108046239Y-149301035D01*
X108068369Y-149335626D01*
X108091281Y-149370734D01*
X108114379Y-149405483D01*
X108137069Y-149438998D01*
X108158757Y-149470404D01*
X108178848Y-149498824D01*
X108196748Y-149523384D01*
X108211862Y-149543208D01*
X108223595Y-149557420D01*
X108226466Y-149560562D01*
X108261968Y-149592407D01*
X108302347Y-149618610D01*
X108346078Y-149638220D01*
X108356797Y-149641806D01*
X108383845Y-149647998D01*
X108415436Y-149651624D01*
X108448632Y-149652603D01*
X108480494Y-149650857D01*
X108508083Y-149646306D01*
X108509594Y-149645928D01*
X108556242Y-149630263D01*
X108598165Y-149608308D01*
X108635790Y-149579810D01*
X108657197Y-149558690D01*
X108687099Y-149521490D01*
X108709477Y-149482615D01*
X108724705Y-149441175D01*
X108733157Y-149396276D01*
X108734909Y-149373418D01*
X108735300Y-149344653D01*
X108733496Y-149318204D01*
X108729073Y-149292966D01*
X108721608Y-149267837D01*
X108710677Y-149241714D01*
X108695855Y-149213492D01*
X108676718Y-149182070D01*
X108652843Y-149146343D01*
X108641274Y-149129750D01*
X108553134Y-148997714D01*
X108471955Y-148862011D01*
X108397803Y-148722908D01*
X108330744Y-148580673D01*
X108270844Y-148435573D01*
X108218171Y-148287876D01*
X108172790Y-148137849D01*
X108134768Y-147985760D01*
X108104172Y-147831877D01*
X108081068Y-147676466D01*
X108065523Y-147519796D01*
X108057604Y-147362133D01*
X108057375Y-147203746D01*
X108064906Y-147044901D01*
X108080260Y-146885867D01*
X108081288Y-146877485D01*
X108104822Y-146719651D01*
X108136041Y-146563620D01*
X108174846Y-146409645D01*
X108221136Y-146257983D01*
X108274813Y-146108885D01*
X108335776Y-145962608D01*
X108403926Y-145819405D01*
X108479162Y-145679531D01*
X108561386Y-145543240D01*
X108650498Y-145410786D01*
X108663445Y-145392664D01*
X108687061Y-145358834D01*
X108705786Y-145329410D01*
X108720199Y-145303048D01*
X108730880Y-145278403D01*
X108738407Y-145254128D01*
X108743359Y-145228880D01*
X108746315Y-145201313D01*
X108746418Y-145199886D01*
X108745950Y-145152351D01*
X108738003Y-145106360D01*
X108722999Y-145062659D01*
X108701357Y-145021994D01*
X108673496Y-144985112D01*
X108639837Y-144952758D01*
X108600800Y-144925680D01*
X108588341Y-144918821D01*
X108544699Y-144900432D01*
X108499323Y-144889407D01*
X108453145Y-144885681D01*
X108407097Y-144889188D01*
X108407097Y-144889188D01*
G37*
X108407097Y-144889188D02*
X108362111Y-144899864D01*
X108319117Y-144917642D01*
X108282000Y-144940303D01*
X108264635Y-144953657D01*
X108248548Y-144968088D01*
X108232581Y-144984863D01*
X108215575Y-145005249D01*
X108196371Y-145030515D01*
X108184256Y-145047225D01*
X108085318Y-145192069D01*
X107993427Y-145340404D01*
X107908656Y-145492055D01*
X107831077Y-145646849D01*
X107760761Y-145804611D01*
X107697780Y-145965169D01*
X107642207Y-146128349D01*
X107594113Y-146293976D01*
X107553569Y-146461877D01*
X107520649Y-146631879D01*
X107515461Y-146663172D01*
X107503103Y-146743789D01*
X107492860Y-146820154D01*
X107484560Y-146894245D01*
X107478030Y-146968038D01*
X107473098Y-147043511D01*
X107469593Y-147122642D01*
X107467342Y-147207407D01*
X107467135Y-147218797D01*
X107468056Y-147392813D01*
X107476824Y-147565821D01*
X107493389Y-147737639D01*
X107517704Y-147908090D01*
X107549722Y-148076992D01*
X107589392Y-148244167D01*
X107636669Y-148409434D01*
X107691503Y-148572614D01*
X107753847Y-148733526D01*
X107823652Y-148891991D01*
X107900871Y-149047830D01*
X107985455Y-149200862D01*
X108006699Y-149236907D01*
X108025484Y-149267837D01*
X108046239Y-149301035D01*
X108068369Y-149335626D01*
X108091281Y-149370734D01*
X108114379Y-149405483D01*
X108137069Y-149438998D01*
X108158757Y-149470404D01*
X108178848Y-149498824D01*
X108196748Y-149523384D01*
X108211862Y-149543208D01*
X108223595Y-149557420D01*
X108226466Y-149560562D01*
X108261968Y-149592407D01*
X108302347Y-149618610D01*
X108346078Y-149638220D01*
X108356797Y-149641806D01*
X108383845Y-149647998D01*
X108415436Y-149651624D01*
X108448632Y-149652603D01*
X108480494Y-149650857D01*
X108508083Y-149646306D01*
X108509594Y-149645928D01*
X108556242Y-149630263D01*
X108598165Y-149608308D01*
X108635790Y-149579810D01*
X108657197Y-149558690D01*
X108687099Y-149521490D01*
X108709477Y-149482615D01*
X108724705Y-149441175D01*
X108733157Y-149396276D01*
X108734909Y-149373418D01*
X108735300Y-149344653D01*
X108733496Y-149318204D01*
X108729073Y-149292966D01*
X108721608Y-149267837D01*
X108710677Y-149241714D01*
X108695855Y-149213492D01*
X108676718Y-149182070D01*
X108652843Y-149146343D01*
X108641274Y-149129750D01*
X108553134Y-148997714D01*
X108471955Y-148862011D01*
X108397803Y-148722908D01*
X108330744Y-148580673D01*
X108270844Y-148435573D01*
X108218171Y-148287876D01*
X108172790Y-148137849D01*
X108134768Y-147985760D01*
X108104172Y-147831877D01*
X108081068Y-147676466D01*
X108065523Y-147519796D01*
X108057604Y-147362133D01*
X108057375Y-147203746D01*
X108064906Y-147044901D01*
X108080260Y-146885867D01*
X108081288Y-146877485D01*
X108104822Y-146719651D01*
X108136041Y-146563620D01*
X108174846Y-146409645D01*
X108221136Y-146257983D01*
X108274813Y-146108885D01*
X108335776Y-145962608D01*
X108403926Y-145819405D01*
X108479162Y-145679531D01*
X108561386Y-145543240D01*
X108650498Y-145410786D01*
X108663445Y-145392664D01*
X108687061Y-145358834D01*
X108705786Y-145329410D01*
X108720199Y-145303048D01*
X108730880Y-145278403D01*
X108738407Y-145254128D01*
X108743359Y-145228880D01*
X108746315Y-145201313D01*
X108746418Y-145199886D01*
X108745950Y-145152351D01*
X108738003Y-145106360D01*
X108722999Y-145062659D01*
X108701357Y-145021994D01*
X108673496Y-144985112D01*
X108639837Y-144952758D01*
X108600800Y-144925680D01*
X108588341Y-144918821D01*
X108544699Y-144900432D01*
X108499323Y-144889407D01*
X108453145Y-144885681D01*
X108407097Y-144889188D01*
G36*
X109217575Y-145719959D02*
X109173754Y-145733423D01*
X109144594Y-145746769D01*
X109120635Y-145760407D01*
X109099260Y-145775265D01*
X109079536Y-145792347D01*
X109060530Y-145812658D01*
X109041309Y-145837201D01*
X109020940Y-145866980D01*
X108998491Y-145903000D01*
X108996795Y-145905818D01*
X108926152Y-146030587D01*
X108862855Y-146157502D01*
X108806803Y-146286870D01*
X108757894Y-146419001D01*
X108716026Y-146554202D01*
X108681098Y-146692782D01*
X108653009Y-146835047D01*
X108631657Y-146981308D01*
X108625886Y-147032266D01*
X108623655Y-147059097D01*
X108621816Y-147092578D01*
X108620369Y-147131435D01*
X108619312Y-147174390D01*
X108618648Y-147220166D01*
X108618375Y-147267488D01*
X108618493Y-147315077D01*
X108619002Y-147361659D01*
X108619903Y-147405956D01*
X108621195Y-147446692D01*
X108622878Y-147482589D01*
X108624952Y-147512373D01*
X108625904Y-147522407D01*
X108644669Y-147668547D01*
X108670007Y-147810490D01*
X108702074Y-147948711D01*
X108741028Y-148083687D01*
X108787025Y-148215893D01*
X108840221Y-148345804D01*
X108900775Y-148473898D01*
X108968841Y-148600650D01*
X108997208Y-148649402D01*
X109024397Y-148691597D01*
X109051868Y-148726688D01*
X109080530Y-148755485D01*
X109111292Y-148778796D01*
X109145061Y-148797430D01*
X109178328Y-148810719D01*
X109207109Y-148818011D01*
X109240474Y-148822395D01*
X109275586Y-148823773D01*
X109309605Y-148822050D01*
X109339693Y-148817130D01*
X109343031Y-148816287D01*
X109388067Y-148800466D01*
X109429221Y-148778229D01*
X109465959Y-148750262D01*
X109497747Y-148717250D01*
X109524051Y-148679882D01*
X109544338Y-148638844D01*
X109558073Y-148594821D01*
X109564723Y-148548502D01*
X109565281Y-148530469D01*
X109564180Y-148501940D01*
X109560550Y-148475220D01*
X109553906Y-148448864D01*
X109543761Y-148421428D01*
X109529628Y-148391466D01*
X109511021Y-148357534D01*
X109501698Y-148341656D01*
X109438514Y-148228112D01*
X109382835Y-148112087D01*
X109334701Y-147993798D01*
X109294153Y-147873465D01*
X109261233Y-147751305D01*
X109235980Y-147627538D01*
X109218437Y-147502383D01*
X109208645Y-147376057D01*
X109206644Y-147248780D01*
X109212475Y-147120770D01*
X109226180Y-146992246D01*
X109236126Y-146927094D01*
X109258890Y-146813621D01*
X109288952Y-146699571D01*
X109325872Y-146586130D01*
X109369209Y-146474485D01*
X109418522Y-146365820D01*
X109473371Y-146261322D01*
X109501699Y-146212719D01*
X109522395Y-146177666D01*
X109538885Y-146147779D01*
X109551613Y-146121793D01*
X109561025Y-146098443D01*
X109567568Y-146076463D01*
X109571687Y-146054589D01*
X109573829Y-146031557D01*
X109574438Y-146006344D01*
X109570782Y-145959447D01*
X109560237Y-145915441D01*
X109543447Y-145874715D01*
X109521057Y-145837659D01*
X109493709Y-145804660D01*
X109462049Y-145776109D01*
X109426719Y-145752393D01*
X109388365Y-145733901D01*
X109347629Y-145721023D01*
X109305156Y-145714148D01*
X109261590Y-145713663D01*
X109217575Y-145719959D01*
X109217575Y-145719959D01*
G37*
X109217575Y-145719959D02*
X109173754Y-145733423D01*
X109144594Y-145746769D01*
X109120635Y-145760407D01*
X109099260Y-145775265D01*
X109079536Y-145792347D01*
X109060530Y-145812658D01*
X109041309Y-145837201D01*
X109020940Y-145866980D01*
X108998491Y-145903000D01*
X108996795Y-145905818D01*
X108926152Y-146030587D01*
X108862855Y-146157502D01*
X108806803Y-146286870D01*
X108757894Y-146419001D01*
X108716026Y-146554202D01*
X108681098Y-146692782D01*
X108653009Y-146835047D01*
X108631657Y-146981308D01*
X108625886Y-147032266D01*
X108623655Y-147059097D01*
X108621816Y-147092578D01*
X108620369Y-147131435D01*
X108619312Y-147174390D01*
X108618648Y-147220166D01*
X108618375Y-147267488D01*
X108618493Y-147315077D01*
X108619002Y-147361659D01*
X108619903Y-147405956D01*
X108621195Y-147446692D01*
X108622878Y-147482589D01*
X108624952Y-147512373D01*
X108625904Y-147522407D01*
X108644669Y-147668547D01*
X108670007Y-147810490D01*
X108702074Y-147948711D01*
X108741028Y-148083687D01*
X108787025Y-148215893D01*
X108840221Y-148345804D01*
X108900775Y-148473898D01*
X108968841Y-148600650D01*
X108997208Y-148649402D01*
X109024397Y-148691597D01*
X109051868Y-148726688D01*
X109080530Y-148755485D01*
X109111292Y-148778796D01*
X109145061Y-148797430D01*
X109178328Y-148810719D01*
X109207109Y-148818011D01*
X109240474Y-148822395D01*
X109275586Y-148823773D01*
X109309605Y-148822050D01*
X109339693Y-148817130D01*
X109343031Y-148816287D01*
X109388067Y-148800466D01*
X109429221Y-148778229D01*
X109465959Y-148750262D01*
X109497747Y-148717250D01*
X109524051Y-148679882D01*
X109544338Y-148638844D01*
X109558073Y-148594821D01*
X109564723Y-148548502D01*
X109565281Y-148530469D01*
X109564180Y-148501940D01*
X109560550Y-148475220D01*
X109553906Y-148448864D01*
X109543761Y-148421428D01*
X109529628Y-148391466D01*
X109511021Y-148357534D01*
X109501698Y-148341656D01*
X109438514Y-148228112D01*
X109382835Y-148112087D01*
X109334701Y-147993798D01*
X109294153Y-147873465D01*
X109261233Y-147751305D01*
X109235980Y-147627538D01*
X109218437Y-147502383D01*
X109208645Y-147376057D01*
X109206644Y-147248780D01*
X109212475Y-147120770D01*
X109226180Y-146992246D01*
X109236126Y-146927094D01*
X109258890Y-146813621D01*
X109288952Y-146699571D01*
X109325872Y-146586130D01*
X109369209Y-146474485D01*
X109418522Y-146365820D01*
X109473371Y-146261322D01*
X109501699Y-146212719D01*
X109522395Y-146177666D01*
X109538885Y-146147779D01*
X109551613Y-146121793D01*
X109561025Y-146098443D01*
X109567568Y-146076463D01*
X109571687Y-146054589D01*
X109573829Y-146031557D01*
X109574438Y-146006344D01*
X109570782Y-145959447D01*
X109560237Y-145915441D01*
X109543447Y-145874715D01*
X109521057Y-145837659D01*
X109493709Y-145804660D01*
X109462049Y-145776109D01*
X109426719Y-145752393D01*
X109388365Y-145733901D01*
X109347629Y-145721023D01*
X109305156Y-145714148D01*
X109261590Y-145713663D01*
X109217575Y-145719959D01*
M02*
