G04 #@! TF.FileFunction,Copper,L1,Top,Signal*
%FSLAX46Y46*%
G04 Gerber Fmt 4.6, Leading zero omitted, Abs format (unit mm)*
G04 Created by KiCad (PCBNEW 4.0.6) date Sun Jul 16 10:48:13 2017*
%MOMM*%
%LPD*%
G01*
G04 APERTURE LIST*
%ADD10C,0.100000*%
%ADD11R,1.600000X2.000000*%
%ADD12O,1.600000X2.000000*%
%ADD13R,2.000000X2.000000*%
%ADD14O,2.000000X2.000000*%
%ADD15C,1.800000*%
%ADD16C,2.400000*%
%ADD17R,2.000000X1.700000*%
%ADD18O,2.000000X1.700000*%
%ADD19C,2.000000*%
%ADD20R,1.800000X1.800000*%
%ADD21C,0.685800*%
%ADD22C,1.270000*%
%ADD23C,0.635000*%
%ADD24C,0.254000*%
%ADD25C,0.381000*%
G04 APERTURE END LIST*
D10*
D11*
X74930000Y-137160000D03*
D12*
X92710000Y-129540000D03*
X77470000Y-137160000D03*
X90170000Y-129540000D03*
X80010000Y-137160000D03*
X87630000Y-129540000D03*
X82550000Y-137160000D03*
X85090000Y-129540000D03*
X85090000Y-137160000D03*
X82550000Y-129540000D03*
X87630000Y-137160000D03*
X80010000Y-129540000D03*
X90170000Y-137160000D03*
X77470000Y-129540000D03*
X92710000Y-137160000D03*
X74930000Y-129540000D03*
D13*
X62000000Y-163000000D03*
D14*
X64540000Y-163000000D03*
X67080000Y-163000000D03*
X69620000Y-163000000D03*
X72160000Y-163000000D03*
X74700000Y-163000000D03*
X77240000Y-163000000D03*
X79780000Y-163000000D03*
X82320000Y-163000000D03*
X84860000Y-163000000D03*
X87400000Y-163000000D03*
X89940000Y-163000000D03*
X92480000Y-163000000D03*
X95020000Y-163000000D03*
X97560000Y-163000000D03*
X100100000Y-163000000D03*
X102640000Y-163000000D03*
X105180000Y-163000000D03*
X107720000Y-163000000D03*
X110260000Y-163000000D03*
X112800000Y-163000000D03*
X115340000Y-163000000D03*
X117880000Y-163000000D03*
X120420000Y-163000000D03*
X122960000Y-163000000D03*
X125500000Y-163000000D03*
X128040000Y-163000000D03*
X130580000Y-163000000D03*
X133120000Y-163000000D03*
X135660000Y-163000000D03*
X138200000Y-163000000D03*
X140740000Y-163000000D03*
X143280000Y-163000000D03*
X145820000Y-163000000D03*
X148360000Y-163000000D03*
X150900000Y-163000000D03*
X153440000Y-163000000D03*
X155980000Y-163000000D03*
X158520000Y-163000000D03*
D15*
X121920000Y-116840000D03*
X130810000Y-116840000D03*
X135255000Y-116840000D03*
X144145000Y-116840000D03*
X121920000Y-128270000D03*
X130810000Y-128270000D03*
X130810000Y-132080000D03*
X121920000Y-132080000D03*
X144145000Y-120650000D03*
X135255000Y-120650000D03*
X130810000Y-124460000D03*
X121920000Y-124460000D03*
X130810000Y-120650000D03*
X121920000Y-120650000D03*
D16*
X150400000Y-119380000D03*
X154200000Y-119380000D03*
X158000000Y-119380000D03*
X158000000Y-128780000D03*
X154200000Y-128780000D03*
X150400000Y-128780000D03*
D15*
X71120000Y-148590000D03*
X71120000Y-151090000D03*
X97790000Y-116840000D03*
X97790000Y-119340000D03*
X73660000Y-119380000D03*
X73660000Y-121880000D03*
X71120000Y-129580000D03*
X71120000Y-132080000D03*
X97790000Y-132080000D03*
X97790000Y-129580000D03*
D17*
X156460000Y-135960000D03*
D18*
X159000000Y-135960000D03*
X156460000Y-138500000D03*
X159000000Y-138500000D03*
X156460000Y-141040000D03*
X159000000Y-141040000D03*
X156460000Y-143580000D03*
X159000000Y-143580000D03*
X156460000Y-146120000D03*
X159000000Y-146120000D03*
X156460000Y-148660000D03*
X159000000Y-148660000D03*
X156460000Y-151200000D03*
X159000000Y-151200000D03*
X156460000Y-153740000D03*
X159000000Y-153740000D03*
X156460000Y-156280000D03*
X159000000Y-156280000D03*
D13*
X69215000Y-138430000D03*
D14*
X69215000Y-140970000D03*
X69215000Y-143510000D03*
D13*
X62865000Y-138430000D03*
D14*
X62865000Y-140970000D03*
X62865000Y-143510000D03*
D13*
X64135000Y-149860000D03*
D14*
X66675000Y-149860000D03*
X64135000Y-152400000D03*
X66675000Y-152400000D03*
X64135000Y-154940000D03*
X66675000Y-154940000D03*
D13*
X74930000Y-144780000D03*
D14*
X74930000Y-142240000D03*
X77470000Y-144780000D03*
X77470000Y-142240000D03*
X80010000Y-144780000D03*
X80010000Y-142240000D03*
X82550000Y-144780000D03*
X82550000Y-142240000D03*
X85090000Y-144780000D03*
X85090000Y-142240000D03*
X87630000Y-144780000D03*
X87630000Y-142240000D03*
X90170000Y-144780000D03*
X90170000Y-142240000D03*
X92710000Y-144780000D03*
X92710000Y-142240000D03*
D13*
X110490000Y-129540000D03*
D14*
X113030000Y-129540000D03*
X115570000Y-129540000D03*
D13*
X102870000Y-129540000D03*
D19*
X105410000Y-129540000D03*
D11*
X74930000Y-156210000D03*
D12*
X92710000Y-148590000D03*
X77470000Y-156210000D03*
X90170000Y-148590000D03*
X80010000Y-156210000D03*
X87630000Y-148590000D03*
X82550000Y-156210000D03*
X85090000Y-148590000D03*
X85090000Y-156210000D03*
X82550000Y-148590000D03*
X87630000Y-156210000D03*
X80010000Y-148590000D03*
X90170000Y-156210000D03*
X77470000Y-148590000D03*
X92710000Y-156210000D03*
X74930000Y-148590000D03*
D11*
X77470000Y-124460000D03*
D12*
X92710000Y-116840000D03*
X80010000Y-124460000D03*
X90170000Y-116840000D03*
X82550000Y-124460000D03*
X87630000Y-116840000D03*
X85090000Y-124460000D03*
X85090000Y-116840000D03*
X87630000Y-124460000D03*
X82550000Y-116840000D03*
X90170000Y-124460000D03*
X80010000Y-116840000D03*
X92710000Y-124460000D03*
X77470000Y-116840000D03*
D11*
X101600000Y-124460000D03*
D12*
X116840000Y-116840000D03*
X104140000Y-124460000D03*
X114300000Y-116840000D03*
X106680000Y-124460000D03*
X111760000Y-116840000D03*
X109220000Y-124460000D03*
X109220000Y-116840000D03*
X111760000Y-124460000D03*
X106680000Y-116840000D03*
X114300000Y-124460000D03*
X104140000Y-116840000D03*
X116840000Y-124460000D03*
X101600000Y-116840000D03*
D11*
X102829360Y-154929840D03*
D12*
X151089360Y-139689840D03*
X105369360Y-154929840D03*
X148549360Y-139689840D03*
X107909360Y-154929840D03*
X146009360Y-139689840D03*
X110449360Y-154929840D03*
X143469360Y-139689840D03*
X112989360Y-154929840D03*
X140929360Y-139689840D03*
X115529360Y-154929840D03*
X138389360Y-139689840D03*
X118069360Y-154929840D03*
X135849360Y-139689840D03*
X120609360Y-154929840D03*
X133309360Y-139689840D03*
X123149360Y-154929840D03*
X130769360Y-139689840D03*
X125689360Y-154929840D03*
X128229360Y-139689840D03*
X128229360Y-154929840D03*
X125689360Y-139689840D03*
X130769360Y-154929840D03*
X123149360Y-139689840D03*
X133309360Y-154929840D03*
X120609360Y-139689840D03*
X135849360Y-154929840D03*
X118069360Y-139689840D03*
X138389360Y-154929840D03*
X115529360Y-139689840D03*
X140929360Y-154929840D03*
X112989360Y-139689840D03*
X143469360Y-154929840D03*
X110449360Y-139689840D03*
X146009360Y-154929840D03*
X107909360Y-139689840D03*
X148549360Y-154929840D03*
X105369360Y-139689840D03*
X151089360Y-154929840D03*
X102829360Y-139689840D03*
D20*
X143510000Y-127000000D03*
D15*
X143510000Y-129500000D03*
D20*
X135890000Y-127000000D03*
D15*
X135890000Y-129500000D03*
D13*
X66040000Y-138430000D03*
D14*
X66040000Y-140970000D03*
X66040000Y-143510000D03*
D21*
X111125000Y-121920000D03*
X112691441Y-158301327D03*
X92309608Y-121920000D03*
D22*
X131239360Y-141959840D02*
X138859360Y-141959840D01*
X138859360Y-141959840D02*
X140929360Y-139889840D01*
X140929360Y-139889840D02*
X140929360Y-139689840D01*
X102829360Y-139689840D02*
X102829360Y-139738460D01*
X102829360Y-139738460D02*
X105050740Y-141959840D01*
X105050740Y-141959840D02*
X131239360Y-141959840D01*
X131239360Y-141959840D02*
X133309360Y-139889840D01*
X133309360Y-139889840D02*
X133309360Y-139689840D01*
X140929360Y-139689840D02*
X140889082Y-139689840D01*
X109220000Y-123825000D02*
X111125000Y-121920000D01*
X109220000Y-124460000D02*
X109220000Y-123825000D01*
X102829360Y-162810640D02*
X102640000Y-163000000D01*
X80010000Y-116840000D02*
X80010000Y-116888620D01*
D23*
X112800000Y-163000000D02*
X112800000Y-158409886D01*
X112800000Y-158409886D02*
X112691441Y-158301327D01*
D24*
X143746727Y-146621511D02*
X148188489Y-146621511D01*
X142476727Y-147891511D02*
X143746727Y-146621511D01*
X120774458Y-149484742D02*
X137022696Y-149484742D01*
X115529360Y-154729840D02*
X120774458Y-149484742D01*
X115529360Y-154929840D02*
X115529360Y-154729840D01*
X137022696Y-149484742D02*
X138615927Y-147891511D01*
X138615927Y-147891511D02*
X142476727Y-147891511D01*
X156310000Y-138500000D02*
X156460000Y-138500000D01*
X148188489Y-146621511D02*
X156310000Y-138500000D01*
X118069360Y-154729840D02*
X118069360Y-154929840D01*
X137233121Y-149992753D02*
X122806447Y-149992753D01*
X138826352Y-148399522D02*
X137233121Y-149992753D01*
X142687152Y-148399522D02*
X138826352Y-148399522D01*
X143957152Y-147129522D02*
X142687152Y-148399522D01*
X148479567Y-147129522D02*
X143957152Y-147129522D01*
X155878079Y-139731010D02*
X148479567Y-147129522D01*
X158850000Y-138500000D02*
X157618990Y-139731010D01*
X159000000Y-138500000D02*
X158850000Y-138500000D01*
X122806447Y-149992753D02*
X118069360Y-154729840D01*
X157618990Y-139731010D02*
X155878079Y-139731010D01*
X120609360Y-154729840D02*
X124838436Y-150500764D01*
X144167577Y-147637533D02*
X149712467Y-147637533D01*
X142897577Y-148907533D02*
X144167577Y-147637533D01*
X137443546Y-150500764D02*
X139036777Y-148907533D01*
X124838436Y-150500764D02*
X137443546Y-150500764D01*
X156310000Y-141040000D02*
X156460000Y-141040000D01*
X149712467Y-147637533D02*
X156310000Y-141040000D01*
X120609360Y-154929840D02*
X120609360Y-154729840D01*
X139036777Y-148907533D02*
X142897577Y-148907533D01*
X150003545Y-148145544D02*
X155800099Y-142348990D01*
X155800099Y-142348990D02*
X157541010Y-142348990D01*
X157541010Y-142348990D02*
X158850000Y-141040000D01*
X126870426Y-151008774D02*
X137653972Y-151008774D01*
X137653972Y-151008774D02*
X139247202Y-149415544D01*
X139247202Y-149415544D02*
X143108003Y-149415543D01*
X143108003Y-149415543D02*
X144378002Y-148145544D01*
X123149360Y-154729840D02*
X126870426Y-151008774D01*
X123149360Y-154929840D02*
X123149360Y-154729840D01*
X158850000Y-141040000D02*
X159000000Y-141040000D01*
X144378002Y-148145544D02*
X150003545Y-148145544D01*
D23*
X90170000Y-122825000D02*
X90170000Y-124460000D01*
X100409488Y-131365441D02*
X100409488Y-128666566D01*
X90170000Y-122706294D02*
X90170000Y-122825000D01*
X92748521Y-121005599D02*
X91870695Y-121005599D01*
X107162375Y-138118328D02*
X100409488Y-131365441D01*
X128797458Y-138118330D02*
X107162375Y-138118328D01*
X91870695Y-121005599D02*
X90170000Y-122706294D01*
X100409488Y-128666566D02*
X92748521Y-121005599D01*
X130769360Y-139689840D02*
X130368968Y-139689840D01*
X130368968Y-139689840D02*
X128797458Y-138118330D01*
X128797458Y-138118330D02*
X130769360Y-139689840D01*
D24*
X156310000Y-143580000D02*
X156460000Y-143580000D01*
X151173011Y-148716989D02*
X156310000Y-143580000D01*
X125689360Y-154729840D02*
X128902416Y-151516784D01*
X128902416Y-151516784D02*
X137864398Y-151516784D01*
X137864398Y-151516784D02*
X139457629Y-149923553D01*
X125689360Y-154929840D02*
X125689360Y-154729840D01*
X143318429Y-149923553D02*
X144524993Y-148716989D01*
X144524993Y-148716989D02*
X151173011Y-148716989D01*
X139457629Y-149923553D02*
X143318429Y-149923553D01*
X130934406Y-152024794D02*
X138074824Y-152024794D01*
X128229360Y-154729840D02*
X130934406Y-152024794D01*
X151464089Y-149225000D02*
X155800099Y-144888990D01*
X155800099Y-144888990D02*
X157541010Y-144888990D01*
X144735418Y-149225000D02*
X151464089Y-149225000D01*
X143528855Y-150431563D02*
X144735418Y-149225000D01*
X139668054Y-150431564D02*
X143528855Y-150431563D01*
X138074824Y-152024794D02*
X139668054Y-150431564D01*
X128229360Y-154929840D02*
X128229360Y-154729840D01*
X158850000Y-143580000D02*
X159000000Y-143580000D01*
X157541010Y-144888990D02*
X158850000Y-143580000D01*
X138285250Y-152532804D02*
X139878481Y-150939573D01*
X144945843Y-149733011D02*
X152696989Y-149733011D01*
X143739281Y-150939573D02*
X144945843Y-149733011D01*
X139878481Y-150939573D02*
X143739281Y-150939573D01*
X132966396Y-152532804D02*
X138285250Y-152532804D01*
X130769360Y-154929840D02*
X130769360Y-154729840D01*
X130769360Y-154729840D02*
X132966396Y-152532804D01*
X152696989Y-149733011D02*
X156310000Y-146120000D01*
X156310000Y-146120000D02*
X156460000Y-146120000D01*
X133309360Y-154929840D02*
X133309360Y-154729840D01*
X158850000Y-146120000D02*
X159000000Y-146120000D01*
X157541010Y-147428990D02*
X158850000Y-146120000D01*
X155800099Y-147428990D02*
X157541010Y-147428990D01*
X152734089Y-150495000D02*
X155800099Y-147428990D01*
X144902290Y-150495000D02*
X152734089Y-150495000D01*
X140088906Y-151447584D02*
X143949707Y-151447583D01*
X138495676Y-153040814D02*
X140088906Y-151447584D01*
X134998386Y-153040814D02*
X138495676Y-153040814D01*
X133309360Y-154729840D02*
X134998386Y-153040814D01*
X143949707Y-151447583D02*
X144902290Y-150495000D01*
X145112715Y-151003011D02*
X152944515Y-151003010D01*
X137030376Y-153548824D02*
X138706102Y-153548824D01*
X138706102Y-153548824D02*
X140299333Y-151955593D01*
X135849360Y-154729840D02*
X137030376Y-153548824D01*
X135849360Y-154929840D02*
X135849360Y-154729840D01*
X144160133Y-151955593D02*
X145112715Y-151003011D01*
X140299333Y-151955593D02*
X144160133Y-151955593D01*
X152944515Y-151003010D02*
X155287525Y-148660000D01*
X155287525Y-148660000D02*
X156460000Y-148660000D01*
X145323142Y-151511020D02*
X153154941Y-151511020D01*
X157541010Y-149968990D02*
X158850000Y-148660000D01*
X158850000Y-148660000D02*
X159000000Y-148660000D01*
X153154941Y-151511020D02*
X154696971Y-149968990D01*
X154696971Y-149968990D02*
X157541010Y-149968990D01*
X138389360Y-154929840D02*
X138389360Y-154729840D01*
X138389360Y-154729840D02*
X140655597Y-152463603D01*
X140655597Y-152463603D02*
X144370559Y-152463603D01*
X144370559Y-152463603D02*
X145323142Y-151511020D01*
X155206000Y-151200000D02*
X156460000Y-151200000D01*
X154184397Y-151200000D02*
X155206000Y-151200000D01*
X153365367Y-152019030D02*
X154184397Y-151200000D01*
X144580985Y-152971613D02*
X145533567Y-152019031D01*
X140929360Y-154929840D02*
X140929360Y-154729840D01*
X140929360Y-154729840D02*
X142687587Y-152971613D01*
X145533567Y-152019031D02*
X153365367Y-152019030D01*
X142687587Y-152971613D02*
X144580985Y-152971613D01*
X158850000Y-151200000D02*
X159000000Y-151200000D01*
X157618990Y-152431010D02*
X158850000Y-151200000D01*
X153671823Y-152431010D02*
X157618990Y-152431010D01*
X143469360Y-154929840D02*
X145872160Y-152527040D01*
X153575793Y-152527040D02*
X153671823Y-152431010D01*
X145872160Y-152527040D02*
X153575793Y-152527040D01*
X155206000Y-153740000D02*
X156460000Y-153740000D01*
X147698381Y-153040819D02*
X154506819Y-153040819D01*
X146009360Y-154729840D02*
X147698381Y-153040819D01*
X146009360Y-154929840D02*
X146009360Y-154729840D01*
X154506819Y-153040819D02*
X155206000Y-153740000D01*
X158850000Y-153740000D02*
X157541009Y-155048990D01*
X157541009Y-155048990D02*
X153078710Y-155048990D01*
X148549360Y-154729840D02*
X148549360Y-154929840D01*
X151578550Y-153548830D02*
X149730370Y-153548830D01*
X159000000Y-153740000D02*
X158850000Y-153740000D01*
X153078710Y-155048990D02*
X151578550Y-153548830D01*
X149730370Y-153548830D02*
X148549360Y-154729840D01*
X152439520Y-156280000D02*
X155206000Y-156280000D01*
X151089360Y-154929840D02*
X152439520Y-156280000D01*
X155206000Y-156280000D02*
X156460000Y-156280000D01*
D23*
X106680000Y-116840000D02*
X106680000Y-117040000D01*
X106680000Y-117040000D02*
X108115000Y-118475000D01*
X108115000Y-118475000D02*
X115405000Y-118475000D01*
X115405000Y-118475000D02*
X116840000Y-117040000D01*
X116840000Y-117040000D02*
X116840000Y-116840000D01*
X104140000Y-124460000D02*
X104140000Y-124660000D01*
X104140000Y-124660000D02*
X105575000Y-126095000D01*
X105575000Y-126095000D02*
X112865000Y-126095000D01*
X112865000Y-126095000D02*
X114300000Y-124660000D01*
X114300000Y-124660000D02*
X114300000Y-124460000D01*
X121920000Y-124460000D02*
X121920000Y-120650000D01*
X148549360Y-139489840D02*
X148549360Y-139689840D01*
X118941298Y-135451298D02*
X144510818Y-135451298D01*
X144510818Y-135451298D02*
X148549360Y-139489840D01*
X113030000Y-129540000D02*
X118941298Y-135451298D01*
X102870000Y-129540000D02*
X102870000Y-131175000D01*
X138389360Y-139489840D02*
X138389360Y-139689840D01*
X108035308Y-136340308D02*
X135239828Y-136340308D01*
X102870000Y-131175000D02*
X108035308Y-136340308D01*
X135239828Y-136340308D02*
X138389360Y-139489840D01*
X82550000Y-124260000D02*
X82550000Y-124460000D01*
X88655498Y-122825000D02*
X83985000Y-122825000D01*
X91363910Y-120116588D02*
X88655498Y-122825000D01*
X93116761Y-120116588D02*
X91363910Y-120116588D01*
X101298499Y-128298326D02*
X93116761Y-120116588D01*
X133588838Y-137229318D02*
X107667069Y-137229318D01*
X135849360Y-139689840D02*
X135849360Y-139489840D01*
X107667069Y-137229318D02*
X101298499Y-130860748D01*
X83985000Y-122825000D02*
X82550000Y-124260000D01*
X135849360Y-139489840D02*
X133588838Y-137229318D01*
X101298499Y-130860748D02*
X101298499Y-128298326D01*
X93321467Y-158761467D02*
X96560001Y-162000001D01*
X69469011Y-157734011D02*
X70496467Y-158761467D01*
X81781501Y-140668499D02*
X74175679Y-140668499D01*
X69469011Y-148063166D02*
X69469011Y-157734011D01*
X73358499Y-144173678D02*
X69469011Y-148063166D01*
X85090000Y-137360000D02*
X81781501Y-140668499D01*
X85090000Y-137160000D02*
X85090000Y-137360000D01*
X74175679Y-140668499D02*
X73358499Y-141485679D01*
X73358499Y-141485679D02*
X73358499Y-144173678D01*
X70496467Y-158761467D02*
X93321467Y-158761467D01*
X96560001Y-162000001D02*
X97560000Y-163000000D01*
D25*
X136785969Y-148913231D02*
X136785970Y-148913232D01*
X136785970Y-148913232D02*
X119585967Y-148913231D01*
X146009360Y-139889840D02*
X146050000Y-139930480D01*
X146009360Y-139689840D02*
X146009360Y-139889840D01*
X146050000Y-139930480D02*
X146050000Y-143510000D01*
X146050000Y-143510000D02*
X142239999Y-147320001D01*
X142239999Y-147320001D02*
X138379200Y-147320001D01*
X138379200Y-147320001D02*
X138044417Y-147654785D01*
X138044417Y-147654785D02*
X136785970Y-148913232D01*
X110260000Y-159619202D02*
X110260000Y-161585787D01*
X114233870Y-154265328D02*
X114233870Y-155645332D01*
X119585967Y-148913231D02*
X114233870Y-154265328D01*
X114233870Y-155645332D02*
X110260000Y-159619202D01*
X110260000Y-161585787D02*
X110260000Y-163000000D01*
D23*
X89940000Y-163000000D02*
X88368499Y-161428499D01*
X88368499Y-161428499D02*
X67040424Y-161428497D01*
X67040424Y-161428497D02*
X61674488Y-156062561D01*
X61674488Y-156062561D02*
X61674488Y-147875512D01*
X61674488Y-147875512D02*
X66040000Y-143510000D01*
X66040000Y-143510000D02*
X69215000Y-143510000D01*
X77702822Y-120015000D02*
X62865000Y-134852822D01*
X62865000Y-134852822D02*
X62865000Y-138430000D01*
X89735000Y-120015000D02*
X77702822Y-120015000D01*
X92710000Y-117040000D02*
X89735000Y-120015000D01*
X92710000Y-116840000D02*
X92710000Y-117040000D01*
X74930000Y-137160000D02*
X74930000Y-137360000D01*
X70786501Y-144264321D02*
X66675000Y-148375822D01*
X74930000Y-137360000D02*
X70786501Y-141503499D01*
X66675000Y-148375822D02*
X66675000Y-148445787D01*
X70786501Y-141503499D02*
X70786501Y-144264321D01*
X66675000Y-148445787D02*
X66675000Y-149860000D01*
X74715821Y-137160000D02*
X74930000Y-137160000D01*
X64135000Y-152614178D02*
X64135000Y-152400000D01*
X62563499Y-154185679D02*
X64135000Y-152614178D01*
X62563499Y-155694321D02*
X62563499Y-154185679D01*
X63380679Y-156511501D02*
X62563499Y-155694321D01*
X92480000Y-163000000D02*
X90019489Y-160539489D01*
X64449253Y-156511501D02*
X63380679Y-156511501D01*
X68477239Y-160539488D02*
X64449253Y-156511501D01*
X90019489Y-160539489D02*
X88736739Y-160539488D01*
X88736739Y-160539488D02*
X68477239Y-160539488D01*
X95020000Y-163000000D02*
X91670478Y-159650478D01*
X91670478Y-159650478D02*
X68845478Y-159650478D01*
X68845478Y-159650478D02*
X64135000Y-154940000D01*
X62865000Y-140970000D02*
X64279213Y-140970000D01*
X64468499Y-140780714D02*
X64468499Y-136972799D01*
X64468499Y-136972799D02*
X65916298Y-135525000D01*
X86195000Y-135525000D02*
X87630000Y-136960000D01*
X64279213Y-140970000D02*
X64468499Y-140780714D01*
X65916298Y-135525000D02*
X86195000Y-135525000D01*
X87630000Y-136960000D02*
X87630000Y-137160000D01*
X90170000Y-156210000D02*
X94081501Y-152298499D01*
X94081501Y-152298499D02*
X94081501Y-146151501D01*
X94081501Y-146151501D02*
X93559999Y-145629999D01*
X93559999Y-145629999D02*
X92710000Y-144780000D01*
X85090000Y-129540000D02*
X85090000Y-127000000D01*
X85090000Y-127000000D02*
X87630000Y-124460000D01*
X95250000Y-139700000D02*
X95250000Y-124860392D01*
X95250000Y-124860392D02*
X92309608Y-121920000D01*
X92710000Y-142240000D02*
X95250000Y-139700000D01*
D24*
G36*
X99456988Y-129061105D02*
X99456988Y-131365441D01*
X99465577Y-131453042D01*
X99473242Y-131540655D01*
X99474639Y-131545464D01*
X99475128Y-131550449D01*
X99500559Y-131634680D01*
X99525105Y-131719168D01*
X99527410Y-131723615D01*
X99528858Y-131728411D01*
X99570148Y-131806066D01*
X99610654Y-131884210D01*
X99613782Y-131888129D01*
X99616131Y-131892546D01*
X99671706Y-131960688D01*
X99726631Y-132029491D01*
X99733504Y-132036461D01*
X99733622Y-132036605D01*
X99733755Y-132036715D01*
X99735969Y-132038960D01*
X105824959Y-138127950D01*
X105657907Y-138076239D01*
X105379378Y-138046964D01*
X105100468Y-138072347D01*
X104831800Y-138151420D01*
X104583607Y-138281172D01*
X104365343Y-138456661D01*
X104185322Y-138671201D01*
X104099132Y-138827981D01*
X104024602Y-138687812D01*
X103847594Y-138470779D01*
X103631802Y-138292260D01*
X103385445Y-138159055D01*
X103117907Y-138076239D01*
X102839378Y-138046964D01*
X102560468Y-138072347D01*
X102291800Y-138151420D01*
X102043607Y-138281172D01*
X101825343Y-138456661D01*
X101645322Y-138671201D01*
X101510401Y-138916622D01*
X101425718Y-139183576D01*
X101394500Y-139461893D01*
X101394360Y-139481929D01*
X101394360Y-139897751D01*
X101421689Y-140176477D01*
X101502636Y-140444587D01*
X101634118Y-140691868D01*
X101811126Y-140908901D01*
X102026918Y-141087420D01*
X102273275Y-141220625D01*
X102540813Y-141303441D01*
X102605040Y-141310192D01*
X104152715Y-142857866D01*
X104243397Y-142932353D01*
X104333232Y-143007734D01*
X104339082Y-143010950D01*
X104344245Y-143015191D01*
X104447658Y-143070640D01*
X104550434Y-143127142D01*
X104556800Y-143129161D01*
X104562685Y-143132317D01*
X104674874Y-143166617D01*
X104786692Y-143202087D01*
X104793328Y-143202831D01*
X104799715Y-143204784D01*
X104916425Y-143216639D01*
X105033008Y-143229716D01*
X105046064Y-143229807D01*
X105046307Y-143229832D01*
X105046534Y-143229811D01*
X105050740Y-143229840D01*
X138859360Y-143229840D01*
X138976123Y-143218391D01*
X139092978Y-143208168D01*
X139099392Y-143206305D01*
X139106038Y-143205653D01*
X139218322Y-143171752D01*
X139330997Y-143139017D01*
X139336928Y-143135942D01*
X139343319Y-143134013D01*
X139446909Y-143078934D01*
X139551051Y-143024951D01*
X139556267Y-143020787D01*
X139562167Y-143017650D01*
X139653103Y-142943485D01*
X139744760Y-142870316D01*
X139754059Y-142861147D01*
X139754245Y-142860995D01*
X139754388Y-142860823D01*
X139757386Y-142857866D01*
X141353657Y-141261595D01*
X141466920Y-141228260D01*
X141715113Y-141098508D01*
X141933377Y-140923019D01*
X142113398Y-140708479D01*
X142196055Y-140558127D01*
X142204930Y-140579067D01*
X142363687Y-140812502D01*
X142564935Y-141010479D01*
X142800939Y-141165391D01*
X143062630Y-141271284D01*
X143120321Y-141281744D01*
X143342360Y-141159755D01*
X143342360Y-139816840D01*
X143322360Y-139816840D01*
X143322360Y-139562840D01*
X143342360Y-139562840D01*
X143342360Y-138219925D01*
X143120321Y-138097936D01*
X143062630Y-138108396D01*
X142800939Y-138214289D01*
X142564935Y-138369201D01*
X142363687Y-138567178D01*
X142204930Y-138800613D01*
X142195903Y-138821910D01*
X142124602Y-138687812D01*
X141947594Y-138470779D01*
X141731802Y-138292260D01*
X141485445Y-138159055D01*
X141217907Y-138076239D01*
X140939378Y-138046964D01*
X140660468Y-138072347D01*
X140391800Y-138151420D01*
X140143607Y-138281172D01*
X139925343Y-138456661D01*
X139745322Y-138671201D01*
X139659132Y-138827981D01*
X139584602Y-138687812D01*
X139407594Y-138470779D01*
X139191802Y-138292260D01*
X138945445Y-138159055D01*
X138677907Y-138076239D01*
X138399378Y-138046964D01*
X138302352Y-138055794D01*
X136650356Y-136403798D01*
X144116280Y-136403798D01*
X145781129Y-138068647D01*
X145740468Y-138072347D01*
X145471800Y-138151420D01*
X145223607Y-138281172D01*
X145005343Y-138456661D01*
X144825322Y-138671201D01*
X144742665Y-138821553D01*
X144733790Y-138800613D01*
X144575033Y-138567178D01*
X144373785Y-138369201D01*
X144137781Y-138214289D01*
X143876090Y-138108396D01*
X143818399Y-138097936D01*
X143596360Y-138219925D01*
X143596360Y-139562840D01*
X143616360Y-139562840D01*
X143616360Y-139816840D01*
X143596360Y-139816840D01*
X143596360Y-141159755D01*
X143818399Y-141281744D01*
X143876090Y-141271284D01*
X144137781Y-141165391D01*
X144373785Y-141010479D01*
X144575033Y-140812502D01*
X144733790Y-140579067D01*
X144742817Y-140557770D01*
X144814118Y-140691868D01*
X144991126Y-140908901D01*
X145206918Y-141087420D01*
X145224500Y-141096927D01*
X145224500Y-143168066D01*
X141898065Y-146494501D01*
X138379200Y-146494501D01*
X138303256Y-146501948D01*
X138227347Y-146508589D01*
X138223181Y-146509799D01*
X138218860Y-146510223D01*
X138145804Y-146532279D01*
X138072635Y-146553537D01*
X138068786Y-146555532D01*
X138064626Y-146556788D01*
X137997279Y-146592597D01*
X137929599Y-146627679D01*
X137926205Y-146630389D01*
X137922375Y-146632425D01*
X137863296Y-146680608D01*
X137803689Y-146728192D01*
X137797649Y-146734148D01*
X137797524Y-146734250D01*
X137797428Y-146734366D01*
X137795482Y-146736285D01*
X137460700Y-147071068D01*
X136444036Y-148087732D01*
X119585967Y-148087731D01*
X119510064Y-148095174D01*
X119434115Y-148101818D01*
X119429944Y-148103030D01*
X119425627Y-148103453D01*
X119352633Y-148125491D01*
X119279403Y-148146766D01*
X119275551Y-148148763D01*
X119271393Y-148150018D01*
X119204043Y-148185829D01*
X119136367Y-148220909D01*
X119132974Y-148223617D01*
X119129142Y-148225655D01*
X119070048Y-148273851D01*
X119010457Y-148321421D01*
X119004416Y-148327378D01*
X119004291Y-148327480D01*
X119004195Y-148327596D01*
X119002250Y-148329514D01*
X113796017Y-153535747D01*
X113791802Y-153532260D01*
X113545445Y-153399055D01*
X113277907Y-153316239D01*
X112999378Y-153286964D01*
X112720468Y-153312347D01*
X112451800Y-153391420D01*
X112203607Y-153521172D01*
X111985343Y-153696661D01*
X111805322Y-153911201D01*
X111719132Y-154067981D01*
X111644602Y-153927812D01*
X111467594Y-153710779D01*
X111251802Y-153532260D01*
X111005445Y-153399055D01*
X110737907Y-153316239D01*
X110459378Y-153286964D01*
X110180468Y-153312347D01*
X109911800Y-153391420D01*
X109663607Y-153521172D01*
X109445343Y-153696661D01*
X109265322Y-153911201D01*
X109179132Y-154067981D01*
X109104602Y-153927812D01*
X108927594Y-153710779D01*
X108711802Y-153532260D01*
X108465445Y-153399055D01*
X108197907Y-153316239D01*
X107919378Y-153286964D01*
X107640468Y-153312347D01*
X107371800Y-153391420D01*
X107123607Y-153521172D01*
X106905343Y-153696661D01*
X106725322Y-153911201D01*
X106639132Y-154067981D01*
X106564602Y-153927812D01*
X106387594Y-153710779D01*
X106171802Y-153532260D01*
X105925445Y-153399055D01*
X105657907Y-153316239D01*
X105379378Y-153286964D01*
X105100468Y-153312347D01*
X104831800Y-153391420D01*
X104583607Y-153521172D01*
X104365343Y-153696661D01*
X104256273Y-153826645D01*
X104239957Y-153744617D01*
X104192090Y-153629055D01*
X104122597Y-153525051D01*
X104034149Y-153436603D01*
X103930145Y-153367110D01*
X103814583Y-153319243D01*
X103691902Y-153294840D01*
X103115110Y-153294840D01*
X102956360Y-153453590D01*
X102956360Y-154802840D01*
X102976360Y-154802840D01*
X102976360Y-155056840D01*
X102956360Y-155056840D01*
X102956360Y-156406090D01*
X103115110Y-156564840D01*
X103691902Y-156564840D01*
X103814583Y-156540437D01*
X103930145Y-156492570D01*
X104034149Y-156423077D01*
X104122597Y-156334629D01*
X104192090Y-156230625D01*
X104239957Y-156115063D01*
X104256343Y-156032686D01*
X104351126Y-156148901D01*
X104566918Y-156327420D01*
X104813275Y-156460625D01*
X105080813Y-156543441D01*
X105359342Y-156572716D01*
X105638252Y-156547333D01*
X105906920Y-156468260D01*
X106155113Y-156338508D01*
X106373377Y-156163019D01*
X106553398Y-155948479D01*
X106639588Y-155791699D01*
X106714118Y-155931868D01*
X106891126Y-156148901D01*
X107106918Y-156327420D01*
X107353275Y-156460625D01*
X107620813Y-156543441D01*
X107899342Y-156572716D01*
X108178252Y-156547333D01*
X108446920Y-156468260D01*
X108695113Y-156338508D01*
X108913377Y-156163019D01*
X109093398Y-155948479D01*
X109179588Y-155791699D01*
X109254118Y-155931868D01*
X109431126Y-156148901D01*
X109646918Y-156327420D01*
X109893275Y-156460625D01*
X110160813Y-156543441D01*
X110439342Y-156572716D01*
X110718252Y-156547333D01*
X110986920Y-156468260D01*
X111235113Y-156338508D01*
X111453377Y-156163019D01*
X111633398Y-155948479D01*
X111719588Y-155791699D01*
X111794118Y-155931868D01*
X111971126Y-156148901D01*
X112186918Y-156327420D01*
X112315061Y-156396707D01*
X109676283Y-159035485D01*
X109627867Y-159094428D01*
X109578869Y-159152822D01*
X109576777Y-159156627D01*
X109574023Y-159159980D01*
X109537991Y-159227179D01*
X109501254Y-159294003D01*
X109499942Y-159298139D01*
X109497890Y-159301966D01*
X109475593Y-159374897D01*
X109452539Y-159447571D01*
X109452055Y-159451885D01*
X109450786Y-159456036D01*
X109443078Y-159531918D01*
X109434580Y-159607676D01*
X109434521Y-159616152D01*
X109434504Y-159616321D01*
X109434519Y-159616479D01*
X109434500Y-159619202D01*
X109434500Y-161587506D01*
X109364734Y-161623979D01*
X109116050Y-161823926D01*
X108989769Y-161974421D01*
X108880148Y-161840012D01*
X108634280Y-161636613D01*
X108353588Y-161484843D01*
X108048762Y-161390483D01*
X107731414Y-161357129D01*
X107413632Y-161386049D01*
X107107518Y-161476143D01*
X106824734Y-161623979D01*
X106576050Y-161823926D01*
X106449769Y-161974421D01*
X106340148Y-161840012D01*
X106094280Y-161636613D01*
X105813588Y-161484843D01*
X105508762Y-161390483D01*
X105191414Y-161357129D01*
X104873632Y-161386049D01*
X104567518Y-161476143D01*
X104284734Y-161623979D01*
X104036050Y-161823926D01*
X103907603Y-161977004D01*
X103750785Y-161800252D01*
X103495382Y-161606601D01*
X103207107Y-161466498D01*
X103020434Y-161409876D01*
X102767000Y-161529223D01*
X102767000Y-162873000D01*
X102787000Y-162873000D01*
X102787000Y-163127000D01*
X102767000Y-163127000D01*
X102767000Y-163147000D01*
X102513000Y-163147000D01*
X102513000Y-163127000D01*
X102493000Y-163127000D01*
X102493000Y-162873000D01*
X102513000Y-162873000D01*
X102513000Y-161529223D01*
X102259566Y-161409876D01*
X102072893Y-161466498D01*
X101784618Y-161606601D01*
X101529215Y-161800252D01*
X101372126Y-161977310D01*
X101260148Y-161840012D01*
X101014280Y-161636613D01*
X100733588Y-161484843D01*
X100428762Y-161390483D01*
X100111414Y-161357129D01*
X99793632Y-161386049D01*
X99487518Y-161476143D01*
X99204734Y-161623979D01*
X98956050Y-161823926D01*
X98829769Y-161974421D01*
X98720148Y-161840012D01*
X98474280Y-161636613D01*
X98193588Y-161484843D01*
X97888762Y-161390483D01*
X97571414Y-161357129D01*
X97289796Y-161382758D01*
X93994986Y-158087948D01*
X93926988Y-158032093D01*
X93859598Y-157975546D01*
X93855210Y-157973134D01*
X93851339Y-157969954D01*
X93773777Y-157928366D01*
X93696697Y-157885991D01*
X93691924Y-157884477D01*
X93687508Y-157882109D01*
X93603376Y-157856387D01*
X93519503Y-157829781D01*
X93514522Y-157829222D01*
X93509736Y-157827759D01*
X93422234Y-157818871D01*
X93334766Y-157809060D01*
X93324974Y-157808992D01*
X93324792Y-157808973D01*
X93324622Y-157808989D01*
X93321467Y-157808967D01*
X92837002Y-157808967D01*
X92837002Y-157679916D01*
X93059039Y-157801904D01*
X93116730Y-157791444D01*
X93378421Y-157685551D01*
X93614425Y-157530639D01*
X93815673Y-157332662D01*
X93974430Y-157099227D01*
X94084596Y-156839306D01*
X94141937Y-156562887D01*
X93989474Y-156337000D01*
X92837000Y-156337000D01*
X92837000Y-156357000D01*
X92583000Y-156357000D01*
X92583000Y-156337000D01*
X92563000Y-156337000D01*
X92563000Y-156083000D01*
X92583000Y-156083000D01*
X92583000Y-156063000D01*
X92837000Y-156063000D01*
X92837000Y-156083000D01*
X93989474Y-156083000D01*
X94141937Y-155857113D01*
X94084596Y-155580694D01*
X93974430Y-155320773D01*
X93902897Y-155215590D01*
X101394360Y-155215590D01*
X101394360Y-155992382D01*
X101418763Y-156115063D01*
X101466630Y-156230625D01*
X101536123Y-156334629D01*
X101624571Y-156423077D01*
X101728575Y-156492570D01*
X101844137Y-156540437D01*
X101966818Y-156564840D01*
X102543610Y-156564840D01*
X102702360Y-156406090D01*
X102702360Y-155056840D01*
X101553110Y-155056840D01*
X101394360Y-155215590D01*
X93902897Y-155215590D01*
X93815673Y-155087338D01*
X93614425Y-154889361D01*
X93378421Y-154734449D01*
X93116730Y-154628556D01*
X93101283Y-154625755D01*
X93859740Y-153867298D01*
X101394360Y-153867298D01*
X101394360Y-154644090D01*
X101553110Y-154802840D01*
X102702360Y-154802840D01*
X102702360Y-153453590D01*
X102543610Y-153294840D01*
X101966818Y-153294840D01*
X101844137Y-153319243D01*
X101728575Y-153367110D01*
X101624571Y-153436603D01*
X101536123Y-153525051D01*
X101466630Y-153629055D01*
X101418763Y-153744617D01*
X101394360Y-153867298D01*
X93859740Y-153867298D01*
X94755020Y-152972018D01*
X94810875Y-152904020D01*
X94867422Y-152836630D01*
X94869834Y-152832242D01*
X94873014Y-152828371D01*
X94914602Y-152750809D01*
X94956977Y-152673729D01*
X94958491Y-152668956D01*
X94960859Y-152664540D01*
X94986577Y-152580420D01*
X95013187Y-152496535D01*
X95013746Y-152491553D01*
X95015209Y-152486767D01*
X95024097Y-152399271D01*
X95033908Y-152311798D01*
X95033976Y-152302006D01*
X95033995Y-152301824D01*
X95033979Y-152301654D01*
X95034001Y-152298499D01*
X95034001Y-146151501D01*
X95025412Y-146063900D01*
X95017747Y-145976287D01*
X95016350Y-145971478D01*
X95015861Y-145966493D01*
X94990430Y-145882262D01*
X94965884Y-145797774D01*
X94963579Y-145793327D01*
X94962131Y-145788531D01*
X94920841Y-145710876D01*
X94880335Y-145632732D01*
X94877207Y-145628813D01*
X94874858Y-145624396D01*
X94819283Y-145556254D01*
X94764358Y-145487451D01*
X94757485Y-145480481D01*
X94757367Y-145480337D01*
X94757234Y-145480227D01*
X94755020Y-145477982D01*
X94318914Y-145041876D01*
X94344841Y-144810739D01*
X94345000Y-144787911D01*
X94345000Y-144772089D01*
X94313862Y-144454516D01*
X94221633Y-144149039D01*
X94071826Y-143867294D01*
X93870148Y-143620012D01*
X93737148Y-143509985D01*
X93853950Y-143416074D01*
X94059061Y-143171632D01*
X94212786Y-142892006D01*
X94309271Y-142587847D01*
X94344841Y-142270739D01*
X94345000Y-142247911D01*
X94345000Y-142232089D01*
X94319993Y-141977045D01*
X95923519Y-140373520D01*
X95979372Y-140305523D01*
X96035921Y-140238131D01*
X96038335Y-140233739D01*
X96041512Y-140229872D01*
X96083080Y-140152349D01*
X96125476Y-140075230D01*
X96126990Y-140070457D01*
X96129358Y-140066041D01*
X96155067Y-139981950D01*
X96181686Y-139898036D01*
X96182245Y-139893050D01*
X96183707Y-139888269D01*
X96192591Y-139800817D01*
X96202407Y-139713299D01*
X96202475Y-139703507D01*
X96202494Y-139703325D01*
X96202478Y-139703155D01*
X96202500Y-139700000D01*
X96202500Y-132209067D01*
X96252983Y-132209067D01*
X96307324Y-132505150D01*
X96418140Y-132785040D01*
X96581210Y-133038075D01*
X96790322Y-133254617D01*
X97037512Y-133426419D01*
X97313364Y-133546935D01*
X97607371Y-133611577D01*
X97908334Y-133617881D01*
X98204789Y-133565608D01*
X98485446Y-133456748D01*
X98739613Y-133295449D01*
X98957610Y-133087854D01*
X99131132Y-132841869D01*
X99253572Y-132566866D01*
X99320265Y-132273317D01*
X99325066Y-131929486D01*
X99266595Y-131634190D01*
X99151882Y-131355874D01*
X98985295Y-131105141D01*
X98773180Y-130891540D01*
X98625745Y-130792093D01*
X98674475Y-130644080D01*
X97790000Y-129759605D01*
X96905525Y-130644080D01*
X96954330Y-130792322D01*
X96823509Y-130877928D01*
X96608432Y-131088547D01*
X96438361Y-131336930D01*
X96319773Y-131613617D01*
X96257186Y-131908067D01*
X96252983Y-132209067D01*
X96202500Y-132209067D01*
X96202500Y-129646553D01*
X96249009Y-129646553D01*
X96291603Y-129945907D01*
X96391778Y-130231199D01*
X96471739Y-130380792D01*
X96725920Y-130464475D01*
X97610395Y-129580000D01*
X97969605Y-129580000D01*
X98854080Y-130464475D01*
X99108261Y-130380792D01*
X99239158Y-130108225D01*
X99314365Y-129815358D01*
X99330991Y-129513447D01*
X99288397Y-129214093D01*
X99188222Y-128928801D01*
X99108261Y-128779208D01*
X98854080Y-128695525D01*
X97969605Y-129580000D01*
X97610395Y-129580000D01*
X96725920Y-128695525D01*
X96471739Y-128779208D01*
X96340842Y-129051775D01*
X96265635Y-129344642D01*
X96249009Y-129646553D01*
X96202500Y-129646553D01*
X96202500Y-128515920D01*
X96905525Y-128515920D01*
X97790000Y-129400395D01*
X98674475Y-128515920D01*
X98590792Y-128261739D01*
X98318225Y-128130842D01*
X98025358Y-128055635D01*
X97723447Y-128039009D01*
X97424093Y-128081603D01*
X97138801Y-128181778D01*
X96989208Y-128261739D01*
X96905525Y-128515920D01*
X96202500Y-128515920D01*
X96202500Y-125806617D01*
X99456988Y-129061105D01*
X99456988Y-129061105D01*
G37*
X99456988Y-129061105D02*
X99456988Y-131365441D01*
X99465577Y-131453042D01*
X99473242Y-131540655D01*
X99474639Y-131545464D01*
X99475128Y-131550449D01*
X99500559Y-131634680D01*
X99525105Y-131719168D01*
X99527410Y-131723615D01*
X99528858Y-131728411D01*
X99570148Y-131806066D01*
X99610654Y-131884210D01*
X99613782Y-131888129D01*
X99616131Y-131892546D01*
X99671706Y-131960688D01*
X99726631Y-132029491D01*
X99733504Y-132036461D01*
X99733622Y-132036605D01*
X99733755Y-132036715D01*
X99735969Y-132038960D01*
X105824959Y-138127950D01*
X105657907Y-138076239D01*
X105379378Y-138046964D01*
X105100468Y-138072347D01*
X104831800Y-138151420D01*
X104583607Y-138281172D01*
X104365343Y-138456661D01*
X104185322Y-138671201D01*
X104099132Y-138827981D01*
X104024602Y-138687812D01*
X103847594Y-138470779D01*
X103631802Y-138292260D01*
X103385445Y-138159055D01*
X103117907Y-138076239D01*
X102839378Y-138046964D01*
X102560468Y-138072347D01*
X102291800Y-138151420D01*
X102043607Y-138281172D01*
X101825343Y-138456661D01*
X101645322Y-138671201D01*
X101510401Y-138916622D01*
X101425718Y-139183576D01*
X101394500Y-139461893D01*
X101394360Y-139481929D01*
X101394360Y-139897751D01*
X101421689Y-140176477D01*
X101502636Y-140444587D01*
X101634118Y-140691868D01*
X101811126Y-140908901D01*
X102026918Y-141087420D01*
X102273275Y-141220625D01*
X102540813Y-141303441D01*
X102605040Y-141310192D01*
X104152715Y-142857866D01*
X104243397Y-142932353D01*
X104333232Y-143007734D01*
X104339082Y-143010950D01*
X104344245Y-143015191D01*
X104447658Y-143070640D01*
X104550434Y-143127142D01*
X104556800Y-143129161D01*
X104562685Y-143132317D01*
X104674874Y-143166617D01*
X104786692Y-143202087D01*
X104793328Y-143202831D01*
X104799715Y-143204784D01*
X104916425Y-143216639D01*
X105033008Y-143229716D01*
X105046064Y-143229807D01*
X105046307Y-143229832D01*
X105046534Y-143229811D01*
X105050740Y-143229840D01*
X138859360Y-143229840D01*
X138976123Y-143218391D01*
X139092978Y-143208168D01*
X139099392Y-143206305D01*
X139106038Y-143205653D01*
X139218322Y-143171752D01*
X139330997Y-143139017D01*
X139336928Y-143135942D01*
X139343319Y-143134013D01*
X139446909Y-143078934D01*
X139551051Y-143024951D01*
X139556267Y-143020787D01*
X139562167Y-143017650D01*
X139653103Y-142943485D01*
X139744760Y-142870316D01*
X139754059Y-142861147D01*
X139754245Y-142860995D01*
X139754388Y-142860823D01*
X139757386Y-142857866D01*
X141353657Y-141261595D01*
X141466920Y-141228260D01*
X141715113Y-141098508D01*
X141933377Y-140923019D01*
X142113398Y-140708479D01*
X142196055Y-140558127D01*
X142204930Y-140579067D01*
X142363687Y-140812502D01*
X142564935Y-141010479D01*
X142800939Y-141165391D01*
X143062630Y-141271284D01*
X143120321Y-141281744D01*
X143342360Y-141159755D01*
X143342360Y-139816840D01*
X143322360Y-139816840D01*
X143322360Y-139562840D01*
X143342360Y-139562840D01*
X143342360Y-138219925D01*
X143120321Y-138097936D01*
X143062630Y-138108396D01*
X142800939Y-138214289D01*
X142564935Y-138369201D01*
X142363687Y-138567178D01*
X142204930Y-138800613D01*
X142195903Y-138821910D01*
X142124602Y-138687812D01*
X141947594Y-138470779D01*
X141731802Y-138292260D01*
X141485445Y-138159055D01*
X141217907Y-138076239D01*
X140939378Y-138046964D01*
X140660468Y-138072347D01*
X140391800Y-138151420D01*
X140143607Y-138281172D01*
X139925343Y-138456661D01*
X139745322Y-138671201D01*
X139659132Y-138827981D01*
X139584602Y-138687812D01*
X139407594Y-138470779D01*
X139191802Y-138292260D01*
X138945445Y-138159055D01*
X138677907Y-138076239D01*
X138399378Y-138046964D01*
X138302352Y-138055794D01*
X136650356Y-136403798D01*
X144116280Y-136403798D01*
X145781129Y-138068647D01*
X145740468Y-138072347D01*
X145471800Y-138151420D01*
X145223607Y-138281172D01*
X145005343Y-138456661D01*
X144825322Y-138671201D01*
X144742665Y-138821553D01*
X144733790Y-138800613D01*
X144575033Y-138567178D01*
X144373785Y-138369201D01*
X144137781Y-138214289D01*
X143876090Y-138108396D01*
X143818399Y-138097936D01*
X143596360Y-138219925D01*
X143596360Y-139562840D01*
X143616360Y-139562840D01*
X143616360Y-139816840D01*
X143596360Y-139816840D01*
X143596360Y-141159755D01*
X143818399Y-141281744D01*
X143876090Y-141271284D01*
X144137781Y-141165391D01*
X144373785Y-141010479D01*
X144575033Y-140812502D01*
X144733790Y-140579067D01*
X144742817Y-140557770D01*
X144814118Y-140691868D01*
X144991126Y-140908901D01*
X145206918Y-141087420D01*
X145224500Y-141096927D01*
X145224500Y-143168066D01*
X141898065Y-146494501D01*
X138379200Y-146494501D01*
X138303256Y-146501948D01*
X138227347Y-146508589D01*
X138223181Y-146509799D01*
X138218860Y-146510223D01*
X138145804Y-146532279D01*
X138072635Y-146553537D01*
X138068786Y-146555532D01*
X138064626Y-146556788D01*
X137997279Y-146592597D01*
X137929599Y-146627679D01*
X137926205Y-146630389D01*
X137922375Y-146632425D01*
X137863296Y-146680608D01*
X137803689Y-146728192D01*
X137797649Y-146734148D01*
X137797524Y-146734250D01*
X137797428Y-146734366D01*
X137795482Y-146736285D01*
X137460700Y-147071068D01*
X136444036Y-148087732D01*
X119585967Y-148087731D01*
X119510064Y-148095174D01*
X119434115Y-148101818D01*
X119429944Y-148103030D01*
X119425627Y-148103453D01*
X119352633Y-148125491D01*
X119279403Y-148146766D01*
X119275551Y-148148763D01*
X119271393Y-148150018D01*
X119204043Y-148185829D01*
X119136367Y-148220909D01*
X119132974Y-148223617D01*
X119129142Y-148225655D01*
X119070048Y-148273851D01*
X119010457Y-148321421D01*
X119004416Y-148327378D01*
X119004291Y-148327480D01*
X119004195Y-148327596D01*
X119002250Y-148329514D01*
X113796017Y-153535747D01*
X113791802Y-153532260D01*
X113545445Y-153399055D01*
X113277907Y-153316239D01*
X112999378Y-153286964D01*
X112720468Y-153312347D01*
X112451800Y-153391420D01*
X112203607Y-153521172D01*
X111985343Y-153696661D01*
X111805322Y-153911201D01*
X111719132Y-154067981D01*
X111644602Y-153927812D01*
X111467594Y-153710779D01*
X111251802Y-153532260D01*
X111005445Y-153399055D01*
X110737907Y-153316239D01*
X110459378Y-153286964D01*
X110180468Y-153312347D01*
X109911800Y-153391420D01*
X109663607Y-153521172D01*
X109445343Y-153696661D01*
X109265322Y-153911201D01*
X109179132Y-154067981D01*
X109104602Y-153927812D01*
X108927594Y-153710779D01*
X108711802Y-153532260D01*
X108465445Y-153399055D01*
X108197907Y-153316239D01*
X107919378Y-153286964D01*
X107640468Y-153312347D01*
X107371800Y-153391420D01*
X107123607Y-153521172D01*
X106905343Y-153696661D01*
X106725322Y-153911201D01*
X106639132Y-154067981D01*
X106564602Y-153927812D01*
X106387594Y-153710779D01*
X106171802Y-153532260D01*
X105925445Y-153399055D01*
X105657907Y-153316239D01*
X105379378Y-153286964D01*
X105100468Y-153312347D01*
X104831800Y-153391420D01*
X104583607Y-153521172D01*
X104365343Y-153696661D01*
X104256273Y-153826645D01*
X104239957Y-153744617D01*
X104192090Y-153629055D01*
X104122597Y-153525051D01*
X104034149Y-153436603D01*
X103930145Y-153367110D01*
X103814583Y-153319243D01*
X103691902Y-153294840D01*
X103115110Y-153294840D01*
X102956360Y-153453590D01*
X102956360Y-154802840D01*
X102976360Y-154802840D01*
X102976360Y-155056840D01*
X102956360Y-155056840D01*
X102956360Y-156406090D01*
X103115110Y-156564840D01*
X103691902Y-156564840D01*
X103814583Y-156540437D01*
X103930145Y-156492570D01*
X104034149Y-156423077D01*
X104122597Y-156334629D01*
X104192090Y-156230625D01*
X104239957Y-156115063D01*
X104256343Y-156032686D01*
X104351126Y-156148901D01*
X104566918Y-156327420D01*
X104813275Y-156460625D01*
X105080813Y-156543441D01*
X105359342Y-156572716D01*
X105638252Y-156547333D01*
X105906920Y-156468260D01*
X106155113Y-156338508D01*
X106373377Y-156163019D01*
X106553398Y-155948479D01*
X106639588Y-155791699D01*
X106714118Y-155931868D01*
X106891126Y-156148901D01*
X107106918Y-156327420D01*
X107353275Y-156460625D01*
X107620813Y-156543441D01*
X107899342Y-156572716D01*
X108178252Y-156547333D01*
X108446920Y-156468260D01*
X108695113Y-156338508D01*
X108913377Y-156163019D01*
X109093398Y-155948479D01*
X109179588Y-155791699D01*
X109254118Y-155931868D01*
X109431126Y-156148901D01*
X109646918Y-156327420D01*
X109893275Y-156460625D01*
X110160813Y-156543441D01*
X110439342Y-156572716D01*
X110718252Y-156547333D01*
X110986920Y-156468260D01*
X111235113Y-156338508D01*
X111453377Y-156163019D01*
X111633398Y-155948479D01*
X111719588Y-155791699D01*
X111794118Y-155931868D01*
X111971126Y-156148901D01*
X112186918Y-156327420D01*
X112315061Y-156396707D01*
X109676283Y-159035485D01*
X109627867Y-159094428D01*
X109578869Y-159152822D01*
X109576777Y-159156627D01*
X109574023Y-159159980D01*
X109537991Y-159227179D01*
X109501254Y-159294003D01*
X109499942Y-159298139D01*
X109497890Y-159301966D01*
X109475593Y-159374897D01*
X109452539Y-159447571D01*
X109452055Y-159451885D01*
X109450786Y-159456036D01*
X109443078Y-159531918D01*
X109434580Y-159607676D01*
X109434521Y-159616152D01*
X109434504Y-159616321D01*
X109434519Y-159616479D01*
X109434500Y-159619202D01*
X109434500Y-161587506D01*
X109364734Y-161623979D01*
X109116050Y-161823926D01*
X108989769Y-161974421D01*
X108880148Y-161840012D01*
X108634280Y-161636613D01*
X108353588Y-161484843D01*
X108048762Y-161390483D01*
X107731414Y-161357129D01*
X107413632Y-161386049D01*
X107107518Y-161476143D01*
X106824734Y-161623979D01*
X106576050Y-161823926D01*
X106449769Y-161974421D01*
X106340148Y-161840012D01*
X106094280Y-161636613D01*
X105813588Y-161484843D01*
X105508762Y-161390483D01*
X105191414Y-161357129D01*
X104873632Y-161386049D01*
X104567518Y-161476143D01*
X104284734Y-161623979D01*
X104036050Y-161823926D01*
X103907603Y-161977004D01*
X103750785Y-161800252D01*
X103495382Y-161606601D01*
X103207107Y-161466498D01*
X103020434Y-161409876D01*
X102767000Y-161529223D01*
X102767000Y-162873000D01*
X102787000Y-162873000D01*
X102787000Y-163127000D01*
X102767000Y-163127000D01*
X102767000Y-163147000D01*
X102513000Y-163147000D01*
X102513000Y-163127000D01*
X102493000Y-163127000D01*
X102493000Y-162873000D01*
X102513000Y-162873000D01*
X102513000Y-161529223D01*
X102259566Y-161409876D01*
X102072893Y-161466498D01*
X101784618Y-161606601D01*
X101529215Y-161800252D01*
X101372126Y-161977310D01*
X101260148Y-161840012D01*
X101014280Y-161636613D01*
X100733588Y-161484843D01*
X100428762Y-161390483D01*
X100111414Y-161357129D01*
X99793632Y-161386049D01*
X99487518Y-161476143D01*
X99204734Y-161623979D01*
X98956050Y-161823926D01*
X98829769Y-161974421D01*
X98720148Y-161840012D01*
X98474280Y-161636613D01*
X98193588Y-161484843D01*
X97888762Y-161390483D01*
X97571414Y-161357129D01*
X97289796Y-161382758D01*
X93994986Y-158087948D01*
X93926988Y-158032093D01*
X93859598Y-157975546D01*
X93855210Y-157973134D01*
X93851339Y-157969954D01*
X93773777Y-157928366D01*
X93696697Y-157885991D01*
X93691924Y-157884477D01*
X93687508Y-157882109D01*
X93603376Y-157856387D01*
X93519503Y-157829781D01*
X93514522Y-157829222D01*
X93509736Y-157827759D01*
X93422234Y-157818871D01*
X93334766Y-157809060D01*
X93324974Y-157808992D01*
X93324792Y-157808973D01*
X93324622Y-157808989D01*
X93321467Y-157808967D01*
X92837002Y-157808967D01*
X92837002Y-157679916D01*
X93059039Y-157801904D01*
X93116730Y-157791444D01*
X93378421Y-157685551D01*
X93614425Y-157530639D01*
X93815673Y-157332662D01*
X93974430Y-157099227D01*
X94084596Y-156839306D01*
X94141937Y-156562887D01*
X93989474Y-156337000D01*
X92837000Y-156337000D01*
X92837000Y-156357000D01*
X92583000Y-156357000D01*
X92583000Y-156337000D01*
X92563000Y-156337000D01*
X92563000Y-156083000D01*
X92583000Y-156083000D01*
X92583000Y-156063000D01*
X92837000Y-156063000D01*
X92837000Y-156083000D01*
X93989474Y-156083000D01*
X94141937Y-155857113D01*
X94084596Y-155580694D01*
X93974430Y-155320773D01*
X93902897Y-155215590D01*
X101394360Y-155215590D01*
X101394360Y-155992382D01*
X101418763Y-156115063D01*
X101466630Y-156230625D01*
X101536123Y-156334629D01*
X101624571Y-156423077D01*
X101728575Y-156492570D01*
X101844137Y-156540437D01*
X101966818Y-156564840D01*
X102543610Y-156564840D01*
X102702360Y-156406090D01*
X102702360Y-155056840D01*
X101553110Y-155056840D01*
X101394360Y-155215590D01*
X93902897Y-155215590D01*
X93815673Y-155087338D01*
X93614425Y-154889361D01*
X93378421Y-154734449D01*
X93116730Y-154628556D01*
X93101283Y-154625755D01*
X93859740Y-153867298D01*
X101394360Y-153867298D01*
X101394360Y-154644090D01*
X101553110Y-154802840D01*
X102702360Y-154802840D01*
X102702360Y-153453590D01*
X102543610Y-153294840D01*
X101966818Y-153294840D01*
X101844137Y-153319243D01*
X101728575Y-153367110D01*
X101624571Y-153436603D01*
X101536123Y-153525051D01*
X101466630Y-153629055D01*
X101418763Y-153744617D01*
X101394360Y-153867298D01*
X93859740Y-153867298D01*
X94755020Y-152972018D01*
X94810875Y-152904020D01*
X94867422Y-152836630D01*
X94869834Y-152832242D01*
X94873014Y-152828371D01*
X94914602Y-152750809D01*
X94956977Y-152673729D01*
X94958491Y-152668956D01*
X94960859Y-152664540D01*
X94986577Y-152580420D01*
X95013187Y-152496535D01*
X95013746Y-152491553D01*
X95015209Y-152486767D01*
X95024097Y-152399271D01*
X95033908Y-152311798D01*
X95033976Y-152302006D01*
X95033995Y-152301824D01*
X95033979Y-152301654D01*
X95034001Y-152298499D01*
X95034001Y-146151501D01*
X95025412Y-146063900D01*
X95017747Y-145976287D01*
X95016350Y-145971478D01*
X95015861Y-145966493D01*
X94990430Y-145882262D01*
X94965884Y-145797774D01*
X94963579Y-145793327D01*
X94962131Y-145788531D01*
X94920841Y-145710876D01*
X94880335Y-145632732D01*
X94877207Y-145628813D01*
X94874858Y-145624396D01*
X94819283Y-145556254D01*
X94764358Y-145487451D01*
X94757485Y-145480481D01*
X94757367Y-145480337D01*
X94757234Y-145480227D01*
X94755020Y-145477982D01*
X94318914Y-145041876D01*
X94344841Y-144810739D01*
X94345000Y-144787911D01*
X94345000Y-144772089D01*
X94313862Y-144454516D01*
X94221633Y-144149039D01*
X94071826Y-143867294D01*
X93870148Y-143620012D01*
X93737148Y-143509985D01*
X93853950Y-143416074D01*
X94059061Y-143171632D01*
X94212786Y-142892006D01*
X94309271Y-142587847D01*
X94344841Y-142270739D01*
X94345000Y-142247911D01*
X94345000Y-142232089D01*
X94319993Y-141977045D01*
X95923519Y-140373520D01*
X95979372Y-140305523D01*
X96035921Y-140238131D01*
X96038335Y-140233739D01*
X96041512Y-140229872D01*
X96083080Y-140152349D01*
X96125476Y-140075230D01*
X96126990Y-140070457D01*
X96129358Y-140066041D01*
X96155067Y-139981950D01*
X96181686Y-139898036D01*
X96182245Y-139893050D01*
X96183707Y-139888269D01*
X96192591Y-139800817D01*
X96202407Y-139713299D01*
X96202475Y-139703507D01*
X96202494Y-139703325D01*
X96202478Y-139703155D01*
X96202500Y-139700000D01*
X96202500Y-132209067D01*
X96252983Y-132209067D01*
X96307324Y-132505150D01*
X96418140Y-132785040D01*
X96581210Y-133038075D01*
X96790322Y-133254617D01*
X97037512Y-133426419D01*
X97313364Y-133546935D01*
X97607371Y-133611577D01*
X97908334Y-133617881D01*
X98204789Y-133565608D01*
X98485446Y-133456748D01*
X98739613Y-133295449D01*
X98957610Y-133087854D01*
X99131132Y-132841869D01*
X99253572Y-132566866D01*
X99320265Y-132273317D01*
X99325066Y-131929486D01*
X99266595Y-131634190D01*
X99151882Y-131355874D01*
X98985295Y-131105141D01*
X98773180Y-130891540D01*
X98625745Y-130792093D01*
X98674475Y-130644080D01*
X97790000Y-129759605D01*
X96905525Y-130644080D01*
X96954330Y-130792322D01*
X96823509Y-130877928D01*
X96608432Y-131088547D01*
X96438361Y-131336930D01*
X96319773Y-131613617D01*
X96257186Y-131908067D01*
X96252983Y-132209067D01*
X96202500Y-132209067D01*
X96202500Y-129646553D01*
X96249009Y-129646553D01*
X96291603Y-129945907D01*
X96391778Y-130231199D01*
X96471739Y-130380792D01*
X96725920Y-130464475D01*
X97610395Y-129580000D01*
X97969605Y-129580000D01*
X98854080Y-130464475D01*
X99108261Y-130380792D01*
X99239158Y-130108225D01*
X99314365Y-129815358D01*
X99330991Y-129513447D01*
X99288397Y-129214093D01*
X99188222Y-128928801D01*
X99108261Y-128779208D01*
X98854080Y-128695525D01*
X97969605Y-129580000D01*
X97610395Y-129580000D01*
X96725920Y-128695525D01*
X96471739Y-128779208D01*
X96340842Y-129051775D01*
X96265635Y-129344642D01*
X96249009Y-129646553D01*
X96202500Y-129646553D01*
X96202500Y-128515920D01*
X96905525Y-128515920D01*
X97790000Y-129400395D01*
X98674475Y-128515920D01*
X98590792Y-128261739D01*
X98318225Y-128130842D01*
X98025358Y-128055635D01*
X97723447Y-128039009D01*
X97424093Y-128081603D01*
X97138801Y-128181778D01*
X96989208Y-128261739D01*
X96905525Y-128515920D01*
X96202500Y-128515920D01*
X96202500Y-125806617D01*
X99456988Y-129061105D01*
G36*
X73291928Y-145780000D02*
X73299992Y-145881121D01*
X73353106Y-146052634D01*
X73451900Y-146202559D01*
X73588550Y-146319025D01*
X73752237Y-146392810D01*
X73930000Y-146418072D01*
X75930000Y-146418072D01*
X76031121Y-146410008D01*
X76202634Y-146356894D01*
X76352559Y-146258100D01*
X76469025Y-146121450D01*
X76485370Y-146085189D01*
X76555720Y-146143387D01*
X76836412Y-146295157D01*
X77141238Y-146389517D01*
X77458586Y-146422871D01*
X77776368Y-146393951D01*
X78082482Y-146303857D01*
X78365266Y-146156021D01*
X78613950Y-145956074D01*
X78740231Y-145805579D01*
X78849852Y-145939988D01*
X79095720Y-146143387D01*
X79376412Y-146295157D01*
X79681238Y-146389517D01*
X79998586Y-146422871D01*
X80316368Y-146393951D01*
X80622482Y-146303857D01*
X80905266Y-146156021D01*
X81153950Y-145956074D01*
X81280231Y-145805579D01*
X81389852Y-145939988D01*
X81635720Y-146143387D01*
X81916412Y-146295157D01*
X82221238Y-146389517D01*
X82538586Y-146422871D01*
X82856368Y-146393951D01*
X83162482Y-146303857D01*
X83445266Y-146156021D01*
X83693950Y-145956074D01*
X83820231Y-145805579D01*
X83929852Y-145939988D01*
X84175720Y-146143387D01*
X84456412Y-146295157D01*
X84761238Y-146389517D01*
X85078586Y-146422871D01*
X85396368Y-146393951D01*
X85702482Y-146303857D01*
X85985266Y-146156021D01*
X86233950Y-145956074D01*
X86360231Y-145805579D01*
X86469852Y-145939988D01*
X86715720Y-146143387D01*
X86996412Y-146295157D01*
X87301238Y-146389517D01*
X87618586Y-146422871D01*
X87936368Y-146393951D01*
X88242482Y-146303857D01*
X88525266Y-146156021D01*
X88773950Y-145956074D01*
X88900231Y-145805579D01*
X89009852Y-145939988D01*
X89255720Y-146143387D01*
X89536412Y-146295157D01*
X89841238Y-146389517D01*
X90158586Y-146422871D01*
X90476368Y-146393951D01*
X90782482Y-146303857D01*
X91065266Y-146156021D01*
X91313950Y-145956074D01*
X91440231Y-145805579D01*
X91549852Y-145939988D01*
X91795720Y-146143387D01*
X92076412Y-146295157D01*
X92381238Y-146389517D01*
X92698586Y-146422871D01*
X92980204Y-146397242D01*
X93129001Y-146546039D01*
X93129001Y-147016781D01*
X92998547Y-146976399D01*
X92720018Y-146947124D01*
X92441108Y-146972507D01*
X92172440Y-147051580D01*
X91924247Y-147181332D01*
X91705983Y-147356821D01*
X91525962Y-147571361D01*
X91439772Y-147728141D01*
X91365242Y-147587972D01*
X91188234Y-147370939D01*
X90972442Y-147192420D01*
X90726085Y-147059215D01*
X90458547Y-146976399D01*
X90180018Y-146947124D01*
X89901108Y-146972507D01*
X89632440Y-147051580D01*
X89384247Y-147181332D01*
X89165983Y-147356821D01*
X88985962Y-147571361D01*
X88899772Y-147728141D01*
X88825242Y-147587972D01*
X88648234Y-147370939D01*
X88432442Y-147192420D01*
X88186085Y-147059215D01*
X87918547Y-146976399D01*
X87640018Y-146947124D01*
X87361108Y-146972507D01*
X87092440Y-147051580D01*
X86844247Y-147181332D01*
X86625983Y-147356821D01*
X86445962Y-147571361D01*
X86359772Y-147728141D01*
X86285242Y-147587972D01*
X86108234Y-147370939D01*
X85892442Y-147192420D01*
X85646085Y-147059215D01*
X85378547Y-146976399D01*
X85100018Y-146947124D01*
X84821108Y-146972507D01*
X84552440Y-147051580D01*
X84304247Y-147181332D01*
X84085983Y-147356821D01*
X83905962Y-147571361D01*
X83819772Y-147728141D01*
X83745242Y-147587972D01*
X83568234Y-147370939D01*
X83352442Y-147192420D01*
X83106085Y-147059215D01*
X82838547Y-146976399D01*
X82560018Y-146947124D01*
X82281108Y-146972507D01*
X82012440Y-147051580D01*
X81764247Y-147181332D01*
X81545983Y-147356821D01*
X81365962Y-147571361D01*
X81279772Y-147728141D01*
X81205242Y-147587972D01*
X81028234Y-147370939D01*
X80812442Y-147192420D01*
X80566085Y-147059215D01*
X80298547Y-146976399D01*
X80020018Y-146947124D01*
X79741108Y-146972507D01*
X79472440Y-147051580D01*
X79224247Y-147181332D01*
X79005983Y-147356821D01*
X78825962Y-147571361D01*
X78739772Y-147728141D01*
X78665242Y-147587972D01*
X78488234Y-147370939D01*
X78272442Y-147192420D01*
X78026085Y-147059215D01*
X77758547Y-146976399D01*
X77480018Y-146947124D01*
X77201108Y-146972507D01*
X76932440Y-147051580D01*
X76684247Y-147181332D01*
X76465983Y-147356821D01*
X76285962Y-147571361D01*
X76199772Y-147728141D01*
X76125242Y-147587972D01*
X75948234Y-147370939D01*
X75732442Y-147192420D01*
X75486085Y-147059215D01*
X75218547Y-146976399D01*
X74940018Y-146947124D01*
X74661108Y-146972507D01*
X74392440Y-147051580D01*
X74144247Y-147181332D01*
X73925983Y-147356821D01*
X73745962Y-147571361D01*
X73611041Y-147816782D01*
X73526358Y-148083736D01*
X73495140Y-148362053D01*
X73495000Y-148382089D01*
X73495000Y-148797911D01*
X73522329Y-149076637D01*
X73603276Y-149344747D01*
X73734758Y-149592028D01*
X73911766Y-149809061D01*
X74127558Y-149987580D01*
X74373915Y-150120785D01*
X74641453Y-150203601D01*
X74919982Y-150232876D01*
X75198892Y-150207493D01*
X75467560Y-150128420D01*
X75715753Y-149998668D01*
X75934017Y-149823179D01*
X76114038Y-149608639D01*
X76200228Y-149451859D01*
X76274758Y-149592028D01*
X76451766Y-149809061D01*
X76667558Y-149987580D01*
X76913915Y-150120785D01*
X77181453Y-150203601D01*
X77459982Y-150232876D01*
X77738892Y-150207493D01*
X78007560Y-150128420D01*
X78255753Y-149998668D01*
X78474017Y-149823179D01*
X78654038Y-149608639D01*
X78740228Y-149451859D01*
X78814758Y-149592028D01*
X78991766Y-149809061D01*
X79207558Y-149987580D01*
X79453915Y-150120785D01*
X79721453Y-150203601D01*
X79999982Y-150232876D01*
X80278892Y-150207493D01*
X80547560Y-150128420D01*
X80795753Y-149998668D01*
X81014017Y-149823179D01*
X81194038Y-149608639D01*
X81280228Y-149451859D01*
X81354758Y-149592028D01*
X81531766Y-149809061D01*
X81747558Y-149987580D01*
X81993915Y-150120785D01*
X82261453Y-150203601D01*
X82539982Y-150232876D01*
X82818892Y-150207493D01*
X83087560Y-150128420D01*
X83335753Y-149998668D01*
X83554017Y-149823179D01*
X83734038Y-149608639D01*
X83820228Y-149451859D01*
X83894758Y-149592028D01*
X84071766Y-149809061D01*
X84287558Y-149987580D01*
X84533915Y-150120785D01*
X84801453Y-150203601D01*
X85079982Y-150232876D01*
X85358892Y-150207493D01*
X85627560Y-150128420D01*
X85875753Y-149998668D01*
X86094017Y-149823179D01*
X86274038Y-149608639D01*
X86360228Y-149451859D01*
X86434758Y-149592028D01*
X86611766Y-149809061D01*
X86827558Y-149987580D01*
X87073915Y-150120785D01*
X87341453Y-150203601D01*
X87619982Y-150232876D01*
X87898892Y-150207493D01*
X88167560Y-150128420D01*
X88415753Y-149998668D01*
X88634017Y-149823179D01*
X88814038Y-149608639D01*
X88900228Y-149451859D01*
X88974758Y-149592028D01*
X89151766Y-149809061D01*
X89367558Y-149987580D01*
X89613915Y-150120785D01*
X89881453Y-150203601D01*
X90159982Y-150232876D01*
X90438892Y-150207493D01*
X90707560Y-150128420D01*
X90955753Y-149998668D01*
X91174017Y-149823179D01*
X91354038Y-149608639D01*
X91440228Y-149451859D01*
X91514758Y-149592028D01*
X91691766Y-149809061D01*
X91907558Y-149987580D01*
X92153915Y-150120785D01*
X92421453Y-150203601D01*
X92699982Y-150232876D01*
X92978892Y-150207493D01*
X93129001Y-150163314D01*
X93129001Y-151903961D01*
X90438654Y-154594308D01*
X90180018Y-154567124D01*
X89901108Y-154592507D01*
X89632440Y-154671580D01*
X89384247Y-154801332D01*
X89165983Y-154976821D01*
X88985962Y-155191361D01*
X88899772Y-155348141D01*
X88825242Y-155207972D01*
X88648234Y-154990939D01*
X88432442Y-154812420D01*
X88186085Y-154679215D01*
X87918547Y-154596399D01*
X87640018Y-154567124D01*
X87361108Y-154592507D01*
X87092440Y-154671580D01*
X86844247Y-154801332D01*
X86625983Y-154976821D01*
X86445962Y-155191361D01*
X86359772Y-155348141D01*
X86285242Y-155207972D01*
X86108234Y-154990939D01*
X85892442Y-154812420D01*
X85646085Y-154679215D01*
X85378547Y-154596399D01*
X85100018Y-154567124D01*
X84821108Y-154592507D01*
X84552440Y-154671580D01*
X84304247Y-154801332D01*
X84085983Y-154976821D01*
X83905962Y-155191361D01*
X83819772Y-155348141D01*
X83745242Y-155207972D01*
X83568234Y-154990939D01*
X83352442Y-154812420D01*
X83106085Y-154679215D01*
X82838547Y-154596399D01*
X82560018Y-154567124D01*
X82281108Y-154592507D01*
X82012440Y-154671580D01*
X81764247Y-154801332D01*
X81545983Y-154976821D01*
X81365962Y-155191361D01*
X81279772Y-155348141D01*
X81205242Y-155207972D01*
X81028234Y-154990939D01*
X80812442Y-154812420D01*
X80566085Y-154679215D01*
X80298547Y-154596399D01*
X80020018Y-154567124D01*
X79741108Y-154592507D01*
X79472440Y-154671580D01*
X79224247Y-154801332D01*
X79005983Y-154976821D01*
X78825962Y-155191361D01*
X78739772Y-155348141D01*
X78665242Y-155207972D01*
X78488234Y-154990939D01*
X78272442Y-154812420D01*
X78026085Y-154679215D01*
X77758547Y-154596399D01*
X77480018Y-154567124D01*
X77201108Y-154592507D01*
X76932440Y-154671580D01*
X76684247Y-154801332D01*
X76465983Y-154976821D01*
X76358705Y-155104670D01*
X76306894Y-154937366D01*
X76208100Y-154787441D01*
X76071450Y-154670975D01*
X75907763Y-154597190D01*
X75730000Y-154571928D01*
X74130000Y-154571928D01*
X74028879Y-154579992D01*
X73857366Y-154633106D01*
X73707441Y-154731900D01*
X73590975Y-154868550D01*
X73517190Y-155032237D01*
X73491928Y-155210000D01*
X73491928Y-157210000D01*
X73499992Y-157311121D01*
X73553106Y-157482634D01*
X73651900Y-157632559D01*
X73788550Y-157749025D01*
X73921527Y-157808967D01*
X70891005Y-157808967D01*
X70421511Y-157339473D01*
X70421511Y-152457391D01*
X70591775Y-152539158D01*
X70884642Y-152614365D01*
X71186553Y-152630991D01*
X71485907Y-152588397D01*
X71771199Y-152488222D01*
X71920792Y-152408261D01*
X72004475Y-152154080D01*
X71120000Y-151269605D01*
X71105858Y-151283748D01*
X70926253Y-151104143D01*
X70940395Y-151090000D01*
X71299605Y-151090000D01*
X72184080Y-151974475D01*
X72438261Y-151890792D01*
X72569158Y-151618225D01*
X72644365Y-151325358D01*
X72660991Y-151023447D01*
X72618397Y-150724093D01*
X72518222Y-150438801D01*
X72438261Y-150289208D01*
X72184080Y-150205525D01*
X71299605Y-151090000D01*
X70940395Y-151090000D01*
X70926253Y-151075858D01*
X71105858Y-150896253D01*
X71120000Y-150910395D01*
X72004475Y-150025920D01*
X71955692Y-149877745D01*
X72069613Y-149805449D01*
X72287610Y-149597854D01*
X72461132Y-149351869D01*
X72583572Y-149076866D01*
X72650265Y-148783317D01*
X72655066Y-148439486D01*
X72596595Y-148144190D01*
X72481882Y-147865874D01*
X72315295Y-147615141D01*
X72103180Y-147401540D01*
X71853616Y-147233206D01*
X71707451Y-147171764D01*
X73291928Y-145587287D01*
X73291928Y-145780000D01*
X73291928Y-145780000D01*
G37*
X73291928Y-145780000D02*
X73299992Y-145881121D01*
X73353106Y-146052634D01*
X73451900Y-146202559D01*
X73588550Y-146319025D01*
X73752237Y-146392810D01*
X73930000Y-146418072D01*
X75930000Y-146418072D01*
X76031121Y-146410008D01*
X76202634Y-146356894D01*
X76352559Y-146258100D01*
X76469025Y-146121450D01*
X76485370Y-146085189D01*
X76555720Y-146143387D01*
X76836412Y-146295157D01*
X77141238Y-146389517D01*
X77458586Y-146422871D01*
X77776368Y-146393951D01*
X78082482Y-146303857D01*
X78365266Y-146156021D01*
X78613950Y-145956074D01*
X78740231Y-145805579D01*
X78849852Y-145939988D01*
X79095720Y-146143387D01*
X79376412Y-146295157D01*
X79681238Y-146389517D01*
X79998586Y-146422871D01*
X80316368Y-146393951D01*
X80622482Y-146303857D01*
X80905266Y-146156021D01*
X81153950Y-145956074D01*
X81280231Y-145805579D01*
X81389852Y-145939988D01*
X81635720Y-146143387D01*
X81916412Y-146295157D01*
X82221238Y-146389517D01*
X82538586Y-146422871D01*
X82856368Y-146393951D01*
X83162482Y-146303857D01*
X83445266Y-146156021D01*
X83693950Y-145956074D01*
X83820231Y-145805579D01*
X83929852Y-145939988D01*
X84175720Y-146143387D01*
X84456412Y-146295157D01*
X84761238Y-146389517D01*
X85078586Y-146422871D01*
X85396368Y-146393951D01*
X85702482Y-146303857D01*
X85985266Y-146156021D01*
X86233950Y-145956074D01*
X86360231Y-145805579D01*
X86469852Y-145939988D01*
X86715720Y-146143387D01*
X86996412Y-146295157D01*
X87301238Y-146389517D01*
X87618586Y-146422871D01*
X87936368Y-146393951D01*
X88242482Y-146303857D01*
X88525266Y-146156021D01*
X88773950Y-145956074D01*
X88900231Y-145805579D01*
X89009852Y-145939988D01*
X89255720Y-146143387D01*
X89536412Y-146295157D01*
X89841238Y-146389517D01*
X90158586Y-146422871D01*
X90476368Y-146393951D01*
X90782482Y-146303857D01*
X91065266Y-146156021D01*
X91313950Y-145956074D01*
X91440231Y-145805579D01*
X91549852Y-145939988D01*
X91795720Y-146143387D01*
X92076412Y-146295157D01*
X92381238Y-146389517D01*
X92698586Y-146422871D01*
X92980204Y-146397242D01*
X93129001Y-146546039D01*
X93129001Y-147016781D01*
X92998547Y-146976399D01*
X92720018Y-146947124D01*
X92441108Y-146972507D01*
X92172440Y-147051580D01*
X91924247Y-147181332D01*
X91705983Y-147356821D01*
X91525962Y-147571361D01*
X91439772Y-147728141D01*
X91365242Y-147587972D01*
X91188234Y-147370939D01*
X90972442Y-147192420D01*
X90726085Y-147059215D01*
X90458547Y-146976399D01*
X90180018Y-146947124D01*
X89901108Y-146972507D01*
X89632440Y-147051580D01*
X89384247Y-147181332D01*
X89165983Y-147356821D01*
X88985962Y-147571361D01*
X88899772Y-147728141D01*
X88825242Y-147587972D01*
X88648234Y-147370939D01*
X88432442Y-147192420D01*
X88186085Y-147059215D01*
X87918547Y-146976399D01*
X87640018Y-146947124D01*
X87361108Y-146972507D01*
X87092440Y-147051580D01*
X86844247Y-147181332D01*
X86625983Y-147356821D01*
X86445962Y-147571361D01*
X86359772Y-147728141D01*
X86285242Y-147587972D01*
X86108234Y-147370939D01*
X85892442Y-147192420D01*
X85646085Y-147059215D01*
X85378547Y-146976399D01*
X85100018Y-146947124D01*
X84821108Y-146972507D01*
X84552440Y-147051580D01*
X84304247Y-147181332D01*
X84085983Y-147356821D01*
X83905962Y-147571361D01*
X83819772Y-147728141D01*
X83745242Y-147587972D01*
X83568234Y-147370939D01*
X83352442Y-147192420D01*
X83106085Y-147059215D01*
X82838547Y-146976399D01*
X82560018Y-146947124D01*
X82281108Y-146972507D01*
X82012440Y-147051580D01*
X81764247Y-147181332D01*
X81545983Y-147356821D01*
X81365962Y-147571361D01*
X81279772Y-147728141D01*
X81205242Y-147587972D01*
X81028234Y-147370939D01*
X80812442Y-147192420D01*
X80566085Y-147059215D01*
X80298547Y-146976399D01*
X80020018Y-146947124D01*
X79741108Y-146972507D01*
X79472440Y-147051580D01*
X79224247Y-147181332D01*
X79005983Y-147356821D01*
X78825962Y-147571361D01*
X78739772Y-147728141D01*
X78665242Y-147587972D01*
X78488234Y-147370939D01*
X78272442Y-147192420D01*
X78026085Y-147059215D01*
X77758547Y-146976399D01*
X77480018Y-146947124D01*
X77201108Y-146972507D01*
X76932440Y-147051580D01*
X76684247Y-147181332D01*
X76465983Y-147356821D01*
X76285962Y-147571361D01*
X76199772Y-147728141D01*
X76125242Y-147587972D01*
X75948234Y-147370939D01*
X75732442Y-147192420D01*
X75486085Y-147059215D01*
X75218547Y-146976399D01*
X74940018Y-146947124D01*
X74661108Y-146972507D01*
X74392440Y-147051580D01*
X74144247Y-147181332D01*
X73925983Y-147356821D01*
X73745962Y-147571361D01*
X73611041Y-147816782D01*
X73526358Y-148083736D01*
X73495140Y-148362053D01*
X73495000Y-148382089D01*
X73495000Y-148797911D01*
X73522329Y-149076637D01*
X73603276Y-149344747D01*
X73734758Y-149592028D01*
X73911766Y-149809061D01*
X74127558Y-149987580D01*
X74373915Y-150120785D01*
X74641453Y-150203601D01*
X74919982Y-150232876D01*
X75198892Y-150207493D01*
X75467560Y-150128420D01*
X75715753Y-149998668D01*
X75934017Y-149823179D01*
X76114038Y-149608639D01*
X76200228Y-149451859D01*
X76274758Y-149592028D01*
X76451766Y-149809061D01*
X76667558Y-149987580D01*
X76913915Y-150120785D01*
X77181453Y-150203601D01*
X77459982Y-150232876D01*
X77738892Y-150207493D01*
X78007560Y-150128420D01*
X78255753Y-149998668D01*
X78474017Y-149823179D01*
X78654038Y-149608639D01*
X78740228Y-149451859D01*
X78814758Y-149592028D01*
X78991766Y-149809061D01*
X79207558Y-149987580D01*
X79453915Y-150120785D01*
X79721453Y-150203601D01*
X79999982Y-150232876D01*
X80278892Y-150207493D01*
X80547560Y-150128420D01*
X80795753Y-149998668D01*
X81014017Y-149823179D01*
X81194038Y-149608639D01*
X81280228Y-149451859D01*
X81354758Y-149592028D01*
X81531766Y-149809061D01*
X81747558Y-149987580D01*
X81993915Y-150120785D01*
X82261453Y-150203601D01*
X82539982Y-150232876D01*
X82818892Y-150207493D01*
X83087560Y-150128420D01*
X83335753Y-149998668D01*
X83554017Y-149823179D01*
X83734038Y-149608639D01*
X83820228Y-149451859D01*
X83894758Y-149592028D01*
X84071766Y-149809061D01*
X84287558Y-149987580D01*
X84533915Y-150120785D01*
X84801453Y-150203601D01*
X85079982Y-150232876D01*
X85358892Y-150207493D01*
X85627560Y-150128420D01*
X85875753Y-149998668D01*
X86094017Y-149823179D01*
X86274038Y-149608639D01*
X86360228Y-149451859D01*
X86434758Y-149592028D01*
X86611766Y-149809061D01*
X86827558Y-149987580D01*
X87073915Y-150120785D01*
X87341453Y-150203601D01*
X87619982Y-150232876D01*
X87898892Y-150207493D01*
X88167560Y-150128420D01*
X88415753Y-149998668D01*
X88634017Y-149823179D01*
X88814038Y-149608639D01*
X88900228Y-149451859D01*
X88974758Y-149592028D01*
X89151766Y-149809061D01*
X89367558Y-149987580D01*
X89613915Y-150120785D01*
X89881453Y-150203601D01*
X90159982Y-150232876D01*
X90438892Y-150207493D01*
X90707560Y-150128420D01*
X90955753Y-149998668D01*
X91174017Y-149823179D01*
X91354038Y-149608639D01*
X91440228Y-149451859D01*
X91514758Y-149592028D01*
X91691766Y-149809061D01*
X91907558Y-149987580D01*
X92153915Y-150120785D01*
X92421453Y-150203601D01*
X92699982Y-150232876D01*
X92978892Y-150207493D01*
X93129001Y-150163314D01*
X93129001Y-151903961D01*
X90438654Y-154594308D01*
X90180018Y-154567124D01*
X89901108Y-154592507D01*
X89632440Y-154671580D01*
X89384247Y-154801332D01*
X89165983Y-154976821D01*
X88985962Y-155191361D01*
X88899772Y-155348141D01*
X88825242Y-155207972D01*
X88648234Y-154990939D01*
X88432442Y-154812420D01*
X88186085Y-154679215D01*
X87918547Y-154596399D01*
X87640018Y-154567124D01*
X87361108Y-154592507D01*
X87092440Y-154671580D01*
X86844247Y-154801332D01*
X86625983Y-154976821D01*
X86445962Y-155191361D01*
X86359772Y-155348141D01*
X86285242Y-155207972D01*
X86108234Y-154990939D01*
X85892442Y-154812420D01*
X85646085Y-154679215D01*
X85378547Y-154596399D01*
X85100018Y-154567124D01*
X84821108Y-154592507D01*
X84552440Y-154671580D01*
X84304247Y-154801332D01*
X84085983Y-154976821D01*
X83905962Y-155191361D01*
X83819772Y-155348141D01*
X83745242Y-155207972D01*
X83568234Y-154990939D01*
X83352442Y-154812420D01*
X83106085Y-154679215D01*
X82838547Y-154596399D01*
X82560018Y-154567124D01*
X82281108Y-154592507D01*
X82012440Y-154671580D01*
X81764247Y-154801332D01*
X81545983Y-154976821D01*
X81365962Y-155191361D01*
X81279772Y-155348141D01*
X81205242Y-155207972D01*
X81028234Y-154990939D01*
X80812442Y-154812420D01*
X80566085Y-154679215D01*
X80298547Y-154596399D01*
X80020018Y-154567124D01*
X79741108Y-154592507D01*
X79472440Y-154671580D01*
X79224247Y-154801332D01*
X79005983Y-154976821D01*
X78825962Y-155191361D01*
X78739772Y-155348141D01*
X78665242Y-155207972D01*
X78488234Y-154990939D01*
X78272442Y-154812420D01*
X78026085Y-154679215D01*
X77758547Y-154596399D01*
X77480018Y-154567124D01*
X77201108Y-154592507D01*
X76932440Y-154671580D01*
X76684247Y-154801332D01*
X76465983Y-154976821D01*
X76358705Y-155104670D01*
X76306894Y-154937366D01*
X76208100Y-154787441D01*
X76071450Y-154670975D01*
X75907763Y-154597190D01*
X75730000Y-154571928D01*
X74130000Y-154571928D01*
X74028879Y-154579992D01*
X73857366Y-154633106D01*
X73707441Y-154731900D01*
X73590975Y-154868550D01*
X73517190Y-155032237D01*
X73491928Y-155210000D01*
X73491928Y-157210000D01*
X73499992Y-157311121D01*
X73553106Y-157482634D01*
X73651900Y-157632559D01*
X73788550Y-157749025D01*
X73921527Y-157808967D01*
X70891005Y-157808967D01*
X70421511Y-157339473D01*
X70421511Y-152457391D01*
X70591775Y-152539158D01*
X70884642Y-152614365D01*
X71186553Y-152630991D01*
X71485907Y-152588397D01*
X71771199Y-152488222D01*
X71920792Y-152408261D01*
X72004475Y-152154080D01*
X71120000Y-151269605D01*
X71105858Y-151283748D01*
X70926253Y-151104143D01*
X70940395Y-151090000D01*
X71299605Y-151090000D01*
X72184080Y-151974475D01*
X72438261Y-151890792D01*
X72569158Y-151618225D01*
X72644365Y-151325358D01*
X72660991Y-151023447D01*
X72618397Y-150724093D01*
X72518222Y-150438801D01*
X72438261Y-150289208D01*
X72184080Y-150205525D01*
X71299605Y-151090000D01*
X70940395Y-151090000D01*
X70926253Y-151075858D01*
X71105858Y-150896253D01*
X71120000Y-150910395D01*
X72004475Y-150025920D01*
X71955692Y-149877745D01*
X72069613Y-149805449D01*
X72287610Y-149597854D01*
X72461132Y-149351869D01*
X72583572Y-149076866D01*
X72650265Y-148783317D01*
X72655066Y-148439486D01*
X72596595Y-148144190D01*
X72481882Y-147865874D01*
X72315295Y-147615141D01*
X72103180Y-147401540D01*
X71853616Y-147233206D01*
X71707451Y-147171764D01*
X73291928Y-145587287D01*
X73291928Y-145780000D01*
G36*
X77201108Y-115222507D02*
X76932440Y-115301580D01*
X76684247Y-115431332D01*
X76465983Y-115606821D01*
X76285962Y-115821361D01*
X76151041Y-116066782D01*
X76066358Y-116333736D01*
X76035140Y-116612053D01*
X76035000Y-116632089D01*
X76035000Y-117047911D01*
X76062329Y-117326637D01*
X76143276Y-117594747D01*
X76274758Y-117842028D01*
X76451766Y-118059061D01*
X76667558Y-118237580D01*
X76913915Y-118370785D01*
X77181453Y-118453601D01*
X77459982Y-118482876D01*
X77738892Y-118457493D01*
X78007560Y-118378420D01*
X78255753Y-118248668D01*
X78474017Y-118073179D01*
X78654038Y-117858639D01*
X78736695Y-117708287D01*
X78745570Y-117729227D01*
X78904327Y-117962662D01*
X79105575Y-118160639D01*
X79341579Y-118315551D01*
X79603270Y-118421444D01*
X79660961Y-118431904D01*
X79883000Y-118309915D01*
X79883000Y-116967000D01*
X80137000Y-116967000D01*
X80137000Y-118309915D01*
X80359039Y-118431904D01*
X80416730Y-118421444D01*
X80678421Y-118315551D01*
X80914425Y-118160639D01*
X81115673Y-117962662D01*
X81274430Y-117729227D01*
X81280000Y-117716085D01*
X81285570Y-117729227D01*
X81444327Y-117962662D01*
X81645575Y-118160639D01*
X81881579Y-118315551D01*
X82143270Y-118421444D01*
X82200961Y-118431904D01*
X82423000Y-118309915D01*
X82423000Y-116967000D01*
X80137000Y-116967000D01*
X79883000Y-116967000D01*
X79863000Y-116967000D01*
X79863000Y-116713000D01*
X79883000Y-116713000D01*
X79883000Y-116693000D01*
X80137000Y-116693000D01*
X80137000Y-116713000D01*
X82423000Y-116713000D01*
X82423000Y-116693000D01*
X82677000Y-116693000D01*
X82677000Y-116713000D01*
X82697000Y-116713000D01*
X82697000Y-116967000D01*
X82677000Y-116967000D01*
X82677000Y-118309915D01*
X82899039Y-118431904D01*
X82956730Y-118421444D01*
X83218421Y-118315551D01*
X83454425Y-118160639D01*
X83655673Y-117962662D01*
X83814430Y-117729227D01*
X83823457Y-117707930D01*
X83894758Y-117842028D01*
X84071766Y-118059061D01*
X84287558Y-118237580D01*
X84533915Y-118370785D01*
X84801453Y-118453601D01*
X85079982Y-118482876D01*
X85358892Y-118457493D01*
X85627560Y-118378420D01*
X85875753Y-118248668D01*
X86094017Y-118073179D01*
X86274038Y-117858639D01*
X86360228Y-117701859D01*
X86434758Y-117842028D01*
X86611766Y-118059061D01*
X86827558Y-118237580D01*
X87073915Y-118370785D01*
X87341453Y-118453601D01*
X87619982Y-118482876D01*
X87898892Y-118457493D01*
X88167560Y-118378420D01*
X88415753Y-118248668D01*
X88634017Y-118073179D01*
X88814038Y-117858639D01*
X88900228Y-117701859D01*
X88974758Y-117842028D01*
X89151766Y-118059061D01*
X89367558Y-118237580D01*
X89613915Y-118370785D01*
X89881453Y-118453601D01*
X89942902Y-118460060D01*
X89340462Y-119062500D01*
X77702822Y-119062500D01*
X77615221Y-119071089D01*
X77527608Y-119078754D01*
X77522799Y-119080151D01*
X77517814Y-119080640D01*
X77433583Y-119106071D01*
X77349095Y-119130617D01*
X77344648Y-119132922D01*
X77339852Y-119134370D01*
X77262197Y-119175660D01*
X77184053Y-119216166D01*
X77180134Y-119219294D01*
X77175717Y-119221643D01*
X77107575Y-119277218D01*
X77038772Y-119332143D01*
X77031802Y-119339016D01*
X77031658Y-119339134D01*
X77031548Y-119339267D01*
X77029303Y-119341481D01*
X75079990Y-121290794D01*
X75058222Y-121228801D01*
X74978261Y-121079208D01*
X74724080Y-120995525D01*
X73839605Y-121880000D01*
X73853748Y-121894143D01*
X73674143Y-122073748D01*
X73660000Y-122059605D01*
X72775525Y-122944080D01*
X72859208Y-123198261D01*
X73070873Y-123299911D01*
X62191481Y-134179303D01*
X62135626Y-134247301D01*
X62079079Y-134314691D01*
X62076667Y-134319079D01*
X62073487Y-134322950D01*
X62031899Y-134400512D01*
X61989524Y-134477592D01*
X61988010Y-134482365D01*
X61985642Y-134486781D01*
X61959920Y-134570913D01*
X61933314Y-134654786D01*
X61932755Y-134659767D01*
X61931292Y-134664553D01*
X61922404Y-134752055D01*
X61912593Y-134839523D01*
X61912525Y-134849315D01*
X61912506Y-134849497D01*
X61912522Y-134849667D01*
X61912500Y-134852822D01*
X61912500Y-136791928D01*
X61865000Y-136791928D01*
X61763879Y-136799992D01*
X61592366Y-136853106D01*
X61442441Y-136951900D01*
X61325975Y-137088550D01*
X61252190Y-137252237D01*
X61226928Y-137430000D01*
X61226928Y-139430000D01*
X61234992Y-139531121D01*
X61288106Y-139702634D01*
X61386900Y-139852559D01*
X61523550Y-139969025D01*
X61559811Y-139985370D01*
X61501613Y-140055720D01*
X61349843Y-140336412D01*
X61255483Y-140641238D01*
X61222129Y-140958586D01*
X61251049Y-141276368D01*
X61341143Y-141582482D01*
X61488979Y-141865266D01*
X61688926Y-142113950D01*
X61839421Y-142240231D01*
X61705012Y-142349852D01*
X61501613Y-142595720D01*
X61349843Y-142876412D01*
X61255483Y-143181238D01*
X61222129Y-143498586D01*
X61251049Y-143816368D01*
X61341143Y-144122482D01*
X61488979Y-144405266D01*
X61688926Y-144653950D01*
X61933368Y-144859061D01*
X62212994Y-145012786D01*
X62517153Y-145109271D01*
X62834261Y-145144841D01*
X62857089Y-145145000D01*
X62872911Y-145145000D01*
X63078079Y-145124883D01*
X61210000Y-146992962D01*
X61210000Y-129794092D01*
X69057539Y-121946553D01*
X72119009Y-121946553D01*
X72161603Y-122245907D01*
X72261778Y-122531199D01*
X72341739Y-122680792D01*
X72595920Y-122764475D01*
X73480395Y-121880000D01*
X72595920Y-120995525D01*
X72341739Y-121079208D01*
X72210842Y-121351775D01*
X72135635Y-121644642D01*
X72119009Y-121946553D01*
X69057539Y-121946553D01*
X72264255Y-118739837D01*
X72189773Y-118913617D01*
X72127186Y-119208067D01*
X72122983Y-119509067D01*
X72177324Y-119805150D01*
X72288140Y-120085040D01*
X72451210Y-120338075D01*
X72660322Y-120554617D01*
X72824082Y-120668433D01*
X72775525Y-120815920D01*
X73660000Y-121700395D01*
X74544475Y-120815920D01*
X74495692Y-120667745D01*
X74609613Y-120595449D01*
X74827610Y-120387854D01*
X75001132Y-120141869D01*
X75123572Y-119866866D01*
X75190265Y-119573317D01*
X75195066Y-119229486D01*
X75136595Y-118934190D01*
X75021882Y-118655874D01*
X74855295Y-118405141D01*
X74643180Y-118191540D01*
X74393616Y-118023206D01*
X74116108Y-117906553D01*
X73821228Y-117846023D01*
X73520206Y-117843921D01*
X73224509Y-117900328D01*
X73021907Y-117982185D01*
X75794092Y-115210000D01*
X77338536Y-115210000D01*
X77201108Y-115222507D01*
X77201108Y-115222507D01*
G37*
X77201108Y-115222507D02*
X76932440Y-115301580D01*
X76684247Y-115431332D01*
X76465983Y-115606821D01*
X76285962Y-115821361D01*
X76151041Y-116066782D01*
X76066358Y-116333736D01*
X76035140Y-116612053D01*
X76035000Y-116632089D01*
X76035000Y-117047911D01*
X76062329Y-117326637D01*
X76143276Y-117594747D01*
X76274758Y-117842028D01*
X76451766Y-118059061D01*
X76667558Y-118237580D01*
X76913915Y-118370785D01*
X77181453Y-118453601D01*
X77459982Y-118482876D01*
X77738892Y-118457493D01*
X78007560Y-118378420D01*
X78255753Y-118248668D01*
X78474017Y-118073179D01*
X78654038Y-117858639D01*
X78736695Y-117708287D01*
X78745570Y-117729227D01*
X78904327Y-117962662D01*
X79105575Y-118160639D01*
X79341579Y-118315551D01*
X79603270Y-118421444D01*
X79660961Y-118431904D01*
X79883000Y-118309915D01*
X79883000Y-116967000D01*
X80137000Y-116967000D01*
X80137000Y-118309915D01*
X80359039Y-118431904D01*
X80416730Y-118421444D01*
X80678421Y-118315551D01*
X80914425Y-118160639D01*
X81115673Y-117962662D01*
X81274430Y-117729227D01*
X81280000Y-117716085D01*
X81285570Y-117729227D01*
X81444327Y-117962662D01*
X81645575Y-118160639D01*
X81881579Y-118315551D01*
X82143270Y-118421444D01*
X82200961Y-118431904D01*
X82423000Y-118309915D01*
X82423000Y-116967000D01*
X80137000Y-116967000D01*
X79883000Y-116967000D01*
X79863000Y-116967000D01*
X79863000Y-116713000D01*
X79883000Y-116713000D01*
X79883000Y-116693000D01*
X80137000Y-116693000D01*
X80137000Y-116713000D01*
X82423000Y-116713000D01*
X82423000Y-116693000D01*
X82677000Y-116693000D01*
X82677000Y-116713000D01*
X82697000Y-116713000D01*
X82697000Y-116967000D01*
X82677000Y-116967000D01*
X82677000Y-118309915D01*
X82899039Y-118431904D01*
X82956730Y-118421444D01*
X83218421Y-118315551D01*
X83454425Y-118160639D01*
X83655673Y-117962662D01*
X83814430Y-117729227D01*
X83823457Y-117707930D01*
X83894758Y-117842028D01*
X84071766Y-118059061D01*
X84287558Y-118237580D01*
X84533915Y-118370785D01*
X84801453Y-118453601D01*
X85079982Y-118482876D01*
X85358892Y-118457493D01*
X85627560Y-118378420D01*
X85875753Y-118248668D01*
X86094017Y-118073179D01*
X86274038Y-117858639D01*
X86360228Y-117701859D01*
X86434758Y-117842028D01*
X86611766Y-118059061D01*
X86827558Y-118237580D01*
X87073915Y-118370785D01*
X87341453Y-118453601D01*
X87619982Y-118482876D01*
X87898892Y-118457493D01*
X88167560Y-118378420D01*
X88415753Y-118248668D01*
X88634017Y-118073179D01*
X88814038Y-117858639D01*
X88900228Y-117701859D01*
X88974758Y-117842028D01*
X89151766Y-118059061D01*
X89367558Y-118237580D01*
X89613915Y-118370785D01*
X89881453Y-118453601D01*
X89942902Y-118460060D01*
X89340462Y-119062500D01*
X77702822Y-119062500D01*
X77615221Y-119071089D01*
X77527608Y-119078754D01*
X77522799Y-119080151D01*
X77517814Y-119080640D01*
X77433583Y-119106071D01*
X77349095Y-119130617D01*
X77344648Y-119132922D01*
X77339852Y-119134370D01*
X77262197Y-119175660D01*
X77184053Y-119216166D01*
X77180134Y-119219294D01*
X77175717Y-119221643D01*
X77107575Y-119277218D01*
X77038772Y-119332143D01*
X77031802Y-119339016D01*
X77031658Y-119339134D01*
X77031548Y-119339267D01*
X77029303Y-119341481D01*
X75079990Y-121290794D01*
X75058222Y-121228801D01*
X74978261Y-121079208D01*
X74724080Y-120995525D01*
X73839605Y-121880000D01*
X73853748Y-121894143D01*
X73674143Y-122073748D01*
X73660000Y-122059605D01*
X72775525Y-122944080D01*
X72859208Y-123198261D01*
X73070873Y-123299911D01*
X62191481Y-134179303D01*
X62135626Y-134247301D01*
X62079079Y-134314691D01*
X62076667Y-134319079D01*
X62073487Y-134322950D01*
X62031899Y-134400512D01*
X61989524Y-134477592D01*
X61988010Y-134482365D01*
X61985642Y-134486781D01*
X61959920Y-134570913D01*
X61933314Y-134654786D01*
X61932755Y-134659767D01*
X61931292Y-134664553D01*
X61922404Y-134752055D01*
X61912593Y-134839523D01*
X61912525Y-134849315D01*
X61912506Y-134849497D01*
X61912522Y-134849667D01*
X61912500Y-134852822D01*
X61912500Y-136791928D01*
X61865000Y-136791928D01*
X61763879Y-136799992D01*
X61592366Y-136853106D01*
X61442441Y-136951900D01*
X61325975Y-137088550D01*
X61252190Y-137252237D01*
X61226928Y-137430000D01*
X61226928Y-139430000D01*
X61234992Y-139531121D01*
X61288106Y-139702634D01*
X61386900Y-139852559D01*
X61523550Y-139969025D01*
X61559811Y-139985370D01*
X61501613Y-140055720D01*
X61349843Y-140336412D01*
X61255483Y-140641238D01*
X61222129Y-140958586D01*
X61251049Y-141276368D01*
X61341143Y-141582482D01*
X61488979Y-141865266D01*
X61688926Y-142113950D01*
X61839421Y-142240231D01*
X61705012Y-142349852D01*
X61501613Y-142595720D01*
X61349843Y-142876412D01*
X61255483Y-143181238D01*
X61222129Y-143498586D01*
X61251049Y-143816368D01*
X61341143Y-144122482D01*
X61488979Y-144405266D01*
X61688926Y-144653950D01*
X61933368Y-144859061D01*
X62212994Y-145012786D01*
X62517153Y-145109271D01*
X62834261Y-145144841D01*
X62857089Y-145145000D01*
X62872911Y-145145000D01*
X63078079Y-145124883D01*
X61210000Y-146992962D01*
X61210000Y-129794092D01*
X69057539Y-121946553D01*
X72119009Y-121946553D01*
X72161603Y-122245907D01*
X72261778Y-122531199D01*
X72341739Y-122680792D01*
X72595920Y-122764475D01*
X73480395Y-121880000D01*
X72595920Y-120995525D01*
X72341739Y-121079208D01*
X72210842Y-121351775D01*
X72135635Y-121644642D01*
X72119009Y-121946553D01*
X69057539Y-121946553D01*
X72264255Y-118739837D01*
X72189773Y-118913617D01*
X72127186Y-119208067D01*
X72122983Y-119509067D01*
X72177324Y-119805150D01*
X72288140Y-120085040D01*
X72451210Y-120338075D01*
X72660322Y-120554617D01*
X72824082Y-120668433D01*
X72775525Y-120815920D01*
X73660000Y-121700395D01*
X74544475Y-120815920D01*
X74495692Y-120667745D01*
X74609613Y-120595449D01*
X74827610Y-120387854D01*
X75001132Y-120141869D01*
X75123572Y-119866866D01*
X75190265Y-119573317D01*
X75195066Y-119229486D01*
X75136595Y-118934190D01*
X75021882Y-118655874D01*
X74855295Y-118405141D01*
X74643180Y-118191540D01*
X74393616Y-118023206D01*
X74116108Y-117906553D01*
X73821228Y-117846023D01*
X73520206Y-117843921D01*
X73224509Y-117900328D01*
X73021907Y-117982185D01*
X75794092Y-115210000D01*
X77338536Y-115210000D01*
X77201108Y-115222507D01*
G36*
X101331108Y-115222507D02*
X101062440Y-115301580D01*
X100814247Y-115431332D01*
X100595983Y-115606821D01*
X100415962Y-115821361D01*
X100281041Y-116066782D01*
X100196358Y-116333736D01*
X100165140Y-116612053D01*
X100165000Y-116632089D01*
X100165000Y-117047911D01*
X100192329Y-117326637D01*
X100273276Y-117594747D01*
X100404758Y-117842028D01*
X100581766Y-118059061D01*
X100797558Y-118237580D01*
X101043915Y-118370785D01*
X101311453Y-118453601D01*
X101589982Y-118482876D01*
X101868892Y-118457493D01*
X102137560Y-118378420D01*
X102385753Y-118248668D01*
X102604017Y-118073179D01*
X102784038Y-117858639D01*
X102870228Y-117701859D01*
X102944758Y-117842028D01*
X103121766Y-118059061D01*
X103337558Y-118237580D01*
X103583915Y-118370785D01*
X103851453Y-118453601D01*
X104129982Y-118482876D01*
X104408892Y-118457493D01*
X104677560Y-118378420D01*
X104925753Y-118248668D01*
X105144017Y-118073179D01*
X105324038Y-117858639D01*
X105410228Y-117701859D01*
X105484758Y-117842028D01*
X105661766Y-118059061D01*
X105877558Y-118237580D01*
X106123915Y-118370785D01*
X106391453Y-118453601D01*
X106669982Y-118482876D01*
X106767007Y-118474046D01*
X107441480Y-119148519D01*
X107509477Y-119204372D01*
X107576869Y-119260921D01*
X107581261Y-119263335D01*
X107585128Y-119266512D01*
X107662651Y-119308080D01*
X107739770Y-119350476D01*
X107744543Y-119351990D01*
X107748959Y-119354358D01*
X107833050Y-119380067D01*
X107916964Y-119406686D01*
X107921950Y-119407245D01*
X107926731Y-119408707D01*
X108014183Y-119417591D01*
X108101701Y-119427407D01*
X108111493Y-119427475D01*
X108111675Y-119427494D01*
X108111845Y-119427478D01*
X108115000Y-119427500D01*
X115405000Y-119427500D01*
X115492601Y-119418911D01*
X115580214Y-119411246D01*
X115585023Y-119409849D01*
X115590008Y-119409360D01*
X115674239Y-119383929D01*
X115758727Y-119359383D01*
X115763174Y-119357078D01*
X115767970Y-119355630D01*
X115845625Y-119314340D01*
X115923769Y-119273834D01*
X115927688Y-119270706D01*
X115932105Y-119268357D01*
X116000247Y-119212782D01*
X116069050Y-119157857D01*
X116076020Y-119150984D01*
X116076164Y-119150866D01*
X116076274Y-119150733D01*
X116078519Y-119148519D01*
X116752325Y-118474714D01*
X116829982Y-118482876D01*
X117108892Y-118457493D01*
X117377560Y-118378420D01*
X117625753Y-118248668D01*
X117844017Y-118073179D01*
X118024038Y-117858639D01*
X118158959Y-117613218D01*
X118243642Y-117346264D01*
X118274860Y-117067947D01*
X118275000Y-117047911D01*
X118275000Y-116969067D01*
X120382983Y-116969067D01*
X120437324Y-117265150D01*
X120548140Y-117545040D01*
X120711210Y-117798075D01*
X120920322Y-118014617D01*
X121167512Y-118186419D01*
X121443364Y-118306935D01*
X121737371Y-118371577D01*
X122038334Y-118377881D01*
X122334789Y-118325608D01*
X122615446Y-118216748D01*
X122869613Y-118055449D01*
X123028566Y-117904080D01*
X129925525Y-117904080D01*
X130009208Y-118158261D01*
X130281775Y-118289158D01*
X130574642Y-118364365D01*
X130876553Y-118380991D01*
X131175907Y-118338397D01*
X131461199Y-118238222D01*
X131610792Y-118158261D01*
X131694475Y-117904080D01*
X130810000Y-117019605D01*
X129925525Y-117904080D01*
X123028566Y-117904080D01*
X123087610Y-117847854D01*
X123261132Y-117601869D01*
X123383572Y-117326866D01*
X123450265Y-117033317D01*
X123452035Y-116906553D01*
X129269009Y-116906553D01*
X129311603Y-117205907D01*
X129411778Y-117491199D01*
X129491739Y-117640792D01*
X129745920Y-117724475D01*
X130630395Y-116840000D01*
X130989605Y-116840000D01*
X131874080Y-117724475D01*
X132128261Y-117640792D01*
X132259158Y-117368225D01*
X132334365Y-117075358D01*
X132340218Y-116969067D01*
X133717983Y-116969067D01*
X133772324Y-117265150D01*
X133883140Y-117545040D01*
X134046210Y-117798075D01*
X134255322Y-118014617D01*
X134502512Y-118186419D01*
X134778364Y-118306935D01*
X135072371Y-118371577D01*
X135373334Y-118377881D01*
X135669789Y-118325608D01*
X135950446Y-118216748D01*
X136204613Y-118055449D01*
X136363566Y-117904080D01*
X143260525Y-117904080D01*
X143344208Y-118158261D01*
X143616775Y-118289158D01*
X143909642Y-118364365D01*
X144211553Y-118380991D01*
X144510907Y-118338397D01*
X144796199Y-118238222D01*
X144945792Y-118158261D01*
X145029475Y-117904080D01*
X144145000Y-117019605D01*
X143260525Y-117904080D01*
X136363566Y-117904080D01*
X136422610Y-117847854D01*
X136596132Y-117601869D01*
X136718572Y-117326866D01*
X136785265Y-117033317D01*
X136787035Y-116906553D01*
X142604009Y-116906553D01*
X142646603Y-117205907D01*
X142746778Y-117491199D01*
X142826739Y-117640792D01*
X143080920Y-117724475D01*
X143965395Y-116840000D01*
X144324605Y-116840000D01*
X145209080Y-117724475D01*
X145463261Y-117640792D01*
X145594158Y-117368225D01*
X145669365Y-117075358D01*
X145685991Y-116773447D01*
X145643397Y-116474093D01*
X145543222Y-116188801D01*
X145463261Y-116039208D01*
X145209080Y-115955525D01*
X144324605Y-116840000D01*
X143965395Y-116840000D01*
X143080920Y-115955525D01*
X142826739Y-116039208D01*
X142695842Y-116311775D01*
X142620635Y-116604642D01*
X142604009Y-116906553D01*
X136787035Y-116906553D01*
X136790066Y-116689486D01*
X136731595Y-116394190D01*
X136616882Y-116115874D01*
X136450295Y-115865141D01*
X136361695Y-115775920D01*
X143260525Y-115775920D01*
X144145000Y-116660395D01*
X145029475Y-115775920D01*
X144945792Y-115521739D01*
X144673225Y-115390842D01*
X144380358Y-115315635D01*
X144078447Y-115299009D01*
X143779093Y-115341603D01*
X143493801Y-115441778D01*
X143344208Y-115521739D01*
X143260525Y-115775920D01*
X136361695Y-115775920D01*
X136238180Y-115651540D01*
X135988616Y-115483206D01*
X135711108Y-115366553D01*
X135416228Y-115306023D01*
X135115206Y-115303921D01*
X134819509Y-115360328D01*
X134540400Y-115473096D01*
X134288509Y-115637928D01*
X134073432Y-115848547D01*
X133903361Y-116096930D01*
X133784773Y-116373617D01*
X133722186Y-116668067D01*
X133717983Y-116969067D01*
X132340218Y-116969067D01*
X132350991Y-116773447D01*
X132308397Y-116474093D01*
X132208222Y-116188801D01*
X132128261Y-116039208D01*
X131874080Y-115955525D01*
X130989605Y-116840000D01*
X130630395Y-116840000D01*
X129745920Y-115955525D01*
X129491739Y-116039208D01*
X129360842Y-116311775D01*
X129285635Y-116604642D01*
X129269009Y-116906553D01*
X123452035Y-116906553D01*
X123455066Y-116689486D01*
X123396595Y-116394190D01*
X123281882Y-116115874D01*
X123115295Y-115865141D01*
X123026695Y-115775920D01*
X129925525Y-115775920D01*
X130810000Y-116660395D01*
X131694475Y-115775920D01*
X131610792Y-115521739D01*
X131338225Y-115390842D01*
X131045358Y-115315635D01*
X130743447Y-115299009D01*
X130444093Y-115341603D01*
X130158801Y-115441778D01*
X130009208Y-115521739D01*
X129925525Y-115775920D01*
X123026695Y-115775920D01*
X122903180Y-115651540D01*
X122653616Y-115483206D01*
X122376108Y-115366553D01*
X122081228Y-115306023D01*
X121780206Y-115303921D01*
X121484509Y-115360328D01*
X121205400Y-115473096D01*
X120953509Y-115637928D01*
X120738432Y-115848547D01*
X120568361Y-116096930D01*
X120449773Y-116373617D01*
X120387186Y-116668067D01*
X120382983Y-116969067D01*
X118275000Y-116969067D01*
X118275000Y-116632089D01*
X118247671Y-116353363D01*
X118166724Y-116085253D01*
X118035242Y-115837972D01*
X117858234Y-115620939D01*
X117642442Y-115442420D01*
X117396085Y-115309215D01*
X117128547Y-115226399D01*
X116972523Y-115210000D01*
X154965280Y-115210000D01*
X155929719Y-115304564D01*
X156824031Y-115574573D01*
X157648864Y-116013145D01*
X158372801Y-116603575D01*
X158968266Y-117323367D01*
X159412585Y-118145119D01*
X159481334Y-118367212D01*
X159277980Y-118281626D01*
X158179605Y-119380000D01*
X159277980Y-120478374D01*
X159562836Y-120358486D01*
X159723699Y-120034790D01*
X159774112Y-119848926D01*
X159789996Y-120000049D01*
X159790000Y-120001332D01*
X159790000Y-128346016D01*
X159681846Y-128024167D01*
X159562836Y-127801514D01*
X159277980Y-127681626D01*
X158179605Y-128780000D01*
X159277980Y-129878374D01*
X159562836Y-129758486D01*
X159723699Y-129434790D01*
X159790000Y-129190349D01*
X159790000Y-134620969D01*
X159742915Y-134595084D01*
X159466660Y-134507451D01*
X159178645Y-134475145D01*
X159157911Y-134475000D01*
X158842089Y-134475000D01*
X158553651Y-134503282D01*
X158276199Y-134587049D01*
X158020303Y-134723112D01*
X157984635Y-134752202D01*
X157953237Y-134705211D01*
X157864789Y-134616763D01*
X157760785Y-134547270D01*
X157645223Y-134499403D01*
X157522542Y-134475000D01*
X156745750Y-134475000D01*
X156587000Y-134633750D01*
X156587000Y-135833000D01*
X156607000Y-135833000D01*
X156607000Y-136087000D01*
X156587000Y-136087000D01*
X156587000Y-136107000D01*
X156333000Y-136107000D01*
X156333000Y-136087000D01*
X154983750Y-136087000D01*
X154825000Y-136245750D01*
X154825000Y-136872542D01*
X154849403Y-136995223D01*
X154897270Y-137110785D01*
X154966763Y-137214789D01*
X155055211Y-137303237D01*
X155159215Y-137372730D01*
X155274777Y-137420597D01*
X155284769Y-137422585D01*
X155255707Y-137446287D01*
X155070968Y-137669599D01*
X154933122Y-137924539D01*
X154847420Y-138201399D01*
X154817125Y-138489633D01*
X154843392Y-138778261D01*
X154868568Y-138863802D01*
X147872859Y-145859511D01*
X144867923Y-145859511D01*
X146633717Y-144093717D01*
X146682133Y-144034774D01*
X146731131Y-143976380D01*
X146733223Y-143972575D01*
X146735977Y-143969222D01*
X146772009Y-143902023D01*
X146808746Y-143835199D01*
X146810058Y-143831063D01*
X146812110Y-143827236D01*
X146834407Y-143754305D01*
X146857461Y-143681631D01*
X146857945Y-143677317D01*
X146859214Y-143673166D01*
X146866918Y-143597324D01*
X146875420Y-143521526D01*
X146875479Y-143513041D01*
X146875495Y-143512882D01*
X146875481Y-143512734D01*
X146875500Y-143510000D01*
X146875500Y-141033875D01*
X147013377Y-140923019D01*
X147193398Y-140708479D01*
X147279588Y-140551699D01*
X147354118Y-140691868D01*
X147531126Y-140908901D01*
X147746918Y-141087420D01*
X147993275Y-141220625D01*
X148260813Y-141303441D01*
X148539342Y-141332716D01*
X148818252Y-141307333D01*
X149086920Y-141228260D01*
X149335113Y-141098508D01*
X149553377Y-140923019D01*
X149733398Y-140708479D01*
X149819588Y-140551699D01*
X149894118Y-140691868D01*
X150071126Y-140908901D01*
X150286918Y-141087420D01*
X150533275Y-141220625D01*
X150800813Y-141303441D01*
X151079342Y-141332716D01*
X151358252Y-141307333D01*
X151626920Y-141228260D01*
X151875113Y-141098508D01*
X152093377Y-140923019D01*
X152273398Y-140708479D01*
X152408319Y-140463058D01*
X152493002Y-140196104D01*
X152524220Y-139917787D01*
X152524360Y-139897751D01*
X152524360Y-139481929D01*
X152497031Y-139203203D01*
X152416084Y-138935093D01*
X152284602Y-138687812D01*
X152107594Y-138470779D01*
X151891802Y-138292260D01*
X151645445Y-138159055D01*
X151377907Y-138076239D01*
X151099378Y-138046964D01*
X150820468Y-138072347D01*
X150551800Y-138151420D01*
X150303607Y-138281172D01*
X150085343Y-138456661D01*
X149905322Y-138671201D01*
X149819132Y-138827981D01*
X149744602Y-138687812D01*
X149567594Y-138470779D01*
X149351802Y-138292260D01*
X149105445Y-138159055D01*
X148837907Y-138076239D01*
X148559378Y-138046964D01*
X148462352Y-138055794D01*
X145454016Y-135047458D01*
X154825000Y-135047458D01*
X154825000Y-135674250D01*
X154983750Y-135833000D01*
X156333000Y-135833000D01*
X156333000Y-134633750D01*
X156174250Y-134475000D01*
X155397458Y-134475000D01*
X155274777Y-134499403D01*
X155159215Y-134547270D01*
X155055211Y-134616763D01*
X154966763Y-134705211D01*
X154897270Y-134809215D01*
X154849403Y-134924777D01*
X154825000Y-135047458D01*
X145454016Y-135047458D01*
X145184337Y-134777779D01*
X145116339Y-134721924D01*
X145048949Y-134665377D01*
X145044561Y-134662965D01*
X145040690Y-134659785D01*
X144963128Y-134618197D01*
X144886048Y-134575822D01*
X144881275Y-134574308D01*
X144876859Y-134571940D01*
X144792727Y-134546218D01*
X144708854Y-134519612D01*
X144703873Y-134519053D01*
X144699087Y-134517590D01*
X144611585Y-134508702D01*
X144524117Y-134498891D01*
X144514325Y-134498823D01*
X144514143Y-134498804D01*
X144513973Y-134498820D01*
X144510818Y-134498798D01*
X119335836Y-134498798D01*
X117046105Y-132209067D01*
X120382983Y-132209067D01*
X120437324Y-132505150D01*
X120548140Y-132785040D01*
X120711210Y-133038075D01*
X120920322Y-133254617D01*
X121167512Y-133426419D01*
X121443364Y-133546935D01*
X121737371Y-133611577D01*
X122038334Y-133617881D01*
X122334789Y-133565608D01*
X122615446Y-133456748D01*
X122869613Y-133295449D01*
X123087610Y-133087854D01*
X123261132Y-132841869D01*
X123383572Y-132566866D01*
X123450265Y-132273317D01*
X123451162Y-132209067D01*
X129272983Y-132209067D01*
X129327324Y-132505150D01*
X129438140Y-132785040D01*
X129601210Y-133038075D01*
X129810322Y-133254617D01*
X130057512Y-133426419D01*
X130333364Y-133546935D01*
X130627371Y-133611577D01*
X130928334Y-133617881D01*
X131224789Y-133565608D01*
X131505446Y-133456748D01*
X131759613Y-133295449D01*
X131977610Y-133087854D01*
X132151132Y-132841869D01*
X132273572Y-132566866D01*
X132340265Y-132273317D01*
X132345066Y-131929486D01*
X132286595Y-131634190D01*
X132171882Y-131355874D01*
X132005295Y-131105141D01*
X131793180Y-130891540D01*
X131543616Y-130723206D01*
X131266108Y-130606553D01*
X130971228Y-130546023D01*
X130670206Y-130543921D01*
X130374509Y-130600328D01*
X130095400Y-130713096D01*
X129843509Y-130877928D01*
X129628432Y-131088547D01*
X129458361Y-131336930D01*
X129339773Y-131613617D01*
X129277186Y-131908067D01*
X129272983Y-132209067D01*
X123451162Y-132209067D01*
X123455066Y-131929486D01*
X123396595Y-131634190D01*
X123281882Y-131355874D01*
X123115295Y-131105141D01*
X122903180Y-130891540D01*
X122653616Y-130723206D01*
X122376108Y-130606553D01*
X122081228Y-130546023D01*
X121780206Y-130543921D01*
X121484509Y-130600328D01*
X121205400Y-130713096D01*
X120953509Y-130877928D01*
X120738432Y-131088547D01*
X120568361Y-131336930D01*
X120449773Y-131613617D01*
X120387186Y-131908067D01*
X120382983Y-132209067D01*
X117046105Y-132209067D01*
X115964925Y-131127887D01*
X116182482Y-131063857D01*
X116465266Y-130916021D01*
X116713950Y-130716074D01*
X116919061Y-130471632D01*
X117072786Y-130192006D01*
X117169271Y-129887847D01*
X117204841Y-129570739D01*
X117205000Y-129547911D01*
X117205000Y-129532089D01*
X117173862Y-129214516D01*
X117081633Y-128909039D01*
X116931826Y-128627294D01*
X116745689Y-128399067D01*
X120382983Y-128399067D01*
X120437324Y-128695150D01*
X120548140Y-128975040D01*
X120711210Y-129228075D01*
X120920322Y-129444617D01*
X121167512Y-129616419D01*
X121443364Y-129736935D01*
X121737371Y-129801577D01*
X122038334Y-129807881D01*
X122334789Y-129755608D01*
X122615446Y-129646748D01*
X122869613Y-129485449D01*
X123028566Y-129334080D01*
X129925525Y-129334080D01*
X130009208Y-129588261D01*
X130281775Y-129719158D01*
X130574642Y-129794365D01*
X130876553Y-129810991D01*
X131175907Y-129768397D01*
X131461199Y-129668222D01*
X131610792Y-129588261D01*
X131694475Y-129334080D01*
X130810000Y-128449605D01*
X129925525Y-129334080D01*
X123028566Y-129334080D01*
X123087610Y-129277854D01*
X123261132Y-129031869D01*
X123383572Y-128756866D01*
X123450265Y-128463317D01*
X123452035Y-128336553D01*
X129269009Y-128336553D01*
X129311603Y-128635907D01*
X129411778Y-128921199D01*
X129491739Y-129070792D01*
X129745920Y-129154475D01*
X130630395Y-128270000D01*
X130989605Y-128270000D01*
X131874080Y-129154475D01*
X132128261Y-129070792D01*
X132259158Y-128798225D01*
X132334365Y-128505358D01*
X132350991Y-128203447D01*
X132308397Y-127904093D01*
X132208222Y-127618801D01*
X132128261Y-127469208D01*
X131874080Y-127385525D01*
X130989605Y-128270000D01*
X130630395Y-128270000D01*
X129745920Y-127385525D01*
X129491739Y-127469208D01*
X129360842Y-127741775D01*
X129285635Y-128034642D01*
X129269009Y-128336553D01*
X123452035Y-128336553D01*
X123455066Y-128119486D01*
X123396595Y-127824190D01*
X123281882Y-127545874D01*
X123115295Y-127295141D01*
X123026695Y-127205920D01*
X129925525Y-127205920D01*
X130810000Y-128090395D01*
X131694475Y-127205920D01*
X131610792Y-126951739D01*
X131338225Y-126820842D01*
X131045358Y-126745635D01*
X130743447Y-126729009D01*
X130444093Y-126771603D01*
X130158801Y-126871778D01*
X130009208Y-126951739D01*
X129925525Y-127205920D01*
X123026695Y-127205920D01*
X122903180Y-127081540D01*
X122653616Y-126913206D01*
X122376108Y-126796553D01*
X122081228Y-126736023D01*
X121780206Y-126733921D01*
X121484509Y-126790328D01*
X121205400Y-126903096D01*
X120953509Y-127067928D01*
X120738432Y-127278547D01*
X120568361Y-127526930D01*
X120449773Y-127803617D01*
X120387186Y-128098067D01*
X120382983Y-128399067D01*
X116745689Y-128399067D01*
X116730148Y-128380012D01*
X116484280Y-128176613D01*
X116203588Y-128024843D01*
X115898762Y-127930483D01*
X115581414Y-127897129D01*
X115263632Y-127926049D01*
X114957518Y-128016143D01*
X114674734Y-128163979D01*
X114426050Y-128363926D01*
X114299769Y-128514421D01*
X114190148Y-128380012D01*
X113944280Y-128176613D01*
X113663588Y-128024843D01*
X113358762Y-127930483D01*
X113041414Y-127897129D01*
X112723632Y-127926049D01*
X112417518Y-128016143D01*
X112134734Y-128163979D01*
X112045856Y-128235439D01*
X111968100Y-128117441D01*
X111831450Y-128000975D01*
X111667763Y-127927190D01*
X111490000Y-127901928D01*
X109490000Y-127901928D01*
X109388879Y-127909992D01*
X109217366Y-127963106D01*
X109067441Y-128061900D01*
X108950975Y-128198550D01*
X108877190Y-128362237D01*
X108851928Y-128540000D01*
X108851928Y-130540000D01*
X108859992Y-130641121D01*
X108913106Y-130812634D01*
X109011900Y-130962559D01*
X109148550Y-131079025D01*
X109312237Y-131152810D01*
X109490000Y-131178072D01*
X111490000Y-131178072D01*
X111591121Y-131170008D01*
X111762634Y-131116894D01*
X111912559Y-131018100D01*
X112029025Y-130881450D01*
X112045370Y-130845189D01*
X112115720Y-130903387D01*
X112396412Y-131055157D01*
X112701238Y-131149517D01*
X113018586Y-131182871D01*
X113300204Y-131157242D01*
X117530770Y-135387808D01*
X108429846Y-135387808D01*
X104152458Y-131110420D01*
X104292559Y-131018100D01*
X104409025Y-130881450D01*
X104475447Y-130734097D01*
X104549956Y-130939814D01*
X104839571Y-131080704D01*
X105151108Y-131162384D01*
X105472595Y-131181718D01*
X105791675Y-131137961D01*
X106096088Y-131032795D01*
X106270044Y-130939814D01*
X106365808Y-130675413D01*
X105410000Y-129719605D01*
X105395858Y-129733748D01*
X105216253Y-129554143D01*
X105230395Y-129540000D01*
X105589605Y-129540000D01*
X106545413Y-130495808D01*
X106809814Y-130400044D01*
X106950704Y-130110429D01*
X107032384Y-129798892D01*
X107051718Y-129477405D01*
X107007961Y-129158325D01*
X106902795Y-128853912D01*
X106809814Y-128679956D01*
X106545413Y-128584192D01*
X105589605Y-129540000D01*
X105230395Y-129540000D01*
X105216253Y-129525858D01*
X105395858Y-129346253D01*
X105410000Y-129360395D01*
X106365808Y-128404587D01*
X106270044Y-128140186D01*
X105980429Y-127999296D01*
X105668892Y-127917616D01*
X105347405Y-127898282D01*
X105028325Y-127942039D01*
X104723912Y-128047205D01*
X104549956Y-128140186D01*
X104473166Y-128352201D01*
X104446894Y-128267366D01*
X104348100Y-128117441D01*
X104211450Y-128000975D01*
X104047763Y-127927190D01*
X103870000Y-127901928D01*
X102161355Y-127901928D01*
X102137839Y-127857701D01*
X102097333Y-127779557D01*
X102094205Y-127775638D01*
X102091856Y-127771221D01*
X102036281Y-127703079D01*
X101981356Y-127634276D01*
X101974483Y-127627306D01*
X101974365Y-127627162D01*
X101974232Y-127627052D01*
X101972018Y-127624807D01*
X97807211Y-123460000D01*
X100161928Y-123460000D01*
X100161928Y-125460000D01*
X100169992Y-125561121D01*
X100223106Y-125732634D01*
X100321900Y-125882559D01*
X100458550Y-125999025D01*
X100622237Y-126072810D01*
X100800000Y-126098072D01*
X102400000Y-126098072D01*
X102501121Y-126090008D01*
X102672634Y-126036894D01*
X102822559Y-125938100D01*
X102939025Y-125801450D01*
X103012810Y-125637763D01*
X103023980Y-125559163D01*
X103121766Y-125679061D01*
X103337558Y-125857580D01*
X103583915Y-125990785D01*
X103851453Y-126073601D01*
X104129982Y-126102876D01*
X104227007Y-126094046D01*
X104901480Y-126768519D01*
X104969477Y-126824372D01*
X105036869Y-126880921D01*
X105041261Y-126883335D01*
X105045128Y-126886512D01*
X105122651Y-126928080D01*
X105199770Y-126970476D01*
X105204543Y-126971990D01*
X105208959Y-126974358D01*
X105293050Y-127000067D01*
X105376964Y-127026686D01*
X105381950Y-127027245D01*
X105386731Y-127028707D01*
X105474183Y-127037591D01*
X105561701Y-127047407D01*
X105571493Y-127047475D01*
X105571675Y-127047494D01*
X105571845Y-127047478D01*
X105575000Y-127047500D01*
X112865000Y-127047500D01*
X112952601Y-127038911D01*
X113040214Y-127031246D01*
X113045023Y-127029849D01*
X113050008Y-127029360D01*
X113134239Y-127003929D01*
X113218727Y-126979383D01*
X113223174Y-126977078D01*
X113227970Y-126975630D01*
X113305625Y-126934340D01*
X113383769Y-126893834D01*
X113387688Y-126890706D01*
X113392105Y-126888357D01*
X113460247Y-126832782D01*
X113529050Y-126777857D01*
X113536020Y-126770984D01*
X113536164Y-126770866D01*
X113536274Y-126770733D01*
X113538519Y-126768519D01*
X114212325Y-126094714D01*
X114289982Y-126102876D01*
X114321583Y-126100000D01*
X134351928Y-126100000D01*
X134351928Y-127900000D01*
X134359992Y-128001121D01*
X134413106Y-128172634D01*
X134511900Y-128322559D01*
X134648550Y-128439025D01*
X134738172Y-128479424D01*
X134708432Y-128508547D01*
X134538361Y-128756930D01*
X134419773Y-129033617D01*
X134357186Y-129328067D01*
X134352983Y-129629067D01*
X134407324Y-129925150D01*
X134518140Y-130205040D01*
X134681210Y-130458075D01*
X134890322Y-130674617D01*
X135137512Y-130846419D01*
X135413364Y-130966935D01*
X135707371Y-131031577D01*
X136008334Y-131037881D01*
X136304789Y-130985608D01*
X136585446Y-130876748D01*
X136839613Y-130715449D01*
X137057610Y-130507854D01*
X137231132Y-130261869D01*
X137353572Y-129986866D01*
X137420265Y-129693317D01*
X137425066Y-129349486D01*
X137366595Y-129054190D01*
X137251882Y-128775874D01*
X137085295Y-128525141D01*
X137043322Y-128482874D01*
X137062634Y-128476894D01*
X137212559Y-128378100D01*
X137329025Y-128241450D01*
X137402810Y-128077763D01*
X137428072Y-127900000D01*
X137428072Y-126100000D01*
X141971928Y-126100000D01*
X141971928Y-127900000D01*
X141979992Y-128001121D01*
X142033106Y-128172634D01*
X142131900Y-128322559D01*
X142268550Y-128439025D01*
X142358172Y-128479424D01*
X142328432Y-128508547D01*
X142158361Y-128756930D01*
X142039773Y-129033617D01*
X141977186Y-129328067D01*
X141972983Y-129629067D01*
X142027324Y-129925150D01*
X142138140Y-130205040D01*
X142301210Y-130458075D01*
X142510322Y-130674617D01*
X142757512Y-130846419D01*
X143033364Y-130966935D01*
X143327371Y-131031577D01*
X143628334Y-131037881D01*
X143924789Y-130985608D01*
X144205446Y-130876748D01*
X144459613Y-130715449D01*
X144677610Y-130507854D01*
X144851132Y-130261869D01*
X144973572Y-129986866D01*
X145040265Y-129693317D01*
X145045066Y-129349486D01*
X144986595Y-129054190D01*
X144937177Y-128934292D01*
X148562588Y-128934292D01*
X148627550Y-129288242D01*
X148760024Y-129622833D01*
X148954964Y-129925321D01*
X149204945Y-130184184D01*
X149500446Y-130389563D01*
X149830210Y-130533633D01*
X150181677Y-130610908D01*
X150541461Y-130618445D01*
X150895856Y-130555955D01*
X151231364Y-130425820D01*
X151535205Y-130232996D01*
X151795807Y-129984829D01*
X152003243Y-129690769D01*
X152149613Y-129362019D01*
X152229339Y-129011099D01*
X152230411Y-128934292D01*
X152362588Y-128934292D01*
X152427550Y-129288242D01*
X152560024Y-129622833D01*
X152754964Y-129925321D01*
X153004945Y-130184184D01*
X153300446Y-130389563D01*
X153630210Y-130533633D01*
X153981677Y-130610908D01*
X154341461Y-130618445D01*
X154695856Y-130555955D01*
X155031364Y-130425820D01*
X155335205Y-130232996D01*
X155518990Y-130057980D01*
X156901626Y-130057980D01*
X157021514Y-130342836D01*
X157345210Y-130503699D01*
X157694069Y-130598322D01*
X158054684Y-130623067D01*
X158413198Y-130576985D01*
X158755833Y-130461846D01*
X158978486Y-130342836D01*
X159098374Y-130057980D01*
X158000000Y-128959605D01*
X156901626Y-130057980D01*
X155518990Y-130057980D01*
X155595807Y-129984829D01*
X155803243Y-129690769D01*
X155949613Y-129362019D01*
X156029339Y-129011099D01*
X156031802Y-128834684D01*
X156156933Y-128834684D01*
X156203015Y-129193198D01*
X156318154Y-129535833D01*
X156437164Y-129758486D01*
X156722020Y-129878374D01*
X157820395Y-128780000D01*
X156722020Y-127681626D01*
X156437164Y-127801514D01*
X156276301Y-128125210D01*
X156181678Y-128474069D01*
X156156933Y-128834684D01*
X156031802Y-128834684D01*
X156035079Y-128600069D01*
X155965181Y-128247060D01*
X155828049Y-127914351D01*
X155628904Y-127614614D01*
X155517094Y-127502020D01*
X156901626Y-127502020D01*
X158000000Y-128600395D01*
X159098374Y-127502020D01*
X158978486Y-127217164D01*
X158654790Y-127056301D01*
X158305931Y-126961678D01*
X157945316Y-126936933D01*
X157586802Y-126983015D01*
X157244167Y-127098154D01*
X157021514Y-127217164D01*
X156901626Y-127502020D01*
X155517094Y-127502020D01*
X155375333Y-127359267D01*
X155076993Y-127158034D01*
X154745250Y-127018582D01*
X154392738Y-126946222D01*
X154032884Y-126943710D01*
X153679397Y-127011141D01*
X153345738Y-127145948D01*
X153044618Y-127342995D01*
X152787507Y-127594777D01*
X152584197Y-127891705D01*
X152442432Y-128222467D01*
X152367612Y-128574465D01*
X152362588Y-128934292D01*
X152230411Y-128934292D01*
X152235079Y-128600069D01*
X152165181Y-128247060D01*
X152028049Y-127914351D01*
X151828904Y-127614614D01*
X151575333Y-127359267D01*
X151276993Y-127158034D01*
X150945250Y-127018582D01*
X150592738Y-126946222D01*
X150232884Y-126943710D01*
X149879397Y-127011141D01*
X149545738Y-127145948D01*
X149244618Y-127342995D01*
X148987507Y-127594777D01*
X148784197Y-127891705D01*
X148642432Y-128222467D01*
X148567612Y-128574465D01*
X148562588Y-128934292D01*
X144937177Y-128934292D01*
X144871882Y-128775874D01*
X144705295Y-128525141D01*
X144663322Y-128482874D01*
X144682634Y-128476894D01*
X144832559Y-128378100D01*
X144949025Y-128241450D01*
X145022810Y-128077763D01*
X145048072Y-127900000D01*
X145048072Y-126100000D01*
X145040008Y-125998879D01*
X144986894Y-125827366D01*
X144888100Y-125677441D01*
X144751450Y-125560975D01*
X144587763Y-125487190D01*
X144410000Y-125461928D01*
X142610000Y-125461928D01*
X142508879Y-125469992D01*
X142337366Y-125523106D01*
X142187441Y-125621900D01*
X142070975Y-125758550D01*
X141997190Y-125922237D01*
X141971928Y-126100000D01*
X137428072Y-126100000D01*
X137420008Y-125998879D01*
X137366894Y-125827366D01*
X137268100Y-125677441D01*
X137131450Y-125560975D01*
X136967763Y-125487190D01*
X136790000Y-125461928D01*
X134990000Y-125461928D01*
X134888879Y-125469992D01*
X134717366Y-125523106D01*
X134567441Y-125621900D01*
X134450975Y-125758550D01*
X134377190Y-125922237D01*
X134351928Y-126100000D01*
X114321583Y-126100000D01*
X114568892Y-126077493D01*
X114837560Y-125998420D01*
X115085753Y-125868668D01*
X115304017Y-125693179D01*
X115484038Y-125478639D01*
X115566695Y-125328287D01*
X115575570Y-125349227D01*
X115734327Y-125582662D01*
X115935575Y-125780639D01*
X116171579Y-125935551D01*
X116433270Y-126041444D01*
X116490961Y-126051904D01*
X116713000Y-125929915D01*
X116713000Y-124587000D01*
X116967000Y-124587000D01*
X116967000Y-125929915D01*
X117189039Y-126051904D01*
X117246730Y-126041444D01*
X117508421Y-125935551D01*
X117744425Y-125780639D01*
X117945673Y-125582662D01*
X118104430Y-125349227D01*
X118214596Y-125089306D01*
X118271937Y-124812887D01*
X118119474Y-124587000D01*
X116967000Y-124587000D01*
X116713000Y-124587000D01*
X116693000Y-124587000D01*
X116693000Y-124333000D01*
X116713000Y-124333000D01*
X116713000Y-122990085D01*
X116967000Y-122990085D01*
X116967000Y-124333000D01*
X118119474Y-124333000D01*
X118271937Y-124107113D01*
X118214596Y-123830694D01*
X118104430Y-123570773D01*
X117945673Y-123337338D01*
X117744425Y-123139361D01*
X117508421Y-122984449D01*
X117246730Y-122878556D01*
X117189039Y-122868096D01*
X116967000Y-122990085D01*
X116713000Y-122990085D01*
X116490961Y-122868096D01*
X116433270Y-122878556D01*
X116171579Y-122984449D01*
X115935575Y-123139361D01*
X115734327Y-123337338D01*
X115575570Y-123570773D01*
X115566543Y-123592070D01*
X115495242Y-123457972D01*
X115318234Y-123240939D01*
X115102442Y-123062420D01*
X114856085Y-122929215D01*
X114588547Y-122846399D01*
X114310018Y-122817124D01*
X114031108Y-122842507D01*
X113762440Y-122921580D01*
X113514247Y-123051332D01*
X113295983Y-123226821D01*
X113115962Y-123441361D01*
X113029772Y-123598141D01*
X112955242Y-123457972D01*
X112778234Y-123240939D01*
X112562442Y-123062420D01*
X112316085Y-122929215D01*
X112048547Y-122846399D01*
X111999778Y-122841273D01*
X112023026Y-122818025D01*
X112180351Y-122626495D01*
X112297476Y-122408055D01*
X112369944Y-122171025D01*
X112394992Y-121924433D01*
X112371667Y-121677672D01*
X112300856Y-121440142D01*
X112185257Y-121220889D01*
X112029273Y-121028265D01*
X111838846Y-120869608D01*
X111672783Y-120779067D01*
X120382983Y-120779067D01*
X120437324Y-121075150D01*
X120548140Y-121355040D01*
X120711210Y-121608075D01*
X120920322Y-121824617D01*
X120967500Y-121857407D01*
X120967500Y-123248773D01*
X120953509Y-123257928D01*
X120738432Y-123468547D01*
X120568361Y-123716930D01*
X120449773Y-123993617D01*
X120387186Y-124288067D01*
X120382983Y-124589067D01*
X120437324Y-124885150D01*
X120548140Y-125165040D01*
X120711210Y-125418075D01*
X120920322Y-125634617D01*
X121167512Y-125806419D01*
X121443364Y-125926935D01*
X121737371Y-125991577D01*
X122038334Y-125997881D01*
X122334789Y-125945608D01*
X122615446Y-125836748D01*
X122869613Y-125675449D01*
X123087610Y-125467854D01*
X123261132Y-125221869D01*
X123383572Y-124946866D01*
X123450265Y-124653317D01*
X123451162Y-124589067D01*
X129272983Y-124589067D01*
X129327324Y-124885150D01*
X129438140Y-125165040D01*
X129601210Y-125418075D01*
X129810322Y-125634617D01*
X130057512Y-125806419D01*
X130333364Y-125926935D01*
X130627371Y-125991577D01*
X130928334Y-125997881D01*
X131224789Y-125945608D01*
X131505446Y-125836748D01*
X131759613Y-125675449D01*
X131977610Y-125467854D01*
X132151132Y-125221869D01*
X132273572Y-124946866D01*
X132340265Y-124653317D01*
X132345066Y-124309486D01*
X132286595Y-124014190D01*
X132171882Y-123735874D01*
X132005295Y-123485141D01*
X131793180Y-123271540D01*
X131543616Y-123103206D01*
X131266108Y-122986553D01*
X130971228Y-122926023D01*
X130670206Y-122923921D01*
X130374509Y-122980328D01*
X130095400Y-123093096D01*
X129843509Y-123257928D01*
X129628432Y-123468547D01*
X129458361Y-123716930D01*
X129339773Y-123993617D01*
X129277186Y-124288067D01*
X129272983Y-124589067D01*
X123451162Y-124589067D01*
X123455066Y-124309486D01*
X123396595Y-124014190D01*
X123281882Y-123735874D01*
X123115295Y-123485141D01*
X122903180Y-123271540D01*
X122872500Y-123250846D01*
X122872500Y-121862700D01*
X123087610Y-121657854D01*
X123261132Y-121411869D01*
X123383572Y-121136866D01*
X123450265Y-120843317D01*
X123451162Y-120779067D01*
X129272983Y-120779067D01*
X129327324Y-121075150D01*
X129438140Y-121355040D01*
X129601210Y-121608075D01*
X129810322Y-121824617D01*
X130057512Y-121996419D01*
X130333364Y-122116935D01*
X130627371Y-122181577D01*
X130928334Y-122187881D01*
X131224789Y-122135608D01*
X131505446Y-122026748D01*
X131759613Y-121865449D01*
X131977610Y-121657854D01*
X132151132Y-121411869D01*
X132273572Y-121136866D01*
X132340265Y-120843317D01*
X132341162Y-120779067D01*
X133717983Y-120779067D01*
X133772324Y-121075150D01*
X133883140Y-121355040D01*
X134046210Y-121608075D01*
X134255322Y-121824617D01*
X134502512Y-121996419D01*
X134778364Y-122116935D01*
X135072371Y-122181577D01*
X135373334Y-122187881D01*
X135669789Y-122135608D01*
X135950446Y-122026748D01*
X136204613Y-121865449D01*
X136422610Y-121657854D01*
X136596132Y-121411869D01*
X136718572Y-121136866D01*
X136785265Y-120843317D01*
X136786162Y-120779067D01*
X142607983Y-120779067D01*
X142662324Y-121075150D01*
X142773140Y-121355040D01*
X142936210Y-121608075D01*
X143145322Y-121824617D01*
X143392512Y-121996419D01*
X143668364Y-122116935D01*
X143962371Y-122181577D01*
X144263334Y-122187881D01*
X144559789Y-122135608D01*
X144840446Y-122026748D01*
X145094613Y-121865449D01*
X145312610Y-121657854D01*
X145486132Y-121411869D01*
X145608572Y-121136866D01*
X145675265Y-120843317D01*
X145680066Y-120499486D01*
X145621595Y-120204190D01*
X145506882Y-119925874D01*
X145340295Y-119675141D01*
X145200426Y-119534292D01*
X148562588Y-119534292D01*
X148627550Y-119888242D01*
X148760024Y-120222833D01*
X148954964Y-120525321D01*
X149204945Y-120784184D01*
X149500446Y-120989563D01*
X149830210Y-121133633D01*
X150181677Y-121210908D01*
X150541461Y-121218445D01*
X150895856Y-121155955D01*
X151231364Y-121025820D01*
X151535205Y-120832996D01*
X151795807Y-120584829D01*
X152003243Y-120290769D01*
X152149613Y-119962019D01*
X152229339Y-119611099D01*
X152230411Y-119534292D01*
X152362588Y-119534292D01*
X152427550Y-119888242D01*
X152560024Y-120222833D01*
X152754964Y-120525321D01*
X153004945Y-120784184D01*
X153300446Y-120989563D01*
X153630210Y-121133633D01*
X153981677Y-121210908D01*
X154341461Y-121218445D01*
X154695856Y-121155955D01*
X155031364Y-121025820D01*
X155335205Y-120832996D01*
X155518990Y-120657980D01*
X156901626Y-120657980D01*
X157021514Y-120942836D01*
X157345210Y-121103699D01*
X157694069Y-121198322D01*
X158054684Y-121223067D01*
X158413198Y-121176985D01*
X158755833Y-121061846D01*
X158978486Y-120942836D01*
X159098374Y-120657980D01*
X158000000Y-119559605D01*
X156901626Y-120657980D01*
X155518990Y-120657980D01*
X155595807Y-120584829D01*
X155803243Y-120290769D01*
X155949613Y-119962019D01*
X156029339Y-119611099D01*
X156031802Y-119434684D01*
X156156933Y-119434684D01*
X156203015Y-119793198D01*
X156318154Y-120135833D01*
X156437164Y-120358486D01*
X156722020Y-120478374D01*
X157820395Y-119380000D01*
X156722020Y-118281626D01*
X156437164Y-118401514D01*
X156276301Y-118725210D01*
X156181678Y-119074069D01*
X156156933Y-119434684D01*
X156031802Y-119434684D01*
X156035079Y-119200069D01*
X155965181Y-118847060D01*
X155828049Y-118514351D01*
X155628904Y-118214614D01*
X155517094Y-118102020D01*
X156901626Y-118102020D01*
X158000000Y-119200395D01*
X159098374Y-118102020D01*
X158978486Y-117817164D01*
X158654790Y-117656301D01*
X158305931Y-117561678D01*
X157945316Y-117536933D01*
X157586802Y-117583015D01*
X157244167Y-117698154D01*
X157021514Y-117817164D01*
X156901626Y-118102020D01*
X155517094Y-118102020D01*
X155375333Y-117959267D01*
X155076993Y-117758034D01*
X154745250Y-117618582D01*
X154392738Y-117546222D01*
X154032884Y-117543710D01*
X153679397Y-117611141D01*
X153345738Y-117745948D01*
X153044618Y-117942995D01*
X152787507Y-118194777D01*
X152584197Y-118491705D01*
X152442432Y-118822467D01*
X152367612Y-119174465D01*
X152362588Y-119534292D01*
X152230411Y-119534292D01*
X152235079Y-119200069D01*
X152165181Y-118847060D01*
X152028049Y-118514351D01*
X151828904Y-118214614D01*
X151575333Y-117959267D01*
X151276993Y-117758034D01*
X150945250Y-117618582D01*
X150592738Y-117546222D01*
X150232884Y-117543710D01*
X149879397Y-117611141D01*
X149545738Y-117745948D01*
X149244618Y-117942995D01*
X148987507Y-118194777D01*
X148784197Y-118491705D01*
X148642432Y-118822467D01*
X148567612Y-119174465D01*
X148562588Y-119534292D01*
X145200426Y-119534292D01*
X145128180Y-119461540D01*
X144878616Y-119293206D01*
X144601108Y-119176553D01*
X144306228Y-119116023D01*
X144005206Y-119113921D01*
X143709509Y-119170328D01*
X143430400Y-119283096D01*
X143178509Y-119447928D01*
X142963432Y-119658547D01*
X142793361Y-119906930D01*
X142674773Y-120183617D01*
X142612186Y-120478067D01*
X142607983Y-120779067D01*
X136786162Y-120779067D01*
X136790066Y-120499486D01*
X136731595Y-120204190D01*
X136616882Y-119925874D01*
X136450295Y-119675141D01*
X136238180Y-119461540D01*
X135988616Y-119293206D01*
X135711108Y-119176553D01*
X135416228Y-119116023D01*
X135115206Y-119113921D01*
X134819509Y-119170328D01*
X134540400Y-119283096D01*
X134288509Y-119447928D01*
X134073432Y-119658547D01*
X133903361Y-119906930D01*
X133784773Y-120183617D01*
X133722186Y-120478067D01*
X133717983Y-120779067D01*
X132341162Y-120779067D01*
X132345066Y-120499486D01*
X132286595Y-120204190D01*
X132171882Y-119925874D01*
X132005295Y-119675141D01*
X131793180Y-119461540D01*
X131543616Y-119293206D01*
X131266108Y-119176553D01*
X130971228Y-119116023D01*
X130670206Y-119113921D01*
X130374509Y-119170328D01*
X130095400Y-119283096D01*
X129843509Y-119447928D01*
X129628432Y-119658547D01*
X129458361Y-119906930D01*
X129339773Y-120183617D01*
X129277186Y-120478067D01*
X129272983Y-120779067D01*
X123451162Y-120779067D01*
X123455066Y-120499486D01*
X123396595Y-120204190D01*
X123281882Y-119925874D01*
X123115295Y-119675141D01*
X122903180Y-119461540D01*
X122653616Y-119293206D01*
X122376108Y-119176553D01*
X122081228Y-119116023D01*
X121780206Y-119113921D01*
X121484509Y-119170328D01*
X121205400Y-119283096D01*
X120953509Y-119447928D01*
X120738432Y-119658547D01*
X120568361Y-119906930D01*
X120449773Y-120183617D01*
X120387186Y-120478067D01*
X120382983Y-120779067D01*
X111672783Y-120779067D01*
X111621229Y-120750959D01*
X111384711Y-120676838D01*
X111138299Y-120650070D01*
X110891382Y-120671672D01*
X110653363Y-120740823D01*
X110433309Y-120854888D01*
X110239601Y-121009524D01*
X110226975Y-121021974D01*
X108321974Y-122926974D01*
X108247466Y-123017682D01*
X108172106Y-123107492D01*
X108168890Y-123113342D01*
X108164649Y-123118505D01*
X108109219Y-123221883D01*
X108052698Y-123324694D01*
X108050677Y-123331064D01*
X108047524Y-123336945D01*
X108013238Y-123449088D01*
X107988034Y-123528542D01*
X107949772Y-123598141D01*
X107875242Y-123457972D01*
X107698234Y-123240939D01*
X107482442Y-123062420D01*
X107236085Y-122929215D01*
X106968547Y-122846399D01*
X106690018Y-122817124D01*
X106411108Y-122842507D01*
X106142440Y-122921580D01*
X105894247Y-123051332D01*
X105675983Y-123226821D01*
X105495962Y-123441361D01*
X105409772Y-123598141D01*
X105335242Y-123457972D01*
X105158234Y-123240939D01*
X104942442Y-123062420D01*
X104696085Y-122929215D01*
X104428547Y-122846399D01*
X104150018Y-122817124D01*
X103871108Y-122842507D01*
X103602440Y-122921580D01*
X103354247Y-123051332D01*
X103135983Y-123226821D01*
X103028705Y-123354670D01*
X102976894Y-123187366D01*
X102878100Y-123037441D01*
X102741450Y-122920975D01*
X102577763Y-122847190D01*
X102400000Y-122821928D01*
X100800000Y-122821928D01*
X100698879Y-122829992D01*
X100527366Y-122883106D01*
X100377441Y-122981900D01*
X100260975Y-123118550D01*
X100187190Y-123282237D01*
X100161928Y-123460000D01*
X97807211Y-123460000D01*
X94751291Y-120404080D01*
X96905525Y-120404080D01*
X96989208Y-120658261D01*
X97261775Y-120789158D01*
X97554642Y-120864365D01*
X97856553Y-120880991D01*
X98155907Y-120838397D01*
X98441199Y-120738222D01*
X98590792Y-120658261D01*
X98674475Y-120404080D01*
X97790000Y-119519605D01*
X96905525Y-120404080D01*
X94751291Y-120404080D01*
X93790280Y-119443069D01*
X93745826Y-119406553D01*
X96249009Y-119406553D01*
X96291603Y-119705907D01*
X96391778Y-119991199D01*
X96471739Y-120140792D01*
X96725920Y-120224475D01*
X97610395Y-119340000D01*
X97969605Y-119340000D01*
X98854080Y-120224475D01*
X99108261Y-120140792D01*
X99239158Y-119868225D01*
X99314365Y-119575358D01*
X99330991Y-119273447D01*
X99288397Y-118974093D01*
X99188222Y-118688801D01*
X99108261Y-118539208D01*
X98854080Y-118455525D01*
X97969605Y-119340000D01*
X97610395Y-119340000D01*
X96725920Y-118455525D01*
X96471739Y-118539208D01*
X96340842Y-118811775D01*
X96265635Y-119104642D01*
X96249009Y-119406553D01*
X93745826Y-119406553D01*
X93722282Y-119387214D01*
X93654892Y-119330667D01*
X93650504Y-119328255D01*
X93646633Y-119325075D01*
X93569071Y-119283487D01*
X93491991Y-119241112D01*
X93487218Y-119239598D01*
X93482802Y-119237230D01*
X93398670Y-119211508D01*
X93314797Y-119184902D01*
X93309816Y-119184343D01*
X93305030Y-119182880D01*
X93217528Y-119173992D01*
X93130060Y-119164181D01*
X93120268Y-119164113D01*
X93120086Y-119164094D01*
X93119916Y-119164110D01*
X93116761Y-119164088D01*
X91932950Y-119164088D01*
X92622324Y-118474714D01*
X92699982Y-118482876D01*
X92978892Y-118457493D01*
X93247560Y-118378420D01*
X93495753Y-118248668D01*
X93714017Y-118073179D01*
X93894038Y-117858639D01*
X94028959Y-117613218D01*
X94113642Y-117346264D01*
X94144860Y-117067947D01*
X94145000Y-117047911D01*
X94145000Y-116969067D01*
X96252983Y-116969067D01*
X96307324Y-117265150D01*
X96418140Y-117545040D01*
X96581210Y-117798075D01*
X96790322Y-118014617D01*
X96954082Y-118128433D01*
X96905525Y-118275920D01*
X97790000Y-119160395D01*
X98674475Y-118275920D01*
X98625692Y-118127745D01*
X98739613Y-118055449D01*
X98957610Y-117847854D01*
X99131132Y-117601869D01*
X99253572Y-117326866D01*
X99320265Y-117033317D01*
X99325066Y-116689486D01*
X99266595Y-116394190D01*
X99151882Y-116115874D01*
X98985295Y-115865141D01*
X98773180Y-115651540D01*
X98523616Y-115483206D01*
X98246108Y-115366553D01*
X97951228Y-115306023D01*
X97650206Y-115303921D01*
X97354509Y-115360328D01*
X97075400Y-115473096D01*
X96823509Y-115637928D01*
X96608432Y-115848547D01*
X96438361Y-116096930D01*
X96319773Y-116373617D01*
X96257186Y-116668067D01*
X96252983Y-116969067D01*
X94145000Y-116969067D01*
X94145000Y-116632089D01*
X94117671Y-116353363D01*
X94036724Y-116085253D01*
X93905242Y-115837972D01*
X93728234Y-115620939D01*
X93512442Y-115442420D01*
X93266085Y-115309215D01*
X92998547Y-115226399D01*
X92842523Y-115210000D01*
X101468536Y-115210000D01*
X101331108Y-115222507D01*
X101331108Y-115222507D01*
G37*
X101331108Y-115222507D02*
X101062440Y-115301580D01*
X100814247Y-115431332D01*
X100595983Y-115606821D01*
X100415962Y-115821361D01*
X100281041Y-116066782D01*
X100196358Y-116333736D01*
X100165140Y-116612053D01*
X100165000Y-116632089D01*
X100165000Y-117047911D01*
X100192329Y-117326637D01*
X100273276Y-117594747D01*
X100404758Y-117842028D01*
X100581766Y-118059061D01*
X100797558Y-118237580D01*
X101043915Y-118370785D01*
X101311453Y-118453601D01*
X101589982Y-118482876D01*
X101868892Y-118457493D01*
X102137560Y-118378420D01*
X102385753Y-118248668D01*
X102604017Y-118073179D01*
X102784038Y-117858639D01*
X102870228Y-117701859D01*
X102944758Y-117842028D01*
X103121766Y-118059061D01*
X103337558Y-118237580D01*
X103583915Y-118370785D01*
X103851453Y-118453601D01*
X104129982Y-118482876D01*
X104408892Y-118457493D01*
X104677560Y-118378420D01*
X104925753Y-118248668D01*
X105144017Y-118073179D01*
X105324038Y-117858639D01*
X105410228Y-117701859D01*
X105484758Y-117842028D01*
X105661766Y-118059061D01*
X105877558Y-118237580D01*
X106123915Y-118370785D01*
X106391453Y-118453601D01*
X106669982Y-118482876D01*
X106767007Y-118474046D01*
X107441480Y-119148519D01*
X107509477Y-119204372D01*
X107576869Y-119260921D01*
X107581261Y-119263335D01*
X107585128Y-119266512D01*
X107662651Y-119308080D01*
X107739770Y-119350476D01*
X107744543Y-119351990D01*
X107748959Y-119354358D01*
X107833050Y-119380067D01*
X107916964Y-119406686D01*
X107921950Y-119407245D01*
X107926731Y-119408707D01*
X108014183Y-119417591D01*
X108101701Y-119427407D01*
X108111493Y-119427475D01*
X108111675Y-119427494D01*
X108111845Y-119427478D01*
X108115000Y-119427500D01*
X115405000Y-119427500D01*
X115492601Y-119418911D01*
X115580214Y-119411246D01*
X115585023Y-119409849D01*
X115590008Y-119409360D01*
X115674239Y-119383929D01*
X115758727Y-119359383D01*
X115763174Y-119357078D01*
X115767970Y-119355630D01*
X115845625Y-119314340D01*
X115923769Y-119273834D01*
X115927688Y-119270706D01*
X115932105Y-119268357D01*
X116000247Y-119212782D01*
X116069050Y-119157857D01*
X116076020Y-119150984D01*
X116076164Y-119150866D01*
X116076274Y-119150733D01*
X116078519Y-119148519D01*
X116752325Y-118474714D01*
X116829982Y-118482876D01*
X117108892Y-118457493D01*
X117377560Y-118378420D01*
X117625753Y-118248668D01*
X117844017Y-118073179D01*
X118024038Y-117858639D01*
X118158959Y-117613218D01*
X118243642Y-117346264D01*
X118274860Y-117067947D01*
X118275000Y-117047911D01*
X118275000Y-116969067D01*
X120382983Y-116969067D01*
X120437324Y-117265150D01*
X120548140Y-117545040D01*
X120711210Y-117798075D01*
X120920322Y-118014617D01*
X121167512Y-118186419D01*
X121443364Y-118306935D01*
X121737371Y-118371577D01*
X122038334Y-118377881D01*
X122334789Y-118325608D01*
X122615446Y-118216748D01*
X122869613Y-118055449D01*
X123028566Y-117904080D01*
X129925525Y-117904080D01*
X130009208Y-118158261D01*
X130281775Y-118289158D01*
X130574642Y-118364365D01*
X130876553Y-118380991D01*
X131175907Y-118338397D01*
X131461199Y-118238222D01*
X131610792Y-118158261D01*
X131694475Y-117904080D01*
X130810000Y-117019605D01*
X129925525Y-117904080D01*
X123028566Y-117904080D01*
X123087610Y-117847854D01*
X123261132Y-117601869D01*
X123383572Y-117326866D01*
X123450265Y-117033317D01*
X123452035Y-116906553D01*
X129269009Y-116906553D01*
X129311603Y-117205907D01*
X129411778Y-117491199D01*
X129491739Y-117640792D01*
X129745920Y-117724475D01*
X130630395Y-116840000D01*
X130989605Y-116840000D01*
X131874080Y-117724475D01*
X132128261Y-117640792D01*
X132259158Y-117368225D01*
X132334365Y-117075358D01*
X132340218Y-116969067D01*
X133717983Y-116969067D01*
X133772324Y-117265150D01*
X133883140Y-117545040D01*
X134046210Y-117798075D01*
X134255322Y-118014617D01*
X134502512Y-118186419D01*
X134778364Y-118306935D01*
X135072371Y-118371577D01*
X135373334Y-118377881D01*
X135669789Y-118325608D01*
X135950446Y-118216748D01*
X136204613Y-118055449D01*
X136363566Y-117904080D01*
X143260525Y-117904080D01*
X143344208Y-118158261D01*
X143616775Y-118289158D01*
X143909642Y-118364365D01*
X144211553Y-118380991D01*
X144510907Y-118338397D01*
X144796199Y-118238222D01*
X144945792Y-118158261D01*
X145029475Y-117904080D01*
X144145000Y-117019605D01*
X143260525Y-117904080D01*
X136363566Y-117904080D01*
X136422610Y-117847854D01*
X136596132Y-117601869D01*
X136718572Y-117326866D01*
X136785265Y-117033317D01*
X136787035Y-116906553D01*
X142604009Y-116906553D01*
X142646603Y-117205907D01*
X142746778Y-117491199D01*
X142826739Y-117640792D01*
X143080920Y-117724475D01*
X143965395Y-116840000D01*
X144324605Y-116840000D01*
X145209080Y-117724475D01*
X145463261Y-117640792D01*
X145594158Y-117368225D01*
X145669365Y-117075358D01*
X145685991Y-116773447D01*
X145643397Y-116474093D01*
X145543222Y-116188801D01*
X145463261Y-116039208D01*
X145209080Y-115955525D01*
X144324605Y-116840000D01*
X143965395Y-116840000D01*
X143080920Y-115955525D01*
X142826739Y-116039208D01*
X142695842Y-116311775D01*
X142620635Y-116604642D01*
X142604009Y-116906553D01*
X136787035Y-116906553D01*
X136790066Y-116689486D01*
X136731595Y-116394190D01*
X136616882Y-116115874D01*
X136450295Y-115865141D01*
X136361695Y-115775920D01*
X143260525Y-115775920D01*
X144145000Y-116660395D01*
X145029475Y-115775920D01*
X144945792Y-115521739D01*
X144673225Y-115390842D01*
X144380358Y-115315635D01*
X144078447Y-115299009D01*
X143779093Y-115341603D01*
X143493801Y-115441778D01*
X143344208Y-115521739D01*
X143260525Y-115775920D01*
X136361695Y-115775920D01*
X136238180Y-115651540D01*
X135988616Y-115483206D01*
X135711108Y-115366553D01*
X135416228Y-115306023D01*
X135115206Y-115303921D01*
X134819509Y-115360328D01*
X134540400Y-115473096D01*
X134288509Y-115637928D01*
X134073432Y-115848547D01*
X133903361Y-116096930D01*
X133784773Y-116373617D01*
X133722186Y-116668067D01*
X133717983Y-116969067D01*
X132340218Y-116969067D01*
X132350991Y-116773447D01*
X132308397Y-116474093D01*
X132208222Y-116188801D01*
X132128261Y-116039208D01*
X131874080Y-115955525D01*
X130989605Y-116840000D01*
X130630395Y-116840000D01*
X129745920Y-115955525D01*
X129491739Y-116039208D01*
X129360842Y-116311775D01*
X129285635Y-116604642D01*
X129269009Y-116906553D01*
X123452035Y-116906553D01*
X123455066Y-116689486D01*
X123396595Y-116394190D01*
X123281882Y-116115874D01*
X123115295Y-115865141D01*
X123026695Y-115775920D01*
X129925525Y-115775920D01*
X130810000Y-116660395D01*
X131694475Y-115775920D01*
X131610792Y-115521739D01*
X131338225Y-115390842D01*
X131045358Y-115315635D01*
X130743447Y-115299009D01*
X130444093Y-115341603D01*
X130158801Y-115441778D01*
X130009208Y-115521739D01*
X129925525Y-115775920D01*
X123026695Y-115775920D01*
X122903180Y-115651540D01*
X122653616Y-115483206D01*
X122376108Y-115366553D01*
X122081228Y-115306023D01*
X121780206Y-115303921D01*
X121484509Y-115360328D01*
X121205400Y-115473096D01*
X120953509Y-115637928D01*
X120738432Y-115848547D01*
X120568361Y-116096930D01*
X120449773Y-116373617D01*
X120387186Y-116668067D01*
X120382983Y-116969067D01*
X118275000Y-116969067D01*
X118275000Y-116632089D01*
X118247671Y-116353363D01*
X118166724Y-116085253D01*
X118035242Y-115837972D01*
X117858234Y-115620939D01*
X117642442Y-115442420D01*
X117396085Y-115309215D01*
X117128547Y-115226399D01*
X116972523Y-115210000D01*
X154965280Y-115210000D01*
X155929719Y-115304564D01*
X156824031Y-115574573D01*
X157648864Y-116013145D01*
X158372801Y-116603575D01*
X158968266Y-117323367D01*
X159412585Y-118145119D01*
X159481334Y-118367212D01*
X159277980Y-118281626D01*
X158179605Y-119380000D01*
X159277980Y-120478374D01*
X159562836Y-120358486D01*
X159723699Y-120034790D01*
X159774112Y-119848926D01*
X159789996Y-120000049D01*
X159790000Y-120001332D01*
X159790000Y-128346016D01*
X159681846Y-128024167D01*
X159562836Y-127801514D01*
X159277980Y-127681626D01*
X158179605Y-128780000D01*
X159277980Y-129878374D01*
X159562836Y-129758486D01*
X159723699Y-129434790D01*
X159790000Y-129190349D01*
X159790000Y-134620969D01*
X159742915Y-134595084D01*
X159466660Y-134507451D01*
X159178645Y-134475145D01*
X159157911Y-134475000D01*
X158842089Y-134475000D01*
X158553651Y-134503282D01*
X158276199Y-134587049D01*
X158020303Y-134723112D01*
X157984635Y-134752202D01*
X157953237Y-134705211D01*
X157864789Y-134616763D01*
X157760785Y-134547270D01*
X157645223Y-134499403D01*
X157522542Y-134475000D01*
X156745750Y-134475000D01*
X156587000Y-134633750D01*
X156587000Y-135833000D01*
X156607000Y-135833000D01*
X156607000Y-136087000D01*
X156587000Y-136087000D01*
X156587000Y-136107000D01*
X156333000Y-136107000D01*
X156333000Y-136087000D01*
X154983750Y-136087000D01*
X154825000Y-136245750D01*
X154825000Y-136872542D01*
X154849403Y-136995223D01*
X154897270Y-137110785D01*
X154966763Y-137214789D01*
X155055211Y-137303237D01*
X155159215Y-137372730D01*
X155274777Y-137420597D01*
X155284769Y-137422585D01*
X155255707Y-137446287D01*
X155070968Y-137669599D01*
X154933122Y-137924539D01*
X154847420Y-138201399D01*
X154817125Y-138489633D01*
X154843392Y-138778261D01*
X154868568Y-138863802D01*
X147872859Y-145859511D01*
X144867923Y-145859511D01*
X146633717Y-144093717D01*
X146682133Y-144034774D01*
X146731131Y-143976380D01*
X146733223Y-143972575D01*
X146735977Y-143969222D01*
X146772009Y-143902023D01*
X146808746Y-143835199D01*
X146810058Y-143831063D01*
X146812110Y-143827236D01*
X146834407Y-143754305D01*
X146857461Y-143681631D01*
X146857945Y-143677317D01*
X146859214Y-143673166D01*
X146866918Y-143597324D01*
X146875420Y-143521526D01*
X146875479Y-143513041D01*
X146875495Y-143512882D01*
X146875481Y-143512734D01*
X146875500Y-143510000D01*
X146875500Y-141033875D01*
X147013377Y-140923019D01*
X147193398Y-140708479D01*
X147279588Y-140551699D01*
X147354118Y-140691868D01*
X147531126Y-140908901D01*
X147746918Y-141087420D01*
X147993275Y-141220625D01*
X148260813Y-141303441D01*
X148539342Y-141332716D01*
X148818252Y-141307333D01*
X149086920Y-141228260D01*
X149335113Y-141098508D01*
X149553377Y-140923019D01*
X149733398Y-140708479D01*
X149819588Y-140551699D01*
X149894118Y-140691868D01*
X150071126Y-140908901D01*
X150286918Y-141087420D01*
X150533275Y-141220625D01*
X150800813Y-141303441D01*
X151079342Y-141332716D01*
X151358252Y-141307333D01*
X151626920Y-141228260D01*
X151875113Y-141098508D01*
X152093377Y-140923019D01*
X152273398Y-140708479D01*
X152408319Y-140463058D01*
X152493002Y-140196104D01*
X152524220Y-139917787D01*
X152524360Y-139897751D01*
X152524360Y-139481929D01*
X152497031Y-139203203D01*
X152416084Y-138935093D01*
X152284602Y-138687812D01*
X152107594Y-138470779D01*
X151891802Y-138292260D01*
X151645445Y-138159055D01*
X151377907Y-138076239D01*
X151099378Y-138046964D01*
X150820468Y-138072347D01*
X150551800Y-138151420D01*
X150303607Y-138281172D01*
X150085343Y-138456661D01*
X149905322Y-138671201D01*
X149819132Y-138827981D01*
X149744602Y-138687812D01*
X149567594Y-138470779D01*
X149351802Y-138292260D01*
X149105445Y-138159055D01*
X148837907Y-138076239D01*
X148559378Y-138046964D01*
X148462352Y-138055794D01*
X145454016Y-135047458D01*
X154825000Y-135047458D01*
X154825000Y-135674250D01*
X154983750Y-135833000D01*
X156333000Y-135833000D01*
X156333000Y-134633750D01*
X156174250Y-134475000D01*
X155397458Y-134475000D01*
X155274777Y-134499403D01*
X155159215Y-134547270D01*
X155055211Y-134616763D01*
X154966763Y-134705211D01*
X154897270Y-134809215D01*
X154849403Y-134924777D01*
X154825000Y-135047458D01*
X145454016Y-135047458D01*
X145184337Y-134777779D01*
X145116339Y-134721924D01*
X145048949Y-134665377D01*
X145044561Y-134662965D01*
X145040690Y-134659785D01*
X144963128Y-134618197D01*
X144886048Y-134575822D01*
X144881275Y-134574308D01*
X144876859Y-134571940D01*
X144792727Y-134546218D01*
X144708854Y-134519612D01*
X144703873Y-134519053D01*
X144699087Y-134517590D01*
X144611585Y-134508702D01*
X144524117Y-134498891D01*
X144514325Y-134498823D01*
X144514143Y-134498804D01*
X144513973Y-134498820D01*
X144510818Y-134498798D01*
X119335836Y-134498798D01*
X117046105Y-132209067D01*
X120382983Y-132209067D01*
X120437324Y-132505150D01*
X120548140Y-132785040D01*
X120711210Y-133038075D01*
X120920322Y-133254617D01*
X121167512Y-133426419D01*
X121443364Y-133546935D01*
X121737371Y-133611577D01*
X122038334Y-133617881D01*
X122334789Y-133565608D01*
X122615446Y-133456748D01*
X122869613Y-133295449D01*
X123087610Y-133087854D01*
X123261132Y-132841869D01*
X123383572Y-132566866D01*
X123450265Y-132273317D01*
X123451162Y-132209067D01*
X129272983Y-132209067D01*
X129327324Y-132505150D01*
X129438140Y-132785040D01*
X129601210Y-133038075D01*
X129810322Y-133254617D01*
X130057512Y-133426419D01*
X130333364Y-133546935D01*
X130627371Y-133611577D01*
X130928334Y-133617881D01*
X131224789Y-133565608D01*
X131505446Y-133456748D01*
X131759613Y-133295449D01*
X131977610Y-133087854D01*
X132151132Y-132841869D01*
X132273572Y-132566866D01*
X132340265Y-132273317D01*
X132345066Y-131929486D01*
X132286595Y-131634190D01*
X132171882Y-131355874D01*
X132005295Y-131105141D01*
X131793180Y-130891540D01*
X131543616Y-130723206D01*
X131266108Y-130606553D01*
X130971228Y-130546023D01*
X130670206Y-130543921D01*
X130374509Y-130600328D01*
X130095400Y-130713096D01*
X129843509Y-130877928D01*
X129628432Y-131088547D01*
X129458361Y-131336930D01*
X129339773Y-131613617D01*
X129277186Y-131908067D01*
X129272983Y-132209067D01*
X123451162Y-132209067D01*
X123455066Y-131929486D01*
X123396595Y-131634190D01*
X123281882Y-131355874D01*
X123115295Y-131105141D01*
X122903180Y-130891540D01*
X122653616Y-130723206D01*
X122376108Y-130606553D01*
X122081228Y-130546023D01*
X121780206Y-130543921D01*
X121484509Y-130600328D01*
X121205400Y-130713096D01*
X120953509Y-130877928D01*
X120738432Y-131088547D01*
X120568361Y-131336930D01*
X120449773Y-131613617D01*
X120387186Y-131908067D01*
X120382983Y-132209067D01*
X117046105Y-132209067D01*
X115964925Y-131127887D01*
X116182482Y-131063857D01*
X116465266Y-130916021D01*
X116713950Y-130716074D01*
X116919061Y-130471632D01*
X117072786Y-130192006D01*
X117169271Y-129887847D01*
X117204841Y-129570739D01*
X117205000Y-129547911D01*
X117205000Y-129532089D01*
X117173862Y-129214516D01*
X117081633Y-128909039D01*
X116931826Y-128627294D01*
X116745689Y-128399067D01*
X120382983Y-128399067D01*
X120437324Y-128695150D01*
X120548140Y-128975040D01*
X120711210Y-129228075D01*
X120920322Y-129444617D01*
X121167512Y-129616419D01*
X121443364Y-129736935D01*
X121737371Y-129801577D01*
X122038334Y-129807881D01*
X122334789Y-129755608D01*
X122615446Y-129646748D01*
X122869613Y-129485449D01*
X123028566Y-129334080D01*
X129925525Y-129334080D01*
X130009208Y-129588261D01*
X130281775Y-129719158D01*
X130574642Y-129794365D01*
X130876553Y-129810991D01*
X131175907Y-129768397D01*
X131461199Y-129668222D01*
X131610792Y-129588261D01*
X131694475Y-129334080D01*
X130810000Y-128449605D01*
X129925525Y-129334080D01*
X123028566Y-129334080D01*
X123087610Y-129277854D01*
X123261132Y-129031869D01*
X123383572Y-128756866D01*
X123450265Y-128463317D01*
X123452035Y-128336553D01*
X129269009Y-128336553D01*
X129311603Y-128635907D01*
X129411778Y-128921199D01*
X129491739Y-129070792D01*
X129745920Y-129154475D01*
X130630395Y-128270000D01*
X130989605Y-128270000D01*
X131874080Y-129154475D01*
X132128261Y-129070792D01*
X132259158Y-128798225D01*
X132334365Y-128505358D01*
X132350991Y-128203447D01*
X132308397Y-127904093D01*
X132208222Y-127618801D01*
X132128261Y-127469208D01*
X131874080Y-127385525D01*
X130989605Y-128270000D01*
X130630395Y-128270000D01*
X129745920Y-127385525D01*
X129491739Y-127469208D01*
X129360842Y-127741775D01*
X129285635Y-128034642D01*
X129269009Y-128336553D01*
X123452035Y-128336553D01*
X123455066Y-128119486D01*
X123396595Y-127824190D01*
X123281882Y-127545874D01*
X123115295Y-127295141D01*
X123026695Y-127205920D01*
X129925525Y-127205920D01*
X130810000Y-128090395D01*
X131694475Y-127205920D01*
X131610792Y-126951739D01*
X131338225Y-126820842D01*
X131045358Y-126745635D01*
X130743447Y-126729009D01*
X130444093Y-126771603D01*
X130158801Y-126871778D01*
X130009208Y-126951739D01*
X129925525Y-127205920D01*
X123026695Y-127205920D01*
X122903180Y-127081540D01*
X122653616Y-126913206D01*
X122376108Y-126796553D01*
X122081228Y-126736023D01*
X121780206Y-126733921D01*
X121484509Y-126790328D01*
X121205400Y-126903096D01*
X120953509Y-127067928D01*
X120738432Y-127278547D01*
X120568361Y-127526930D01*
X120449773Y-127803617D01*
X120387186Y-128098067D01*
X120382983Y-128399067D01*
X116745689Y-128399067D01*
X116730148Y-128380012D01*
X116484280Y-128176613D01*
X116203588Y-128024843D01*
X115898762Y-127930483D01*
X115581414Y-127897129D01*
X115263632Y-127926049D01*
X114957518Y-128016143D01*
X114674734Y-128163979D01*
X114426050Y-128363926D01*
X114299769Y-128514421D01*
X114190148Y-128380012D01*
X113944280Y-128176613D01*
X113663588Y-128024843D01*
X113358762Y-127930483D01*
X113041414Y-127897129D01*
X112723632Y-127926049D01*
X112417518Y-128016143D01*
X112134734Y-128163979D01*
X112045856Y-128235439D01*
X111968100Y-128117441D01*
X111831450Y-128000975D01*
X111667763Y-127927190D01*
X111490000Y-127901928D01*
X109490000Y-127901928D01*
X109388879Y-127909992D01*
X109217366Y-127963106D01*
X109067441Y-128061900D01*
X108950975Y-128198550D01*
X108877190Y-128362237D01*
X108851928Y-128540000D01*
X108851928Y-130540000D01*
X108859992Y-130641121D01*
X108913106Y-130812634D01*
X109011900Y-130962559D01*
X109148550Y-131079025D01*
X109312237Y-131152810D01*
X109490000Y-131178072D01*
X111490000Y-131178072D01*
X111591121Y-131170008D01*
X111762634Y-131116894D01*
X111912559Y-131018100D01*
X112029025Y-130881450D01*
X112045370Y-130845189D01*
X112115720Y-130903387D01*
X112396412Y-131055157D01*
X112701238Y-131149517D01*
X113018586Y-131182871D01*
X113300204Y-131157242D01*
X117530770Y-135387808D01*
X108429846Y-135387808D01*
X104152458Y-131110420D01*
X104292559Y-131018100D01*
X104409025Y-130881450D01*
X104475447Y-130734097D01*
X104549956Y-130939814D01*
X104839571Y-131080704D01*
X105151108Y-131162384D01*
X105472595Y-131181718D01*
X105791675Y-131137961D01*
X106096088Y-131032795D01*
X106270044Y-130939814D01*
X106365808Y-130675413D01*
X105410000Y-129719605D01*
X105395858Y-129733748D01*
X105216253Y-129554143D01*
X105230395Y-129540000D01*
X105589605Y-129540000D01*
X106545413Y-130495808D01*
X106809814Y-130400044D01*
X106950704Y-130110429D01*
X107032384Y-129798892D01*
X107051718Y-129477405D01*
X107007961Y-129158325D01*
X106902795Y-128853912D01*
X106809814Y-128679956D01*
X106545413Y-128584192D01*
X105589605Y-129540000D01*
X105230395Y-129540000D01*
X105216253Y-129525858D01*
X105395858Y-129346253D01*
X105410000Y-129360395D01*
X106365808Y-128404587D01*
X106270044Y-128140186D01*
X105980429Y-127999296D01*
X105668892Y-127917616D01*
X105347405Y-127898282D01*
X105028325Y-127942039D01*
X104723912Y-128047205D01*
X104549956Y-128140186D01*
X104473166Y-128352201D01*
X104446894Y-128267366D01*
X104348100Y-128117441D01*
X104211450Y-128000975D01*
X104047763Y-127927190D01*
X103870000Y-127901928D01*
X102161355Y-127901928D01*
X102137839Y-127857701D01*
X102097333Y-127779557D01*
X102094205Y-127775638D01*
X102091856Y-127771221D01*
X102036281Y-127703079D01*
X101981356Y-127634276D01*
X101974483Y-127627306D01*
X101974365Y-127627162D01*
X101974232Y-127627052D01*
X101972018Y-127624807D01*
X97807211Y-123460000D01*
X100161928Y-123460000D01*
X100161928Y-125460000D01*
X100169992Y-125561121D01*
X100223106Y-125732634D01*
X100321900Y-125882559D01*
X100458550Y-125999025D01*
X100622237Y-126072810D01*
X100800000Y-126098072D01*
X102400000Y-126098072D01*
X102501121Y-126090008D01*
X102672634Y-126036894D01*
X102822559Y-125938100D01*
X102939025Y-125801450D01*
X103012810Y-125637763D01*
X103023980Y-125559163D01*
X103121766Y-125679061D01*
X103337558Y-125857580D01*
X103583915Y-125990785D01*
X103851453Y-126073601D01*
X104129982Y-126102876D01*
X104227007Y-126094046D01*
X104901480Y-126768519D01*
X104969477Y-126824372D01*
X105036869Y-126880921D01*
X105041261Y-126883335D01*
X105045128Y-126886512D01*
X105122651Y-126928080D01*
X105199770Y-126970476D01*
X105204543Y-126971990D01*
X105208959Y-126974358D01*
X105293050Y-127000067D01*
X105376964Y-127026686D01*
X105381950Y-127027245D01*
X105386731Y-127028707D01*
X105474183Y-127037591D01*
X105561701Y-127047407D01*
X105571493Y-127047475D01*
X105571675Y-127047494D01*
X105571845Y-127047478D01*
X105575000Y-127047500D01*
X112865000Y-127047500D01*
X112952601Y-127038911D01*
X113040214Y-127031246D01*
X113045023Y-127029849D01*
X113050008Y-127029360D01*
X113134239Y-127003929D01*
X113218727Y-126979383D01*
X113223174Y-126977078D01*
X113227970Y-126975630D01*
X113305625Y-126934340D01*
X113383769Y-126893834D01*
X113387688Y-126890706D01*
X113392105Y-126888357D01*
X113460247Y-126832782D01*
X113529050Y-126777857D01*
X113536020Y-126770984D01*
X113536164Y-126770866D01*
X113536274Y-126770733D01*
X113538519Y-126768519D01*
X114212325Y-126094714D01*
X114289982Y-126102876D01*
X114321583Y-126100000D01*
X134351928Y-126100000D01*
X134351928Y-127900000D01*
X134359992Y-128001121D01*
X134413106Y-128172634D01*
X134511900Y-128322559D01*
X134648550Y-128439025D01*
X134738172Y-128479424D01*
X134708432Y-128508547D01*
X134538361Y-128756930D01*
X134419773Y-129033617D01*
X134357186Y-129328067D01*
X134352983Y-129629067D01*
X134407324Y-129925150D01*
X134518140Y-130205040D01*
X134681210Y-130458075D01*
X134890322Y-130674617D01*
X135137512Y-130846419D01*
X135413364Y-130966935D01*
X135707371Y-131031577D01*
X136008334Y-131037881D01*
X136304789Y-130985608D01*
X136585446Y-130876748D01*
X136839613Y-130715449D01*
X137057610Y-130507854D01*
X137231132Y-130261869D01*
X137353572Y-129986866D01*
X137420265Y-129693317D01*
X137425066Y-129349486D01*
X137366595Y-129054190D01*
X137251882Y-128775874D01*
X137085295Y-128525141D01*
X137043322Y-128482874D01*
X137062634Y-128476894D01*
X137212559Y-128378100D01*
X137329025Y-128241450D01*
X137402810Y-128077763D01*
X137428072Y-127900000D01*
X137428072Y-126100000D01*
X141971928Y-126100000D01*
X141971928Y-127900000D01*
X141979992Y-128001121D01*
X142033106Y-128172634D01*
X142131900Y-128322559D01*
X142268550Y-128439025D01*
X142358172Y-128479424D01*
X142328432Y-128508547D01*
X142158361Y-128756930D01*
X142039773Y-129033617D01*
X141977186Y-129328067D01*
X141972983Y-129629067D01*
X142027324Y-129925150D01*
X142138140Y-130205040D01*
X142301210Y-130458075D01*
X142510322Y-130674617D01*
X142757512Y-130846419D01*
X143033364Y-130966935D01*
X143327371Y-131031577D01*
X143628334Y-131037881D01*
X143924789Y-130985608D01*
X144205446Y-130876748D01*
X144459613Y-130715449D01*
X144677610Y-130507854D01*
X144851132Y-130261869D01*
X144973572Y-129986866D01*
X145040265Y-129693317D01*
X145045066Y-129349486D01*
X144986595Y-129054190D01*
X144937177Y-128934292D01*
X148562588Y-128934292D01*
X148627550Y-129288242D01*
X148760024Y-129622833D01*
X148954964Y-129925321D01*
X149204945Y-130184184D01*
X149500446Y-130389563D01*
X149830210Y-130533633D01*
X150181677Y-130610908D01*
X150541461Y-130618445D01*
X150895856Y-130555955D01*
X151231364Y-130425820D01*
X151535205Y-130232996D01*
X151795807Y-129984829D01*
X152003243Y-129690769D01*
X152149613Y-129362019D01*
X152229339Y-129011099D01*
X152230411Y-128934292D01*
X152362588Y-128934292D01*
X152427550Y-129288242D01*
X152560024Y-129622833D01*
X152754964Y-129925321D01*
X153004945Y-130184184D01*
X153300446Y-130389563D01*
X153630210Y-130533633D01*
X153981677Y-130610908D01*
X154341461Y-130618445D01*
X154695856Y-130555955D01*
X155031364Y-130425820D01*
X155335205Y-130232996D01*
X155518990Y-130057980D01*
X156901626Y-130057980D01*
X157021514Y-130342836D01*
X157345210Y-130503699D01*
X157694069Y-130598322D01*
X158054684Y-130623067D01*
X158413198Y-130576985D01*
X158755833Y-130461846D01*
X158978486Y-130342836D01*
X159098374Y-130057980D01*
X158000000Y-128959605D01*
X156901626Y-130057980D01*
X155518990Y-130057980D01*
X155595807Y-129984829D01*
X155803243Y-129690769D01*
X155949613Y-129362019D01*
X156029339Y-129011099D01*
X156031802Y-128834684D01*
X156156933Y-128834684D01*
X156203015Y-129193198D01*
X156318154Y-129535833D01*
X156437164Y-129758486D01*
X156722020Y-129878374D01*
X157820395Y-128780000D01*
X156722020Y-127681626D01*
X156437164Y-127801514D01*
X156276301Y-128125210D01*
X156181678Y-128474069D01*
X156156933Y-128834684D01*
X156031802Y-128834684D01*
X156035079Y-128600069D01*
X155965181Y-128247060D01*
X155828049Y-127914351D01*
X155628904Y-127614614D01*
X155517094Y-127502020D01*
X156901626Y-127502020D01*
X158000000Y-128600395D01*
X159098374Y-127502020D01*
X158978486Y-127217164D01*
X158654790Y-127056301D01*
X158305931Y-126961678D01*
X157945316Y-126936933D01*
X157586802Y-126983015D01*
X157244167Y-127098154D01*
X157021514Y-127217164D01*
X156901626Y-127502020D01*
X155517094Y-127502020D01*
X155375333Y-127359267D01*
X155076993Y-127158034D01*
X154745250Y-127018582D01*
X154392738Y-126946222D01*
X154032884Y-126943710D01*
X153679397Y-127011141D01*
X153345738Y-127145948D01*
X153044618Y-127342995D01*
X152787507Y-127594777D01*
X152584197Y-127891705D01*
X152442432Y-128222467D01*
X152367612Y-128574465D01*
X152362588Y-128934292D01*
X152230411Y-128934292D01*
X152235079Y-128600069D01*
X152165181Y-128247060D01*
X152028049Y-127914351D01*
X151828904Y-127614614D01*
X151575333Y-127359267D01*
X151276993Y-127158034D01*
X150945250Y-127018582D01*
X150592738Y-126946222D01*
X150232884Y-126943710D01*
X149879397Y-127011141D01*
X149545738Y-127145948D01*
X149244618Y-127342995D01*
X148987507Y-127594777D01*
X148784197Y-127891705D01*
X148642432Y-128222467D01*
X148567612Y-128574465D01*
X148562588Y-128934292D01*
X144937177Y-128934292D01*
X144871882Y-128775874D01*
X144705295Y-128525141D01*
X144663322Y-128482874D01*
X144682634Y-128476894D01*
X144832559Y-128378100D01*
X144949025Y-128241450D01*
X145022810Y-128077763D01*
X145048072Y-127900000D01*
X145048072Y-126100000D01*
X145040008Y-125998879D01*
X144986894Y-125827366D01*
X144888100Y-125677441D01*
X144751450Y-125560975D01*
X144587763Y-125487190D01*
X144410000Y-125461928D01*
X142610000Y-125461928D01*
X142508879Y-125469992D01*
X142337366Y-125523106D01*
X142187441Y-125621900D01*
X142070975Y-125758550D01*
X141997190Y-125922237D01*
X141971928Y-126100000D01*
X137428072Y-126100000D01*
X137420008Y-125998879D01*
X137366894Y-125827366D01*
X137268100Y-125677441D01*
X137131450Y-125560975D01*
X136967763Y-125487190D01*
X136790000Y-125461928D01*
X134990000Y-125461928D01*
X134888879Y-125469992D01*
X134717366Y-125523106D01*
X134567441Y-125621900D01*
X134450975Y-125758550D01*
X134377190Y-125922237D01*
X134351928Y-126100000D01*
X114321583Y-126100000D01*
X114568892Y-126077493D01*
X114837560Y-125998420D01*
X115085753Y-125868668D01*
X115304017Y-125693179D01*
X115484038Y-125478639D01*
X115566695Y-125328287D01*
X115575570Y-125349227D01*
X115734327Y-125582662D01*
X115935575Y-125780639D01*
X116171579Y-125935551D01*
X116433270Y-126041444D01*
X116490961Y-126051904D01*
X116713000Y-125929915D01*
X116713000Y-124587000D01*
X116967000Y-124587000D01*
X116967000Y-125929915D01*
X117189039Y-126051904D01*
X117246730Y-126041444D01*
X117508421Y-125935551D01*
X117744425Y-125780639D01*
X117945673Y-125582662D01*
X118104430Y-125349227D01*
X118214596Y-125089306D01*
X118271937Y-124812887D01*
X118119474Y-124587000D01*
X116967000Y-124587000D01*
X116713000Y-124587000D01*
X116693000Y-124587000D01*
X116693000Y-124333000D01*
X116713000Y-124333000D01*
X116713000Y-122990085D01*
X116967000Y-122990085D01*
X116967000Y-124333000D01*
X118119474Y-124333000D01*
X118271937Y-124107113D01*
X118214596Y-123830694D01*
X118104430Y-123570773D01*
X117945673Y-123337338D01*
X117744425Y-123139361D01*
X117508421Y-122984449D01*
X117246730Y-122878556D01*
X117189039Y-122868096D01*
X116967000Y-122990085D01*
X116713000Y-122990085D01*
X116490961Y-122868096D01*
X116433270Y-122878556D01*
X116171579Y-122984449D01*
X115935575Y-123139361D01*
X115734327Y-123337338D01*
X115575570Y-123570773D01*
X115566543Y-123592070D01*
X115495242Y-123457972D01*
X115318234Y-123240939D01*
X115102442Y-123062420D01*
X114856085Y-122929215D01*
X114588547Y-122846399D01*
X114310018Y-122817124D01*
X114031108Y-122842507D01*
X113762440Y-122921580D01*
X113514247Y-123051332D01*
X113295983Y-123226821D01*
X113115962Y-123441361D01*
X113029772Y-123598141D01*
X112955242Y-123457972D01*
X112778234Y-123240939D01*
X112562442Y-123062420D01*
X112316085Y-122929215D01*
X112048547Y-122846399D01*
X111999778Y-122841273D01*
X112023026Y-122818025D01*
X112180351Y-122626495D01*
X112297476Y-122408055D01*
X112369944Y-122171025D01*
X112394992Y-121924433D01*
X112371667Y-121677672D01*
X112300856Y-121440142D01*
X112185257Y-121220889D01*
X112029273Y-121028265D01*
X111838846Y-120869608D01*
X111672783Y-120779067D01*
X120382983Y-120779067D01*
X120437324Y-121075150D01*
X120548140Y-121355040D01*
X120711210Y-121608075D01*
X120920322Y-121824617D01*
X120967500Y-121857407D01*
X120967500Y-123248773D01*
X120953509Y-123257928D01*
X120738432Y-123468547D01*
X120568361Y-123716930D01*
X120449773Y-123993617D01*
X120387186Y-124288067D01*
X120382983Y-124589067D01*
X120437324Y-124885150D01*
X120548140Y-125165040D01*
X120711210Y-125418075D01*
X120920322Y-125634617D01*
X121167512Y-125806419D01*
X121443364Y-125926935D01*
X121737371Y-125991577D01*
X122038334Y-125997881D01*
X122334789Y-125945608D01*
X122615446Y-125836748D01*
X122869613Y-125675449D01*
X123087610Y-125467854D01*
X123261132Y-125221869D01*
X123383572Y-124946866D01*
X123450265Y-124653317D01*
X123451162Y-124589067D01*
X129272983Y-124589067D01*
X129327324Y-124885150D01*
X129438140Y-125165040D01*
X129601210Y-125418075D01*
X129810322Y-125634617D01*
X130057512Y-125806419D01*
X130333364Y-125926935D01*
X130627371Y-125991577D01*
X130928334Y-125997881D01*
X131224789Y-125945608D01*
X131505446Y-125836748D01*
X131759613Y-125675449D01*
X131977610Y-125467854D01*
X132151132Y-125221869D01*
X132273572Y-124946866D01*
X132340265Y-124653317D01*
X132345066Y-124309486D01*
X132286595Y-124014190D01*
X132171882Y-123735874D01*
X132005295Y-123485141D01*
X131793180Y-123271540D01*
X131543616Y-123103206D01*
X131266108Y-122986553D01*
X130971228Y-122926023D01*
X130670206Y-122923921D01*
X130374509Y-122980328D01*
X130095400Y-123093096D01*
X129843509Y-123257928D01*
X129628432Y-123468547D01*
X129458361Y-123716930D01*
X129339773Y-123993617D01*
X129277186Y-124288067D01*
X129272983Y-124589067D01*
X123451162Y-124589067D01*
X123455066Y-124309486D01*
X123396595Y-124014190D01*
X123281882Y-123735874D01*
X123115295Y-123485141D01*
X122903180Y-123271540D01*
X122872500Y-123250846D01*
X122872500Y-121862700D01*
X123087610Y-121657854D01*
X123261132Y-121411869D01*
X123383572Y-121136866D01*
X123450265Y-120843317D01*
X123451162Y-120779067D01*
X129272983Y-120779067D01*
X129327324Y-121075150D01*
X129438140Y-121355040D01*
X129601210Y-121608075D01*
X129810322Y-121824617D01*
X130057512Y-121996419D01*
X130333364Y-122116935D01*
X130627371Y-122181577D01*
X130928334Y-122187881D01*
X131224789Y-122135608D01*
X131505446Y-122026748D01*
X131759613Y-121865449D01*
X131977610Y-121657854D01*
X132151132Y-121411869D01*
X132273572Y-121136866D01*
X132340265Y-120843317D01*
X132341162Y-120779067D01*
X133717983Y-120779067D01*
X133772324Y-121075150D01*
X133883140Y-121355040D01*
X134046210Y-121608075D01*
X134255322Y-121824617D01*
X134502512Y-121996419D01*
X134778364Y-122116935D01*
X135072371Y-122181577D01*
X135373334Y-122187881D01*
X135669789Y-122135608D01*
X135950446Y-122026748D01*
X136204613Y-121865449D01*
X136422610Y-121657854D01*
X136596132Y-121411869D01*
X136718572Y-121136866D01*
X136785265Y-120843317D01*
X136786162Y-120779067D01*
X142607983Y-120779067D01*
X142662324Y-121075150D01*
X142773140Y-121355040D01*
X142936210Y-121608075D01*
X143145322Y-121824617D01*
X143392512Y-121996419D01*
X143668364Y-122116935D01*
X143962371Y-122181577D01*
X144263334Y-122187881D01*
X144559789Y-122135608D01*
X144840446Y-122026748D01*
X145094613Y-121865449D01*
X145312610Y-121657854D01*
X145486132Y-121411869D01*
X145608572Y-121136866D01*
X145675265Y-120843317D01*
X145680066Y-120499486D01*
X145621595Y-120204190D01*
X145506882Y-119925874D01*
X145340295Y-119675141D01*
X145200426Y-119534292D01*
X148562588Y-119534292D01*
X148627550Y-119888242D01*
X148760024Y-120222833D01*
X148954964Y-120525321D01*
X149204945Y-120784184D01*
X149500446Y-120989563D01*
X149830210Y-121133633D01*
X150181677Y-121210908D01*
X150541461Y-121218445D01*
X150895856Y-121155955D01*
X151231364Y-121025820D01*
X151535205Y-120832996D01*
X151795807Y-120584829D01*
X152003243Y-120290769D01*
X152149613Y-119962019D01*
X152229339Y-119611099D01*
X152230411Y-119534292D01*
X152362588Y-119534292D01*
X152427550Y-119888242D01*
X152560024Y-120222833D01*
X152754964Y-120525321D01*
X153004945Y-120784184D01*
X153300446Y-120989563D01*
X153630210Y-121133633D01*
X153981677Y-121210908D01*
X154341461Y-121218445D01*
X154695856Y-121155955D01*
X155031364Y-121025820D01*
X155335205Y-120832996D01*
X155518990Y-120657980D01*
X156901626Y-120657980D01*
X157021514Y-120942836D01*
X157345210Y-121103699D01*
X157694069Y-121198322D01*
X158054684Y-121223067D01*
X158413198Y-121176985D01*
X158755833Y-121061846D01*
X158978486Y-120942836D01*
X159098374Y-120657980D01*
X158000000Y-119559605D01*
X156901626Y-120657980D01*
X155518990Y-120657980D01*
X155595807Y-120584829D01*
X155803243Y-120290769D01*
X155949613Y-119962019D01*
X156029339Y-119611099D01*
X156031802Y-119434684D01*
X156156933Y-119434684D01*
X156203015Y-119793198D01*
X156318154Y-120135833D01*
X156437164Y-120358486D01*
X156722020Y-120478374D01*
X157820395Y-119380000D01*
X156722020Y-118281626D01*
X156437164Y-118401514D01*
X156276301Y-118725210D01*
X156181678Y-119074069D01*
X156156933Y-119434684D01*
X156031802Y-119434684D01*
X156035079Y-119200069D01*
X155965181Y-118847060D01*
X155828049Y-118514351D01*
X155628904Y-118214614D01*
X155517094Y-118102020D01*
X156901626Y-118102020D01*
X158000000Y-119200395D01*
X159098374Y-118102020D01*
X158978486Y-117817164D01*
X158654790Y-117656301D01*
X158305931Y-117561678D01*
X157945316Y-117536933D01*
X157586802Y-117583015D01*
X157244167Y-117698154D01*
X157021514Y-117817164D01*
X156901626Y-118102020D01*
X155517094Y-118102020D01*
X155375333Y-117959267D01*
X155076993Y-117758034D01*
X154745250Y-117618582D01*
X154392738Y-117546222D01*
X154032884Y-117543710D01*
X153679397Y-117611141D01*
X153345738Y-117745948D01*
X153044618Y-117942995D01*
X152787507Y-118194777D01*
X152584197Y-118491705D01*
X152442432Y-118822467D01*
X152367612Y-119174465D01*
X152362588Y-119534292D01*
X152230411Y-119534292D01*
X152235079Y-119200069D01*
X152165181Y-118847060D01*
X152028049Y-118514351D01*
X151828904Y-118214614D01*
X151575333Y-117959267D01*
X151276993Y-117758034D01*
X150945250Y-117618582D01*
X150592738Y-117546222D01*
X150232884Y-117543710D01*
X149879397Y-117611141D01*
X149545738Y-117745948D01*
X149244618Y-117942995D01*
X148987507Y-118194777D01*
X148784197Y-118491705D01*
X148642432Y-118822467D01*
X148567612Y-119174465D01*
X148562588Y-119534292D01*
X145200426Y-119534292D01*
X145128180Y-119461540D01*
X144878616Y-119293206D01*
X144601108Y-119176553D01*
X144306228Y-119116023D01*
X144005206Y-119113921D01*
X143709509Y-119170328D01*
X143430400Y-119283096D01*
X143178509Y-119447928D01*
X142963432Y-119658547D01*
X142793361Y-119906930D01*
X142674773Y-120183617D01*
X142612186Y-120478067D01*
X142607983Y-120779067D01*
X136786162Y-120779067D01*
X136790066Y-120499486D01*
X136731595Y-120204190D01*
X136616882Y-119925874D01*
X136450295Y-119675141D01*
X136238180Y-119461540D01*
X135988616Y-119293206D01*
X135711108Y-119176553D01*
X135416228Y-119116023D01*
X135115206Y-119113921D01*
X134819509Y-119170328D01*
X134540400Y-119283096D01*
X134288509Y-119447928D01*
X134073432Y-119658547D01*
X133903361Y-119906930D01*
X133784773Y-120183617D01*
X133722186Y-120478067D01*
X133717983Y-120779067D01*
X132341162Y-120779067D01*
X132345066Y-120499486D01*
X132286595Y-120204190D01*
X132171882Y-119925874D01*
X132005295Y-119675141D01*
X131793180Y-119461540D01*
X131543616Y-119293206D01*
X131266108Y-119176553D01*
X130971228Y-119116023D01*
X130670206Y-119113921D01*
X130374509Y-119170328D01*
X130095400Y-119283096D01*
X129843509Y-119447928D01*
X129628432Y-119658547D01*
X129458361Y-119906930D01*
X129339773Y-120183617D01*
X129277186Y-120478067D01*
X129272983Y-120779067D01*
X123451162Y-120779067D01*
X123455066Y-120499486D01*
X123396595Y-120204190D01*
X123281882Y-119925874D01*
X123115295Y-119675141D01*
X122903180Y-119461540D01*
X122653616Y-119293206D01*
X122376108Y-119176553D01*
X122081228Y-119116023D01*
X121780206Y-119113921D01*
X121484509Y-119170328D01*
X121205400Y-119283096D01*
X120953509Y-119447928D01*
X120738432Y-119658547D01*
X120568361Y-119906930D01*
X120449773Y-120183617D01*
X120387186Y-120478067D01*
X120382983Y-120779067D01*
X111672783Y-120779067D01*
X111621229Y-120750959D01*
X111384711Y-120676838D01*
X111138299Y-120650070D01*
X110891382Y-120671672D01*
X110653363Y-120740823D01*
X110433309Y-120854888D01*
X110239601Y-121009524D01*
X110226975Y-121021974D01*
X108321974Y-122926974D01*
X108247466Y-123017682D01*
X108172106Y-123107492D01*
X108168890Y-123113342D01*
X108164649Y-123118505D01*
X108109219Y-123221883D01*
X108052698Y-123324694D01*
X108050677Y-123331064D01*
X108047524Y-123336945D01*
X108013238Y-123449088D01*
X107988034Y-123528542D01*
X107949772Y-123598141D01*
X107875242Y-123457972D01*
X107698234Y-123240939D01*
X107482442Y-123062420D01*
X107236085Y-122929215D01*
X106968547Y-122846399D01*
X106690018Y-122817124D01*
X106411108Y-122842507D01*
X106142440Y-122921580D01*
X105894247Y-123051332D01*
X105675983Y-123226821D01*
X105495962Y-123441361D01*
X105409772Y-123598141D01*
X105335242Y-123457972D01*
X105158234Y-123240939D01*
X104942442Y-123062420D01*
X104696085Y-122929215D01*
X104428547Y-122846399D01*
X104150018Y-122817124D01*
X103871108Y-122842507D01*
X103602440Y-122921580D01*
X103354247Y-123051332D01*
X103135983Y-123226821D01*
X103028705Y-123354670D01*
X102976894Y-123187366D01*
X102878100Y-123037441D01*
X102741450Y-122920975D01*
X102577763Y-122847190D01*
X102400000Y-122821928D01*
X100800000Y-122821928D01*
X100698879Y-122829992D01*
X100527366Y-122883106D01*
X100377441Y-122981900D01*
X100260975Y-123118550D01*
X100187190Y-123282237D01*
X100161928Y-123460000D01*
X97807211Y-123460000D01*
X94751291Y-120404080D01*
X96905525Y-120404080D01*
X96989208Y-120658261D01*
X97261775Y-120789158D01*
X97554642Y-120864365D01*
X97856553Y-120880991D01*
X98155907Y-120838397D01*
X98441199Y-120738222D01*
X98590792Y-120658261D01*
X98674475Y-120404080D01*
X97790000Y-119519605D01*
X96905525Y-120404080D01*
X94751291Y-120404080D01*
X93790280Y-119443069D01*
X93745826Y-119406553D01*
X96249009Y-119406553D01*
X96291603Y-119705907D01*
X96391778Y-119991199D01*
X96471739Y-120140792D01*
X96725920Y-120224475D01*
X97610395Y-119340000D01*
X97969605Y-119340000D01*
X98854080Y-120224475D01*
X99108261Y-120140792D01*
X99239158Y-119868225D01*
X99314365Y-119575358D01*
X99330991Y-119273447D01*
X99288397Y-118974093D01*
X99188222Y-118688801D01*
X99108261Y-118539208D01*
X98854080Y-118455525D01*
X97969605Y-119340000D01*
X97610395Y-119340000D01*
X96725920Y-118455525D01*
X96471739Y-118539208D01*
X96340842Y-118811775D01*
X96265635Y-119104642D01*
X96249009Y-119406553D01*
X93745826Y-119406553D01*
X93722282Y-119387214D01*
X93654892Y-119330667D01*
X93650504Y-119328255D01*
X93646633Y-119325075D01*
X93569071Y-119283487D01*
X93491991Y-119241112D01*
X93487218Y-119239598D01*
X93482802Y-119237230D01*
X93398670Y-119211508D01*
X93314797Y-119184902D01*
X93309816Y-119184343D01*
X93305030Y-119182880D01*
X93217528Y-119173992D01*
X93130060Y-119164181D01*
X93120268Y-119164113D01*
X93120086Y-119164094D01*
X93119916Y-119164110D01*
X93116761Y-119164088D01*
X91932950Y-119164088D01*
X92622324Y-118474714D01*
X92699982Y-118482876D01*
X92978892Y-118457493D01*
X93247560Y-118378420D01*
X93495753Y-118248668D01*
X93714017Y-118073179D01*
X93894038Y-117858639D01*
X94028959Y-117613218D01*
X94113642Y-117346264D01*
X94144860Y-117067947D01*
X94145000Y-117047911D01*
X94145000Y-116969067D01*
X96252983Y-116969067D01*
X96307324Y-117265150D01*
X96418140Y-117545040D01*
X96581210Y-117798075D01*
X96790322Y-118014617D01*
X96954082Y-118128433D01*
X96905525Y-118275920D01*
X97790000Y-119160395D01*
X98674475Y-118275920D01*
X98625692Y-118127745D01*
X98739613Y-118055449D01*
X98957610Y-117847854D01*
X99131132Y-117601869D01*
X99253572Y-117326866D01*
X99320265Y-117033317D01*
X99325066Y-116689486D01*
X99266595Y-116394190D01*
X99151882Y-116115874D01*
X98985295Y-115865141D01*
X98773180Y-115651540D01*
X98523616Y-115483206D01*
X98246108Y-115366553D01*
X97951228Y-115306023D01*
X97650206Y-115303921D01*
X97354509Y-115360328D01*
X97075400Y-115473096D01*
X96823509Y-115637928D01*
X96608432Y-115848547D01*
X96438361Y-116096930D01*
X96319773Y-116373617D01*
X96257186Y-116668067D01*
X96252983Y-116969067D01*
X94145000Y-116969067D01*
X94145000Y-116632089D01*
X94117671Y-116353363D01*
X94036724Y-116085253D01*
X93905242Y-115837972D01*
X93728234Y-115620939D01*
X93512442Y-115442420D01*
X93266085Y-115309215D01*
X92998547Y-115226399D01*
X92842523Y-115210000D01*
X101468536Y-115210000D01*
X101331108Y-115222507D01*
G36*
X88260960Y-121872500D02*
X83985000Y-121872500D01*
X83897399Y-121881089D01*
X83809786Y-121888754D01*
X83804977Y-121890151D01*
X83799992Y-121890640D01*
X83715729Y-121916081D01*
X83631272Y-121940618D01*
X83626829Y-121942921D01*
X83622030Y-121944370D01*
X83544358Y-121985669D01*
X83466231Y-122026166D01*
X83462312Y-122029294D01*
X83457895Y-122031643D01*
X83389753Y-122087218D01*
X83320950Y-122142143D01*
X83313976Y-122149020D01*
X83313836Y-122149134D01*
X83313729Y-122149263D01*
X83311480Y-122151481D01*
X82637675Y-122825286D01*
X82560018Y-122817124D01*
X82281108Y-122842507D01*
X82012440Y-122921580D01*
X81764247Y-123051332D01*
X81545983Y-123226821D01*
X81365962Y-123441361D01*
X81279772Y-123598141D01*
X81205242Y-123457972D01*
X81028234Y-123240939D01*
X80812442Y-123062420D01*
X80566085Y-122929215D01*
X80298547Y-122846399D01*
X80020018Y-122817124D01*
X79741108Y-122842507D01*
X79472440Y-122921580D01*
X79224247Y-123051332D01*
X79005983Y-123226821D01*
X78898705Y-123354670D01*
X78846894Y-123187366D01*
X78748100Y-123037441D01*
X78611450Y-122920975D01*
X78447763Y-122847190D01*
X78270000Y-122821928D01*
X76670000Y-122821928D01*
X76568879Y-122829992D01*
X76397366Y-122883106D01*
X76247441Y-122981900D01*
X76130975Y-123118550D01*
X76057190Y-123282237D01*
X76031928Y-123460000D01*
X76031928Y-125460000D01*
X76039992Y-125561121D01*
X76093106Y-125732634D01*
X76191900Y-125882559D01*
X76328550Y-125999025D01*
X76492237Y-126072810D01*
X76670000Y-126098072D01*
X78270000Y-126098072D01*
X78371121Y-126090008D01*
X78542634Y-126036894D01*
X78692559Y-125938100D01*
X78809025Y-125801450D01*
X78882810Y-125637763D01*
X78893980Y-125559163D01*
X78991766Y-125679061D01*
X79207558Y-125857580D01*
X79453915Y-125990785D01*
X79721453Y-126073601D01*
X79999982Y-126102876D01*
X80278892Y-126077493D01*
X80547560Y-125998420D01*
X80795753Y-125868668D01*
X81014017Y-125693179D01*
X81194038Y-125478639D01*
X81280228Y-125321859D01*
X81354758Y-125462028D01*
X81531766Y-125679061D01*
X81747558Y-125857580D01*
X81993915Y-125990785D01*
X82261453Y-126073601D01*
X82539982Y-126102876D01*
X82818892Y-126077493D01*
X83087560Y-125998420D01*
X83335753Y-125868668D01*
X83554017Y-125693179D01*
X83734038Y-125478639D01*
X83820228Y-125321859D01*
X83894758Y-125462028D01*
X84071766Y-125679061D01*
X84287558Y-125857580D01*
X84533915Y-125990785D01*
X84700585Y-126042377D01*
X84416481Y-126326481D01*
X84360626Y-126394479D01*
X84304079Y-126461869D01*
X84301667Y-126466257D01*
X84298487Y-126470128D01*
X84256899Y-126547690D01*
X84214524Y-126624770D01*
X84213010Y-126629543D01*
X84210642Y-126633959D01*
X84184920Y-126718091D01*
X84158314Y-126801964D01*
X84157755Y-126806945D01*
X84156292Y-126811731D01*
X84147404Y-126899233D01*
X84137593Y-126986701D01*
X84137525Y-126996493D01*
X84137506Y-126996675D01*
X84137522Y-126996845D01*
X84137500Y-127000000D01*
X84137500Y-128265400D01*
X84085983Y-128306821D01*
X83905962Y-128521361D01*
X83819772Y-128678141D01*
X83745242Y-128537972D01*
X83568234Y-128320939D01*
X83352442Y-128142420D01*
X83106085Y-128009215D01*
X82838547Y-127926399D01*
X82560018Y-127897124D01*
X82281108Y-127922507D01*
X82012440Y-128001580D01*
X81764247Y-128131332D01*
X81545983Y-128306821D01*
X81365962Y-128521361D01*
X81279772Y-128678141D01*
X81205242Y-128537972D01*
X81028234Y-128320939D01*
X80812442Y-128142420D01*
X80566085Y-128009215D01*
X80298547Y-127926399D01*
X80020018Y-127897124D01*
X79741108Y-127922507D01*
X79472440Y-128001580D01*
X79224247Y-128131332D01*
X79005983Y-128306821D01*
X78825962Y-128521361D01*
X78739772Y-128678141D01*
X78665242Y-128537972D01*
X78488234Y-128320939D01*
X78272442Y-128142420D01*
X78026085Y-128009215D01*
X77758547Y-127926399D01*
X77480018Y-127897124D01*
X77201108Y-127922507D01*
X76932440Y-128001580D01*
X76684247Y-128131332D01*
X76465983Y-128306821D01*
X76285962Y-128521361D01*
X76199772Y-128678141D01*
X76125242Y-128537972D01*
X75948234Y-128320939D01*
X75732442Y-128142420D01*
X75486085Y-128009215D01*
X75218547Y-127926399D01*
X74940018Y-127897124D01*
X74661108Y-127922507D01*
X74392440Y-128001580D01*
X74144247Y-128131332D01*
X73925983Y-128306821D01*
X73745962Y-128521361D01*
X73611041Y-128766782D01*
X73526358Y-129033736D01*
X73495140Y-129312053D01*
X73495000Y-129332089D01*
X73495000Y-129747911D01*
X73522329Y-130026637D01*
X73603276Y-130294747D01*
X73734758Y-130542028D01*
X73911766Y-130759061D01*
X74127558Y-130937580D01*
X74373915Y-131070785D01*
X74641453Y-131153601D01*
X74919982Y-131182876D01*
X75198892Y-131157493D01*
X75467560Y-131078420D01*
X75715753Y-130948668D01*
X75934017Y-130773179D01*
X76114038Y-130558639D01*
X76200228Y-130401859D01*
X76274758Y-130542028D01*
X76451766Y-130759061D01*
X76667558Y-130937580D01*
X76913915Y-131070785D01*
X77181453Y-131153601D01*
X77459982Y-131182876D01*
X77738892Y-131157493D01*
X78007560Y-131078420D01*
X78255753Y-130948668D01*
X78474017Y-130773179D01*
X78654038Y-130558639D01*
X78740228Y-130401859D01*
X78814758Y-130542028D01*
X78991766Y-130759061D01*
X79207558Y-130937580D01*
X79453915Y-131070785D01*
X79721453Y-131153601D01*
X79999982Y-131182876D01*
X80278892Y-131157493D01*
X80547560Y-131078420D01*
X80795753Y-130948668D01*
X81014017Y-130773179D01*
X81194038Y-130558639D01*
X81280228Y-130401859D01*
X81354758Y-130542028D01*
X81531766Y-130759061D01*
X81747558Y-130937580D01*
X81993915Y-131070785D01*
X82261453Y-131153601D01*
X82539982Y-131182876D01*
X82818892Y-131157493D01*
X83087560Y-131078420D01*
X83335753Y-130948668D01*
X83554017Y-130773179D01*
X83734038Y-130558639D01*
X83820228Y-130401859D01*
X83894758Y-130542028D01*
X84071766Y-130759061D01*
X84287558Y-130937580D01*
X84533915Y-131070785D01*
X84801453Y-131153601D01*
X85079982Y-131182876D01*
X85358892Y-131157493D01*
X85627560Y-131078420D01*
X85875753Y-130948668D01*
X86094017Y-130773179D01*
X86274038Y-130558639D01*
X86360228Y-130401859D01*
X86434758Y-130542028D01*
X86611766Y-130759061D01*
X86827558Y-130937580D01*
X87073915Y-131070785D01*
X87341453Y-131153601D01*
X87619982Y-131182876D01*
X87898892Y-131157493D01*
X88167560Y-131078420D01*
X88415753Y-130948668D01*
X88634017Y-130773179D01*
X88814038Y-130558639D01*
X88900228Y-130401859D01*
X88974758Y-130542028D01*
X89151766Y-130759061D01*
X89367558Y-130937580D01*
X89613915Y-131070785D01*
X89881453Y-131153601D01*
X90159982Y-131182876D01*
X90438892Y-131157493D01*
X90707560Y-131078420D01*
X90955753Y-130948668D01*
X91174017Y-130773179D01*
X91354038Y-130558639D01*
X91440228Y-130401859D01*
X91514758Y-130542028D01*
X91691766Y-130759061D01*
X91907558Y-130937580D01*
X92153915Y-131070785D01*
X92421453Y-131153601D01*
X92699982Y-131182876D01*
X92978892Y-131157493D01*
X93247560Y-131078420D01*
X93495753Y-130948668D01*
X93714017Y-130773179D01*
X93894038Y-130558639D01*
X94028959Y-130313218D01*
X94113642Y-130046264D01*
X94144860Y-129767947D01*
X94145000Y-129747911D01*
X94145000Y-129332089D01*
X94117671Y-129053363D01*
X94036724Y-128785253D01*
X93905242Y-128537972D01*
X93728234Y-128320939D01*
X93512442Y-128142420D01*
X93266085Y-128009215D01*
X92998547Y-127926399D01*
X92720018Y-127897124D01*
X92441108Y-127922507D01*
X92172440Y-128001580D01*
X91924247Y-128131332D01*
X91705983Y-128306821D01*
X91525962Y-128521361D01*
X91439772Y-128678141D01*
X91365242Y-128537972D01*
X91188234Y-128320939D01*
X90972442Y-128142420D01*
X90726085Y-128009215D01*
X90458547Y-127926399D01*
X90180018Y-127897124D01*
X89901108Y-127922507D01*
X89632440Y-128001580D01*
X89384247Y-128131332D01*
X89165983Y-128306821D01*
X88985962Y-128521361D01*
X88899772Y-128678141D01*
X88825242Y-128537972D01*
X88648234Y-128320939D01*
X88432442Y-128142420D01*
X88186085Y-128009215D01*
X87918547Y-127926399D01*
X87640018Y-127897124D01*
X87361108Y-127922507D01*
X87092440Y-128001580D01*
X86844247Y-128131332D01*
X86625983Y-128306821D01*
X86445962Y-128521361D01*
X86359772Y-128678141D01*
X86285242Y-128537972D01*
X86108234Y-128320939D01*
X86042500Y-128266559D01*
X86042500Y-127394538D01*
X87361347Y-126075692D01*
X87619982Y-126102876D01*
X87898892Y-126077493D01*
X88167560Y-125998420D01*
X88415753Y-125868668D01*
X88634017Y-125693179D01*
X88814038Y-125478639D01*
X88900228Y-125321859D01*
X88974758Y-125462028D01*
X89151766Y-125679061D01*
X89367558Y-125857580D01*
X89613915Y-125990785D01*
X89881453Y-126073601D01*
X90159982Y-126102876D01*
X90438892Y-126077493D01*
X90707560Y-125998420D01*
X90955753Y-125868668D01*
X91174017Y-125693179D01*
X91354038Y-125478639D01*
X91436695Y-125328287D01*
X91445570Y-125349227D01*
X91604327Y-125582662D01*
X91805575Y-125780639D01*
X92041579Y-125935551D01*
X92303270Y-126041444D01*
X92360961Y-126051904D01*
X92583000Y-125929915D01*
X92583000Y-124587000D01*
X92563000Y-124587000D01*
X92563000Y-124333000D01*
X92583000Y-124333000D01*
X92583000Y-124313000D01*
X92837000Y-124313000D01*
X92837000Y-124333000D01*
X92857000Y-124333000D01*
X92857000Y-124587000D01*
X92837000Y-124587000D01*
X92837000Y-125929915D01*
X93059039Y-126051904D01*
X93116730Y-126041444D01*
X93378421Y-125935551D01*
X93614425Y-125780639D01*
X93815673Y-125582662D01*
X93974430Y-125349227D01*
X94084596Y-125089306D01*
X94092719Y-125050149D01*
X94297500Y-125254930D01*
X94297500Y-139305461D01*
X92978783Y-140624179D01*
X92721414Y-140597129D01*
X92403632Y-140626049D01*
X92097518Y-140716143D01*
X91814734Y-140863979D01*
X91566050Y-141063926D01*
X91439769Y-141214421D01*
X91330148Y-141080012D01*
X91084280Y-140876613D01*
X90803588Y-140724843D01*
X90498762Y-140630483D01*
X90181414Y-140597129D01*
X89863632Y-140626049D01*
X89557518Y-140716143D01*
X89274734Y-140863979D01*
X89026050Y-141063926D01*
X88899769Y-141214421D01*
X88790148Y-141080012D01*
X88544280Y-140876613D01*
X88263588Y-140724843D01*
X87958762Y-140630483D01*
X87641414Y-140597129D01*
X87323632Y-140626049D01*
X87017518Y-140716143D01*
X86734734Y-140863979D01*
X86486050Y-141063926D01*
X86359769Y-141214421D01*
X86250148Y-141080012D01*
X86004280Y-140876613D01*
X85723588Y-140724843D01*
X85418762Y-140630483D01*
X85101414Y-140597129D01*
X84783632Y-140626049D01*
X84477518Y-140716143D01*
X84194734Y-140863979D01*
X83946050Y-141063926D01*
X83819769Y-141214421D01*
X83710148Y-141080012D01*
X83464280Y-140876613D01*
X83183588Y-140724843D01*
X83098526Y-140698512D01*
X85002324Y-138794714D01*
X85079982Y-138802876D01*
X85358892Y-138777493D01*
X85627560Y-138698420D01*
X85875753Y-138568668D01*
X86094017Y-138393179D01*
X86274038Y-138178639D01*
X86360228Y-138021859D01*
X86434758Y-138162028D01*
X86611766Y-138379061D01*
X86827558Y-138557580D01*
X87073915Y-138690785D01*
X87341453Y-138773601D01*
X87619982Y-138802876D01*
X87898892Y-138777493D01*
X88167560Y-138698420D01*
X88415753Y-138568668D01*
X88634017Y-138393179D01*
X88814038Y-138178639D01*
X88900228Y-138021859D01*
X88974758Y-138162028D01*
X89151766Y-138379061D01*
X89367558Y-138557580D01*
X89613915Y-138690785D01*
X89881453Y-138773601D01*
X90159982Y-138802876D01*
X90438892Y-138777493D01*
X90707560Y-138698420D01*
X90955753Y-138568668D01*
X91174017Y-138393179D01*
X91354038Y-138178639D01*
X91436695Y-138028287D01*
X91445570Y-138049227D01*
X91604327Y-138282662D01*
X91805575Y-138480639D01*
X92041579Y-138635551D01*
X92303270Y-138741444D01*
X92360961Y-138751904D01*
X92583000Y-138629915D01*
X92583000Y-137287000D01*
X92837000Y-137287000D01*
X92837000Y-138629915D01*
X93059039Y-138751904D01*
X93116730Y-138741444D01*
X93378421Y-138635551D01*
X93614425Y-138480639D01*
X93815673Y-138282662D01*
X93974430Y-138049227D01*
X94084596Y-137789306D01*
X94141937Y-137512887D01*
X93989474Y-137287000D01*
X92837000Y-137287000D01*
X92583000Y-137287000D01*
X92563000Y-137287000D01*
X92563000Y-137033000D01*
X92583000Y-137033000D01*
X92583000Y-135690085D01*
X92837000Y-135690085D01*
X92837000Y-137033000D01*
X93989474Y-137033000D01*
X94141937Y-136807113D01*
X94084596Y-136530694D01*
X93974430Y-136270773D01*
X93815673Y-136037338D01*
X93614425Y-135839361D01*
X93378421Y-135684449D01*
X93116730Y-135578556D01*
X93059039Y-135568096D01*
X92837000Y-135690085D01*
X92583000Y-135690085D01*
X92360961Y-135568096D01*
X92303270Y-135578556D01*
X92041579Y-135684449D01*
X91805575Y-135839361D01*
X91604327Y-136037338D01*
X91445570Y-136270773D01*
X91436543Y-136292070D01*
X91365242Y-136157972D01*
X91188234Y-135940939D01*
X90972442Y-135762420D01*
X90726085Y-135629215D01*
X90458547Y-135546399D01*
X90180018Y-135517124D01*
X89901108Y-135542507D01*
X89632440Y-135621580D01*
X89384247Y-135751332D01*
X89165983Y-135926821D01*
X88985962Y-136141361D01*
X88899772Y-136298141D01*
X88825242Y-136157972D01*
X88648234Y-135940939D01*
X88432442Y-135762420D01*
X88186085Y-135629215D01*
X87918547Y-135546399D01*
X87640018Y-135517124D01*
X87542993Y-135525954D01*
X86868519Y-134851481D01*
X86800521Y-134795626D01*
X86733131Y-134739079D01*
X86728743Y-134736667D01*
X86724872Y-134733487D01*
X86647310Y-134691899D01*
X86570230Y-134649524D01*
X86565457Y-134648010D01*
X86561041Y-134645642D01*
X86476909Y-134619920D01*
X86393036Y-134593314D01*
X86388055Y-134592755D01*
X86383269Y-134591292D01*
X86295767Y-134582404D01*
X86208299Y-134572593D01*
X86198507Y-134572525D01*
X86198325Y-134572506D01*
X86198155Y-134572522D01*
X86195000Y-134572500D01*
X65916298Y-134572500D01*
X65828697Y-134581089D01*
X65741084Y-134588754D01*
X65736275Y-134590151D01*
X65731290Y-134590640D01*
X65647059Y-134616071D01*
X65562571Y-134640617D01*
X65558124Y-134642922D01*
X65553328Y-134644370D01*
X65475673Y-134685660D01*
X65397529Y-134726166D01*
X65393610Y-134729294D01*
X65389193Y-134731643D01*
X65321051Y-134787218D01*
X65252248Y-134842143D01*
X65245278Y-134849016D01*
X65245134Y-134849134D01*
X65245024Y-134849267D01*
X65242779Y-134851481D01*
X63817500Y-136276760D01*
X63817500Y-135247360D01*
X65920780Y-133144080D01*
X70235525Y-133144080D01*
X70319208Y-133398261D01*
X70591775Y-133529158D01*
X70884642Y-133604365D01*
X71186553Y-133620991D01*
X71485907Y-133578397D01*
X71771199Y-133478222D01*
X71920792Y-133398261D01*
X72004475Y-133144080D01*
X71120000Y-132259605D01*
X70235525Y-133144080D01*
X65920780Y-133144080D01*
X66918307Y-132146553D01*
X69579009Y-132146553D01*
X69621603Y-132445907D01*
X69721778Y-132731199D01*
X69801739Y-132880792D01*
X70055920Y-132964475D01*
X70940395Y-132080000D01*
X71299605Y-132080000D01*
X72184080Y-132964475D01*
X72438261Y-132880792D01*
X72569158Y-132608225D01*
X72644365Y-132315358D01*
X72660991Y-132013447D01*
X72618397Y-131714093D01*
X72518222Y-131428801D01*
X72438261Y-131279208D01*
X72184080Y-131195525D01*
X71299605Y-132080000D01*
X70940395Y-132080000D01*
X70055920Y-131195525D01*
X69801739Y-131279208D01*
X69670842Y-131551775D01*
X69595635Y-131844642D01*
X69579009Y-132146553D01*
X66918307Y-132146553D01*
X69586200Y-129478660D01*
X69582983Y-129709067D01*
X69637324Y-130005150D01*
X69748140Y-130285040D01*
X69911210Y-130538075D01*
X70120322Y-130754617D01*
X70284082Y-130868433D01*
X70235525Y-131015920D01*
X71120000Y-131900395D01*
X72004475Y-131015920D01*
X71955692Y-130867745D01*
X72069613Y-130795449D01*
X72287610Y-130587854D01*
X72461132Y-130341869D01*
X72583572Y-130066866D01*
X72650265Y-129773317D01*
X72655066Y-129429486D01*
X72596595Y-129134190D01*
X72481882Y-128855874D01*
X72315295Y-128605141D01*
X72103180Y-128391540D01*
X71853616Y-128223206D01*
X71576108Y-128106553D01*
X71281228Y-128046023D01*
X71020657Y-128044203D01*
X78097360Y-120967500D01*
X89165960Y-120967500D01*
X88260960Y-121872500D01*
X88260960Y-121872500D01*
G37*
X88260960Y-121872500D02*
X83985000Y-121872500D01*
X83897399Y-121881089D01*
X83809786Y-121888754D01*
X83804977Y-121890151D01*
X83799992Y-121890640D01*
X83715729Y-121916081D01*
X83631272Y-121940618D01*
X83626829Y-121942921D01*
X83622030Y-121944370D01*
X83544358Y-121985669D01*
X83466231Y-122026166D01*
X83462312Y-122029294D01*
X83457895Y-122031643D01*
X83389753Y-122087218D01*
X83320950Y-122142143D01*
X83313976Y-122149020D01*
X83313836Y-122149134D01*
X83313729Y-122149263D01*
X83311480Y-122151481D01*
X82637675Y-122825286D01*
X82560018Y-122817124D01*
X82281108Y-122842507D01*
X82012440Y-122921580D01*
X81764247Y-123051332D01*
X81545983Y-123226821D01*
X81365962Y-123441361D01*
X81279772Y-123598141D01*
X81205242Y-123457972D01*
X81028234Y-123240939D01*
X80812442Y-123062420D01*
X80566085Y-122929215D01*
X80298547Y-122846399D01*
X80020018Y-122817124D01*
X79741108Y-122842507D01*
X79472440Y-122921580D01*
X79224247Y-123051332D01*
X79005983Y-123226821D01*
X78898705Y-123354670D01*
X78846894Y-123187366D01*
X78748100Y-123037441D01*
X78611450Y-122920975D01*
X78447763Y-122847190D01*
X78270000Y-122821928D01*
X76670000Y-122821928D01*
X76568879Y-122829992D01*
X76397366Y-122883106D01*
X76247441Y-122981900D01*
X76130975Y-123118550D01*
X76057190Y-123282237D01*
X76031928Y-123460000D01*
X76031928Y-125460000D01*
X76039992Y-125561121D01*
X76093106Y-125732634D01*
X76191900Y-125882559D01*
X76328550Y-125999025D01*
X76492237Y-126072810D01*
X76670000Y-126098072D01*
X78270000Y-126098072D01*
X78371121Y-126090008D01*
X78542634Y-126036894D01*
X78692559Y-125938100D01*
X78809025Y-125801450D01*
X78882810Y-125637763D01*
X78893980Y-125559163D01*
X78991766Y-125679061D01*
X79207558Y-125857580D01*
X79453915Y-125990785D01*
X79721453Y-126073601D01*
X79999982Y-126102876D01*
X80278892Y-126077493D01*
X80547560Y-125998420D01*
X80795753Y-125868668D01*
X81014017Y-125693179D01*
X81194038Y-125478639D01*
X81280228Y-125321859D01*
X81354758Y-125462028D01*
X81531766Y-125679061D01*
X81747558Y-125857580D01*
X81993915Y-125990785D01*
X82261453Y-126073601D01*
X82539982Y-126102876D01*
X82818892Y-126077493D01*
X83087560Y-125998420D01*
X83335753Y-125868668D01*
X83554017Y-125693179D01*
X83734038Y-125478639D01*
X83820228Y-125321859D01*
X83894758Y-125462028D01*
X84071766Y-125679061D01*
X84287558Y-125857580D01*
X84533915Y-125990785D01*
X84700585Y-126042377D01*
X84416481Y-126326481D01*
X84360626Y-126394479D01*
X84304079Y-126461869D01*
X84301667Y-126466257D01*
X84298487Y-126470128D01*
X84256899Y-126547690D01*
X84214524Y-126624770D01*
X84213010Y-126629543D01*
X84210642Y-126633959D01*
X84184920Y-126718091D01*
X84158314Y-126801964D01*
X84157755Y-126806945D01*
X84156292Y-126811731D01*
X84147404Y-126899233D01*
X84137593Y-126986701D01*
X84137525Y-126996493D01*
X84137506Y-126996675D01*
X84137522Y-126996845D01*
X84137500Y-127000000D01*
X84137500Y-128265400D01*
X84085983Y-128306821D01*
X83905962Y-128521361D01*
X83819772Y-128678141D01*
X83745242Y-128537972D01*
X83568234Y-128320939D01*
X83352442Y-128142420D01*
X83106085Y-128009215D01*
X82838547Y-127926399D01*
X82560018Y-127897124D01*
X82281108Y-127922507D01*
X82012440Y-128001580D01*
X81764247Y-128131332D01*
X81545983Y-128306821D01*
X81365962Y-128521361D01*
X81279772Y-128678141D01*
X81205242Y-128537972D01*
X81028234Y-128320939D01*
X80812442Y-128142420D01*
X80566085Y-128009215D01*
X80298547Y-127926399D01*
X80020018Y-127897124D01*
X79741108Y-127922507D01*
X79472440Y-128001580D01*
X79224247Y-128131332D01*
X79005983Y-128306821D01*
X78825962Y-128521361D01*
X78739772Y-128678141D01*
X78665242Y-128537972D01*
X78488234Y-128320939D01*
X78272442Y-128142420D01*
X78026085Y-128009215D01*
X77758547Y-127926399D01*
X77480018Y-127897124D01*
X77201108Y-127922507D01*
X76932440Y-128001580D01*
X76684247Y-128131332D01*
X76465983Y-128306821D01*
X76285962Y-128521361D01*
X76199772Y-128678141D01*
X76125242Y-128537972D01*
X75948234Y-128320939D01*
X75732442Y-128142420D01*
X75486085Y-128009215D01*
X75218547Y-127926399D01*
X74940018Y-127897124D01*
X74661108Y-127922507D01*
X74392440Y-128001580D01*
X74144247Y-128131332D01*
X73925983Y-128306821D01*
X73745962Y-128521361D01*
X73611041Y-128766782D01*
X73526358Y-129033736D01*
X73495140Y-129312053D01*
X73495000Y-129332089D01*
X73495000Y-129747911D01*
X73522329Y-130026637D01*
X73603276Y-130294747D01*
X73734758Y-130542028D01*
X73911766Y-130759061D01*
X74127558Y-130937580D01*
X74373915Y-131070785D01*
X74641453Y-131153601D01*
X74919982Y-131182876D01*
X75198892Y-131157493D01*
X75467560Y-131078420D01*
X75715753Y-130948668D01*
X75934017Y-130773179D01*
X76114038Y-130558639D01*
X76200228Y-130401859D01*
X76274758Y-130542028D01*
X76451766Y-130759061D01*
X76667558Y-130937580D01*
X76913915Y-131070785D01*
X77181453Y-131153601D01*
X77459982Y-131182876D01*
X77738892Y-131157493D01*
X78007560Y-131078420D01*
X78255753Y-130948668D01*
X78474017Y-130773179D01*
X78654038Y-130558639D01*
X78740228Y-130401859D01*
X78814758Y-130542028D01*
X78991766Y-130759061D01*
X79207558Y-130937580D01*
X79453915Y-131070785D01*
X79721453Y-131153601D01*
X79999982Y-131182876D01*
X80278892Y-131157493D01*
X80547560Y-131078420D01*
X80795753Y-130948668D01*
X81014017Y-130773179D01*
X81194038Y-130558639D01*
X81280228Y-130401859D01*
X81354758Y-130542028D01*
X81531766Y-130759061D01*
X81747558Y-130937580D01*
X81993915Y-131070785D01*
X82261453Y-131153601D01*
X82539982Y-131182876D01*
X82818892Y-131157493D01*
X83087560Y-131078420D01*
X83335753Y-130948668D01*
X83554017Y-130773179D01*
X83734038Y-130558639D01*
X83820228Y-130401859D01*
X83894758Y-130542028D01*
X84071766Y-130759061D01*
X84287558Y-130937580D01*
X84533915Y-131070785D01*
X84801453Y-131153601D01*
X85079982Y-131182876D01*
X85358892Y-131157493D01*
X85627560Y-131078420D01*
X85875753Y-130948668D01*
X86094017Y-130773179D01*
X86274038Y-130558639D01*
X86360228Y-130401859D01*
X86434758Y-130542028D01*
X86611766Y-130759061D01*
X86827558Y-130937580D01*
X87073915Y-131070785D01*
X87341453Y-131153601D01*
X87619982Y-131182876D01*
X87898892Y-131157493D01*
X88167560Y-131078420D01*
X88415753Y-130948668D01*
X88634017Y-130773179D01*
X88814038Y-130558639D01*
X88900228Y-130401859D01*
X88974758Y-130542028D01*
X89151766Y-130759061D01*
X89367558Y-130937580D01*
X89613915Y-131070785D01*
X89881453Y-131153601D01*
X90159982Y-131182876D01*
X90438892Y-131157493D01*
X90707560Y-131078420D01*
X90955753Y-130948668D01*
X91174017Y-130773179D01*
X91354038Y-130558639D01*
X91440228Y-130401859D01*
X91514758Y-130542028D01*
X91691766Y-130759061D01*
X91907558Y-130937580D01*
X92153915Y-131070785D01*
X92421453Y-131153601D01*
X92699982Y-131182876D01*
X92978892Y-131157493D01*
X93247560Y-131078420D01*
X93495753Y-130948668D01*
X93714017Y-130773179D01*
X93894038Y-130558639D01*
X94028959Y-130313218D01*
X94113642Y-130046264D01*
X94144860Y-129767947D01*
X94145000Y-129747911D01*
X94145000Y-129332089D01*
X94117671Y-129053363D01*
X94036724Y-128785253D01*
X93905242Y-128537972D01*
X93728234Y-128320939D01*
X93512442Y-128142420D01*
X93266085Y-128009215D01*
X92998547Y-127926399D01*
X92720018Y-127897124D01*
X92441108Y-127922507D01*
X92172440Y-128001580D01*
X91924247Y-128131332D01*
X91705983Y-128306821D01*
X91525962Y-128521361D01*
X91439772Y-128678141D01*
X91365242Y-128537972D01*
X91188234Y-128320939D01*
X90972442Y-128142420D01*
X90726085Y-128009215D01*
X90458547Y-127926399D01*
X90180018Y-127897124D01*
X89901108Y-127922507D01*
X89632440Y-128001580D01*
X89384247Y-128131332D01*
X89165983Y-128306821D01*
X88985962Y-128521361D01*
X88899772Y-128678141D01*
X88825242Y-128537972D01*
X88648234Y-128320939D01*
X88432442Y-128142420D01*
X88186085Y-128009215D01*
X87918547Y-127926399D01*
X87640018Y-127897124D01*
X87361108Y-127922507D01*
X87092440Y-128001580D01*
X86844247Y-128131332D01*
X86625983Y-128306821D01*
X86445962Y-128521361D01*
X86359772Y-128678141D01*
X86285242Y-128537972D01*
X86108234Y-128320939D01*
X86042500Y-128266559D01*
X86042500Y-127394538D01*
X87361347Y-126075692D01*
X87619982Y-126102876D01*
X87898892Y-126077493D01*
X88167560Y-125998420D01*
X88415753Y-125868668D01*
X88634017Y-125693179D01*
X88814038Y-125478639D01*
X88900228Y-125321859D01*
X88974758Y-125462028D01*
X89151766Y-125679061D01*
X89367558Y-125857580D01*
X89613915Y-125990785D01*
X89881453Y-126073601D01*
X90159982Y-126102876D01*
X90438892Y-126077493D01*
X90707560Y-125998420D01*
X90955753Y-125868668D01*
X91174017Y-125693179D01*
X91354038Y-125478639D01*
X91436695Y-125328287D01*
X91445570Y-125349227D01*
X91604327Y-125582662D01*
X91805575Y-125780639D01*
X92041579Y-125935551D01*
X92303270Y-126041444D01*
X92360961Y-126051904D01*
X92583000Y-125929915D01*
X92583000Y-124587000D01*
X92563000Y-124587000D01*
X92563000Y-124333000D01*
X92583000Y-124333000D01*
X92583000Y-124313000D01*
X92837000Y-124313000D01*
X92837000Y-124333000D01*
X92857000Y-124333000D01*
X92857000Y-124587000D01*
X92837000Y-124587000D01*
X92837000Y-125929915D01*
X93059039Y-126051904D01*
X93116730Y-126041444D01*
X93378421Y-125935551D01*
X93614425Y-125780639D01*
X93815673Y-125582662D01*
X93974430Y-125349227D01*
X94084596Y-125089306D01*
X94092719Y-125050149D01*
X94297500Y-125254930D01*
X94297500Y-139305461D01*
X92978783Y-140624179D01*
X92721414Y-140597129D01*
X92403632Y-140626049D01*
X92097518Y-140716143D01*
X91814734Y-140863979D01*
X91566050Y-141063926D01*
X91439769Y-141214421D01*
X91330148Y-141080012D01*
X91084280Y-140876613D01*
X90803588Y-140724843D01*
X90498762Y-140630483D01*
X90181414Y-140597129D01*
X89863632Y-140626049D01*
X89557518Y-140716143D01*
X89274734Y-140863979D01*
X89026050Y-141063926D01*
X88899769Y-141214421D01*
X88790148Y-141080012D01*
X88544280Y-140876613D01*
X88263588Y-140724843D01*
X87958762Y-140630483D01*
X87641414Y-140597129D01*
X87323632Y-140626049D01*
X87017518Y-140716143D01*
X86734734Y-140863979D01*
X86486050Y-141063926D01*
X86359769Y-141214421D01*
X86250148Y-141080012D01*
X86004280Y-140876613D01*
X85723588Y-140724843D01*
X85418762Y-140630483D01*
X85101414Y-140597129D01*
X84783632Y-140626049D01*
X84477518Y-140716143D01*
X84194734Y-140863979D01*
X83946050Y-141063926D01*
X83819769Y-141214421D01*
X83710148Y-141080012D01*
X83464280Y-140876613D01*
X83183588Y-140724843D01*
X83098526Y-140698512D01*
X85002324Y-138794714D01*
X85079982Y-138802876D01*
X85358892Y-138777493D01*
X85627560Y-138698420D01*
X85875753Y-138568668D01*
X86094017Y-138393179D01*
X86274038Y-138178639D01*
X86360228Y-138021859D01*
X86434758Y-138162028D01*
X86611766Y-138379061D01*
X86827558Y-138557580D01*
X87073915Y-138690785D01*
X87341453Y-138773601D01*
X87619982Y-138802876D01*
X87898892Y-138777493D01*
X88167560Y-138698420D01*
X88415753Y-138568668D01*
X88634017Y-138393179D01*
X88814038Y-138178639D01*
X88900228Y-138021859D01*
X88974758Y-138162028D01*
X89151766Y-138379061D01*
X89367558Y-138557580D01*
X89613915Y-138690785D01*
X89881453Y-138773601D01*
X90159982Y-138802876D01*
X90438892Y-138777493D01*
X90707560Y-138698420D01*
X90955753Y-138568668D01*
X91174017Y-138393179D01*
X91354038Y-138178639D01*
X91436695Y-138028287D01*
X91445570Y-138049227D01*
X91604327Y-138282662D01*
X91805575Y-138480639D01*
X92041579Y-138635551D01*
X92303270Y-138741444D01*
X92360961Y-138751904D01*
X92583000Y-138629915D01*
X92583000Y-137287000D01*
X92837000Y-137287000D01*
X92837000Y-138629915D01*
X93059039Y-138751904D01*
X93116730Y-138741444D01*
X93378421Y-138635551D01*
X93614425Y-138480639D01*
X93815673Y-138282662D01*
X93974430Y-138049227D01*
X94084596Y-137789306D01*
X94141937Y-137512887D01*
X93989474Y-137287000D01*
X92837000Y-137287000D01*
X92583000Y-137287000D01*
X92563000Y-137287000D01*
X92563000Y-137033000D01*
X92583000Y-137033000D01*
X92583000Y-135690085D01*
X92837000Y-135690085D01*
X92837000Y-137033000D01*
X93989474Y-137033000D01*
X94141937Y-136807113D01*
X94084596Y-136530694D01*
X93974430Y-136270773D01*
X93815673Y-136037338D01*
X93614425Y-135839361D01*
X93378421Y-135684449D01*
X93116730Y-135578556D01*
X93059039Y-135568096D01*
X92837000Y-135690085D01*
X92583000Y-135690085D01*
X92360961Y-135568096D01*
X92303270Y-135578556D01*
X92041579Y-135684449D01*
X91805575Y-135839361D01*
X91604327Y-136037338D01*
X91445570Y-136270773D01*
X91436543Y-136292070D01*
X91365242Y-136157972D01*
X91188234Y-135940939D01*
X90972442Y-135762420D01*
X90726085Y-135629215D01*
X90458547Y-135546399D01*
X90180018Y-135517124D01*
X89901108Y-135542507D01*
X89632440Y-135621580D01*
X89384247Y-135751332D01*
X89165983Y-135926821D01*
X88985962Y-136141361D01*
X88899772Y-136298141D01*
X88825242Y-136157972D01*
X88648234Y-135940939D01*
X88432442Y-135762420D01*
X88186085Y-135629215D01*
X87918547Y-135546399D01*
X87640018Y-135517124D01*
X87542993Y-135525954D01*
X86868519Y-134851481D01*
X86800521Y-134795626D01*
X86733131Y-134739079D01*
X86728743Y-134736667D01*
X86724872Y-134733487D01*
X86647310Y-134691899D01*
X86570230Y-134649524D01*
X86565457Y-134648010D01*
X86561041Y-134645642D01*
X86476909Y-134619920D01*
X86393036Y-134593314D01*
X86388055Y-134592755D01*
X86383269Y-134591292D01*
X86295767Y-134582404D01*
X86208299Y-134572593D01*
X86198507Y-134572525D01*
X86198325Y-134572506D01*
X86198155Y-134572522D01*
X86195000Y-134572500D01*
X65916298Y-134572500D01*
X65828697Y-134581089D01*
X65741084Y-134588754D01*
X65736275Y-134590151D01*
X65731290Y-134590640D01*
X65647059Y-134616071D01*
X65562571Y-134640617D01*
X65558124Y-134642922D01*
X65553328Y-134644370D01*
X65475673Y-134685660D01*
X65397529Y-134726166D01*
X65393610Y-134729294D01*
X65389193Y-134731643D01*
X65321051Y-134787218D01*
X65252248Y-134842143D01*
X65245278Y-134849016D01*
X65245134Y-134849134D01*
X65245024Y-134849267D01*
X65242779Y-134851481D01*
X63817500Y-136276760D01*
X63817500Y-135247360D01*
X65920780Y-133144080D01*
X70235525Y-133144080D01*
X70319208Y-133398261D01*
X70591775Y-133529158D01*
X70884642Y-133604365D01*
X71186553Y-133620991D01*
X71485907Y-133578397D01*
X71771199Y-133478222D01*
X71920792Y-133398261D01*
X72004475Y-133144080D01*
X71120000Y-132259605D01*
X70235525Y-133144080D01*
X65920780Y-133144080D01*
X66918307Y-132146553D01*
X69579009Y-132146553D01*
X69621603Y-132445907D01*
X69721778Y-132731199D01*
X69801739Y-132880792D01*
X70055920Y-132964475D01*
X70940395Y-132080000D01*
X71299605Y-132080000D01*
X72184080Y-132964475D01*
X72438261Y-132880792D01*
X72569158Y-132608225D01*
X72644365Y-132315358D01*
X72660991Y-132013447D01*
X72618397Y-131714093D01*
X72518222Y-131428801D01*
X72438261Y-131279208D01*
X72184080Y-131195525D01*
X71299605Y-132080000D01*
X70940395Y-132080000D01*
X70055920Y-131195525D01*
X69801739Y-131279208D01*
X69670842Y-131551775D01*
X69595635Y-131844642D01*
X69579009Y-132146553D01*
X66918307Y-132146553D01*
X69586200Y-129478660D01*
X69582983Y-129709067D01*
X69637324Y-130005150D01*
X69748140Y-130285040D01*
X69911210Y-130538075D01*
X70120322Y-130754617D01*
X70284082Y-130868433D01*
X70235525Y-131015920D01*
X71120000Y-131900395D01*
X72004475Y-131015920D01*
X71955692Y-130867745D01*
X72069613Y-130795449D01*
X72287610Y-130587854D01*
X72461132Y-130341869D01*
X72583572Y-130066866D01*
X72650265Y-129773317D01*
X72655066Y-129429486D01*
X72596595Y-129134190D01*
X72481882Y-128855874D01*
X72315295Y-128605141D01*
X72103180Y-128391540D01*
X71853616Y-128223206D01*
X71576108Y-128106553D01*
X71281228Y-128046023D01*
X71020657Y-128044203D01*
X78097360Y-120967500D01*
X89165960Y-120967500D01*
X88260960Y-121872500D01*
G36*
X73491928Y-137451033D02*
X70686189Y-140256773D01*
X70591021Y-140074734D01*
X70519561Y-139985856D01*
X70637559Y-139908100D01*
X70754025Y-139771450D01*
X70827810Y-139607763D01*
X70853072Y-139430000D01*
X70853072Y-137430000D01*
X70845008Y-137328879D01*
X70791894Y-137157366D01*
X70693100Y-137007441D01*
X70556450Y-136890975D01*
X70392763Y-136817190D01*
X70215000Y-136791928D01*
X68215000Y-136791928D01*
X68113879Y-136799992D01*
X67942366Y-136853106D01*
X67792441Y-136951900D01*
X67675975Y-137088550D01*
X67629027Y-137192701D01*
X67602730Y-137129215D01*
X67533237Y-137025211D01*
X67444789Y-136936763D01*
X67340785Y-136867270D01*
X67225223Y-136819403D01*
X67102542Y-136795000D01*
X66325750Y-136795000D01*
X66167000Y-136953750D01*
X66167000Y-138303000D01*
X66187000Y-138303000D01*
X66187000Y-138557000D01*
X66167000Y-138557000D01*
X66167000Y-138577000D01*
X65913000Y-138577000D01*
X65913000Y-138557000D01*
X65893000Y-138557000D01*
X65893000Y-138303000D01*
X65913000Y-138303000D01*
X65913000Y-136953750D01*
X65873793Y-136914543D01*
X66310836Y-136477500D01*
X73491928Y-136477500D01*
X73491928Y-137451033D01*
X73491928Y-137451033D01*
G37*
X73491928Y-137451033D02*
X70686189Y-140256773D01*
X70591021Y-140074734D01*
X70519561Y-139985856D01*
X70637559Y-139908100D01*
X70754025Y-139771450D01*
X70827810Y-139607763D01*
X70853072Y-139430000D01*
X70853072Y-137430000D01*
X70845008Y-137328879D01*
X70791894Y-137157366D01*
X70693100Y-137007441D01*
X70556450Y-136890975D01*
X70392763Y-136817190D01*
X70215000Y-136791928D01*
X68215000Y-136791928D01*
X68113879Y-136799992D01*
X67942366Y-136853106D01*
X67792441Y-136951900D01*
X67675975Y-137088550D01*
X67629027Y-137192701D01*
X67602730Y-137129215D01*
X67533237Y-137025211D01*
X67444789Y-136936763D01*
X67340785Y-136867270D01*
X67225223Y-136819403D01*
X67102542Y-136795000D01*
X66325750Y-136795000D01*
X66167000Y-136953750D01*
X66167000Y-138303000D01*
X66187000Y-138303000D01*
X66187000Y-138557000D01*
X66167000Y-138557000D01*
X66167000Y-138577000D01*
X65913000Y-138577000D01*
X65913000Y-138557000D01*
X65893000Y-138557000D01*
X65893000Y-138303000D01*
X65913000Y-138303000D01*
X65913000Y-136953750D01*
X65873793Y-136914543D01*
X66310836Y-136477500D01*
X73491928Y-136477500D01*
X73491928Y-137451033D01*
M02*
