G04 #@! TF.GenerationSoftware,KiCad,Pcbnew,5.1.6*
G04 #@! TF.CreationDate,2020-07-01T19:59:56+01:00*
G04 #@! TF.ProjectId,rc2014-ym2149,72633230-3134-42d7-996d-323134392e6b,5*
G04 #@! TF.SameCoordinates,Original*
G04 #@! TF.FileFunction,Soldermask,Bot*
G04 #@! TF.FilePolarity,Negative*
%FSLAX46Y46*%
G04 Gerber Fmt 4.6, Leading zero omitted, Abs format (unit mm)*
G04 Created by KiCad (PCBNEW 5.1.6) date 2020-07-01 19:59:56*
%MOMM*%
%LPD*%
G01*
G04 APERTURE LIST*
G04 #@! TA.AperFunction,Profile*
%ADD10C,0.150000*%
G04 #@! TD*
%ADD11C,3.600000*%
%ADD12C,2.000000*%
%ADD13O,2.000000X2.000000*%
%ADD14R,2.000000X2.800000*%
%ADD15O,2.000000X2.800000*%
%ADD16R,2.000000X2.000000*%
%ADD17R,2.100000X2.100000*%
%ADD18O,2.100000X2.100000*%
%ADD19O,2.800000X2.000000*%
%ADD20R,2.800000X2.000000*%
%ADD21R,2.900000X2.200000*%
%ADD22R,2.200000X2.900000*%
%ADD23C,1.600000*%
G04 APERTURE END LIST*
D10*
X160500000Y-121539000D02*
X160500000Y-120000000D01*
X158369000Y-121793000D02*
X158369000Y-128397000D01*
X158369000Y-121793000D02*
G75*
G02*
X158623000Y-121539000I254000J0D01*
G01*
X158623000Y-128651000D02*
G75*
G02*
X158369000Y-128397000I0J254000D01*
G01*
X160500000Y-121539000D02*
X158623000Y-121539000D01*
X160500000Y-128651000D02*
X158623000Y-128651000D01*
X160500000Y-120000000D02*
G75*
G03*
X155000000Y-114500000I-5500000J0D01*
G01*
X60500000Y-129500000D02*
X75500000Y-114500000D01*
X60500000Y-164500000D02*
X160500000Y-164500000D01*
X60500000Y-129500000D02*
X60500000Y-164500000D01*
X155000000Y-114500000D02*
X75500000Y-114500000D01*
X160500000Y-164500000D02*
X160500000Y-128651000D01*
D11*
X65278000Y-131064000D03*
D12*
X138684000Y-116586000D03*
D13*
X128524000Y-116586000D03*
X138684000Y-120142000D03*
D12*
X128524000Y-120142000D03*
X138684000Y-127254000D03*
D13*
X128524000Y-127254000D03*
D12*
X128524000Y-130810000D03*
D13*
X138684000Y-130810000D03*
D14*
X109855000Y-149860000D03*
D15*
X158115000Y-134620000D03*
X112395000Y-149860000D03*
X155575000Y-134620000D03*
X114935000Y-149860000D03*
X153035000Y-134620000D03*
X117475000Y-149860000D03*
X150495000Y-134620000D03*
X120015000Y-149860000D03*
X147955000Y-134620000D03*
X122555000Y-149860000D03*
X145415000Y-134620000D03*
X125095000Y-149860000D03*
X142875000Y-134620000D03*
X127635000Y-149860000D03*
X140335000Y-134620000D03*
X130175000Y-149860000D03*
X137795000Y-134620000D03*
X132715000Y-149860000D03*
X135255000Y-134620000D03*
X135255000Y-149860000D03*
X132715000Y-134620000D03*
X137795000Y-149860000D03*
X130175000Y-134620000D03*
X140335000Y-149860000D03*
X127635000Y-134620000D03*
X142875000Y-149860000D03*
X125095000Y-134620000D03*
X145415000Y-149860000D03*
X122555000Y-134620000D03*
X147955000Y-149860000D03*
X120015000Y-134620000D03*
X150495000Y-149860000D03*
X117475000Y-134620000D03*
X153035000Y-149860000D03*
X114935000Y-134620000D03*
X155575000Y-149860000D03*
X112395000Y-134620000D03*
X158115000Y-149860000D03*
X109855000Y-134620000D03*
D16*
X70866000Y-132842000D03*
D12*
X70866000Y-125222000D03*
X78486000Y-125222000D03*
X78486000Y-132842000D03*
X93980000Y-157226000D03*
X96480000Y-157226000D03*
X84074000Y-159512000D03*
X81574000Y-159512000D03*
X83312000Y-128230000D03*
X83312000Y-125730000D03*
X71628000Y-159512000D03*
X69128000Y-159512000D03*
X109220000Y-131064000D03*
X111720000Y-131064000D03*
D16*
X143764000Y-118110000D03*
D12*
X143764000Y-120610000D03*
X143764000Y-128865000D03*
D16*
X143764000Y-126365000D03*
D17*
X137668000Y-157480000D03*
D18*
X137668000Y-154940000D03*
X140208000Y-157480000D03*
X140208000Y-154940000D03*
X142748000Y-157480000D03*
X142748000Y-154940000D03*
X145288000Y-157480000D03*
X145288000Y-154940000D03*
X147828000Y-157480000D03*
X147828000Y-154940000D03*
X150368000Y-157480000D03*
X150368000Y-154940000D03*
X152908000Y-157480000D03*
X152908000Y-154940000D03*
X155448000Y-157480000D03*
X155448000Y-154940000D03*
X157988000Y-157480000D03*
X157988000Y-154940000D03*
D17*
X119634000Y-117348000D03*
D18*
X122174000Y-117348000D03*
X124714000Y-117348000D03*
D17*
X107950000Y-121666000D03*
D18*
X110490000Y-121666000D03*
X113030000Y-121666000D03*
X113030000Y-117348000D03*
X110490000Y-117348000D03*
D17*
X107950000Y-117348000D03*
D18*
X101346000Y-117348000D03*
X98806000Y-117348000D03*
D17*
X96266000Y-117348000D03*
D18*
X89662000Y-121666000D03*
X87122000Y-121666000D03*
D17*
X84582000Y-121666000D03*
D12*
X115316000Y-130810000D03*
D13*
X125476000Y-130810000D03*
X115316000Y-127254000D03*
D12*
X125476000Y-127254000D03*
D13*
X128524000Y-123698000D03*
D12*
X138684000Y-123698000D03*
D19*
X69596000Y-155956000D03*
X77216000Y-138176000D03*
X69596000Y-153416000D03*
X77216000Y-140716000D03*
X69596000Y-150876000D03*
X77216000Y-143256000D03*
X69596000Y-148336000D03*
X77216000Y-145796000D03*
X69596000Y-145796000D03*
X77216000Y-148336000D03*
X69596000Y-143256000D03*
X77216000Y-150876000D03*
X69596000Y-140716000D03*
X77216000Y-153416000D03*
X69596000Y-138176000D03*
D20*
X77216000Y-155956000D03*
X89662000Y-155956000D03*
D19*
X82042000Y-138176000D03*
X89662000Y-153416000D03*
X82042000Y-140716000D03*
X89662000Y-150876000D03*
X82042000Y-143256000D03*
X89662000Y-148336000D03*
X82042000Y-145796000D03*
X89662000Y-145796000D03*
X82042000Y-148336000D03*
X89662000Y-143256000D03*
X82042000Y-150876000D03*
X89662000Y-140716000D03*
X82042000Y-153416000D03*
X89662000Y-138176000D03*
X82042000Y-155956000D03*
D20*
X102108000Y-153416000D03*
D19*
X94488000Y-138176000D03*
X102108000Y-150876000D03*
X94488000Y-140716000D03*
X102108000Y-148336000D03*
X94488000Y-143256000D03*
X102108000Y-145796000D03*
X94488000Y-145796000D03*
X102108000Y-143256000D03*
X94488000Y-148336000D03*
X102108000Y-140716000D03*
X94488000Y-150876000D03*
X102108000Y-138176000D03*
X94488000Y-153416000D03*
D15*
X86868000Y-126238000D03*
X102108000Y-133858000D03*
X89408000Y-126238000D03*
X99568000Y-133858000D03*
X91948000Y-126238000D03*
X97028000Y-133858000D03*
X94488000Y-126238000D03*
X94488000Y-133858000D03*
X97028000Y-126238000D03*
X91948000Y-133858000D03*
X99568000Y-126238000D03*
X89408000Y-133858000D03*
X102108000Y-126238000D03*
D14*
X86868000Y-133858000D03*
D21*
X151130000Y-130095000D03*
X151130000Y-120095000D03*
D22*
X156130000Y-125095000D03*
D23*
X151130000Y-125095000D03*
X156130000Y-130095000D03*
X158630000Y-130095000D03*
X156130000Y-120095000D03*
X158630000Y-120095000D03*
D21*
X151130000Y-127595000D03*
X151130000Y-122595000D03*
D17*
X84582000Y-117348000D03*
D18*
X87122000Y-117348000D03*
X89662000Y-117348000D03*
D17*
X62000000Y-163000000D03*
D18*
X64540000Y-163000000D03*
X67080000Y-163000000D03*
X69620000Y-163000000D03*
X72160000Y-163000000D03*
X74700000Y-163000000D03*
X77240000Y-163000000D03*
X79780000Y-163000000D03*
X82320000Y-163000000D03*
X84860000Y-163000000D03*
X87400000Y-163000000D03*
X89940000Y-163000000D03*
X92480000Y-163000000D03*
X95020000Y-163000000D03*
X97560000Y-163000000D03*
X100100000Y-163000000D03*
X102640000Y-163000000D03*
X105180000Y-163000000D03*
X107720000Y-163000000D03*
X110260000Y-163000000D03*
X112800000Y-163000000D03*
X115340000Y-163000000D03*
X117880000Y-163000000D03*
X120420000Y-163000000D03*
X122960000Y-163000000D03*
X125500000Y-163000000D03*
X128040000Y-163000000D03*
X130580000Y-163000000D03*
X133120000Y-163000000D03*
X135660000Y-163000000D03*
X138200000Y-163000000D03*
X140740000Y-163000000D03*
X143280000Y-163000000D03*
X145820000Y-163000000D03*
X148360000Y-163000000D03*
X150900000Y-163000000D03*
X153440000Y-163000000D03*
X155980000Y-163000000D03*
X158520000Y-163000000D03*
D17*
X96266000Y-121666000D03*
D18*
X98806000Y-121666000D03*
X101346000Y-121666000D03*
D17*
X65278000Y-155956000D03*
D18*
X62738000Y-155956000D03*
X65278000Y-153416000D03*
X62738000Y-153416000D03*
X65278000Y-150876000D03*
X62738000Y-150876000D03*
X65278000Y-148336000D03*
X62738000Y-148336000D03*
X65278000Y-145796000D03*
X62738000Y-145796000D03*
X65278000Y-143256000D03*
X62738000Y-143256000D03*
X65278000Y-140716000D03*
X62738000Y-140716000D03*
X65278000Y-138176000D03*
X62738000Y-138176000D03*
X65278000Y-135636000D03*
X62738000Y-135636000D03*
D17*
X119634000Y-121666000D03*
D18*
X122174000Y-121666000D03*
M02*
