M48
; DRILL file {KiCad (6.0.10)} date Mon 09 Jan 2023 23:53:46 GMT
; FORMAT={-:-/ absolute / metric / decimal}
; #@! TF.CreationDate,2023-01-09T23:53:46+00:00
; #@! TF.GenerationSoftware,Kicad,Pcbnew,(6.0.10)
; #@! TF.FileFunction,Plated,1,2,PTH
FMAT,2
METRIC
; #@! TA.AperFunction,Plated,PTH,ViaDrill
T1C0.450
; #@! TA.AperFunction,Plated,PTH,ComponentDrill
T2C0.800
; #@! TA.AperFunction,Plated,PTH,ComponentDrill
T3C1.000
%
G90
G05
T1
X96.52Y-141.227
X97.893Y-143.383
X109.392Y-159.972
T2
X69.128Y-159.512
X69.596Y-138.176
X69.596Y-140.716
X69.596Y-143.256
X69.596Y-145.796
X69.596Y-148.336
X69.596Y-150.876
X69.596Y-153.416
X69.596Y-155.956
X70.866Y-125.222
X70.866Y-132.842
X71.628Y-159.512
X73.406Y-125.222
X73.406Y-132.842
X75.946Y-125.222
X75.946Y-132.842
X77.216Y-138.176
X77.216Y-140.716
X77.216Y-143.256
X77.216Y-145.796
X77.216Y-148.336
X77.216Y-150.876
X77.216Y-153.416
X77.216Y-155.956
X78.486Y-125.222
X78.486Y-132.842
X81.574Y-159.512
X82.042Y-138.176
X82.042Y-140.716
X82.042Y-143.256
X82.042Y-145.796
X82.042Y-148.336
X82.042Y-150.876
X82.042Y-153.416
X82.042Y-155.956
X83.312Y-125.73
X83.312Y-128.23
X84.074Y-159.512
X86.868Y-126.238
X86.868Y-133.858
X89.408Y-126.238
X89.408Y-133.858
X89.662Y-138.176
X89.662Y-140.716
X89.662Y-143.256
X89.662Y-145.796
X89.662Y-148.336
X89.662Y-150.876
X89.662Y-153.416
X89.662Y-155.956
X91.948Y-126.238
X91.948Y-133.858
X93.98Y-159.512
X94.488Y-126.238
X94.488Y-133.858
X94.488Y-139.446
X94.488Y-141.986
X94.488Y-144.526
X94.488Y-147.066
X94.488Y-149.606
X94.488Y-152.146
X94.488Y-154.686
X96.48Y-159.512
X97.028Y-126.238
X97.028Y-133.858
X99.568Y-126.238
X99.568Y-133.858
X102.108Y-126.238
X102.108Y-133.858
X102.108Y-139.446
X102.108Y-141.986
X102.108Y-144.526
X102.108Y-147.066
X102.108Y-149.606
X102.108Y-152.146
X102.108Y-154.686
X109.22Y-131.064
X109.855Y-134.62
X109.855Y-149.86
X111.72Y-131.064
X112.395Y-134.62
X112.395Y-149.86
X114.935Y-134.62
X114.935Y-149.86
X115.316Y-127.254
X115.316Y-130.81
X117.475Y-134.62
X117.475Y-149.86
X120.015Y-134.62
X120.015Y-149.86
X122.555Y-134.62
X122.555Y-149.86
X125.095Y-134.62
X125.095Y-149.86
X125.476Y-127.254
X125.476Y-130.81
X127.635Y-134.62
X127.635Y-149.86
X128.524Y-116.586
X128.524Y-120.142
X128.524Y-123.698
X128.524Y-127.254
X128.524Y-130.81
X130.175Y-134.62
X130.175Y-149.86
X132.715Y-134.62
X132.715Y-149.86
X135.255Y-134.62
X135.255Y-149.86
X137.795Y-134.62
X137.795Y-149.86
X138.684Y-116.586
X138.684Y-120.142
X138.684Y-123.698
X138.684Y-127.254
X138.684Y-130.81
X140.335Y-134.62
X140.335Y-149.86
X142.875Y-134.62
X142.875Y-149.86
X143.764Y-118.11
X143.764Y-120.61
X143.764Y-126.365
X143.764Y-128.865
X145.415Y-134.62
X145.415Y-149.86
X147.955Y-134.62
X147.955Y-149.86
X150.495Y-134.62
X150.495Y-149.86
X153.035Y-134.62
X153.035Y-149.86
X155.575Y-134.62
X155.575Y-149.86
X158.115Y-134.62
X158.115Y-149.86
T3
X62.0Y-163.0
X62.738Y-135.636
X62.738Y-138.176
X62.738Y-140.716
X62.738Y-143.256
X62.738Y-145.796
X62.738Y-148.336
X62.738Y-150.876
X62.738Y-153.416
X62.738Y-155.956
X64.54Y-163.0
X65.278Y-135.636
X65.278Y-138.176
X65.278Y-140.716
X65.278Y-143.256
X65.278Y-145.796
X65.278Y-148.336
X65.278Y-150.876
X65.278Y-153.416
X65.278Y-155.956
X67.08Y-163.0
X69.62Y-163.0
X72.16Y-163.0
X74.7Y-163.0
X77.24Y-163.0
X79.78Y-163.0
X82.32Y-163.0
X84.582Y-117.348
X84.582Y-121.666
X84.86Y-163.0
X87.122Y-117.348
X87.122Y-121.666
X87.4Y-163.0
X89.662Y-117.348
X89.662Y-121.666
X89.94Y-163.0
X92.48Y-163.0
X95.02Y-163.0
X96.266Y-117.348
X96.266Y-121.666
X97.56Y-163.0
X98.806Y-117.348
X98.806Y-121.666
X100.1Y-163.0
X101.346Y-117.348
X101.346Y-121.666
X102.64Y-163.0
X105.18Y-163.0
X107.72Y-163.0
X107.95Y-117.348
X107.95Y-121.666
X110.26Y-163.0
X110.49Y-117.348
X110.49Y-121.666
X112.8Y-163.0
X113.03Y-117.348
X113.03Y-121.666
X115.34Y-163.0
X117.88Y-163.0
X119.634Y-121.666
X120.42Y-163.0
X122.174Y-121.666
X122.96Y-163.0
X125.5Y-163.0
X128.04Y-163.0
X130.58Y-163.0
X133.12Y-163.0
X135.66Y-163.0
X137.668Y-154.94
X137.668Y-157.48
X138.2Y-163.0
X140.208Y-154.94
X140.208Y-157.48
X140.74Y-163.0
X142.748Y-154.94
X142.748Y-157.48
X143.28Y-163.0
X145.288Y-154.94
X145.288Y-157.48
X145.82Y-163.0
X147.828Y-154.94
X147.828Y-157.48
X148.36Y-163.0
X150.368Y-154.94
X150.368Y-157.48
X150.9Y-163.0
X152.908Y-154.94
X152.908Y-157.48
X153.44Y-163.0
X155.448Y-154.94
X155.448Y-157.48
X155.98Y-163.0
X157.988Y-154.94
X157.988Y-157.48
X158.52Y-163.0
T2
X151.48Y-120.095G85X150.78Y-120.095
G05
X151.48Y-122.595G85X150.78Y-122.595
G05
X151.48Y-127.595G85X150.78Y-127.595
G05
X151.48Y-130.095G85X150.78Y-130.095
G05
X156.13Y-125.445G85X156.13Y-124.745
G05
T0
M30
