M48
; DRILL file {KiCad 5.1.6} date Wed Jun 24 01:07:02 2020
; FORMAT={-:-/ absolute / inch / decimal}
; #@! TF.CreationDate,2020-06-24T01:07:02+01:00
; #@! TF.GenerationSoftware,Kicad,Pcbnew,5.1.6
FMAT,2
INCH
T1C0.0130
T2C0.0315
T3C0.0394
T4C0.0472
%
G90
G05
T1
X3.75Y-4.9
X4.135Y-5.4596
X4.2159Y-5.945
T2
X5.66Y-4.65
X5.66Y-4.7484
X5.06Y-4.87
X5.46Y-4.87
X2.79Y-4.93
X2.79Y-5.23
X3.09Y-4.93
X3.09Y-5.23
X3.2116Y-6.28
X3.31Y-6.28
X3.72Y-5.44
X3.72Y-5.54
X3.72Y-5.64
X3.72Y-5.74
X3.72Y-5.84
X3.72Y-5.94
X3.72Y-6.04
X4.02Y-5.44
X4.02Y-5.54
X4.02Y-5.64
X4.02Y-5.74
X4.02Y-5.84
X4.02Y-5.94
X4.02Y-6.04
X5.06Y-5.01
X5.46Y-5.01
X4.325Y-5.3
X4.325Y-5.9
X4.425Y-5.3
X4.425Y-5.9
X4.525Y-5.3
X4.525Y-5.9
X4.625Y-5.3
X4.625Y-5.9
X4.725Y-5.3
X4.725Y-5.9
X4.825Y-5.3
X4.825Y-5.9
X4.925Y-5.3
X4.925Y-5.9
X5.025Y-5.3
X5.025Y-5.9
X5.125Y-5.3
X5.125Y-5.9
X5.225Y-5.3
X5.225Y-5.9
X5.325Y-5.3
X5.325Y-5.9
X5.425Y-5.3
X5.425Y-5.9
X5.525Y-5.3
X5.525Y-5.9
X5.625Y-5.3
X5.625Y-5.9
X5.725Y-5.3
X5.725Y-5.9
X5.825Y-5.3
X5.825Y-5.9
X5.925Y-5.3
X5.925Y-5.9
X6.025Y-5.3
X6.025Y-5.9
X6.125Y-5.3
X6.125Y-5.9
X6.225Y-5.3
X6.225Y-5.9
X3.28Y-4.95
X3.28Y-5.0484
X4.54Y-5.01
X4.94Y-5.01
X3.7Y-6.19
X3.7984Y-6.19
X2.74Y-5.44
X2.74Y-5.54
X2.74Y-5.64
X2.74Y-5.74
X2.74Y-5.84
X2.74Y-5.94
X2.74Y-6.04
X2.74Y-6.14
X3.04Y-5.44
X3.04Y-5.54
X3.04Y-5.64
X3.04Y-5.74
X3.04Y-5.84
X3.04Y-5.94
X3.04Y-6.04
X3.04Y-6.14
X3.42Y-4.97
X3.42Y-5.27
X3.52Y-4.97
X3.52Y-5.27
X3.62Y-4.97
X3.62Y-5.27
X3.72Y-4.97
X3.72Y-5.27
X3.82Y-4.97
X3.82Y-5.27
X3.92Y-4.97
X3.92Y-5.27
X4.02Y-4.97
X4.02Y-5.27
X4.54Y-5.15
X4.94Y-5.15
X5.66Y-4.975
X5.66Y-5.0734
X5.06Y-5.15
X5.46Y-5.15
X5.06Y-4.59
X5.46Y-4.59
X4.3Y-5.16
X4.3984Y-5.16
X2.7216Y-6.28
X2.82Y-6.28
X5.06Y-4.73
X5.46Y-4.73
X3.23Y-5.44
X3.23Y-5.54
X3.23Y-5.64
X3.23Y-5.74
X3.23Y-5.84
X3.23Y-5.94
X3.23Y-6.04
X3.23Y-6.14
X3.53Y-5.44
X3.53Y-5.54
X3.53Y-5.64
X3.53Y-5.74
X3.53Y-5.84
X3.53Y-5.94
X3.53Y-6.04
X3.53Y-6.14
T3
X2.4409Y-6.4173
X2.5409Y-6.4173
X2.6409Y-6.4173
X2.7409Y-6.4173
X2.8409Y-6.4173
X2.9409Y-6.4173
X3.0409Y-6.4173
X3.1409Y-6.4173
X3.2409Y-6.4173
X3.3409Y-6.4173
X3.4409Y-6.4173
X3.5409Y-6.4173
X3.6409Y-6.4173
X3.7409Y-6.4173
X3.8409Y-6.4173
X3.9409Y-6.4173
X4.0409Y-6.4173
X4.1409Y-6.4173
X4.2409Y-6.4173
X4.3409Y-6.4173
X4.4409Y-6.4173
X4.5409Y-6.4173
X4.6409Y-6.4173
X4.7409Y-6.4173
X4.8409Y-6.4173
X4.9409Y-6.4173
X5.0409Y-6.4173
X5.1409Y-6.4173
X5.2409Y-6.4173
X5.3409Y-6.4173
X5.4409Y-6.4173
X5.5409Y-6.4173
X5.6409Y-6.4173
X5.7409Y-6.4173
X5.8409Y-6.4173
X5.9409Y-6.4173
X6.0409Y-6.4173
X6.1409Y-6.4173
X6.2409Y-6.4173
X3.33Y-4.79
X3.43Y-4.79
X3.53Y-4.79
X4.25Y-4.79
X4.35Y-4.79
X4.45Y-4.79
X4.25Y-4.62
X4.35Y-4.62
X4.45Y-4.62
X2.47Y-5.34
X2.47Y-5.44
X2.47Y-5.54
X2.47Y-5.64
X2.47Y-5.74
X2.47Y-5.84
X2.47Y-5.94
X2.47Y-6.04
X2.47Y-6.14
X2.57Y-5.34
X2.57Y-5.44
X2.57Y-5.54
X2.57Y-5.64
X2.57Y-5.74
X2.57Y-5.84
X2.57Y-5.94
X2.57Y-6.04
X2.57Y-6.14
X3.79Y-4.79
X3.89Y-4.79
X3.99Y-4.79
X5.42Y-6.1
X5.42Y-6.2
X5.52Y-6.1
X5.52Y-6.2
X5.62Y-6.1
X5.62Y-6.2
X5.72Y-6.1
X5.72Y-6.2
X5.82Y-6.1
X5.82Y-6.2
X5.92Y-6.1
X5.92Y-6.2
X6.02Y-6.1
X6.02Y-6.2
X6.12Y-6.1
X6.12Y-6.2
X6.22Y-6.1
X6.22Y-6.2
X3.79Y-4.62
X3.89Y-4.62
X3.99Y-4.62
X3.33Y-4.62
X3.43Y-4.62
X3.53Y-4.62
X4.71Y-4.62
X4.81Y-4.62
X4.91Y-4.62
X4.71Y-4.79
X4.81Y-4.79
T4
X5.95Y-4.925
X6.1469Y-4.7281
X6.1469Y-5.1219
X6.2453Y-4.7281
X6.2453Y-5.1219
T2
G00X5.9638Y-4.7281
M15
G01X5.9362Y-4.7281
M16
G05
G00X5.9638Y-4.8266
M15
G01X5.9362Y-4.8266
M16
G05
G00X5.9638Y-5.0234
M15
G01X5.9362Y-5.0234
M16
G05
G00X5.9638Y-5.1219
M15
G01X5.9362Y-5.1219
M16
G05
G00X6.1469Y-4.9388
M15
G01X6.1469Y-4.9112
M16
G05
T0
M30
