M48
;DRILL file {KiCad 4.0.6} date Sat Apr 29 17:47:16 2017
;FORMAT={-:-/ absolute / metric / decimal}
FMAT,2
METRIC,TZ
T1C0.330
T2C0.800
T3C1.000
T4C1.300
%
G90
G05
M71
T1
X93.109Y-122.319
X113.03Y-157.48
T2
X73.34Y-131.027
X73.34Y-133.527
X73.66Y-119.38
X73.66Y-121.88
X73.66Y-149.86
X73.66Y-152.36
X77.47Y-116.84
X77.47Y-124.46
X77.47Y-129.54
X77.47Y-137.16
X77.47Y-148.59
X77.47Y-156.21
X80.01Y-116.84
X80.01Y-124.46
X80.01Y-129.54
X80.01Y-137.16
X80.01Y-148.59
X80.01Y-156.21
X82.55Y-116.84
X82.55Y-124.46
X82.55Y-129.54
X82.55Y-137.16
X82.55Y-148.59
X82.55Y-156.21
X85.09Y-116.84
X85.09Y-124.46
X85.09Y-129.54
X85.09Y-137.16
X85.09Y-148.59
X85.09Y-156.21
X87.63Y-116.84
X87.63Y-124.46
X87.63Y-129.54
X87.63Y-137.16
X87.63Y-148.59
X87.63Y-156.21
X90.17Y-116.84
X90.17Y-124.46
X90.17Y-129.54
X90.17Y-137.16
X90.17Y-148.59
X90.17Y-156.21
X92.71Y-116.84
X92.71Y-124.46
X92.71Y-129.54
X92.71Y-137.16
X92.71Y-148.59
X92.71Y-156.21
X95.25Y-129.54
X95.25Y-137.16
X95.25Y-148.59
X95.25Y-156.21
X97.79Y-116.84
X97.79Y-119.34
X101.6Y-116.84
X101.6Y-124.46
X102.829Y-139.69
X102.829Y-154.93
X102.87Y-135.89
X104.14Y-116.84
X104.14Y-124.46
X105.369Y-139.69
X105.369Y-154.93
X105.37Y-135.89
X106.68Y-116.84
X106.68Y-124.46
X107.909Y-139.69
X107.909Y-154.93
X109.22Y-116.84
X109.22Y-124.46
X110.449Y-139.69
X110.449Y-154.93
X111.76Y-116.84
X111.76Y-124.46
X112.989Y-139.69
X112.989Y-154.93
X114.3Y-116.84
X114.3Y-124.46
X115.529Y-139.69
X115.529Y-154.93
X116.84Y-116.84
X116.84Y-124.46
X118.069Y-139.69
X118.069Y-154.93
X120.609Y-139.69
X120.609Y-154.93
X123.149Y-139.69
X123.149Y-154.93
X123.19Y-118.11
X123.19Y-121.92
X123.19Y-125.73
X123.19Y-129.54
X123.19Y-133.35
X125.689Y-139.69
X125.689Y-154.93
X128.229Y-139.69
X128.229Y-154.93
X130.769Y-139.69
X130.769Y-154.93
X130.81Y-118.11
X130.81Y-121.92
X130.81Y-125.73
X130.81Y-129.54
X130.81Y-133.35
X133.309Y-139.69
X133.309Y-154.93
X135.849Y-139.69
X135.849Y-154.93
X135.89Y-118.11
X135.89Y-121.92
X135.89Y-127.
X135.89Y-129.5
X138.389Y-139.69
X138.389Y-154.93
X140.929Y-139.69
X140.929Y-154.93
X142.24Y-127.04
X142.24Y-129.54
X143.469Y-139.69
X143.469Y-154.93
X143.51Y-118.11
X143.51Y-121.92
X146.009Y-139.69
X146.009Y-154.93
X148.549Y-139.69
X148.549Y-154.93
X151.089Y-139.69
X151.089Y-154.93
T3
X62.23Y-162.56
X64.77Y-137.16
X64.77Y-139.7
X64.77Y-142.24
X64.77Y-149.86
X64.77Y-152.4
X64.77Y-154.94
X64.77Y-162.56
X67.31Y-137.16
X67.31Y-139.7
X67.31Y-142.24
X67.31Y-149.86
X67.31Y-152.4
X67.31Y-154.94
X67.31Y-162.56
X69.85Y-162.56
X72.39Y-162.56
X74.93Y-162.56
X77.47Y-142.24
X77.47Y-144.78
X77.47Y-162.56
X80.01Y-142.24
X80.01Y-144.78
X80.01Y-162.56
X82.55Y-142.24
X82.55Y-144.78
X82.55Y-162.56
X85.09Y-142.24
X85.09Y-144.78
X85.09Y-162.56
X87.63Y-142.24
X87.63Y-144.78
X87.63Y-162.56
X90.17Y-142.24
X90.17Y-144.78
X90.17Y-162.56
X92.71Y-142.24
X92.71Y-144.78
X92.71Y-162.56
X95.25Y-142.24
X95.25Y-144.78
X95.25Y-162.56
X97.79Y-162.56
X100.33Y-162.56
X102.87Y-162.56
X105.41Y-162.56
X107.95Y-162.56
X110.49Y-162.56
X111.76Y-129.54
X113.03Y-162.56
X114.3Y-129.54
X115.57Y-162.56
X116.84Y-129.54
X118.11Y-162.56
X120.65Y-162.56
X123.19Y-162.56
X125.73Y-162.56
X128.27Y-162.56
X130.81Y-162.56
X133.35Y-162.56
X135.89Y-162.56
X137.16Y-134.62
X138.43Y-162.56
X139.7Y-134.62
X140.97Y-162.56
X143.51Y-162.56
X146.05Y-162.56
X148.59Y-162.56
X151.13Y-162.56
X153.67Y-162.56
X156.19Y-135.885
X156.19Y-138.425
X156.19Y-140.965
X156.19Y-143.505
X156.19Y-146.045
X156.19Y-148.585
X156.19Y-151.125
X156.19Y-153.665
X156.19Y-156.205
X156.21Y-162.56
X158.73Y-135.885
X158.73Y-138.425
X158.73Y-140.965
X158.73Y-143.505
X158.73Y-146.045
X158.73Y-148.585
X158.73Y-151.125
X158.73Y-153.665
X158.73Y-156.205
X158.75Y-162.56
T4
X149.87Y-119.38
X149.87Y-128.78
X153.67Y-119.38
X153.67Y-128.78
X157.47Y-119.38
X157.47Y-128.78
T0
M30
