G04 #@! TF.FileFunction,Legend,Top*
%FSLAX46Y46*%
G04 Gerber Fmt 4.6, Leading zero omitted, Abs format (unit mm)*
G04 Created by KiCad (PCBNEW 4.0.6) date Sat Apr 29 17:47:01 2017*
%MOMM*%
%LPD*%
G01*
G04 APERTURE LIST*
%ADD10C,0.100000*%
%ADD11C,0.300000*%
%ADD12C,0.120000*%
%ADD13C,0.010000*%
%ADD14C,0.150000*%
G04 APERTURE END LIST*
D10*
D11*
X147447000Y-134904238D02*
X146854334Y-133936619D01*
X146431000Y-134904238D02*
X146431000Y-132872238D01*
X147108334Y-132872238D01*
X147277667Y-132969000D01*
X147362334Y-133065762D01*
X147447000Y-133259286D01*
X147447000Y-133549571D01*
X147362334Y-133743095D01*
X147277667Y-133839857D01*
X147108334Y-133936619D01*
X146431000Y-133936619D01*
X148886334Y-134807476D02*
X148717000Y-134904238D01*
X148378334Y-134904238D01*
X148209000Y-134807476D01*
X148124334Y-134613952D01*
X148124334Y-133839857D01*
X148209000Y-133646333D01*
X148378334Y-133549571D01*
X148717000Y-133549571D01*
X148886334Y-133646333D01*
X148971000Y-133839857D01*
X148971000Y-134033381D01*
X148124334Y-134226905D01*
X149563667Y-133549571D02*
X149987000Y-134904238D01*
X150410334Y-133549571D01*
X152357668Y-133065762D02*
X152442334Y-132969000D01*
X152611668Y-132872238D01*
X153035001Y-132872238D01*
X153204334Y-132969000D01*
X153289001Y-133065762D01*
X153373668Y-133259286D01*
X153373668Y-133452810D01*
X153289001Y-133743095D01*
X152273001Y-134904238D01*
X153373668Y-134904238D01*
X139617858Y-158706429D02*
X139689287Y-158635000D01*
X139832144Y-158563571D01*
X140189287Y-158563571D01*
X140332144Y-158635000D01*
X140403573Y-158706429D01*
X140475001Y-158849286D01*
X140475001Y-158992143D01*
X140403573Y-159206429D01*
X139546430Y-160063571D01*
X140475001Y-160063571D01*
X141403572Y-158563571D02*
X141546429Y-158563571D01*
X141689286Y-158635000D01*
X141760715Y-158706429D01*
X141832144Y-158849286D01*
X141903572Y-159135000D01*
X141903572Y-159492143D01*
X141832144Y-159777857D01*
X141760715Y-159920714D01*
X141689286Y-159992143D01*
X141546429Y-160063571D01*
X141403572Y-160063571D01*
X141260715Y-159992143D01*
X141189286Y-159920714D01*
X141117858Y-159777857D01*
X141046429Y-159492143D01*
X141046429Y-159135000D01*
X141117858Y-158849286D01*
X141189286Y-158706429D01*
X141260715Y-158635000D01*
X141403572Y-158563571D01*
X143332143Y-160063571D02*
X142475000Y-160063571D01*
X142903572Y-160063571D02*
X142903572Y-158563571D01*
X142760715Y-158777857D01*
X142617857Y-158920714D01*
X142475000Y-158992143D01*
X143832143Y-158563571D02*
X144832143Y-158563571D01*
X144189286Y-160063571D01*
X146546428Y-159277857D02*
X147046428Y-159277857D01*
X147260714Y-160063571D02*
X146546428Y-160063571D01*
X146546428Y-158563571D01*
X147260714Y-158563571D01*
X148546428Y-160063571D02*
X148546428Y-158563571D01*
X148546428Y-159992143D02*
X148403571Y-160063571D01*
X148117857Y-160063571D01*
X147974999Y-159992143D01*
X147903571Y-159920714D01*
X147832142Y-159777857D01*
X147832142Y-159349286D01*
X147903571Y-159206429D01*
X147974999Y-159135000D01*
X148117857Y-159063571D01*
X148403571Y-159063571D01*
X148546428Y-159135000D01*
X150903571Y-159277857D02*
X151117857Y-159349286D01*
X151189285Y-159420714D01*
X151260714Y-159563571D01*
X151260714Y-159777857D01*
X151189285Y-159920714D01*
X151117857Y-159992143D01*
X150974999Y-160063571D01*
X150403571Y-160063571D01*
X150403571Y-158563571D01*
X150903571Y-158563571D01*
X151046428Y-158635000D01*
X151117857Y-158706429D01*
X151189285Y-158849286D01*
X151189285Y-158992143D01*
X151117857Y-159135000D01*
X151046428Y-159206429D01*
X150903571Y-159277857D01*
X150403571Y-159277857D01*
X151903571Y-160063571D02*
X151903571Y-159063571D01*
X151903571Y-159349286D02*
X151974999Y-159206429D01*
X152046428Y-159135000D01*
X152189285Y-159063571D01*
X152332142Y-159063571D01*
X152832142Y-160063571D02*
X152832142Y-159063571D01*
X152832142Y-158563571D02*
X152760713Y-158635000D01*
X152832142Y-158706429D01*
X152903570Y-158635000D01*
X152832142Y-158563571D01*
X152832142Y-158706429D01*
X153546428Y-159063571D02*
X153546428Y-160063571D01*
X153546428Y-159206429D02*
X153617856Y-159135000D01*
X153760714Y-159063571D01*
X153974999Y-159063571D01*
X154117856Y-159135000D01*
X154189285Y-159277857D01*
X154189285Y-160063571D01*
X155546428Y-160063571D02*
X155546428Y-158563571D01*
X155546428Y-159992143D02*
X155403571Y-160063571D01*
X155117857Y-160063571D01*
X154974999Y-159992143D01*
X154903571Y-159920714D01*
X154832142Y-159777857D01*
X154832142Y-159349286D01*
X154903571Y-159206429D01*
X154974999Y-159135000D01*
X155117857Y-159063571D01*
X155403571Y-159063571D01*
X155546428Y-159135000D01*
X156475000Y-160063571D02*
X156332142Y-159992143D01*
X156260714Y-159849286D01*
X156260714Y-158563571D01*
X157617856Y-159992143D02*
X157474999Y-160063571D01*
X157189285Y-160063571D01*
X157046428Y-159992143D01*
X156974999Y-159849286D01*
X156974999Y-159277857D01*
X157046428Y-159135000D01*
X157189285Y-159063571D01*
X157474999Y-159063571D01*
X157617856Y-159135000D01*
X157689285Y-159277857D01*
X157689285Y-159420714D01*
X156974999Y-159563571D01*
X158189285Y-159063571D02*
X158546428Y-160063571D01*
X158903570Y-159063571D02*
X158546428Y-160063571D01*
X158403570Y-160420714D01*
X158332142Y-160492143D01*
X158189285Y-160563571D01*
D12*
X74700346Y-130317070D02*
X74700346Y-134237070D01*
X71980346Y-130317070D02*
X71980346Y-134237070D01*
X74700346Y-130317070D02*
X74090346Y-130317070D01*
X72590346Y-130317070D02*
X71980346Y-130317070D01*
X74700346Y-134237070D02*
X74090346Y-134237070D01*
X72590346Y-134237070D02*
X71980346Y-134237070D01*
X76080000Y-151400000D02*
G75*
G02X76080000Y-153400000I0J-1000000D01*
G01*
X76080000Y-153400000D02*
X76080000Y-155170000D01*
X76080000Y-155170000D02*
X96640000Y-155170000D01*
X96640000Y-155170000D02*
X96640000Y-149630000D01*
X96640000Y-149630000D02*
X76080000Y-149630000D01*
X76080000Y-149630000D02*
X76080000Y-151400000D01*
X76080000Y-157600000D02*
X96640000Y-157600000D01*
X96640000Y-157600000D02*
X96640000Y-147200000D01*
X96640000Y-147200000D02*
X76080000Y-147200000D01*
X76080000Y-147200000D02*
X76080000Y-157600000D01*
X136490000Y-117130000D02*
X136490000Y-116800000D01*
X136490000Y-116800000D02*
X142910000Y-116800000D01*
X142910000Y-116800000D02*
X142910000Y-117130000D01*
X136490000Y-119090000D02*
X136490000Y-119420000D01*
X136490000Y-119420000D02*
X142910000Y-119420000D01*
X142910000Y-119420000D02*
X142910000Y-119090000D01*
X76080000Y-132350000D02*
G75*
G02X76080000Y-134350000I0J-1000000D01*
G01*
X76080000Y-134350000D02*
X76080000Y-136120000D01*
X76080000Y-136120000D02*
X96640000Y-136120000D01*
X96640000Y-136120000D02*
X96640000Y-130580000D01*
X96640000Y-130580000D02*
X76080000Y-130580000D01*
X76080000Y-130580000D02*
X76080000Y-132350000D01*
X76080000Y-138550000D02*
X96640000Y-138550000D01*
X96640000Y-138550000D02*
X96640000Y-128150000D01*
X96640000Y-128150000D02*
X76080000Y-128150000D01*
X76080000Y-128150000D02*
X76080000Y-138550000D01*
X101439360Y-146309840D02*
G75*
G02X101439360Y-148309840I0J-1000000D01*
G01*
X101439360Y-148309840D02*
X101439360Y-153889840D01*
X101439360Y-153889840D02*
X152479360Y-153889840D01*
X152479360Y-153889840D02*
X152479360Y-140729840D01*
X152479360Y-140729840D02*
X101439360Y-140729840D01*
X101439360Y-140729840D02*
X101439360Y-146309840D01*
X101439360Y-156319840D02*
X152479360Y-156319840D01*
X152479360Y-156319840D02*
X152479360Y-138299840D01*
X152479360Y-138299840D02*
X101439360Y-138299840D01*
X101439360Y-138299840D02*
X101439360Y-156319840D01*
X100210000Y-119650000D02*
G75*
G02X100210000Y-121650000I0J-1000000D01*
G01*
X100210000Y-121650000D02*
X100210000Y-123420000D01*
X100210000Y-123420000D02*
X118230000Y-123420000D01*
X118230000Y-123420000D02*
X118230000Y-117880000D01*
X118230000Y-117880000D02*
X100210000Y-117880000D01*
X100210000Y-117880000D02*
X100210000Y-119650000D01*
X100210000Y-125850000D02*
X118230000Y-125850000D01*
X118230000Y-125850000D02*
X118230000Y-115450000D01*
X118230000Y-115450000D02*
X100210000Y-115450000D01*
X100210000Y-115450000D02*
X100210000Y-125850000D01*
X130210000Y-126710000D02*
X130210000Y-127040000D01*
X130210000Y-127040000D02*
X123790000Y-127040000D01*
X123790000Y-127040000D02*
X123790000Y-126710000D01*
X130210000Y-124750000D02*
X130210000Y-124420000D01*
X130210000Y-124420000D02*
X123790000Y-124420000D01*
X123790000Y-124420000D02*
X123790000Y-124750000D01*
X123790000Y-128560000D02*
X123790000Y-128230000D01*
X123790000Y-128230000D02*
X130210000Y-128230000D01*
X130210000Y-128230000D02*
X130210000Y-128560000D01*
X123790000Y-130520000D02*
X123790000Y-130850000D01*
X123790000Y-130850000D02*
X130210000Y-130850000D01*
X130210000Y-130850000D02*
X130210000Y-130520000D01*
X142910000Y-122900000D02*
X142910000Y-123230000D01*
X142910000Y-123230000D02*
X136490000Y-123230000D01*
X136490000Y-123230000D02*
X136490000Y-122900000D01*
X142910000Y-120940000D02*
X142910000Y-120610000D01*
X142910000Y-120610000D02*
X136490000Y-120610000D01*
X136490000Y-120610000D02*
X136490000Y-120940000D01*
X130210000Y-119090000D02*
X130210000Y-119420000D01*
X130210000Y-119420000D02*
X123790000Y-119420000D01*
X123790000Y-119420000D02*
X123790000Y-119090000D01*
X130210000Y-117130000D02*
X130210000Y-116800000D01*
X130210000Y-116800000D02*
X123790000Y-116800000D01*
X123790000Y-116800000D02*
X123790000Y-117130000D01*
X102160000Y-134530000D02*
X106080000Y-134530000D01*
X102160000Y-137250000D02*
X106080000Y-137250000D01*
X102160000Y-134530000D02*
X102160000Y-135140000D01*
X102160000Y-136640000D02*
X102160000Y-137250000D01*
X106080000Y-134530000D02*
X106080000Y-135140000D01*
X106080000Y-136640000D02*
X106080000Y-137250000D01*
X136871400Y-130646863D02*
G75*
G03X136870000Y-125852564I-981400J2396863D01*
G01*
X134908600Y-130646863D02*
G75*
G02X134910000Y-125852564I981400J2396863D01*
G01*
X134908600Y-130646863D02*
G75*
G03X136870000Y-130647436I981400J2396863D01*
G01*
X138440000Y-128250000D02*
X133340000Y-128250000D01*
X138440000Y-128290000D02*
X133340000Y-128290000D01*
X138439000Y-128330000D02*
X133341000Y-128330000D01*
X138438000Y-128370000D02*
X133342000Y-128370000D01*
X138436000Y-128410000D02*
X133344000Y-128410000D01*
X138433000Y-128450000D02*
X133347000Y-128450000D01*
X138429000Y-128490000D02*
X133351000Y-128490000D01*
X138425000Y-128530000D02*
X136870000Y-128530000D01*
X134910000Y-128530000D02*
X133355000Y-128530000D01*
X138421000Y-128570000D02*
X136870000Y-128570000D01*
X134910000Y-128570000D02*
X133359000Y-128570000D01*
X138415000Y-128610000D02*
X136870000Y-128610000D01*
X134910000Y-128610000D02*
X133365000Y-128610000D01*
X138409000Y-128650000D02*
X136870000Y-128650000D01*
X134910000Y-128650000D02*
X133371000Y-128650000D01*
X138403000Y-128690000D02*
X136870000Y-128690000D01*
X134910000Y-128690000D02*
X133377000Y-128690000D01*
X138396000Y-128730000D02*
X136870000Y-128730000D01*
X134910000Y-128730000D02*
X133384000Y-128730000D01*
X138388000Y-128770000D02*
X136870000Y-128770000D01*
X134910000Y-128770000D02*
X133392000Y-128770000D01*
X138379000Y-128810000D02*
X136870000Y-128810000D01*
X134910000Y-128810000D02*
X133401000Y-128810000D01*
X138370000Y-128850000D02*
X136870000Y-128850000D01*
X134910000Y-128850000D02*
X133410000Y-128850000D01*
X138360000Y-128890000D02*
X136870000Y-128890000D01*
X134910000Y-128890000D02*
X133420000Y-128890000D01*
X138350000Y-128930000D02*
X136870000Y-128930000D01*
X134910000Y-128930000D02*
X133430000Y-128930000D01*
X138338000Y-128971000D02*
X136870000Y-128971000D01*
X134910000Y-128971000D02*
X133442000Y-128971000D01*
X138326000Y-129011000D02*
X136870000Y-129011000D01*
X134910000Y-129011000D02*
X133454000Y-129011000D01*
X138314000Y-129051000D02*
X136870000Y-129051000D01*
X134910000Y-129051000D02*
X133466000Y-129051000D01*
X138300000Y-129091000D02*
X136870000Y-129091000D01*
X134910000Y-129091000D02*
X133480000Y-129091000D01*
X138286000Y-129131000D02*
X136870000Y-129131000D01*
X134910000Y-129131000D02*
X133494000Y-129131000D01*
X138272000Y-129171000D02*
X136870000Y-129171000D01*
X134910000Y-129171000D02*
X133508000Y-129171000D01*
X138256000Y-129211000D02*
X136870000Y-129211000D01*
X134910000Y-129211000D02*
X133524000Y-129211000D01*
X138240000Y-129251000D02*
X136870000Y-129251000D01*
X134910000Y-129251000D02*
X133540000Y-129251000D01*
X138223000Y-129291000D02*
X136870000Y-129291000D01*
X134910000Y-129291000D02*
X133557000Y-129291000D01*
X138205000Y-129331000D02*
X136870000Y-129331000D01*
X134910000Y-129331000D02*
X133575000Y-129331000D01*
X138186000Y-129371000D02*
X136870000Y-129371000D01*
X134910000Y-129371000D02*
X133594000Y-129371000D01*
X138166000Y-129411000D02*
X136870000Y-129411000D01*
X134910000Y-129411000D02*
X133614000Y-129411000D01*
X138146000Y-129451000D02*
X136870000Y-129451000D01*
X134910000Y-129451000D02*
X133634000Y-129451000D01*
X138124000Y-129491000D02*
X136870000Y-129491000D01*
X134910000Y-129491000D02*
X133656000Y-129491000D01*
X138102000Y-129531000D02*
X136870000Y-129531000D01*
X134910000Y-129531000D02*
X133678000Y-129531000D01*
X138079000Y-129571000D02*
X136870000Y-129571000D01*
X134910000Y-129571000D02*
X133701000Y-129571000D01*
X138055000Y-129611000D02*
X136870000Y-129611000D01*
X134910000Y-129611000D02*
X133725000Y-129611000D01*
X138030000Y-129651000D02*
X136870000Y-129651000D01*
X134910000Y-129651000D02*
X133750000Y-129651000D01*
X138003000Y-129691000D02*
X136870000Y-129691000D01*
X134910000Y-129691000D02*
X133777000Y-129691000D01*
X137976000Y-129731000D02*
X136870000Y-129731000D01*
X134910000Y-129731000D02*
X133804000Y-129731000D01*
X137948000Y-129771000D02*
X136870000Y-129771000D01*
X134910000Y-129771000D02*
X133832000Y-129771000D01*
X137918000Y-129811000D02*
X136870000Y-129811000D01*
X134910000Y-129811000D02*
X133862000Y-129811000D01*
X137887000Y-129851000D02*
X136870000Y-129851000D01*
X134910000Y-129851000D02*
X133893000Y-129851000D01*
X137855000Y-129891000D02*
X136870000Y-129891000D01*
X134910000Y-129891000D02*
X133925000Y-129891000D01*
X137822000Y-129931000D02*
X136870000Y-129931000D01*
X134910000Y-129931000D02*
X133958000Y-129931000D01*
X137787000Y-129971000D02*
X136870000Y-129971000D01*
X134910000Y-129971000D02*
X133993000Y-129971000D01*
X137751000Y-130011000D02*
X136870000Y-130011000D01*
X134910000Y-130011000D02*
X134029000Y-130011000D01*
X137713000Y-130051000D02*
X136870000Y-130051000D01*
X134910000Y-130051000D02*
X134067000Y-130051000D01*
X137673000Y-130091000D02*
X136870000Y-130091000D01*
X134910000Y-130091000D02*
X134107000Y-130091000D01*
X137632000Y-130131000D02*
X136870000Y-130131000D01*
X134910000Y-130131000D02*
X134148000Y-130131000D01*
X137589000Y-130171000D02*
X136870000Y-130171000D01*
X134910000Y-130171000D02*
X134191000Y-130171000D01*
X137544000Y-130211000D02*
X136870000Y-130211000D01*
X134910000Y-130211000D02*
X134236000Y-130211000D01*
X137496000Y-130251000D02*
X136870000Y-130251000D01*
X134910000Y-130251000D02*
X134284000Y-130251000D01*
X137446000Y-130291000D02*
X136870000Y-130291000D01*
X134910000Y-130291000D02*
X134334000Y-130291000D01*
X137394000Y-130331000D02*
X136870000Y-130331000D01*
X134910000Y-130331000D02*
X134386000Y-130331000D01*
X137338000Y-130371000D02*
X136870000Y-130371000D01*
X134910000Y-130371000D02*
X134442000Y-130371000D01*
X137280000Y-130411000D02*
X136870000Y-130411000D01*
X134910000Y-130411000D02*
X134500000Y-130411000D01*
X137217000Y-130451000D02*
X136870000Y-130451000D01*
X134910000Y-130451000D02*
X134563000Y-130451000D01*
X137151000Y-130491000D02*
X134629000Y-130491000D01*
X137079000Y-130531000D02*
X134701000Y-130531000D01*
X137002000Y-130571000D02*
X134778000Y-130571000D01*
X136918000Y-130611000D02*
X134862000Y-130611000D01*
X136824000Y-130651000D02*
X134956000Y-130651000D01*
X136719000Y-130691000D02*
X135061000Y-130691000D01*
X136597000Y-130731000D02*
X135183000Y-130731000D01*
X136449000Y-130771000D02*
X135331000Y-130771000D01*
X136244000Y-130811000D02*
X135536000Y-130811000D01*
X135890000Y-124800000D02*
X135890000Y-126000000D01*
X136540000Y-125400000D02*
X135240000Y-125400000D01*
X143221400Y-130686863D02*
G75*
G03X143220000Y-125892564I-981400J2396863D01*
G01*
X141258600Y-130686863D02*
G75*
G02X141260000Y-125892564I981400J2396863D01*
G01*
X141258600Y-130686863D02*
G75*
G03X143220000Y-130687436I981400J2396863D01*
G01*
X144790000Y-128290000D02*
X139690000Y-128290000D01*
X144790000Y-128330000D02*
X139690000Y-128330000D01*
X144789000Y-128370000D02*
X139691000Y-128370000D01*
X144788000Y-128410000D02*
X139692000Y-128410000D01*
X144786000Y-128450000D02*
X139694000Y-128450000D01*
X144783000Y-128490000D02*
X139697000Y-128490000D01*
X144779000Y-128530000D02*
X139701000Y-128530000D01*
X144775000Y-128570000D02*
X143220000Y-128570000D01*
X141260000Y-128570000D02*
X139705000Y-128570000D01*
X144771000Y-128610000D02*
X143220000Y-128610000D01*
X141260000Y-128610000D02*
X139709000Y-128610000D01*
X144765000Y-128650000D02*
X143220000Y-128650000D01*
X141260000Y-128650000D02*
X139715000Y-128650000D01*
X144759000Y-128690000D02*
X143220000Y-128690000D01*
X141260000Y-128690000D02*
X139721000Y-128690000D01*
X144753000Y-128730000D02*
X143220000Y-128730000D01*
X141260000Y-128730000D02*
X139727000Y-128730000D01*
X144746000Y-128770000D02*
X143220000Y-128770000D01*
X141260000Y-128770000D02*
X139734000Y-128770000D01*
X144738000Y-128810000D02*
X143220000Y-128810000D01*
X141260000Y-128810000D02*
X139742000Y-128810000D01*
X144729000Y-128850000D02*
X143220000Y-128850000D01*
X141260000Y-128850000D02*
X139751000Y-128850000D01*
X144720000Y-128890000D02*
X143220000Y-128890000D01*
X141260000Y-128890000D02*
X139760000Y-128890000D01*
X144710000Y-128930000D02*
X143220000Y-128930000D01*
X141260000Y-128930000D02*
X139770000Y-128930000D01*
X144700000Y-128970000D02*
X143220000Y-128970000D01*
X141260000Y-128970000D02*
X139780000Y-128970000D01*
X144688000Y-129011000D02*
X143220000Y-129011000D01*
X141260000Y-129011000D02*
X139792000Y-129011000D01*
X144676000Y-129051000D02*
X143220000Y-129051000D01*
X141260000Y-129051000D02*
X139804000Y-129051000D01*
X144664000Y-129091000D02*
X143220000Y-129091000D01*
X141260000Y-129091000D02*
X139816000Y-129091000D01*
X144650000Y-129131000D02*
X143220000Y-129131000D01*
X141260000Y-129131000D02*
X139830000Y-129131000D01*
X144636000Y-129171000D02*
X143220000Y-129171000D01*
X141260000Y-129171000D02*
X139844000Y-129171000D01*
X144622000Y-129211000D02*
X143220000Y-129211000D01*
X141260000Y-129211000D02*
X139858000Y-129211000D01*
X144606000Y-129251000D02*
X143220000Y-129251000D01*
X141260000Y-129251000D02*
X139874000Y-129251000D01*
X144590000Y-129291000D02*
X143220000Y-129291000D01*
X141260000Y-129291000D02*
X139890000Y-129291000D01*
X144573000Y-129331000D02*
X143220000Y-129331000D01*
X141260000Y-129331000D02*
X139907000Y-129331000D01*
X144555000Y-129371000D02*
X143220000Y-129371000D01*
X141260000Y-129371000D02*
X139925000Y-129371000D01*
X144536000Y-129411000D02*
X143220000Y-129411000D01*
X141260000Y-129411000D02*
X139944000Y-129411000D01*
X144516000Y-129451000D02*
X143220000Y-129451000D01*
X141260000Y-129451000D02*
X139964000Y-129451000D01*
X144496000Y-129491000D02*
X143220000Y-129491000D01*
X141260000Y-129491000D02*
X139984000Y-129491000D01*
X144474000Y-129531000D02*
X143220000Y-129531000D01*
X141260000Y-129531000D02*
X140006000Y-129531000D01*
X144452000Y-129571000D02*
X143220000Y-129571000D01*
X141260000Y-129571000D02*
X140028000Y-129571000D01*
X144429000Y-129611000D02*
X143220000Y-129611000D01*
X141260000Y-129611000D02*
X140051000Y-129611000D01*
X144405000Y-129651000D02*
X143220000Y-129651000D01*
X141260000Y-129651000D02*
X140075000Y-129651000D01*
X144380000Y-129691000D02*
X143220000Y-129691000D01*
X141260000Y-129691000D02*
X140100000Y-129691000D01*
X144353000Y-129731000D02*
X143220000Y-129731000D01*
X141260000Y-129731000D02*
X140127000Y-129731000D01*
X144326000Y-129771000D02*
X143220000Y-129771000D01*
X141260000Y-129771000D02*
X140154000Y-129771000D01*
X144298000Y-129811000D02*
X143220000Y-129811000D01*
X141260000Y-129811000D02*
X140182000Y-129811000D01*
X144268000Y-129851000D02*
X143220000Y-129851000D01*
X141260000Y-129851000D02*
X140212000Y-129851000D01*
X144237000Y-129891000D02*
X143220000Y-129891000D01*
X141260000Y-129891000D02*
X140243000Y-129891000D01*
X144205000Y-129931000D02*
X143220000Y-129931000D01*
X141260000Y-129931000D02*
X140275000Y-129931000D01*
X144172000Y-129971000D02*
X143220000Y-129971000D01*
X141260000Y-129971000D02*
X140308000Y-129971000D01*
X144137000Y-130011000D02*
X143220000Y-130011000D01*
X141260000Y-130011000D02*
X140343000Y-130011000D01*
X144101000Y-130051000D02*
X143220000Y-130051000D01*
X141260000Y-130051000D02*
X140379000Y-130051000D01*
X144063000Y-130091000D02*
X143220000Y-130091000D01*
X141260000Y-130091000D02*
X140417000Y-130091000D01*
X144023000Y-130131000D02*
X143220000Y-130131000D01*
X141260000Y-130131000D02*
X140457000Y-130131000D01*
X143982000Y-130171000D02*
X143220000Y-130171000D01*
X141260000Y-130171000D02*
X140498000Y-130171000D01*
X143939000Y-130211000D02*
X143220000Y-130211000D01*
X141260000Y-130211000D02*
X140541000Y-130211000D01*
X143894000Y-130251000D02*
X143220000Y-130251000D01*
X141260000Y-130251000D02*
X140586000Y-130251000D01*
X143846000Y-130291000D02*
X143220000Y-130291000D01*
X141260000Y-130291000D02*
X140634000Y-130291000D01*
X143796000Y-130331000D02*
X143220000Y-130331000D01*
X141260000Y-130331000D02*
X140684000Y-130331000D01*
X143744000Y-130371000D02*
X143220000Y-130371000D01*
X141260000Y-130371000D02*
X140736000Y-130371000D01*
X143688000Y-130411000D02*
X143220000Y-130411000D01*
X141260000Y-130411000D02*
X140792000Y-130411000D01*
X143630000Y-130451000D02*
X143220000Y-130451000D01*
X141260000Y-130451000D02*
X140850000Y-130451000D01*
X143567000Y-130491000D02*
X143220000Y-130491000D01*
X141260000Y-130491000D02*
X140913000Y-130491000D01*
X143501000Y-130531000D02*
X140979000Y-130531000D01*
X143429000Y-130571000D02*
X141051000Y-130571000D01*
X143352000Y-130611000D02*
X141128000Y-130611000D01*
X143268000Y-130651000D02*
X141212000Y-130651000D01*
X143174000Y-130691000D02*
X141306000Y-130691000D01*
X143069000Y-130731000D02*
X141411000Y-130731000D01*
X142947000Y-130771000D02*
X141533000Y-130771000D01*
X142799000Y-130811000D02*
X141681000Y-130811000D01*
X142594000Y-130851000D02*
X141886000Y-130851000D01*
X142240000Y-124840000D02*
X142240000Y-126040000D01*
X142890000Y-125440000D02*
X141590000Y-125440000D01*
X138430000Y-136010000D02*
X141090000Y-136010000D01*
X141090000Y-136010000D02*
X141090000Y-133230000D01*
X141090000Y-133230000D02*
X138430000Y-133230000D01*
X138430000Y-133230000D02*
X138430000Y-136010000D01*
X137160000Y-136010000D02*
X135770000Y-136010000D01*
X135770000Y-136010000D02*
X135770000Y-134620000D01*
X123790000Y-120940000D02*
X123790000Y-120610000D01*
X123790000Y-120610000D02*
X130210000Y-120610000D01*
X130210000Y-120610000D02*
X130210000Y-120940000D01*
X123790000Y-122900000D02*
X123790000Y-123230000D01*
X123790000Y-123230000D02*
X130210000Y-123230000D01*
X130210000Y-123230000D02*
X130210000Y-122900000D01*
X130210000Y-134330000D02*
X130210000Y-134660000D01*
X130210000Y-134660000D02*
X123790000Y-134660000D01*
X123790000Y-134660000D02*
X123790000Y-134330000D01*
X130210000Y-132370000D02*
X130210000Y-132040000D01*
X130210000Y-132040000D02*
X123790000Y-132040000D01*
X123790000Y-132040000D02*
X123790000Y-132370000D01*
X76080000Y-119650000D02*
G75*
G02X76080000Y-121650000I0J-1000000D01*
G01*
X76080000Y-121650000D02*
X76080000Y-123420000D01*
X76080000Y-123420000D02*
X94100000Y-123420000D01*
X94100000Y-123420000D02*
X94100000Y-117880000D01*
X94100000Y-117880000D02*
X76080000Y-117880000D01*
X76080000Y-117880000D02*
X76080000Y-119650000D01*
X76080000Y-125850000D02*
X94100000Y-125850000D01*
X94100000Y-125850000D02*
X94100000Y-115450000D01*
X94100000Y-115450000D02*
X76080000Y-115450000D01*
X76080000Y-115450000D02*
X76080000Y-125850000D01*
X75020000Y-149150000D02*
X75020000Y-153070000D01*
X72300000Y-149150000D02*
X72300000Y-153070000D01*
X75020000Y-149150000D02*
X74410000Y-149150000D01*
X72910000Y-149150000D02*
X72300000Y-149150000D01*
X75020000Y-153070000D02*
X74410000Y-153070000D01*
X72910000Y-153070000D02*
X72300000Y-153070000D01*
X99150000Y-116130000D02*
X99150000Y-120050000D01*
X96430000Y-116130000D02*
X96430000Y-120050000D01*
X99150000Y-116130000D02*
X98540000Y-116130000D01*
X97040000Y-116130000D02*
X96430000Y-116130000D01*
X99150000Y-120050000D02*
X98540000Y-120050000D01*
X97040000Y-120050000D02*
X96430000Y-120050000D01*
X75020000Y-118670000D02*
X75020000Y-122590000D01*
X72300000Y-118670000D02*
X72300000Y-122590000D01*
X75020000Y-118670000D02*
X74410000Y-118670000D01*
X72910000Y-118670000D02*
X72300000Y-118670000D01*
X75020000Y-122590000D02*
X74410000Y-122590000D01*
X72910000Y-122590000D02*
X72300000Y-122590000D01*
X154799680Y-137154920D02*
X154799680Y-157594920D01*
X154799680Y-157594920D02*
X160119680Y-157594920D01*
X160119680Y-157594920D02*
X160119680Y-134494920D01*
X160119680Y-134494920D02*
X157459680Y-134494920D01*
X157459680Y-134494920D02*
X157459680Y-137154920D01*
X157459680Y-137154920D02*
X154799680Y-137154920D01*
X154799680Y-135884920D02*
X154799680Y-134494920D01*
X154799680Y-134494920D02*
X156189680Y-134494920D01*
X113030000Y-130870000D02*
X118170000Y-130870000D01*
X118170000Y-130870000D02*
X118170000Y-128210000D01*
X118170000Y-128210000D02*
X113030000Y-128210000D01*
X113030000Y-128210000D02*
X113030000Y-130870000D01*
X111760000Y-130870000D02*
X110430000Y-130870000D01*
X110430000Y-130870000D02*
X110430000Y-129540000D01*
X63440000Y-151130000D02*
X63440000Y-156270000D01*
X63440000Y-156270000D02*
X68640000Y-156270000D01*
X68640000Y-156270000D02*
X68640000Y-148530000D01*
X68640000Y-148530000D02*
X66040000Y-148530000D01*
X66040000Y-148530000D02*
X66040000Y-151130000D01*
X66040000Y-151130000D02*
X63440000Y-151130000D01*
X63440000Y-149860000D02*
X63440000Y-148530000D01*
X63440000Y-148530000D02*
X64770000Y-148530000D01*
X78740000Y-146110000D02*
X96580000Y-146110000D01*
X96580000Y-146110000D02*
X96580000Y-140910000D01*
X96580000Y-140910000D02*
X76140000Y-140910000D01*
X76140000Y-140910000D02*
X76140000Y-143510000D01*
X76140000Y-143510000D02*
X78740000Y-143510000D01*
X78740000Y-143510000D02*
X78740000Y-146110000D01*
X77470000Y-146110000D02*
X76140000Y-146110000D01*
X76140000Y-146110000D02*
X76140000Y-144780000D01*
X65980000Y-138430000D02*
X65980000Y-143570000D01*
X65980000Y-143570000D02*
X68640000Y-143570000D01*
X68640000Y-143570000D02*
X68640000Y-138430000D01*
X68640000Y-138430000D02*
X65980000Y-138430000D01*
X65980000Y-137160000D02*
X65980000Y-135830000D01*
X65980000Y-135830000D02*
X67310000Y-135830000D01*
X63440000Y-138430000D02*
X63440000Y-143570000D01*
X63440000Y-143570000D02*
X66100000Y-143570000D01*
X66100000Y-143570000D02*
X66100000Y-138430000D01*
X66100000Y-138430000D02*
X63440000Y-138430000D01*
X63440000Y-137160000D02*
X63440000Y-135830000D01*
X63440000Y-135830000D02*
X64770000Y-135830000D01*
D13*
G36*
X67865814Y-127008931D02*
X67949635Y-127453555D01*
X68258920Y-127581053D01*
X68568206Y-127708551D01*
X68939246Y-127456246D01*
X69043157Y-127385996D01*
X69137087Y-127323272D01*
X69216652Y-127270938D01*
X69277470Y-127231857D01*
X69315157Y-127208893D01*
X69325421Y-127203942D01*
X69343910Y-127216676D01*
X69383420Y-127251882D01*
X69439522Y-127305062D01*
X69507787Y-127371718D01*
X69583786Y-127447354D01*
X69663092Y-127527472D01*
X69741275Y-127607574D01*
X69813907Y-127683164D01*
X69876559Y-127749745D01*
X69924803Y-127802818D01*
X69954210Y-127837887D01*
X69961241Y-127849623D01*
X69951123Y-127871260D01*
X69922759Y-127918662D01*
X69879129Y-127987193D01*
X69823218Y-128072215D01*
X69758006Y-128169093D01*
X69720219Y-128224350D01*
X69651343Y-128325248D01*
X69590140Y-128416299D01*
X69539578Y-128492970D01*
X69502628Y-128550728D01*
X69482258Y-128585043D01*
X69479197Y-128592254D01*
X69486136Y-128612748D01*
X69505051Y-128660513D01*
X69533087Y-128728832D01*
X69567391Y-128810989D01*
X69605109Y-128900270D01*
X69643387Y-128989958D01*
X69679370Y-129073338D01*
X69710206Y-129143694D01*
X69733039Y-129194310D01*
X69745017Y-129218471D01*
X69745724Y-129219422D01*
X69764531Y-129224036D01*
X69814618Y-129234328D01*
X69890793Y-129249287D01*
X69987865Y-129267901D01*
X70100643Y-129289159D01*
X70166442Y-129301418D01*
X70286950Y-129324362D01*
X70395797Y-129346195D01*
X70487476Y-129365722D01*
X70556481Y-129381748D01*
X70597304Y-129393079D01*
X70605511Y-129396674D01*
X70613548Y-129421006D01*
X70620033Y-129475959D01*
X70624970Y-129555108D01*
X70628364Y-129652026D01*
X70630218Y-129760287D01*
X70630538Y-129873465D01*
X70629327Y-129985135D01*
X70626590Y-130088868D01*
X70622331Y-130178241D01*
X70616555Y-130246826D01*
X70609267Y-130288197D01*
X70604895Y-130296810D01*
X70578764Y-130307133D01*
X70523393Y-130321892D01*
X70446107Y-130339352D01*
X70354230Y-130357780D01*
X70322158Y-130363741D01*
X70167524Y-130392066D01*
X70045375Y-130414876D01*
X69951673Y-130433080D01*
X69882384Y-130447583D01*
X69833471Y-130459292D01*
X69800897Y-130469115D01*
X69780628Y-130477956D01*
X69768626Y-130486724D01*
X69766947Y-130488457D01*
X69750184Y-130516371D01*
X69724614Y-130570695D01*
X69692788Y-130644777D01*
X69657260Y-130731965D01*
X69620583Y-130825608D01*
X69585311Y-130919052D01*
X69553996Y-131005647D01*
X69529193Y-131078740D01*
X69513454Y-131131678D01*
X69509332Y-131157811D01*
X69509676Y-131158726D01*
X69523641Y-131180086D01*
X69555322Y-131227084D01*
X69601391Y-131294827D01*
X69658518Y-131378423D01*
X69723373Y-131472982D01*
X69741843Y-131499854D01*
X69807699Y-131597275D01*
X69865650Y-131686163D01*
X69912538Y-131761412D01*
X69945207Y-131817920D01*
X69960500Y-131850581D01*
X69961241Y-131854593D01*
X69948392Y-131875684D01*
X69912888Y-131917464D01*
X69859293Y-131975445D01*
X69792171Y-132045135D01*
X69716087Y-132122045D01*
X69635604Y-132201683D01*
X69555287Y-132279561D01*
X69479699Y-132351186D01*
X69413405Y-132412070D01*
X69360969Y-132457721D01*
X69326955Y-132483650D01*
X69317545Y-132487883D01*
X69295643Y-132477912D01*
X69250800Y-132451020D01*
X69190321Y-132411736D01*
X69143789Y-132380117D01*
X69059475Y-132322098D01*
X68959626Y-132253784D01*
X68859473Y-132185579D01*
X68805627Y-132149075D01*
X68623371Y-132025800D01*
X68470381Y-132108520D01*
X68400682Y-132144759D01*
X68341414Y-132172926D01*
X68301311Y-132188991D01*
X68291103Y-132191226D01*
X68278829Y-132174722D01*
X68254613Y-132128082D01*
X68220263Y-132055609D01*
X68177588Y-131961606D01*
X68128394Y-131850374D01*
X68074490Y-131726215D01*
X68017684Y-131593432D01*
X67959782Y-131456327D01*
X67902593Y-131319202D01*
X67847924Y-131186358D01*
X67797584Y-131062098D01*
X67753380Y-130950725D01*
X67717119Y-130856539D01*
X67690609Y-130783844D01*
X67675658Y-130736941D01*
X67673254Y-130720833D01*
X67692311Y-130700286D01*
X67734036Y-130666933D01*
X67789706Y-130627702D01*
X67794378Y-130624599D01*
X67938264Y-130509423D01*
X68054283Y-130375053D01*
X68141430Y-130225784D01*
X68198699Y-130065913D01*
X68225086Y-129899737D01*
X68219585Y-129731552D01*
X68181190Y-129565655D01*
X68108895Y-129406342D01*
X68087626Y-129371487D01*
X67976996Y-129230737D01*
X67846302Y-129117714D01*
X67700064Y-129033003D01*
X67542808Y-128977194D01*
X67379057Y-128950874D01*
X67213333Y-128954630D01*
X67050162Y-128989050D01*
X66894065Y-129054723D01*
X66749567Y-129152235D01*
X66704869Y-129191813D01*
X66591112Y-129315703D01*
X66508218Y-129446124D01*
X66451356Y-129592315D01*
X66419687Y-129737088D01*
X66411869Y-129899860D01*
X66437938Y-130063440D01*
X66495245Y-130222298D01*
X66581144Y-130370906D01*
X66692986Y-130503735D01*
X66828123Y-130615256D01*
X66845883Y-130627011D01*
X66902150Y-130665508D01*
X66944923Y-130698863D01*
X66965372Y-130720160D01*
X66965669Y-130720833D01*
X66961279Y-130743871D01*
X66943876Y-130796157D01*
X66915268Y-130873390D01*
X66877265Y-130971268D01*
X66831674Y-131085491D01*
X66780303Y-131211758D01*
X66724962Y-131345767D01*
X66667458Y-131483218D01*
X66609601Y-131619808D01*
X66553198Y-131751237D01*
X66500058Y-131873205D01*
X66451990Y-131981409D01*
X66410801Y-132071549D01*
X66378301Y-132139323D01*
X66356297Y-132180430D01*
X66347436Y-132191226D01*
X66320360Y-132182819D01*
X66269697Y-132160272D01*
X66204183Y-132127613D01*
X66168159Y-132108520D01*
X66015168Y-132025800D01*
X65832912Y-132149075D01*
X65739875Y-132212228D01*
X65638015Y-132281727D01*
X65542562Y-132347165D01*
X65494750Y-132380117D01*
X65427505Y-132425273D01*
X65370564Y-132461057D01*
X65331354Y-132482938D01*
X65318619Y-132487563D01*
X65300083Y-132475085D01*
X65259059Y-132440252D01*
X65199525Y-132386678D01*
X65125458Y-132317983D01*
X65040835Y-132237781D01*
X64987315Y-132186286D01*
X64893681Y-132094286D01*
X64812759Y-132011999D01*
X64747823Y-131942945D01*
X64702142Y-131890644D01*
X64678989Y-131858616D01*
X64676768Y-131852116D01*
X64687076Y-131827394D01*
X64715561Y-131777405D01*
X64759063Y-131707212D01*
X64814423Y-131621875D01*
X64878480Y-131526456D01*
X64896697Y-131499854D01*
X64963073Y-131403167D01*
X65022622Y-131316117D01*
X65072016Y-131243595D01*
X65107925Y-131190493D01*
X65127019Y-131161703D01*
X65128864Y-131158726D01*
X65126105Y-131135782D01*
X65111462Y-131085336D01*
X65087487Y-131014041D01*
X65056734Y-130928547D01*
X65021756Y-130835507D01*
X64985107Y-130741574D01*
X64949339Y-130653399D01*
X64917006Y-130577634D01*
X64890662Y-130520931D01*
X64872858Y-130489943D01*
X64871593Y-130488457D01*
X64860706Y-130479601D01*
X64842318Y-130470843D01*
X64812394Y-130461277D01*
X64766897Y-130449996D01*
X64701791Y-130436093D01*
X64613039Y-130418663D01*
X64496607Y-130396798D01*
X64348458Y-130369591D01*
X64316382Y-130363741D01*
X64221314Y-130345374D01*
X64138435Y-130327405D01*
X64075070Y-130311569D01*
X64038542Y-130299600D01*
X64033644Y-130296810D01*
X64025573Y-130272072D01*
X64019013Y-130216790D01*
X64013967Y-130137389D01*
X64010441Y-130040296D01*
X64008439Y-129931938D01*
X64007964Y-129818740D01*
X64009023Y-129707128D01*
X64011618Y-129603529D01*
X64015754Y-129514368D01*
X64021437Y-129446072D01*
X64028669Y-129405066D01*
X64033029Y-129396674D01*
X64057302Y-129388208D01*
X64112574Y-129374435D01*
X64193338Y-129356550D01*
X64294088Y-129335748D01*
X64409317Y-129313223D01*
X64472098Y-129301418D01*
X64591213Y-129279151D01*
X64697435Y-129258979D01*
X64785573Y-129241915D01*
X64850434Y-129228969D01*
X64886826Y-129221155D01*
X64892816Y-129219422D01*
X64902939Y-129199890D01*
X64924338Y-129152843D01*
X64954161Y-129085003D01*
X64989555Y-129003091D01*
X65027668Y-128913828D01*
X65065647Y-128823935D01*
X65100640Y-128740135D01*
X65129794Y-128669147D01*
X65150257Y-128617694D01*
X65159177Y-128592497D01*
X65159343Y-128591396D01*
X65149231Y-128571519D01*
X65120883Y-128525777D01*
X65077277Y-128458717D01*
X65021394Y-128374884D01*
X64956213Y-128278826D01*
X64918321Y-128223650D01*
X64849275Y-128122481D01*
X64787950Y-128030630D01*
X64737337Y-127952744D01*
X64700429Y-127893469D01*
X64680218Y-127857451D01*
X64677299Y-127849377D01*
X64689847Y-127830584D01*
X64724537Y-127790457D01*
X64776937Y-127733493D01*
X64842616Y-127664185D01*
X64917144Y-127587031D01*
X64996087Y-127506525D01*
X65075017Y-127427163D01*
X65149500Y-127353440D01*
X65215106Y-127289852D01*
X65267404Y-127240894D01*
X65301961Y-127211061D01*
X65313522Y-127203942D01*
X65332346Y-127213953D01*
X65377369Y-127242078D01*
X65444213Y-127285454D01*
X65528501Y-127341218D01*
X65625856Y-127406506D01*
X65699293Y-127456246D01*
X66070333Y-127708551D01*
X66688905Y-127453555D01*
X66772725Y-127008931D01*
X66856546Y-126564307D01*
X67781994Y-126564307D01*
X67865814Y-127008931D01*
X67865814Y-127008931D01*
G37*
X67865814Y-127008931D02*
X67949635Y-127453555D01*
X68258920Y-127581053D01*
X68568206Y-127708551D01*
X68939246Y-127456246D01*
X69043157Y-127385996D01*
X69137087Y-127323272D01*
X69216652Y-127270938D01*
X69277470Y-127231857D01*
X69315157Y-127208893D01*
X69325421Y-127203942D01*
X69343910Y-127216676D01*
X69383420Y-127251882D01*
X69439522Y-127305062D01*
X69507787Y-127371718D01*
X69583786Y-127447354D01*
X69663092Y-127527472D01*
X69741275Y-127607574D01*
X69813907Y-127683164D01*
X69876559Y-127749745D01*
X69924803Y-127802818D01*
X69954210Y-127837887D01*
X69961241Y-127849623D01*
X69951123Y-127871260D01*
X69922759Y-127918662D01*
X69879129Y-127987193D01*
X69823218Y-128072215D01*
X69758006Y-128169093D01*
X69720219Y-128224350D01*
X69651343Y-128325248D01*
X69590140Y-128416299D01*
X69539578Y-128492970D01*
X69502628Y-128550728D01*
X69482258Y-128585043D01*
X69479197Y-128592254D01*
X69486136Y-128612748D01*
X69505051Y-128660513D01*
X69533087Y-128728832D01*
X69567391Y-128810989D01*
X69605109Y-128900270D01*
X69643387Y-128989958D01*
X69679370Y-129073338D01*
X69710206Y-129143694D01*
X69733039Y-129194310D01*
X69745017Y-129218471D01*
X69745724Y-129219422D01*
X69764531Y-129224036D01*
X69814618Y-129234328D01*
X69890793Y-129249287D01*
X69987865Y-129267901D01*
X70100643Y-129289159D01*
X70166442Y-129301418D01*
X70286950Y-129324362D01*
X70395797Y-129346195D01*
X70487476Y-129365722D01*
X70556481Y-129381748D01*
X70597304Y-129393079D01*
X70605511Y-129396674D01*
X70613548Y-129421006D01*
X70620033Y-129475959D01*
X70624970Y-129555108D01*
X70628364Y-129652026D01*
X70630218Y-129760287D01*
X70630538Y-129873465D01*
X70629327Y-129985135D01*
X70626590Y-130088868D01*
X70622331Y-130178241D01*
X70616555Y-130246826D01*
X70609267Y-130288197D01*
X70604895Y-130296810D01*
X70578764Y-130307133D01*
X70523393Y-130321892D01*
X70446107Y-130339352D01*
X70354230Y-130357780D01*
X70322158Y-130363741D01*
X70167524Y-130392066D01*
X70045375Y-130414876D01*
X69951673Y-130433080D01*
X69882384Y-130447583D01*
X69833471Y-130459292D01*
X69800897Y-130469115D01*
X69780628Y-130477956D01*
X69768626Y-130486724D01*
X69766947Y-130488457D01*
X69750184Y-130516371D01*
X69724614Y-130570695D01*
X69692788Y-130644777D01*
X69657260Y-130731965D01*
X69620583Y-130825608D01*
X69585311Y-130919052D01*
X69553996Y-131005647D01*
X69529193Y-131078740D01*
X69513454Y-131131678D01*
X69509332Y-131157811D01*
X69509676Y-131158726D01*
X69523641Y-131180086D01*
X69555322Y-131227084D01*
X69601391Y-131294827D01*
X69658518Y-131378423D01*
X69723373Y-131472982D01*
X69741843Y-131499854D01*
X69807699Y-131597275D01*
X69865650Y-131686163D01*
X69912538Y-131761412D01*
X69945207Y-131817920D01*
X69960500Y-131850581D01*
X69961241Y-131854593D01*
X69948392Y-131875684D01*
X69912888Y-131917464D01*
X69859293Y-131975445D01*
X69792171Y-132045135D01*
X69716087Y-132122045D01*
X69635604Y-132201683D01*
X69555287Y-132279561D01*
X69479699Y-132351186D01*
X69413405Y-132412070D01*
X69360969Y-132457721D01*
X69326955Y-132483650D01*
X69317545Y-132487883D01*
X69295643Y-132477912D01*
X69250800Y-132451020D01*
X69190321Y-132411736D01*
X69143789Y-132380117D01*
X69059475Y-132322098D01*
X68959626Y-132253784D01*
X68859473Y-132185579D01*
X68805627Y-132149075D01*
X68623371Y-132025800D01*
X68470381Y-132108520D01*
X68400682Y-132144759D01*
X68341414Y-132172926D01*
X68301311Y-132188991D01*
X68291103Y-132191226D01*
X68278829Y-132174722D01*
X68254613Y-132128082D01*
X68220263Y-132055609D01*
X68177588Y-131961606D01*
X68128394Y-131850374D01*
X68074490Y-131726215D01*
X68017684Y-131593432D01*
X67959782Y-131456327D01*
X67902593Y-131319202D01*
X67847924Y-131186358D01*
X67797584Y-131062098D01*
X67753380Y-130950725D01*
X67717119Y-130856539D01*
X67690609Y-130783844D01*
X67675658Y-130736941D01*
X67673254Y-130720833D01*
X67692311Y-130700286D01*
X67734036Y-130666933D01*
X67789706Y-130627702D01*
X67794378Y-130624599D01*
X67938264Y-130509423D01*
X68054283Y-130375053D01*
X68141430Y-130225784D01*
X68198699Y-130065913D01*
X68225086Y-129899737D01*
X68219585Y-129731552D01*
X68181190Y-129565655D01*
X68108895Y-129406342D01*
X68087626Y-129371487D01*
X67976996Y-129230737D01*
X67846302Y-129117714D01*
X67700064Y-129033003D01*
X67542808Y-128977194D01*
X67379057Y-128950874D01*
X67213333Y-128954630D01*
X67050162Y-128989050D01*
X66894065Y-129054723D01*
X66749567Y-129152235D01*
X66704869Y-129191813D01*
X66591112Y-129315703D01*
X66508218Y-129446124D01*
X66451356Y-129592315D01*
X66419687Y-129737088D01*
X66411869Y-129899860D01*
X66437938Y-130063440D01*
X66495245Y-130222298D01*
X66581144Y-130370906D01*
X66692986Y-130503735D01*
X66828123Y-130615256D01*
X66845883Y-130627011D01*
X66902150Y-130665508D01*
X66944923Y-130698863D01*
X66965372Y-130720160D01*
X66965669Y-130720833D01*
X66961279Y-130743871D01*
X66943876Y-130796157D01*
X66915268Y-130873390D01*
X66877265Y-130971268D01*
X66831674Y-131085491D01*
X66780303Y-131211758D01*
X66724962Y-131345767D01*
X66667458Y-131483218D01*
X66609601Y-131619808D01*
X66553198Y-131751237D01*
X66500058Y-131873205D01*
X66451990Y-131981409D01*
X66410801Y-132071549D01*
X66378301Y-132139323D01*
X66356297Y-132180430D01*
X66347436Y-132191226D01*
X66320360Y-132182819D01*
X66269697Y-132160272D01*
X66204183Y-132127613D01*
X66168159Y-132108520D01*
X66015168Y-132025800D01*
X65832912Y-132149075D01*
X65739875Y-132212228D01*
X65638015Y-132281727D01*
X65542562Y-132347165D01*
X65494750Y-132380117D01*
X65427505Y-132425273D01*
X65370564Y-132461057D01*
X65331354Y-132482938D01*
X65318619Y-132487563D01*
X65300083Y-132475085D01*
X65259059Y-132440252D01*
X65199525Y-132386678D01*
X65125458Y-132317983D01*
X65040835Y-132237781D01*
X64987315Y-132186286D01*
X64893681Y-132094286D01*
X64812759Y-132011999D01*
X64747823Y-131942945D01*
X64702142Y-131890644D01*
X64678989Y-131858616D01*
X64676768Y-131852116D01*
X64687076Y-131827394D01*
X64715561Y-131777405D01*
X64759063Y-131707212D01*
X64814423Y-131621875D01*
X64878480Y-131526456D01*
X64896697Y-131499854D01*
X64963073Y-131403167D01*
X65022622Y-131316117D01*
X65072016Y-131243595D01*
X65107925Y-131190493D01*
X65127019Y-131161703D01*
X65128864Y-131158726D01*
X65126105Y-131135782D01*
X65111462Y-131085336D01*
X65087487Y-131014041D01*
X65056734Y-130928547D01*
X65021756Y-130835507D01*
X64985107Y-130741574D01*
X64949339Y-130653399D01*
X64917006Y-130577634D01*
X64890662Y-130520931D01*
X64872858Y-130489943D01*
X64871593Y-130488457D01*
X64860706Y-130479601D01*
X64842318Y-130470843D01*
X64812394Y-130461277D01*
X64766897Y-130449996D01*
X64701791Y-130436093D01*
X64613039Y-130418663D01*
X64496607Y-130396798D01*
X64348458Y-130369591D01*
X64316382Y-130363741D01*
X64221314Y-130345374D01*
X64138435Y-130327405D01*
X64075070Y-130311569D01*
X64038542Y-130299600D01*
X64033644Y-130296810D01*
X64025573Y-130272072D01*
X64019013Y-130216790D01*
X64013967Y-130137389D01*
X64010441Y-130040296D01*
X64008439Y-129931938D01*
X64007964Y-129818740D01*
X64009023Y-129707128D01*
X64011618Y-129603529D01*
X64015754Y-129514368D01*
X64021437Y-129446072D01*
X64028669Y-129405066D01*
X64033029Y-129396674D01*
X64057302Y-129388208D01*
X64112574Y-129374435D01*
X64193338Y-129356550D01*
X64294088Y-129335748D01*
X64409317Y-129313223D01*
X64472098Y-129301418D01*
X64591213Y-129279151D01*
X64697435Y-129258979D01*
X64785573Y-129241915D01*
X64850434Y-129228969D01*
X64886826Y-129221155D01*
X64892816Y-129219422D01*
X64902939Y-129199890D01*
X64924338Y-129152843D01*
X64954161Y-129085003D01*
X64989555Y-129003091D01*
X65027668Y-128913828D01*
X65065647Y-128823935D01*
X65100640Y-128740135D01*
X65129794Y-128669147D01*
X65150257Y-128617694D01*
X65159177Y-128592497D01*
X65159343Y-128591396D01*
X65149231Y-128571519D01*
X65120883Y-128525777D01*
X65077277Y-128458717D01*
X65021394Y-128374884D01*
X64956213Y-128278826D01*
X64918321Y-128223650D01*
X64849275Y-128122481D01*
X64787950Y-128030630D01*
X64737337Y-127952744D01*
X64700429Y-127893469D01*
X64680218Y-127857451D01*
X64677299Y-127849377D01*
X64689847Y-127830584D01*
X64724537Y-127790457D01*
X64776937Y-127733493D01*
X64842616Y-127664185D01*
X64917144Y-127587031D01*
X64996087Y-127506525D01*
X65075017Y-127427163D01*
X65149500Y-127353440D01*
X65215106Y-127289852D01*
X65267404Y-127240894D01*
X65301961Y-127211061D01*
X65313522Y-127203942D01*
X65332346Y-127213953D01*
X65377369Y-127242078D01*
X65444213Y-127285454D01*
X65528501Y-127341218D01*
X65625856Y-127406506D01*
X65699293Y-127456246D01*
X66070333Y-127708551D01*
X66688905Y-127453555D01*
X66772725Y-127008931D01*
X66856546Y-126564307D01*
X67781994Y-126564307D01*
X67865814Y-127008931D01*
D12*
X62230000Y-163890000D02*
X60900000Y-163890000D01*
X60900000Y-163890000D02*
X60900000Y-162560000D01*
D14*
X147470000Y-118680000D02*
X159870000Y-118680000D01*
X159870000Y-118680000D02*
X159870000Y-129480000D01*
X159870000Y-129480000D02*
X147470000Y-129480000D01*
X147470000Y-129480000D02*
X147470000Y-118680000D01*
X73173680Y-129262143D02*
X73126061Y-129309762D01*
X72983204Y-129357381D01*
X72887966Y-129357381D01*
X72745108Y-129309762D01*
X72649870Y-129214524D01*
X72602251Y-129119286D01*
X72554632Y-128928810D01*
X72554632Y-128785952D01*
X72602251Y-128595476D01*
X72649870Y-128500238D01*
X72745108Y-128405000D01*
X72887966Y-128357381D01*
X72983204Y-128357381D01*
X73126061Y-128405000D01*
X73173680Y-128452619D01*
X74030823Y-128690714D02*
X74030823Y-129357381D01*
X73792727Y-128309762D02*
X73554632Y-129024048D01*
X74173680Y-129024048D01*
X73533095Y-155662381D02*
X73533095Y-156471905D01*
X73580714Y-156567143D01*
X73628333Y-156614762D01*
X73723571Y-156662381D01*
X73914048Y-156662381D01*
X74009286Y-156614762D01*
X74056905Y-156567143D01*
X74104524Y-156471905D01*
X74104524Y-155662381D01*
X75104524Y-156662381D02*
X74533095Y-156662381D01*
X74818809Y-156662381D02*
X74818809Y-155662381D01*
X74723571Y-155805238D01*
X74628333Y-155900476D01*
X74533095Y-155948095D01*
X133183334Y-118562381D02*
X132850000Y-118086190D01*
X132611905Y-118562381D02*
X132611905Y-117562381D01*
X132992858Y-117562381D01*
X133088096Y-117610000D01*
X133135715Y-117657619D01*
X133183334Y-117752857D01*
X133183334Y-117895714D01*
X133135715Y-117990952D01*
X133088096Y-118038571D01*
X132992858Y-118086190D01*
X132611905Y-118086190D01*
X133564286Y-117657619D02*
X133611905Y-117610000D01*
X133707143Y-117562381D01*
X133945239Y-117562381D01*
X134040477Y-117610000D01*
X134088096Y-117657619D01*
X134135715Y-117752857D01*
X134135715Y-117848095D01*
X134088096Y-117990952D01*
X133516667Y-118562381D01*
X134135715Y-118562381D01*
X73533095Y-136612381D02*
X73533095Y-137421905D01*
X73580714Y-137517143D01*
X73628333Y-137564762D01*
X73723571Y-137612381D01*
X73914048Y-137612381D01*
X74009286Y-137564762D01*
X74056905Y-137517143D01*
X74104524Y-137421905D01*
X74104524Y-136612381D01*
X74533095Y-136707619D02*
X74580714Y-136660000D01*
X74675952Y-136612381D01*
X74914048Y-136612381D01*
X75009286Y-136660000D01*
X75056905Y-136707619D01*
X75104524Y-136802857D01*
X75104524Y-136898095D01*
X75056905Y-137040952D01*
X74485476Y-137612381D01*
X75104524Y-137612381D01*
X98933095Y-154392381D02*
X98933095Y-155201905D01*
X98980714Y-155297143D01*
X99028333Y-155344762D01*
X99123571Y-155392381D01*
X99314048Y-155392381D01*
X99409286Y-155344762D01*
X99456905Y-155297143D01*
X99504524Y-155201905D01*
X99504524Y-154392381D01*
X100456905Y-154392381D02*
X99980714Y-154392381D01*
X99933095Y-154868571D01*
X99980714Y-154820952D01*
X100075952Y-154773333D01*
X100314048Y-154773333D01*
X100409286Y-154820952D01*
X100456905Y-154868571D01*
X100504524Y-154963810D01*
X100504524Y-155201905D01*
X100456905Y-155297143D01*
X100409286Y-155344762D01*
X100314048Y-155392381D01*
X100075952Y-155392381D01*
X99980714Y-155344762D01*
X99933095Y-155297143D01*
X97663095Y-123912381D02*
X97663095Y-124721905D01*
X97710714Y-124817143D01*
X97758333Y-124864762D01*
X97853571Y-124912381D01*
X98044048Y-124912381D01*
X98139286Y-124864762D01*
X98186905Y-124817143D01*
X98234524Y-124721905D01*
X98234524Y-123912381D01*
X99139286Y-124245714D02*
X99139286Y-124912381D01*
X98901190Y-123864762D02*
X98663095Y-124579048D01*
X99282143Y-124579048D01*
X120483334Y-126182381D02*
X120150000Y-125706190D01*
X119911905Y-126182381D02*
X119911905Y-125182381D01*
X120292858Y-125182381D01*
X120388096Y-125230000D01*
X120435715Y-125277619D01*
X120483334Y-125372857D01*
X120483334Y-125515714D01*
X120435715Y-125610952D01*
X120388096Y-125658571D01*
X120292858Y-125706190D01*
X119911905Y-125706190D01*
X121340477Y-125182381D02*
X121150000Y-125182381D01*
X121054762Y-125230000D01*
X121007143Y-125277619D01*
X120911905Y-125420476D01*
X120864286Y-125610952D01*
X120864286Y-125991905D01*
X120911905Y-126087143D01*
X120959524Y-126134762D01*
X121054762Y-126182381D01*
X121245239Y-126182381D01*
X121340477Y-126134762D01*
X121388096Y-126087143D01*
X121435715Y-125991905D01*
X121435715Y-125753810D01*
X121388096Y-125658571D01*
X121340477Y-125610952D01*
X121245239Y-125563333D01*
X121054762Y-125563333D01*
X120959524Y-125610952D01*
X120911905Y-125658571D01*
X120864286Y-125753810D01*
X120483334Y-129992381D02*
X120150000Y-129516190D01*
X119911905Y-129992381D02*
X119911905Y-128992381D01*
X120292858Y-128992381D01*
X120388096Y-129040000D01*
X120435715Y-129087619D01*
X120483334Y-129182857D01*
X120483334Y-129325714D01*
X120435715Y-129420952D01*
X120388096Y-129468571D01*
X120292858Y-129516190D01*
X119911905Y-129516190D01*
X120816667Y-128992381D02*
X121435715Y-128992381D01*
X121102381Y-129373333D01*
X121245239Y-129373333D01*
X121340477Y-129420952D01*
X121388096Y-129468571D01*
X121435715Y-129563810D01*
X121435715Y-129801905D01*
X121388096Y-129897143D01*
X121340477Y-129944762D01*
X121245239Y-129992381D01*
X120959524Y-129992381D01*
X120864286Y-129944762D01*
X120816667Y-129897143D01*
X133183334Y-122372381D02*
X132850000Y-121896190D01*
X132611905Y-122372381D02*
X132611905Y-121372381D01*
X132992858Y-121372381D01*
X133088096Y-121420000D01*
X133135715Y-121467619D01*
X133183334Y-121562857D01*
X133183334Y-121705714D01*
X133135715Y-121800952D01*
X133088096Y-121848571D01*
X132992858Y-121896190D01*
X132611905Y-121896190D01*
X134088096Y-121372381D02*
X133611905Y-121372381D01*
X133564286Y-121848571D01*
X133611905Y-121800952D01*
X133707143Y-121753333D01*
X133945239Y-121753333D01*
X134040477Y-121800952D01*
X134088096Y-121848571D01*
X134135715Y-121943810D01*
X134135715Y-122181905D01*
X134088096Y-122277143D01*
X134040477Y-122324762D01*
X133945239Y-122372381D01*
X133707143Y-122372381D01*
X133611905Y-122324762D01*
X133564286Y-122277143D01*
X120483334Y-118562381D02*
X120150000Y-118086190D01*
X119911905Y-118562381D02*
X119911905Y-117562381D01*
X120292858Y-117562381D01*
X120388096Y-117610000D01*
X120435715Y-117657619D01*
X120483334Y-117752857D01*
X120483334Y-117895714D01*
X120435715Y-117990952D01*
X120388096Y-118038571D01*
X120292858Y-118086190D01*
X119911905Y-118086190D01*
X120816667Y-117562381D02*
X121483334Y-117562381D01*
X121054762Y-118562381D01*
X103973334Y-133707143D02*
X103925715Y-133754762D01*
X103782858Y-133802381D01*
X103687620Y-133802381D01*
X103544762Y-133754762D01*
X103449524Y-133659524D01*
X103401905Y-133564286D01*
X103354286Y-133373810D01*
X103354286Y-133230952D01*
X103401905Y-133040476D01*
X103449524Y-132945238D01*
X103544762Y-132850000D01*
X103687620Y-132802381D01*
X103782858Y-132802381D01*
X103925715Y-132850000D01*
X103973334Y-132897619D01*
X104878096Y-132802381D02*
X104401905Y-132802381D01*
X104354286Y-133278571D01*
X104401905Y-133230952D01*
X104497143Y-133183333D01*
X104735239Y-133183333D01*
X104830477Y-133230952D01*
X104878096Y-133278571D01*
X104925715Y-133373810D01*
X104925715Y-133611905D01*
X104878096Y-133707143D01*
X104830477Y-133754762D01*
X104735239Y-133802381D01*
X104497143Y-133802381D01*
X104401905Y-133754762D01*
X104354286Y-133707143D01*
X135723334Y-132437143D02*
X135675715Y-132484762D01*
X135532858Y-132532381D01*
X135437620Y-132532381D01*
X135294762Y-132484762D01*
X135199524Y-132389524D01*
X135151905Y-132294286D01*
X135104286Y-132103810D01*
X135104286Y-131960952D01*
X135151905Y-131770476D01*
X135199524Y-131675238D01*
X135294762Y-131580000D01*
X135437620Y-131532381D01*
X135532858Y-131532381D01*
X135675715Y-131580000D01*
X135723334Y-131627619D01*
X136580477Y-131532381D02*
X136390000Y-131532381D01*
X136294762Y-131580000D01*
X136247143Y-131627619D01*
X136151905Y-131770476D01*
X136104286Y-131960952D01*
X136104286Y-132341905D01*
X136151905Y-132437143D01*
X136199524Y-132484762D01*
X136294762Y-132532381D01*
X136485239Y-132532381D01*
X136580477Y-132484762D01*
X136628096Y-132437143D01*
X136675715Y-132341905D01*
X136675715Y-132103810D01*
X136628096Y-132008571D01*
X136580477Y-131960952D01*
X136485239Y-131913333D01*
X136294762Y-131913333D01*
X136199524Y-131960952D01*
X136151905Y-132008571D01*
X136104286Y-132103810D01*
X142073334Y-132437143D02*
X142025715Y-132484762D01*
X141882858Y-132532381D01*
X141787620Y-132532381D01*
X141644762Y-132484762D01*
X141549524Y-132389524D01*
X141501905Y-132294286D01*
X141454286Y-132103810D01*
X141454286Y-131960952D01*
X141501905Y-131770476D01*
X141549524Y-131675238D01*
X141644762Y-131580000D01*
X141787620Y-131532381D01*
X141882858Y-131532381D01*
X142025715Y-131580000D01*
X142073334Y-131627619D01*
X142406667Y-131532381D02*
X143073334Y-131532381D01*
X142644762Y-132532381D01*
X137596667Y-136612381D02*
X137596667Y-137326667D01*
X137549047Y-137469524D01*
X137453809Y-137564762D01*
X137310952Y-137612381D01*
X137215714Y-137612381D01*
X138072857Y-137612381D02*
X138072857Y-136612381D01*
X138453810Y-136612381D01*
X138549048Y-136660000D01*
X138596667Y-136707619D01*
X138644286Y-136802857D01*
X138644286Y-136945714D01*
X138596667Y-137040952D01*
X138549048Y-137088571D01*
X138453810Y-137136190D01*
X138072857Y-137136190D01*
X139501429Y-136612381D02*
X139310952Y-136612381D01*
X139215714Y-136660000D01*
X139168095Y-136707619D01*
X139072857Y-136850476D01*
X139025238Y-137040952D01*
X139025238Y-137421905D01*
X139072857Y-137517143D01*
X139120476Y-137564762D01*
X139215714Y-137612381D01*
X139406191Y-137612381D01*
X139501429Y-137564762D01*
X139549048Y-137517143D01*
X139596667Y-137421905D01*
X139596667Y-137183810D01*
X139549048Y-137088571D01*
X139501429Y-137040952D01*
X139406191Y-136993333D01*
X139215714Y-136993333D01*
X139120476Y-137040952D01*
X139072857Y-137088571D01*
X139025238Y-137183810D01*
X120483334Y-122372381D02*
X120150000Y-121896190D01*
X119911905Y-122372381D02*
X119911905Y-121372381D01*
X120292858Y-121372381D01*
X120388096Y-121420000D01*
X120435715Y-121467619D01*
X120483334Y-121562857D01*
X120483334Y-121705714D01*
X120435715Y-121800952D01*
X120388096Y-121848571D01*
X120292858Y-121896190D01*
X119911905Y-121896190D01*
X121435715Y-122372381D02*
X120864286Y-122372381D01*
X121150000Y-122372381D02*
X121150000Y-121372381D01*
X121054762Y-121515238D01*
X120959524Y-121610476D01*
X120864286Y-121658095D01*
X120483334Y-133802381D02*
X120150000Y-133326190D01*
X119911905Y-133802381D02*
X119911905Y-132802381D01*
X120292858Y-132802381D01*
X120388096Y-132850000D01*
X120435715Y-132897619D01*
X120483334Y-132992857D01*
X120483334Y-133135714D01*
X120435715Y-133230952D01*
X120388096Y-133278571D01*
X120292858Y-133326190D01*
X119911905Y-133326190D01*
X121340477Y-133135714D02*
X121340477Y-133802381D01*
X121102381Y-132754762D02*
X120864286Y-133469048D01*
X121483334Y-133469048D01*
X73533095Y-123912381D02*
X73533095Y-124721905D01*
X73580714Y-124817143D01*
X73628333Y-124864762D01*
X73723571Y-124912381D01*
X73914048Y-124912381D01*
X74009286Y-124864762D01*
X74056905Y-124817143D01*
X74104524Y-124721905D01*
X74104524Y-123912381D01*
X74485476Y-123912381D02*
X75104524Y-123912381D01*
X74771190Y-124293333D01*
X74914048Y-124293333D01*
X75009286Y-124340952D01*
X75056905Y-124388571D01*
X75104524Y-124483810D01*
X75104524Y-124721905D01*
X75056905Y-124817143D01*
X75009286Y-124864762D01*
X74914048Y-124912381D01*
X74628333Y-124912381D01*
X74533095Y-124864762D01*
X74485476Y-124817143D01*
X73493334Y-148312143D02*
X73445715Y-148359762D01*
X73302858Y-148407381D01*
X73207620Y-148407381D01*
X73064762Y-148359762D01*
X72969524Y-148264524D01*
X72921905Y-148169286D01*
X72874286Y-147978810D01*
X72874286Y-147835952D01*
X72921905Y-147645476D01*
X72969524Y-147550238D01*
X73064762Y-147455000D01*
X73207620Y-147407381D01*
X73302858Y-147407381D01*
X73445715Y-147455000D01*
X73493334Y-147502619D01*
X74445715Y-148407381D02*
X73874286Y-148407381D01*
X74160000Y-148407381D02*
X74160000Y-147407381D01*
X74064762Y-147550238D01*
X73969524Y-147645476D01*
X73874286Y-147693095D01*
X95083334Y-118427143D02*
X95035715Y-118474762D01*
X94892858Y-118522381D01*
X94797620Y-118522381D01*
X94654762Y-118474762D01*
X94559524Y-118379524D01*
X94511905Y-118284286D01*
X94464286Y-118093810D01*
X94464286Y-117950952D01*
X94511905Y-117760476D01*
X94559524Y-117665238D01*
X94654762Y-117570000D01*
X94797620Y-117522381D01*
X94892858Y-117522381D01*
X95035715Y-117570000D01*
X95083334Y-117617619D01*
X95464286Y-117617619D02*
X95511905Y-117570000D01*
X95607143Y-117522381D01*
X95845239Y-117522381D01*
X95940477Y-117570000D01*
X95988096Y-117617619D01*
X96035715Y-117712857D01*
X96035715Y-117808095D01*
X95988096Y-117950952D01*
X95416667Y-118522381D01*
X96035715Y-118522381D01*
X70953334Y-121007143D02*
X70905715Y-121054762D01*
X70762858Y-121102381D01*
X70667620Y-121102381D01*
X70524762Y-121054762D01*
X70429524Y-120959524D01*
X70381905Y-120864286D01*
X70334286Y-120673810D01*
X70334286Y-120530952D01*
X70381905Y-120340476D01*
X70429524Y-120245238D01*
X70524762Y-120150000D01*
X70667620Y-120102381D01*
X70762858Y-120102381D01*
X70905715Y-120150000D01*
X70953334Y-120197619D01*
X71286667Y-120102381D02*
X71905715Y-120102381D01*
X71572381Y-120483333D01*
X71715239Y-120483333D01*
X71810477Y-120530952D01*
X71858096Y-120578571D01*
X71905715Y-120673810D01*
X71905715Y-120911905D01*
X71858096Y-121007143D01*
X71810477Y-121054762D01*
X71715239Y-121102381D01*
X71429524Y-121102381D01*
X71334286Y-121054762D01*
X71286667Y-121007143D01*
X157126347Y-132947301D02*
X157126347Y-133661587D01*
X157078727Y-133804444D01*
X156983489Y-133899682D01*
X156840632Y-133947301D01*
X156745394Y-133947301D01*
X157554918Y-133042539D02*
X157602537Y-132994920D01*
X157697775Y-132947301D01*
X157935871Y-132947301D01*
X158031109Y-132994920D01*
X158078728Y-133042539D01*
X158126347Y-133137777D01*
X158126347Y-133233015D01*
X158078728Y-133375872D01*
X157507299Y-133947301D01*
X158126347Y-133947301D01*
X113466667Y-131532381D02*
X113466667Y-132246667D01*
X113419047Y-132389524D01*
X113323809Y-132484762D01*
X113180952Y-132532381D01*
X113085714Y-132532381D01*
X113942857Y-132532381D02*
X113942857Y-131532381D01*
X114323810Y-131532381D01*
X114419048Y-131580000D01*
X114466667Y-131627619D01*
X114514286Y-131722857D01*
X114514286Y-131865714D01*
X114466667Y-131960952D01*
X114419048Y-132008571D01*
X114323810Y-132056190D01*
X113942857Y-132056190D01*
X115419048Y-131532381D02*
X114942857Y-131532381D01*
X114895238Y-132008571D01*
X114942857Y-131960952D01*
X115038095Y-131913333D01*
X115276191Y-131913333D01*
X115371429Y-131960952D01*
X115419048Y-132008571D01*
X115466667Y-132103810D01*
X115466667Y-132341905D01*
X115419048Y-132437143D01*
X115371429Y-132484762D01*
X115276191Y-132532381D01*
X115038095Y-132532381D01*
X114942857Y-132484762D01*
X114895238Y-132437143D01*
X65206667Y-146982381D02*
X65206667Y-147696667D01*
X65159047Y-147839524D01*
X65063809Y-147934762D01*
X64920952Y-147982381D01*
X64825714Y-147982381D01*
X65682857Y-147982381D02*
X65682857Y-146982381D01*
X66063810Y-146982381D01*
X66159048Y-147030000D01*
X66206667Y-147077619D01*
X66254286Y-147172857D01*
X66254286Y-147315714D01*
X66206667Y-147410952D01*
X66159048Y-147458571D01*
X66063810Y-147506190D01*
X65682857Y-147506190D01*
X66587619Y-146982381D02*
X67206667Y-146982381D01*
X66873333Y-147363333D01*
X67016191Y-147363333D01*
X67111429Y-147410952D01*
X67159048Y-147458571D01*
X67206667Y-147553810D01*
X67206667Y-147791905D01*
X67159048Y-147887143D01*
X67111429Y-147934762D01*
X67016191Y-147982381D01*
X66730476Y-147982381D01*
X66635238Y-147934762D01*
X66587619Y-147887143D01*
X73461667Y-142962381D02*
X73461667Y-143676667D01*
X73414047Y-143819524D01*
X73318809Y-143914762D01*
X73175952Y-143962381D01*
X73080714Y-143962381D01*
X73937857Y-143962381D02*
X73937857Y-142962381D01*
X74318810Y-142962381D01*
X74414048Y-143010000D01*
X74461667Y-143057619D01*
X74509286Y-143152857D01*
X74509286Y-143295714D01*
X74461667Y-143390952D01*
X74414048Y-143438571D01*
X74318810Y-143486190D01*
X73937857Y-143486190D01*
X75366429Y-143295714D02*
X75366429Y-143962381D01*
X75128333Y-142914762D02*
X74890238Y-143629048D01*
X75509286Y-143629048D01*
X67111667Y-134282381D02*
X67111667Y-134996667D01*
X67064047Y-135139524D01*
X66968809Y-135234762D01*
X66825952Y-135282381D01*
X66730714Y-135282381D01*
X67587857Y-135282381D02*
X67587857Y-134282381D01*
X67968810Y-134282381D01*
X68064048Y-134330000D01*
X68111667Y-134377619D01*
X68159286Y-134472857D01*
X68159286Y-134615714D01*
X68111667Y-134710952D01*
X68064048Y-134758571D01*
X67968810Y-134806190D01*
X67587857Y-134806190D01*
X69111667Y-135282381D02*
X68540238Y-135282381D01*
X68825952Y-135282381D02*
X68825952Y-134282381D01*
X68730714Y-134425238D01*
X68635476Y-134520476D01*
X68540238Y-134568095D01*
X63301667Y-134282381D02*
X63301667Y-134996667D01*
X63254047Y-135139524D01*
X63158809Y-135234762D01*
X63015952Y-135282381D01*
X62920714Y-135282381D01*
X63777857Y-135282381D02*
X63777857Y-134282381D01*
X64158810Y-134282381D01*
X64254048Y-134330000D01*
X64301667Y-134377619D01*
X64349286Y-134472857D01*
X64349286Y-134615714D01*
X64301667Y-134710952D01*
X64254048Y-134758571D01*
X64158810Y-134806190D01*
X63777857Y-134806190D01*
X64730238Y-134377619D02*
X64777857Y-134330000D01*
X64873095Y-134282381D01*
X65111191Y-134282381D01*
X65206429Y-134330000D01*
X65254048Y-134377619D01*
X65301667Y-134472857D01*
X65301667Y-134568095D01*
X65254048Y-134710952D01*
X64682619Y-135282381D01*
X65301667Y-135282381D01*
X61491905Y-160472381D02*
X61491905Y-159472381D01*
X61872858Y-159472381D01*
X61968096Y-159520000D01*
X62015715Y-159567619D01*
X62063334Y-159662857D01*
X62063334Y-159805714D01*
X62015715Y-159900952D01*
X61968096Y-159948571D01*
X61872858Y-159996190D01*
X61491905Y-159996190D01*
X63015715Y-160472381D02*
X62444286Y-160472381D01*
X62730000Y-160472381D02*
X62730000Y-159472381D01*
X62634762Y-159615238D01*
X62539524Y-159710476D01*
X62444286Y-159758095D01*
X153326667Y-123912381D02*
X153326667Y-124626667D01*
X153279047Y-124769524D01*
X153183809Y-124864762D01*
X153040952Y-124912381D01*
X152945714Y-124912381D01*
X154326667Y-124912381D02*
X153755238Y-124912381D01*
X154040952Y-124912381D02*
X154040952Y-123912381D01*
X153945714Y-124055238D01*
X153850476Y-124150476D01*
X153755238Y-124198095D01*
M02*
