G04 #@! TF.FileFunction,Copper,L1,Top,Signal*
%FSLAX46Y46*%
G04 Gerber Fmt 4.6, Leading zero omitted, Abs format (unit mm)*
G04 Created by KiCad (PCBNEW 4.0.6) date Sat Apr 29 17:47:01 2017*
%MOMM*%
%LPD*%
G01*
G04 APERTURE LIST*
%ADD10C,0.100000*%
%ADD11C,1.600000*%
%ADD12R,1.600000X1.600000*%
%ADD13O,1.600000X1.600000*%
%ADD14R,1.700000X1.700000*%
%ADD15O,1.700000X1.700000*%
%ADD16C,2.100000*%
%ADD17C,0.685800*%
%ADD18C,0.635000*%
%ADD19C,1.270000*%
%ADD20C,0.254000*%
%ADD21C,0.381000*%
G04 APERTURE END LIST*
D10*
D11*
X73340346Y-131027070D03*
X73340346Y-133527070D03*
D12*
X77470000Y-156210000D03*
D13*
X95250000Y-148590000D03*
X80010000Y-156210000D03*
X92710000Y-148590000D03*
X82550000Y-156210000D03*
X90170000Y-148590000D03*
X85090000Y-156210000D03*
X87630000Y-148590000D03*
X87630000Y-156210000D03*
X85090000Y-148590000D03*
X90170000Y-156210000D03*
X82550000Y-148590000D03*
X92710000Y-156210000D03*
X80010000Y-148590000D03*
X95250000Y-156210000D03*
X77470000Y-148590000D03*
D11*
X135890000Y-118110000D03*
D13*
X143510000Y-118110000D03*
D12*
X77470000Y-137160000D03*
D13*
X95250000Y-129540000D03*
X80010000Y-137160000D03*
X92710000Y-129540000D03*
X82550000Y-137160000D03*
X90170000Y-129540000D03*
X85090000Y-137160000D03*
X87630000Y-129540000D03*
X87630000Y-137160000D03*
X85090000Y-129540000D03*
X90170000Y-137160000D03*
X82550000Y-129540000D03*
X92710000Y-137160000D03*
X80010000Y-129540000D03*
X95250000Y-137160000D03*
X77470000Y-129540000D03*
D12*
X102829360Y-154929840D03*
D13*
X151089360Y-139689840D03*
X105369360Y-154929840D03*
X148549360Y-139689840D03*
X107909360Y-154929840D03*
X146009360Y-139689840D03*
X110449360Y-154929840D03*
X143469360Y-139689840D03*
X112989360Y-154929840D03*
X140929360Y-139689840D03*
X115529360Y-154929840D03*
X138389360Y-139689840D03*
X118069360Y-154929840D03*
X135849360Y-139689840D03*
X120609360Y-154929840D03*
X133309360Y-139689840D03*
X123149360Y-154929840D03*
X130769360Y-139689840D03*
X125689360Y-154929840D03*
X128229360Y-139689840D03*
X128229360Y-154929840D03*
X125689360Y-139689840D03*
X130769360Y-154929840D03*
X123149360Y-139689840D03*
X133309360Y-154929840D03*
X120609360Y-139689840D03*
X135849360Y-154929840D03*
X118069360Y-139689840D03*
X138389360Y-154929840D03*
X115529360Y-139689840D03*
X140929360Y-154929840D03*
X112989360Y-139689840D03*
X143469360Y-154929840D03*
X110449360Y-139689840D03*
X146009360Y-154929840D03*
X107909360Y-139689840D03*
X148549360Y-154929840D03*
X105369360Y-139689840D03*
X151089360Y-154929840D03*
X102829360Y-139689840D03*
D12*
X101600000Y-124460000D03*
D13*
X116840000Y-116840000D03*
X104140000Y-124460000D03*
X114300000Y-116840000D03*
X106680000Y-124460000D03*
X111760000Y-116840000D03*
X109220000Y-124460000D03*
X109220000Y-116840000D03*
X111760000Y-124460000D03*
X106680000Y-116840000D03*
X114300000Y-124460000D03*
X104140000Y-116840000D03*
X116840000Y-124460000D03*
X101600000Y-116840000D03*
D11*
X130810000Y-125730000D03*
D13*
X123190000Y-125730000D03*
D11*
X123190000Y-129540000D03*
D13*
X130810000Y-129540000D03*
D11*
X143510000Y-121920000D03*
D13*
X135890000Y-121920000D03*
D11*
X130810000Y-118110000D03*
D13*
X123190000Y-118110000D03*
D11*
X102870000Y-135890000D03*
X105370000Y-135890000D03*
D12*
X135890000Y-127000000D03*
D11*
X135890000Y-129500000D03*
D12*
X142240000Y-127040000D03*
D11*
X142240000Y-129540000D03*
D14*
X137160000Y-134620000D03*
D15*
X139700000Y-134620000D03*
D11*
X123190000Y-121920000D03*
D13*
X130810000Y-121920000D03*
D11*
X130810000Y-133350000D03*
D13*
X123190000Y-133350000D03*
D12*
X77470000Y-124460000D03*
D13*
X92710000Y-116840000D03*
X80010000Y-124460000D03*
X90170000Y-116840000D03*
X82550000Y-124460000D03*
X87630000Y-116840000D03*
X85090000Y-124460000D03*
X85090000Y-116840000D03*
X87630000Y-124460000D03*
X82550000Y-116840000D03*
X90170000Y-124460000D03*
X80010000Y-116840000D03*
X92710000Y-124460000D03*
X77470000Y-116840000D03*
D11*
X73660000Y-149860000D03*
X73660000Y-152360000D03*
X97790000Y-116840000D03*
X97790000Y-119340000D03*
X73660000Y-119380000D03*
X73660000Y-121880000D03*
D14*
X156189680Y-135884920D03*
D15*
X158729680Y-135884920D03*
X156189680Y-138424920D03*
X158729680Y-138424920D03*
X156189680Y-140964920D03*
X158729680Y-140964920D03*
X156189680Y-143504920D03*
X158729680Y-143504920D03*
X156189680Y-146044920D03*
X158729680Y-146044920D03*
X156189680Y-148584920D03*
X158729680Y-148584920D03*
X156189680Y-151124920D03*
X158729680Y-151124920D03*
X156189680Y-153664920D03*
X158729680Y-153664920D03*
X156189680Y-156204920D03*
X158729680Y-156204920D03*
D14*
X111760000Y-129540000D03*
D15*
X114300000Y-129540000D03*
X116840000Y-129540000D03*
D14*
X64770000Y-149860000D03*
D15*
X67310000Y-149860000D03*
X64770000Y-152400000D03*
X67310000Y-152400000D03*
X64770000Y-154940000D03*
X67310000Y-154940000D03*
D14*
X77470000Y-144780000D03*
D15*
X77470000Y-142240000D03*
X80010000Y-144780000D03*
X80010000Y-142240000D03*
X82550000Y-144780000D03*
X82550000Y-142240000D03*
X85090000Y-144780000D03*
X85090000Y-142240000D03*
X87630000Y-144780000D03*
X87630000Y-142240000D03*
X90170000Y-144780000D03*
X90170000Y-142240000D03*
X92710000Y-144780000D03*
X92710000Y-142240000D03*
X95250000Y-144780000D03*
X95250000Y-142240000D03*
D14*
X67310000Y-137160000D03*
D15*
X67310000Y-139700000D03*
X67310000Y-142240000D03*
D14*
X64770000Y-137160000D03*
D15*
X64770000Y-139700000D03*
X64770000Y-142240000D03*
D14*
X62230000Y-162560000D03*
D15*
X64770000Y-162560000D03*
X67310000Y-162560000D03*
X69850000Y-162560000D03*
X72390000Y-162560000D03*
X74930000Y-162560000D03*
X77470000Y-162560000D03*
X80010000Y-162560000D03*
X82550000Y-162560000D03*
X85090000Y-162560000D03*
X87630000Y-162560000D03*
X90170000Y-162560000D03*
X92710000Y-162560000D03*
X95250000Y-162560000D03*
X97790000Y-162560000D03*
X100330000Y-162560000D03*
X102870000Y-162560000D03*
X105410000Y-162560000D03*
X107950000Y-162560000D03*
X110490000Y-162560000D03*
X113030000Y-162560000D03*
X115570000Y-162560000D03*
X118110000Y-162560000D03*
X120650000Y-162560000D03*
X123190000Y-162560000D03*
X125730000Y-162560000D03*
X128270000Y-162560000D03*
X130810000Y-162560000D03*
X133350000Y-162560000D03*
X135890000Y-162560000D03*
X138430000Y-162560000D03*
X140970000Y-162560000D03*
X143510000Y-162560000D03*
X146050000Y-162560000D03*
X148590000Y-162560000D03*
X151130000Y-162560000D03*
X153670000Y-162560000D03*
X156210000Y-162560000D03*
X158750000Y-162560000D03*
D16*
X149870000Y-119380000D03*
X153670000Y-119380000D03*
X157470000Y-119380000D03*
X157470000Y-128780000D03*
X153670000Y-128780000D03*
X149870000Y-128780000D03*
D17*
X113030000Y-157480000D03*
X93108908Y-122318908D03*
D18*
X104140000Y-116840000D02*
X105511501Y-115468499D01*
X110388499Y-115468499D02*
X111760000Y-116840000D01*
X105511501Y-115468499D02*
X110388499Y-115468499D01*
D19*
X67310000Y-137160000D02*
X67310000Y-137057416D01*
X67310000Y-137057416D02*
X73340346Y-131027070D01*
X139200081Y-141378841D02*
X133329680Y-141378841D01*
X133329680Y-141378841D02*
X104518361Y-141378841D01*
X133309360Y-139689840D02*
X133309360Y-141358521D01*
X133309360Y-141358521D02*
X133329680Y-141378841D01*
X140929360Y-139689840D02*
X140889082Y-139689840D01*
X140889082Y-139689840D02*
X139200081Y-141378841D01*
X104518361Y-141378841D02*
X102829360Y-139689840D01*
D18*
X73660000Y-121880000D02*
X74970000Y-121880000D01*
X74970000Y-121880000D02*
X80010000Y-116840000D01*
X95250000Y-137160000D02*
X91617070Y-133527070D01*
X91617070Y-133527070D02*
X73340346Y-133527070D01*
X92710000Y-124460000D02*
X96621501Y-128371501D01*
X96621501Y-128371501D02*
X96621501Y-135788499D01*
X96621501Y-135788499D02*
X96049999Y-136360001D01*
X96049999Y-136360001D02*
X95250000Y-137160000D01*
D19*
X109649161Y-153240839D02*
X119987149Y-142902851D01*
X140256349Y-142902851D02*
X143469360Y-139689840D01*
X119987149Y-142902851D02*
X140256349Y-142902851D01*
X102829360Y-154929840D02*
X104518361Y-153240839D01*
X104518361Y-153240839D02*
X109649161Y-153240839D01*
D18*
X139700000Y-134620000D02*
X139700000Y-135920480D01*
X139700000Y-135920480D02*
X143469360Y-139689840D01*
D19*
X87630000Y-156210000D02*
X87670278Y-156210000D01*
X87630000Y-156210000D02*
X87630000Y-156374991D01*
X102829360Y-144739360D02*
X102829360Y-154929840D01*
X92710000Y-124460000D02*
X92710000Y-124420000D01*
X81240000Y-152360000D02*
X73660000Y-152360000D01*
X102829360Y-154929840D02*
X102829360Y-162519360D01*
X102829360Y-162519360D02*
X102870000Y-162560000D01*
D18*
X113030000Y-157480000D02*
X113030000Y-162560000D01*
D20*
X154987599Y-138424920D02*
X156189680Y-138424920D01*
X115529360Y-154819740D02*
X122696393Y-147652707D01*
X122696393Y-147652707D02*
X145759812Y-147652707D01*
X145759812Y-147652707D02*
X154987599Y-138424920D01*
X115529360Y-154929840D02*
X115529360Y-154819740D01*
X118069360Y-154929840D02*
X124838482Y-148160718D01*
X124838482Y-148160718D02*
X147172000Y-148160718D01*
X157498679Y-139655921D02*
X158729680Y-138424920D01*
X155676797Y-139655921D02*
X157498679Y-139655921D01*
X147172000Y-148160718D02*
X155676797Y-139655921D01*
X126870471Y-148668729D02*
X147699809Y-148668729D01*
X147699809Y-148668729D02*
X154553619Y-141814919D01*
X120609360Y-154929840D02*
X126870471Y-148668729D01*
X155339681Y-141814919D02*
X156189680Y-140964920D01*
X154553619Y-141814919D02*
X155339681Y-141814919D01*
X147910232Y-149176740D02*
X148418245Y-148668731D01*
X148418245Y-148668731D02*
X149203984Y-148668732D01*
X128902460Y-149176740D02*
X147910232Y-149176740D01*
X123149360Y-154929840D02*
X128902460Y-149176740D01*
X157420681Y-142273919D02*
X158729680Y-140964920D01*
X155598799Y-142273919D02*
X157420681Y-142273919D01*
X149203984Y-148668732D02*
X155598799Y-142273919D01*
D18*
X129128531Y-138049011D02*
X129969361Y-138889841D01*
X110192325Y-138049011D02*
X129128531Y-138049011D01*
X92094124Y-121404506D02*
X93547820Y-121404506D01*
X90170000Y-124460000D02*
X90170000Y-123328630D01*
X129969361Y-138889841D02*
X130769360Y-139689840D01*
X93547820Y-121404506D02*
X110192325Y-138049011D01*
X90170000Y-123328630D02*
X92094124Y-121404506D01*
D20*
X148120655Y-149684751D02*
X148628668Y-149176742D01*
X149043206Y-149176743D02*
X150517539Y-149176743D01*
X150517539Y-149176743D02*
X155339363Y-144354919D01*
X130934449Y-149684751D02*
X148120655Y-149684751D01*
X125689360Y-154929840D02*
X130934449Y-149684751D01*
X155339363Y-144354919D02*
X155339681Y-144354919D01*
X155339681Y-144354919D02*
X156189680Y-143504920D01*
X148628668Y-149176742D02*
X149043206Y-149176743D01*
X132966438Y-150192762D02*
X148331078Y-150192762D01*
X157498679Y-144735921D02*
X158729680Y-143504920D01*
X148839091Y-149684753D02*
X149247320Y-149684754D01*
X148331078Y-150192762D02*
X148839091Y-149684753D01*
X150727964Y-149684754D02*
X155676797Y-144735921D01*
X149247320Y-149684754D02*
X150727964Y-149684754D01*
X128229360Y-154929840D02*
X132966438Y-150192762D01*
X155676797Y-144735921D02*
X157498679Y-144735921D01*
X149445125Y-150192765D02*
X152041517Y-150192765D01*
X130769360Y-154929840D02*
X134998427Y-150700773D01*
X134998427Y-150700773D02*
X148541501Y-150700773D01*
X149049514Y-150192764D02*
X149445125Y-150192765D01*
X148541501Y-150700773D02*
X149049514Y-150192764D01*
X152041517Y-150192765D02*
X155339363Y-146894919D01*
X155339681Y-146894919D02*
X156189680Y-146044920D01*
X155339363Y-146894919D02*
X155339681Y-146894919D01*
X152251942Y-150700776D02*
X155676797Y-147275921D01*
X149630311Y-150700776D02*
X152251942Y-150700776D01*
X149259937Y-150700775D02*
X149630311Y-150700776D01*
X148751924Y-151208784D02*
X149259937Y-150700775D01*
X133309360Y-154929840D02*
X137030416Y-151208784D01*
X137030416Y-151208784D02*
X148751924Y-151208784D01*
X155676797Y-147275921D02*
X157498679Y-147275921D01*
X157498679Y-147275921D02*
X158729680Y-146044920D01*
X135849360Y-154929840D02*
X139062405Y-151716795D01*
X139062405Y-151716795D02*
X148962347Y-151716795D01*
X148962347Y-151716795D02*
X149470360Y-151208786D01*
X149470360Y-151208786D02*
X149790261Y-151208787D01*
X149790261Y-151208787D02*
X153565495Y-151208787D01*
X155339681Y-149434919D02*
X156189680Y-148584920D01*
X153565495Y-151208787D02*
X155339363Y-149434919D01*
X155339363Y-149434919D02*
X155339681Y-149434919D01*
X157498679Y-149815921D02*
X158729680Y-148584920D01*
X141094394Y-152224806D02*
X149172770Y-152224806D01*
X138389360Y-154929840D02*
X141094394Y-152224806D01*
X149680783Y-151716797D02*
X149899736Y-151716798D01*
X149899736Y-151716798D02*
X153775919Y-151716798D01*
X153775919Y-151716798D02*
X155676797Y-149815921D01*
X155676797Y-149815921D02*
X157498679Y-149815921D01*
X149172770Y-152224806D02*
X149680783Y-151716797D01*
X155339681Y-151974919D02*
X156189680Y-151124920D01*
X155122767Y-151974919D02*
X155339681Y-151974919D01*
X149383194Y-152732817D02*
X149891206Y-152224808D01*
X143126383Y-152732817D02*
X149383194Y-152732817D01*
X140929360Y-154929840D02*
X143126383Y-152732817D01*
X149891206Y-152224808D02*
X154872877Y-152224809D01*
X154872877Y-152224809D02*
X155122767Y-151974919D01*
X157420681Y-152433919D02*
X158729680Y-151124920D01*
X155299900Y-152732818D02*
X155598799Y-152433919D01*
X155598799Y-152433919D02*
X157420681Y-152433919D01*
X143469360Y-154929840D02*
X145158372Y-153240828D01*
X145158372Y-153240828D02*
X149593618Y-153240828D01*
X149593618Y-153240828D02*
X150101630Y-152732818D01*
X150101630Y-152732818D02*
X155299900Y-152732818D01*
X149804043Y-153748839D02*
X150312054Y-153240828D01*
X147190361Y-153748839D02*
X149804043Y-153748839D01*
X146009360Y-154929840D02*
X147190361Y-153748839D01*
X150312054Y-153240828D02*
X155765588Y-153240828D01*
X155765588Y-153240828D02*
X156189680Y-153664920D01*
X154451717Y-153748839D02*
X155598799Y-154895921D01*
X155598799Y-154895921D02*
X157498679Y-154895921D01*
X148549360Y-154929840D02*
X149341478Y-154929840D01*
X149341478Y-154929840D02*
X150522479Y-153748839D01*
X150522479Y-153748839D02*
X154451717Y-153748839D01*
X157498679Y-154895921D02*
X158729680Y-153664920D01*
X151089360Y-154929840D02*
X152220730Y-154929840D01*
X153495810Y-156204920D02*
X156189680Y-156204920D01*
X152220730Y-154929840D02*
X153495810Y-156204920D01*
D18*
X112928499Y-125831501D02*
X114300000Y-124460000D01*
X105511501Y-125831501D02*
X112928499Y-125831501D01*
X104140000Y-124460000D02*
X105511501Y-125831501D01*
X123190000Y-125730000D02*
X123190000Y-121920000D01*
X114300000Y-129540000D02*
X119481501Y-134721501D01*
X119481501Y-134721501D02*
X134329797Y-134721501D01*
X134329797Y-134721501D02*
X135852799Y-133198499D01*
X135852799Y-133198499D02*
X142058019Y-133198499D01*
X142058019Y-133198499D02*
X148549360Y-139689840D01*
X133319520Y-137160000D02*
X135049361Y-138889841D01*
X111671298Y-137160000D02*
X133319520Y-137160000D01*
X95026793Y-120515495D02*
X111671298Y-137160000D01*
X82550000Y-124460000D02*
X86494505Y-120515495D01*
X135049361Y-138889841D02*
X135849360Y-139689840D01*
X86494505Y-120515495D02*
X95026793Y-120515495D01*
X87630000Y-137160000D02*
X86258499Y-138531501D01*
X93090989Y-157860989D02*
X97790000Y-162560000D01*
X76492287Y-157860989D02*
X93090989Y-157860989D01*
X72288499Y-153657201D02*
X76492287Y-157860989D01*
X72288499Y-145317679D02*
X72288499Y-153657201D01*
X79074677Y-138531501D02*
X72288499Y-145317679D01*
X86258499Y-138531501D02*
X79074677Y-138531501D01*
D21*
X141716838Y-143982362D02*
X146009360Y-139689840D01*
X111693861Y-161356139D02*
X111693861Y-154383477D01*
X122094976Y-143982362D02*
X141716838Y-143982362D01*
X111693861Y-154383477D02*
X122094976Y-143982362D01*
X110490000Y-162560000D02*
X111693861Y-161356139D01*
D18*
X88558247Y-161138499D02*
X67607426Y-161138499D01*
X89979748Y-162560000D02*
X88558247Y-161138499D01*
X90170000Y-162560000D02*
X89979748Y-162560000D01*
X62459488Y-147090512D02*
X67310000Y-142240000D01*
X62459488Y-155990561D02*
X62459488Y-147090512D01*
X67607426Y-161138499D02*
X62459488Y-155990561D01*
X92710000Y-116840000D02*
X91338499Y-118211501D01*
X91338499Y-118211501D02*
X81089797Y-118211501D01*
X81089797Y-118211501D02*
X64770000Y-134531298D01*
X64770000Y-134531298D02*
X64770000Y-135675000D01*
X64770000Y-135675000D02*
X64770000Y-137160000D01*
X67310000Y-149860000D02*
X67310000Y-145885000D01*
X67310000Y-145885000D02*
X76035000Y-137160000D01*
X76035000Y-137160000D02*
X77470000Y-137160000D01*
X67746178Y-160020000D02*
X90170000Y-160020000D01*
X90170000Y-160020000D02*
X92710000Y-162560000D01*
X63348499Y-155622321D02*
X67746178Y-160020000D01*
X64770000Y-152400000D02*
X63348499Y-153821501D01*
X63348499Y-153821501D02*
X63348499Y-155622321D01*
X64770000Y-154940000D02*
X68960989Y-159130989D01*
X91820989Y-159130989D02*
X95250000Y-162560000D01*
X68960989Y-159130989D02*
X91820989Y-159130989D01*
X130810000Y-118110000D02*
X133705512Y-121005512D01*
X133705512Y-123380512D02*
X135890000Y-125565000D01*
X133705512Y-121005512D02*
X133705512Y-123380512D01*
X135890000Y-125565000D02*
X135890000Y-127000000D01*
X95250000Y-144780000D02*
X96621501Y-146151501D01*
X96621501Y-146151501D02*
X96621501Y-152298499D01*
X96621501Y-152298499D02*
X92710000Y-156210000D01*
X87630000Y-129540000D02*
X87630000Y-124460000D01*
X93451807Y-122661807D02*
X93108908Y-122318908D01*
X98145512Y-127355512D02*
X93451807Y-122661807D01*
X95250000Y-142240000D02*
X98145512Y-139344488D01*
X98145512Y-139344488D02*
X98145512Y-127355512D01*
D20*
G36*
X105252954Y-134456678D02*
X105019870Y-134491213D01*
X104753708Y-134586397D01*
X104628486Y-134653329D01*
X104556903Y-134897298D01*
X105370000Y-135710395D01*
X105384143Y-135696253D01*
X105563748Y-135875858D01*
X105549605Y-135890000D01*
X106362702Y-136703097D01*
X106606671Y-136631514D01*
X106727571Y-136376004D01*
X106796300Y-136101816D01*
X106801082Y-136004806D01*
X109450089Y-138653813D01*
X109445343Y-138657629D01*
X109265322Y-138872169D01*
X109179132Y-139028949D01*
X109104602Y-138888780D01*
X108927594Y-138671747D01*
X108711802Y-138493228D01*
X108465445Y-138360023D01*
X108197907Y-138277207D01*
X107919378Y-138247932D01*
X107640468Y-138273315D01*
X107371800Y-138352388D01*
X107123607Y-138482140D01*
X106905343Y-138657629D01*
X106725322Y-138872169D01*
X106639132Y-139028949D01*
X106564602Y-138888780D01*
X106387594Y-138671747D01*
X106171802Y-138493228D01*
X105925445Y-138360023D01*
X105657907Y-138277207D01*
X105379378Y-138247932D01*
X105100468Y-138273315D01*
X104831800Y-138352388D01*
X104583607Y-138482140D01*
X104365343Y-138657629D01*
X104185322Y-138872169D01*
X104099132Y-139028949D01*
X104024602Y-138888780D01*
X103847594Y-138671747D01*
X103631802Y-138493228D01*
X103385445Y-138360023D01*
X103117907Y-138277207D01*
X102839378Y-138247932D01*
X102560468Y-138273315D01*
X102291800Y-138352388D01*
X102043607Y-138482140D01*
X101825343Y-138657629D01*
X101645322Y-138872169D01*
X101510401Y-139117590D01*
X101425718Y-139384544D01*
X101394500Y-139662861D01*
X101394360Y-139682897D01*
X101394360Y-139696783D01*
X101421689Y-139975509D01*
X101502636Y-140243619D01*
X101634118Y-140490900D01*
X101811126Y-140707933D01*
X102026918Y-140886452D01*
X102273275Y-141019657D01*
X102403407Y-141059939D01*
X103620335Y-142276867D01*
X103711016Y-142351353D01*
X103800853Y-142426735D01*
X103806707Y-142429953D01*
X103811866Y-142434191D01*
X103915205Y-142489601D01*
X104018055Y-142546143D01*
X104024425Y-142548164D01*
X104030306Y-142551317D01*
X104142449Y-142585603D01*
X104254313Y-142621088D01*
X104260949Y-142621832D01*
X104267336Y-142623785D01*
X104384051Y-142635641D01*
X104500629Y-142648717D01*
X104513684Y-142648808D01*
X104513927Y-142648833D01*
X104514154Y-142648812D01*
X104518361Y-142648841D01*
X139200081Y-142648841D01*
X139316844Y-142637392D01*
X139433699Y-142627169D01*
X139440113Y-142625306D01*
X139446759Y-142624654D01*
X139559043Y-142590753D01*
X139671718Y-142558018D01*
X139677649Y-142554943D01*
X139684040Y-142553014D01*
X139787630Y-142497935D01*
X139891772Y-142443952D01*
X139896988Y-142439788D01*
X139902888Y-142436651D01*
X139993824Y-142362486D01*
X140085481Y-142289317D01*
X140094780Y-142280148D01*
X140094966Y-142279996D01*
X140095109Y-142279824D01*
X140098107Y-142276867D01*
X141297952Y-141077022D01*
X141466920Y-141027292D01*
X141715113Y-140897540D01*
X141933377Y-140722051D01*
X142113398Y-140507511D01*
X142200016Y-140349952D01*
X142316975Y-140544971D01*
X142505946Y-140753359D01*
X142731940Y-140920877D01*
X142986273Y-141041086D01*
X143120321Y-141081744D01*
X143342358Y-140959756D01*
X143342358Y-141124840D01*
X143406926Y-141124840D01*
X141374904Y-143156862D01*
X122094976Y-143156862D01*
X122019118Y-143164300D01*
X121943124Y-143170949D01*
X121938953Y-143172161D01*
X121934636Y-143172584D01*
X121861642Y-143194622D01*
X121788412Y-143215897D01*
X121784560Y-143217894D01*
X121780402Y-143219149D01*
X121713092Y-143254939D01*
X121645376Y-143290039D01*
X121641980Y-143292750D01*
X121638151Y-143294786D01*
X121579084Y-143342959D01*
X121519466Y-143390552D01*
X121513425Y-143396509D01*
X121513300Y-143396611D01*
X121513204Y-143396727D01*
X121511259Y-143398645D01*
X111203041Y-153706863D01*
X111005445Y-153600023D01*
X110737907Y-153517207D01*
X110459378Y-153487932D01*
X110180468Y-153513315D01*
X109911800Y-153592388D01*
X109663607Y-153722140D01*
X109445343Y-153897629D01*
X109265322Y-154112169D01*
X109179132Y-154268949D01*
X109104602Y-154128780D01*
X108927594Y-153911747D01*
X108711802Y-153733228D01*
X108465445Y-153600023D01*
X108197907Y-153517207D01*
X107919378Y-153487932D01*
X107640468Y-153513315D01*
X107371800Y-153592388D01*
X107123607Y-153722140D01*
X106905343Y-153897629D01*
X106725322Y-154112169D01*
X106639132Y-154268949D01*
X106564602Y-154128780D01*
X106387594Y-153911747D01*
X106171802Y-153733228D01*
X105925445Y-153600023D01*
X105657907Y-153517207D01*
X105379378Y-153487932D01*
X105100468Y-153513315D01*
X104831800Y-153592388D01*
X104583607Y-153722140D01*
X104365343Y-153897629D01*
X104256429Y-154027427D01*
X104239957Y-153944617D01*
X104192090Y-153829055D01*
X104122597Y-153725051D01*
X104034149Y-153636603D01*
X103930145Y-153567110D01*
X103814583Y-153519243D01*
X103691902Y-153494840D01*
X103115110Y-153494840D01*
X102956360Y-153653590D01*
X102956360Y-154802840D01*
X102976360Y-154802840D01*
X102976360Y-155056840D01*
X102956360Y-155056840D01*
X102956360Y-156206090D01*
X103115110Y-156364840D01*
X103691902Y-156364840D01*
X103814583Y-156340437D01*
X103930145Y-156292570D01*
X104034149Y-156223077D01*
X104122597Y-156134629D01*
X104192090Y-156030625D01*
X104239957Y-155915063D01*
X104256498Y-155831908D01*
X104351126Y-155947933D01*
X104566918Y-156126452D01*
X104813275Y-156259657D01*
X105080813Y-156342473D01*
X105359342Y-156371748D01*
X105638252Y-156346365D01*
X105906920Y-156267292D01*
X106155113Y-156137540D01*
X106373377Y-155962051D01*
X106553398Y-155747511D01*
X106639588Y-155590731D01*
X106714118Y-155730900D01*
X106891126Y-155947933D01*
X107106918Y-156126452D01*
X107353275Y-156259657D01*
X107620813Y-156342473D01*
X107899342Y-156371748D01*
X108178252Y-156346365D01*
X108446920Y-156267292D01*
X108695113Y-156137540D01*
X108913377Y-155962051D01*
X109093398Y-155747511D01*
X109179588Y-155590731D01*
X109254118Y-155730900D01*
X109431126Y-155947933D01*
X109646918Y-156126452D01*
X109893275Y-156259657D01*
X110160813Y-156342473D01*
X110439342Y-156371748D01*
X110718252Y-156346365D01*
X110868361Y-156302186D01*
X110868361Y-161014206D01*
X110784818Y-161097748D01*
X110500367Y-161067851D01*
X110211739Y-161094118D01*
X109977699Y-161163000D01*
X108458112Y-161163000D01*
X108248601Y-161098146D01*
X107960367Y-161067851D01*
X107671739Y-161094118D01*
X107437699Y-161163000D01*
X105918112Y-161163000D01*
X105708601Y-161098146D01*
X105420367Y-161067851D01*
X105131739Y-161094118D01*
X104897699Y-161163000D01*
X103373522Y-161163000D01*
X103226890Y-161118524D01*
X103142613Y-161163000D01*
X102597387Y-161163000D01*
X102513110Y-161118524D01*
X102366478Y-161163000D01*
X100838112Y-161163000D01*
X100628601Y-161098146D01*
X100340367Y-161067851D01*
X100051739Y-161094118D01*
X99817699Y-161163000D01*
X98298112Y-161163000D01*
X98088601Y-161098146D01*
X97800367Y-161067851D01*
X97657858Y-161080820D01*
X93764508Y-157187470D01*
X93761810Y-157185254D01*
X93894038Y-157027671D01*
X93980656Y-156870112D01*
X94097615Y-157065131D01*
X94286586Y-157273519D01*
X94512580Y-157441037D01*
X94766913Y-157561246D01*
X94900961Y-157601904D01*
X95123000Y-157479915D01*
X95123000Y-156337000D01*
X95377000Y-156337000D01*
X95377000Y-157479915D01*
X95599039Y-157601904D01*
X95733087Y-157561246D01*
X95987420Y-157441037D01*
X96213414Y-157273519D01*
X96402385Y-157065131D01*
X96547070Y-156823881D01*
X96641909Y-156559040D01*
X96520624Y-156337000D01*
X95377000Y-156337000D01*
X95123000Y-156337000D01*
X95103000Y-156337000D01*
X95103000Y-156083000D01*
X95123000Y-156083000D01*
X95123000Y-156063000D01*
X95377000Y-156063000D01*
X95377000Y-156083000D01*
X96520624Y-156083000D01*
X96641909Y-155860960D01*
X96547070Y-155596119D01*
X96402385Y-155354869D01*
X96276084Y-155215590D01*
X101394360Y-155215590D01*
X101394360Y-155792382D01*
X101418763Y-155915063D01*
X101466630Y-156030625D01*
X101536123Y-156134629D01*
X101624571Y-156223077D01*
X101728575Y-156292570D01*
X101844137Y-156340437D01*
X101966818Y-156364840D01*
X102543610Y-156364840D01*
X102702360Y-156206090D01*
X102702360Y-155056840D01*
X101553110Y-155056840D01*
X101394360Y-155215590D01*
X96276084Y-155215590D01*
X96213414Y-155146481D01*
X95987420Y-154978963D01*
X95733087Y-154858754D01*
X95599039Y-154818096D01*
X95377002Y-154940084D01*
X95377002Y-154890036D01*
X96199740Y-154067298D01*
X101394360Y-154067298D01*
X101394360Y-154644090D01*
X101553110Y-154802840D01*
X102702360Y-154802840D01*
X102702360Y-153653590D01*
X102543610Y-153494840D01*
X101966818Y-153494840D01*
X101844137Y-153519243D01*
X101728575Y-153567110D01*
X101624571Y-153636603D01*
X101536123Y-153725051D01*
X101466630Y-153829055D01*
X101418763Y-153944617D01*
X101394360Y-154067298D01*
X96199740Y-154067298D01*
X97295020Y-152972018D01*
X97350875Y-152904020D01*
X97407422Y-152836630D01*
X97409834Y-152832242D01*
X97413014Y-152828371D01*
X97454602Y-152750809D01*
X97496977Y-152673729D01*
X97498491Y-152668956D01*
X97500859Y-152664540D01*
X97526577Y-152580420D01*
X97553187Y-152496535D01*
X97553746Y-152491553D01*
X97555209Y-152486767D01*
X97564097Y-152399271D01*
X97573908Y-152311798D01*
X97573976Y-152302006D01*
X97573995Y-152301824D01*
X97573979Y-152301654D01*
X97574001Y-152298499D01*
X97574001Y-146151501D01*
X97565412Y-146063900D01*
X97557747Y-145976287D01*
X97556350Y-145971478D01*
X97555861Y-145966493D01*
X97530420Y-145882230D01*
X97505883Y-145797773D01*
X97503580Y-145793330D01*
X97502131Y-145788531D01*
X97460832Y-145710859D01*
X97420335Y-145632732D01*
X97417207Y-145628813D01*
X97414858Y-145624396D01*
X97359283Y-145556254D01*
X97304358Y-145487451D01*
X97297485Y-145480481D01*
X97297367Y-145480337D01*
X97297234Y-145480227D01*
X97295020Y-145477982D01*
X96723771Y-144906733D01*
X96734855Y-144807919D01*
X96735000Y-144787185D01*
X96735000Y-144772815D01*
X96706718Y-144484377D01*
X96622951Y-144206925D01*
X96486888Y-143951029D01*
X96303713Y-143726433D01*
X96080401Y-143541694D01*
X96023097Y-143510710D01*
X96063131Y-143489780D01*
X96289000Y-143308177D01*
X96475294Y-143086161D01*
X96614916Y-142832189D01*
X96702549Y-142555934D01*
X96734855Y-142267919D01*
X96735000Y-142247185D01*
X96735000Y-142232815D01*
X96723322Y-142113716D01*
X98819031Y-140018007D01*
X98874863Y-139950036D01*
X98931433Y-139882619D01*
X98933847Y-139878227D01*
X98937024Y-139874360D01*
X98978592Y-139796837D01*
X99020988Y-139719718D01*
X99022502Y-139714945D01*
X99024870Y-139710529D01*
X99050579Y-139626438D01*
X99077198Y-139542524D01*
X99077757Y-139537538D01*
X99079219Y-139532757D01*
X99088103Y-139445305D01*
X99097919Y-139357787D01*
X99097987Y-139347995D01*
X99098006Y-139347813D01*
X99097990Y-139347643D01*
X99098012Y-139344488D01*
X99098012Y-136010659D01*
X101433114Y-136010659D01*
X101483915Y-136287453D01*
X101587512Y-136549109D01*
X101739959Y-136785660D01*
X101935448Y-136988095D01*
X102166534Y-137148704D01*
X102424415Y-137261369D01*
X102699268Y-137321800D01*
X102980624Y-137327693D01*
X103257767Y-137278826D01*
X103520140Y-137177058D01*
X103757749Y-137026267D01*
X103908506Y-136882702D01*
X104556903Y-136882702D01*
X104628486Y-137126671D01*
X104883996Y-137247571D01*
X105158184Y-137316300D01*
X105440512Y-137330217D01*
X105720130Y-137288787D01*
X105986292Y-137193603D01*
X106111514Y-137126671D01*
X106183097Y-136882702D01*
X105370000Y-136069605D01*
X104556903Y-136882702D01*
X103908506Y-136882702D01*
X103961544Y-136832195D01*
X104120302Y-136607141D01*
X104133329Y-136631514D01*
X104377298Y-136703097D01*
X105190395Y-135890000D01*
X104377298Y-135076903D01*
X104133329Y-135148486D01*
X104119576Y-135177552D01*
X103987426Y-134978650D01*
X103789129Y-134778964D01*
X103555823Y-134621597D01*
X103296394Y-134512543D01*
X103020724Y-134455956D01*
X102739313Y-134453991D01*
X102462880Y-134506724D01*
X102201954Y-134612145D01*
X101966473Y-134766239D01*
X101765408Y-134963137D01*
X101606416Y-135195339D01*
X101495553Y-135454000D01*
X101437043Y-135729268D01*
X101433114Y-136010659D01*
X99098012Y-136010659D01*
X99098012Y-128301736D01*
X105252954Y-134456678D01*
X105252954Y-134456678D01*
G37*
X105252954Y-134456678D02*
X105019870Y-134491213D01*
X104753708Y-134586397D01*
X104628486Y-134653329D01*
X104556903Y-134897298D01*
X105370000Y-135710395D01*
X105384143Y-135696253D01*
X105563748Y-135875858D01*
X105549605Y-135890000D01*
X106362702Y-136703097D01*
X106606671Y-136631514D01*
X106727571Y-136376004D01*
X106796300Y-136101816D01*
X106801082Y-136004806D01*
X109450089Y-138653813D01*
X109445343Y-138657629D01*
X109265322Y-138872169D01*
X109179132Y-139028949D01*
X109104602Y-138888780D01*
X108927594Y-138671747D01*
X108711802Y-138493228D01*
X108465445Y-138360023D01*
X108197907Y-138277207D01*
X107919378Y-138247932D01*
X107640468Y-138273315D01*
X107371800Y-138352388D01*
X107123607Y-138482140D01*
X106905343Y-138657629D01*
X106725322Y-138872169D01*
X106639132Y-139028949D01*
X106564602Y-138888780D01*
X106387594Y-138671747D01*
X106171802Y-138493228D01*
X105925445Y-138360023D01*
X105657907Y-138277207D01*
X105379378Y-138247932D01*
X105100468Y-138273315D01*
X104831800Y-138352388D01*
X104583607Y-138482140D01*
X104365343Y-138657629D01*
X104185322Y-138872169D01*
X104099132Y-139028949D01*
X104024602Y-138888780D01*
X103847594Y-138671747D01*
X103631802Y-138493228D01*
X103385445Y-138360023D01*
X103117907Y-138277207D01*
X102839378Y-138247932D01*
X102560468Y-138273315D01*
X102291800Y-138352388D01*
X102043607Y-138482140D01*
X101825343Y-138657629D01*
X101645322Y-138872169D01*
X101510401Y-139117590D01*
X101425718Y-139384544D01*
X101394500Y-139662861D01*
X101394360Y-139682897D01*
X101394360Y-139696783D01*
X101421689Y-139975509D01*
X101502636Y-140243619D01*
X101634118Y-140490900D01*
X101811126Y-140707933D01*
X102026918Y-140886452D01*
X102273275Y-141019657D01*
X102403407Y-141059939D01*
X103620335Y-142276867D01*
X103711016Y-142351353D01*
X103800853Y-142426735D01*
X103806707Y-142429953D01*
X103811866Y-142434191D01*
X103915205Y-142489601D01*
X104018055Y-142546143D01*
X104024425Y-142548164D01*
X104030306Y-142551317D01*
X104142449Y-142585603D01*
X104254313Y-142621088D01*
X104260949Y-142621832D01*
X104267336Y-142623785D01*
X104384051Y-142635641D01*
X104500629Y-142648717D01*
X104513684Y-142648808D01*
X104513927Y-142648833D01*
X104514154Y-142648812D01*
X104518361Y-142648841D01*
X139200081Y-142648841D01*
X139316844Y-142637392D01*
X139433699Y-142627169D01*
X139440113Y-142625306D01*
X139446759Y-142624654D01*
X139559043Y-142590753D01*
X139671718Y-142558018D01*
X139677649Y-142554943D01*
X139684040Y-142553014D01*
X139787630Y-142497935D01*
X139891772Y-142443952D01*
X139896988Y-142439788D01*
X139902888Y-142436651D01*
X139993824Y-142362486D01*
X140085481Y-142289317D01*
X140094780Y-142280148D01*
X140094966Y-142279996D01*
X140095109Y-142279824D01*
X140098107Y-142276867D01*
X141297952Y-141077022D01*
X141466920Y-141027292D01*
X141715113Y-140897540D01*
X141933377Y-140722051D01*
X142113398Y-140507511D01*
X142200016Y-140349952D01*
X142316975Y-140544971D01*
X142505946Y-140753359D01*
X142731940Y-140920877D01*
X142986273Y-141041086D01*
X143120321Y-141081744D01*
X143342358Y-140959756D01*
X143342358Y-141124840D01*
X143406926Y-141124840D01*
X141374904Y-143156862D01*
X122094976Y-143156862D01*
X122019118Y-143164300D01*
X121943124Y-143170949D01*
X121938953Y-143172161D01*
X121934636Y-143172584D01*
X121861642Y-143194622D01*
X121788412Y-143215897D01*
X121784560Y-143217894D01*
X121780402Y-143219149D01*
X121713092Y-143254939D01*
X121645376Y-143290039D01*
X121641980Y-143292750D01*
X121638151Y-143294786D01*
X121579084Y-143342959D01*
X121519466Y-143390552D01*
X121513425Y-143396509D01*
X121513300Y-143396611D01*
X121513204Y-143396727D01*
X121511259Y-143398645D01*
X111203041Y-153706863D01*
X111005445Y-153600023D01*
X110737907Y-153517207D01*
X110459378Y-153487932D01*
X110180468Y-153513315D01*
X109911800Y-153592388D01*
X109663607Y-153722140D01*
X109445343Y-153897629D01*
X109265322Y-154112169D01*
X109179132Y-154268949D01*
X109104602Y-154128780D01*
X108927594Y-153911747D01*
X108711802Y-153733228D01*
X108465445Y-153600023D01*
X108197907Y-153517207D01*
X107919378Y-153487932D01*
X107640468Y-153513315D01*
X107371800Y-153592388D01*
X107123607Y-153722140D01*
X106905343Y-153897629D01*
X106725322Y-154112169D01*
X106639132Y-154268949D01*
X106564602Y-154128780D01*
X106387594Y-153911747D01*
X106171802Y-153733228D01*
X105925445Y-153600023D01*
X105657907Y-153517207D01*
X105379378Y-153487932D01*
X105100468Y-153513315D01*
X104831800Y-153592388D01*
X104583607Y-153722140D01*
X104365343Y-153897629D01*
X104256429Y-154027427D01*
X104239957Y-153944617D01*
X104192090Y-153829055D01*
X104122597Y-153725051D01*
X104034149Y-153636603D01*
X103930145Y-153567110D01*
X103814583Y-153519243D01*
X103691902Y-153494840D01*
X103115110Y-153494840D01*
X102956360Y-153653590D01*
X102956360Y-154802840D01*
X102976360Y-154802840D01*
X102976360Y-155056840D01*
X102956360Y-155056840D01*
X102956360Y-156206090D01*
X103115110Y-156364840D01*
X103691902Y-156364840D01*
X103814583Y-156340437D01*
X103930145Y-156292570D01*
X104034149Y-156223077D01*
X104122597Y-156134629D01*
X104192090Y-156030625D01*
X104239957Y-155915063D01*
X104256498Y-155831908D01*
X104351126Y-155947933D01*
X104566918Y-156126452D01*
X104813275Y-156259657D01*
X105080813Y-156342473D01*
X105359342Y-156371748D01*
X105638252Y-156346365D01*
X105906920Y-156267292D01*
X106155113Y-156137540D01*
X106373377Y-155962051D01*
X106553398Y-155747511D01*
X106639588Y-155590731D01*
X106714118Y-155730900D01*
X106891126Y-155947933D01*
X107106918Y-156126452D01*
X107353275Y-156259657D01*
X107620813Y-156342473D01*
X107899342Y-156371748D01*
X108178252Y-156346365D01*
X108446920Y-156267292D01*
X108695113Y-156137540D01*
X108913377Y-155962051D01*
X109093398Y-155747511D01*
X109179588Y-155590731D01*
X109254118Y-155730900D01*
X109431126Y-155947933D01*
X109646918Y-156126452D01*
X109893275Y-156259657D01*
X110160813Y-156342473D01*
X110439342Y-156371748D01*
X110718252Y-156346365D01*
X110868361Y-156302186D01*
X110868361Y-161014206D01*
X110784818Y-161097748D01*
X110500367Y-161067851D01*
X110211739Y-161094118D01*
X109977699Y-161163000D01*
X108458112Y-161163000D01*
X108248601Y-161098146D01*
X107960367Y-161067851D01*
X107671739Y-161094118D01*
X107437699Y-161163000D01*
X105918112Y-161163000D01*
X105708601Y-161098146D01*
X105420367Y-161067851D01*
X105131739Y-161094118D01*
X104897699Y-161163000D01*
X103373522Y-161163000D01*
X103226890Y-161118524D01*
X103142613Y-161163000D01*
X102597387Y-161163000D01*
X102513110Y-161118524D01*
X102366478Y-161163000D01*
X100838112Y-161163000D01*
X100628601Y-161098146D01*
X100340367Y-161067851D01*
X100051739Y-161094118D01*
X99817699Y-161163000D01*
X98298112Y-161163000D01*
X98088601Y-161098146D01*
X97800367Y-161067851D01*
X97657858Y-161080820D01*
X93764508Y-157187470D01*
X93761810Y-157185254D01*
X93894038Y-157027671D01*
X93980656Y-156870112D01*
X94097615Y-157065131D01*
X94286586Y-157273519D01*
X94512580Y-157441037D01*
X94766913Y-157561246D01*
X94900961Y-157601904D01*
X95123000Y-157479915D01*
X95123000Y-156337000D01*
X95377000Y-156337000D01*
X95377000Y-157479915D01*
X95599039Y-157601904D01*
X95733087Y-157561246D01*
X95987420Y-157441037D01*
X96213414Y-157273519D01*
X96402385Y-157065131D01*
X96547070Y-156823881D01*
X96641909Y-156559040D01*
X96520624Y-156337000D01*
X95377000Y-156337000D01*
X95123000Y-156337000D01*
X95103000Y-156337000D01*
X95103000Y-156083000D01*
X95123000Y-156083000D01*
X95123000Y-156063000D01*
X95377000Y-156063000D01*
X95377000Y-156083000D01*
X96520624Y-156083000D01*
X96641909Y-155860960D01*
X96547070Y-155596119D01*
X96402385Y-155354869D01*
X96276084Y-155215590D01*
X101394360Y-155215590D01*
X101394360Y-155792382D01*
X101418763Y-155915063D01*
X101466630Y-156030625D01*
X101536123Y-156134629D01*
X101624571Y-156223077D01*
X101728575Y-156292570D01*
X101844137Y-156340437D01*
X101966818Y-156364840D01*
X102543610Y-156364840D01*
X102702360Y-156206090D01*
X102702360Y-155056840D01*
X101553110Y-155056840D01*
X101394360Y-155215590D01*
X96276084Y-155215590D01*
X96213414Y-155146481D01*
X95987420Y-154978963D01*
X95733087Y-154858754D01*
X95599039Y-154818096D01*
X95377002Y-154940084D01*
X95377002Y-154890036D01*
X96199740Y-154067298D01*
X101394360Y-154067298D01*
X101394360Y-154644090D01*
X101553110Y-154802840D01*
X102702360Y-154802840D01*
X102702360Y-153653590D01*
X102543610Y-153494840D01*
X101966818Y-153494840D01*
X101844137Y-153519243D01*
X101728575Y-153567110D01*
X101624571Y-153636603D01*
X101536123Y-153725051D01*
X101466630Y-153829055D01*
X101418763Y-153944617D01*
X101394360Y-154067298D01*
X96199740Y-154067298D01*
X97295020Y-152972018D01*
X97350875Y-152904020D01*
X97407422Y-152836630D01*
X97409834Y-152832242D01*
X97413014Y-152828371D01*
X97454602Y-152750809D01*
X97496977Y-152673729D01*
X97498491Y-152668956D01*
X97500859Y-152664540D01*
X97526577Y-152580420D01*
X97553187Y-152496535D01*
X97553746Y-152491553D01*
X97555209Y-152486767D01*
X97564097Y-152399271D01*
X97573908Y-152311798D01*
X97573976Y-152302006D01*
X97573995Y-152301824D01*
X97573979Y-152301654D01*
X97574001Y-152298499D01*
X97574001Y-146151501D01*
X97565412Y-146063900D01*
X97557747Y-145976287D01*
X97556350Y-145971478D01*
X97555861Y-145966493D01*
X97530420Y-145882230D01*
X97505883Y-145797773D01*
X97503580Y-145793330D01*
X97502131Y-145788531D01*
X97460832Y-145710859D01*
X97420335Y-145632732D01*
X97417207Y-145628813D01*
X97414858Y-145624396D01*
X97359283Y-145556254D01*
X97304358Y-145487451D01*
X97297485Y-145480481D01*
X97297367Y-145480337D01*
X97297234Y-145480227D01*
X97295020Y-145477982D01*
X96723771Y-144906733D01*
X96734855Y-144807919D01*
X96735000Y-144787185D01*
X96735000Y-144772815D01*
X96706718Y-144484377D01*
X96622951Y-144206925D01*
X96486888Y-143951029D01*
X96303713Y-143726433D01*
X96080401Y-143541694D01*
X96023097Y-143510710D01*
X96063131Y-143489780D01*
X96289000Y-143308177D01*
X96475294Y-143086161D01*
X96614916Y-142832189D01*
X96702549Y-142555934D01*
X96734855Y-142267919D01*
X96735000Y-142247185D01*
X96735000Y-142232815D01*
X96723322Y-142113716D01*
X98819031Y-140018007D01*
X98874863Y-139950036D01*
X98931433Y-139882619D01*
X98933847Y-139878227D01*
X98937024Y-139874360D01*
X98978592Y-139796837D01*
X99020988Y-139719718D01*
X99022502Y-139714945D01*
X99024870Y-139710529D01*
X99050579Y-139626438D01*
X99077198Y-139542524D01*
X99077757Y-139537538D01*
X99079219Y-139532757D01*
X99088103Y-139445305D01*
X99097919Y-139357787D01*
X99097987Y-139347995D01*
X99098006Y-139347813D01*
X99097990Y-139347643D01*
X99098012Y-139344488D01*
X99098012Y-136010659D01*
X101433114Y-136010659D01*
X101483915Y-136287453D01*
X101587512Y-136549109D01*
X101739959Y-136785660D01*
X101935448Y-136988095D01*
X102166534Y-137148704D01*
X102424415Y-137261369D01*
X102699268Y-137321800D01*
X102980624Y-137327693D01*
X103257767Y-137278826D01*
X103520140Y-137177058D01*
X103757749Y-137026267D01*
X103908506Y-136882702D01*
X104556903Y-136882702D01*
X104628486Y-137126671D01*
X104883996Y-137247571D01*
X105158184Y-137316300D01*
X105440512Y-137330217D01*
X105720130Y-137288787D01*
X105986292Y-137193603D01*
X106111514Y-137126671D01*
X106183097Y-136882702D01*
X105370000Y-136069605D01*
X104556903Y-136882702D01*
X103908506Y-136882702D01*
X103961544Y-136832195D01*
X104120302Y-136607141D01*
X104133329Y-136631514D01*
X104377298Y-136703097D01*
X105190395Y-135890000D01*
X104377298Y-135076903D01*
X104133329Y-135148486D01*
X104119576Y-135177552D01*
X103987426Y-134978650D01*
X103789129Y-134778964D01*
X103555823Y-134621597D01*
X103296394Y-134512543D01*
X103020724Y-134455956D01*
X102739313Y-134453991D01*
X102462880Y-134506724D01*
X102201954Y-134612145D01*
X101966473Y-134766239D01*
X101765408Y-134963137D01*
X101606416Y-135195339D01*
X101495553Y-135454000D01*
X101437043Y-135729268D01*
X101433114Y-136010659D01*
X99098012Y-136010659D01*
X99098012Y-128301736D01*
X105252954Y-134456678D01*
G36*
X76233112Y-143068971D02*
X76416287Y-143293567D01*
X76449882Y-143321359D01*
X76347366Y-143353106D01*
X76197441Y-143451900D01*
X76080975Y-143588550D01*
X76007190Y-143752237D01*
X75981928Y-143930000D01*
X75981928Y-145630000D01*
X75989992Y-145731121D01*
X76043106Y-145902634D01*
X76141900Y-146052559D01*
X76278550Y-146169025D01*
X76442237Y-146242810D01*
X76620000Y-146268072D01*
X78320000Y-146268072D01*
X78421121Y-146260008D01*
X78592634Y-146206894D01*
X78742559Y-146108100D01*
X78859025Y-145971450D01*
X78932810Y-145807763D01*
X78933171Y-145805224D01*
X78956287Y-145833567D01*
X79179599Y-146018306D01*
X79434539Y-146156152D01*
X79711399Y-146241854D01*
X79999633Y-146272149D01*
X80288261Y-146245882D01*
X80566291Y-146164053D01*
X80823131Y-146029780D01*
X81049000Y-145848177D01*
X81235294Y-145626161D01*
X81279498Y-145545753D01*
X81313112Y-145608971D01*
X81496287Y-145833567D01*
X81719599Y-146018306D01*
X81974539Y-146156152D01*
X82251399Y-146241854D01*
X82539633Y-146272149D01*
X82828261Y-146245882D01*
X83106291Y-146164053D01*
X83363131Y-146029780D01*
X83589000Y-145848177D01*
X83775294Y-145626161D01*
X83819498Y-145545753D01*
X83853112Y-145608971D01*
X84036287Y-145833567D01*
X84259599Y-146018306D01*
X84514539Y-146156152D01*
X84791399Y-146241854D01*
X85079633Y-146272149D01*
X85368261Y-146245882D01*
X85646291Y-146164053D01*
X85903131Y-146029780D01*
X86129000Y-145848177D01*
X86315294Y-145626161D01*
X86359498Y-145545753D01*
X86393112Y-145608971D01*
X86576287Y-145833567D01*
X86799599Y-146018306D01*
X87054539Y-146156152D01*
X87331399Y-146241854D01*
X87619633Y-146272149D01*
X87908261Y-146245882D01*
X88186291Y-146164053D01*
X88443131Y-146029780D01*
X88669000Y-145848177D01*
X88855294Y-145626161D01*
X88899498Y-145545753D01*
X88933112Y-145608971D01*
X89116287Y-145833567D01*
X89339599Y-146018306D01*
X89594539Y-146156152D01*
X89871399Y-146241854D01*
X90159633Y-146272149D01*
X90448261Y-146245882D01*
X90726291Y-146164053D01*
X90983131Y-146029780D01*
X91209000Y-145848177D01*
X91395294Y-145626161D01*
X91439498Y-145545753D01*
X91473112Y-145608971D01*
X91656287Y-145833567D01*
X91879599Y-146018306D01*
X92134539Y-146156152D01*
X92411399Y-146241854D01*
X92699633Y-146272149D01*
X92988261Y-146245882D01*
X93266291Y-146164053D01*
X93523131Y-146029780D01*
X93749000Y-145848177D01*
X93935294Y-145626161D01*
X93979498Y-145545753D01*
X94013112Y-145608971D01*
X94196287Y-145833567D01*
X94419599Y-146018306D01*
X94674539Y-146156152D01*
X94951399Y-146241854D01*
X95239633Y-146272149D01*
X95382142Y-146259180D01*
X95669001Y-146546039D01*
X95669001Y-147217749D01*
X95538547Y-147177367D01*
X95260018Y-147148092D01*
X94981108Y-147173475D01*
X94712440Y-147252548D01*
X94464247Y-147382300D01*
X94245983Y-147557789D01*
X94065962Y-147772329D01*
X93979772Y-147929109D01*
X93905242Y-147788940D01*
X93728234Y-147571907D01*
X93512442Y-147393388D01*
X93266085Y-147260183D01*
X92998547Y-147177367D01*
X92720018Y-147148092D01*
X92441108Y-147173475D01*
X92172440Y-147252548D01*
X91924247Y-147382300D01*
X91705983Y-147557789D01*
X91525962Y-147772329D01*
X91439772Y-147929109D01*
X91365242Y-147788940D01*
X91188234Y-147571907D01*
X90972442Y-147393388D01*
X90726085Y-147260183D01*
X90458547Y-147177367D01*
X90180018Y-147148092D01*
X89901108Y-147173475D01*
X89632440Y-147252548D01*
X89384247Y-147382300D01*
X89165983Y-147557789D01*
X88985962Y-147772329D01*
X88899772Y-147929109D01*
X88825242Y-147788940D01*
X88648234Y-147571907D01*
X88432442Y-147393388D01*
X88186085Y-147260183D01*
X87918547Y-147177367D01*
X87640018Y-147148092D01*
X87361108Y-147173475D01*
X87092440Y-147252548D01*
X86844247Y-147382300D01*
X86625983Y-147557789D01*
X86445962Y-147772329D01*
X86359772Y-147929109D01*
X86285242Y-147788940D01*
X86108234Y-147571907D01*
X85892442Y-147393388D01*
X85646085Y-147260183D01*
X85378547Y-147177367D01*
X85100018Y-147148092D01*
X84821108Y-147173475D01*
X84552440Y-147252548D01*
X84304247Y-147382300D01*
X84085983Y-147557789D01*
X83905962Y-147772329D01*
X83819772Y-147929109D01*
X83745242Y-147788940D01*
X83568234Y-147571907D01*
X83352442Y-147393388D01*
X83106085Y-147260183D01*
X82838547Y-147177367D01*
X82560018Y-147148092D01*
X82281108Y-147173475D01*
X82012440Y-147252548D01*
X81764247Y-147382300D01*
X81545983Y-147557789D01*
X81365962Y-147772329D01*
X81279772Y-147929109D01*
X81205242Y-147788940D01*
X81028234Y-147571907D01*
X80812442Y-147393388D01*
X80566085Y-147260183D01*
X80298547Y-147177367D01*
X80020018Y-147148092D01*
X79741108Y-147173475D01*
X79472440Y-147252548D01*
X79224247Y-147382300D01*
X79005983Y-147557789D01*
X78825962Y-147772329D01*
X78739772Y-147929109D01*
X78665242Y-147788940D01*
X78488234Y-147571907D01*
X78272442Y-147393388D01*
X78026085Y-147260183D01*
X77758547Y-147177367D01*
X77480018Y-147148092D01*
X77201108Y-147173475D01*
X76932440Y-147252548D01*
X76684247Y-147382300D01*
X76465983Y-147557789D01*
X76285962Y-147772329D01*
X76151041Y-148017750D01*
X76066358Y-148284704D01*
X76035140Y-148563021D01*
X76035000Y-148583057D01*
X76035000Y-148596943D01*
X76062329Y-148875669D01*
X76143276Y-149143779D01*
X76274758Y-149391060D01*
X76451766Y-149608093D01*
X76667558Y-149786612D01*
X76913915Y-149919817D01*
X77181453Y-150002633D01*
X77459982Y-150031908D01*
X77738892Y-150006525D01*
X78007560Y-149927452D01*
X78255753Y-149797700D01*
X78474017Y-149622211D01*
X78654038Y-149407671D01*
X78740228Y-149250891D01*
X78814758Y-149391060D01*
X78991766Y-149608093D01*
X79207558Y-149786612D01*
X79453915Y-149919817D01*
X79721453Y-150002633D01*
X79999982Y-150031908D01*
X80278892Y-150006525D01*
X80547560Y-149927452D01*
X80795753Y-149797700D01*
X81014017Y-149622211D01*
X81194038Y-149407671D01*
X81280228Y-149250891D01*
X81354758Y-149391060D01*
X81531766Y-149608093D01*
X81747558Y-149786612D01*
X81993915Y-149919817D01*
X82261453Y-150002633D01*
X82539982Y-150031908D01*
X82818892Y-150006525D01*
X83087560Y-149927452D01*
X83335753Y-149797700D01*
X83554017Y-149622211D01*
X83734038Y-149407671D01*
X83820228Y-149250891D01*
X83894758Y-149391060D01*
X84071766Y-149608093D01*
X84287558Y-149786612D01*
X84533915Y-149919817D01*
X84801453Y-150002633D01*
X85079982Y-150031908D01*
X85358892Y-150006525D01*
X85627560Y-149927452D01*
X85875753Y-149797700D01*
X86094017Y-149622211D01*
X86274038Y-149407671D01*
X86360228Y-149250891D01*
X86434758Y-149391060D01*
X86611766Y-149608093D01*
X86827558Y-149786612D01*
X87073915Y-149919817D01*
X87341453Y-150002633D01*
X87619982Y-150031908D01*
X87898892Y-150006525D01*
X88167560Y-149927452D01*
X88415753Y-149797700D01*
X88634017Y-149622211D01*
X88814038Y-149407671D01*
X88900228Y-149250891D01*
X88974758Y-149391060D01*
X89151766Y-149608093D01*
X89367558Y-149786612D01*
X89613915Y-149919817D01*
X89881453Y-150002633D01*
X90159982Y-150031908D01*
X90438892Y-150006525D01*
X90707560Y-149927452D01*
X90955753Y-149797700D01*
X91174017Y-149622211D01*
X91354038Y-149407671D01*
X91440228Y-149250891D01*
X91514758Y-149391060D01*
X91691766Y-149608093D01*
X91907558Y-149786612D01*
X92153915Y-149919817D01*
X92421453Y-150002633D01*
X92699982Y-150031908D01*
X92978892Y-150006525D01*
X93247560Y-149927452D01*
X93495753Y-149797700D01*
X93714017Y-149622211D01*
X93894038Y-149407671D01*
X93980228Y-149250891D01*
X94054758Y-149391060D01*
X94231766Y-149608093D01*
X94447558Y-149786612D01*
X94693915Y-149919817D01*
X94961453Y-150002633D01*
X95239982Y-150031908D01*
X95518892Y-150006525D01*
X95669001Y-149962346D01*
X95669001Y-151903961D01*
X92796800Y-154776162D01*
X92720018Y-154768092D01*
X92441108Y-154793475D01*
X92172440Y-154872548D01*
X91924247Y-155002300D01*
X91705983Y-155177789D01*
X91525962Y-155392329D01*
X91439772Y-155549109D01*
X91365242Y-155408940D01*
X91188234Y-155191907D01*
X90972442Y-155013388D01*
X90726085Y-154880183D01*
X90458547Y-154797367D01*
X90180018Y-154768092D01*
X89901108Y-154793475D01*
X89632440Y-154872548D01*
X89384247Y-155002300D01*
X89165983Y-155177789D01*
X88985962Y-155392329D01*
X88899344Y-155549888D01*
X88782385Y-155354869D01*
X88593414Y-155146481D01*
X88367420Y-154978963D01*
X88113087Y-154858754D01*
X87979039Y-154818096D01*
X87757000Y-154940085D01*
X87757000Y-156083000D01*
X87777000Y-156083000D01*
X87777000Y-156337000D01*
X87757000Y-156337000D01*
X87757000Y-156357000D01*
X87503000Y-156357000D01*
X87503000Y-156337000D01*
X85217000Y-156337000D01*
X85217000Y-156357000D01*
X84963000Y-156357000D01*
X84963000Y-156337000D01*
X84943000Y-156337000D01*
X84943000Y-156083000D01*
X84963000Y-156083000D01*
X84963000Y-154940085D01*
X85217000Y-154940085D01*
X85217000Y-156083000D01*
X87503000Y-156083000D01*
X87503000Y-154940085D01*
X87280961Y-154818096D01*
X87146913Y-154858754D01*
X86892580Y-154978963D01*
X86666586Y-155146481D01*
X86477615Y-155354869D01*
X86360000Y-155550982D01*
X86242385Y-155354869D01*
X86053414Y-155146481D01*
X85827420Y-154978963D01*
X85573087Y-154858754D01*
X85439039Y-154818096D01*
X85217000Y-154940085D01*
X84963000Y-154940085D01*
X84740961Y-154818096D01*
X84606913Y-154858754D01*
X84352580Y-154978963D01*
X84126586Y-155146481D01*
X83937615Y-155354869D01*
X83820407Y-155550304D01*
X83745242Y-155408940D01*
X83568234Y-155191907D01*
X83352442Y-155013388D01*
X83106085Y-154880183D01*
X82838547Y-154797367D01*
X82560018Y-154768092D01*
X82281108Y-154793475D01*
X82012440Y-154872548D01*
X81764247Y-155002300D01*
X81545983Y-155177789D01*
X81365962Y-155392329D01*
X81279772Y-155549109D01*
X81205242Y-155408940D01*
X81028234Y-155191907D01*
X80812442Y-155013388D01*
X80566085Y-154880183D01*
X80298547Y-154797367D01*
X80020018Y-154768092D01*
X79741108Y-154793475D01*
X79472440Y-154872548D01*
X79224247Y-155002300D01*
X79005983Y-155177789D01*
X78898924Y-155305377D01*
X78846894Y-155137366D01*
X78748100Y-154987441D01*
X78611450Y-154870975D01*
X78447763Y-154797190D01*
X78270000Y-154771928D01*
X76670000Y-154771928D01*
X76568879Y-154779992D01*
X76397366Y-154833106D01*
X76247441Y-154931900D01*
X76130975Y-155068550D01*
X76057190Y-155232237D01*
X76031928Y-155410000D01*
X76031928Y-156053592D01*
X73772353Y-153794017D01*
X74010130Y-153758787D01*
X74276292Y-153663603D01*
X74401514Y-153596671D01*
X74473097Y-153352702D01*
X73660000Y-152539605D01*
X73645858Y-152553748D01*
X73466253Y-152374143D01*
X73480395Y-152360000D01*
X73839605Y-152360000D01*
X74652702Y-153173097D01*
X74896671Y-153101514D01*
X75017571Y-152846004D01*
X75086300Y-152571816D01*
X75100217Y-152289488D01*
X75058787Y-152009870D01*
X74963603Y-151743708D01*
X74896671Y-151618486D01*
X74652702Y-151546903D01*
X73839605Y-152360000D01*
X73480395Y-152360000D01*
X73466253Y-152345858D01*
X73645858Y-152166253D01*
X73660000Y-152180395D01*
X74473097Y-151367298D01*
X74401514Y-151123329D01*
X74370589Y-151108696D01*
X74547749Y-150996267D01*
X74751544Y-150802195D01*
X74913762Y-150572236D01*
X75028225Y-150315148D01*
X75090573Y-150040723D01*
X75095061Y-149719291D01*
X75040400Y-149443233D01*
X74933160Y-149183049D01*
X74777426Y-148948650D01*
X74579129Y-148748964D01*
X74345823Y-148591597D01*
X74086394Y-148482543D01*
X73810724Y-148425956D01*
X73529313Y-148423991D01*
X73252880Y-148476724D01*
X73240999Y-148481524D01*
X73240999Y-145712217D01*
X76112008Y-142841208D01*
X76233112Y-143068971D01*
X76233112Y-143068971D01*
G37*
X76233112Y-143068971D02*
X76416287Y-143293567D01*
X76449882Y-143321359D01*
X76347366Y-143353106D01*
X76197441Y-143451900D01*
X76080975Y-143588550D01*
X76007190Y-143752237D01*
X75981928Y-143930000D01*
X75981928Y-145630000D01*
X75989992Y-145731121D01*
X76043106Y-145902634D01*
X76141900Y-146052559D01*
X76278550Y-146169025D01*
X76442237Y-146242810D01*
X76620000Y-146268072D01*
X78320000Y-146268072D01*
X78421121Y-146260008D01*
X78592634Y-146206894D01*
X78742559Y-146108100D01*
X78859025Y-145971450D01*
X78932810Y-145807763D01*
X78933171Y-145805224D01*
X78956287Y-145833567D01*
X79179599Y-146018306D01*
X79434539Y-146156152D01*
X79711399Y-146241854D01*
X79999633Y-146272149D01*
X80288261Y-146245882D01*
X80566291Y-146164053D01*
X80823131Y-146029780D01*
X81049000Y-145848177D01*
X81235294Y-145626161D01*
X81279498Y-145545753D01*
X81313112Y-145608971D01*
X81496287Y-145833567D01*
X81719599Y-146018306D01*
X81974539Y-146156152D01*
X82251399Y-146241854D01*
X82539633Y-146272149D01*
X82828261Y-146245882D01*
X83106291Y-146164053D01*
X83363131Y-146029780D01*
X83589000Y-145848177D01*
X83775294Y-145626161D01*
X83819498Y-145545753D01*
X83853112Y-145608971D01*
X84036287Y-145833567D01*
X84259599Y-146018306D01*
X84514539Y-146156152D01*
X84791399Y-146241854D01*
X85079633Y-146272149D01*
X85368261Y-146245882D01*
X85646291Y-146164053D01*
X85903131Y-146029780D01*
X86129000Y-145848177D01*
X86315294Y-145626161D01*
X86359498Y-145545753D01*
X86393112Y-145608971D01*
X86576287Y-145833567D01*
X86799599Y-146018306D01*
X87054539Y-146156152D01*
X87331399Y-146241854D01*
X87619633Y-146272149D01*
X87908261Y-146245882D01*
X88186291Y-146164053D01*
X88443131Y-146029780D01*
X88669000Y-145848177D01*
X88855294Y-145626161D01*
X88899498Y-145545753D01*
X88933112Y-145608971D01*
X89116287Y-145833567D01*
X89339599Y-146018306D01*
X89594539Y-146156152D01*
X89871399Y-146241854D01*
X90159633Y-146272149D01*
X90448261Y-146245882D01*
X90726291Y-146164053D01*
X90983131Y-146029780D01*
X91209000Y-145848177D01*
X91395294Y-145626161D01*
X91439498Y-145545753D01*
X91473112Y-145608971D01*
X91656287Y-145833567D01*
X91879599Y-146018306D01*
X92134539Y-146156152D01*
X92411399Y-146241854D01*
X92699633Y-146272149D01*
X92988261Y-146245882D01*
X93266291Y-146164053D01*
X93523131Y-146029780D01*
X93749000Y-145848177D01*
X93935294Y-145626161D01*
X93979498Y-145545753D01*
X94013112Y-145608971D01*
X94196287Y-145833567D01*
X94419599Y-146018306D01*
X94674539Y-146156152D01*
X94951399Y-146241854D01*
X95239633Y-146272149D01*
X95382142Y-146259180D01*
X95669001Y-146546039D01*
X95669001Y-147217749D01*
X95538547Y-147177367D01*
X95260018Y-147148092D01*
X94981108Y-147173475D01*
X94712440Y-147252548D01*
X94464247Y-147382300D01*
X94245983Y-147557789D01*
X94065962Y-147772329D01*
X93979772Y-147929109D01*
X93905242Y-147788940D01*
X93728234Y-147571907D01*
X93512442Y-147393388D01*
X93266085Y-147260183D01*
X92998547Y-147177367D01*
X92720018Y-147148092D01*
X92441108Y-147173475D01*
X92172440Y-147252548D01*
X91924247Y-147382300D01*
X91705983Y-147557789D01*
X91525962Y-147772329D01*
X91439772Y-147929109D01*
X91365242Y-147788940D01*
X91188234Y-147571907D01*
X90972442Y-147393388D01*
X90726085Y-147260183D01*
X90458547Y-147177367D01*
X90180018Y-147148092D01*
X89901108Y-147173475D01*
X89632440Y-147252548D01*
X89384247Y-147382300D01*
X89165983Y-147557789D01*
X88985962Y-147772329D01*
X88899772Y-147929109D01*
X88825242Y-147788940D01*
X88648234Y-147571907D01*
X88432442Y-147393388D01*
X88186085Y-147260183D01*
X87918547Y-147177367D01*
X87640018Y-147148092D01*
X87361108Y-147173475D01*
X87092440Y-147252548D01*
X86844247Y-147382300D01*
X86625983Y-147557789D01*
X86445962Y-147772329D01*
X86359772Y-147929109D01*
X86285242Y-147788940D01*
X86108234Y-147571907D01*
X85892442Y-147393388D01*
X85646085Y-147260183D01*
X85378547Y-147177367D01*
X85100018Y-147148092D01*
X84821108Y-147173475D01*
X84552440Y-147252548D01*
X84304247Y-147382300D01*
X84085983Y-147557789D01*
X83905962Y-147772329D01*
X83819772Y-147929109D01*
X83745242Y-147788940D01*
X83568234Y-147571907D01*
X83352442Y-147393388D01*
X83106085Y-147260183D01*
X82838547Y-147177367D01*
X82560018Y-147148092D01*
X82281108Y-147173475D01*
X82012440Y-147252548D01*
X81764247Y-147382300D01*
X81545983Y-147557789D01*
X81365962Y-147772329D01*
X81279772Y-147929109D01*
X81205242Y-147788940D01*
X81028234Y-147571907D01*
X80812442Y-147393388D01*
X80566085Y-147260183D01*
X80298547Y-147177367D01*
X80020018Y-147148092D01*
X79741108Y-147173475D01*
X79472440Y-147252548D01*
X79224247Y-147382300D01*
X79005983Y-147557789D01*
X78825962Y-147772329D01*
X78739772Y-147929109D01*
X78665242Y-147788940D01*
X78488234Y-147571907D01*
X78272442Y-147393388D01*
X78026085Y-147260183D01*
X77758547Y-147177367D01*
X77480018Y-147148092D01*
X77201108Y-147173475D01*
X76932440Y-147252548D01*
X76684247Y-147382300D01*
X76465983Y-147557789D01*
X76285962Y-147772329D01*
X76151041Y-148017750D01*
X76066358Y-148284704D01*
X76035140Y-148563021D01*
X76035000Y-148583057D01*
X76035000Y-148596943D01*
X76062329Y-148875669D01*
X76143276Y-149143779D01*
X76274758Y-149391060D01*
X76451766Y-149608093D01*
X76667558Y-149786612D01*
X76913915Y-149919817D01*
X77181453Y-150002633D01*
X77459982Y-150031908D01*
X77738892Y-150006525D01*
X78007560Y-149927452D01*
X78255753Y-149797700D01*
X78474017Y-149622211D01*
X78654038Y-149407671D01*
X78740228Y-149250891D01*
X78814758Y-149391060D01*
X78991766Y-149608093D01*
X79207558Y-149786612D01*
X79453915Y-149919817D01*
X79721453Y-150002633D01*
X79999982Y-150031908D01*
X80278892Y-150006525D01*
X80547560Y-149927452D01*
X80795753Y-149797700D01*
X81014017Y-149622211D01*
X81194038Y-149407671D01*
X81280228Y-149250891D01*
X81354758Y-149391060D01*
X81531766Y-149608093D01*
X81747558Y-149786612D01*
X81993915Y-149919817D01*
X82261453Y-150002633D01*
X82539982Y-150031908D01*
X82818892Y-150006525D01*
X83087560Y-149927452D01*
X83335753Y-149797700D01*
X83554017Y-149622211D01*
X83734038Y-149407671D01*
X83820228Y-149250891D01*
X83894758Y-149391060D01*
X84071766Y-149608093D01*
X84287558Y-149786612D01*
X84533915Y-149919817D01*
X84801453Y-150002633D01*
X85079982Y-150031908D01*
X85358892Y-150006525D01*
X85627560Y-149927452D01*
X85875753Y-149797700D01*
X86094017Y-149622211D01*
X86274038Y-149407671D01*
X86360228Y-149250891D01*
X86434758Y-149391060D01*
X86611766Y-149608093D01*
X86827558Y-149786612D01*
X87073915Y-149919817D01*
X87341453Y-150002633D01*
X87619982Y-150031908D01*
X87898892Y-150006525D01*
X88167560Y-149927452D01*
X88415753Y-149797700D01*
X88634017Y-149622211D01*
X88814038Y-149407671D01*
X88900228Y-149250891D01*
X88974758Y-149391060D01*
X89151766Y-149608093D01*
X89367558Y-149786612D01*
X89613915Y-149919817D01*
X89881453Y-150002633D01*
X90159982Y-150031908D01*
X90438892Y-150006525D01*
X90707560Y-149927452D01*
X90955753Y-149797700D01*
X91174017Y-149622211D01*
X91354038Y-149407671D01*
X91440228Y-149250891D01*
X91514758Y-149391060D01*
X91691766Y-149608093D01*
X91907558Y-149786612D01*
X92153915Y-149919817D01*
X92421453Y-150002633D01*
X92699982Y-150031908D01*
X92978892Y-150006525D01*
X93247560Y-149927452D01*
X93495753Y-149797700D01*
X93714017Y-149622211D01*
X93894038Y-149407671D01*
X93980228Y-149250891D01*
X94054758Y-149391060D01*
X94231766Y-149608093D01*
X94447558Y-149786612D01*
X94693915Y-149919817D01*
X94961453Y-150002633D01*
X95239982Y-150031908D01*
X95518892Y-150006525D01*
X95669001Y-149962346D01*
X95669001Y-151903961D01*
X92796800Y-154776162D01*
X92720018Y-154768092D01*
X92441108Y-154793475D01*
X92172440Y-154872548D01*
X91924247Y-155002300D01*
X91705983Y-155177789D01*
X91525962Y-155392329D01*
X91439772Y-155549109D01*
X91365242Y-155408940D01*
X91188234Y-155191907D01*
X90972442Y-155013388D01*
X90726085Y-154880183D01*
X90458547Y-154797367D01*
X90180018Y-154768092D01*
X89901108Y-154793475D01*
X89632440Y-154872548D01*
X89384247Y-155002300D01*
X89165983Y-155177789D01*
X88985962Y-155392329D01*
X88899344Y-155549888D01*
X88782385Y-155354869D01*
X88593414Y-155146481D01*
X88367420Y-154978963D01*
X88113087Y-154858754D01*
X87979039Y-154818096D01*
X87757000Y-154940085D01*
X87757000Y-156083000D01*
X87777000Y-156083000D01*
X87777000Y-156337000D01*
X87757000Y-156337000D01*
X87757000Y-156357000D01*
X87503000Y-156357000D01*
X87503000Y-156337000D01*
X85217000Y-156337000D01*
X85217000Y-156357000D01*
X84963000Y-156357000D01*
X84963000Y-156337000D01*
X84943000Y-156337000D01*
X84943000Y-156083000D01*
X84963000Y-156083000D01*
X84963000Y-154940085D01*
X85217000Y-154940085D01*
X85217000Y-156083000D01*
X87503000Y-156083000D01*
X87503000Y-154940085D01*
X87280961Y-154818096D01*
X87146913Y-154858754D01*
X86892580Y-154978963D01*
X86666586Y-155146481D01*
X86477615Y-155354869D01*
X86360000Y-155550982D01*
X86242385Y-155354869D01*
X86053414Y-155146481D01*
X85827420Y-154978963D01*
X85573087Y-154858754D01*
X85439039Y-154818096D01*
X85217000Y-154940085D01*
X84963000Y-154940085D01*
X84740961Y-154818096D01*
X84606913Y-154858754D01*
X84352580Y-154978963D01*
X84126586Y-155146481D01*
X83937615Y-155354869D01*
X83820407Y-155550304D01*
X83745242Y-155408940D01*
X83568234Y-155191907D01*
X83352442Y-155013388D01*
X83106085Y-154880183D01*
X82838547Y-154797367D01*
X82560018Y-154768092D01*
X82281108Y-154793475D01*
X82012440Y-154872548D01*
X81764247Y-155002300D01*
X81545983Y-155177789D01*
X81365962Y-155392329D01*
X81279772Y-155549109D01*
X81205242Y-155408940D01*
X81028234Y-155191907D01*
X80812442Y-155013388D01*
X80566085Y-154880183D01*
X80298547Y-154797367D01*
X80020018Y-154768092D01*
X79741108Y-154793475D01*
X79472440Y-154872548D01*
X79224247Y-155002300D01*
X79005983Y-155177789D01*
X78898924Y-155305377D01*
X78846894Y-155137366D01*
X78748100Y-154987441D01*
X78611450Y-154870975D01*
X78447763Y-154797190D01*
X78270000Y-154771928D01*
X76670000Y-154771928D01*
X76568879Y-154779992D01*
X76397366Y-154833106D01*
X76247441Y-154931900D01*
X76130975Y-155068550D01*
X76057190Y-155232237D01*
X76031928Y-155410000D01*
X76031928Y-156053592D01*
X73772353Y-153794017D01*
X74010130Y-153758787D01*
X74276292Y-153663603D01*
X74401514Y-153596671D01*
X74473097Y-153352702D01*
X73660000Y-152539605D01*
X73645858Y-152553748D01*
X73466253Y-152374143D01*
X73480395Y-152360000D01*
X73839605Y-152360000D01*
X74652702Y-153173097D01*
X74896671Y-153101514D01*
X75017571Y-152846004D01*
X75086300Y-152571816D01*
X75100217Y-152289488D01*
X75058787Y-152009870D01*
X74963603Y-151743708D01*
X74896671Y-151618486D01*
X74652702Y-151546903D01*
X73839605Y-152360000D01*
X73480395Y-152360000D01*
X73466253Y-152345858D01*
X73645858Y-152166253D01*
X73660000Y-152180395D01*
X74473097Y-151367298D01*
X74401514Y-151123329D01*
X74370589Y-151108696D01*
X74547749Y-150996267D01*
X74751544Y-150802195D01*
X74913762Y-150572236D01*
X75028225Y-150315148D01*
X75090573Y-150040723D01*
X75095061Y-149719291D01*
X75040400Y-149443233D01*
X74933160Y-149183049D01*
X74777426Y-148948650D01*
X74579129Y-148748964D01*
X74345823Y-148591597D01*
X74086394Y-148482543D01*
X73810724Y-148425956D01*
X73529313Y-148423991D01*
X73252880Y-148476724D01*
X73240999Y-148481524D01*
X73240999Y-145712217D01*
X76112008Y-142841208D01*
X76233112Y-143068971D01*
G36*
X92837000Y-124333000D02*
X92857000Y-124333000D01*
X92857000Y-124587000D01*
X92837000Y-124587000D01*
X92837000Y-125729915D01*
X93059039Y-125851904D01*
X93193087Y-125811246D01*
X93447420Y-125691037D01*
X93673414Y-125523519D01*
X93862385Y-125315131D01*
X94007070Y-125073881D01*
X94101909Y-124809040D01*
X93980625Y-124587002D01*
X94029964Y-124587002D01*
X97193012Y-127750050D01*
X97193012Y-138949950D01*
X95382296Y-140760666D01*
X95260367Y-140747851D01*
X94971739Y-140774118D01*
X94693709Y-140855947D01*
X94436869Y-140990220D01*
X94211000Y-141171823D01*
X94024706Y-141393839D01*
X93980502Y-141474247D01*
X93946888Y-141411029D01*
X93763713Y-141186433D01*
X93540401Y-141001694D01*
X93285461Y-140863848D01*
X93008601Y-140778146D01*
X92720367Y-140747851D01*
X92431739Y-140774118D01*
X92153709Y-140855947D01*
X91896869Y-140990220D01*
X91671000Y-141171823D01*
X91484706Y-141393839D01*
X91440502Y-141474247D01*
X91406888Y-141411029D01*
X91223713Y-141186433D01*
X91000401Y-141001694D01*
X90745461Y-140863848D01*
X90468601Y-140778146D01*
X90180367Y-140747851D01*
X89891739Y-140774118D01*
X89613709Y-140855947D01*
X89356869Y-140990220D01*
X89131000Y-141171823D01*
X88944706Y-141393839D01*
X88900502Y-141474247D01*
X88866888Y-141411029D01*
X88683713Y-141186433D01*
X88460401Y-141001694D01*
X88205461Y-140863848D01*
X87928601Y-140778146D01*
X87640367Y-140747851D01*
X87351739Y-140774118D01*
X87073709Y-140855947D01*
X86816869Y-140990220D01*
X86591000Y-141171823D01*
X86404706Y-141393839D01*
X86360502Y-141474247D01*
X86326888Y-141411029D01*
X86143713Y-141186433D01*
X85920401Y-141001694D01*
X85665461Y-140863848D01*
X85388601Y-140778146D01*
X85100367Y-140747851D01*
X84811739Y-140774118D01*
X84533709Y-140855947D01*
X84276869Y-140990220D01*
X84051000Y-141171823D01*
X83864706Y-141393839D01*
X83820502Y-141474247D01*
X83786888Y-141411029D01*
X83603713Y-141186433D01*
X83380401Y-141001694D01*
X83125461Y-140863848D01*
X82848601Y-140778146D01*
X82560367Y-140747851D01*
X82271739Y-140774118D01*
X81993709Y-140855947D01*
X81736869Y-140990220D01*
X81511000Y-141171823D01*
X81324706Y-141393839D01*
X81280502Y-141474247D01*
X81246888Y-141411029D01*
X81063713Y-141186433D01*
X80840401Y-141001694D01*
X80585461Y-140863848D01*
X80308601Y-140778146D01*
X80020367Y-140747851D01*
X79731739Y-140774118D01*
X79453709Y-140855947D01*
X79196869Y-140990220D01*
X78971000Y-141171823D01*
X78784706Y-141393839D01*
X78740502Y-141474247D01*
X78706888Y-141411029D01*
X78523713Y-141186433D01*
X78300401Y-141001694D01*
X78073959Y-140879257D01*
X79469215Y-139484001D01*
X86258499Y-139484001D01*
X86346100Y-139475412D01*
X86433713Y-139467747D01*
X86438522Y-139466350D01*
X86443507Y-139465861D01*
X86527738Y-139440430D01*
X86612226Y-139415884D01*
X86616673Y-139413579D01*
X86621469Y-139412131D01*
X86699124Y-139370841D01*
X86777268Y-139330335D01*
X86781187Y-139327207D01*
X86785604Y-139324858D01*
X86853746Y-139269283D01*
X86922549Y-139214358D01*
X86929519Y-139207485D01*
X86929663Y-139207367D01*
X86929773Y-139207234D01*
X86932018Y-139205020D01*
X87543200Y-138593838D01*
X87619982Y-138601908D01*
X87898892Y-138576525D01*
X88167560Y-138497452D01*
X88415753Y-138367700D01*
X88634017Y-138192211D01*
X88814038Y-137977671D01*
X88900228Y-137820891D01*
X88974758Y-137961060D01*
X89151766Y-138178093D01*
X89367558Y-138356612D01*
X89613915Y-138489817D01*
X89881453Y-138572633D01*
X90159982Y-138601908D01*
X90438892Y-138576525D01*
X90707560Y-138497452D01*
X90955753Y-138367700D01*
X91174017Y-138192211D01*
X91354038Y-137977671D01*
X91440228Y-137820891D01*
X91514758Y-137961060D01*
X91691766Y-138178093D01*
X91907558Y-138356612D01*
X92153915Y-138489817D01*
X92421453Y-138572633D01*
X92699982Y-138601908D01*
X92978892Y-138576525D01*
X93247560Y-138497452D01*
X93495753Y-138367700D01*
X93714017Y-138192211D01*
X93894038Y-137977671D01*
X93980656Y-137820112D01*
X94097615Y-138015131D01*
X94286586Y-138223519D01*
X94512580Y-138391037D01*
X94766913Y-138511246D01*
X94900961Y-138551904D01*
X95123000Y-138429915D01*
X95123000Y-137287000D01*
X95377000Y-137287000D01*
X95377000Y-138429915D01*
X95599039Y-138551904D01*
X95733087Y-138511246D01*
X95987420Y-138391037D01*
X96213414Y-138223519D01*
X96402385Y-138015131D01*
X96547070Y-137773881D01*
X96641909Y-137509040D01*
X96520624Y-137287000D01*
X95377000Y-137287000D01*
X95123000Y-137287000D01*
X95103000Y-137287000D01*
X95103000Y-137033000D01*
X95123000Y-137033000D01*
X95123000Y-135890085D01*
X95377000Y-135890085D01*
X95377000Y-137033000D01*
X96520624Y-137033000D01*
X96641909Y-136810960D01*
X96547070Y-136546119D01*
X96402385Y-136304869D01*
X96213414Y-136096481D01*
X95987420Y-135928963D01*
X95733087Y-135808754D01*
X95599039Y-135768096D01*
X95377000Y-135890085D01*
X95123000Y-135890085D01*
X94900961Y-135768096D01*
X94766913Y-135808754D01*
X94512580Y-135928963D01*
X94286586Y-136096481D01*
X94097615Y-136304869D01*
X93980407Y-136500304D01*
X93905242Y-136358940D01*
X93728234Y-136141907D01*
X93512442Y-135963388D01*
X93266085Y-135830183D01*
X92998547Y-135747367D01*
X92720018Y-135718092D01*
X92441108Y-135743475D01*
X92172440Y-135822548D01*
X91924247Y-135952300D01*
X91705983Y-136127789D01*
X91525962Y-136342329D01*
X91439772Y-136499109D01*
X91365242Y-136358940D01*
X91188234Y-136141907D01*
X90972442Y-135963388D01*
X90726085Y-135830183D01*
X90458547Y-135747367D01*
X90180018Y-135718092D01*
X89901108Y-135743475D01*
X89632440Y-135822548D01*
X89384247Y-135952300D01*
X89165983Y-136127789D01*
X88985962Y-136342329D01*
X88899772Y-136499109D01*
X88825242Y-136358940D01*
X88648234Y-136141907D01*
X88432442Y-135963388D01*
X88186085Y-135830183D01*
X87918547Y-135747367D01*
X87640018Y-135718092D01*
X87361108Y-135743475D01*
X87092440Y-135822548D01*
X86844247Y-135952300D01*
X86625983Y-136127789D01*
X86445962Y-136342329D01*
X86359772Y-136499109D01*
X86285242Y-136358940D01*
X86108234Y-136141907D01*
X85892442Y-135963388D01*
X85646085Y-135830183D01*
X85378547Y-135747367D01*
X85100018Y-135718092D01*
X84821108Y-135743475D01*
X84552440Y-135822548D01*
X84304247Y-135952300D01*
X84085983Y-136127789D01*
X83905962Y-136342329D01*
X83819772Y-136499109D01*
X83745242Y-136358940D01*
X83568234Y-136141907D01*
X83352442Y-135963388D01*
X83106085Y-135830183D01*
X82838547Y-135747367D01*
X82560018Y-135718092D01*
X82281108Y-135743475D01*
X82012440Y-135822548D01*
X81764247Y-135952300D01*
X81545983Y-136127789D01*
X81365962Y-136342329D01*
X81279772Y-136499109D01*
X81205242Y-136358940D01*
X81028234Y-136141907D01*
X80812442Y-135963388D01*
X80566085Y-135830183D01*
X80298547Y-135747367D01*
X80020018Y-135718092D01*
X79741108Y-135743475D01*
X79472440Y-135822548D01*
X79224247Y-135952300D01*
X79005983Y-136127789D01*
X78898924Y-136255377D01*
X78846894Y-136087366D01*
X78748100Y-135937441D01*
X78611450Y-135820975D01*
X78447763Y-135747190D01*
X78270000Y-135721928D01*
X76670000Y-135721928D01*
X76568879Y-135729992D01*
X76397366Y-135783106D01*
X76247441Y-135881900D01*
X76130975Y-136018550D01*
X76057190Y-136182237D01*
X76053600Y-136207500D01*
X76035000Y-136207500D01*
X75947399Y-136216089D01*
X75859786Y-136223754D01*
X75854977Y-136225151D01*
X75849992Y-136225640D01*
X75765729Y-136251081D01*
X75681272Y-136275618D01*
X75676829Y-136277921D01*
X75672030Y-136279370D01*
X75594358Y-136320669D01*
X75516231Y-136361166D01*
X75512312Y-136364294D01*
X75507895Y-136366643D01*
X75439753Y-136422218D01*
X75370950Y-136477143D01*
X75363980Y-136484016D01*
X75363836Y-136484134D01*
X75363726Y-136484267D01*
X75361481Y-136486481D01*
X66636481Y-145211481D01*
X66580626Y-145279479D01*
X66524079Y-145346869D01*
X66521667Y-145351257D01*
X66518487Y-145355128D01*
X66476899Y-145432690D01*
X66434524Y-145509770D01*
X66433010Y-145514543D01*
X66430642Y-145518959D01*
X66404920Y-145603091D01*
X66378314Y-145686964D01*
X66377755Y-145691945D01*
X66376292Y-145696731D01*
X66367404Y-145784233D01*
X66357593Y-145871701D01*
X66357525Y-145881493D01*
X66357506Y-145881675D01*
X66357522Y-145881845D01*
X66357500Y-145885000D01*
X66357500Y-148723859D01*
X66256433Y-148806287D01*
X66228641Y-148839882D01*
X66196894Y-148737366D01*
X66098100Y-148587441D01*
X65961450Y-148470975D01*
X65797763Y-148397190D01*
X65620000Y-148371928D01*
X63920000Y-148371928D01*
X63818879Y-148379992D01*
X63647366Y-148433106D01*
X63497441Y-148531900D01*
X63411988Y-148632162D01*
X63411988Y-147485050D01*
X67183267Y-143713771D01*
X67282081Y-143724855D01*
X67302815Y-143725000D01*
X67317185Y-143725000D01*
X67605623Y-143696718D01*
X67883075Y-143612951D01*
X68138971Y-143476888D01*
X68363567Y-143293713D01*
X68548306Y-143070401D01*
X68686152Y-142815461D01*
X68771854Y-142538601D01*
X68802149Y-142250367D01*
X68775882Y-141961739D01*
X68694053Y-141683709D01*
X68559780Y-141426869D01*
X68378177Y-141201000D01*
X68156161Y-141014706D01*
X68075753Y-140970502D01*
X68138971Y-140936888D01*
X68363567Y-140753713D01*
X68548306Y-140530401D01*
X68686152Y-140275461D01*
X68771854Y-139998601D01*
X68802149Y-139710367D01*
X68775882Y-139421739D01*
X68694053Y-139143709D01*
X68559780Y-138886869D01*
X68378177Y-138661000D01*
X68328349Y-138619189D01*
X68432634Y-138586894D01*
X68582559Y-138488100D01*
X68699025Y-138351450D01*
X68772810Y-138187763D01*
X68798072Y-138010000D01*
X68798072Y-137365396D01*
X71643696Y-134519772D01*
X72527249Y-134519772D01*
X72598832Y-134763741D01*
X72854342Y-134884641D01*
X73128530Y-134953370D01*
X73410858Y-134967287D01*
X73690476Y-134925857D01*
X73956638Y-134830673D01*
X74081860Y-134763741D01*
X74153443Y-134519772D01*
X73340346Y-133706675D01*
X72527249Y-134519772D01*
X71643696Y-134519772D01*
X72032361Y-134131107D01*
X72036743Y-134143362D01*
X72103675Y-134268584D01*
X72347644Y-134340167D01*
X73160741Y-133527070D01*
X73519951Y-133527070D01*
X74333048Y-134340167D01*
X74577017Y-134268584D01*
X74697917Y-134013074D01*
X74766646Y-133738886D01*
X74780563Y-133456558D01*
X74739133Y-133176940D01*
X74643949Y-132910778D01*
X74577017Y-132785556D01*
X74333048Y-132713973D01*
X73519951Y-133527070D01*
X73160741Y-133527070D01*
X73146599Y-133512928D01*
X73326204Y-133333323D01*
X73340346Y-133347465D01*
X74153443Y-132534368D01*
X74081860Y-132290399D01*
X74050935Y-132275766D01*
X74228095Y-132163337D01*
X74431890Y-131969265D01*
X74594108Y-131739306D01*
X74708571Y-131482218D01*
X74770919Y-131207793D01*
X74775407Y-130886361D01*
X74720746Y-130610303D01*
X74613506Y-130350119D01*
X74457772Y-130115720D01*
X74259475Y-129916034D01*
X74026169Y-129758667D01*
X73766740Y-129649613D01*
X73491070Y-129593026D01*
X73209659Y-129591061D01*
X72933226Y-129643794D01*
X72672300Y-129749215D01*
X72436819Y-129903309D01*
X72235754Y-130100207D01*
X72076762Y-130332409D01*
X71965899Y-130591070D01*
X71962013Y-130609351D01*
X66899436Y-135671928D01*
X66460000Y-135671928D01*
X66358879Y-135679992D01*
X66187366Y-135733106D01*
X66037441Y-135831900D01*
X66035544Y-135834125D01*
X65961450Y-135770975D01*
X65797763Y-135697190D01*
X65722500Y-135686494D01*
X65722500Y-134925836D01*
X76031928Y-124616408D01*
X76031928Y-125260000D01*
X76039992Y-125361121D01*
X76093106Y-125532634D01*
X76191900Y-125682559D01*
X76328550Y-125799025D01*
X76492237Y-125872810D01*
X76670000Y-125898072D01*
X78270000Y-125898072D01*
X78371121Y-125890008D01*
X78542634Y-125836894D01*
X78692559Y-125738100D01*
X78809025Y-125601450D01*
X78882810Y-125437763D01*
X78894097Y-125358339D01*
X78991766Y-125478093D01*
X79207558Y-125656612D01*
X79453915Y-125789817D01*
X79721453Y-125872633D01*
X79999982Y-125901908D01*
X80278892Y-125876525D01*
X80547560Y-125797452D01*
X80795753Y-125667700D01*
X81014017Y-125492211D01*
X81194038Y-125277671D01*
X81280228Y-125120891D01*
X81354758Y-125261060D01*
X81531766Y-125478093D01*
X81747558Y-125656612D01*
X81993915Y-125789817D01*
X82261453Y-125872633D01*
X82539982Y-125901908D01*
X82818892Y-125876525D01*
X83087560Y-125797452D01*
X83335753Y-125667700D01*
X83554017Y-125492211D01*
X83734038Y-125277671D01*
X83820228Y-125120891D01*
X83894758Y-125261060D01*
X84071766Y-125478093D01*
X84287558Y-125656612D01*
X84533915Y-125789817D01*
X84801453Y-125872633D01*
X85079982Y-125901908D01*
X85358892Y-125876525D01*
X85627560Y-125797452D01*
X85875753Y-125667700D01*
X86094017Y-125492211D01*
X86274038Y-125277671D01*
X86360228Y-125120891D01*
X86434758Y-125261060D01*
X86611766Y-125478093D01*
X86677500Y-125532473D01*
X86677500Y-128466368D01*
X86625983Y-128507789D01*
X86445962Y-128722329D01*
X86359772Y-128879109D01*
X86285242Y-128738940D01*
X86108234Y-128521907D01*
X85892442Y-128343388D01*
X85646085Y-128210183D01*
X85378547Y-128127367D01*
X85100018Y-128098092D01*
X84821108Y-128123475D01*
X84552440Y-128202548D01*
X84304247Y-128332300D01*
X84085983Y-128507789D01*
X83905962Y-128722329D01*
X83819772Y-128879109D01*
X83745242Y-128738940D01*
X83568234Y-128521907D01*
X83352442Y-128343388D01*
X83106085Y-128210183D01*
X82838547Y-128127367D01*
X82560018Y-128098092D01*
X82281108Y-128123475D01*
X82012440Y-128202548D01*
X81764247Y-128332300D01*
X81545983Y-128507789D01*
X81365962Y-128722329D01*
X81279772Y-128879109D01*
X81205242Y-128738940D01*
X81028234Y-128521907D01*
X80812442Y-128343388D01*
X80566085Y-128210183D01*
X80298547Y-128127367D01*
X80020018Y-128098092D01*
X79741108Y-128123475D01*
X79472440Y-128202548D01*
X79224247Y-128332300D01*
X79005983Y-128507789D01*
X78825962Y-128722329D01*
X78739772Y-128879109D01*
X78665242Y-128738940D01*
X78488234Y-128521907D01*
X78272442Y-128343388D01*
X78026085Y-128210183D01*
X77758547Y-128127367D01*
X77480018Y-128098092D01*
X77201108Y-128123475D01*
X76932440Y-128202548D01*
X76684247Y-128332300D01*
X76465983Y-128507789D01*
X76285962Y-128722329D01*
X76151041Y-128967750D01*
X76066358Y-129234704D01*
X76035140Y-129513021D01*
X76035000Y-129533057D01*
X76035000Y-129546943D01*
X76062329Y-129825669D01*
X76143276Y-130093779D01*
X76274758Y-130341060D01*
X76451766Y-130558093D01*
X76667558Y-130736612D01*
X76913915Y-130869817D01*
X77181453Y-130952633D01*
X77459982Y-130981908D01*
X77738892Y-130956525D01*
X78007560Y-130877452D01*
X78255753Y-130747700D01*
X78474017Y-130572211D01*
X78654038Y-130357671D01*
X78740228Y-130200891D01*
X78814758Y-130341060D01*
X78991766Y-130558093D01*
X79207558Y-130736612D01*
X79453915Y-130869817D01*
X79721453Y-130952633D01*
X79999982Y-130981908D01*
X80278892Y-130956525D01*
X80547560Y-130877452D01*
X80795753Y-130747700D01*
X81014017Y-130572211D01*
X81194038Y-130357671D01*
X81280228Y-130200891D01*
X81354758Y-130341060D01*
X81531766Y-130558093D01*
X81747558Y-130736612D01*
X81993915Y-130869817D01*
X82261453Y-130952633D01*
X82539982Y-130981908D01*
X82818892Y-130956525D01*
X83087560Y-130877452D01*
X83335753Y-130747700D01*
X83554017Y-130572211D01*
X83734038Y-130357671D01*
X83820228Y-130200891D01*
X83894758Y-130341060D01*
X84071766Y-130558093D01*
X84287558Y-130736612D01*
X84533915Y-130869817D01*
X84801453Y-130952633D01*
X85079982Y-130981908D01*
X85358892Y-130956525D01*
X85627560Y-130877452D01*
X85875753Y-130747700D01*
X86094017Y-130572211D01*
X86274038Y-130357671D01*
X86360228Y-130200891D01*
X86434758Y-130341060D01*
X86611766Y-130558093D01*
X86827558Y-130736612D01*
X87073915Y-130869817D01*
X87341453Y-130952633D01*
X87619982Y-130981908D01*
X87898892Y-130956525D01*
X88167560Y-130877452D01*
X88415753Y-130747700D01*
X88634017Y-130572211D01*
X88814038Y-130357671D01*
X88900228Y-130200891D01*
X88974758Y-130341060D01*
X89151766Y-130558093D01*
X89367558Y-130736612D01*
X89613915Y-130869817D01*
X89881453Y-130952633D01*
X90159982Y-130981908D01*
X90438892Y-130956525D01*
X90707560Y-130877452D01*
X90955753Y-130747700D01*
X91174017Y-130572211D01*
X91354038Y-130357671D01*
X91440228Y-130200891D01*
X91514758Y-130341060D01*
X91691766Y-130558093D01*
X91907558Y-130736612D01*
X92153915Y-130869817D01*
X92421453Y-130952633D01*
X92699982Y-130981908D01*
X92978892Y-130956525D01*
X93247560Y-130877452D01*
X93495753Y-130747700D01*
X93714017Y-130572211D01*
X93894038Y-130357671D01*
X93980228Y-130200891D01*
X94054758Y-130341060D01*
X94231766Y-130558093D01*
X94447558Y-130736612D01*
X94693915Y-130869817D01*
X94961453Y-130952633D01*
X95239982Y-130981908D01*
X95518892Y-130956525D01*
X95787560Y-130877452D01*
X96035753Y-130747700D01*
X96254017Y-130572211D01*
X96434038Y-130357671D01*
X96568959Y-130112250D01*
X96653642Y-129845296D01*
X96684860Y-129566979D01*
X96685000Y-129546943D01*
X96685000Y-129533057D01*
X96657671Y-129254331D01*
X96576724Y-128986221D01*
X96445242Y-128738940D01*
X96268234Y-128521907D01*
X96052442Y-128343388D01*
X95806085Y-128210183D01*
X95538547Y-128127367D01*
X95260018Y-128098092D01*
X94981108Y-128123475D01*
X94712440Y-128202548D01*
X94464247Y-128332300D01*
X94245983Y-128507789D01*
X94065962Y-128722329D01*
X93979772Y-128879109D01*
X93905242Y-128738940D01*
X93728234Y-128521907D01*
X93512442Y-128343388D01*
X93266085Y-128210183D01*
X92998547Y-128127367D01*
X92720018Y-128098092D01*
X92441108Y-128123475D01*
X92172440Y-128202548D01*
X91924247Y-128332300D01*
X91705983Y-128507789D01*
X91525962Y-128722329D01*
X91439772Y-128879109D01*
X91365242Y-128738940D01*
X91188234Y-128521907D01*
X90972442Y-128343388D01*
X90726085Y-128210183D01*
X90458547Y-128127367D01*
X90180018Y-128098092D01*
X89901108Y-128123475D01*
X89632440Y-128202548D01*
X89384247Y-128332300D01*
X89165983Y-128507789D01*
X88985962Y-128722329D01*
X88899772Y-128879109D01*
X88825242Y-128738940D01*
X88648234Y-128521907D01*
X88582500Y-128467527D01*
X88582500Y-125533632D01*
X88634017Y-125492211D01*
X88814038Y-125277671D01*
X88900228Y-125120891D01*
X88974758Y-125261060D01*
X89151766Y-125478093D01*
X89367558Y-125656612D01*
X89613915Y-125789817D01*
X89881453Y-125872633D01*
X90159982Y-125901908D01*
X90438892Y-125876525D01*
X90707560Y-125797452D01*
X90955753Y-125667700D01*
X91174017Y-125492211D01*
X91354038Y-125277671D01*
X91440656Y-125120112D01*
X91557615Y-125315131D01*
X91746586Y-125523519D01*
X91972580Y-125691037D01*
X92226913Y-125811246D01*
X92360961Y-125851904D01*
X92583000Y-125729915D01*
X92583000Y-124587000D01*
X92563000Y-124587000D01*
X92563000Y-124333000D01*
X92583000Y-124333000D01*
X92583000Y-124313000D01*
X92837000Y-124313000D01*
X92837000Y-124333000D01*
X92837000Y-124333000D01*
G37*
X92837000Y-124333000D02*
X92857000Y-124333000D01*
X92857000Y-124587000D01*
X92837000Y-124587000D01*
X92837000Y-125729915D01*
X93059039Y-125851904D01*
X93193087Y-125811246D01*
X93447420Y-125691037D01*
X93673414Y-125523519D01*
X93862385Y-125315131D01*
X94007070Y-125073881D01*
X94101909Y-124809040D01*
X93980625Y-124587002D01*
X94029964Y-124587002D01*
X97193012Y-127750050D01*
X97193012Y-138949950D01*
X95382296Y-140760666D01*
X95260367Y-140747851D01*
X94971739Y-140774118D01*
X94693709Y-140855947D01*
X94436869Y-140990220D01*
X94211000Y-141171823D01*
X94024706Y-141393839D01*
X93980502Y-141474247D01*
X93946888Y-141411029D01*
X93763713Y-141186433D01*
X93540401Y-141001694D01*
X93285461Y-140863848D01*
X93008601Y-140778146D01*
X92720367Y-140747851D01*
X92431739Y-140774118D01*
X92153709Y-140855947D01*
X91896869Y-140990220D01*
X91671000Y-141171823D01*
X91484706Y-141393839D01*
X91440502Y-141474247D01*
X91406888Y-141411029D01*
X91223713Y-141186433D01*
X91000401Y-141001694D01*
X90745461Y-140863848D01*
X90468601Y-140778146D01*
X90180367Y-140747851D01*
X89891739Y-140774118D01*
X89613709Y-140855947D01*
X89356869Y-140990220D01*
X89131000Y-141171823D01*
X88944706Y-141393839D01*
X88900502Y-141474247D01*
X88866888Y-141411029D01*
X88683713Y-141186433D01*
X88460401Y-141001694D01*
X88205461Y-140863848D01*
X87928601Y-140778146D01*
X87640367Y-140747851D01*
X87351739Y-140774118D01*
X87073709Y-140855947D01*
X86816869Y-140990220D01*
X86591000Y-141171823D01*
X86404706Y-141393839D01*
X86360502Y-141474247D01*
X86326888Y-141411029D01*
X86143713Y-141186433D01*
X85920401Y-141001694D01*
X85665461Y-140863848D01*
X85388601Y-140778146D01*
X85100367Y-140747851D01*
X84811739Y-140774118D01*
X84533709Y-140855947D01*
X84276869Y-140990220D01*
X84051000Y-141171823D01*
X83864706Y-141393839D01*
X83820502Y-141474247D01*
X83786888Y-141411029D01*
X83603713Y-141186433D01*
X83380401Y-141001694D01*
X83125461Y-140863848D01*
X82848601Y-140778146D01*
X82560367Y-140747851D01*
X82271739Y-140774118D01*
X81993709Y-140855947D01*
X81736869Y-140990220D01*
X81511000Y-141171823D01*
X81324706Y-141393839D01*
X81280502Y-141474247D01*
X81246888Y-141411029D01*
X81063713Y-141186433D01*
X80840401Y-141001694D01*
X80585461Y-140863848D01*
X80308601Y-140778146D01*
X80020367Y-140747851D01*
X79731739Y-140774118D01*
X79453709Y-140855947D01*
X79196869Y-140990220D01*
X78971000Y-141171823D01*
X78784706Y-141393839D01*
X78740502Y-141474247D01*
X78706888Y-141411029D01*
X78523713Y-141186433D01*
X78300401Y-141001694D01*
X78073959Y-140879257D01*
X79469215Y-139484001D01*
X86258499Y-139484001D01*
X86346100Y-139475412D01*
X86433713Y-139467747D01*
X86438522Y-139466350D01*
X86443507Y-139465861D01*
X86527738Y-139440430D01*
X86612226Y-139415884D01*
X86616673Y-139413579D01*
X86621469Y-139412131D01*
X86699124Y-139370841D01*
X86777268Y-139330335D01*
X86781187Y-139327207D01*
X86785604Y-139324858D01*
X86853746Y-139269283D01*
X86922549Y-139214358D01*
X86929519Y-139207485D01*
X86929663Y-139207367D01*
X86929773Y-139207234D01*
X86932018Y-139205020D01*
X87543200Y-138593838D01*
X87619982Y-138601908D01*
X87898892Y-138576525D01*
X88167560Y-138497452D01*
X88415753Y-138367700D01*
X88634017Y-138192211D01*
X88814038Y-137977671D01*
X88900228Y-137820891D01*
X88974758Y-137961060D01*
X89151766Y-138178093D01*
X89367558Y-138356612D01*
X89613915Y-138489817D01*
X89881453Y-138572633D01*
X90159982Y-138601908D01*
X90438892Y-138576525D01*
X90707560Y-138497452D01*
X90955753Y-138367700D01*
X91174017Y-138192211D01*
X91354038Y-137977671D01*
X91440228Y-137820891D01*
X91514758Y-137961060D01*
X91691766Y-138178093D01*
X91907558Y-138356612D01*
X92153915Y-138489817D01*
X92421453Y-138572633D01*
X92699982Y-138601908D01*
X92978892Y-138576525D01*
X93247560Y-138497452D01*
X93495753Y-138367700D01*
X93714017Y-138192211D01*
X93894038Y-137977671D01*
X93980656Y-137820112D01*
X94097615Y-138015131D01*
X94286586Y-138223519D01*
X94512580Y-138391037D01*
X94766913Y-138511246D01*
X94900961Y-138551904D01*
X95123000Y-138429915D01*
X95123000Y-137287000D01*
X95377000Y-137287000D01*
X95377000Y-138429915D01*
X95599039Y-138551904D01*
X95733087Y-138511246D01*
X95987420Y-138391037D01*
X96213414Y-138223519D01*
X96402385Y-138015131D01*
X96547070Y-137773881D01*
X96641909Y-137509040D01*
X96520624Y-137287000D01*
X95377000Y-137287000D01*
X95123000Y-137287000D01*
X95103000Y-137287000D01*
X95103000Y-137033000D01*
X95123000Y-137033000D01*
X95123000Y-135890085D01*
X95377000Y-135890085D01*
X95377000Y-137033000D01*
X96520624Y-137033000D01*
X96641909Y-136810960D01*
X96547070Y-136546119D01*
X96402385Y-136304869D01*
X96213414Y-136096481D01*
X95987420Y-135928963D01*
X95733087Y-135808754D01*
X95599039Y-135768096D01*
X95377000Y-135890085D01*
X95123000Y-135890085D01*
X94900961Y-135768096D01*
X94766913Y-135808754D01*
X94512580Y-135928963D01*
X94286586Y-136096481D01*
X94097615Y-136304869D01*
X93980407Y-136500304D01*
X93905242Y-136358940D01*
X93728234Y-136141907D01*
X93512442Y-135963388D01*
X93266085Y-135830183D01*
X92998547Y-135747367D01*
X92720018Y-135718092D01*
X92441108Y-135743475D01*
X92172440Y-135822548D01*
X91924247Y-135952300D01*
X91705983Y-136127789D01*
X91525962Y-136342329D01*
X91439772Y-136499109D01*
X91365242Y-136358940D01*
X91188234Y-136141907D01*
X90972442Y-135963388D01*
X90726085Y-135830183D01*
X90458547Y-135747367D01*
X90180018Y-135718092D01*
X89901108Y-135743475D01*
X89632440Y-135822548D01*
X89384247Y-135952300D01*
X89165983Y-136127789D01*
X88985962Y-136342329D01*
X88899772Y-136499109D01*
X88825242Y-136358940D01*
X88648234Y-136141907D01*
X88432442Y-135963388D01*
X88186085Y-135830183D01*
X87918547Y-135747367D01*
X87640018Y-135718092D01*
X87361108Y-135743475D01*
X87092440Y-135822548D01*
X86844247Y-135952300D01*
X86625983Y-136127789D01*
X86445962Y-136342329D01*
X86359772Y-136499109D01*
X86285242Y-136358940D01*
X86108234Y-136141907D01*
X85892442Y-135963388D01*
X85646085Y-135830183D01*
X85378547Y-135747367D01*
X85100018Y-135718092D01*
X84821108Y-135743475D01*
X84552440Y-135822548D01*
X84304247Y-135952300D01*
X84085983Y-136127789D01*
X83905962Y-136342329D01*
X83819772Y-136499109D01*
X83745242Y-136358940D01*
X83568234Y-136141907D01*
X83352442Y-135963388D01*
X83106085Y-135830183D01*
X82838547Y-135747367D01*
X82560018Y-135718092D01*
X82281108Y-135743475D01*
X82012440Y-135822548D01*
X81764247Y-135952300D01*
X81545983Y-136127789D01*
X81365962Y-136342329D01*
X81279772Y-136499109D01*
X81205242Y-136358940D01*
X81028234Y-136141907D01*
X80812442Y-135963388D01*
X80566085Y-135830183D01*
X80298547Y-135747367D01*
X80020018Y-135718092D01*
X79741108Y-135743475D01*
X79472440Y-135822548D01*
X79224247Y-135952300D01*
X79005983Y-136127789D01*
X78898924Y-136255377D01*
X78846894Y-136087366D01*
X78748100Y-135937441D01*
X78611450Y-135820975D01*
X78447763Y-135747190D01*
X78270000Y-135721928D01*
X76670000Y-135721928D01*
X76568879Y-135729992D01*
X76397366Y-135783106D01*
X76247441Y-135881900D01*
X76130975Y-136018550D01*
X76057190Y-136182237D01*
X76053600Y-136207500D01*
X76035000Y-136207500D01*
X75947399Y-136216089D01*
X75859786Y-136223754D01*
X75854977Y-136225151D01*
X75849992Y-136225640D01*
X75765729Y-136251081D01*
X75681272Y-136275618D01*
X75676829Y-136277921D01*
X75672030Y-136279370D01*
X75594358Y-136320669D01*
X75516231Y-136361166D01*
X75512312Y-136364294D01*
X75507895Y-136366643D01*
X75439753Y-136422218D01*
X75370950Y-136477143D01*
X75363980Y-136484016D01*
X75363836Y-136484134D01*
X75363726Y-136484267D01*
X75361481Y-136486481D01*
X66636481Y-145211481D01*
X66580626Y-145279479D01*
X66524079Y-145346869D01*
X66521667Y-145351257D01*
X66518487Y-145355128D01*
X66476899Y-145432690D01*
X66434524Y-145509770D01*
X66433010Y-145514543D01*
X66430642Y-145518959D01*
X66404920Y-145603091D01*
X66378314Y-145686964D01*
X66377755Y-145691945D01*
X66376292Y-145696731D01*
X66367404Y-145784233D01*
X66357593Y-145871701D01*
X66357525Y-145881493D01*
X66357506Y-145881675D01*
X66357522Y-145881845D01*
X66357500Y-145885000D01*
X66357500Y-148723859D01*
X66256433Y-148806287D01*
X66228641Y-148839882D01*
X66196894Y-148737366D01*
X66098100Y-148587441D01*
X65961450Y-148470975D01*
X65797763Y-148397190D01*
X65620000Y-148371928D01*
X63920000Y-148371928D01*
X63818879Y-148379992D01*
X63647366Y-148433106D01*
X63497441Y-148531900D01*
X63411988Y-148632162D01*
X63411988Y-147485050D01*
X67183267Y-143713771D01*
X67282081Y-143724855D01*
X67302815Y-143725000D01*
X67317185Y-143725000D01*
X67605623Y-143696718D01*
X67883075Y-143612951D01*
X68138971Y-143476888D01*
X68363567Y-143293713D01*
X68548306Y-143070401D01*
X68686152Y-142815461D01*
X68771854Y-142538601D01*
X68802149Y-142250367D01*
X68775882Y-141961739D01*
X68694053Y-141683709D01*
X68559780Y-141426869D01*
X68378177Y-141201000D01*
X68156161Y-141014706D01*
X68075753Y-140970502D01*
X68138971Y-140936888D01*
X68363567Y-140753713D01*
X68548306Y-140530401D01*
X68686152Y-140275461D01*
X68771854Y-139998601D01*
X68802149Y-139710367D01*
X68775882Y-139421739D01*
X68694053Y-139143709D01*
X68559780Y-138886869D01*
X68378177Y-138661000D01*
X68328349Y-138619189D01*
X68432634Y-138586894D01*
X68582559Y-138488100D01*
X68699025Y-138351450D01*
X68772810Y-138187763D01*
X68798072Y-138010000D01*
X68798072Y-137365396D01*
X71643696Y-134519772D01*
X72527249Y-134519772D01*
X72598832Y-134763741D01*
X72854342Y-134884641D01*
X73128530Y-134953370D01*
X73410858Y-134967287D01*
X73690476Y-134925857D01*
X73956638Y-134830673D01*
X74081860Y-134763741D01*
X74153443Y-134519772D01*
X73340346Y-133706675D01*
X72527249Y-134519772D01*
X71643696Y-134519772D01*
X72032361Y-134131107D01*
X72036743Y-134143362D01*
X72103675Y-134268584D01*
X72347644Y-134340167D01*
X73160741Y-133527070D01*
X73519951Y-133527070D01*
X74333048Y-134340167D01*
X74577017Y-134268584D01*
X74697917Y-134013074D01*
X74766646Y-133738886D01*
X74780563Y-133456558D01*
X74739133Y-133176940D01*
X74643949Y-132910778D01*
X74577017Y-132785556D01*
X74333048Y-132713973D01*
X73519951Y-133527070D01*
X73160741Y-133527070D01*
X73146599Y-133512928D01*
X73326204Y-133333323D01*
X73340346Y-133347465D01*
X74153443Y-132534368D01*
X74081860Y-132290399D01*
X74050935Y-132275766D01*
X74228095Y-132163337D01*
X74431890Y-131969265D01*
X74594108Y-131739306D01*
X74708571Y-131482218D01*
X74770919Y-131207793D01*
X74775407Y-130886361D01*
X74720746Y-130610303D01*
X74613506Y-130350119D01*
X74457772Y-130115720D01*
X74259475Y-129916034D01*
X74026169Y-129758667D01*
X73766740Y-129649613D01*
X73491070Y-129593026D01*
X73209659Y-129591061D01*
X72933226Y-129643794D01*
X72672300Y-129749215D01*
X72436819Y-129903309D01*
X72235754Y-130100207D01*
X72076762Y-130332409D01*
X71965899Y-130591070D01*
X71962013Y-130609351D01*
X66899436Y-135671928D01*
X66460000Y-135671928D01*
X66358879Y-135679992D01*
X66187366Y-135733106D01*
X66037441Y-135831900D01*
X66035544Y-135834125D01*
X65961450Y-135770975D01*
X65797763Y-135697190D01*
X65722500Y-135686494D01*
X65722500Y-134925836D01*
X76031928Y-124616408D01*
X76031928Y-125260000D01*
X76039992Y-125361121D01*
X76093106Y-125532634D01*
X76191900Y-125682559D01*
X76328550Y-125799025D01*
X76492237Y-125872810D01*
X76670000Y-125898072D01*
X78270000Y-125898072D01*
X78371121Y-125890008D01*
X78542634Y-125836894D01*
X78692559Y-125738100D01*
X78809025Y-125601450D01*
X78882810Y-125437763D01*
X78894097Y-125358339D01*
X78991766Y-125478093D01*
X79207558Y-125656612D01*
X79453915Y-125789817D01*
X79721453Y-125872633D01*
X79999982Y-125901908D01*
X80278892Y-125876525D01*
X80547560Y-125797452D01*
X80795753Y-125667700D01*
X81014017Y-125492211D01*
X81194038Y-125277671D01*
X81280228Y-125120891D01*
X81354758Y-125261060D01*
X81531766Y-125478093D01*
X81747558Y-125656612D01*
X81993915Y-125789817D01*
X82261453Y-125872633D01*
X82539982Y-125901908D01*
X82818892Y-125876525D01*
X83087560Y-125797452D01*
X83335753Y-125667700D01*
X83554017Y-125492211D01*
X83734038Y-125277671D01*
X83820228Y-125120891D01*
X83894758Y-125261060D01*
X84071766Y-125478093D01*
X84287558Y-125656612D01*
X84533915Y-125789817D01*
X84801453Y-125872633D01*
X85079982Y-125901908D01*
X85358892Y-125876525D01*
X85627560Y-125797452D01*
X85875753Y-125667700D01*
X86094017Y-125492211D01*
X86274038Y-125277671D01*
X86360228Y-125120891D01*
X86434758Y-125261060D01*
X86611766Y-125478093D01*
X86677500Y-125532473D01*
X86677500Y-128466368D01*
X86625983Y-128507789D01*
X86445962Y-128722329D01*
X86359772Y-128879109D01*
X86285242Y-128738940D01*
X86108234Y-128521907D01*
X85892442Y-128343388D01*
X85646085Y-128210183D01*
X85378547Y-128127367D01*
X85100018Y-128098092D01*
X84821108Y-128123475D01*
X84552440Y-128202548D01*
X84304247Y-128332300D01*
X84085983Y-128507789D01*
X83905962Y-128722329D01*
X83819772Y-128879109D01*
X83745242Y-128738940D01*
X83568234Y-128521907D01*
X83352442Y-128343388D01*
X83106085Y-128210183D01*
X82838547Y-128127367D01*
X82560018Y-128098092D01*
X82281108Y-128123475D01*
X82012440Y-128202548D01*
X81764247Y-128332300D01*
X81545983Y-128507789D01*
X81365962Y-128722329D01*
X81279772Y-128879109D01*
X81205242Y-128738940D01*
X81028234Y-128521907D01*
X80812442Y-128343388D01*
X80566085Y-128210183D01*
X80298547Y-128127367D01*
X80020018Y-128098092D01*
X79741108Y-128123475D01*
X79472440Y-128202548D01*
X79224247Y-128332300D01*
X79005983Y-128507789D01*
X78825962Y-128722329D01*
X78739772Y-128879109D01*
X78665242Y-128738940D01*
X78488234Y-128521907D01*
X78272442Y-128343388D01*
X78026085Y-128210183D01*
X77758547Y-128127367D01*
X77480018Y-128098092D01*
X77201108Y-128123475D01*
X76932440Y-128202548D01*
X76684247Y-128332300D01*
X76465983Y-128507789D01*
X76285962Y-128722329D01*
X76151041Y-128967750D01*
X76066358Y-129234704D01*
X76035140Y-129513021D01*
X76035000Y-129533057D01*
X76035000Y-129546943D01*
X76062329Y-129825669D01*
X76143276Y-130093779D01*
X76274758Y-130341060D01*
X76451766Y-130558093D01*
X76667558Y-130736612D01*
X76913915Y-130869817D01*
X77181453Y-130952633D01*
X77459982Y-130981908D01*
X77738892Y-130956525D01*
X78007560Y-130877452D01*
X78255753Y-130747700D01*
X78474017Y-130572211D01*
X78654038Y-130357671D01*
X78740228Y-130200891D01*
X78814758Y-130341060D01*
X78991766Y-130558093D01*
X79207558Y-130736612D01*
X79453915Y-130869817D01*
X79721453Y-130952633D01*
X79999982Y-130981908D01*
X80278892Y-130956525D01*
X80547560Y-130877452D01*
X80795753Y-130747700D01*
X81014017Y-130572211D01*
X81194038Y-130357671D01*
X81280228Y-130200891D01*
X81354758Y-130341060D01*
X81531766Y-130558093D01*
X81747558Y-130736612D01*
X81993915Y-130869817D01*
X82261453Y-130952633D01*
X82539982Y-130981908D01*
X82818892Y-130956525D01*
X83087560Y-130877452D01*
X83335753Y-130747700D01*
X83554017Y-130572211D01*
X83734038Y-130357671D01*
X83820228Y-130200891D01*
X83894758Y-130341060D01*
X84071766Y-130558093D01*
X84287558Y-130736612D01*
X84533915Y-130869817D01*
X84801453Y-130952633D01*
X85079982Y-130981908D01*
X85358892Y-130956525D01*
X85627560Y-130877452D01*
X85875753Y-130747700D01*
X86094017Y-130572211D01*
X86274038Y-130357671D01*
X86360228Y-130200891D01*
X86434758Y-130341060D01*
X86611766Y-130558093D01*
X86827558Y-130736612D01*
X87073915Y-130869817D01*
X87341453Y-130952633D01*
X87619982Y-130981908D01*
X87898892Y-130956525D01*
X88167560Y-130877452D01*
X88415753Y-130747700D01*
X88634017Y-130572211D01*
X88814038Y-130357671D01*
X88900228Y-130200891D01*
X88974758Y-130341060D01*
X89151766Y-130558093D01*
X89367558Y-130736612D01*
X89613915Y-130869817D01*
X89881453Y-130952633D01*
X90159982Y-130981908D01*
X90438892Y-130956525D01*
X90707560Y-130877452D01*
X90955753Y-130747700D01*
X91174017Y-130572211D01*
X91354038Y-130357671D01*
X91440228Y-130200891D01*
X91514758Y-130341060D01*
X91691766Y-130558093D01*
X91907558Y-130736612D01*
X92153915Y-130869817D01*
X92421453Y-130952633D01*
X92699982Y-130981908D01*
X92978892Y-130956525D01*
X93247560Y-130877452D01*
X93495753Y-130747700D01*
X93714017Y-130572211D01*
X93894038Y-130357671D01*
X93980228Y-130200891D01*
X94054758Y-130341060D01*
X94231766Y-130558093D01*
X94447558Y-130736612D01*
X94693915Y-130869817D01*
X94961453Y-130952633D01*
X95239982Y-130981908D01*
X95518892Y-130956525D01*
X95787560Y-130877452D01*
X96035753Y-130747700D01*
X96254017Y-130572211D01*
X96434038Y-130357671D01*
X96568959Y-130112250D01*
X96653642Y-129845296D01*
X96684860Y-129566979D01*
X96685000Y-129546943D01*
X96685000Y-129533057D01*
X96657671Y-129254331D01*
X96576724Y-128986221D01*
X96445242Y-128738940D01*
X96268234Y-128521907D01*
X96052442Y-128343388D01*
X95806085Y-128210183D01*
X95538547Y-128127367D01*
X95260018Y-128098092D01*
X94981108Y-128123475D01*
X94712440Y-128202548D01*
X94464247Y-128332300D01*
X94245983Y-128507789D01*
X94065962Y-128722329D01*
X93979772Y-128879109D01*
X93905242Y-128738940D01*
X93728234Y-128521907D01*
X93512442Y-128343388D01*
X93266085Y-128210183D01*
X92998547Y-128127367D01*
X92720018Y-128098092D01*
X92441108Y-128123475D01*
X92172440Y-128202548D01*
X91924247Y-128332300D01*
X91705983Y-128507789D01*
X91525962Y-128722329D01*
X91439772Y-128879109D01*
X91365242Y-128738940D01*
X91188234Y-128521907D01*
X90972442Y-128343388D01*
X90726085Y-128210183D01*
X90458547Y-128127367D01*
X90180018Y-128098092D01*
X89901108Y-128123475D01*
X89632440Y-128202548D01*
X89384247Y-128332300D01*
X89165983Y-128507789D01*
X88985962Y-128722329D01*
X88899772Y-128879109D01*
X88825242Y-128738940D01*
X88648234Y-128521907D01*
X88582500Y-128467527D01*
X88582500Y-125533632D01*
X88634017Y-125492211D01*
X88814038Y-125277671D01*
X88900228Y-125120891D01*
X88974758Y-125261060D01*
X89151766Y-125478093D01*
X89367558Y-125656612D01*
X89613915Y-125789817D01*
X89881453Y-125872633D01*
X90159982Y-125901908D01*
X90438892Y-125876525D01*
X90707560Y-125797452D01*
X90955753Y-125667700D01*
X91174017Y-125492211D01*
X91354038Y-125277671D01*
X91440656Y-125120112D01*
X91557615Y-125315131D01*
X91746586Y-125523519D01*
X91972580Y-125691037D01*
X92226913Y-125811246D01*
X92360961Y-125851904D01*
X92583000Y-125729915D01*
X92583000Y-124587000D01*
X92563000Y-124587000D01*
X92563000Y-124333000D01*
X92583000Y-124333000D01*
X92583000Y-124313000D01*
X92837000Y-124313000D01*
X92837000Y-124333000D01*
G36*
X76465983Y-115807789D02*
X76285962Y-116022329D01*
X76151041Y-116267750D01*
X76066358Y-116534704D01*
X76035140Y-116813021D01*
X76035000Y-116833057D01*
X76035000Y-116846943D01*
X76062329Y-117125669D01*
X76143276Y-117393779D01*
X76274758Y-117641060D01*
X76451766Y-117858093D01*
X76667558Y-118036612D01*
X76913915Y-118169817D01*
X77181453Y-118252633D01*
X77459982Y-118281908D01*
X77738892Y-118256525D01*
X78007560Y-118177452D01*
X78255753Y-118047700D01*
X78474017Y-117872211D01*
X78654038Y-117657671D01*
X78740656Y-117500112D01*
X78857615Y-117695131D01*
X79046586Y-117903519D01*
X79272580Y-118071037D01*
X79526913Y-118191246D01*
X79660961Y-118231904D01*
X79797214Y-118157046D01*
X64096481Y-133857779D01*
X64040626Y-133925777D01*
X63984079Y-133993167D01*
X63981667Y-133997555D01*
X63978487Y-134001426D01*
X63936899Y-134078988D01*
X63894524Y-134156068D01*
X63893010Y-134160841D01*
X63890642Y-134165257D01*
X63864920Y-134249389D01*
X63838314Y-134333262D01*
X63837755Y-134338243D01*
X63836292Y-134343029D01*
X63827404Y-134430531D01*
X63817593Y-134517999D01*
X63817525Y-134527791D01*
X63817506Y-134527973D01*
X63817522Y-134528143D01*
X63817500Y-134531298D01*
X63817500Y-135680419D01*
X63647366Y-135733106D01*
X63497441Y-135831900D01*
X63380975Y-135968550D01*
X63307190Y-136132237D01*
X63281928Y-136310000D01*
X63281928Y-138010000D01*
X63289992Y-138111121D01*
X63343106Y-138282634D01*
X63441900Y-138432559D01*
X63578550Y-138549025D01*
X63742237Y-138622810D01*
X63744776Y-138623171D01*
X63716433Y-138646287D01*
X63531694Y-138869599D01*
X63393848Y-139124539D01*
X63308146Y-139401399D01*
X63277851Y-139689633D01*
X63304118Y-139978261D01*
X63385947Y-140256291D01*
X63520220Y-140513131D01*
X63701823Y-140739000D01*
X63923839Y-140925294D01*
X64004247Y-140969498D01*
X63941029Y-141003112D01*
X63716433Y-141186287D01*
X63531694Y-141409599D01*
X63393848Y-141664539D01*
X63308146Y-141941399D01*
X63277851Y-142229633D01*
X63304118Y-142518261D01*
X63385947Y-142796291D01*
X63520220Y-143053131D01*
X63701823Y-143279000D01*
X63923839Y-143465294D01*
X64177811Y-143604916D01*
X64454066Y-143692549D01*
X64504730Y-143698232D01*
X61785969Y-146416993D01*
X61730114Y-146484991D01*
X61722000Y-146494661D01*
X61722000Y-130227606D01*
X69076904Y-122872702D01*
X72846903Y-122872702D01*
X72918486Y-123116671D01*
X73173996Y-123237571D01*
X73448184Y-123306300D01*
X73730512Y-123320217D01*
X74010130Y-123278787D01*
X74276292Y-123183603D01*
X74401514Y-123116671D01*
X74473097Y-122872702D01*
X73660000Y-122059605D01*
X72846903Y-122872702D01*
X69076904Y-122872702D01*
X69999094Y-121950512D01*
X72219783Y-121950512D01*
X72261213Y-122230130D01*
X72356397Y-122496292D01*
X72423329Y-122621514D01*
X72667298Y-122693097D01*
X73480395Y-121880000D01*
X73839605Y-121880000D01*
X74652702Y-122693097D01*
X74896671Y-122621514D01*
X75017571Y-122366004D01*
X75086300Y-122091816D01*
X75100217Y-121809488D01*
X75058787Y-121529870D01*
X74963603Y-121263708D01*
X74896671Y-121138486D01*
X74652702Y-121066903D01*
X73839605Y-121880000D01*
X73480395Y-121880000D01*
X72667298Y-121066903D01*
X72423329Y-121138486D01*
X72302429Y-121393996D01*
X72233700Y-121668184D01*
X72219783Y-121950512D01*
X69999094Y-121950512D01*
X72258135Y-119691471D01*
X72273915Y-119777453D01*
X72377512Y-120039109D01*
X72529959Y-120275660D01*
X72725448Y-120478095D01*
X72943755Y-120629822D01*
X72918486Y-120643329D01*
X72846903Y-120887298D01*
X73660000Y-121700395D01*
X74473097Y-120887298D01*
X74401514Y-120643329D01*
X74370589Y-120628696D01*
X74547749Y-120516267D01*
X74751544Y-120322195D01*
X74913762Y-120092236D01*
X75028225Y-119835148D01*
X75090573Y-119560723D01*
X75095061Y-119239291D01*
X75040400Y-118963233D01*
X74933160Y-118703049D01*
X74777426Y-118468650D01*
X74579129Y-118268964D01*
X74345823Y-118111597D01*
X74086394Y-118002543D01*
X73970793Y-117978813D01*
X76252606Y-115697000D01*
X76603777Y-115697000D01*
X76465983Y-115807789D01*
X76465983Y-115807789D01*
G37*
X76465983Y-115807789D02*
X76285962Y-116022329D01*
X76151041Y-116267750D01*
X76066358Y-116534704D01*
X76035140Y-116813021D01*
X76035000Y-116833057D01*
X76035000Y-116846943D01*
X76062329Y-117125669D01*
X76143276Y-117393779D01*
X76274758Y-117641060D01*
X76451766Y-117858093D01*
X76667558Y-118036612D01*
X76913915Y-118169817D01*
X77181453Y-118252633D01*
X77459982Y-118281908D01*
X77738892Y-118256525D01*
X78007560Y-118177452D01*
X78255753Y-118047700D01*
X78474017Y-117872211D01*
X78654038Y-117657671D01*
X78740656Y-117500112D01*
X78857615Y-117695131D01*
X79046586Y-117903519D01*
X79272580Y-118071037D01*
X79526913Y-118191246D01*
X79660961Y-118231904D01*
X79797214Y-118157046D01*
X64096481Y-133857779D01*
X64040626Y-133925777D01*
X63984079Y-133993167D01*
X63981667Y-133997555D01*
X63978487Y-134001426D01*
X63936899Y-134078988D01*
X63894524Y-134156068D01*
X63893010Y-134160841D01*
X63890642Y-134165257D01*
X63864920Y-134249389D01*
X63838314Y-134333262D01*
X63837755Y-134338243D01*
X63836292Y-134343029D01*
X63827404Y-134430531D01*
X63817593Y-134517999D01*
X63817525Y-134527791D01*
X63817506Y-134527973D01*
X63817522Y-134528143D01*
X63817500Y-134531298D01*
X63817500Y-135680419D01*
X63647366Y-135733106D01*
X63497441Y-135831900D01*
X63380975Y-135968550D01*
X63307190Y-136132237D01*
X63281928Y-136310000D01*
X63281928Y-138010000D01*
X63289992Y-138111121D01*
X63343106Y-138282634D01*
X63441900Y-138432559D01*
X63578550Y-138549025D01*
X63742237Y-138622810D01*
X63744776Y-138623171D01*
X63716433Y-138646287D01*
X63531694Y-138869599D01*
X63393848Y-139124539D01*
X63308146Y-139401399D01*
X63277851Y-139689633D01*
X63304118Y-139978261D01*
X63385947Y-140256291D01*
X63520220Y-140513131D01*
X63701823Y-140739000D01*
X63923839Y-140925294D01*
X64004247Y-140969498D01*
X63941029Y-141003112D01*
X63716433Y-141186287D01*
X63531694Y-141409599D01*
X63393848Y-141664539D01*
X63308146Y-141941399D01*
X63277851Y-142229633D01*
X63304118Y-142518261D01*
X63385947Y-142796291D01*
X63520220Y-143053131D01*
X63701823Y-143279000D01*
X63923839Y-143465294D01*
X64177811Y-143604916D01*
X64454066Y-143692549D01*
X64504730Y-143698232D01*
X61785969Y-146416993D01*
X61730114Y-146484991D01*
X61722000Y-146494661D01*
X61722000Y-130227606D01*
X69076904Y-122872702D01*
X72846903Y-122872702D01*
X72918486Y-123116671D01*
X73173996Y-123237571D01*
X73448184Y-123306300D01*
X73730512Y-123320217D01*
X74010130Y-123278787D01*
X74276292Y-123183603D01*
X74401514Y-123116671D01*
X74473097Y-122872702D01*
X73660000Y-122059605D01*
X72846903Y-122872702D01*
X69076904Y-122872702D01*
X69999094Y-121950512D01*
X72219783Y-121950512D01*
X72261213Y-122230130D01*
X72356397Y-122496292D01*
X72423329Y-122621514D01*
X72667298Y-122693097D01*
X73480395Y-121880000D01*
X73839605Y-121880000D01*
X74652702Y-122693097D01*
X74896671Y-122621514D01*
X75017571Y-122366004D01*
X75086300Y-122091816D01*
X75100217Y-121809488D01*
X75058787Y-121529870D01*
X74963603Y-121263708D01*
X74896671Y-121138486D01*
X74652702Y-121066903D01*
X73839605Y-121880000D01*
X73480395Y-121880000D01*
X72667298Y-121066903D01*
X72423329Y-121138486D01*
X72302429Y-121393996D01*
X72233700Y-121668184D01*
X72219783Y-121950512D01*
X69999094Y-121950512D01*
X72258135Y-119691471D01*
X72273915Y-119777453D01*
X72377512Y-120039109D01*
X72529959Y-120275660D01*
X72725448Y-120478095D01*
X72943755Y-120629822D01*
X72918486Y-120643329D01*
X72846903Y-120887298D01*
X73660000Y-121700395D01*
X74473097Y-120887298D01*
X74401514Y-120643329D01*
X74370589Y-120628696D01*
X74547749Y-120516267D01*
X74751544Y-120322195D01*
X74913762Y-120092236D01*
X75028225Y-119835148D01*
X75090573Y-119560723D01*
X75095061Y-119239291D01*
X75040400Y-118963233D01*
X74933160Y-118703049D01*
X74777426Y-118468650D01*
X74579129Y-118268964D01*
X74345823Y-118111597D01*
X74086394Y-118002543D01*
X73970793Y-117978813D01*
X76252606Y-115697000D01*
X76603777Y-115697000D01*
X76465983Y-115807789D01*
G36*
X96886473Y-115716239D02*
X96685408Y-115913137D01*
X96526416Y-116145339D01*
X96415553Y-116404000D01*
X96357043Y-116679268D01*
X96353114Y-116960659D01*
X96403915Y-117237453D01*
X96507512Y-117499109D01*
X96659959Y-117735660D01*
X96855448Y-117938095D01*
X97073755Y-118089822D01*
X97048486Y-118103329D01*
X96976903Y-118347298D01*
X97790000Y-119160395D01*
X98603097Y-118347298D01*
X98531514Y-118103329D01*
X98500589Y-118088696D01*
X98677749Y-117976267D01*
X98881544Y-117782195D01*
X99043762Y-117552236D01*
X99158225Y-117295148D01*
X99220573Y-117020723D01*
X99225061Y-116699291D01*
X99170400Y-116423233D01*
X99063160Y-116163049D01*
X98907426Y-115928650D01*
X98709129Y-115728964D01*
X98661740Y-115697000D01*
X100733777Y-115697000D01*
X100595983Y-115807789D01*
X100415962Y-116022329D01*
X100281041Y-116267750D01*
X100196358Y-116534704D01*
X100165140Y-116813021D01*
X100165000Y-116833057D01*
X100165000Y-116846943D01*
X100192329Y-117125669D01*
X100273276Y-117393779D01*
X100404758Y-117641060D01*
X100581766Y-117858093D01*
X100797558Y-118036612D01*
X101043915Y-118169817D01*
X101311453Y-118252633D01*
X101589982Y-118281908D01*
X101868892Y-118256525D01*
X102137560Y-118177452D01*
X102385753Y-118047700D01*
X102604017Y-117872211D01*
X102784038Y-117657671D01*
X102870228Y-117500891D01*
X102944758Y-117641060D01*
X103121766Y-117858093D01*
X103337558Y-118036612D01*
X103583915Y-118169817D01*
X103851453Y-118252633D01*
X104129982Y-118281908D01*
X104408892Y-118256525D01*
X104677560Y-118177452D01*
X104925753Y-118047700D01*
X105144017Y-117872211D01*
X105324038Y-117657671D01*
X105410228Y-117500891D01*
X105484758Y-117641060D01*
X105661766Y-117858093D01*
X105877558Y-118036612D01*
X106123915Y-118169817D01*
X106391453Y-118252633D01*
X106669982Y-118281908D01*
X106948892Y-118256525D01*
X107217560Y-118177452D01*
X107465753Y-118047700D01*
X107684017Y-117872211D01*
X107864038Y-117657671D01*
X107950228Y-117500891D01*
X108024758Y-117641060D01*
X108201766Y-117858093D01*
X108417558Y-118036612D01*
X108663915Y-118169817D01*
X108931453Y-118252633D01*
X109209982Y-118281908D01*
X109488892Y-118256525D01*
X109757560Y-118177452D01*
X110005753Y-118047700D01*
X110224017Y-117872211D01*
X110404038Y-117657671D01*
X110490228Y-117500891D01*
X110564758Y-117641060D01*
X110741766Y-117858093D01*
X110957558Y-118036612D01*
X111203915Y-118169817D01*
X111471453Y-118252633D01*
X111749982Y-118281908D01*
X112028892Y-118256525D01*
X112297560Y-118177452D01*
X112545753Y-118047700D01*
X112764017Y-117872211D01*
X112944038Y-117657671D01*
X113030228Y-117500891D01*
X113104758Y-117641060D01*
X113281766Y-117858093D01*
X113497558Y-118036612D01*
X113743915Y-118169817D01*
X114011453Y-118252633D01*
X114289982Y-118281908D01*
X114568892Y-118256525D01*
X114837560Y-118177452D01*
X115085753Y-118047700D01*
X115304017Y-117872211D01*
X115484038Y-117657671D01*
X115570228Y-117500891D01*
X115644758Y-117641060D01*
X115821766Y-117858093D01*
X116037558Y-118036612D01*
X116283915Y-118169817D01*
X116551453Y-118252633D01*
X116829982Y-118281908D01*
X117108892Y-118256525D01*
X117377560Y-118177452D01*
X117525746Y-118099982D01*
X121748092Y-118099982D01*
X121773475Y-118378892D01*
X121852548Y-118647560D01*
X121982300Y-118895753D01*
X122157789Y-119114017D01*
X122372329Y-119294038D01*
X122617750Y-119428959D01*
X122884704Y-119513642D01*
X123163021Y-119544860D01*
X123183057Y-119545000D01*
X123196943Y-119545000D01*
X123475669Y-119517671D01*
X123743779Y-119436724D01*
X123991060Y-119305242D01*
X124208093Y-119128234D01*
X124386612Y-118912442D01*
X124519817Y-118666085D01*
X124602633Y-118398547D01*
X124620278Y-118230659D01*
X129373114Y-118230659D01*
X129423915Y-118507453D01*
X129527512Y-118769109D01*
X129679959Y-119005660D01*
X129875448Y-119208095D01*
X130106534Y-119368704D01*
X130364415Y-119481369D01*
X130639268Y-119541800D01*
X130900228Y-119547266D01*
X132753012Y-121400050D01*
X132753012Y-123380512D01*
X132761601Y-123468113D01*
X132769266Y-123555726D01*
X132770663Y-123560535D01*
X132771152Y-123565520D01*
X132796583Y-123649751D01*
X132821129Y-123734239D01*
X132823434Y-123738686D01*
X132824882Y-123743482D01*
X132866172Y-123821137D01*
X132906678Y-123899281D01*
X132909806Y-123903200D01*
X132912155Y-123907617D01*
X132967730Y-123975759D01*
X133022655Y-124044562D01*
X133029528Y-124051532D01*
X133029646Y-124051676D01*
X133029779Y-124051786D01*
X133031993Y-124054031D01*
X134686984Y-125709022D01*
X134667441Y-125721900D01*
X134550975Y-125858550D01*
X134477190Y-126022237D01*
X134451928Y-126200000D01*
X134451928Y-127800000D01*
X134459992Y-127901121D01*
X134513106Y-128072634D01*
X134611900Y-128222559D01*
X134748550Y-128339025D01*
X134912237Y-128412810D01*
X134944453Y-128417388D01*
X134785408Y-128573137D01*
X134626416Y-128805339D01*
X134515553Y-129064000D01*
X134457043Y-129339268D01*
X134453114Y-129620659D01*
X134503915Y-129897453D01*
X134607512Y-130159109D01*
X134759959Y-130395660D01*
X134955448Y-130598095D01*
X135186534Y-130758704D01*
X135444415Y-130871369D01*
X135719268Y-130931800D01*
X136000624Y-130937693D01*
X136277767Y-130888826D01*
X136540140Y-130787058D01*
X136777749Y-130636267D01*
X136981544Y-130442195D01*
X137143762Y-130212236D01*
X137258225Y-129955148D01*
X137320573Y-129680723D01*
X137325061Y-129359291D01*
X137270400Y-129083233D01*
X137163160Y-128823049D01*
X137007426Y-128588650D01*
X136836066Y-128416090D01*
X136962634Y-128376894D01*
X137112559Y-128278100D01*
X137229025Y-128141450D01*
X137302810Y-127977763D01*
X137328072Y-127800000D01*
X137328072Y-126240000D01*
X140801928Y-126240000D01*
X140801928Y-127840000D01*
X140809992Y-127941121D01*
X140863106Y-128112634D01*
X140961900Y-128262559D01*
X141098550Y-128379025D01*
X141262237Y-128452810D01*
X141294453Y-128457388D01*
X141135408Y-128613137D01*
X140976416Y-128845339D01*
X140865553Y-129104000D01*
X140807043Y-129379268D01*
X140803114Y-129660659D01*
X140853915Y-129937453D01*
X140957512Y-130199109D01*
X141109959Y-130435660D01*
X141305448Y-130638095D01*
X141536534Y-130798704D01*
X141794415Y-130911369D01*
X142069268Y-130971800D01*
X142350624Y-130977693D01*
X142627767Y-130928826D01*
X142890140Y-130827058D01*
X143127749Y-130676267D01*
X143331544Y-130482195D01*
X143493762Y-130252236D01*
X143608225Y-129995148D01*
X143670573Y-129720723D01*
X143675061Y-129399291D01*
X143620400Y-129123233D01*
X143537326Y-128921679D01*
X148182785Y-128921679D01*
X148242437Y-129246696D01*
X148364082Y-129553937D01*
X148543087Y-129831698D01*
X148772634Y-130069401D01*
X149043979Y-130257991D01*
X149346787Y-130390284D01*
X149669524Y-130461243D01*
X149999897Y-130468163D01*
X150325322Y-130410782D01*
X150633405Y-130291284D01*
X150912409Y-130114223D01*
X151151708Y-129886341D01*
X151342188Y-129616319D01*
X151476592Y-129314442D01*
X151549802Y-128992208D01*
X151550786Y-128921679D01*
X151982785Y-128921679D01*
X152042437Y-129246696D01*
X152164082Y-129553937D01*
X152343087Y-129831698D01*
X152572634Y-130069401D01*
X152843979Y-130257991D01*
X153146787Y-130390284D01*
X153469524Y-130461243D01*
X153799897Y-130468163D01*
X154125322Y-130410782D01*
X154433405Y-130291284D01*
X154712409Y-130114223D01*
X154951708Y-129886341D01*
X155142188Y-129616319D01*
X155276592Y-129314442D01*
X155349802Y-128992208D01*
X155351918Y-128840617D01*
X155777934Y-128840617D01*
X155822272Y-129169557D01*
X155929931Y-129483527D01*
X156029421Y-129669661D01*
X156298934Y-129771461D01*
X157290395Y-128780000D01*
X156298934Y-127788539D01*
X156029421Y-127890339D01*
X155883537Y-128188477D01*
X155798620Y-128509346D01*
X155777934Y-128840617D01*
X155351918Y-128840617D01*
X155355072Y-128614777D01*
X155290888Y-128290625D01*
X155164965Y-127985113D01*
X154982100Y-127709878D01*
X154749256Y-127475403D01*
X154475305Y-127290620D01*
X154170679Y-127162568D01*
X153846983Y-127096122D01*
X153516545Y-127093815D01*
X153191953Y-127155735D01*
X152885569Y-127279522D01*
X152609064Y-127460462D01*
X152372970Y-127691662D01*
X152186279Y-127964317D01*
X152056102Y-128268042D01*
X151987399Y-128591266D01*
X151982785Y-128921679D01*
X151550786Y-128921679D01*
X151555072Y-128614777D01*
X151490888Y-128290625D01*
X151364965Y-127985113D01*
X151182100Y-127709878D01*
X150949256Y-127475403D01*
X150675305Y-127290620D01*
X150370679Y-127162568D01*
X150046983Y-127096122D01*
X149716545Y-127093815D01*
X149391953Y-127155735D01*
X149085569Y-127279522D01*
X148809064Y-127460462D01*
X148572970Y-127691662D01*
X148386279Y-127964317D01*
X148256102Y-128268042D01*
X148187399Y-128591266D01*
X148182785Y-128921679D01*
X143537326Y-128921679D01*
X143513160Y-128863049D01*
X143357426Y-128628650D01*
X143186066Y-128456090D01*
X143312634Y-128416894D01*
X143462559Y-128318100D01*
X143579025Y-128181450D01*
X143652810Y-128017763D01*
X143678072Y-127840000D01*
X143678072Y-126240000D01*
X143670008Y-126138879D01*
X143616894Y-125967366D01*
X143518100Y-125817441D01*
X143381450Y-125700975D01*
X143217763Y-125627190D01*
X143040000Y-125601928D01*
X141440000Y-125601928D01*
X141338879Y-125609992D01*
X141167366Y-125663106D01*
X141017441Y-125761900D01*
X140900975Y-125898550D01*
X140827190Y-126062237D01*
X140801928Y-126240000D01*
X137328072Y-126240000D01*
X137328072Y-126200000D01*
X137320008Y-126098879D01*
X137266894Y-125927366D01*
X137168100Y-125777441D01*
X137031450Y-125660975D01*
X136867763Y-125587190D01*
X136842500Y-125583600D01*
X136842500Y-125565000D01*
X136833915Y-125477440D01*
X136826246Y-125389786D01*
X136824849Y-125384977D01*
X136824360Y-125379992D01*
X136798929Y-125295761D01*
X136774383Y-125211273D01*
X136772078Y-125206826D01*
X136770630Y-125202030D01*
X136729340Y-125124375D01*
X136688834Y-125046231D01*
X136685706Y-125042312D01*
X136683357Y-125037895D01*
X136627787Y-124969759D01*
X136572858Y-124900951D01*
X136565980Y-124893976D01*
X136565866Y-124893836D01*
X136565737Y-124893729D01*
X136563520Y-124891481D01*
X134658012Y-122985974D01*
X134658012Y-122659294D01*
X134682300Y-122705753D01*
X134857789Y-122924017D01*
X135072329Y-123104038D01*
X135317750Y-123238959D01*
X135584704Y-123323642D01*
X135863021Y-123354860D01*
X135883057Y-123355000D01*
X135896943Y-123355000D01*
X136175669Y-123327671D01*
X136443779Y-123246724D01*
X136691060Y-123115242D01*
X136908093Y-122938234D01*
X137086612Y-122722442D01*
X137219817Y-122476085D01*
X137302633Y-122208547D01*
X137320278Y-122040659D01*
X142073114Y-122040659D01*
X142123915Y-122317453D01*
X142227512Y-122579109D01*
X142379959Y-122815660D01*
X142575448Y-123018095D01*
X142806534Y-123178704D01*
X143064415Y-123291369D01*
X143339268Y-123351800D01*
X143620624Y-123357693D01*
X143897767Y-123308826D01*
X144160140Y-123207058D01*
X144397749Y-123056267D01*
X144601544Y-122862195D01*
X144763762Y-122632236D01*
X144878225Y-122375148D01*
X144940573Y-122100723D01*
X144945061Y-121779291D01*
X144890400Y-121503233D01*
X144783160Y-121243049D01*
X144627426Y-121008650D01*
X144429129Y-120808964D01*
X144195823Y-120651597D01*
X143936394Y-120542543D01*
X143660724Y-120485956D01*
X143379313Y-120483991D01*
X143102880Y-120536724D01*
X142841954Y-120642145D01*
X142606473Y-120796239D01*
X142405408Y-120993137D01*
X142246416Y-121225339D01*
X142135553Y-121484000D01*
X142077043Y-121759268D01*
X142073114Y-122040659D01*
X137320278Y-122040659D01*
X137331908Y-121930018D01*
X137306525Y-121651108D01*
X137227452Y-121382440D01*
X137097700Y-121134247D01*
X136922211Y-120915983D01*
X136707671Y-120735962D01*
X136462250Y-120601041D01*
X136195296Y-120516358D01*
X135916979Y-120485140D01*
X135896943Y-120485000D01*
X135883057Y-120485000D01*
X135604331Y-120512329D01*
X135336221Y-120593276D01*
X135088940Y-120724758D01*
X134871907Y-120901766D01*
X134693388Y-121117558D01*
X134658012Y-121182984D01*
X134658012Y-121005512D01*
X134649423Y-120917911D01*
X134641758Y-120830298D01*
X134640361Y-120825489D01*
X134639872Y-120820504D01*
X134614431Y-120736241D01*
X134589894Y-120651784D01*
X134587591Y-120647341D01*
X134586142Y-120642542D01*
X134544843Y-120564870D01*
X134504346Y-120486743D01*
X134501218Y-120482824D01*
X134498869Y-120478407D01*
X134443294Y-120410265D01*
X134388369Y-120341462D01*
X134381496Y-120334492D01*
X134381378Y-120334348D01*
X134381245Y-120334238D01*
X134379031Y-120331993D01*
X132277697Y-118230659D01*
X134453114Y-118230659D01*
X134503915Y-118507453D01*
X134607512Y-118769109D01*
X134759959Y-119005660D01*
X134955448Y-119208095D01*
X135186534Y-119368704D01*
X135444415Y-119481369D01*
X135719268Y-119541800D01*
X136000624Y-119547693D01*
X136148159Y-119521679D01*
X148182785Y-119521679D01*
X148242437Y-119846696D01*
X148364082Y-120153937D01*
X148543087Y-120431698D01*
X148772634Y-120669401D01*
X149043979Y-120857991D01*
X149346787Y-120990284D01*
X149669524Y-121061243D01*
X149999897Y-121068163D01*
X150325322Y-121010782D01*
X150633405Y-120891284D01*
X150912409Y-120714223D01*
X151151708Y-120486341D01*
X151342188Y-120216319D01*
X151476592Y-119914442D01*
X151549802Y-119592208D01*
X151550786Y-119521679D01*
X151982785Y-119521679D01*
X152042437Y-119846696D01*
X152164082Y-120153937D01*
X152343087Y-120431698D01*
X152572634Y-120669401D01*
X152843979Y-120857991D01*
X153146787Y-120990284D01*
X153469524Y-121061243D01*
X153799897Y-121068163D01*
X154125322Y-121010782D01*
X154433405Y-120891284D01*
X154712409Y-120714223D01*
X154951708Y-120486341D01*
X155142188Y-120216319D01*
X155276592Y-119914442D01*
X155349802Y-119592208D01*
X155351918Y-119440617D01*
X155777934Y-119440617D01*
X155822272Y-119769557D01*
X155929931Y-120083527D01*
X156029421Y-120269661D01*
X156298934Y-120371461D01*
X157290395Y-119380000D01*
X156298934Y-118388539D01*
X156029421Y-118490339D01*
X155883537Y-118788477D01*
X155798620Y-119109346D01*
X155777934Y-119440617D01*
X155351918Y-119440617D01*
X155355072Y-119214777D01*
X155290888Y-118890625D01*
X155164965Y-118585113D01*
X154982100Y-118309878D01*
X154749256Y-118075403D01*
X154475305Y-117890620D01*
X154170679Y-117762568D01*
X153846983Y-117696122D01*
X153516545Y-117693815D01*
X153191953Y-117755735D01*
X152885569Y-117879522D01*
X152609064Y-118060462D01*
X152372970Y-118291662D01*
X152186279Y-118564317D01*
X152056102Y-118868042D01*
X151987399Y-119191266D01*
X151982785Y-119521679D01*
X151550786Y-119521679D01*
X151555072Y-119214777D01*
X151490888Y-118890625D01*
X151364965Y-118585113D01*
X151182100Y-118309878D01*
X150949256Y-118075403D01*
X150675305Y-117890620D01*
X150370679Y-117762568D01*
X150046983Y-117696122D01*
X149716545Y-117693815D01*
X149391953Y-117755735D01*
X149085569Y-117879522D01*
X148809064Y-118060462D01*
X148572970Y-118291662D01*
X148386279Y-118564317D01*
X148256102Y-118868042D01*
X148187399Y-119191266D01*
X148182785Y-119521679D01*
X136148159Y-119521679D01*
X136277767Y-119498826D01*
X136540140Y-119397058D01*
X136777749Y-119246267D01*
X136981544Y-119052195D01*
X137143762Y-118822236D01*
X137258225Y-118565148D01*
X137282332Y-118459039D01*
X142118096Y-118459039D01*
X142158754Y-118593087D01*
X142278963Y-118847420D01*
X142446481Y-119073414D01*
X142654869Y-119262385D01*
X142896119Y-119407070D01*
X143160960Y-119501909D01*
X143383000Y-119380624D01*
X143383000Y-118237000D01*
X143637000Y-118237000D01*
X143637000Y-119380624D01*
X143859040Y-119501909D01*
X144123881Y-119407070D01*
X144365131Y-119262385D01*
X144573519Y-119073414D01*
X144741037Y-118847420D01*
X144861246Y-118593087D01*
X144901904Y-118459039D01*
X144779915Y-118237000D01*
X143637000Y-118237000D01*
X143383000Y-118237000D01*
X142240085Y-118237000D01*
X142118096Y-118459039D01*
X137282332Y-118459039D01*
X137320573Y-118290723D01*
X137325061Y-117969291D01*
X137283811Y-117760961D01*
X142118096Y-117760961D01*
X142240085Y-117983000D01*
X143383000Y-117983000D01*
X143383000Y-116839376D01*
X143637000Y-116839376D01*
X143637000Y-117983000D01*
X144779915Y-117983000D01*
X144901904Y-117760961D01*
X144861246Y-117626913D01*
X144741037Y-117372580D01*
X144573519Y-117146586D01*
X144365131Y-116957615D01*
X144123881Y-116812930D01*
X143859040Y-116718091D01*
X143637000Y-116839376D01*
X143383000Y-116839376D01*
X143160960Y-116718091D01*
X142896119Y-116812930D01*
X142654869Y-116957615D01*
X142446481Y-117146586D01*
X142278963Y-117372580D01*
X142158754Y-117626913D01*
X142118096Y-117760961D01*
X137283811Y-117760961D01*
X137270400Y-117693233D01*
X137163160Y-117433049D01*
X137007426Y-117198650D01*
X136809129Y-116998964D01*
X136575823Y-116841597D01*
X136316394Y-116732543D01*
X136040724Y-116675956D01*
X135759313Y-116673991D01*
X135482880Y-116726724D01*
X135221954Y-116832145D01*
X134986473Y-116986239D01*
X134785408Y-117183137D01*
X134626416Y-117415339D01*
X134515553Y-117674000D01*
X134457043Y-117949268D01*
X134453114Y-118230659D01*
X132277697Y-118230659D01*
X132241911Y-118194873D01*
X132245061Y-117969291D01*
X132190400Y-117693233D01*
X132083160Y-117433049D01*
X131927426Y-117198650D01*
X131729129Y-116998964D01*
X131495823Y-116841597D01*
X131236394Y-116732543D01*
X130960724Y-116675956D01*
X130679313Y-116673991D01*
X130402880Y-116726724D01*
X130141954Y-116832145D01*
X129906473Y-116986239D01*
X129705408Y-117183137D01*
X129546416Y-117415339D01*
X129435553Y-117674000D01*
X129377043Y-117949268D01*
X129373114Y-118230659D01*
X124620278Y-118230659D01*
X124631908Y-118120018D01*
X124606525Y-117841108D01*
X124527452Y-117572440D01*
X124397700Y-117324247D01*
X124222211Y-117105983D01*
X124007671Y-116925962D01*
X123762250Y-116791041D01*
X123495296Y-116706358D01*
X123216979Y-116675140D01*
X123196943Y-116675000D01*
X123183057Y-116675000D01*
X122904331Y-116702329D01*
X122636221Y-116783276D01*
X122388940Y-116914758D01*
X122171907Y-117091766D01*
X121993388Y-117307558D01*
X121860183Y-117553915D01*
X121777367Y-117821453D01*
X121748092Y-118099982D01*
X117525746Y-118099982D01*
X117625753Y-118047700D01*
X117844017Y-117872211D01*
X118024038Y-117657671D01*
X118158959Y-117412250D01*
X118243642Y-117145296D01*
X118274860Y-116866979D01*
X118275000Y-116846943D01*
X118275000Y-116833057D01*
X118247671Y-116554331D01*
X118166724Y-116286221D01*
X118035242Y-116038940D01*
X117858234Y-115821907D01*
X117707248Y-115697000D01*
X154259020Y-115697000D01*
X156811861Y-117824368D01*
X156766473Y-117839931D01*
X156580339Y-117939421D01*
X156478539Y-118208934D01*
X157470000Y-119200395D01*
X157484143Y-119186253D01*
X157663748Y-119365858D01*
X157649605Y-119380000D01*
X157663748Y-119394143D01*
X157484143Y-119573748D01*
X157470000Y-119559605D01*
X156478539Y-120551066D01*
X156580339Y-120820579D01*
X156878477Y-120966463D01*
X157199346Y-121051380D01*
X157530617Y-121072066D01*
X157859557Y-121027728D01*
X157988000Y-120983685D01*
X157988000Y-127174079D01*
X157740654Y-127108620D01*
X157409383Y-127087934D01*
X157080443Y-127132272D01*
X156766473Y-127239931D01*
X156580339Y-127339421D01*
X156478539Y-127608934D01*
X157470000Y-128600395D01*
X157484143Y-128586253D01*
X157663748Y-128765858D01*
X157649605Y-128780000D01*
X157663748Y-128794143D01*
X157484143Y-128973748D01*
X157470000Y-128959605D01*
X156478539Y-129951066D01*
X156580339Y-130220579D01*
X156878477Y-130366463D01*
X157199346Y-130451380D01*
X157530617Y-130472066D01*
X157859557Y-130427728D01*
X157988000Y-130383685D01*
X157988000Y-134601618D01*
X157900709Y-134648032D01*
X157676113Y-134831207D01*
X157652320Y-134859968D01*
X157650277Y-134849697D01*
X157602410Y-134734135D01*
X157532917Y-134630131D01*
X157444469Y-134541683D01*
X157340465Y-134472190D01*
X157224903Y-134424323D01*
X157102222Y-134399920D01*
X156475430Y-134399920D01*
X156316680Y-134558670D01*
X156316680Y-135757920D01*
X156336680Y-135757920D01*
X156336680Y-136011920D01*
X156316680Y-136011920D01*
X156316680Y-136031920D01*
X156062680Y-136031920D01*
X156062680Y-136011920D01*
X154863430Y-136011920D01*
X154704680Y-136170670D01*
X154704680Y-136797462D01*
X154729083Y-136920143D01*
X154776950Y-137035705D01*
X154846443Y-137139709D01*
X154934891Y-137228157D01*
X155038895Y-137297650D01*
X155154457Y-137345517D01*
X155165033Y-137347621D01*
X155136113Y-137371207D01*
X154951374Y-137594519D01*
X154910335Y-137670420D01*
X154847429Y-137675923D01*
X154843581Y-137677041D01*
X154839592Y-137677432D01*
X154772227Y-137697771D01*
X154704617Y-137717413D01*
X154701057Y-137719259D01*
X154697223Y-137720416D01*
X154635081Y-137753457D01*
X154572585Y-137785853D01*
X154569455Y-137788352D01*
X154565915Y-137790234D01*
X154511368Y-137834721D01*
X154456359Y-137878634D01*
X154450780Y-137884136D01*
X154450668Y-137884227D01*
X154450582Y-137884331D01*
X154448784Y-137886104D01*
X152512363Y-139822525D01*
X152524220Y-139716819D01*
X152524360Y-139696783D01*
X152524360Y-139682897D01*
X152497031Y-139404171D01*
X152416084Y-139136061D01*
X152284602Y-138888780D01*
X152107594Y-138671747D01*
X151891802Y-138493228D01*
X151645445Y-138360023D01*
X151377907Y-138277207D01*
X151099378Y-138247932D01*
X150820468Y-138273315D01*
X150551800Y-138352388D01*
X150303607Y-138482140D01*
X150085343Y-138657629D01*
X149905322Y-138872169D01*
X149819132Y-139028949D01*
X149744602Y-138888780D01*
X149567594Y-138671747D01*
X149351802Y-138493228D01*
X149105445Y-138360023D01*
X148837907Y-138277207D01*
X148559378Y-138247932D01*
X148463240Y-138256681D01*
X145178937Y-134972378D01*
X154704680Y-134972378D01*
X154704680Y-135599170D01*
X154863430Y-135757920D01*
X156062680Y-135757920D01*
X156062680Y-134558670D01*
X155903930Y-134399920D01*
X155277138Y-134399920D01*
X155154457Y-134424323D01*
X155038895Y-134472190D01*
X154934891Y-134541683D01*
X154846443Y-134630131D01*
X154776950Y-134734135D01*
X154729083Y-134849697D01*
X154704680Y-134972378D01*
X145178937Y-134972378D01*
X142731538Y-132524980D01*
X142663540Y-132469125D01*
X142596150Y-132412578D01*
X142591762Y-132410166D01*
X142587891Y-132406986D01*
X142510329Y-132365398D01*
X142433249Y-132323023D01*
X142428476Y-132321509D01*
X142424060Y-132319141D01*
X142339928Y-132293419D01*
X142256055Y-132266813D01*
X142251074Y-132266254D01*
X142246288Y-132264791D01*
X142158786Y-132255903D01*
X142071318Y-132246092D01*
X142061526Y-132246024D01*
X142061344Y-132246005D01*
X142061174Y-132246021D01*
X142058019Y-132245999D01*
X135852799Y-132245999D01*
X135765198Y-132254588D01*
X135677585Y-132262253D01*
X135672776Y-132263650D01*
X135667791Y-132264139D01*
X135583560Y-132289570D01*
X135499072Y-132314116D01*
X135494625Y-132316421D01*
X135489829Y-132317869D01*
X135412174Y-132359159D01*
X135334030Y-132399665D01*
X135330111Y-132402793D01*
X135325694Y-132405142D01*
X135257552Y-132460717D01*
X135188749Y-132515642D01*
X135181779Y-132522515D01*
X135181635Y-132522633D01*
X135181525Y-132522766D01*
X135179280Y-132524980D01*
X133935259Y-133769001D01*
X132186437Y-133769001D01*
X132240573Y-133530723D01*
X132245061Y-133209291D01*
X132190400Y-132933233D01*
X132083160Y-132673049D01*
X131927426Y-132438650D01*
X131729129Y-132238964D01*
X131495823Y-132081597D01*
X131236394Y-131972543D01*
X130960724Y-131915956D01*
X130679313Y-131913991D01*
X130402880Y-131966724D01*
X130141954Y-132072145D01*
X129906473Y-132226239D01*
X129705408Y-132423137D01*
X129546416Y-132655339D01*
X129435553Y-132914000D01*
X129377043Y-133189268D01*
X129373114Y-133470659D01*
X129423915Y-133747453D01*
X129432446Y-133769001D01*
X124562251Y-133769001D01*
X124602633Y-133638547D01*
X124631908Y-133360018D01*
X124606525Y-133081108D01*
X124527452Y-132812440D01*
X124397700Y-132564247D01*
X124222211Y-132345983D01*
X124007671Y-132165962D01*
X123762250Y-132031041D01*
X123495296Y-131946358D01*
X123216979Y-131915140D01*
X123196943Y-131915000D01*
X123183057Y-131915000D01*
X122904331Y-131942329D01*
X122636221Y-132023276D01*
X122388940Y-132154758D01*
X122171907Y-132331766D01*
X121993388Y-132547558D01*
X121860183Y-132793915D01*
X121777367Y-133061453D01*
X121748092Y-133339982D01*
X121773475Y-133618892D01*
X121817654Y-133769001D01*
X119876039Y-133769001D01*
X117113366Y-131006328D01*
X117118261Y-131005882D01*
X117396291Y-130924053D01*
X117653131Y-130789780D01*
X117879000Y-130608177D01*
X118065294Y-130386161D01*
X118204916Y-130132189D01*
X118292549Y-129855934D01*
X118314452Y-129660659D01*
X121753114Y-129660659D01*
X121803915Y-129937453D01*
X121907512Y-130199109D01*
X122059959Y-130435660D01*
X122255448Y-130638095D01*
X122486534Y-130798704D01*
X122744415Y-130911369D01*
X123019268Y-130971800D01*
X123300624Y-130977693D01*
X123577767Y-130928826D01*
X123840140Y-130827058D01*
X124077749Y-130676267D01*
X124281544Y-130482195D01*
X124443762Y-130252236D01*
X124558225Y-129995148D01*
X124582332Y-129889039D01*
X129418096Y-129889039D01*
X129458754Y-130023087D01*
X129578963Y-130277420D01*
X129746481Y-130503414D01*
X129954869Y-130692385D01*
X130196119Y-130837070D01*
X130460960Y-130931909D01*
X130683000Y-130810624D01*
X130683000Y-129667000D01*
X130937000Y-129667000D01*
X130937000Y-130810624D01*
X131159040Y-130931909D01*
X131423881Y-130837070D01*
X131665131Y-130692385D01*
X131873519Y-130503414D01*
X132041037Y-130277420D01*
X132161246Y-130023087D01*
X132201904Y-129889039D01*
X132079915Y-129667000D01*
X130937000Y-129667000D01*
X130683000Y-129667000D01*
X129540085Y-129667000D01*
X129418096Y-129889039D01*
X124582332Y-129889039D01*
X124620573Y-129720723D01*
X124625061Y-129399291D01*
X124583811Y-129190961D01*
X129418096Y-129190961D01*
X129540085Y-129413000D01*
X130683000Y-129413000D01*
X130683000Y-128269376D01*
X130937000Y-128269376D01*
X130937000Y-129413000D01*
X132079915Y-129413000D01*
X132201904Y-129190961D01*
X132161246Y-129056913D01*
X132041037Y-128802580D01*
X131873519Y-128576586D01*
X131665131Y-128387615D01*
X131423881Y-128242930D01*
X131159040Y-128148091D01*
X130937000Y-128269376D01*
X130683000Y-128269376D01*
X130460960Y-128148091D01*
X130196119Y-128242930D01*
X129954869Y-128387615D01*
X129746481Y-128576586D01*
X129578963Y-128802580D01*
X129458754Y-129056913D01*
X129418096Y-129190961D01*
X124583811Y-129190961D01*
X124570400Y-129123233D01*
X124463160Y-128863049D01*
X124307426Y-128628650D01*
X124109129Y-128428964D01*
X123875823Y-128271597D01*
X123616394Y-128162543D01*
X123340724Y-128105956D01*
X123059313Y-128103991D01*
X122782880Y-128156724D01*
X122521954Y-128262145D01*
X122286473Y-128416239D01*
X122085408Y-128613137D01*
X121926416Y-128845339D01*
X121815553Y-129104000D01*
X121757043Y-129379268D01*
X121753114Y-129660659D01*
X118314452Y-129660659D01*
X118324855Y-129567919D01*
X118325000Y-129547185D01*
X118325000Y-129532815D01*
X118296718Y-129244377D01*
X118212951Y-128966925D01*
X118076888Y-128711029D01*
X117893713Y-128486433D01*
X117670401Y-128301694D01*
X117415461Y-128163848D01*
X117138601Y-128078146D01*
X116850367Y-128047851D01*
X116561739Y-128074118D01*
X116283709Y-128155947D01*
X116026869Y-128290220D01*
X115801000Y-128471823D01*
X115614706Y-128693839D01*
X115570502Y-128774247D01*
X115536888Y-128711029D01*
X115353713Y-128486433D01*
X115130401Y-128301694D01*
X114875461Y-128163848D01*
X114598601Y-128078146D01*
X114310367Y-128047851D01*
X114021739Y-128074118D01*
X113743709Y-128155947D01*
X113486869Y-128290220D01*
X113261000Y-128471823D01*
X113219189Y-128521651D01*
X113186894Y-128417366D01*
X113088100Y-128267441D01*
X112951450Y-128150975D01*
X112787763Y-128077190D01*
X112610000Y-128051928D01*
X110910000Y-128051928D01*
X110808879Y-128059992D01*
X110637366Y-128113106D01*
X110487441Y-128211900D01*
X110370975Y-128348550D01*
X110297190Y-128512237D01*
X110271928Y-128690000D01*
X110271928Y-130390000D01*
X110279992Y-130491121D01*
X110333106Y-130662634D01*
X110431900Y-130812559D01*
X110568550Y-130929025D01*
X110732237Y-131002810D01*
X110910000Y-131028072D01*
X112610000Y-131028072D01*
X112711121Y-131020008D01*
X112882634Y-130966894D01*
X113032559Y-130868100D01*
X113149025Y-130731450D01*
X113222810Y-130567763D01*
X113223171Y-130565224D01*
X113246287Y-130593567D01*
X113469599Y-130778306D01*
X113724539Y-130916152D01*
X114001399Y-131001854D01*
X114289633Y-131032149D01*
X114432142Y-131019180D01*
X118807982Y-135395020D01*
X118875980Y-135450875D01*
X118943370Y-135507422D01*
X118947758Y-135509834D01*
X118951629Y-135513014D01*
X119029191Y-135554602D01*
X119106271Y-135596977D01*
X119111044Y-135598491D01*
X119115460Y-135600859D01*
X119199592Y-135626581D01*
X119283465Y-135653187D01*
X119288446Y-135653746D01*
X119293232Y-135655209D01*
X119380734Y-135664097D01*
X119468202Y-135673908D01*
X119477994Y-135673976D01*
X119478176Y-135673995D01*
X119478346Y-135673979D01*
X119481501Y-135674001D01*
X134329797Y-135674001D01*
X134417398Y-135665412D01*
X134505011Y-135657747D01*
X134509820Y-135656350D01*
X134514805Y-135655861D01*
X134599036Y-135630430D01*
X134683524Y-135605884D01*
X134687971Y-135603579D01*
X134692767Y-135602131D01*
X134770422Y-135560841D01*
X134848566Y-135520335D01*
X134852485Y-135517207D01*
X134856902Y-135514858D01*
X134925044Y-135459283D01*
X134993847Y-135404358D01*
X135000817Y-135397485D01*
X135000961Y-135397367D01*
X135001071Y-135397234D01*
X135003316Y-135395020D01*
X135671928Y-134726408D01*
X135671928Y-135470000D01*
X135679992Y-135571121D01*
X135733106Y-135742634D01*
X135831900Y-135892559D01*
X135968550Y-136009025D01*
X136132237Y-136082810D01*
X136310000Y-136108072D01*
X138010000Y-136108072D01*
X138111121Y-136100008D01*
X138282634Y-136046894D01*
X138432559Y-135948100D01*
X138549025Y-135811450D01*
X138622810Y-135647763D01*
X138624714Y-135634364D01*
X138699731Y-135717588D01*
X138933080Y-135891641D01*
X139195901Y-136016825D01*
X139343110Y-136061476D01*
X139573000Y-135940155D01*
X139573000Y-134747000D01*
X139827000Y-134747000D01*
X139827000Y-135940155D01*
X140056890Y-136061476D01*
X140204099Y-136016825D01*
X140466920Y-135891641D01*
X140700269Y-135717588D01*
X140895178Y-135501355D01*
X141044157Y-135251252D01*
X141141481Y-134976891D01*
X141020814Y-134747000D01*
X139827000Y-134747000D01*
X139573000Y-134747000D01*
X139553000Y-134747000D01*
X139553000Y-134493000D01*
X139573000Y-134493000D01*
X139573000Y-134473000D01*
X139827000Y-134473000D01*
X139827000Y-134493000D01*
X141020814Y-134493000D01*
X141141481Y-134263109D01*
X141101712Y-134150999D01*
X141663481Y-134150999D01*
X145782015Y-138269534D01*
X145740468Y-138273315D01*
X145471800Y-138352388D01*
X145223607Y-138482140D01*
X145005343Y-138657629D01*
X144825322Y-138872169D01*
X144738704Y-139029728D01*
X144621745Y-138834709D01*
X144432774Y-138626321D01*
X144206780Y-138458803D01*
X143952447Y-138338594D01*
X143818399Y-138297936D01*
X143596360Y-138419925D01*
X143596360Y-139562840D01*
X143616360Y-139562840D01*
X143616360Y-139816840D01*
X143596360Y-139816840D01*
X143596360Y-139836840D01*
X143342360Y-139836840D01*
X143342360Y-139816840D01*
X143322360Y-139816840D01*
X143322360Y-139562840D01*
X143342360Y-139562840D01*
X143342360Y-138419925D01*
X143120321Y-138297936D01*
X142986273Y-138338594D01*
X142731940Y-138458803D01*
X142505946Y-138626321D01*
X142316975Y-138834709D01*
X142199767Y-139030144D01*
X142124602Y-138888780D01*
X141947594Y-138671747D01*
X141731802Y-138493228D01*
X141485445Y-138360023D01*
X141217907Y-138277207D01*
X140939378Y-138247932D01*
X140660468Y-138273315D01*
X140391800Y-138352388D01*
X140143607Y-138482140D01*
X139925343Y-138657629D01*
X139745322Y-138872169D01*
X139659132Y-139028949D01*
X139584602Y-138888780D01*
X139407594Y-138671747D01*
X139191802Y-138493228D01*
X138945445Y-138360023D01*
X138677907Y-138277207D01*
X138399378Y-138247932D01*
X138120468Y-138273315D01*
X137851800Y-138352388D01*
X137603607Y-138482140D01*
X137385343Y-138657629D01*
X137205322Y-138872169D01*
X137119132Y-139028949D01*
X137044602Y-138888780D01*
X136867594Y-138671747D01*
X136651802Y-138493228D01*
X136405445Y-138360023D01*
X136137907Y-138277207D01*
X135859378Y-138247932D01*
X135763239Y-138256681D01*
X133993039Y-136486481D01*
X133925041Y-136430626D01*
X133857651Y-136374079D01*
X133853263Y-136371667D01*
X133849392Y-136368487D01*
X133771830Y-136326899D01*
X133694750Y-136284524D01*
X133689977Y-136283010D01*
X133685561Y-136280642D01*
X133601429Y-136254920D01*
X133517556Y-136228314D01*
X133512575Y-136227755D01*
X133507789Y-136226292D01*
X133420287Y-136217404D01*
X133332819Y-136207593D01*
X133323027Y-136207525D01*
X133322845Y-136207506D01*
X133322675Y-136207522D01*
X133319520Y-136207500D01*
X112065836Y-136207500D01*
X101756408Y-125898072D01*
X102400000Y-125898072D01*
X102501121Y-125890008D01*
X102672634Y-125836894D01*
X102822559Y-125738100D01*
X102939025Y-125601450D01*
X103012810Y-125437763D01*
X103024097Y-125358339D01*
X103121766Y-125478093D01*
X103337558Y-125656612D01*
X103583915Y-125789817D01*
X103851453Y-125872633D01*
X104129982Y-125901908D01*
X104226121Y-125893159D01*
X104837982Y-126505020D01*
X104905953Y-126560852D01*
X104973370Y-126617422D01*
X104977762Y-126619836D01*
X104981629Y-126623013D01*
X105059152Y-126664581D01*
X105136271Y-126706977D01*
X105141044Y-126708491D01*
X105145460Y-126710859D01*
X105229551Y-126736568D01*
X105313465Y-126763187D01*
X105318451Y-126763746D01*
X105323232Y-126765208D01*
X105410684Y-126774092D01*
X105498202Y-126783908D01*
X105507994Y-126783976D01*
X105508176Y-126783995D01*
X105508346Y-126783979D01*
X105511501Y-126784001D01*
X112928499Y-126784001D01*
X113016100Y-126775412D01*
X113103713Y-126767747D01*
X113108522Y-126766350D01*
X113113507Y-126765861D01*
X113197738Y-126740430D01*
X113282226Y-126715884D01*
X113286673Y-126713579D01*
X113291469Y-126712131D01*
X113369124Y-126670841D01*
X113447268Y-126630335D01*
X113451187Y-126627207D01*
X113455604Y-126624858D01*
X113523746Y-126569283D01*
X113592549Y-126514358D01*
X113599519Y-126507485D01*
X113599663Y-126507367D01*
X113599773Y-126507234D01*
X113602018Y-126505020D01*
X114213200Y-125893838D01*
X114289982Y-125901908D01*
X114568892Y-125876525D01*
X114837560Y-125797452D01*
X115085753Y-125667700D01*
X115304017Y-125492211D01*
X115484038Y-125277671D01*
X115570656Y-125120112D01*
X115687615Y-125315131D01*
X115876586Y-125523519D01*
X116102580Y-125691037D01*
X116356913Y-125811246D01*
X116490961Y-125851904D01*
X116713000Y-125729915D01*
X116713000Y-124587000D01*
X116967000Y-124587000D01*
X116967000Y-125729915D01*
X117189039Y-125851904D01*
X117323087Y-125811246D01*
X117516179Y-125719982D01*
X121748092Y-125719982D01*
X121773475Y-125998892D01*
X121852548Y-126267560D01*
X121982300Y-126515753D01*
X122157789Y-126734017D01*
X122372329Y-126914038D01*
X122617750Y-127048959D01*
X122884704Y-127133642D01*
X123163021Y-127164860D01*
X123183057Y-127165000D01*
X123196943Y-127165000D01*
X123475669Y-127137671D01*
X123743779Y-127056724D01*
X123991060Y-126925242D01*
X124208093Y-126748234D01*
X124386612Y-126532442D01*
X124519817Y-126286085D01*
X124602633Y-126018547D01*
X124620278Y-125850659D01*
X129373114Y-125850659D01*
X129423915Y-126127453D01*
X129527512Y-126389109D01*
X129679959Y-126625660D01*
X129875448Y-126828095D01*
X130106534Y-126988704D01*
X130364415Y-127101369D01*
X130639268Y-127161800D01*
X130920624Y-127167693D01*
X131197767Y-127118826D01*
X131460140Y-127017058D01*
X131697749Y-126866267D01*
X131901544Y-126672195D01*
X132063762Y-126442236D01*
X132178225Y-126185148D01*
X132240573Y-125910723D01*
X132245061Y-125589291D01*
X132190400Y-125313233D01*
X132083160Y-125053049D01*
X131927426Y-124818650D01*
X131729129Y-124618964D01*
X131495823Y-124461597D01*
X131236394Y-124352543D01*
X130960724Y-124295956D01*
X130679313Y-124293991D01*
X130402880Y-124346724D01*
X130141954Y-124452145D01*
X129906473Y-124606239D01*
X129705408Y-124803137D01*
X129546416Y-125035339D01*
X129435553Y-125294000D01*
X129377043Y-125569268D01*
X129373114Y-125850659D01*
X124620278Y-125850659D01*
X124631908Y-125740018D01*
X124606525Y-125461108D01*
X124527452Y-125192440D01*
X124397700Y-124944247D01*
X124222211Y-124725983D01*
X124142500Y-124659097D01*
X124142500Y-122994605D01*
X124281544Y-122862195D01*
X124443762Y-122632236D01*
X124558225Y-122375148D01*
X124582332Y-122269039D01*
X129418096Y-122269039D01*
X129458754Y-122403087D01*
X129578963Y-122657420D01*
X129746481Y-122883414D01*
X129954869Y-123072385D01*
X130196119Y-123217070D01*
X130460960Y-123311909D01*
X130683000Y-123190624D01*
X130683000Y-122047000D01*
X130937000Y-122047000D01*
X130937000Y-123190624D01*
X131159040Y-123311909D01*
X131423881Y-123217070D01*
X131665131Y-123072385D01*
X131873519Y-122883414D01*
X132041037Y-122657420D01*
X132161246Y-122403087D01*
X132201904Y-122269039D01*
X132079915Y-122047000D01*
X130937000Y-122047000D01*
X130683000Y-122047000D01*
X129540085Y-122047000D01*
X129418096Y-122269039D01*
X124582332Y-122269039D01*
X124620573Y-122100723D01*
X124625061Y-121779291D01*
X124583811Y-121570961D01*
X129418096Y-121570961D01*
X129540085Y-121793000D01*
X130683000Y-121793000D01*
X130683000Y-120649376D01*
X130937000Y-120649376D01*
X130937000Y-121793000D01*
X132079915Y-121793000D01*
X132201904Y-121570961D01*
X132161246Y-121436913D01*
X132041037Y-121182580D01*
X131873519Y-120956586D01*
X131665131Y-120767615D01*
X131423881Y-120622930D01*
X131159040Y-120528091D01*
X130937000Y-120649376D01*
X130683000Y-120649376D01*
X130460960Y-120528091D01*
X130196119Y-120622930D01*
X129954869Y-120767615D01*
X129746481Y-120956586D01*
X129578963Y-121182580D01*
X129458754Y-121436913D01*
X129418096Y-121570961D01*
X124583811Y-121570961D01*
X124570400Y-121503233D01*
X124463160Y-121243049D01*
X124307426Y-121008650D01*
X124109129Y-120808964D01*
X123875823Y-120651597D01*
X123616394Y-120542543D01*
X123340724Y-120485956D01*
X123059313Y-120483991D01*
X122782880Y-120536724D01*
X122521954Y-120642145D01*
X122286473Y-120796239D01*
X122085408Y-120993137D01*
X121926416Y-121225339D01*
X121815553Y-121484000D01*
X121757043Y-121759268D01*
X121753114Y-122040659D01*
X121803915Y-122317453D01*
X121907512Y-122579109D01*
X122059959Y-122815660D01*
X122237500Y-122999509D01*
X122237500Y-124658270D01*
X122171907Y-124711766D01*
X121993388Y-124927558D01*
X121860183Y-125173915D01*
X121777367Y-125441453D01*
X121748092Y-125719982D01*
X117516179Y-125719982D01*
X117577420Y-125691037D01*
X117803414Y-125523519D01*
X117992385Y-125315131D01*
X118137070Y-125073881D01*
X118231909Y-124809040D01*
X118110624Y-124587000D01*
X116967000Y-124587000D01*
X116713000Y-124587000D01*
X116693000Y-124587000D01*
X116693000Y-124333000D01*
X116713000Y-124333000D01*
X116713000Y-123190085D01*
X116967000Y-123190085D01*
X116967000Y-124333000D01*
X118110624Y-124333000D01*
X118231909Y-124110960D01*
X118137070Y-123846119D01*
X117992385Y-123604869D01*
X117803414Y-123396481D01*
X117577420Y-123228963D01*
X117323087Y-123108754D01*
X117189039Y-123068096D01*
X116967000Y-123190085D01*
X116713000Y-123190085D01*
X116490961Y-123068096D01*
X116356913Y-123108754D01*
X116102580Y-123228963D01*
X115876586Y-123396481D01*
X115687615Y-123604869D01*
X115570407Y-123800304D01*
X115495242Y-123658940D01*
X115318234Y-123441907D01*
X115102442Y-123263388D01*
X114856085Y-123130183D01*
X114588547Y-123047367D01*
X114310018Y-123018092D01*
X114031108Y-123043475D01*
X113762440Y-123122548D01*
X113514247Y-123252300D01*
X113295983Y-123427789D01*
X113115962Y-123642329D01*
X113029772Y-123799109D01*
X112955242Y-123658940D01*
X112778234Y-123441907D01*
X112562442Y-123263388D01*
X112316085Y-123130183D01*
X112048547Y-123047367D01*
X111770018Y-123018092D01*
X111491108Y-123043475D01*
X111222440Y-123122548D01*
X110974247Y-123252300D01*
X110755983Y-123427789D01*
X110575962Y-123642329D01*
X110489772Y-123799109D01*
X110415242Y-123658940D01*
X110238234Y-123441907D01*
X110022442Y-123263388D01*
X109776085Y-123130183D01*
X109508547Y-123047367D01*
X109230018Y-123018092D01*
X108951108Y-123043475D01*
X108682440Y-123122548D01*
X108434247Y-123252300D01*
X108215983Y-123427789D01*
X108035962Y-123642329D01*
X107949772Y-123799109D01*
X107875242Y-123658940D01*
X107698234Y-123441907D01*
X107482442Y-123263388D01*
X107236085Y-123130183D01*
X106968547Y-123047367D01*
X106690018Y-123018092D01*
X106411108Y-123043475D01*
X106142440Y-123122548D01*
X105894247Y-123252300D01*
X105675983Y-123427789D01*
X105495962Y-123642329D01*
X105409772Y-123799109D01*
X105335242Y-123658940D01*
X105158234Y-123441907D01*
X104942442Y-123263388D01*
X104696085Y-123130183D01*
X104428547Y-123047367D01*
X104150018Y-123018092D01*
X103871108Y-123043475D01*
X103602440Y-123122548D01*
X103354247Y-123252300D01*
X103135983Y-123427789D01*
X103028924Y-123555377D01*
X102976894Y-123387366D01*
X102878100Y-123237441D01*
X102741450Y-123120975D01*
X102577763Y-123047190D01*
X102400000Y-123021928D01*
X100800000Y-123021928D01*
X100698879Y-123029992D01*
X100527366Y-123083106D01*
X100377441Y-123181900D01*
X100260975Y-123318550D01*
X100187190Y-123482237D01*
X100161928Y-123660000D01*
X100161928Y-124303592D01*
X96191038Y-120332702D01*
X96976903Y-120332702D01*
X97048486Y-120576671D01*
X97303996Y-120697571D01*
X97578184Y-120766300D01*
X97860512Y-120780217D01*
X98140130Y-120738787D01*
X98406292Y-120643603D01*
X98531514Y-120576671D01*
X98603097Y-120332702D01*
X97790000Y-119519605D01*
X96976903Y-120332702D01*
X96191038Y-120332702D01*
X95700312Y-119841976D01*
X95632314Y-119786121D01*
X95564924Y-119729574D01*
X95560536Y-119727162D01*
X95556665Y-119723982D01*
X95479103Y-119682394D01*
X95402023Y-119640019D01*
X95397250Y-119638505D01*
X95392834Y-119636137D01*
X95308702Y-119610415D01*
X95224829Y-119583809D01*
X95219848Y-119583250D01*
X95215062Y-119581787D01*
X95127560Y-119572899D01*
X95040092Y-119563088D01*
X95030300Y-119563020D01*
X95030118Y-119563001D01*
X95029948Y-119563017D01*
X95026793Y-119562995D01*
X86494505Y-119562995D01*
X86406904Y-119571584D01*
X86319291Y-119579249D01*
X86314482Y-119580646D01*
X86309497Y-119581135D01*
X86225234Y-119606576D01*
X86140777Y-119631113D01*
X86136334Y-119633416D01*
X86131535Y-119634865D01*
X86053863Y-119676164D01*
X85975736Y-119716661D01*
X85971817Y-119719789D01*
X85967400Y-119722138D01*
X85899258Y-119777713D01*
X85830455Y-119832638D01*
X85823481Y-119839515D01*
X85823341Y-119839629D01*
X85823234Y-119839758D01*
X85820985Y-119841976D01*
X82636800Y-123026162D01*
X82560018Y-123018092D01*
X82281108Y-123043475D01*
X82012440Y-123122548D01*
X81764247Y-123252300D01*
X81545983Y-123427789D01*
X81365962Y-123642329D01*
X81279772Y-123799109D01*
X81205242Y-123658940D01*
X81028234Y-123441907D01*
X80812442Y-123263388D01*
X80566085Y-123130183D01*
X80298547Y-123047367D01*
X80020018Y-123018092D01*
X79741108Y-123043475D01*
X79472440Y-123122548D01*
X79224247Y-123252300D01*
X79005983Y-123427789D01*
X78898924Y-123555377D01*
X78846894Y-123387366D01*
X78748100Y-123237441D01*
X78611450Y-123120975D01*
X78447763Y-123047190D01*
X78270000Y-123021928D01*
X77626408Y-123021928D01*
X81237824Y-119410512D01*
X96349783Y-119410512D01*
X96391213Y-119690130D01*
X96486397Y-119956292D01*
X96553329Y-120081514D01*
X96797298Y-120153097D01*
X97610395Y-119340000D01*
X97969605Y-119340000D01*
X98782702Y-120153097D01*
X99026671Y-120081514D01*
X99147571Y-119826004D01*
X99216300Y-119551816D01*
X99230217Y-119269488D01*
X99188787Y-118989870D01*
X99093603Y-118723708D01*
X99026671Y-118598486D01*
X98782702Y-118526903D01*
X97969605Y-119340000D01*
X97610395Y-119340000D01*
X96797298Y-118526903D01*
X96553329Y-118598486D01*
X96432429Y-118853996D01*
X96363700Y-119128184D01*
X96349783Y-119410512D01*
X81237824Y-119410512D01*
X81484335Y-119164001D01*
X91338499Y-119164001D01*
X91426100Y-119155412D01*
X91513713Y-119147747D01*
X91518522Y-119146350D01*
X91523507Y-119145861D01*
X91607738Y-119120430D01*
X91692226Y-119095884D01*
X91696673Y-119093579D01*
X91701469Y-119092131D01*
X91779124Y-119050841D01*
X91857268Y-119010335D01*
X91861187Y-119007207D01*
X91865604Y-119004858D01*
X91933746Y-118949283D01*
X92002549Y-118894358D01*
X92009519Y-118887485D01*
X92009663Y-118887367D01*
X92009773Y-118887234D01*
X92012018Y-118885020D01*
X92623200Y-118273838D01*
X92699982Y-118281908D01*
X92978892Y-118256525D01*
X93247560Y-118177452D01*
X93495753Y-118047700D01*
X93714017Y-117872211D01*
X93894038Y-117657671D01*
X94028959Y-117412250D01*
X94113642Y-117145296D01*
X94144860Y-116866979D01*
X94145000Y-116846943D01*
X94145000Y-116833057D01*
X94117671Y-116554331D01*
X94036724Y-116286221D01*
X93905242Y-116038940D01*
X93728234Y-115821907D01*
X93577248Y-115697000D01*
X96915873Y-115697000D01*
X96886473Y-115716239D01*
X96886473Y-115716239D01*
G37*
X96886473Y-115716239D02*
X96685408Y-115913137D01*
X96526416Y-116145339D01*
X96415553Y-116404000D01*
X96357043Y-116679268D01*
X96353114Y-116960659D01*
X96403915Y-117237453D01*
X96507512Y-117499109D01*
X96659959Y-117735660D01*
X96855448Y-117938095D01*
X97073755Y-118089822D01*
X97048486Y-118103329D01*
X96976903Y-118347298D01*
X97790000Y-119160395D01*
X98603097Y-118347298D01*
X98531514Y-118103329D01*
X98500589Y-118088696D01*
X98677749Y-117976267D01*
X98881544Y-117782195D01*
X99043762Y-117552236D01*
X99158225Y-117295148D01*
X99220573Y-117020723D01*
X99225061Y-116699291D01*
X99170400Y-116423233D01*
X99063160Y-116163049D01*
X98907426Y-115928650D01*
X98709129Y-115728964D01*
X98661740Y-115697000D01*
X100733777Y-115697000D01*
X100595983Y-115807789D01*
X100415962Y-116022329D01*
X100281041Y-116267750D01*
X100196358Y-116534704D01*
X100165140Y-116813021D01*
X100165000Y-116833057D01*
X100165000Y-116846943D01*
X100192329Y-117125669D01*
X100273276Y-117393779D01*
X100404758Y-117641060D01*
X100581766Y-117858093D01*
X100797558Y-118036612D01*
X101043915Y-118169817D01*
X101311453Y-118252633D01*
X101589982Y-118281908D01*
X101868892Y-118256525D01*
X102137560Y-118177452D01*
X102385753Y-118047700D01*
X102604017Y-117872211D01*
X102784038Y-117657671D01*
X102870228Y-117500891D01*
X102944758Y-117641060D01*
X103121766Y-117858093D01*
X103337558Y-118036612D01*
X103583915Y-118169817D01*
X103851453Y-118252633D01*
X104129982Y-118281908D01*
X104408892Y-118256525D01*
X104677560Y-118177452D01*
X104925753Y-118047700D01*
X105144017Y-117872211D01*
X105324038Y-117657671D01*
X105410228Y-117500891D01*
X105484758Y-117641060D01*
X105661766Y-117858093D01*
X105877558Y-118036612D01*
X106123915Y-118169817D01*
X106391453Y-118252633D01*
X106669982Y-118281908D01*
X106948892Y-118256525D01*
X107217560Y-118177452D01*
X107465753Y-118047700D01*
X107684017Y-117872211D01*
X107864038Y-117657671D01*
X107950228Y-117500891D01*
X108024758Y-117641060D01*
X108201766Y-117858093D01*
X108417558Y-118036612D01*
X108663915Y-118169817D01*
X108931453Y-118252633D01*
X109209982Y-118281908D01*
X109488892Y-118256525D01*
X109757560Y-118177452D01*
X110005753Y-118047700D01*
X110224017Y-117872211D01*
X110404038Y-117657671D01*
X110490228Y-117500891D01*
X110564758Y-117641060D01*
X110741766Y-117858093D01*
X110957558Y-118036612D01*
X111203915Y-118169817D01*
X111471453Y-118252633D01*
X111749982Y-118281908D01*
X112028892Y-118256525D01*
X112297560Y-118177452D01*
X112545753Y-118047700D01*
X112764017Y-117872211D01*
X112944038Y-117657671D01*
X113030228Y-117500891D01*
X113104758Y-117641060D01*
X113281766Y-117858093D01*
X113497558Y-118036612D01*
X113743915Y-118169817D01*
X114011453Y-118252633D01*
X114289982Y-118281908D01*
X114568892Y-118256525D01*
X114837560Y-118177452D01*
X115085753Y-118047700D01*
X115304017Y-117872211D01*
X115484038Y-117657671D01*
X115570228Y-117500891D01*
X115644758Y-117641060D01*
X115821766Y-117858093D01*
X116037558Y-118036612D01*
X116283915Y-118169817D01*
X116551453Y-118252633D01*
X116829982Y-118281908D01*
X117108892Y-118256525D01*
X117377560Y-118177452D01*
X117525746Y-118099982D01*
X121748092Y-118099982D01*
X121773475Y-118378892D01*
X121852548Y-118647560D01*
X121982300Y-118895753D01*
X122157789Y-119114017D01*
X122372329Y-119294038D01*
X122617750Y-119428959D01*
X122884704Y-119513642D01*
X123163021Y-119544860D01*
X123183057Y-119545000D01*
X123196943Y-119545000D01*
X123475669Y-119517671D01*
X123743779Y-119436724D01*
X123991060Y-119305242D01*
X124208093Y-119128234D01*
X124386612Y-118912442D01*
X124519817Y-118666085D01*
X124602633Y-118398547D01*
X124620278Y-118230659D01*
X129373114Y-118230659D01*
X129423915Y-118507453D01*
X129527512Y-118769109D01*
X129679959Y-119005660D01*
X129875448Y-119208095D01*
X130106534Y-119368704D01*
X130364415Y-119481369D01*
X130639268Y-119541800D01*
X130900228Y-119547266D01*
X132753012Y-121400050D01*
X132753012Y-123380512D01*
X132761601Y-123468113D01*
X132769266Y-123555726D01*
X132770663Y-123560535D01*
X132771152Y-123565520D01*
X132796583Y-123649751D01*
X132821129Y-123734239D01*
X132823434Y-123738686D01*
X132824882Y-123743482D01*
X132866172Y-123821137D01*
X132906678Y-123899281D01*
X132909806Y-123903200D01*
X132912155Y-123907617D01*
X132967730Y-123975759D01*
X133022655Y-124044562D01*
X133029528Y-124051532D01*
X133029646Y-124051676D01*
X133029779Y-124051786D01*
X133031993Y-124054031D01*
X134686984Y-125709022D01*
X134667441Y-125721900D01*
X134550975Y-125858550D01*
X134477190Y-126022237D01*
X134451928Y-126200000D01*
X134451928Y-127800000D01*
X134459992Y-127901121D01*
X134513106Y-128072634D01*
X134611900Y-128222559D01*
X134748550Y-128339025D01*
X134912237Y-128412810D01*
X134944453Y-128417388D01*
X134785408Y-128573137D01*
X134626416Y-128805339D01*
X134515553Y-129064000D01*
X134457043Y-129339268D01*
X134453114Y-129620659D01*
X134503915Y-129897453D01*
X134607512Y-130159109D01*
X134759959Y-130395660D01*
X134955448Y-130598095D01*
X135186534Y-130758704D01*
X135444415Y-130871369D01*
X135719268Y-130931800D01*
X136000624Y-130937693D01*
X136277767Y-130888826D01*
X136540140Y-130787058D01*
X136777749Y-130636267D01*
X136981544Y-130442195D01*
X137143762Y-130212236D01*
X137258225Y-129955148D01*
X137320573Y-129680723D01*
X137325061Y-129359291D01*
X137270400Y-129083233D01*
X137163160Y-128823049D01*
X137007426Y-128588650D01*
X136836066Y-128416090D01*
X136962634Y-128376894D01*
X137112559Y-128278100D01*
X137229025Y-128141450D01*
X137302810Y-127977763D01*
X137328072Y-127800000D01*
X137328072Y-126240000D01*
X140801928Y-126240000D01*
X140801928Y-127840000D01*
X140809992Y-127941121D01*
X140863106Y-128112634D01*
X140961900Y-128262559D01*
X141098550Y-128379025D01*
X141262237Y-128452810D01*
X141294453Y-128457388D01*
X141135408Y-128613137D01*
X140976416Y-128845339D01*
X140865553Y-129104000D01*
X140807043Y-129379268D01*
X140803114Y-129660659D01*
X140853915Y-129937453D01*
X140957512Y-130199109D01*
X141109959Y-130435660D01*
X141305448Y-130638095D01*
X141536534Y-130798704D01*
X141794415Y-130911369D01*
X142069268Y-130971800D01*
X142350624Y-130977693D01*
X142627767Y-130928826D01*
X142890140Y-130827058D01*
X143127749Y-130676267D01*
X143331544Y-130482195D01*
X143493762Y-130252236D01*
X143608225Y-129995148D01*
X143670573Y-129720723D01*
X143675061Y-129399291D01*
X143620400Y-129123233D01*
X143537326Y-128921679D01*
X148182785Y-128921679D01*
X148242437Y-129246696D01*
X148364082Y-129553937D01*
X148543087Y-129831698D01*
X148772634Y-130069401D01*
X149043979Y-130257991D01*
X149346787Y-130390284D01*
X149669524Y-130461243D01*
X149999897Y-130468163D01*
X150325322Y-130410782D01*
X150633405Y-130291284D01*
X150912409Y-130114223D01*
X151151708Y-129886341D01*
X151342188Y-129616319D01*
X151476592Y-129314442D01*
X151549802Y-128992208D01*
X151550786Y-128921679D01*
X151982785Y-128921679D01*
X152042437Y-129246696D01*
X152164082Y-129553937D01*
X152343087Y-129831698D01*
X152572634Y-130069401D01*
X152843979Y-130257991D01*
X153146787Y-130390284D01*
X153469524Y-130461243D01*
X153799897Y-130468163D01*
X154125322Y-130410782D01*
X154433405Y-130291284D01*
X154712409Y-130114223D01*
X154951708Y-129886341D01*
X155142188Y-129616319D01*
X155276592Y-129314442D01*
X155349802Y-128992208D01*
X155351918Y-128840617D01*
X155777934Y-128840617D01*
X155822272Y-129169557D01*
X155929931Y-129483527D01*
X156029421Y-129669661D01*
X156298934Y-129771461D01*
X157290395Y-128780000D01*
X156298934Y-127788539D01*
X156029421Y-127890339D01*
X155883537Y-128188477D01*
X155798620Y-128509346D01*
X155777934Y-128840617D01*
X155351918Y-128840617D01*
X155355072Y-128614777D01*
X155290888Y-128290625D01*
X155164965Y-127985113D01*
X154982100Y-127709878D01*
X154749256Y-127475403D01*
X154475305Y-127290620D01*
X154170679Y-127162568D01*
X153846983Y-127096122D01*
X153516545Y-127093815D01*
X153191953Y-127155735D01*
X152885569Y-127279522D01*
X152609064Y-127460462D01*
X152372970Y-127691662D01*
X152186279Y-127964317D01*
X152056102Y-128268042D01*
X151987399Y-128591266D01*
X151982785Y-128921679D01*
X151550786Y-128921679D01*
X151555072Y-128614777D01*
X151490888Y-128290625D01*
X151364965Y-127985113D01*
X151182100Y-127709878D01*
X150949256Y-127475403D01*
X150675305Y-127290620D01*
X150370679Y-127162568D01*
X150046983Y-127096122D01*
X149716545Y-127093815D01*
X149391953Y-127155735D01*
X149085569Y-127279522D01*
X148809064Y-127460462D01*
X148572970Y-127691662D01*
X148386279Y-127964317D01*
X148256102Y-128268042D01*
X148187399Y-128591266D01*
X148182785Y-128921679D01*
X143537326Y-128921679D01*
X143513160Y-128863049D01*
X143357426Y-128628650D01*
X143186066Y-128456090D01*
X143312634Y-128416894D01*
X143462559Y-128318100D01*
X143579025Y-128181450D01*
X143652810Y-128017763D01*
X143678072Y-127840000D01*
X143678072Y-126240000D01*
X143670008Y-126138879D01*
X143616894Y-125967366D01*
X143518100Y-125817441D01*
X143381450Y-125700975D01*
X143217763Y-125627190D01*
X143040000Y-125601928D01*
X141440000Y-125601928D01*
X141338879Y-125609992D01*
X141167366Y-125663106D01*
X141017441Y-125761900D01*
X140900975Y-125898550D01*
X140827190Y-126062237D01*
X140801928Y-126240000D01*
X137328072Y-126240000D01*
X137328072Y-126200000D01*
X137320008Y-126098879D01*
X137266894Y-125927366D01*
X137168100Y-125777441D01*
X137031450Y-125660975D01*
X136867763Y-125587190D01*
X136842500Y-125583600D01*
X136842500Y-125565000D01*
X136833915Y-125477440D01*
X136826246Y-125389786D01*
X136824849Y-125384977D01*
X136824360Y-125379992D01*
X136798929Y-125295761D01*
X136774383Y-125211273D01*
X136772078Y-125206826D01*
X136770630Y-125202030D01*
X136729340Y-125124375D01*
X136688834Y-125046231D01*
X136685706Y-125042312D01*
X136683357Y-125037895D01*
X136627787Y-124969759D01*
X136572858Y-124900951D01*
X136565980Y-124893976D01*
X136565866Y-124893836D01*
X136565737Y-124893729D01*
X136563520Y-124891481D01*
X134658012Y-122985974D01*
X134658012Y-122659294D01*
X134682300Y-122705753D01*
X134857789Y-122924017D01*
X135072329Y-123104038D01*
X135317750Y-123238959D01*
X135584704Y-123323642D01*
X135863021Y-123354860D01*
X135883057Y-123355000D01*
X135896943Y-123355000D01*
X136175669Y-123327671D01*
X136443779Y-123246724D01*
X136691060Y-123115242D01*
X136908093Y-122938234D01*
X137086612Y-122722442D01*
X137219817Y-122476085D01*
X137302633Y-122208547D01*
X137320278Y-122040659D01*
X142073114Y-122040659D01*
X142123915Y-122317453D01*
X142227512Y-122579109D01*
X142379959Y-122815660D01*
X142575448Y-123018095D01*
X142806534Y-123178704D01*
X143064415Y-123291369D01*
X143339268Y-123351800D01*
X143620624Y-123357693D01*
X143897767Y-123308826D01*
X144160140Y-123207058D01*
X144397749Y-123056267D01*
X144601544Y-122862195D01*
X144763762Y-122632236D01*
X144878225Y-122375148D01*
X144940573Y-122100723D01*
X144945061Y-121779291D01*
X144890400Y-121503233D01*
X144783160Y-121243049D01*
X144627426Y-121008650D01*
X144429129Y-120808964D01*
X144195823Y-120651597D01*
X143936394Y-120542543D01*
X143660724Y-120485956D01*
X143379313Y-120483991D01*
X143102880Y-120536724D01*
X142841954Y-120642145D01*
X142606473Y-120796239D01*
X142405408Y-120993137D01*
X142246416Y-121225339D01*
X142135553Y-121484000D01*
X142077043Y-121759268D01*
X142073114Y-122040659D01*
X137320278Y-122040659D01*
X137331908Y-121930018D01*
X137306525Y-121651108D01*
X137227452Y-121382440D01*
X137097700Y-121134247D01*
X136922211Y-120915983D01*
X136707671Y-120735962D01*
X136462250Y-120601041D01*
X136195296Y-120516358D01*
X135916979Y-120485140D01*
X135896943Y-120485000D01*
X135883057Y-120485000D01*
X135604331Y-120512329D01*
X135336221Y-120593276D01*
X135088940Y-120724758D01*
X134871907Y-120901766D01*
X134693388Y-121117558D01*
X134658012Y-121182984D01*
X134658012Y-121005512D01*
X134649423Y-120917911D01*
X134641758Y-120830298D01*
X134640361Y-120825489D01*
X134639872Y-120820504D01*
X134614431Y-120736241D01*
X134589894Y-120651784D01*
X134587591Y-120647341D01*
X134586142Y-120642542D01*
X134544843Y-120564870D01*
X134504346Y-120486743D01*
X134501218Y-120482824D01*
X134498869Y-120478407D01*
X134443294Y-120410265D01*
X134388369Y-120341462D01*
X134381496Y-120334492D01*
X134381378Y-120334348D01*
X134381245Y-120334238D01*
X134379031Y-120331993D01*
X132277697Y-118230659D01*
X134453114Y-118230659D01*
X134503915Y-118507453D01*
X134607512Y-118769109D01*
X134759959Y-119005660D01*
X134955448Y-119208095D01*
X135186534Y-119368704D01*
X135444415Y-119481369D01*
X135719268Y-119541800D01*
X136000624Y-119547693D01*
X136148159Y-119521679D01*
X148182785Y-119521679D01*
X148242437Y-119846696D01*
X148364082Y-120153937D01*
X148543087Y-120431698D01*
X148772634Y-120669401D01*
X149043979Y-120857991D01*
X149346787Y-120990284D01*
X149669524Y-121061243D01*
X149999897Y-121068163D01*
X150325322Y-121010782D01*
X150633405Y-120891284D01*
X150912409Y-120714223D01*
X151151708Y-120486341D01*
X151342188Y-120216319D01*
X151476592Y-119914442D01*
X151549802Y-119592208D01*
X151550786Y-119521679D01*
X151982785Y-119521679D01*
X152042437Y-119846696D01*
X152164082Y-120153937D01*
X152343087Y-120431698D01*
X152572634Y-120669401D01*
X152843979Y-120857991D01*
X153146787Y-120990284D01*
X153469524Y-121061243D01*
X153799897Y-121068163D01*
X154125322Y-121010782D01*
X154433405Y-120891284D01*
X154712409Y-120714223D01*
X154951708Y-120486341D01*
X155142188Y-120216319D01*
X155276592Y-119914442D01*
X155349802Y-119592208D01*
X155351918Y-119440617D01*
X155777934Y-119440617D01*
X155822272Y-119769557D01*
X155929931Y-120083527D01*
X156029421Y-120269661D01*
X156298934Y-120371461D01*
X157290395Y-119380000D01*
X156298934Y-118388539D01*
X156029421Y-118490339D01*
X155883537Y-118788477D01*
X155798620Y-119109346D01*
X155777934Y-119440617D01*
X155351918Y-119440617D01*
X155355072Y-119214777D01*
X155290888Y-118890625D01*
X155164965Y-118585113D01*
X154982100Y-118309878D01*
X154749256Y-118075403D01*
X154475305Y-117890620D01*
X154170679Y-117762568D01*
X153846983Y-117696122D01*
X153516545Y-117693815D01*
X153191953Y-117755735D01*
X152885569Y-117879522D01*
X152609064Y-118060462D01*
X152372970Y-118291662D01*
X152186279Y-118564317D01*
X152056102Y-118868042D01*
X151987399Y-119191266D01*
X151982785Y-119521679D01*
X151550786Y-119521679D01*
X151555072Y-119214777D01*
X151490888Y-118890625D01*
X151364965Y-118585113D01*
X151182100Y-118309878D01*
X150949256Y-118075403D01*
X150675305Y-117890620D01*
X150370679Y-117762568D01*
X150046983Y-117696122D01*
X149716545Y-117693815D01*
X149391953Y-117755735D01*
X149085569Y-117879522D01*
X148809064Y-118060462D01*
X148572970Y-118291662D01*
X148386279Y-118564317D01*
X148256102Y-118868042D01*
X148187399Y-119191266D01*
X148182785Y-119521679D01*
X136148159Y-119521679D01*
X136277767Y-119498826D01*
X136540140Y-119397058D01*
X136777749Y-119246267D01*
X136981544Y-119052195D01*
X137143762Y-118822236D01*
X137258225Y-118565148D01*
X137282332Y-118459039D01*
X142118096Y-118459039D01*
X142158754Y-118593087D01*
X142278963Y-118847420D01*
X142446481Y-119073414D01*
X142654869Y-119262385D01*
X142896119Y-119407070D01*
X143160960Y-119501909D01*
X143383000Y-119380624D01*
X143383000Y-118237000D01*
X143637000Y-118237000D01*
X143637000Y-119380624D01*
X143859040Y-119501909D01*
X144123881Y-119407070D01*
X144365131Y-119262385D01*
X144573519Y-119073414D01*
X144741037Y-118847420D01*
X144861246Y-118593087D01*
X144901904Y-118459039D01*
X144779915Y-118237000D01*
X143637000Y-118237000D01*
X143383000Y-118237000D01*
X142240085Y-118237000D01*
X142118096Y-118459039D01*
X137282332Y-118459039D01*
X137320573Y-118290723D01*
X137325061Y-117969291D01*
X137283811Y-117760961D01*
X142118096Y-117760961D01*
X142240085Y-117983000D01*
X143383000Y-117983000D01*
X143383000Y-116839376D01*
X143637000Y-116839376D01*
X143637000Y-117983000D01*
X144779915Y-117983000D01*
X144901904Y-117760961D01*
X144861246Y-117626913D01*
X144741037Y-117372580D01*
X144573519Y-117146586D01*
X144365131Y-116957615D01*
X144123881Y-116812930D01*
X143859040Y-116718091D01*
X143637000Y-116839376D01*
X143383000Y-116839376D01*
X143160960Y-116718091D01*
X142896119Y-116812930D01*
X142654869Y-116957615D01*
X142446481Y-117146586D01*
X142278963Y-117372580D01*
X142158754Y-117626913D01*
X142118096Y-117760961D01*
X137283811Y-117760961D01*
X137270400Y-117693233D01*
X137163160Y-117433049D01*
X137007426Y-117198650D01*
X136809129Y-116998964D01*
X136575823Y-116841597D01*
X136316394Y-116732543D01*
X136040724Y-116675956D01*
X135759313Y-116673991D01*
X135482880Y-116726724D01*
X135221954Y-116832145D01*
X134986473Y-116986239D01*
X134785408Y-117183137D01*
X134626416Y-117415339D01*
X134515553Y-117674000D01*
X134457043Y-117949268D01*
X134453114Y-118230659D01*
X132277697Y-118230659D01*
X132241911Y-118194873D01*
X132245061Y-117969291D01*
X132190400Y-117693233D01*
X132083160Y-117433049D01*
X131927426Y-117198650D01*
X131729129Y-116998964D01*
X131495823Y-116841597D01*
X131236394Y-116732543D01*
X130960724Y-116675956D01*
X130679313Y-116673991D01*
X130402880Y-116726724D01*
X130141954Y-116832145D01*
X129906473Y-116986239D01*
X129705408Y-117183137D01*
X129546416Y-117415339D01*
X129435553Y-117674000D01*
X129377043Y-117949268D01*
X129373114Y-118230659D01*
X124620278Y-118230659D01*
X124631908Y-118120018D01*
X124606525Y-117841108D01*
X124527452Y-117572440D01*
X124397700Y-117324247D01*
X124222211Y-117105983D01*
X124007671Y-116925962D01*
X123762250Y-116791041D01*
X123495296Y-116706358D01*
X123216979Y-116675140D01*
X123196943Y-116675000D01*
X123183057Y-116675000D01*
X122904331Y-116702329D01*
X122636221Y-116783276D01*
X122388940Y-116914758D01*
X122171907Y-117091766D01*
X121993388Y-117307558D01*
X121860183Y-117553915D01*
X121777367Y-117821453D01*
X121748092Y-118099982D01*
X117525746Y-118099982D01*
X117625753Y-118047700D01*
X117844017Y-117872211D01*
X118024038Y-117657671D01*
X118158959Y-117412250D01*
X118243642Y-117145296D01*
X118274860Y-116866979D01*
X118275000Y-116846943D01*
X118275000Y-116833057D01*
X118247671Y-116554331D01*
X118166724Y-116286221D01*
X118035242Y-116038940D01*
X117858234Y-115821907D01*
X117707248Y-115697000D01*
X154259020Y-115697000D01*
X156811861Y-117824368D01*
X156766473Y-117839931D01*
X156580339Y-117939421D01*
X156478539Y-118208934D01*
X157470000Y-119200395D01*
X157484143Y-119186253D01*
X157663748Y-119365858D01*
X157649605Y-119380000D01*
X157663748Y-119394143D01*
X157484143Y-119573748D01*
X157470000Y-119559605D01*
X156478539Y-120551066D01*
X156580339Y-120820579D01*
X156878477Y-120966463D01*
X157199346Y-121051380D01*
X157530617Y-121072066D01*
X157859557Y-121027728D01*
X157988000Y-120983685D01*
X157988000Y-127174079D01*
X157740654Y-127108620D01*
X157409383Y-127087934D01*
X157080443Y-127132272D01*
X156766473Y-127239931D01*
X156580339Y-127339421D01*
X156478539Y-127608934D01*
X157470000Y-128600395D01*
X157484143Y-128586253D01*
X157663748Y-128765858D01*
X157649605Y-128780000D01*
X157663748Y-128794143D01*
X157484143Y-128973748D01*
X157470000Y-128959605D01*
X156478539Y-129951066D01*
X156580339Y-130220579D01*
X156878477Y-130366463D01*
X157199346Y-130451380D01*
X157530617Y-130472066D01*
X157859557Y-130427728D01*
X157988000Y-130383685D01*
X157988000Y-134601618D01*
X157900709Y-134648032D01*
X157676113Y-134831207D01*
X157652320Y-134859968D01*
X157650277Y-134849697D01*
X157602410Y-134734135D01*
X157532917Y-134630131D01*
X157444469Y-134541683D01*
X157340465Y-134472190D01*
X157224903Y-134424323D01*
X157102222Y-134399920D01*
X156475430Y-134399920D01*
X156316680Y-134558670D01*
X156316680Y-135757920D01*
X156336680Y-135757920D01*
X156336680Y-136011920D01*
X156316680Y-136011920D01*
X156316680Y-136031920D01*
X156062680Y-136031920D01*
X156062680Y-136011920D01*
X154863430Y-136011920D01*
X154704680Y-136170670D01*
X154704680Y-136797462D01*
X154729083Y-136920143D01*
X154776950Y-137035705D01*
X154846443Y-137139709D01*
X154934891Y-137228157D01*
X155038895Y-137297650D01*
X155154457Y-137345517D01*
X155165033Y-137347621D01*
X155136113Y-137371207D01*
X154951374Y-137594519D01*
X154910335Y-137670420D01*
X154847429Y-137675923D01*
X154843581Y-137677041D01*
X154839592Y-137677432D01*
X154772227Y-137697771D01*
X154704617Y-137717413D01*
X154701057Y-137719259D01*
X154697223Y-137720416D01*
X154635081Y-137753457D01*
X154572585Y-137785853D01*
X154569455Y-137788352D01*
X154565915Y-137790234D01*
X154511368Y-137834721D01*
X154456359Y-137878634D01*
X154450780Y-137884136D01*
X154450668Y-137884227D01*
X154450582Y-137884331D01*
X154448784Y-137886104D01*
X152512363Y-139822525D01*
X152524220Y-139716819D01*
X152524360Y-139696783D01*
X152524360Y-139682897D01*
X152497031Y-139404171D01*
X152416084Y-139136061D01*
X152284602Y-138888780D01*
X152107594Y-138671747D01*
X151891802Y-138493228D01*
X151645445Y-138360023D01*
X151377907Y-138277207D01*
X151099378Y-138247932D01*
X150820468Y-138273315D01*
X150551800Y-138352388D01*
X150303607Y-138482140D01*
X150085343Y-138657629D01*
X149905322Y-138872169D01*
X149819132Y-139028949D01*
X149744602Y-138888780D01*
X149567594Y-138671747D01*
X149351802Y-138493228D01*
X149105445Y-138360023D01*
X148837907Y-138277207D01*
X148559378Y-138247932D01*
X148463240Y-138256681D01*
X145178937Y-134972378D01*
X154704680Y-134972378D01*
X154704680Y-135599170D01*
X154863430Y-135757920D01*
X156062680Y-135757920D01*
X156062680Y-134558670D01*
X155903930Y-134399920D01*
X155277138Y-134399920D01*
X155154457Y-134424323D01*
X155038895Y-134472190D01*
X154934891Y-134541683D01*
X154846443Y-134630131D01*
X154776950Y-134734135D01*
X154729083Y-134849697D01*
X154704680Y-134972378D01*
X145178937Y-134972378D01*
X142731538Y-132524980D01*
X142663540Y-132469125D01*
X142596150Y-132412578D01*
X142591762Y-132410166D01*
X142587891Y-132406986D01*
X142510329Y-132365398D01*
X142433249Y-132323023D01*
X142428476Y-132321509D01*
X142424060Y-132319141D01*
X142339928Y-132293419D01*
X142256055Y-132266813D01*
X142251074Y-132266254D01*
X142246288Y-132264791D01*
X142158786Y-132255903D01*
X142071318Y-132246092D01*
X142061526Y-132246024D01*
X142061344Y-132246005D01*
X142061174Y-132246021D01*
X142058019Y-132245999D01*
X135852799Y-132245999D01*
X135765198Y-132254588D01*
X135677585Y-132262253D01*
X135672776Y-132263650D01*
X135667791Y-132264139D01*
X135583560Y-132289570D01*
X135499072Y-132314116D01*
X135494625Y-132316421D01*
X135489829Y-132317869D01*
X135412174Y-132359159D01*
X135334030Y-132399665D01*
X135330111Y-132402793D01*
X135325694Y-132405142D01*
X135257552Y-132460717D01*
X135188749Y-132515642D01*
X135181779Y-132522515D01*
X135181635Y-132522633D01*
X135181525Y-132522766D01*
X135179280Y-132524980D01*
X133935259Y-133769001D01*
X132186437Y-133769001D01*
X132240573Y-133530723D01*
X132245061Y-133209291D01*
X132190400Y-132933233D01*
X132083160Y-132673049D01*
X131927426Y-132438650D01*
X131729129Y-132238964D01*
X131495823Y-132081597D01*
X131236394Y-131972543D01*
X130960724Y-131915956D01*
X130679313Y-131913991D01*
X130402880Y-131966724D01*
X130141954Y-132072145D01*
X129906473Y-132226239D01*
X129705408Y-132423137D01*
X129546416Y-132655339D01*
X129435553Y-132914000D01*
X129377043Y-133189268D01*
X129373114Y-133470659D01*
X129423915Y-133747453D01*
X129432446Y-133769001D01*
X124562251Y-133769001D01*
X124602633Y-133638547D01*
X124631908Y-133360018D01*
X124606525Y-133081108D01*
X124527452Y-132812440D01*
X124397700Y-132564247D01*
X124222211Y-132345983D01*
X124007671Y-132165962D01*
X123762250Y-132031041D01*
X123495296Y-131946358D01*
X123216979Y-131915140D01*
X123196943Y-131915000D01*
X123183057Y-131915000D01*
X122904331Y-131942329D01*
X122636221Y-132023276D01*
X122388940Y-132154758D01*
X122171907Y-132331766D01*
X121993388Y-132547558D01*
X121860183Y-132793915D01*
X121777367Y-133061453D01*
X121748092Y-133339982D01*
X121773475Y-133618892D01*
X121817654Y-133769001D01*
X119876039Y-133769001D01*
X117113366Y-131006328D01*
X117118261Y-131005882D01*
X117396291Y-130924053D01*
X117653131Y-130789780D01*
X117879000Y-130608177D01*
X118065294Y-130386161D01*
X118204916Y-130132189D01*
X118292549Y-129855934D01*
X118314452Y-129660659D01*
X121753114Y-129660659D01*
X121803915Y-129937453D01*
X121907512Y-130199109D01*
X122059959Y-130435660D01*
X122255448Y-130638095D01*
X122486534Y-130798704D01*
X122744415Y-130911369D01*
X123019268Y-130971800D01*
X123300624Y-130977693D01*
X123577767Y-130928826D01*
X123840140Y-130827058D01*
X124077749Y-130676267D01*
X124281544Y-130482195D01*
X124443762Y-130252236D01*
X124558225Y-129995148D01*
X124582332Y-129889039D01*
X129418096Y-129889039D01*
X129458754Y-130023087D01*
X129578963Y-130277420D01*
X129746481Y-130503414D01*
X129954869Y-130692385D01*
X130196119Y-130837070D01*
X130460960Y-130931909D01*
X130683000Y-130810624D01*
X130683000Y-129667000D01*
X130937000Y-129667000D01*
X130937000Y-130810624D01*
X131159040Y-130931909D01*
X131423881Y-130837070D01*
X131665131Y-130692385D01*
X131873519Y-130503414D01*
X132041037Y-130277420D01*
X132161246Y-130023087D01*
X132201904Y-129889039D01*
X132079915Y-129667000D01*
X130937000Y-129667000D01*
X130683000Y-129667000D01*
X129540085Y-129667000D01*
X129418096Y-129889039D01*
X124582332Y-129889039D01*
X124620573Y-129720723D01*
X124625061Y-129399291D01*
X124583811Y-129190961D01*
X129418096Y-129190961D01*
X129540085Y-129413000D01*
X130683000Y-129413000D01*
X130683000Y-128269376D01*
X130937000Y-128269376D01*
X130937000Y-129413000D01*
X132079915Y-129413000D01*
X132201904Y-129190961D01*
X132161246Y-129056913D01*
X132041037Y-128802580D01*
X131873519Y-128576586D01*
X131665131Y-128387615D01*
X131423881Y-128242930D01*
X131159040Y-128148091D01*
X130937000Y-128269376D01*
X130683000Y-128269376D01*
X130460960Y-128148091D01*
X130196119Y-128242930D01*
X129954869Y-128387615D01*
X129746481Y-128576586D01*
X129578963Y-128802580D01*
X129458754Y-129056913D01*
X129418096Y-129190961D01*
X124583811Y-129190961D01*
X124570400Y-129123233D01*
X124463160Y-128863049D01*
X124307426Y-128628650D01*
X124109129Y-128428964D01*
X123875823Y-128271597D01*
X123616394Y-128162543D01*
X123340724Y-128105956D01*
X123059313Y-128103991D01*
X122782880Y-128156724D01*
X122521954Y-128262145D01*
X122286473Y-128416239D01*
X122085408Y-128613137D01*
X121926416Y-128845339D01*
X121815553Y-129104000D01*
X121757043Y-129379268D01*
X121753114Y-129660659D01*
X118314452Y-129660659D01*
X118324855Y-129567919D01*
X118325000Y-129547185D01*
X118325000Y-129532815D01*
X118296718Y-129244377D01*
X118212951Y-128966925D01*
X118076888Y-128711029D01*
X117893713Y-128486433D01*
X117670401Y-128301694D01*
X117415461Y-128163848D01*
X117138601Y-128078146D01*
X116850367Y-128047851D01*
X116561739Y-128074118D01*
X116283709Y-128155947D01*
X116026869Y-128290220D01*
X115801000Y-128471823D01*
X115614706Y-128693839D01*
X115570502Y-128774247D01*
X115536888Y-128711029D01*
X115353713Y-128486433D01*
X115130401Y-128301694D01*
X114875461Y-128163848D01*
X114598601Y-128078146D01*
X114310367Y-128047851D01*
X114021739Y-128074118D01*
X113743709Y-128155947D01*
X113486869Y-128290220D01*
X113261000Y-128471823D01*
X113219189Y-128521651D01*
X113186894Y-128417366D01*
X113088100Y-128267441D01*
X112951450Y-128150975D01*
X112787763Y-128077190D01*
X112610000Y-128051928D01*
X110910000Y-128051928D01*
X110808879Y-128059992D01*
X110637366Y-128113106D01*
X110487441Y-128211900D01*
X110370975Y-128348550D01*
X110297190Y-128512237D01*
X110271928Y-128690000D01*
X110271928Y-130390000D01*
X110279992Y-130491121D01*
X110333106Y-130662634D01*
X110431900Y-130812559D01*
X110568550Y-130929025D01*
X110732237Y-131002810D01*
X110910000Y-131028072D01*
X112610000Y-131028072D01*
X112711121Y-131020008D01*
X112882634Y-130966894D01*
X113032559Y-130868100D01*
X113149025Y-130731450D01*
X113222810Y-130567763D01*
X113223171Y-130565224D01*
X113246287Y-130593567D01*
X113469599Y-130778306D01*
X113724539Y-130916152D01*
X114001399Y-131001854D01*
X114289633Y-131032149D01*
X114432142Y-131019180D01*
X118807982Y-135395020D01*
X118875980Y-135450875D01*
X118943370Y-135507422D01*
X118947758Y-135509834D01*
X118951629Y-135513014D01*
X119029191Y-135554602D01*
X119106271Y-135596977D01*
X119111044Y-135598491D01*
X119115460Y-135600859D01*
X119199592Y-135626581D01*
X119283465Y-135653187D01*
X119288446Y-135653746D01*
X119293232Y-135655209D01*
X119380734Y-135664097D01*
X119468202Y-135673908D01*
X119477994Y-135673976D01*
X119478176Y-135673995D01*
X119478346Y-135673979D01*
X119481501Y-135674001D01*
X134329797Y-135674001D01*
X134417398Y-135665412D01*
X134505011Y-135657747D01*
X134509820Y-135656350D01*
X134514805Y-135655861D01*
X134599036Y-135630430D01*
X134683524Y-135605884D01*
X134687971Y-135603579D01*
X134692767Y-135602131D01*
X134770422Y-135560841D01*
X134848566Y-135520335D01*
X134852485Y-135517207D01*
X134856902Y-135514858D01*
X134925044Y-135459283D01*
X134993847Y-135404358D01*
X135000817Y-135397485D01*
X135000961Y-135397367D01*
X135001071Y-135397234D01*
X135003316Y-135395020D01*
X135671928Y-134726408D01*
X135671928Y-135470000D01*
X135679992Y-135571121D01*
X135733106Y-135742634D01*
X135831900Y-135892559D01*
X135968550Y-136009025D01*
X136132237Y-136082810D01*
X136310000Y-136108072D01*
X138010000Y-136108072D01*
X138111121Y-136100008D01*
X138282634Y-136046894D01*
X138432559Y-135948100D01*
X138549025Y-135811450D01*
X138622810Y-135647763D01*
X138624714Y-135634364D01*
X138699731Y-135717588D01*
X138933080Y-135891641D01*
X139195901Y-136016825D01*
X139343110Y-136061476D01*
X139573000Y-135940155D01*
X139573000Y-134747000D01*
X139827000Y-134747000D01*
X139827000Y-135940155D01*
X140056890Y-136061476D01*
X140204099Y-136016825D01*
X140466920Y-135891641D01*
X140700269Y-135717588D01*
X140895178Y-135501355D01*
X141044157Y-135251252D01*
X141141481Y-134976891D01*
X141020814Y-134747000D01*
X139827000Y-134747000D01*
X139573000Y-134747000D01*
X139553000Y-134747000D01*
X139553000Y-134493000D01*
X139573000Y-134493000D01*
X139573000Y-134473000D01*
X139827000Y-134473000D01*
X139827000Y-134493000D01*
X141020814Y-134493000D01*
X141141481Y-134263109D01*
X141101712Y-134150999D01*
X141663481Y-134150999D01*
X145782015Y-138269534D01*
X145740468Y-138273315D01*
X145471800Y-138352388D01*
X145223607Y-138482140D01*
X145005343Y-138657629D01*
X144825322Y-138872169D01*
X144738704Y-139029728D01*
X144621745Y-138834709D01*
X144432774Y-138626321D01*
X144206780Y-138458803D01*
X143952447Y-138338594D01*
X143818399Y-138297936D01*
X143596360Y-138419925D01*
X143596360Y-139562840D01*
X143616360Y-139562840D01*
X143616360Y-139816840D01*
X143596360Y-139816840D01*
X143596360Y-139836840D01*
X143342360Y-139836840D01*
X143342360Y-139816840D01*
X143322360Y-139816840D01*
X143322360Y-139562840D01*
X143342360Y-139562840D01*
X143342360Y-138419925D01*
X143120321Y-138297936D01*
X142986273Y-138338594D01*
X142731940Y-138458803D01*
X142505946Y-138626321D01*
X142316975Y-138834709D01*
X142199767Y-139030144D01*
X142124602Y-138888780D01*
X141947594Y-138671747D01*
X141731802Y-138493228D01*
X141485445Y-138360023D01*
X141217907Y-138277207D01*
X140939378Y-138247932D01*
X140660468Y-138273315D01*
X140391800Y-138352388D01*
X140143607Y-138482140D01*
X139925343Y-138657629D01*
X139745322Y-138872169D01*
X139659132Y-139028949D01*
X139584602Y-138888780D01*
X139407594Y-138671747D01*
X139191802Y-138493228D01*
X138945445Y-138360023D01*
X138677907Y-138277207D01*
X138399378Y-138247932D01*
X138120468Y-138273315D01*
X137851800Y-138352388D01*
X137603607Y-138482140D01*
X137385343Y-138657629D01*
X137205322Y-138872169D01*
X137119132Y-139028949D01*
X137044602Y-138888780D01*
X136867594Y-138671747D01*
X136651802Y-138493228D01*
X136405445Y-138360023D01*
X136137907Y-138277207D01*
X135859378Y-138247932D01*
X135763239Y-138256681D01*
X133993039Y-136486481D01*
X133925041Y-136430626D01*
X133857651Y-136374079D01*
X133853263Y-136371667D01*
X133849392Y-136368487D01*
X133771830Y-136326899D01*
X133694750Y-136284524D01*
X133689977Y-136283010D01*
X133685561Y-136280642D01*
X133601429Y-136254920D01*
X133517556Y-136228314D01*
X133512575Y-136227755D01*
X133507789Y-136226292D01*
X133420287Y-136217404D01*
X133332819Y-136207593D01*
X133323027Y-136207525D01*
X133322845Y-136207506D01*
X133322675Y-136207522D01*
X133319520Y-136207500D01*
X112065836Y-136207500D01*
X101756408Y-125898072D01*
X102400000Y-125898072D01*
X102501121Y-125890008D01*
X102672634Y-125836894D01*
X102822559Y-125738100D01*
X102939025Y-125601450D01*
X103012810Y-125437763D01*
X103024097Y-125358339D01*
X103121766Y-125478093D01*
X103337558Y-125656612D01*
X103583915Y-125789817D01*
X103851453Y-125872633D01*
X104129982Y-125901908D01*
X104226121Y-125893159D01*
X104837982Y-126505020D01*
X104905953Y-126560852D01*
X104973370Y-126617422D01*
X104977762Y-126619836D01*
X104981629Y-126623013D01*
X105059152Y-126664581D01*
X105136271Y-126706977D01*
X105141044Y-126708491D01*
X105145460Y-126710859D01*
X105229551Y-126736568D01*
X105313465Y-126763187D01*
X105318451Y-126763746D01*
X105323232Y-126765208D01*
X105410684Y-126774092D01*
X105498202Y-126783908D01*
X105507994Y-126783976D01*
X105508176Y-126783995D01*
X105508346Y-126783979D01*
X105511501Y-126784001D01*
X112928499Y-126784001D01*
X113016100Y-126775412D01*
X113103713Y-126767747D01*
X113108522Y-126766350D01*
X113113507Y-126765861D01*
X113197738Y-126740430D01*
X113282226Y-126715884D01*
X113286673Y-126713579D01*
X113291469Y-126712131D01*
X113369124Y-126670841D01*
X113447268Y-126630335D01*
X113451187Y-126627207D01*
X113455604Y-126624858D01*
X113523746Y-126569283D01*
X113592549Y-126514358D01*
X113599519Y-126507485D01*
X113599663Y-126507367D01*
X113599773Y-126507234D01*
X113602018Y-126505020D01*
X114213200Y-125893838D01*
X114289982Y-125901908D01*
X114568892Y-125876525D01*
X114837560Y-125797452D01*
X115085753Y-125667700D01*
X115304017Y-125492211D01*
X115484038Y-125277671D01*
X115570656Y-125120112D01*
X115687615Y-125315131D01*
X115876586Y-125523519D01*
X116102580Y-125691037D01*
X116356913Y-125811246D01*
X116490961Y-125851904D01*
X116713000Y-125729915D01*
X116713000Y-124587000D01*
X116967000Y-124587000D01*
X116967000Y-125729915D01*
X117189039Y-125851904D01*
X117323087Y-125811246D01*
X117516179Y-125719982D01*
X121748092Y-125719982D01*
X121773475Y-125998892D01*
X121852548Y-126267560D01*
X121982300Y-126515753D01*
X122157789Y-126734017D01*
X122372329Y-126914038D01*
X122617750Y-127048959D01*
X122884704Y-127133642D01*
X123163021Y-127164860D01*
X123183057Y-127165000D01*
X123196943Y-127165000D01*
X123475669Y-127137671D01*
X123743779Y-127056724D01*
X123991060Y-126925242D01*
X124208093Y-126748234D01*
X124386612Y-126532442D01*
X124519817Y-126286085D01*
X124602633Y-126018547D01*
X124620278Y-125850659D01*
X129373114Y-125850659D01*
X129423915Y-126127453D01*
X129527512Y-126389109D01*
X129679959Y-126625660D01*
X129875448Y-126828095D01*
X130106534Y-126988704D01*
X130364415Y-127101369D01*
X130639268Y-127161800D01*
X130920624Y-127167693D01*
X131197767Y-127118826D01*
X131460140Y-127017058D01*
X131697749Y-126866267D01*
X131901544Y-126672195D01*
X132063762Y-126442236D01*
X132178225Y-126185148D01*
X132240573Y-125910723D01*
X132245061Y-125589291D01*
X132190400Y-125313233D01*
X132083160Y-125053049D01*
X131927426Y-124818650D01*
X131729129Y-124618964D01*
X131495823Y-124461597D01*
X131236394Y-124352543D01*
X130960724Y-124295956D01*
X130679313Y-124293991D01*
X130402880Y-124346724D01*
X130141954Y-124452145D01*
X129906473Y-124606239D01*
X129705408Y-124803137D01*
X129546416Y-125035339D01*
X129435553Y-125294000D01*
X129377043Y-125569268D01*
X129373114Y-125850659D01*
X124620278Y-125850659D01*
X124631908Y-125740018D01*
X124606525Y-125461108D01*
X124527452Y-125192440D01*
X124397700Y-124944247D01*
X124222211Y-124725983D01*
X124142500Y-124659097D01*
X124142500Y-122994605D01*
X124281544Y-122862195D01*
X124443762Y-122632236D01*
X124558225Y-122375148D01*
X124582332Y-122269039D01*
X129418096Y-122269039D01*
X129458754Y-122403087D01*
X129578963Y-122657420D01*
X129746481Y-122883414D01*
X129954869Y-123072385D01*
X130196119Y-123217070D01*
X130460960Y-123311909D01*
X130683000Y-123190624D01*
X130683000Y-122047000D01*
X130937000Y-122047000D01*
X130937000Y-123190624D01*
X131159040Y-123311909D01*
X131423881Y-123217070D01*
X131665131Y-123072385D01*
X131873519Y-122883414D01*
X132041037Y-122657420D01*
X132161246Y-122403087D01*
X132201904Y-122269039D01*
X132079915Y-122047000D01*
X130937000Y-122047000D01*
X130683000Y-122047000D01*
X129540085Y-122047000D01*
X129418096Y-122269039D01*
X124582332Y-122269039D01*
X124620573Y-122100723D01*
X124625061Y-121779291D01*
X124583811Y-121570961D01*
X129418096Y-121570961D01*
X129540085Y-121793000D01*
X130683000Y-121793000D01*
X130683000Y-120649376D01*
X130937000Y-120649376D01*
X130937000Y-121793000D01*
X132079915Y-121793000D01*
X132201904Y-121570961D01*
X132161246Y-121436913D01*
X132041037Y-121182580D01*
X131873519Y-120956586D01*
X131665131Y-120767615D01*
X131423881Y-120622930D01*
X131159040Y-120528091D01*
X130937000Y-120649376D01*
X130683000Y-120649376D01*
X130460960Y-120528091D01*
X130196119Y-120622930D01*
X129954869Y-120767615D01*
X129746481Y-120956586D01*
X129578963Y-121182580D01*
X129458754Y-121436913D01*
X129418096Y-121570961D01*
X124583811Y-121570961D01*
X124570400Y-121503233D01*
X124463160Y-121243049D01*
X124307426Y-121008650D01*
X124109129Y-120808964D01*
X123875823Y-120651597D01*
X123616394Y-120542543D01*
X123340724Y-120485956D01*
X123059313Y-120483991D01*
X122782880Y-120536724D01*
X122521954Y-120642145D01*
X122286473Y-120796239D01*
X122085408Y-120993137D01*
X121926416Y-121225339D01*
X121815553Y-121484000D01*
X121757043Y-121759268D01*
X121753114Y-122040659D01*
X121803915Y-122317453D01*
X121907512Y-122579109D01*
X122059959Y-122815660D01*
X122237500Y-122999509D01*
X122237500Y-124658270D01*
X122171907Y-124711766D01*
X121993388Y-124927558D01*
X121860183Y-125173915D01*
X121777367Y-125441453D01*
X121748092Y-125719982D01*
X117516179Y-125719982D01*
X117577420Y-125691037D01*
X117803414Y-125523519D01*
X117992385Y-125315131D01*
X118137070Y-125073881D01*
X118231909Y-124809040D01*
X118110624Y-124587000D01*
X116967000Y-124587000D01*
X116713000Y-124587000D01*
X116693000Y-124587000D01*
X116693000Y-124333000D01*
X116713000Y-124333000D01*
X116713000Y-123190085D01*
X116967000Y-123190085D01*
X116967000Y-124333000D01*
X118110624Y-124333000D01*
X118231909Y-124110960D01*
X118137070Y-123846119D01*
X117992385Y-123604869D01*
X117803414Y-123396481D01*
X117577420Y-123228963D01*
X117323087Y-123108754D01*
X117189039Y-123068096D01*
X116967000Y-123190085D01*
X116713000Y-123190085D01*
X116490961Y-123068096D01*
X116356913Y-123108754D01*
X116102580Y-123228963D01*
X115876586Y-123396481D01*
X115687615Y-123604869D01*
X115570407Y-123800304D01*
X115495242Y-123658940D01*
X115318234Y-123441907D01*
X115102442Y-123263388D01*
X114856085Y-123130183D01*
X114588547Y-123047367D01*
X114310018Y-123018092D01*
X114031108Y-123043475D01*
X113762440Y-123122548D01*
X113514247Y-123252300D01*
X113295983Y-123427789D01*
X113115962Y-123642329D01*
X113029772Y-123799109D01*
X112955242Y-123658940D01*
X112778234Y-123441907D01*
X112562442Y-123263388D01*
X112316085Y-123130183D01*
X112048547Y-123047367D01*
X111770018Y-123018092D01*
X111491108Y-123043475D01*
X111222440Y-123122548D01*
X110974247Y-123252300D01*
X110755983Y-123427789D01*
X110575962Y-123642329D01*
X110489772Y-123799109D01*
X110415242Y-123658940D01*
X110238234Y-123441907D01*
X110022442Y-123263388D01*
X109776085Y-123130183D01*
X109508547Y-123047367D01*
X109230018Y-123018092D01*
X108951108Y-123043475D01*
X108682440Y-123122548D01*
X108434247Y-123252300D01*
X108215983Y-123427789D01*
X108035962Y-123642329D01*
X107949772Y-123799109D01*
X107875242Y-123658940D01*
X107698234Y-123441907D01*
X107482442Y-123263388D01*
X107236085Y-123130183D01*
X106968547Y-123047367D01*
X106690018Y-123018092D01*
X106411108Y-123043475D01*
X106142440Y-123122548D01*
X105894247Y-123252300D01*
X105675983Y-123427789D01*
X105495962Y-123642329D01*
X105409772Y-123799109D01*
X105335242Y-123658940D01*
X105158234Y-123441907D01*
X104942442Y-123263388D01*
X104696085Y-123130183D01*
X104428547Y-123047367D01*
X104150018Y-123018092D01*
X103871108Y-123043475D01*
X103602440Y-123122548D01*
X103354247Y-123252300D01*
X103135983Y-123427789D01*
X103028924Y-123555377D01*
X102976894Y-123387366D01*
X102878100Y-123237441D01*
X102741450Y-123120975D01*
X102577763Y-123047190D01*
X102400000Y-123021928D01*
X100800000Y-123021928D01*
X100698879Y-123029992D01*
X100527366Y-123083106D01*
X100377441Y-123181900D01*
X100260975Y-123318550D01*
X100187190Y-123482237D01*
X100161928Y-123660000D01*
X100161928Y-124303592D01*
X96191038Y-120332702D01*
X96976903Y-120332702D01*
X97048486Y-120576671D01*
X97303996Y-120697571D01*
X97578184Y-120766300D01*
X97860512Y-120780217D01*
X98140130Y-120738787D01*
X98406292Y-120643603D01*
X98531514Y-120576671D01*
X98603097Y-120332702D01*
X97790000Y-119519605D01*
X96976903Y-120332702D01*
X96191038Y-120332702D01*
X95700312Y-119841976D01*
X95632314Y-119786121D01*
X95564924Y-119729574D01*
X95560536Y-119727162D01*
X95556665Y-119723982D01*
X95479103Y-119682394D01*
X95402023Y-119640019D01*
X95397250Y-119638505D01*
X95392834Y-119636137D01*
X95308702Y-119610415D01*
X95224829Y-119583809D01*
X95219848Y-119583250D01*
X95215062Y-119581787D01*
X95127560Y-119572899D01*
X95040092Y-119563088D01*
X95030300Y-119563020D01*
X95030118Y-119563001D01*
X95029948Y-119563017D01*
X95026793Y-119562995D01*
X86494505Y-119562995D01*
X86406904Y-119571584D01*
X86319291Y-119579249D01*
X86314482Y-119580646D01*
X86309497Y-119581135D01*
X86225234Y-119606576D01*
X86140777Y-119631113D01*
X86136334Y-119633416D01*
X86131535Y-119634865D01*
X86053863Y-119676164D01*
X85975736Y-119716661D01*
X85971817Y-119719789D01*
X85967400Y-119722138D01*
X85899258Y-119777713D01*
X85830455Y-119832638D01*
X85823481Y-119839515D01*
X85823341Y-119839629D01*
X85823234Y-119839758D01*
X85820985Y-119841976D01*
X82636800Y-123026162D01*
X82560018Y-123018092D01*
X82281108Y-123043475D01*
X82012440Y-123122548D01*
X81764247Y-123252300D01*
X81545983Y-123427789D01*
X81365962Y-123642329D01*
X81279772Y-123799109D01*
X81205242Y-123658940D01*
X81028234Y-123441907D01*
X80812442Y-123263388D01*
X80566085Y-123130183D01*
X80298547Y-123047367D01*
X80020018Y-123018092D01*
X79741108Y-123043475D01*
X79472440Y-123122548D01*
X79224247Y-123252300D01*
X79005983Y-123427789D01*
X78898924Y-123555377D01*
X78846894Y-123387366D01*
X78748100Y-123237441D01*
X78611450Y-123120975D01*
X78447763Y-123047190D01*
X78270000Y-123021928D01*
X77626408Y-123021928D01*
X81237824Y-119410512D01*
X96349783Y-119410512D01*
X96391213Y-119690130D01*
X96486397Y-119956292D01*
X96553329Y-120081514D01*
X96797298Y-120153097D01*
X97610395Y-119340000D01*
X97969605Y-119340000D01*
X98782702Y-120153097D01*
X99026671Y-120081514D01*
X99147571Y-119826004D01*
X99216300Y-119551816D01*
X99230217Y-119269488D01*
X99188787Y-118989870D01*
X99093603Y-118723708D01*
X99026671Y-118598486D01*
X98782702Y-118526903D01*
X97969605Y-119340000D01*
X97610395Y-119340000D01*
X96797298Y-118526903D01*
X96553329Y-118598486D01*
X96432429Y-118853996D01*
X96363700Y-119128184D01*
X96349783Y-119410512D01*
X81237824Y-119410512D01*
X81484335Y-119164001D01*
X91338499Y-119164001D01*
X91426100Y-119155412D01*
X91513713Y-119147747D01*
X91518522Y-119146350D01*
X91523507Y-119145861D01*
X91607738Y-119120430D01*
X91692226Y-119095884D01*
X91696673Y-119093579D01*
X91701469Y-119092131D01*
X91779124Y-119050841D01*
X91857268Y-119010335D01*
X91861187Y-119007207D01*
X91865604Y-119004858D01*
X91933746Y-118949283D01*
X92002549Y-118894358D01*
X92009519Y-118887485D01*
X92009663Y-118887367D01*
X92009773Y-118887234D01*
X92012018Y-118885020D01*
X92623200Y-118273838D01*
X92699982Y-118281908D01*
X92978892Y-118256525D01*
X93247560Y-118177452D01*
X93495753Y-118047700D01*
X93714017Y-117872211D01*
X93894038Y-117657671D01*
X94028959Y-117412250D01*
X94113642Y-117145296D01*
X94144860Y-116866979D01*
X94145000Y-116846943D01*
X94145000Y-116833057D01*
X94117671Y-116554331D01*
X94036724Y-116286221D01*
X93905242Y-116038940D01*
X93728234Y-115821907D01*
X93577248Y-115697000D01*
X96915873Y-115697000D01*
X96886473Y-115716239D01*
G36*
X80137000Y-116713000D02*
X82423000Y-116713000D01*
X82423000Y-116693000D01*
X82677000Y-116693000D01*
X82677000Y-116713000D01*
X82697000Y-116713000D01*
X82697000Y-116967000D01*
X82677000Y-116967000D01*
X82677000Y-116987000D01*
X82423000Y-116987000D01*
X82423000Y-116967000D01*
X80137000Y-116967000D01*
X80137000Y-116987000D01*
X79883000Y-116987000D01*
X79883000Y-116967000D01*
X79863000Y-116967000D01*
X79863000Y-116713000D01*
X79883000Y-116713000D01*
X79883000Y-116693000D01*
X80137000Y-116693000D01*
X80137000Y-116713000D01*
X80137000Y-116713000D01*
G37*
X80137000Y-116713000D02*
X82423000Y-116713000D01*
X82423000Y-116693000D01*
X82677000Y-116693000D01*
X82677000Y-116713000D01*
X82697000Y-116713000D01*
X82697000Y-116967000D01*
X82677000Y-116967000D01*
X82677000Y-116987000D01*
X82423000Y-116987000D01*
X82423000Y-116967000D01*
X80137000Y-116967000D01*
X80137000Y-116987000D01*
X79883000Y-116987000D01*
X79883000Y-116967000D01*
X79863000Y-116967000D01*
X79863000Y-116713000D01*
X79883000Y-116713000D01*
X79883000Y-116693000D01*
X80137000Y-116693000D01*
X80137000Y-116713000D01*
M02*
