G04 #@! TF.GenerationSoftware,KiCad,Pcbnew,5.1.6*
G04 #@! TF.CreationDate,2020-07-01T19:59:56+01:00*
G04 #@! TF.ProjectId,rc2014-ym2149,72633230-3134-42d7-996d-323134392e6b,5*
G04 #@! TF.SameCoordinates,Original*
G04 #@! TF.FileFunction,Legend,Top*
G04 #@! TF.FilePolarity,Positive*
%FSLAX46Y46*%
G04 Gerber Fmt 4.6, Leading zero omitted, Abs format (unit mm)*
G04 Created by KiCad (PCBNEW 5.1.6) date 2020-07-01 19:59:56*
%MOMM*%
%LPD*%
G01*
G04 APERTURE LIST*
G04 #@! TA.AperFunction,Profile*
%ADD10C,0.150000*%
G04 #@! TD*
%ADD11C,0.010000*%
%ADD12C,0.120000*%
%ADD13C,0.100000*%
%ADD14C,0.150000*%
G04 APERTURE END LIST*
D10*
X160500000Y-121539000D02*
X160500000Y-120000000D01*
X158369000Y-121793000D02*
X158369000Y-128397000D01*
X158369000Y-121793000D02*
G75*
G02*
X158623000Y-121539000I254000J0D01*
G01*
X158623000Y-128651000D02*
G75*
G02*
X158369000Y-128397000I0J254000D01*
G01*
X160500000Y-121539000D02*
X158623000Y-121539000D01*
X160500000Y-128651000D02*
X158623000Y-128651000D01*
X160500000Y-120000000D02*
G75*
G03*
X155000000Y-114500000I-5500000J0D01*
G01*
X60500000Y-129500000D02*
X75500000Y-114500000D01*
X60500000Y-164500000D02*
X160500000Y-164500000D01*
X60500000Y-129500000D02*
X60500000Y-164500000D01*
X155000000Y-114500000D02*
X75500000Y-114500000D01*
X160500000Y-164500000D02*
X160500000Y-128651000D01*
D11*
G36*
X127115962Y-154044109D02*
G01*
X127288636Y-154051000D01*
X127288636Y-154397364D01*
X127101061Y-154404023D01*
X127008153Y-154406528D01*
X126951307Y-154404391D01*
X126920461Y-154395311D01*
X126905555Y-154376982D01*
X126899331Y-154357841D01*
X126886747Y-154276941D01*
X126886658Y-154189680D01*
X126898093Y-154114706D01*
X126913916Y-154077386D01*
X126937511Y-154056372D01*
X126976788Y-154045249D01*
X127042758Y-154042202D01*
X127115962Y-154044109D01*
G37*
X127115962Y-154044109D02*
X127288636Y-154051000D01*
X127288636Y-154397364D01*
X127101061Y-154404023D01*
X127008153Y-154406528D01*
X126951307Y-154404391D01*
X126920461Y-154395311D01*
X126905555Y-154376982D01*
X126899331Y-154357841D01*
X126886747Y-154276941D01*
X126886658Y-154189680D01*
X126898093Y-154114706D01*
X126913916Y-154077386D01*
X126937511Y-154056372D01*
X126976788Y-154045249D01*
X127042758Y-154042202D01*
X127115962Y-154044109D01*
G36*
X132034535Y-154575525D02*
G01*
X132185837Y-154588226D01*
X132299492Y-154612028D01*
X132383407Y-154650439D01*
X132445488Y-154706965D01*
X132489863Y-154777484D01*
X132524142Y-154879149D01*
X132541484Y-155003251D01*
X132541400Y-155131791D01*
X132523403Y-155246773D01*
X132504068Y-155301209D01*
X132471278Y-155357361D01*
X132429097Y-155398909D01*
X132370349Y-155428225D01*
X132287859Y-155447680D01*
X132174452Y-155459645D01*
X132022950Y-155466493D01*
X132002219Y-155467074D01*
X131681984Y-155475643D01*
X131694522Y-155569119D01*
X131714743Y-155642346D01*
X131748521Y-155703037D01*
X131755797Y-155711161D01*
X131777277Y-155729675D01*
X131803638Y-155742701D01*
X131842639Y-155751120D01*
X131902042Y-155755814D01*
X131989608Y-155757664D01*
X132113096Y-155757552D01*
X132161631Y-155757244D01*
X132518727Y-155754760D01*
X132518727Y-155876915D01*
X132517966Y-155937158D01*
X132510304Y-155977362D01*
X132487669Y-156003203D01*
X132441992Y-156020354D01*
X132365202Y-156034492D01*
X132276273Y-156047398D01*
X132147945Y-156061042D01*
X132008331Y-156068096D01*
X131869442Y-156068716D01*
X131743289Y-156063058D01*
X131641884Y-156051278D01*
X131589099Y-156038450D01*
X131509034Y-156004446D01*
X131455073Y-155962954D01*
X131411477Y-155899462D01*
X131387466Y-155852491D01*
X131352846Y-155749680D01*
X131328715Y-155613832D01*
X131315135Y-155456902D01*
X131312169Y-155290843D01*
X131316741Y-155194000D01*
X131681579Y-155194000D01*
X131890685Y-155194000D01*
X132000927Y-155191812D01*
X132073969Y-155184379D01*
X132118626Y-155170397D01*
X132136078Y-155157714D01*
X132165020Y-155100427D01*
X132170038Y-155023828D01*
X132151102Y-154948121D01*
X132136418Y-154922047D01*
X132110734Y-154894114D01*
X132074536Y-154878528D01*
X132015047Y-154871886D01*
X131943724Y-154870727D01*
X131835737Y-154877361D01*
X131764363Y-154901804D01*
X131721359Y-154950874D01*
X131698485Y-155031383D01*
X131692695Y-155078312D01*
X131681579Y-155194000D01*
X131316741Y-155194000D01*
X131319876Y-155127606D01*
X131338319Y-154979146D01*
X131367558Y-154857415D01*
X131382160Y-154819180D01*
X131441381Y-154723088D01*
X131525265Y-154651964D01*
X131637904Y-154604278D01*
X131783393Y-154578502D01*
X131965823Y-154573107D01*
X132034535Y-154575525D01*
G37*
X132034535Y-154575525D02*
X132185837Y-154588226D01*
X132299492Y-154612028D01*
X132383407Y-154650439D01*
X132445488Y-154706965D01*
X132489863Y-154777484D01*
X132524142Y-154879149D01*
X132541484Y-155003251D01*
X132541400Y-155131791D01*
X132523403Y-155246773D01*
X132504068Y-155301209D01*
X132471278Y-155357361D01*
X132429097Y-155398909D01*
X132370349Y-155428225D01*
X132287859Y-155447680D01*
X132174452Y-155459645D01*
X132022950Y-155466493D01*
X132002219Y-155467074D01*
X131681984Y-155475643D01*
X131694522Y-155569119D01*
X131714743Y-155642346D01*
X131748521Y-155703037D01*
X131755797Y-155711161D01*
X131777277Y-155729675D01*
X131803638Y-155742701D01*
X131842639Y-155751120D01*
X131902042Y-155755814D01*
X131989608Y-155757664D01*
X132113096Y-155757552D01*
X132161631Y-155757244D01*
X132518727Y-155754760D01*
X132518727Y-155876915D01*
X132517966Y-155937158D01*
X132510304Y-155977362D01*
X132487669Y-156003203D01*
X132441992Y-156020354D01*
X132365202Y-156034492D01*
X132276273Y-156047398D01*
X132147945Y-156061042D01*
X132008331Y-156068096D01*
X131869442Y-156068716D01*
X131743289Y-156063058D01*
X131641884Y-156051278D01*
X131589099Y-156038450D01*
X131509034Y-156004446D01*
X131455073Y-155962954D01*
X131411477Y-155899462D01*
X131387466Y-155852491D01*
X131352846Y-155749680D01*
X131328715Y-155613832D01*
X131315135Y-155456902D01*
X131312169Y-155290843D01*
X131316741Y-155194000D01*
X131681579Y-155194000D01*
X131890685Y-155194000D01*
X132000927Y-155191812D01*
X132073969Y-155184379D01*
X132118626Y-155170397D01*
X132136078Y-155157714D01*
X132165020Y-155100427D01*
X132170038Y-155023828D01*
X132151102Y-154948121D01*
X132136418Y-154922047D01*
X132110734Y-154894114D01*
X132074536Y-154878528D01*
X132015047Y-154871886D01*
X131943724Y-154870727D01*
X131835737Y-154877361D01*
X131764363Y-154901804D01*
X131721359Y-154950874D01*
X131698485Y-155031383D01*
X131692695Y-155078312D01*
X131681579Y-155194000D01*
X131316741Y-155194000D01*
X131319876Y-155127606D01*
X131338319Y-154979146D01*
X131367558Y-154857415D01*
X131382160Y-154819180D01*
X131441381Y-154723088D01*
X131525265Y-154651964D01*
X131637904Y-154604278D01*
X131783393Y-154578502D01*
X131965823Y-154573107D01*
X132034535Y-154575525D01*
G36*
X130925454Y-154751827D02*
G01*
X130926180Y-155008284D01*
X130928330Y-155225509D01*
X130931869Y-155402119D01*
X130936757Y-155536728D01*
X130942959Y-155627951D01*
X130950435Y-155674404D01*
X130950495Y-155674577D01*
X130976385Y-155723115D01*
X131022166Y-155759074D01*
X131094813Y-155790790D01*
X131214091Y-155835171D01*
X131221070Y-155953313D01*
X131228050Y-156071455D01*
X131024797Y-156071419D01*
X130899156Y-156067463D01*
X130808305Y-156054625D01*
X130741444Y-156031366D01*
X130740727Y-156031010D01*
X130665214Y-155972072D01*
X130602182Y-155875182D01*
X130544454Y-155759727D01*
X130529650Y-153900909D01*
X130925454Y-153900909D01*
X130925454Y-154751827D01*
G37*
X130925454Y-154751827D02*
X130926180Y-155008284D01*
X130928330Y-155225509D01*
X130931869Y-155402119D01*
X130936757Y-155536728D01*
X130942959Y-155627951D01*
X130950435Y-155674404D01*
X130950495Y-155674577D01*
X130976385Y-155723115D01*
X131022166Y-155759074D01*
X131094813Y-155790790D01*
X131214091Y-155835171D01*
X131221070Y-155953313D01*
X131228050Y-156071455D01*
X131024797Y-156071419D01*
X130899156Y-156067463D01*
X130808305Y-156054625D01*
X130741444Y-156031366D01*
X130740727Y-156031010D01*
X130665214Y-155972072D01*
X130602182Y-155875182D01*
X130544454Y-155759727D01*
X130529650Y-153900909D01*
X130925454Y-153900909D01*
X130925454Y-154751827D01*
G36*
X130278909Y-156048364D02*
G01*
X130119531Y-156048364D01*
X130035325Y-156047361D01*
X129985612Y-156041519D01*
X129958711Y-156026585D01*
X129942938Y-155998308D01*
X129936999Y-155981940D01*
X129913843Y-155915517D01*
X129770822Y-155986405D01*
X129606385Y-156049304D01*
X129455106Y-156068705D01*
X129317799Y-156044554D01*
X129262909Y-156020584D01*
X129162727Y-155942083D01*
X129086735Y-155824663D01*
X129035073Y-155668833D01*
X129007884Y-155475099D01*
X129006939Y-155390201D01*
X129381788Y-155390201D01*
X129395754Y-155526119D01*
X129423367Y-155632163D01*
X129463346Y-155701820D01*
X129478116Y-155715056D01*
X129542664Y-155737982D01*
X129634392Y-155739976D01*
X129739761Y-155721896D01*
X129826037Y-155693029D01*
X129909454Y-155658175D01*
X129909454Y-154943312D01*
X129788227Y-154916512D01*
X129649799Y-154894250D01*
X129545767Y-154899339D01*
X129471514Y-154935361D01*
X129422425Y-155005894D01*
X129393881Y-155114519D01*
X129382754Y-155230924D01*
X129381788Y-155390201D01*
X129006939Y-155390201D01*
X129005310Y-155243970D01*
X129012543Y-155123831D01*
X129036555Y-154949179D01*
X129079236Y-154814218D01*
X129143470Y-154715239D01*
X129232141Y-154648533D01*
X129348134Y-154610392D01*
X129419353Y-154600690D01*
X129533222Y-154601543D01*
X129665780Y-154618534D01*
X129794034Y-154647919D01*
X129869045Y-154673905D01*
X129883927Y-154677206D01*
X129894640Y-154668509D01*
X129901862Y-154641656D01*
X129906272Y-154590490D01*
X129908550Y-154508853D01*
X129909375Y-154390588D01*
X129909454Y-154307471D01*
X129909454Y-153924000D01*
X130278909Y-153924000D01*
X130278909Y-156048364D01*
G37*
X130278909Y-156048364D02*
X130119531Y-156048364D01*
X130035325Y-156047361D01*
X129985612Y-156041519D01*
X129958711Y-156026585D01*
X129942938Y-155998308D01*
X129936999Y-155981940D01*
X129913843Y-155915517D01*
X129770822Y-155986405D01*
X129606385Y-156049304D01*
X129455106Y-156068705D01*
X129317799Y-156044554D01*
X129262909Y-156020584D01*
X129162727Y-155942083D01*
X129086735Y-155824663D01*
X129035073Y-155668833D01*
X129007884Y-155475099D01*
X129006939Y-155390201D01*
X129381788Y-155390201D01*
X129395754Y-155526119D01*
X129423367Y-155632163D01*
X129463346Y-155701820D01*
X129478116Y-155715056D01*
X129542664Y-155737982D01*
X129634392Y-155739976D01*
X129739761Y-155721896D01*
X129826037Y-155693029D01*
X129909454Y-155658175D01*
X129909454Y-154943312D01*
X129788227Y-154916512D01*
X129649799Y-154894250D01*
X129545767Y-154899339D01*
X129471514Y-154935361D01*
X129422425Y-155005894D01*
X129393881Y-155114519D01*
X129382754Y-155230924D01*
X129381788Y-155390201D01*
X129006939Y-155390201D01*
X129005310Y-155243970D01*
X129012543Y-155123831D01*
X129036555Y-154949179D01*
X129079236Y-154814218D01*
X129143470Y-154715239D01*
X129232141Y-154648533D01*
X129348134Y-154610392D01*
X129419353Y-154600690D01*
X129533222Y-154601543D01*
X129665780Y-154618534D01*
X129794034Y-154647919D01*
X129869045Y-154673905D01*
X129883927Y-154677206D01*
X129894640Y-154668509D01*
X129901862Y-154641656D01*
X129906272Y-154590490D01*
X129908550Y-154508853D01*
X129909375Y-154390588D01*
X129909454Y-154307471D01*
X129909454Y-153924000D01*
X130278909Y-153924000D01*
X130278909Y-156048364D01*
G36*
X128444422Y-154554400D02*
G01*
X128579614Y-154592429D01*
X128594153Y-154599409D01*
X128670743Y-154648856D01*
X128726257Y-154715639D01*
X128754299Y-154766675D01*
X128771739Y-154803450D01*
X128785330Y-154839003D01*
X128795659Y-154879655D01*
X128803318Y-154931727D01*
X128808895Y-155001538D01*
X128812981Y-155095410D01*
X128816165Y-155219662D01*
X128819036Y-155380615D01*
X128820537Y-155476721D01*
X128829658Y-156071455D01*
X128431636Y-156071455D01*
X128431636Y-154960992D01*
X128372072Y-154901427D01*
X128328060Y-154864462D01*
X128283264Y-154850916D01*
X128216744Y-154855016D01*
X128207998Y-154856187D01*
X128118432Y-154877680D01*
X128029578Y-154912643D01*
X128013563Y-154921053D01*
X127923636Y-154971595D01*
X127923636Y-156071455D01*
X127531091Y-156071455D01*
X127531091Y-154570546D01*
X127689926Y-154570546D01*
X127774038Y-154571566D01*
X127824050Y-154577602D01*
X127852038Y-154593115D01*
X127870081Y-154622566D01*
X127877454Y-154639818D01*
X127904522Y-154690820D01*
X127935686Y-154705371D01*
X127982704Y-154685380D01*
X128016682Y-154662423D01*
X128151399Y-154590659D01*
X128297831Y-154554231D01*
X128444422Y-154554400D01*
G37*
X128444422Y-154554400D02*
X128579614Y-154592429D01*
X128594153Y-154599409D01*
X128670743Y-154648856D01*
X128726257Y-154715639D01*
X128754299Y-154766675D01*
X128771739Y-154803450D01*
X128785330Y-154839003D01*
X128795659Y-154879655D01*
X128803318Y-154931727D01*
X128808895Y-155001538D01*
X128812981Y-155095410D01*
X128816165Y-155219662D01*
X128819036Y-155380615D01*
X128820537Y-155476721D01*
X128829658Y-156071455D01*
X128431636Y-156071455D01*
X128431636Y-154960992D01*
X128372072Y-154901427D01*
X128328060Y-154864462D01*
X128283264Y-154850916D01*
X128216744Y-154855016D01*
X128207998Y-154856187D01*
X128118432Y-154877680D01*
X128029578Y-154912643D01*
X128013563Y-154921053D01*
X127923636Y-154971595D01*
X127923636Y-156071455D01*
X127531091Y-156071455D01*
X127531091Y-154570546D01*
X127689926Y-154570546D01*
X127774038Y-154571566D01*
X127824050Y-154577602D01*
X127852038Y-154593115D01*
X127870081Y-154622566D01*
X127877454Y-154639818D01*
X127904522Y-154690820D01*
X127935686Y-154705371D01*
X127982704Y-154685380D01*
X128016682Y-154662423D01*
X128151399Y-154590659D01*
X128297831Y-154554231D01*
X128444422Y-154554400D01*
G36*
X127300182Y-156071455D02*
G01*
X126907636Y-156071455D01*
X126907636Y-154570546D01*
X127300182Y-154570546D01*
X127300182Y-156071455D01*
G37*
X127300182Y-156071455D02*
X126907636Y-156071455D01*
X126907636Y-154570546D01*
X127300182Y-154570546D01*
X127300182Y-156071455D01*
G36*
X126666539Y-154574358D02*
G01*
X126734454Y-154582091D01*
X126741214Y-154775865D01*
X126747973Y-154969639D01*
X126643555Y-154955327D01*
X126517964Y-154951148D01*
X126395650Y-154969901D01*
X126291394Y-155008228D01*
X126233156Y-155048550D01*
X126168727Y-155110277D01*
X126168727Y-156071455D01*
X125776182Y-156071455D01*
X125776182Y-154593636D01*
X125949363Y-154593636D01*
X126032139Y-154596279D01*
X126093374Y-154603270D01*
X126121787Y-154613203D01*
X126122545Y-154615224D01*
X126130138Y-154651427D01*
X126144708Y-154695105D01*
X126166871Y-154753399D01*
X126283534Y-154674890D01*
X126425926Y-154603493D01*
X126576434Y-154572380D01*
X126666539Y-154574358D01*
G37*
X126666539Y-154574358D02*
X126734454Y-154582091D01*
X126741214Y-154775865D01*
X126747973Y-154969639D01*
X126643555Y-154955327D01*
X126517964Y-154951148D01*
X126395650Y-154969901D01*
X126291394Y-155008228D01*
X126233156Y-155048550D01*
X126168727Y-155110277D01*
X126168727Y-156071455D01*
X125776182Y-156071455D01*
X125776182Y-154593636D01*
X125949363Y-154593636D01*
X126032139Y-154596279D01*
X126093374Y-154603270D01*
X126121787Y-154613203D01*
X126122545Y-154615224D01*
X126130138Y-154651427D01*
X126144708Y-154695105D01*
X126166871Y-154753399D01*
X126283534Y-154674890D01*
X126425926Y-154603493D01*
X126576434Y-154572380D01*
X126666539Y-154574358D01*
G36*
X124696682Y-154043640D02*
G01*
X124865186Y-154046319D01*
X124994317Y-154049340D01*
X125090881Y-154053361D01*
X125161685Y-154059040D01*
X125213536Y-154067038D01*
X125253241Y-154078012D01*
X125287608Y-154092622D01*
X125307253Y-154102741D01*
X125425741Y-154190403D01*
X125508747Y-154306545D01*
X125555090Y-154448727D01*
X125563591Y-154614509D01*
X125562455Y-154630554D01*
X125536208Y-154775359D01*
X125481666Y-154887416D01*
X125395841Y-154972606D01*
X125384746Y-154980331D01*
X125344074Y-155012679D01*
X125336552Y-155030618D01*
X125343813Y-155032364D01*
X125397640Y-155051549D01*
X125458772Y-155101463D01*
X125515740Y-155170640D01*
X125555720Y-155244170D01*
X125581578Y-155345267D01*
X125592924Y-155471054D01*
X125589211Y-155602201D01*
X125569894Y-155719378D01*
X125569199Y-155721987D01*
X125512729Y-155845385D01*
X125417578Y-155949754D01*
X125328777Y-156008967D01*
X125295156Y-156025506D01*
X125259676Y-156038182D01*
X125215651Y-156047622D01*
X125156393Y-156054455D01*
X125075215Y-156059308D01*
X124965430Y-156062809D01*
X124820350Y-156065587D01*
X124708227Y-156067243D01*
X124182909Y-156074576D01*
X124182909Y-155170909D01*
X124575454Y-155170909D01*
X124575454Y-155725091D01*
X124836975Y-155725091D01*
X124951362Y-155724456D01*
X125029175Y-155721439D01*
X125080016Y-155714367D01*
X125113488Y-155701569D01*
X125139193Y-155681374D01*
X125149616Y-155670675D01*
X125198118Y-155588489D01*
X125219039Y-155485311D01*
X125212695Y-155376950D01*
X125179405Y-155279218D01*
X125140701Y-155226057D01*
X125113269Y-155201785D01*
X125082468Y-155185903D01*
X125038378Y-155176647D01*
X124971081Y-155172252D01*
X124870659Y-155170957D01*
X124830504Y-155170909D01*
X124575454Y-155170909D01*
X124182909Y-155170909D01*
X124182909Y-154385818D01*
X124575454Y-154385818D01*
X124575454Y-154847636D01*
X124814795Y-154847636D01*
X124927175Y-154846438D01*
X125003998Y-154841730D01*
X125055851Y-154831844D01*
X125093323Y-154815111D01*
X125114118Y-154800454D01*
X125162840Y-154741201D01*
X125188792Y-154674959D01*
X125191131Y-154591967D01*
X125172831Y-154507897D01*
X125139147Y-154439689D01*
X125106214Y-154408732D01*
X125066027Y-154399181D01*
X124991532Y-154391580D01*
X124894592Y-154386878D01*
X124819427Y-154385818D01*
X124575454Y-154385818D01*
X124182909Y-154385818D01*
X124182909Y-154036280D01*
X124696682Y-154043640D01*
G37*
X124696682Y-154043640D02*
X124865186Y-154046319D01*
X124994317Y-154049340D01*
X125090881Y-154053361D01*
X125161685Y-154059040D01*
X125213536Y-154067038D01*
X125253241Y-154078012D01*
X125287608Y-154092622D01*
X125307253Y-154102741D01*
X125425741Y-154190403D01*
X125508747Y-154306545D01*
X125555090Y-154448727D01*
X125563591Y-154614509D01*
X125562455Y-154630554D01*
X125536208Y-154775359D01*
X125481666Y-154887416D01*
X125395841Y-154972606D01*
X125384746Y-154980331D01*
X125344074Y-155012679D01*
X125336552Y-155030618D01*
X125343813Y-155032364D01*
X125397640Y-155051549D01*
X125458772Y-155101463D01*
X125515740Y-155170640D01*
X125555720Y-155244170D01*
X125581578Y-155345267D01*
X125592924Y-155471054D01*
X125589211Y-155602201D01*
X125569894Y-155719378D01*
X125569199Y-155721987D01*
X125512729Y-155845385D01*
X125417578Y-155949754D01*
X125328777Y-156008967D01*
X125295156Y-156025506D01*
X125259676Y-156038182D01*
X125215651Y-156047622D01*
X125156393Y-156054455D01*
X125075215Y-156059308D01*
X124965430Y-156062809D01*
X124820350Y-156065587D01*
X124708227Y-156067243D01*
X124182909Y-156074576D01*
X124182909Y-155170909D01*
X124575454Y-155170909D01*
X124575454Y-155725091D01*
X124836975Y-155725091D01*
X124951362Y-155724456D01*
X125029175Y-155721439D01*
X125080016Y-155714367D01*
X125113488Y-155701569D01*
X125139193Y-155681374D01*
X125149616Y-155670675D01*
X125198118Y-155588489D01*
X125219039Y-155485311D01*
X125212695Y-155376950D01*
X125179405Y-155279218D01*
X125140701Y-155226057D01*
X125113269Y-155201785D01*
X125082468Y-155185903D01*
X125038378Y-155176647D01*
X124971081Y-155172252D01*
X124870659Y-155170957D01*
X124830504Y-155170909D01*
X124575454Y-155170909D01*
X124182909Y-155170909D01*
X124182909Y-154385818D01*
X124575454Y-154385818D01*
X124575454Y-154847636D01*
X124814795Y-154847636D01*
X124927175Y-154846438D01*
X125003998Y-154841730D01*
X125055851Y-154831844D01*
X125093323Y-154815111D01*
X125114118Y-154800454D01*
X125162840Y-154741201D01*
X125188792Y-154674959D01*
X125191131Y-154591967D01*
X125172831Y-154507897D01*
X125139147Y-154439689D01*
X125106214Y-154408732D01*
X125066027Y-154399181D01*
X124991532Y-154391580D01*
X124894592Y-154386878D01*
X124819427Y-154385818D01*
X124575454Y-154385818D01*
X124182909Y-154385818D01*
X124182909Y-154036280D01*
X124696682Y-154043640D01*
G36*
X123213091Y-156048364D02*
G01*
X123053713Y-156048364D01*
X122969506Y-156047361D01*
X122919794Y-156041519D01*
X122892893Y-156026585D01*
X122877120Y-155998308D01*
X122871180Y-155981940D01*
X122848025Y-155915517D01*
X122705004Y-155986405D01*
X122540567Y-156049304D01*
X122389288Y-156068705D01*
X122251981Y-156044554D01*
X122197091Y-156020584D01*
X122096909Y-155942083D01*
X122020916Y-155824663D01*
X121969255Y-155668833D01*
X121942066Y-155475099D01*
X121941121Y-155390201D01*
X122315970Y-155390201D01*
X122329935Y-155526119D01*
X122357549Y-155632163D01*
X122397528Y-155701820D01*
X122412298Y-155715056D01*
X122476846Y-155737982D01*
X122568574Y-155739976D01*
X122673942Y-155721896D01*
X122760219Y-155693029D01*
X122843636Y-155658175D01*
X122843636Y-154943312D01*
X122722409Y-154916512D01*
X122583980Y-154894250D01*
X122479949Y-154899339D01*
X122405696Y-154935361D01*
X122356607Y-155005894D01*
X122328063Y-155114519D01*
X122316936Y-155230924D01*
X122315970Y-155390201D01*
X121941121Y-155390201D01*
X121939492Y-155243970D01*
X121946725Y-155123831D01*
X121970736Y-154949179D01*
X122013417Y-154814218D01*
X122077651Y-154715239D01*
X122166323Y-154648533D01*
X122282316Y-154610392D01*
X122353535Y-154600690D01*
X122467403Y-154601543D01*
X122599961Y-154618534D01*
X122728216Y-154647919D01*
X122803227Y-154673905D01*
X122818109Y-154677206D01*
X122828822Y-154668509D01*
X122836044Y-154641656D01*
X122840454Y-154590490D01*
X122842732Y-154508853D01*
X122843556Y-154390588D01*
X122843636Y-154307471D01*
X122843636Y-153924000D01*
X123213091Y-153924000D01*
X123213091Y-156048364D01*
G37*
X123213091Y-156048364D02*
X123053713Y-156048364D01*
X122969506Y-156047361D01*
X122919794Y-156041519D01*
X122892893Y-156026585D01*
X122877120Y-155998308D01*
X122871180Y-155981940D01*
X122848025Y-155915517D01*
X122705004Y-155986405D01*
X122540567Y-156049304D01*
X122389288Y-156068705D01*
X122251981Y-156044554D01*
X122197091Y-156020584D01*
X122096909Y-155942083D01*
X122020916Y-155824663D01*
X121969255Y-155668833D01*
X121942066Y-155475099D01*
X121941121Y-155390201D01*
X122315970Y-155390201D01*
X122329935Y-155526119D01*
X122357549Y-155632163D01*
X122397528Y-155701820D01*
X122412298Y-155715056D01*
X122476846Y-155737982D01*
X122568574Y-155739976D01*
X122673942Y-155721896D01*
X122760219Y-155693029D01*
X122843636Y-155658175D01*
X122843636Y-154943312D01*
X122722409Y-154916512D01*
X122583980Y-154894250D01*
X122479949Y-154899339D01*
X122405696Y-154935361D01*
X122356607Y-155005894D01*
X122328063Y-155114519D01*
X122316936Y-155230924D01*
X122315970Y-155390201D01*
X121941121Y-155390201D01*
X121939492Y-155243970D01*
X121946725Y-155123831D01*
X121970736Y-154949179D01*
X122013417Y-154814218D01*
X122077651Y-154715239D01*
X122166323Y-154648533D01*
X122282316Y-154610392D01*
X122353535Y-154600690D01*
X122467403Y-154601543D01*
X122599961Y-154618534D01*
X122728216Y-154647919D01*
X122803227Y-154673905D01*
X122818109Y-154677206D01*
X122828822Y-154668509D01*
X122836044Y-154641656D01*
X122840454Y-154590490D01*
X122842732Y-154508853D01*
X122843556Y-154390588D01*
X122843636Y-154307471D01*
X122843636Y-153924000D01*
X123213091Y-153924000D01*
X123213091Y-156048364D01*
G36*
X121033990Y-154044921D02*
G01*
X121179956Y-154049764D01*
X121181091Y-154049804D01*
X121321032Y-154055276D01*
X121452097Y-154061463D01*
X121564282Y-154067814D01*
X121647583Y-154073777D01*
X121684310Y-154077554D01*
X121783438Y-154091178D01*
X121776673Y-154244271D01*
X121769909Y-154397364D01*
X120879385Y-154409912D01*
X120857056Y-154468641D01*
X120845851Y-154520980D01*
X120837836Y-154602048D01*
X120834728Y-154694417D01*
X120834727Y-154695591D01*
X120834727Y-154863812D01*
X121046093Y-154878815D01*
X121172321Y-154886062D01*
X121311058Y-154891386D01*
X121435029Y-154893776D01*
X121450183Y-154893818D01*
X121642909Y-154893818D01*
X121642909Y-155212127D01*
X121236629Y-155229053D01*
X120830348Y-155245978D01*
X120838310Y-155449003D01*
X120843946Y-155542294D01*
X120852188Y-155617788D01*
X120861596Y-155663706D01*
X120865449Y-155671241D01*
X120893541Y-155677803D01*
X120960335Y-155684633D01*
X121058359Y-155691235D01*
X121180140Y-155697110D01*
X121318206Y-155701760D01*
X121327267Y-155702000D01*
X121769909Y-155713546D01*
X121783423Y-156019062D01*
X121672757Y-156032907D01*
X121590020Y-156040734D01*
X121480373Y-156047521D01*
X121352858Y-156053096D01*
X121216517Y-156057289D01*
X121080395Y-156059928D01*
X120953533Y-156060840D01*
X120844974Y-156059856D01*
X120763761Y-156056804D01*
X120718938Y-156051512D01*
X120717277Y-156051014D01*
X120604703Y-155995290D01*
X120528026Y-155912794D01*
X120500161Y-155855965D01*
X120489801Y-155823084D01*
X120481689Y-155781430D01*
X120475638Y-155725787D01*
X120471461Y-155650935D01*
X120468973Y-155551657D01*
X120467985Y-155422734D01*
X120468310Y-155258947D01*
X120469763Y-155055080D01*
X120470103Y-155016672D01*
X120472110Y-154800331D01*
X120474551Y-154625170D01*
X120478529Y-154486190D01*
X120485145Y-154378393D01*
X120495500Y-154296780D01*
X120510697Y-154236355D01*
X120531836Y-154192119D01*
X120560019Y-154159074D01*
X120596347Y-154132222D01*
X120641923Y-154106566D01*
X120674442Y-154089521D01*
X120713236Y-154070157D01*
X120749728Y-154056408D01*
X120791984Y-154047642D01*
X120848069Y-154043227D01*
X120926049Y-154042531D01*
X121033990Y-154044921D01*
G37*
X121033990Y-154044921D02*
X121179956Y-154049764D01*
X121181091Y-154049804D01*
X121321032Y-154055276D01*
X121452097Y-154061463D01*
X121564282Y-154067814D01*
X121647583Y-154073777D01*
X121684310Y-154077554D01*
X121783438Y-154091178D01*
X121776673Y-154244271D01*
X121769909Y-154397364D01*
X120879385Y-154409912D01*
X120857056Y-154468641D01*
X120845851Y-154520980D01*
X120837836Y-154602048D01*
X120834728Y-154694417D01*
X120834727Y-154695591D01*
X120834727Y-154863812D01*
X121046093Y-154878815D01*
X121172321Y-154886062D01*
X121311058Y-154891386D01*
X121435029Y-154893776D01*
X121450183Y-154893818D01*
X121642909Y-154893818D01*
X121642909Y-155212127D01*
X121236629Y-155229053D01*
X120830348Y-155245978D01*
X120838310Y-155449003D01*
X120843946Y-155542294D01*
X120852188Y-155617788D01*
X120861596Y-155663706D01*
X120865449Y-155671241D01*
X120893541Y-155677803D01*
X120960335Y-155684633D01*
X121058359Y-155691235D01*
X121180140Y-155697110D01*
X121318206Y-155701760D01*
X121327267Y-155702000D01*
X121769909Y-155713546D01*
X121783423Y-156019062D01*
X121672757Y-156032907D01*
X121590020Y-156040734D01*
X121480373Y-156047521D01*
X121352858Y-156053096D01*
X121216517Y-156057289D01*
X121080395Y-156059928D01*
X120953533Y-156060840D01*
X120844974Y-156059856D01*
X120763761Y-156056804D01*
X120718938Y-156051512D01*
X120717277Y-156051014D01*
X120604703Y-155995290D01*
X120528026Y-155912794D01*
X120500161Y-155855965D01*
X120489801Y-155823084D01*
X120481689Y-155781430D01*
X120475638Y-155725787D01*
X120471461Y-155650935D01*
X120468973Y-155551657D01*
X120467985Y-155422734D01*
X120468310Y-155258947D01*
X120469763Y-155055080D01*
X120470103Y-155016672D01*
X120472110Y-154800331D01*
X120474551Y-154625170D01*
X120478529Y-154486190D01*
X120485145Y-154378393D01*
X120495500Y-154296780D01*
X120510697Y-154236355D01*
X120531836Y-154192119D01*
X120560019Y-154159074D01*
X120596347Y-154132222D01*
X120641923Y-154106566D01*
X120674442Y-154089521D01*
X120713236Y-154070157D01*
X120749728Y-154056408D01*
X120791984Y-154047642D01*
X120848069Y-154043227D01*
X120926049Y-154042531D01*
X121033990Y-154044921D01*
G36*
X119073820Y-154047909D02*
G01*
X119181250Y-154062783D01*
X119263936Y-154088604D01*
X119328926Y-154127272D01*
X119383266Y-154180692D01*
X119413838Y-154220825D01*
X119483909Y-154320524D01*
X119483909Y-155786191D01*
X119422469Y-155879032D01*
X119376819Y-155940225D01*
X119327041Y-155986181D01*
X119265794Y-156019150D01*
X119185738Y-156041383D01*
X119079532Y-156055129D01*
X118939835Y-156062639D01*
X118814273Y-156065449D01*
X118652337Y-156066437D01*
X118529861Y-156063627D01*
X118440248Y-156056632D01*
X118376900Y-156045061D01*
X118355624Y-156038411D01*
X118235593Y-155971846D01*
X118147334Y-155871950D01*
X118095956Y-155754550D01*
X118084960Y-155708485D01*
X118076665Y-155651783D01*
X118070851Y-155578512D01*
X118067295Y-155482743D01*
X118065776Y-155358542D01*
X118066074Y-155199980D01*
X118067939Y-155003454D01*
X118069002Y-154917334D01*
X118456244Y-154917334D01*
X118456363Y-155047985D01*
X118457451Y-155237151D01*
X118460617Y-155393995D01*
X118465716Y-155515042D01*
X118472602Y-155596819D01*
X118480964Y-155635548D01*
X118512148Y-155675219D01*
X118560532Y-155701200D01*
X118634105Y-155715459D01*
X118740853Y-155719966D01*
X118819258Y-155718934D01*
X118928122Y-155714258D01*
X119000678Y-155705625D01*
X119046750Y-155691231D01*
X119073258Y-155672294D01*
X119086083Y-155655877D01*
X119095956Y-155631730D01*
X119103255Y-155594166D01*
X119108360Y-155537499D01*
X119111652Y-155456042D01*
X119113511Y-155344110D01*
X119114315Y-155196016D01*
X119114454Y-155055423D01*
X119114755Y-154863750D01*
X119114017Y-154713276D01*
X119109782Y-154599040D01*
X119099592Y-154516081D01*
X119080987Y-154459439D01*
X119051510Y-154424152D01*
X119008701Y-154405260D01*
X118950102Y-154397801D01*
X118873255Y-154396816D01*
X118788317Y-154397364D01*
X118691236Y-154397112D01*
X118615158Y-154399691D01*
X118557530Y-154410105D01*
X118515799Y-154433359D01*
X118487412Y-154474454D01*
X118469815Y-154538396D01*
X118460457Y-154630187D01*
X118456785Y-154754832D01*
X118456244Y-154917334D01*
X118069002Y-154917334D01*
X118070246Y-154816570D01*
X118072587Y-154669926D01*
X118075491Y-154557584D01*
X118079485Y-154473606D01*
X118085098Y-154412052D01*
X118092859Y-154366985D01*
X118103295Y-154332465D01*
X118116935Y-154302555D01*
X118132843Y-154273872D01*
X118209203Y-154177791D01*
X118294479Y-154112236D01*
X118336839Y-154088784D01*
X118377271Y-154071982D01*
X118424704Y-154060501D01*
X118488068Y-154053010D01*
X118576294Y-154048178D01*
X118698311Y-154044675D01*
X118756545Y-154043391D01*
X118934601Y-154042079D01*
X119073820Y-154047909D01*
G37*
X119073820Y-154047909D02*
X119181250Y-154062783D01*
X119263936Y-154088604D01*
X119328926Y-154127272D01*
X119383266Y-154180692D01*
X119413838Y-154220825D01*
X119483909Y-154320524D01*
X119483909Y-155786191D01*
X119422469Y-155879032D01*
X119376819Y-155940225D01*
X119327041Y-155986181D01*
X119265794Y-156019150D01*
X119185738Y-156041383D01*
X119079532Y-156055129D01*
X118939835Y-156062639D01*
X118814273Y-156065449D01*
X118652337Y-156066437D01*
X118529861Y-156063627D01*
X118440248Y-156056632D01*
X118376900Y-156045061D01*
X118355624Y-156038411D01*
X118235593Y-155971846D01*
X118147334Y-155871950D01*
X118095956Y-155754550D01*
X118084960Y-155708485D01*
X118076665Y-155651783D01*
X118070851Y-155578512D01*
X118067295Y-155482743D01*
X118065776Y-155358542D01*
X118066074Y-155199980D01*
X118067939Y-155003454D01*
X118069002Y-154917334D01*
X118456244Y-154917334D01*
X118456363Y-155047985D01*
X118457451Y-155237151D01*
X118460617Y-155393995D01*
X118465716Y-155515042D01*
X118472602Y-155596819D01*
X118480964Y-155635548D01*
X118512148Y-155675219D01*
X118560532Y-155701200D01*
X118634105Y-155715459D01*
X118740853Y-155719966D01*
X118819258Y-155718934D01*
X118928122Y-155714258D01*
X119000678Y-155705625D01*
X119046750Y-155691231D01*
X119073258Y-155672294D01*
X119086083Y-155655877D01*
X119095956Y-155631730D01*
X119103255Y-155594166D01*
X119108360Y-155537499D01*
X119111652Y-155456042D01*
X119113511Y-155344110D01*
X119114315Y-155196016D01*
X119114454Y-155055423D01*
X119114755Y-154863750D01*
X119114017Y-154713276D01*
X119109782Y-154599040D01*
X119099592Y-154516081D01*
X119080987Y-154459439D01*
X119051510Y-154424152D01*
X119008701Y-154405260D01*
X118950102Y-154397801D01*
X118873255Y-154396816D01*
X118788317Y-154397364D01*
X118691236Y-154397112D01*
X118615158Y-154399691D01*
X118557530Y-154410105D01*
X118515799Y-154433359D01*
X118487412Y-154474454D01*
X118469815Y-154538396D01*
X118460457Y-154630187D01*
X118456785Y-154754832D01*
X118456244Y-154917334D01*
X118069002Y-154917334D01*
X118070246Y-154816570D01*
X118072587Y-154669926D01*
X118075491Y-154557584D01*
X118079485Y-154473606D01*
X118085098Y-154412052D01*
X118092859Y-154366985D01*
X118103295Y-154332465D01*
X118116935Y-154302555D01*
X118132843Y-154273872D01*
X118209203Y-154177791D01*
X118294479Y-154112236D01*
X118336839Y-154088784D01*
X118377271Y-154071982D01*
X118424704Y-154060501D01*
X118488068Y-154053010D01*
X118576294Y-154048178D01*
X118698311Y-154044675D01*
X118756545Y-154043391D01*
X118934601Y-154042079D01*
X119073820Y-154047909D01*
G36*
X117217278Y-154065783D02*
G01*
X117337301Y-154073079D01*
X117426931Y-154085282D01*
X117449230Y-154090770D01*
X117543874Y-154137285D01*
X117638753Y-154214288D01*
X117720374Y-154308171D01*
X117775247Y-154405329D01*
X117782802Y-154427169D01*
X117810192Y-154587988D01*
X117804284Y-154758068D01*
X117765832Y-154916089D01*
X117765523Y-154916909D01*
X117693071Y-155062691D01*
X117582938Y-155220813D01*
X117439937Y-155385521D01*
X117268877Y-155551061D01*
X117152239Y-155650454D01*
X117060387Y-155725091D01*
X117832909Y-155725091D01*
X117832909Y-156071455D01*
X116424363Y-156071455D01*
X116424363Y-155734631D01*
X116614788Y-155597088D01*
X116699217Y-155531322D01*
X116804628Y-155442008D01*
X116919989Y-155338883D01*
X117034266Y-155231683D01*
X117084671Y-155182455D01*
X117198424Y-155067563D01*
X117282499Y-154977170D01*
X117341879Y-154905257D01*
X117381544Y-154845803D01*
X117405954Y-154794188D01*
X117432817Y-154675181D01*
X117419120Y-154572576D01*
X117365609Y-154490086D01*
X117340612Y-154468849D01*
X117314412Y-154451790D01*
X117283514Y-154439059D01*
X117240816Y-154429870D01*
X117179218Y-154423438D01*
X117091620Y-154418976D01*
X116970920Y-154415699D01*
X116838384Y-154413282D01*
X116401273Y-154406110D01*
X116401273Y-154270520D01*
X116401575Y-154206633D01*
X116407651Y-154163479D01*
X116427254Y-154135609D01*
X116468140Y-154117576D01*
X116538062Y-154103932D01*
X116644774Y-154089227D01*
X116662716Y-154086824D01*
X116789582Y-154073915D01*
X116931946Y-154066144D01*
X117078335Y-154063452D01*
X117217278Y-154065783D01*
G37*
X117217278Y-154065783D02*
X117337301Y-154073079D01*
X117426931Y-154085282D01*
X117449230Y-154090770D01*
X117543874Y-154137285D01*
X117638753Y-154214288D01*
X117720374Y-154308171D01*
X117775247Y-154405329D01*
X117782802Y-154427169D01*
X117810192Y-154587988D01*
X117804284Y-154758068D01*
X117765832Y-154916089D01*
X117765523Y-154916909D01*
X117693071Y-155062691D01*
X117582938Y-155220813D01*
X117439937Y-155385521D01*
X117268877Y-155551061D01*
X117152239Y-155650454D01*
X117060387Y-155725091D01*
X117832909Y-155725091D01*
X117832909Y-156071455D01*
X116424363Y-156071455D01*
X116424363Y-155734631D01*
X116614788Y-155597088D01*
X116699217Y-155531322D01*
X116804628Y-155442008D01*
X116919989Y-155338883D01*
X117034266Y-155231683D01*
X117084671Y-155182455D01*
X117198424Y-155067563D01*
X117282499Y-154977170D01*
X117341879Y-154905257D01*
X117381544Y-154845803D01*
X117405954Y-154794188D01*
X117432817Y-154675181D01*
X117419120Y-154572576D01*
X117365609Y-154490086D01*
X117340612Y-154468849D01*
X117314412Y-154451790D01*
X117283514Y-154439059D01*
X117240816Y-154429870D01*
X117179218Y-154423438D01*
X117091620Y-154418976D01*
X116970920Y-154415699D01*
X116838384Y-154413282D01*
X116401273Y-154406110D01*
X116401273Y-154270520D01*
X116401575Y-154206633D01*
X116407651Y-154163479D01*
X116427254Y-154135609D01*
X116468140Y-154117576D01*
X116538062Y-154103932D01*
X116644774Y-154089227D01*
X116662716Y-154086824D01*
X116789582Y-154073915D01*
X116931946Y-154066144D01*
X117078335Y-154063452D01*
X117217278Y-154065783D01*
G36*
X115748729Y-154047909D02*
G01*
X115856159Y-154062783D01*
X115938845Y-154088604D01*
X116003835Y-154127272D01*
X116058175Y-154180692D01*
X116088747Y-154220825D01*
X116158818Y-154320524D01*
X116158818Y-155786191D01*
X116097379Y-155879032D01*
X116051728Y-155940225D01*
X116001950Y-155986181D01*
X115940703Y-156019150D01*
X115860647Y-156041383D01*
X115754441Y-156055129D01*
X115614745Y-156062639D01*
X115489182Y-156065449D01*
X115327246Y-156066437D01*
X115204771Y-156063627D01*
X115115157Y-156056632D01*
X115051809Y-156045061D01*
X115030533Y-156038411D01*
X114910502Y-155971846D01*
X114822243Y-155871950D01*
X114770865Y-155754550D01*
X114759869Y-155708485D01*
X114751575Y-155651783D01*
X114745760Y-155578512D01*
X114742204Y-155482743D01*
X114740685Y-155358542D01*
X114740983Y-155199980D01*
X114742848Y-155003454D01*
X114743911Y-154917334D01*
X115131153Y-154917334D01*
X115131273Y-155047985D01*
X115132360Y-155237151D01*
X115135526Y-155393995D01*
X115140625Y-155515042D01*
X115147511Y-155596819D01*
X115155873Y-155635548D01*
X115187057Y-155675219D01*
X115235441Y-155701200D01*
X115309014Y-155715459D01*
X115415762Y-155719966D01*
X115494167Y-155718934D01*
X115603031Y-155714258D01*
X115675587Y-155705625D01*
X115721659Y-155691231D01*
X115748167Y-155672294D01*
X115760992Y-155655877D01*
X115770865Y-155631730D01*
X115778164Y-155594166D01*
X115783269Y-155537499D01*
X115786561Y-155456042D01*
X115788420Y-155344110D01*
X115789224Y-155196016D01*
X115789363Y-155055423D01*
X115789664Y-154863750D01*
X115788926Y-154713276D01*
X115784691Y-154599040D01*
X115774501Y-154516081D01*
X115755896Y-154459439D01*
X115726419Y-154424152D01*
X115683610Y-154405260D01*
X115625011Y-154397801D01*
X115548164Y-154396816D01*
X115463226Y-154397364D01*
X115366145Y-154397112D01*
X115290067Y-154399691D01*
X115232439Y-154410105D01*
X115190708Y-154433359D01*
X115162321Y-154474454D01*
X115144724Y-154538396D01*
X115135366Y-154630187D01*
X115131694Y-154754832D01*
X115131153Y-154917334D01*
X114743911Y-154917334D01*
X114745155Y-154816570D01*
X114747496Y-154669926D01*
X114750400Y-154557584D01*
X114754394Y-154473606D01*
X114760007Y-154412052D01*
X114767768Y-154366985D01*
X114778204Y-154332465D01*
X114791844Y-154302555D01*
X114807752Y-154273872D01*
X114884113Y-154177791D01*
X114969388Y-154112236D01*
X115011748Y-154088784D01*
X115052180Y-154071982D01*
X115099613Y-154060501D01*
X115162978Y-154053010D01*
X115251203Y-154048178D01*
X115373220Y-154044675D01*
X115431454Y-154043391D01*
X115609510Y-154042079D01*
X115748729Y-154047909D01*
G37*
X115748729Y-154047909D02*
X115856159Y-154062783D01*
X115938845Y-154088604D01*
X116003835Y-154127272D01*
X116058175Y-154180692D01*
X116088747Y-154220825D01*
X116158818Y-154320524D01*
X116158818Y-155786191D01*
X116097379Y-155879032D01*
X116051728Y-155940225D01*
X116001950Y-155986181D01*
X115940703Y-156019150D01*
X115860647Y-156041383D01*
X115754441Y-156055129D01*
X115614745Y-156062639D01*
X115489182Y-156065449D01*
X115327246Y-156066437D01*
X115204771Y-156063627D01*
X115115157Y-156056632D01*
X115051809Y-156045061D01*
X115030533Y-156038411D01*
X114910502Y-155971846D01*
X114822243Y-155871950D01*
X114770865Y-155754550D01*
X114759869Y-155708485D01*
X114751575Y-155651783D01*
X114745760Y-155578512D01*
X114742204Y-155482743D01*
X114740685Y-155358542D01*
X114740983Y-155199980D01*
X114742848Y-155003454D01*
X114743911Y-154917334D01*
X115131153Y-154917334D01*
X115131273Y-155047985D01*
X115132360Y-155237151D01*
X115135526Y-155393995D01*
X115140625Y-155515042D01*
X115147511Y-155596819D01*
X115155873Y-155635548D01*
X115187057Y-155675219D01*
X115235441Y-155701200D01*
X115309014Y-155715459D01*
X115415762Y-155719966D01*
X115494167Y-155718934D01*
X115603031Y-155714258D01*
X115675587Y-155705625D01*
X115721659Y-155691231D01*
X115748167Y-155672294D01*
X115760992Y-155655877D01*
X115770865Y-155631730D01*
X115778164Y-155594166D01*
X115783269Y-155537499D01*
X115786561Y-155456042D01*
X115788420Y-155344110D01*
X115789224Y-155196016D01*
X115789363Y-155055423D01*
X115789664Y-154863750D01*
X115788926Y-154713276D01*
X115784691Y-154599040D01*
X115774501Y-154516081D01*
X115755896Y-154459439D01*
X115726419Y-154424152D01*
X115683610Y-154405260D01*
X115625011Y-154397801D01*
X115548164Y-154396816D01*
X115463226Y-154397364D01*
X115366145Y-154397112D01*
X115290067Y-154399691D01*
X115232439Y-154410105D01*
X115190708Y-154433359D01*
X115162321Y-154474454D01*
X115144724Y-154538396D01*
X115135366Y-154630187D01*
X115131694Y-154754832D01*
X115131153Y-154917334D01*
X114743911Y-154917334D01*
X114745155Y-154816570D01*
X114747496Y-154669926D01*
X114750400Y-154557584D01*
X114754394Y-154473606D01*
X114760007Y-154412052D01*
X114767768Y-154366985D01*
X114778204Y-154332465D01*
X114791844Y-154302555D01*
X114807752Y-154273872D01*
X114884113Y-154177791D01*
X114969388Y-154112236D01*
X115011748Y-154088784D01*
X115052180Y-154071982D01*
X115099613Y-154060501D01*
X115162978Y-154053010D01*
X115251203Y-154048178D01*
X115373220Y-154044675D01*
X115431454Y-154043391D01*
X115609510Y-154042079D01*
X115748729Y-154047909D01*
G36*
X113892187Y-154065783D02*
G01*
X114012210Y-154073079D01*
X114101840Y-154085282D01*
X114124139Y-154090770D01*
X114218783Y-154137285D01*
X114313662Y-154214288D01*
X114395284Y-154308171D01*
X114450156Y-154405329D01*
X114457711Y-154427169D01*
X114485101Y-154587988D01*
X114479194Y-154758068D01*
X114440742Y-154916089D01*
X114440432Y-154916909D01*
X114367980Y-155062691D01*
X114257848Y-155220813D01*
X114114846Y-155385521D01*
X113943786Y-155551061D01*
X113827148Y-155650454D01*
X113735296Y-155725091D01*
X114507818Y-155725091D01*
X114507818Y-156071455D01*
X113099273Y-156071455D01*
X113099273Y-155734631D01*
X113289697Y-155597088D01*
X113374126Y-155531322D01*
X113479537Y-155442008D01*
X113594898Y-155338883D01*
X113709175Y-155231683D01*
X113759580Y-155182455D01*
X113873333Y-155067563D01*
X113957408Y-154977170D01*
X114016788Y-154905257D01*
X114056453Y-154845803D01*
X114080863Y-154794188D01*
X114107726Y-154675181D01*
X114094029Y-154572576D01*
X114040518Y-154490086D01*
X114015521Y-154468849D01*
X113989321Y-154451790D01*
X113958423Y-154439059D01*
X113915725Y-154429870D01*
X113854127Y-154423438D01*
X113766529Y-154418976D01*
X113645829Y-154415699D01*
X113513293Y-154413282D01*
X113076182Y-154406110D01*
X113076182Y-154270520D01*
X113076484Y-154206633D01*
X113082560Y-154163479D01*
X113102163Y-154135609D01*
X113143049Y-154117576D01*
X113212971Y-154103932D01*
X113319684Y-154089227D01*
X113337625Y-154086824D01*
X113464491Y-154073915D01*
X113606855Y-154066144D01*
X113753244Y-154063452D01*
X113892187Y-154065783D01*
G37*
X113892187Y-154065783D02*
X114012210Y-154073079D01*
X114101840Y-154085282D01*
X114124139Y-154090770D01*
X114218783Y-154137285D01*
X114313662Y-154214288D01*
X114395284Y-154308171D01*
X114450156Y-154405329D01*
X114457711Y-154427169D01*
X114485101Y-154587988D01*
X114479194Y-154758068D01*
X114440742Y-154916089D01*
X114440432Y-154916909D01*
X114367980Y-155062691D01*
X114257848Y-155220813D01*
X114114846Y-155385521D01*
X113943786Y-155551061D01*
X113827148Y-155650454D01*
X113735296Y-155725091D01*
X114507818Y-155725091D01*
X114507818Y-156071455D01*
X113099273Y-156071455D01*
X113099273Y-155734631D01*
X113289697Y-155597088D01*
X113374126Y-155531322D01*
X113479537Y-155442008D01*
X113594898Y-155338883D01*
X113709175Y-155231683D01*
X113759580Y-155182455D01*
X113873333Y-155067563D01*
X113957408Y-154977170D01*
X114016788Y-154905257D01*
X114056453Y-154845803D01*
X114080863Y-154794188D01*
X114107726Y-154675181D01*
X114094029Y-154572576D01*
X114040518Y-154490086D01*
X114015521Y-154468849D01*
X113989321Y-154451790D01*
X113958423Y-154439059D01*
X113915725Y-154429870D01*
X113854127Y-154423438D01*
X113766529Y-154418976D01*
X113645829Y-154415699D01*
X113513293Y-154413282D01*
X113076182Y-154406110D01*
X113076182Y-154270520D01*
X113076484Y-154206633D01*
X113082560Y-154163479D01*
X113102163Y-154135609D01*
X113143049Y-154117576D01*
X113212971Y-154103932D01*
X113319684Y-154089227D01*
X113337625Y-154086824D01*
X113464491Y-154073915D01*
X113606855Y-154066144D01*
X113753244Y-154063452D01*
X113892187Y-154065783D01*
G36*
X134107840Y-154574228D02*
G01*
X134111780Y-154575419D01*
X134106037Y-154598427D01*
X134089713Y-154661462D01*
X134064018Y-154759901D01*
X134030166Y-154889120D01*
X133989368Y-155044497D01*
X133942837Y-155221409D01*
X133891784Y-155415231D01*
X133860789Y-155532779D01*
X133799748Y-155763915D01*
X133748965Y-155954909D01*
X133706969Y-156110289D01*
X133672286Y-156234581D01*
X133643446Y-156332311D01*
X133618977Y-156408006D01*
X133597406Y-156466191D01*
X133577262Y-156511394D01*
X133557073Y-156548140D01*
X133535366Y-156580956D01*
X133510671Y-156614369D01*
X133507878Y-156618052D01*
X133453321Y-156687726D01*
X133412828Y-156728524D01*
X133373257Y-156748888D01*
X133321465Y-156757259D01*
X133287569Y-156759544D01*
X133218381Y-156760174D01*
X133170583Y-156754233D01*
X133158484Y-156747999D01*
X133160650Y-156720515D01*
X133173744Y-156656669D01*
X133195884Y-156564470D01*
X133225191Y-156451925D01*
X133245083Y-156379219D01*
X133342599Y-156028892D01*
X133244355Y-156004154D01*
X133133903Y-155957950D01*
X133036612Y-155883882D01*
X132969995Y-155796288D01*
X132955271Y-155757006D01*
X132931157Y-155680028D01*
X132899682Y-155572404D01*
X132862879Y-155441184D01*
X132822777Y-155293418D01*
X132796183Y-155192902D01*
X132756040Y-155039796D01*
X132719310Y-154900030D01*
X132687764Y-154780312D01*
X132663169Y-154687350D01*
X132647298Y-154627852D01*
X132642418Y-154610029D01*
X132640501Y-154590379D01*
X132654185Y-154578707D01*
X132691708Y-154573523D01*
X132761313Y-154573336D01*
X132833911Y-154575392D01*
X133037339Y-154582091D01*
X133158000Y-155078546D01*
X133201923Y-155258289D01*
X133237029Y-155398098D01*
X133265153Y-155502974D01*
X133288132Y-155577919D01*
X133307802Y-155627935D01*
X133325998Y-155658024D01*
X133344557Y-155673188D01*
X133365315Y-155678428D01*
X133378368Y-155678892D01*
X133395352Y-155676393D01*
X133410709Y-155665449D01*
X133426267Y-155640869D01*
X133443850Y-155597462D01*
X133465284Y-155530040D01*
X133492396Y-155433412D01*
X133527010Y-155302387D01*
X133570953Y-155131775D01*
X133571284Y-155130483D01*
X133711751Y-154582091D01*
X133911875Y-154575419D01*
X134001463Y-154573143D01*
X134070275Y-154572746D01*
X134107840Y-154574228D01*
G37*
X134107840Y-154574228D02*
X134111780Y-154575419D01*
X134106037Y-154598427D01*
X134089713Y-154661462D01*
X134064018Y-154759901D01*
X134030166Y-154889120D01*
X133989368Y-155044497D01*
X133942837Y-155221409D01*
X133891784Y-155415231D01*
X133860789Y-155532779D01*
X133799748Y-155763915D01*
X133748965Y-155954909D01*
X133706969Y-156110289D01*
X133672286Y-156234581D01*
X133643446Y-156332311D01*
X133618977Y-156408006D01*
X133597406Y-156466191D01*
X133577262Y-156511394D01*
X133557073Y-156548140D01*
X133535366Y-156580956D01*
X133510671Y-156614369D01*
X133507878Y-156618052D01*
X133453321Y-156687726D01*
X133412828Y-156728524D01*
X133373257Y-156748888D01*
X133321465Y-156757259D01*
X133287569Y-156759544D01*
X133218381Y-156760174D01*
X133170583Y-156754233D01*
X133158484Y-156747999D01*
X133160650Y-156720515D01*
X133173744Y-156656669D01*
X133195884Y-156564470D01*
X133225191Y-156451925D01*
X133245083Y-156379219D01*
X133342599Y-156028892D01*
X133244355Y-156004154D01*
X133133903Y-155957950D01*
X133036612Y-155883882D01*
X132969995Y-155796288D01*
X132955271Y-155757006D01*
X132931157Y-155680028D01*
X132899682Y-155572404D01*
X132862879Y-155441184D01*
X132822777Y-155293418D01*
X132796183Y-155192902D01*
X132756040Y-155039796D01*
X132719310Y-154900030D01*
X132687764Y-154780312D01*
X132663169Y-154687350D01*
X132647298Y-154627852D01*
X132642418Y-154610029D01*
X132640501Y-154590379D01*
X132654185Y-154578707D01*
X132691708Y-154573523D01*
X132761313Y-154573336D01*
X132833911Y-154575392D01*
X133037339Y-154582091D01*
X133158000Y-155078546D01*
X133201923Y-155258289D01*
X133237029Y-155398098D01*
X133265153Y-155502974D01*
X133288132Y-155577919D01*
X133307802Y-155627935D01*
X133325998Y-155658024D01*
X133344557Y-155673188D01*
X133365315Y-155678428D01*
X133378368Y-155678892D01*
X133395352Y-155676393D01*
X133410709Y-155665449D01*
X133426267Y-155640869D01*
X133443850Y-155597462D01*
X133465284Y-155530040D01*
X133492396Y-155433412D01*
X133527010Y-155302387D01*
X133570953Y-155131775D01*
X133571284Y-155130483D01*
X133711751Y-154582091D01*
X133911875Y-154575419D01*
X134001463Y-154573143D01*
X134070275Y-154572746D01*
X134107840Y-154574228D01*
G36*
X119020384Y-157023233D02*
G01*
X119155425Y-157027837D01*
X119289070Y-157034845D01*
X119409468Y-157043842D01*
X119504771Y-157054413D01*
X119512773Y-157055588D01*
X119610909Y-157070444D01*
X119610909Y-157364546D01*
X119239246Y-157364546D01*
X119098115Y-157365024D01*
X118995226Y-157367029D01*
X118922647Y-157371421D01*
X118872442Y-157379056D01*
X118836677Y-157390791D01*
X118807419Y-157407486D01*
X118801061Y-157411914D01*
X118747802Y-157472558D01*
X118703789Y-157565156D01*
X118674204Y-157675658D01*
X118664182Y-157782921D01*
X118664182Y-157869642D01*
X118750773Y-157853776D01*
X118806847Y-157847730D01*
X118897037Y-157842746D01*
X119009277Y-157839312D01*
X119131505Y-157837918D01*
X119141671Y-157837909D01*
X119268511Y-157838618D01*
X119358215Y-157841524D01*
X119419817Y-157847796D01*
X119462354Y-157858603D01*
X119494858Y-157875113D01*
X119509699Y-157885518D01*
X119570452Y-157934578D01*
X119613683Y-157982459D01*
X119642643Y-158038454D01*
X119660584Y-158111857D01*
X119670756Y-158211961D01*
X119676412Y-158348059D01*
X119676833Y-158363225D01*
X119678746Y-158523449D01*
X119673425Y-158645815D01*
X119659060Y-158738326D01*
X119633841Y-158808987D01*
X119595957Y-158865801D01*
X119553527Y-158908235D01*
X119494500Y-158953046D01*
X119429402Y-158985368D01*
X119349693Y-159007021D01*
X119246832Y-159019828D01*
X119112277Y-159025608D01*
X118999000Y-159026455D01*
X118865020Y-159025024D01*
X118767086Y-159020372D01*
X118695110Y-159011374D01*
X118639005Y-158996906D01*
X118602209Y-158982215D01*
X118506248Y-158918104D01*
X118428748Y-158820191D01*
X118369073Y-158686544D01*
X118326587Y-158515227D01*
X118300656Y-158304308D01*
X118294521Y-158149636D01*
X118657484Y-158149636D01*
X118671166Y-158312836D01*
X118696740Y-158463987D01*
X118744712Y-158575017D01*
X118815008Y-158645761D01*
X118827082Y-158652682D01*
X118880873Y-158667687D01*
X118961402Y-158675348D01*
X119054461Y-158676101D01*
X119145838Y-158670386D01*
X119221324Y-158658640D01*
X119266709Y-158641303D01*
X119269288Y-158639039D01*
X119287077Y-158594741D01*
X119296989Y-158505830D01*
X119299182Y-158412166D01*
X119297845Y-158313673D01*
X119289367Y-158243525D01*
X119267051Y-158196914D01*
X119224196Y-158169028D01*
X119154104Y-158155060D01*
X119050076Y-158150200D01*
X118933510Y-158149636D01*
X118657484Y-158149636D01*
X118294521Y-158149636D01*
X118290642Y-158051852D01*
X118290528Y-158034182D01*
X118295433Y-157796964D01*
X118313424Y-157599501D01*
X118345804Y-157436896D01*
X118393875Y-157304252D01*
X118458941Y-157196670D01*
X118534847Y-157115693D01*
X118644008Y-157049192D01*
X118725382Y-157028000D01*
X118793513Y-157022899D01*
X118895797Y-157021449D01*
X119020384Y-157023233D01*
G37*
X119020384Y-157023233D02*
X119155425Y-157027837D01*
X119289070Y-157034845D01*
X119409468Y-157043842D01*
X119504771Y-157054413D01*
X119512773Y-157055588D01*
X119610909Y-157070444D01*
X119610909Y-157364546D01*
X119239246Y-157364546D01*
X119098115Y-157365024D01*
X118995226Y-157367029D01*
X118922647Y-157371421D01*
X118872442Y-157379056D01*
X118836677Y-157390791D01*
X118807419Y-157407486D01*
X118801061Y-157411914D01*
X118747802Y-157472558D01*
X118703789Y-157565156D01*
X118674204Y-157675658D01*
X118664182Y-157782921D01*
X118664182Y-157869642D01*
X118750773Y-157853776D01*
X118806847Y-157847730D01*
X118897037Y-157842746D01*
X119009277Y-157839312D01*
X119131505Y-157837918D01*
X119141671Y-157837909D01*
X119268511Y-157838618D01*
X119358215Y-157841524D01*
X119419817Y-157847796D01*
X119462354Y-157858603D01*
X119494858Y-157875113D01*
X119509699Y-157885518D01*
X119570452Y-157934578D01*
X119613683Y-157982459D01*
X119642643Y-158038454D01*
X119660584Y-158111857D01*
X119670756Y-158211961D01*
X119676412Y-158348059D01*
X119676833Y-158363225D01*
X119678746Y-158523449D01*
X119673425Y-158645815D01*
X119659060Y-158738326D01*
X119633841Y-158808987D01*
X119595957Y-158865801D01*
X119553527Y-158908235D01*
X119494500Y-158953046D01*
X119429402Y-158985368D01*
X119349693Y-159007021D01*
X119246832Y-159019828D01*
X119112277Y-159025608D01*
X118999000Y-159026455D01*
X118865020Y-159025024D01*
X118767086Y-159020372D01*
X118695110Y-159011374D01*
X118639005Y-158996906D01*
X118602209Y-158982215D01*
X118506248Y-158918104D01*
X118428748Y-158820191D01*
X118369073Y-158686544D01*
X118326587Y-158515227D01*
X118300656Y-158304308D01*
X118294521Y-158149636D01*
X118657484Y-158149636D01*
X118671166Y-158312836D01*
X118696740Y-158463987D01*
X118744712Y-158575017D01*
X118815008Y-158645761D01*
X118827082Y-158652682D01*
X118880873Y-158667687D01*
X118961402Y-158675348D01*
X119054461Y-158676101D01*
X119145838Y-158670386D01*
X119221324Y-158658640D01*
X119266709Y-158641303D01*
X119269288Y-158639039D01*
X119287077Y-158594741D01*
X119296989Y-158505830D01*
X119299182Y-158412166D01*
X119297845Y-158313673D01*
X119289367Y-158243525D01*
X119267051Y-158196914D01*
X119224196Y-158169028D01*
X119154104Y-158155060D01*
X119050076Y-158150200D01*
X118933510Y-158149636D01*
X118657484Y-158149636D01*
X118294521Y-158149636D01*
X118290642Y-158051852D01*
X118290528Y-158034182D01*
X118295433Y-157796964D01*
X118313424Y-157599501D01*
X118345804Y-157436896D01*
X118393875Y-157304252D01*
X118458941Y-157196670D01*
X118534847Y-157115693D01*
X118644008Y-157049192D01*
X118725382Y-157028000D01*
X118793513Y-157022899D01*
X118895797Y-157021449D01*
X119020384Y-157023233D01*
G36*
X116537316Y-158016864D02*
G01*
X116580639Y-158160161D01*
X116620240Y-158288462D01*
X116654020Y-158395178D01*
X116679878Y-158473724D01*
X116695716Y-158517512D01*
X116699007Y-158524115D01*
X116709738Y-158507999D01*
X116731582Y-158453672D01*
X116762425Y-158367169D01*
X116800152Y-158254525D01*
X116842648Y-158121777D01*
X116863496Y-158054712D01*
X116907779Y-157911886D01*
X116948098Y-157783629D01*
X116982302Y-157676636D01*
X117008243Y-157597602D01*
X117023771Y-157553219D01*
X117026680Y-157546506D01*
X117054563Y-157537045D01*
X117117295Y-157531324D01*
X117203633Y-157530172D01*
X117237337Y-157531000D01*
X117434495Y-157537727D01*
X117174755Y-158276636D01*
X116915015Y-159015546D01*
X116698529Y-159022085D01*
X116482043Y-159028625D01*
X116242055Y-158306267D01*
X116184034Y-158131719D01*
X116130420Y-157970618D01*
X116083011Y-157828351D01*
X116043606Y-157710302D01*
X116014001Y-157621860D01*
X115995993Y-157568409D01*
X115991382Y-157555046D01*
X115998033Y-157540537D01*
X116034865Y-157531490D01*
X116107727Y-157527035D01*
X116185562Y-157526182D01*
X116390429Y-157526182D01*
X116537316Y-158016864D01*
G37*
X116537316Y-158016864D02*
X116580639Y-158160161D01*
X116620240Y-158288462D01*
X116654020Y-158395178D01*
X116679878Y-158473724D01*
X116695716Y-158517512D01*
X116699007Y-158524115D01*
X116709738Y-158507999D01*
X116731582Y-158453672D01*
X116762425Y-158367169D01*
X116800152Y-158254525D01*
X116842648Y-158121777D01*
X116863496Y-158054712D01*
X116907779Y-157911886D01*
X116948098Y-157783629D01*
X116982302Y-157676636D01*
X117008243Y-157597602D01*
X117023771Y-157553219D01*
X117026680Y-157546506D01*
X117054563Y-157537045D01*
X117117295Y-157531324D01*
X117203633Y-157530172D01*
X117237337Y-157531000D01*
X117434495Y-157537727D01*
X117174755Y-158276636D01*
X116915015Y-159015546D01*
X116698529Y-159022085D01*
X116482043Y-159028625D01*
X116242055Y-158306267D01*
X116184034Y-158131719D01*
X116130420Y-157970618D01*
X116083011Y-157828351D01*
X116043606Y-157710302D01*
X116014001Y-157621860D01*
X115995993Y-157568409D01*
X115991382Y-157555046D01*
X115998033Y-157540537D01*
X116034865Y-157531490D01*
X116107727Y-157527035D01*
X116185562Y-157526182D01*
X116390429Y-157526182D01*
X116537316Y-158016864D01*
G36*
X115385990Y-157531161D02*
G01*
X115537292Y-157543862D01*
X115650947Y-157567664D01*
X115734861Y-157606075D01*
X115796942Y-157662601D01*
X115841318Y-157733120D01*
X115875597Y-157834785D01*
X115892938Y-157958887D01*
X115892854Y-158087428D01*
X115874857Y-158202409D01*
X115855522Y-158256846D01*
X115822733Y-158312998D01*
X115780552Y-158354546D01*
X115721804Y-158383861D01*
X115639314Y-158403316D01*
X115525906Y-158415282D01*
X115374405Y-158422130D01*
X115353674Y-158422711D01*
X115033439Y-158431280D01*
X115045977Y-158524756D01*
X115066197Y-158597982D01*
X115099975Y-158658673D01*
X115107251Y-158666798D01*
X115128732Y-158685311D01*
X115155092Y-158698337D01*
X115194094Y-158706756D01*
X115253497Y-158711450D01*
X115341062Y-158713301D01*
X115464551Y-158713188D01*
X115513085Y-158712880D01*
X115870182Y-158710397D01*
X115870182Y-158832551D01*
X115869421Y-158892794D01*
X115861759Y-158932999D01*
X115839124Y-158958839D01*
X115793447Y-158975991D01*
X115716657Y-158990128D01*
X115627727Y-159003034D01*
X115499399Y-159016679D01*
X115359786Y-159023732D01*
X115220897Y-159024352D01*
X115094744Y-159018694D01*
X114993338Y-159006914D01*
X114940554Y-158994087D01*
X114860489Y-158960082D01*
X114806527Y-158918590D01*
X114762932Y-158855098D01*
X114738921Y-158808127D01*
X114704300Y-158705316D01*
X114680169Y-158569469D01*
X114666590Y-158412539D01*
X114663623Y-158246479D01*
X114668195Y-158149636D01*
X115033033Y-158149636D01*
X115242140Y-158149636D01*
X115352381Y-158147448D01*
X115425423Y-158140015D01*
X115470080Y-158126033D01*
X115487532Y-158113351D01*
X115516475Y-158056064D01*
X115521493Y-157979464D01*
X115502556Y-157903758D01*
X115487872Y-157877683D01*
X115462189Y-157849750D01*
X115425990Y-157834164D01*
X115366502Y-157827523D01*
X115295178Y-157826364D01*
X115187192Y-157832997D01*
X115115817Y-157857441D01*
X115072814Y-157906510D01*
X115049940Y-157987019D01*
X115044149Y-158033948D01*
X115033033Y-158149636D01*
X114668195Y-158149636D01*
X114671330Y-158083242D01*
X114689773Y-157934782D01*
X114719013Y-157813052D01*
X114733614Y-157774817D01*
X114792835Y-157678725D01*
X114876719Y-157607600D01*
X114989359Y-157559914D01*
X115134848Y-157534138D01*
X115317278Y-157528743D01*
X115385990Y-157531161D01*
G37*
X115385990Y-157531161D02*
X115537292Y-157543862D01*
X115650947Y-157567664D01*
X115734861Y-157606075D01*
X115796942Y-157662601D01*
X115841318Y-157733120D01*
X115875597Y-157834785D01*
X115892938Y-157958887D01*
X115892854Y-158087428D01*
X115874857Y-158202409D01*
X115855522Y-158256846D01*
X115822733Y-158312998D01*
X115780552Y-158354546D01*
X115721804Y-158383861D01*
X115639314Y-158403316D01*
X115525906Y-158415282D01*
X115374405Y-158422130D01*
X115353674Y-158422711D01*
X115033439Y-158431280D01*
X115045977Y-158524756D01*
X115066197Y-158597982D01*
X115099975Y-158658673D01*
X115107251Y-158666798D01*
X115128732Y-158685311D01*
X115155092Y-158698337D01*
X115194094Y-158706756D01*
X115253497Y-158711450D01*
X115341062Y-158713301D01*
X115464551Y-158713188D01*
X115513085Y-158712880D01*
X115870182Y-158710397D01*
X115870182Y-158832551D01*
X115869421Y-158892794D01*
X115861759Y-158932999D01*
X115839124Y-158958839D01*
X115793447Y-158975991D01*
X115716657Y-158990128D01*
X115627727Y-159003034D01*
X115499399Y-159016679D01*
X115359786Y-159023732D01*
X115220897Y-159024352D01*
X115094744Y-159018694D01*
X114993338Y-159006914D01*
X114940554Y-158994087D01*
X114860489Y-158960082D01*
X114806527Y-158918590D01*
X114762932Y-158855098D01*
X114738921Y-158808127D01*
X114704300Y-158705316D01*
X114680169Y-158569469D01*
X114666590Y-158412539D01*
X114663623Y-158246479D01*
X114668195Y-158149636D01*
X115033033Y-158149636D01*
X115242140Y-158149636D01*
X115352381Y-158147448D01*
X115425423Y-158140015D01*
X115470080Y-158126033D01*
X115487532Y-158113351D01*
X115516475Y-158056064D01*
X115521493Y-157979464D01*
X115502556Y-157903758D01*
X115487872Y-157877683D01*
X115462189Y-157849750D01*
X115425990Y-157834164D01*
X115366502Y-157827523D01*
X115295178Y-157826364D01*
X115187192Y-157832997D01*
X115115817Y-157857441D01*
X115072814Y-157906510D01*
X115049940Y-157987019D01*
X115044149Y-158033948D01*
X115033033Y-158149636D01*
X114668195Y-158149636D01*
X114671330Y-158083242D01*
X114689773Y-157934782D01*
X114719013Y-157813052D01*
X114733614Y-157774817D01*
X114792835Y-157678725D01*
X114876719Y-157607600D01*
X114989359Y-157559914D01*
X115134848Y-157534138D01*
X115317278Y-157528743D01*
X115385990Y-157531161D01*
G36*
X113636136Y-156999009D02*
G01*
X113821843Y-157002079D01*
X113967712Y-157006348D01*
X114080086Y-157013275D01*
X114165306Y-157024318D01*
X114229716Y-157040935D01*
X114279659Y-157064586D01*
X114321477Y-157096727D01*
X114361513Y-157138818D01*
X114389628Y-157172255D01*
X114449229Y-157268378D01*
X114487074Y-157388834D01*
X114504475Y-157539843D01*
X114503452Y-157713242D01*
X114494399Y-157837613D01*
X114479110Y-157929374D01*
X114454967Y-158001955D01*
X114441888Y-158029315D01*
X114378854Y-158116391D01*
X114294330Y-158188789D01*
X114222983Y-158225247D01*
X114218039Y-158233401D01*
X114221532Y-158255119D01*
X114235373Y-158294936D01*
X114261473Y-158357386D01*
X114301743Y-158447004D01*
X114358094Y-158568322D01*
X114432439Y-158725875D01*
X114446617Y-158755773D01*
X114575348Y-159027091D01*
X114145470Y-159027091D01*
X113988193Y-158657449D01*
X113935367Y-158535480D01*
X113887124Y-158428154D01*
X113846909Y-158342824D01*
X113818171Y-158286843D01*
X113805685Y-158268074D01*
X113770613Y-158255513D01*
X113704836Y-158242728D01*
X113636136Y-158233979D01*
X113491818Y-158219617D01*
X113491818Y-159027091D01*
X113099273Y-159027091D01*
X113099273Y-157341455D01*
X113491818Y-157341455D01*
X113491818Y-157918727D01*
X113757363Y-157918727D01*
X113875202Y-157917790D01*
X113956028Y-157914116D01*
X114008986Y-157906411D01*
X114043224Y-157893383D01*
X114066648Y-157874988D01*
X114106040Y-157808207D01*
X114128312Y-157713988D01*
X114133439Y-157607685D01*
X114121397Y-157504650D01*
X114092161Y-157420239D01*
X114067426Y-157385972D01*
X114042447Y-157366413D01*
X114008025Y-157353503D01*
X113954957Y-157345920D01*
X113874045Y-157342345D01*
X113757363Y-157341455D01*
X113491818Y-157341455D01*
X113099273Y-157341455D01*
X113099273Y-156991370D01*
X113636136Y-156999009D01*
G37*
X113636136Y-156999009D02*
X113821843Y-157002079D01*
X113967712Y-157006348D01*
X114080086Y-157013275D01*
X114165306Y-157024318D01*
X114229716Y-157040935D01*
X114279659Y-157064586D01*
X114321477Y-157096727D01*
X114361513Y-157138818D01*
X114389628Y-157172255D01*
X114449229Y-157268378D01*
X114487074Y-157388834D01*
X114504475Y-157539843D01*
X114503452Y-157713242D01*
X114494399Y-157837613D01*
X114479110Y-157929374D01*
X114454967Y-158001955D01*
X114441888Y-158029315D01*
X114378854Y-158116391D01*
X114294330Y-158188789D01*
X114222983Y-158225247D01*
X114218039Y-158233401D01*
X114221532Y-158255119D01*
X114235373Y-158294936D01*
X114261473Y-158357386D01*
X114301743Y-158447004D01*
X114358094Y-158568322D01*
X114432439Y-158725875D01*
X114446617Y-158755773D01*
X114575348Y-159027091D01*
X114145470Y-159027091D01*
X113988193Y-158657449D01*
X113935367Y-158535480D01*
X113887124Y-158428154D01*
X113846909Y-158342824D01*
X113818171Y-158286843D01*
X113805685Y-158268074D01*
X113770613Y-158255513D01*
X113704836Y-158242728D01*
X113636136Y-158233979D01*
X113491818Y-158219617D01*
X113491818Y-159027091D01*
X113099273Y-159027091D01*
X113099273Y-157341455D01*
X113491818Y-157341455D01*
X113491818Y-157918727D01*
X113757363Y-157918727D01*
X113875202Y-157917790D01*
X113956028Y-157914116D01*
X114008986Y-157906411D01*
X114043224Y-157893383D01*
X114066648Y-157874988D01*
X114106040Y-157808207D01*
X114128312Y-157713988D01*
X114133439Y-157607685D01*
X114121397Y-157504650D01*
X114092161Y-157420239D01*
X114067426Y-157385972D01*
X114042447Y-157366413D01*
X114008025Y-157353503D01*
X113954957Y-157345920D01*
X113874045Y-157342345D01*
X113757363Y-157341455D01*
X113491818Y-157341455D01*
X113099273Y-157341455D01*
X113099273Y-156991370D01*
X113636136Y-156999009D01*
D12*
X136874000Y-117956000D02*
X136874000Y-115216000D01*
X136874000Y-115216000D02*
X130334000Y-115216000D01*
X130334000Y-115216000D02*
X130334000Y-117956000D01*
X130334000Y-117956000D02*
X136874000Y-117956000D01*
X137644000Y-116586000D02*
X136874000Y-116586000D01*
X129564000Y-116586000D02*
X130334000Y-116586000D01*
X137644000Y-120142000D02*
X136874000Y-120142000D01*
X129564000Y-120142000D02*
X130334000Y-120142000D01*
X136874000Y-118772000D02*
X130334000Y-118772000D01*
X136874000Y-121512000D02*
X136874000Y-118772000D01*
X130334000Y-121512000D02*
X136874000Y-121512000D01*
X130334000Y-118772000D02*
X130334000Y-121512000D01*
X136874000Y-128624000D02*
X136874000Y-125884000D01*
X136874000Y-125884000D02*
X130334000Y-125884000D01*
X130334000Y-125884000D02*
X130334000Y-128624000D01*
X130334000Y-128624000D02*
X136874000Y-128624000D01*
X137644000Y-127254000D02*
X136874000Y-127254000D01*
X129564000Y-127254000D02*
X130334000Y-127254000D01*
X130334000Y-129440000D02*
X130334000Y-132180000D01*
X130334000Y-132180000D02*
X136874000Y-132180000D01*
X136874000Y-132180000D02*
X136874000Y-129440000D01*
X136874000Y-129440000D02*
X130334000Y-129440000D01*
X129564000Y-130810000D02*
X130334000Y-130810000D01*
X137644000Y-130810000D02*
X136874000Y-130810000D01*
X108525000Y-143240000D02*
X108525000Y-148300000D01*
X108525000Y-148300000D02*
X159445000Y-148300000D01*
X159445000Y-148300000D02*
X159445000Y-136180000D01*
X159445000Y-136180000D02*
X108525000Y-136180000D01*
X108525000Y-136180000D02*
X108525000Y-141240000D01*
X108465000Y-151300000D02*
X159505000Y-151300000D01*
X159505000Y-151300000D02*
X159505000Y-133180000D01*
X159505000Y-133180000D02*
X108465000Y-133180000D01*
X108465000Y-133180000D02*
X108465000Y-151300000D01*
X108525000Y-141240000D02*
G75*
G02*
X108525000Y-143240000I0J-1000000D01*
G01*
D11*
G36*
X108759814Y-153932931D02*
G01*
X108843635Y-154377555D01*
X109152920Y-154505053D01*
X109462206Y-154632551D01*
X109833246Y-154380246D01*
X109937157Y-154309996D01*
X110031087Y-154247272D01*
X110110652Y-154194938D01*
X110171470Y-154155857D01*
X110209157Y-154132893D01*
X110219421Y-154127942D01*
X110237910Y-154140676D01*
X110277420Y-154175882D01*
X110333522Y-154229062D01*
X110401787Y-154295718D01*
X110477786Y-154371354D01*
X110557092Y-154451472D01*
X110635275Y-154531574D01*
X110707907Y-154607164D01*
X110770559Y-154673745D01*
X110818803Y-154726818D01*
X110848210Y-154761887D01*
X110855241Y-154773623D01*
X110845123Y-154795260D01*
X110816759Y-154842662D01*
X110773129Y-154911193D01*
X110717218Y-154996215D01*
X110652006Y-155093093D01*
X110614219Y-155148350D01*
X110545343Y-155249248D01*
X110484140Y-155340299D01*
X110433578Y-155416970D01*
X110396628Y-155474728D01*
X110376258Y-155509043D01*
X110373197Y-155516254D01*
X110380136Y-155536748D01*
X110399051Y-155584513D01*
X110427087Y-155652832D01*
X110461391Y-155734989D01*
X110499109Y-155824270D01*
X110537387Y-155913958D01*
X110573370Y-155997338D01*
X110604206Y-156067694D01*
X110627039Y-156118310D01*
X110639017Y-156142471D01*
X110639724Y-156143422D01*
X110658531Y-156148036D01*
X110708618Y-156158328D01*
X110784793Y-156173287D01*
X110881865Y-156191901D01*
X110994643Y-156213159D01*
X111060442Y-156225418D01*
X111180950Y-156248362D01*
X111289797Y-156270195D01*
X111381476Y-156289722D01*
X111450481Y-156305748D01*
X111491304Y-156317079D01*
X111499511Y-156320674D01*
X111507548Y-156345006D01*
X111514033Y-156399959D01*
X111518970Y-156479108D01*
X111522364Y-156576026D01*
X111524218Y-156684287D01*
X111524538Y-156797465D01*
X111523327Y-156909135D01*
X111520590Y-157012868D01*
X111516331Y-157102241D01*
X111510555Y-157170826D01*
X111503267Y-157212197D01*
X111498895Y-157220810D01*
X111472764Y-157231133D01*
X111417393Y-157245892D01*
X111340107Y-157263352D01*
X111248230Y-157281780D01*
X111216158Y-157287741D01*
X111061524Y-157316066D01*
X110939375Y-157338876D01*
X110845673Y-157357080D01*
X110776384Y-157371583D01*
X110727471Y-157383292D01*
X110694897Y-157393115D01*
X110674628Y-157401956D01*
X110662626Y-157410724D01*
X110660947Y-157412457D01*
X110644184Y-157440371D01*
X110618614Y-157494695D01*
X110586788Y-157568777D01*
X110551260Y-157655965D01*
X110514583Y-157749608D01*
X110479311Y-157843052D01*
X110447996Y-157929647D01*
X110423193Y-158002740D01*
X110407454Y-158055678D01*
X110403332Y-158081811D01*
X110403676Y-158082726D01*
X110417641Y-158104086D01*
X110449322Y-158151084D01*
X110495391Y-158218827D01*
X110552518Y-158302423D01*
X110617373Y-158396982D01*
X110635843Y-158423854D01*
X110701699Y-158521275D01*
X110759650Y-158610163D01*
X110806538Y-158685412D01*
X110839207Y-158741920D01*
X110854500Y-158774581D01*
X110855241Y-158778593D01*
X110842392Y-158799684D01*
X110806888Y-158841464D01*
X110753293Y-158899445D01*
X110686171Y-158969135D01*
X110610087Y-159046045D01*
X110529604Y-159125683D01*
X110449287Y-159203561D01*
X110373699Y-159275186D01*
X110307405Y-159336070D01*
X110254969Y-159381721D01*
X110220955Y-159407650D01*
X110211545Y-159411883D01*
X110189643Y-159401912D01*
X110144800Y-159375020D01*
X110084321Y-159335736D01*
X110037789Y-159304117D01*
X109953475Y-159246098D01*
X109853626Y-159177784D01*
X109753473Y-159109579D01*
X109699627Y-159073075D01*
X109517371Y-158949800D01*
X109364381Y-159032520D01*
X109294682Y-159068759D01*
X109235414Y-159096926D01*
X109195311Y-159112991D01*
X109185103Y-159115226D01*
X109172829Y-159098722D01*
X109148613Y-159052082D01*
X109114263Y-158979609D01*
X109071588Y-158885606D01*
X109022394Y-158774374D01*
X108968490Y-158650215D01*
X108911684Y-158517432D01*
X108853782Y-158380327D01*
X108796593Y-158243202D01*
X108741924Y-158110358D01*
X108691584Y-157986098D01*
X108647380Y-157874725D01*
X108611119Y-157780539D01*
X108584609Y-157707844D01*
X108569658Y-157660941D01*
X108567254Y-157644833D01*
X108586311Y-157624286D01*
X108628036Y-157590933D01*
X108683706Y-157551702D01*
X108688378Y-157548599D01*
X108832264Y-157433423D01*
X108948283Y-157299053D01*
X109035430Y-157149784D01*
X109092699Y-156989913D01*
X109119086Y-156823737D01*
X109113585Y-156655552D01*
X109075190Y-156489655D01*
X109002895Y-156330342D01*
X108981626Y-156295487D01*
X108870996Y-156154737D01*
X108740302Y-156041714D01*
X108594064Y-155957003D01*
X108436808Y-155901194D01*
X108273057Y-155874874D01*
X108107333Y-155878630D01*
X107944162Y-155913050D01*
X107788065Y-155978723D01*
X107643567Y-156076235D01*
X107598869Y-156115813D01*
X107485112Y-156239703D01*
X107402218Y-156370124D01*
X107345356Y-156516315D01*
X107313687Y-156661088D01*
X107305869Y-156823860D01*
X107331938Y-156987440D01*
X107389245Y-157146298D01*
X107475144Y-157294906D01*
X107586986Y-157427735D01*
X107722123Y-157539256D01*
X107739883Y-157551011D01*
X107796150Y-157589508D01*
X107838923Y-157622863D01*
X107859372Y-157644160D01*
X107859669Y-157644833D01*
X107855279Y-157667871D01*
X107837876Y-157720157D01*
X107809268Y-157797390D01*
X107771265Y-157895268D01*
X107725674Y-158009491D01*
X107674303Y-158135758D01*
X107618962Y-158269767D01*
X107561458Y-158407218D01*
X107503601Y-158543808D01*
X107447198Y-158675237D01*
X107394058Y-158797205D01*
X107345990Y-158905409D01*
X107304801Y-158995549D01*
X107272301Y-159063323D01*
X107250297Y-159104430D01*
X107241436Y-159115226D01*
X107214360Y-159106819D01*
X107163697Y-159084272D01*
X107098183Y-159051613D01*
X107062159Y-159032520D01*
X106909168Y-158949800D01*
X106726912Y-159073075D01*
X106633875Y-159136228D01*
X106532015Y-159205727D01*
X106436562Y-159271165D01*
X106388750Y-159304117D01*
X106321505Y-159349273D01*
X106264564Y-159385057D01*
X106225354Y-159406938D01*
X106212619Y-159411563D01*
X106194083Y-159399085D01*
X106153059Y-159364252D01*
X106093525Y-159310678D01*
X106019458Y-159241983D01*
X105934835Y-159161781D01*
X105881315Y-159110286D01*
X105787681Y-159018286D01*
X105706759Y-158935999D01*
X105641823Y-158866945D01*
X105596142Y-158814644D01*
X105572989Y-158782616D01*
X105570768Y-158776116D01*
X105581076Y-158751394D01*
X105609561Y-158701405D01*
X105653063Y-158631212D01*
X105708423Y-158545875D01*
X105772480Y-158450456D01*
X105790697Y-158423854D01*
X105857073Y-158327167D01*
X105916622Y-158240117D01*
X105966016Y-158167595D01*
X106001925Y-158114493D01*
X106021019Y-158085703D01*
X106022864Y-158082726D01*
X106020105Y-158059782D01*
X106005462Y-158009336D01*
X105981487Y-157938041D01*
X105950734Y-157852547D01*
X105915756Y-157759507D01*
X105879107Y-157665574D01*
X105843339Y-157577399D01*
X105811006Y-157501634D01*
X105784662Y-157444931D01*
X105766858Y-157413943D01*
X105765593Y-157412457D01*
X105754706Y-157403601D01*
X105736318Y-157394843D01*
X105706394Y-157385277D01*
X105660897Y-157373996D01*
X105595791Y-157360093D01*
X105507039Y-157342663D01*
X105390607Y-157320798D01*
X105242458Y-157293591D01*
X105210382Y-157287741D01*
X105115314Y-157269374D01*
X105032435Y-157251405D01*
X104969070Y-157235569D01*
X104932542Y-157223600D01*
X104927644Y-157220810D01*
X104919573Y-157196072D01*
X104913013Y-157140790D01*
X104907967Y-157061389D01*
X104904441Y-156964296D01*
X104902439Y-156855938D01*
X104901964Y-156742740D01*
X104903023Y-156631128D01*
X104905618Y-156527529D01*
X104909754Y-156438368D01*
X104915437Y-156370072D01*
X104922669Y-156329066D01*
X104927029Y-156320674D01*
X104951302Y-156312208D01*
X105006574Y-156298435D01*
X105087338Y-156280550D01*
X105188088Y-156259748D01*
X105303317Y-156237223D01*
X105366098Y-156225418D01*
X105485213Y-156203151D01*
X105591435Y-156182979D01*
X105679573Y-156165915D01*
X105744434Y-156152969D01*
X105780826Y-156145155D01*
X105786816Y-156143422D01*
X105796939Y-156123890D01*
X105818338Y-156076843D01*
X105848161Y-156009003D01*
X105883555Y-155927091D01*
X105921668Y-155837828D01*
X105959647Y-155747935D01*
X105994640Y-155664135D01*
X106023794Y-155593147D01*
X106044257Y-155541694D01*
X106053177Y-155516497D01*
X106053343Y-155515396D01*
X106043231Y-155495519D01*
X106014883Y-155449777D01*
X105971277Y-155382717D01*
X105915394Y-155298884D01*
X105850213Y-155202826D01*
X105812321Y-155147650D01*
X105743275Y-155046481D01*
X105681950Y-154954630D01*
X105631337Y-154876744D01*
X105594429Y-154817469D01*
X105574218Y-154781451D01*
X105571299Y-154773377D01*
X105583847Y-154754584D01*
X105618537Y-154714457D01*
X105670937Y-154657493D01*
X105736616Y-154588185D01*
X105811144Y-154511031D01*
X105890087Y-154430525D01*
X105969017Y-154351163D01*
X106043500Y-154277440D01*
X106109106Y-154213852D01*
X106161404Y-154164894D01*
X106195961Y-154135061D01*
X106207522Y-154127942D01*
X106226346Y-154137953D01*
X106271369Y-154166078D01*
X106338213Y-154209454D01*
X106422501Y-154265218D01*
X106519856Y-154330506D01*
X106593293Y-154380246D01*
X106964333Y-154632551D01*
X107582905Y-154377555D01*
X107666725Y-153932931D01*
X107750546Y-153488307D01*
X108675994Y-153488307D01*
X108759814Y-153932931D01*
G37*
X108759814Y-153932931D02*
X108843635Y-154377555D01*
X109152920Y-154505053D01*
X109462206Y-154632551D01*
X109833246Y-154380246D01*
X109937157Y-154309996D01*
X110031087Y-154247272D01*
X110110652Y-154194938D01*
X110171470Y-154155857D01*
X110209157Y-154132893D01*
X110219421Y-154127942D01*
X110237910Y-154140676D01*
X110277420Y-154175882D01*
X110333522Y-154229062D01*
X110401787Y-154295718D01*
X110477786Y-154371354D01*
X110557092Y-154451472D01*
X110635275Y-154531574D01*
X110707907Y-154607164D01*
X110770559Y-154673745D01*
X110818803Y-154726818D01*
X110848210Y-154761887D01*
X110855241Y-154773623D01*
X110845123Y-154795260D01*
X110816759Y-154842662D01*
X110773129Y-154911193D01*
X110717218Y-154996215D01*
X110652006Y-155093093D01*
X110614219Y-155148350D01*
X110545343Y-155249248D01*
X110484140Y-155340299D01*
X110433578Y-155416970D01*
X110396628Y-155474728D01*
X110376258Y-155509043D01*
X110373197Y-155516254D01*
X110380136Y-155536748D01*
X110399051Y-155584513D01*
X110427087Y-155652832D01*
X110461391Y-155734989D01*
X110499109Y-155824270D01*
X110537387Y-155913958D01*
X110573370Y-155997338D01*
X110604206Y-156067694D01*
X110627039Y-156118310D01*
X110639017Y-156142471D01*
X110639724Y-156143422D01*
X110658531Y-156148036D01*
X110708618Y-156158328D01*
X110784793Y-156173287D01*
X110881865Y-156191901D01*
X110994643Y-156213159D01*
X111060442Y-156225418D01*
X111180950Y-156248362D01*
X111289797Y-156270195D01*
X111381476Y-156289722D01*
X111450481Y-156305748D01*
X111491304Y-156317079D01*
X111499511Y-156320674D01*
X111507548Y-156345006D01*
X111514033Y-156399959D01*
X111518970Y-156479108D01*
X111522364Y-156576026D01*
X111524218Y-156684287D01*
X111524538Y-156797465D01*
X111523327Y-156909135D01*
X111520590Y-157012868D01*
X111516331Y-157102241D01*
X111510555Y-157170826D01*
X111503267Y-157212197D01*
X111498895Y-157220810D01*
X111472764Y-157231133D01*
X111417393Y-157245892D01*
X111340107Y-157263352D01*
X111248230Y-157281780D01*
X111216158Y-157287741D01*
X111061524Y-157316066D01*
X110939375Y-157338876D01*
X110845673Y-157357080D01*
X110776384Y-157371583D01*
X110727471Y-157383292D01*
X110694897Y-157393115D01*
X110674628Y-157401956D01*
X110662626Y-157410724D01*
X110660947Y-157412457D01*
X110644184Y-157440371D01*
X110618614Y-157494695D01*
X110586788Y-157568777D01*
X110551260Y-157655965D01*
X110514583Y-157749608D01*
X110479311Y-157843052D01*
X110447996Y-157929647D01*
X110423193Y-158002740D01*
X110407454Y-158055678D01*
X110403332Y-158081811D01*
X110403676Y-158082726D01*
X110417641Y-158104086D01*
X110449322Y-158151084D01*
X110495391Y-158218827D01*
X110552518Y-158302423D01*
X110617373Y-158396982D01*
X110635843Y-158423854D01*
X110701699Y-158521275D01*
X110759650Y-158610163D01*
X110806538Y-158685412D01*
X110839207Y-158741920D01*
X110854500Y-158774581D01*
X110855241Y-158778593D01*
X110842392Y-158799684D01*
X110806888Y-158841464D01*
X110753293Y-158899445D01*
X110686171Y-158969135D01*
X110610087Y-159046045D01*
X110529604Y-159125683D01*
X110449287Y-159203561D01*
X110373699Y-159275186D01*
X110307405Y-159336070D01*
X110254969Y-159381721D01*
X110220955Y-159407650D01*
X110211545Y-159411883D01*
X110189643Y-159401912D01*
X110144800Y-159375020D01*
X110084321Y-159335736D01*
X110037789Y-159304117D01*
X109953475Y-159246098D01*
X109853626Y-159177784D01*
X109753473Y-159109579D01*
X109699627Y-159073075D01*
X109517371Y-158949800D01*
X109364381Y-159032520D01*
X109294682Y-159068759D01*
X109235414Y-159096926D01*
X109195311Y-159112991D01*
X109185103Y-159115226D01*
X109172829Y-159098722D01*
X109148613Y-159052082D01*
X109114263Y-158979609D01*
X109071588Y-158885606D01*
X109022394Y-158774374D01*
X108968490Y-158650215D01*
X108911684Y-158517432D01*
X108853782Y-158380327D01*
X108796593Y-158243202D01*
X108741924Y-158110358D01*
X108691584Y-157986098D01*
X108647380Y-157874725D01*
X108611119Y-157780539D01*
X108584609Y-157707844D01*
X108569658Y-157660941D01*
X108567254Y-157644833D01*
X108586311Y-157624286D01*
X108628036Y-157590933D01*
X108683706Y-157551702D01*
X108688378Y-157548599D01*
X108832264Y-157433423D01*
X108948283Y-157299053D01*
X109035430Y-157149784D01*
X109092699Y-156989913D01*
X109119086Y-156823737D01*
X109113585Y-156655552D01*
X109075190Y-156489655D01*
X109002895Y-156330342D01*
X108981626Y-156295487D01*
X108870996Y-156154737D01*
X108740302Y-156041714D01*
X108594064Y-155957003D01*
X108436808Y-155901194D01*
X108273057Y-155874874D01*
X108107333Y-155878630D01*
X107944162Y-155913050D01*
X107788065Y-155978723D01*
X107643567Y-156076235D01*
X107598869Y-156115813D01*
X107485112Y-156239703D01*
X107402218Y-156370124D01*
X107345356Y-156516315D01*
X107313687Y-156661088D01*
X107305869Y-156823860D01*
X107331938Y-156987440D01*
X107389245Y-157146298D01*
X107475144Y-157294906D01*
X107586986Y-157427735D01*
X107722123Y-157539256D01*
X107739883Y-157551011D01*
X107796150Y-157589508D01*
X107838923Y-157622863D01*
X107859372Y-157644160D01*
X107859669Y-157644833D01*
X107855279Y-157667871D01*
X107837876Y-157720157D01*
X107809268Y-157797390D01*
X107771265Y-157895268D01*
X107725674Y-158009491D01*
X107674303Y-158135758D01*
X107618962Y-158269767D01*
X107561458Y-158407218D01*
X107503601Y-158543808D01*
X107447198Y-158675237D01*
X107394058Y-158797205D01*
X107345990Y-158905409D01*
X107304801Y-158995549D01*
X107272301Y-159063323D01*
X107250297Y-159104430D01*
X107241436Y-159115226D01*
X107214360Y-159106819D01*
X107163697Y-159084272D01*
X107098183Y-159051613D01*
X107062159Y-159032520D01*
X106909168Y-158949800D01*
X106726912Y-159073075D01*
X106633875Y-159136228D01*
X106532015Y-159205727D01*
X106436562Y-159271165D01*
X106388750Y-159304117D01*
X106321505Y-159349273D01*
X106264564Y-159385057D01*
X106225354Y-159406938D01*
X106212619Y-159411563D01*
X106194083Y-159399085D01*
X106153059Y-159364252D01*
X106093525Y-159310678D01*
X106019458Y-159241983D01*
X105934835Y-159161781D01*
X105881315Y-159110286D01*
X105787681Y-159018286D01*
X105706759Y-158935999D01*
X105641823Y-158866945D01*
X105596142Y-158814644D01*
X105572989Y-158782616D01*
X105570768Y-158776116D01*
X105581076Y-158751394D01*
X105609561Y-158701405D01*
X105653063Y-158631212D01*
X105708423Y-158545875D01*
X105772480Y-158450456D01*
X105790697Y-158423854D01*
X105857073Y-158327167D01*
X105916622Y-158240117D01*
X105966016Y-158167595D01*
X106001925Y-158114493D01*
X106021019Y-158085703D01*
X106022864Y-158082726D01*
X106020105Y-158059782D01*
X106005462Y-158009336D01*
X105981487Y-157938041D01*
X105950734Y-157852547D01*
X105915756Y-157759507D01*
X105879107Y-157665574D01*
X105843339Y-157577399D01*
X105811006Y-157501634D01*
X105784662Y-157444931D01*
X105766858Y-157413943D01*
X105765593Y-157412457D01*
X105754706Y-157403601D01*
X105736318Y-157394843D01*
X105706394Y-157385277D01*
X105660897Y-157373996D01*
X105595791Y-157360093D01*
X105507039Y-157342663D01*
X105390607Y-157320798D01*
X105242458Y-157293591D01*
X105210382Y-157287741D01*
X105115314Y-157269374D01*
X105032435Y-157251405D01*
X104969070Y-157235569D01*
X104932542Y-157223600D01*
X104927644Y-157220810D01*
X104919573Y-157196072D01*
X104913013Y-157140790D01*
X104907967Y-157061389D01*
X104904441Y-156964296D01*
X104902439Y-156855938D01*
X104901964Y-156742740D01*
X104903023Y-156631128D01*
X104905618Y-156527529D01*
X104909754Y-156438368D01*
X104915437Y-156370072D01*
X104922669Y-156329066D01*
X104927029Y-156320674D01*
X104951302Y-156312208D01*
X105006574Y-156298435D01*
X105087338Y-156280550D01*
X105188088Y-156259748D01*
X105303317Y-156237223D01*
X105366098Y-156225418D01*
X105485213Y-156203151D01*
X105591435Y-156182979D01*
X105679573Y-156165915D01*
X105744434Y-156152969D01*
X105780826Y-156145155D01*
X105786816Y-156143422D01*
X105796939Y-156123890D01*
X105818338Y-156076843D01*
X105848161Y-156009003D01*
X105883555Y-155927091D01*
X105921668Y-155837828D01*
X105959647Y-155747935D01*
X105994640Y-155664135D01*
X106023794Y-155593147D01*
X106044257Y-155541694D01*
X106053177Y-155516497D01*
X106053343Y-155515396D01*
X106043231Y-155495519D01*
X106014883Y-155449777D01*
X105971277Y-155382717D01*
X105915394Y-155298884D01*
X105850213Y-155202826D01*
X105812321Y-155147650D01*
X105743275Y-155046481D01*
X105681950Y-154954630D01*
X105631337Y-154876744D01*
X105594429Y-154817469D01*
X105574218Y-154781451D01*
X105571299Y-154773377D01*
X105583847Y-154754584D01*
X105618537Y-154714457D01*
X105670937Y-154657493D01*
X105736616Y-154588185D01*
X105811144Y-154511031D01*
X105890087Y-154430525D01*
X105969017Y-154351163D01*
X106043500Y-154277440D01*
X106109106Y-154213852D01*
X106161404Y-154164894D01*
X106195961Y-154135061D01*
X106207522Y-154127942D01*
X106226346Y-154137953D01*
X106271369Y-154166078D01*
X106338213Y-154209454D01*
X106422501Y-154265218D01*
X106519856Y-154330506D01*
X106593293Y-154380246D01*
X106964333Y-154632551D01*
X107582905Y-154377555D01*
X107666725Y-153932931D01*
X107750546Y-153488307D01*
X108675994Y-153488307D01*
X108759814Y-153932931D01*
D12*
X68226000Y-123332000D02*
X68226000Y-135482000D01*
X80376000Y-122582000D02*
X68976000Y-122582000D01*
X81126000Y-134732000D02*
X81126000Y-123332000D01*
X68226000Y-135482000D02*
X80376000Y-135482000D01*
X80376000Y-135482000D02*
G75*
G03*
X81126000Y-134732000I0J750000D01*
G01*
X81126000Y-123332000D02*
G75*
G03*
X80376000Y-122582000I-750000J0D01*
G01*
X68976000Y-122582000D02*
G75*
G03*
X68226000Y-123332000I0J-750000D01*
G01*
X93210000Y-155806000D02*
X97250000Y-155806000D01*
X93210000Y-158646000D02*
X97250000Y-158646000D01*
X93210000Y-155806000D02*
X93210000Y-156431000D01*
X93210000Y-158021000D02*
X93210000Y-158646000D01*
X97250000Y-155806000D02*
X97250000Y-156431000D01*
X97250000Y-158021000D02*
X97250000Y-158646000D01*
X84844000Y-160307000D02*
X84844000Y-160932000D01*
X84844000Y-158092000D02*
X84844000Y-158717000D01*
X80804000Y-160307000D02*
X80804000Y-160932000D01*
X80804000Y-158092000D02*
X80804000Y-158717000D01*
X80804000Y-160932000D02*
X84844000Y-160932000D01*
X80804000Y-158092000D02*
X84844000Y-158092000D01*
X82517000Y-129000000D02*
X81892000Y-129000000D01*
X84732000Y-129000000D02*
X84107000Y-129000000D01*
X82517000Y-124960000D02*
X81892000Y-124960000D01*
X84732000Y-124960000D02*
X84107000Y-124960000D01*
X81892000Y-124960000D02*
X81892000Y-129000000D01*
X84732000Y-124960000D02*
X84732000Y-129000000D01*
X72398000Y-160932000D02*
X68358000Y-160932000D01*
X72398000Y-158092000D02*
X68358000Y-158092000D01*
X72398000Y-160932000D02*
X72398000Y-160307000D01*
X72398000Y-158717000D02*
X72398000Y-158092000D01*
X68358000Y-160932000D02*
X68358000Y-160307000D01*
X68358000Y-158717000D02*
X68358000Y-158092000D01*
X108450000Y-129644000D02*
X112490000Y-129644000D01*
X108450000Y-132484000D02*
X112490000Y-132484000D01*
X108450000Y-129644000D02*
X108450000Y-130269000D01*
X108450000Y-131859000D02*
X108450000Y-132484000D01*
X112490000Y-129644000D02*
X112490000Y-130269000D01*
X112490000Y-131859000D02*
X112490000Y-132484000D01*
X147034000Y-119360000D02*
G75*
G03*
X147034000Y-119360000I-3270000J0D01*
G01*
X146994000Y-119360000D02*
X140534000Y-119360000D01*
X146994000Y-119400000D02*
X140534000Y-119400000D01*
X146994000Y-119440000D02*
X140534000Y-119440000D01*
X146992000Y-119480000D02*
X140536000Y-119480000D01*
X146991000Y-119520000D02*
X140537000Y-119520000D01*
X146988000Y-119560000D02*
X140540000Y-119560000D01*
X146986000Y-119600000D02*
X144804000Y-119600000D01*
X142724000Y-119600000D02*
X140542000Y-119600000D01*
X146982000Y-119640000D02*
X144804000Y-119640000D01*
X142724000Y-119640000D02*
X140546000Y-119640000D01*
X146979000Y-119680000D02*
X144804000Y-119680000D01*
X142724000Y-119680000D02*
X140549000Y-119680000D01*
X146975000Y-119720000D02*
X144804000Y-119720000D01*
X142724000Y-119720000D02*
X140553000Y-119720000D01*
X146970000Y-119760000D02*
X144804000Y-119760000D01*
X142724000Y-119760000D02*
X140558000Y-119760000D01*
X146965000Y-119800000D02*
X144804000Y-119800000D01*
X142724000Y-119800000D02*
X140563000Y-119800000D01*
X146959000Y-119840000D02*
X144804000Y-119840000D01*
X142724000Y-119840000D02*
X140569000Y-119840000D01*
X146953000Y-119880000D02*
X144804000Y-119880000D01*
X142724000Y-119880000D02*
X140575000Y-119880000D01*
X146946000Y-119920000D02*
X144804000Y-119920000D01*
X142724000Y-119920000D02*
X140582000Y-119920000D01*
X146939000Y-119960000D02*
X144804000Y-119960000D01*
X142724000Y-119960000D02*
X140589000Y-119960000D01*
X146931000Y-120000000D02*
X144804000Y-120000000D01*
X142724000Y-120000000D02*
X140597000Y-120000000D01*
X146923000Y-120040000D02*
X144804000Y-120040000D01*
X142724000Y-120040000D02*
X140605000Y-120040000D01*
X146914000Y-120081000D02*
X144804000Y-120081000D01*
X142724000Y-120081000D02*
X140614000Y-120081000D01*
X146905000Y-120121000D02*
X144804000Y-120121000D01*
X142724000Y-120121000D02*
X140623000Y-120121000D01*
X146895000Y-120161000D02*
X144804000Y-120161000D01*
X142724000Y-120161000D02*
X140633000Y-120161000D01*
X146885000Y-120201000D02*
X144804000Y-120201000D01*
X142724000Y-120201000D02*
X140643000Y-120201000D01*
X146874000Y-120241000D02*
X144804000Y-120241000D01*
X142724000Y-120241000D02*
X140654000Y-120241000D01*
X146862000Y-120281000D02*
X144804000Y-120281000D01*
X142724000Y-120281000D02*
X140666000Y-120281000D01*
X146850000Y-120321000D02*
X144804000Y-120321000D01*
X142724000Y-120321000D02*
X140678000Y-120321000D01*
X146838000Y-120361000D02*
X144804000Y-120361000D01*
X142724000Y-120361000D02*
X140690000Y-120361000D01*
X146825000Y-120401000D02*
X144804000Y-120401000D01*
X142724000Y-120401000D02*
X140703000Y-120401000D01*
X146811000Y-120441000D02*
X144804000Y-120441000D01*
X142724000Y-120441000D02*
X140717000Y-120441000D01*
X146797000Y-120481000D02*
X144804000Y-120481000D01*
X142724000Y-120481000D02*
X140731000Y-120481000D01*
X146782000Y-120521000D02*
X144804000Y-120521000D01*
X142724000Y-120521000D02*
X140746000Y-120521000D01*
X146766000Y-120561000D02*
X144804000Y-120561000D01*
X142724000Y-120561000D02*
X140762000Y-120561000D01*
X146750000Y-120601000D02*
X144804000Y-120601000D01*
X142724000Y-120601000D02*
X140778000Y-120601000D01*
X146734000Y-120641000D02*
X144804000Y-120641000D01*
X142724000Y-120641000D02*
X140794000Y-120641000D01*
X146716000Y-120681000D02*
X144804000Y-120681000D01*
X142724000Y-120681000D02*
X140812000Y-120681000D01*
X146698000Y-120721000D02*
X144804000Y-120721000D01*
X142724000Y-120721000D02*
X140830000Y-120721000D01*
X146680000Y-120761000D02*
X144804000Y-120761000D01*
X142724000Y-120761000D02*
X140848000Y-120761000D01*
X146660000Y-120801000D02*
X144804000Y-120801000D01*
X142724000Y-120801000D02*
X140868000Y-120801000D01*
X146640000Y-120841000D02*
X144804000Y-120841000D01*
X142724000Y-120841000D02*
X140888000Y-120841000D01*
X146620000Y-120881000D02*
X144804000Y-120881000D01*
X142724000Y-120881000D02*
X140908000Y-120881000D01*
X146598000Y-120921000D02*
X144804000Y-120921000D01*
X142724000Y-120921000D02*
X140930000Y-120921000D01*
X146576000Y-120961000D02*
X144804000Y-120961000D01*
X142724000Y-120961000D02*
X140952000Y-120961000D01*
X146554000Y-121001000D02*
X144804000Y-121001000D01*
X142724000Y-121001000D02*
X140974000Y-121001000D01*
X146530000Y-121041000D02*
X144804000Y-121041000D01*
X142724000Y-121041000D02*
X140998000Y-121041000D01*
X146506000Y-121081000D02*
X144804000Y-121081000D01*
X142724000Y-121081000D02*
X141022000Y-121081000D01*
X146480000Y-121121000D02*
X144804000Y-121121000D01*
X142724000Y-121121000D02*
X141048000Y-121121000D01*
X146454000Y-121161000D02*
X144804000Y-121161000D01*
X142724000Y-121161000D02*
X141074000Y-121161000D01*
X146428000Y-121201000D02*
X144804000Y-121201000D01*
X142724000Y-121201000D02*
X141100000Y-121201000D01*
X146400000Y-121241000D02*
X144804000Y-121241000D01*
X142724000Y-121241000D02*
X141128000Y-121241000D01*
X146371000Y-121281000D02*
X144804000Y-121281000D01*
X142724000Y-121281000D02*
X141157000Y-121281000D01*
X146342000Y-121321000D02*
X144804000Y-121321000D01*
X142724000Y-121321000D02*
X141186000Y-121321000D01*
X146312000Y-121361000D02*
X144804000Y-121361000D01*
X142724000Y-121361000D02*
X141216000Y-121361000D01*
X146280000Y-121401000D02*
X144804000Y-121401000D01*
X142724000Y-121401000D02*
X141248000Y-121401000D01*
X146248000Y-121441000D02*
X144804000Y-121441000D01*
X142724000Y-121441000D02*
X141280000Y-121441000D01*
X146214000Y-121481000D02*
X144804000Y-121481000D01*
X142724000Y-121481000D02*
X141314000Y-121481000D01*
X146180000Y-121521000D02*
X144804000Y-121521000D01*
X142724000Y-121521000D02*
X141348000Y-121521000D01*
X146144000Y-121561000D02*
X144804000Y-121561000D01*
X142724000Y-121561000D02*
X141384000Y-121561000D01*
X146107000Y-121601000D02*
X144804000Y-121601000D01*
X142724000Y-121601000D02*
X141421000Y-121601000D01*
X146069000Y-121641000D02*
X144804000Y-121641000D01*
X142724000Y-121641000D02*
X141459000Y-121641000D01*
X146029000Y-121681000D02*
X141499000Y-121681000D01*
X145988000Y-121721000D02*
X141540000Y-121721000D01*
X145946000Y-121761000D02*
X141582000Y-121761000D01*
X145901000Y-121801000D02*
X141627000Y-121801000D01*
X145856000Y-121841000D02*
X141672000Y-121841000D01*
X145808000Y-121881000D02*
X141720000Y-121881000D01*
X145759000Y-121921000D02*
X141769000Y-121921000D01*
X145708000Y-121961000D02*
X141820000Y-121961000D01*
X145654000Y-122001000D02*
X141874000Y-122001000D01*
X145598000Y-122041000D02*
X141930000Y-122041000D01*
X145540000Y-122081000D02*
X141988000Y-122081000D01*
X145478000Y-122121000D02*
X142050000Y-122121000D01*
X145414000Y-122161000D02*
X142114000Y-122161000D01*
X145345000Y-122201000D02*
X142183000Y-122201000D01*
X145273000Y-122241000D02*
X142255000Y-122241000D01*
X145196000Y-122281000D02*
X142332000Y-122281000D01*
X145114000Y-122321000D02*
X142414000Y-122321000D01*
X145026000Y-122361000D02*
X142502000Y-122361000D01*
X144929000Y-122401000D02*
X142599000Y-122401000D01*
X144823000Y-122441000D02*
X142705000Y-122441000D01*
X144704000Y-122481000D02*
X142824000Y-122481000D01*
X144566000Y-122521000D02*
X142962000Y-122521000D01*
X144397000Y-122561000D02*
X143131000Y-122561000D01*
X144166000Y-122601000D02*
X143362000Y-122601000D01*
X145603000Y-115859759D02*
X145603000Y-116489759D01*
X145918000Y-116174759D02*
X145288000Y-116174759D01*
X145918000Y-124429759D02*
X145288000Y-124429759D01*
X145603000Y-124114759D02*
X145603000Y-124744759D01*
X144166000Y-130856000D02*
X143362000Y-130856000D01*
X144397000Y-130816000D02*
X143131000Y-130816000D01*
X144566000Y-130776000D02*
X142962000Y-130776000D01*
X144704000Y-130736000D02*
X142824000Y-130736000D01*
X144823000Y-130696000D02*
X142705000Y-130696000D01*
X144929000Y-130656000D02*
X142599000Y-130656000D01*
X145026000Y-130616000D02*
X142502000Y-130616000D01*
X145114000Y-130576000D02*
X142414000Y-130576000D01*
X145196000Y-130536000D02*
X142332000Y-130536000D01*
X145273000Y-130496000D02*
X142255000Y-130496000D01*
X145345000Y-130456000D02*
X142183000Y-130456000D01*
X145414000Y-130416000D02*
X142114000Y-130416000D01*
X145478000Y-130376000D02*
X142050000Y-130376000D01*
X145540000Y-130336000D02*
X141988000Y-130336000D01*
X145598000Y-130296000D02*
X141930000Y-130296000D01*
X145654000Y-130256000D02*
X141874000Y-130256000D01*
X145708000Y-130216000D02*
X141820000Y-130216000D01*
X145759000Y-130176000D02*
X141769000Y-130176000D01*
X145808000Y-130136000D02*
X141720000Y-130136000D01*
X145856000Y-130096000D02*
X141672000Y-130096000D01*
X145901000Y-130056000D02*
X141627000Y-130056000D01*
X145946000Y-130016000D02*
X141582000Y-130016000D01*
X145988000Y-129976000D02*
X141540000Y-129976000D01*
X146029000Y-129936000D02*
X141499000Y-129936000D01*
X142724000Y-129896000D02*
X141459000Y-129896000D01*
X146069000Y-129896000D02*
X144804000Y-129896000D01*
X142724000Y-129856000D02*
X141421000Y-129856000D01*
X146107000Y-129856000D02*
X144804000Y-129856000D01*
X142724000Y-129816000D02*
X141384000Y-129816000D01*
X146144000Y-129816000D02*
X144804000Y-129816000D01*
X142724000Y-129776000D02*
X141348000Y-129776000D01*
X146180000Y-129776000D02*
X144804000Y-129776000D01*
X142724000Y-129736000D02*
X141314000Y-129736000D01*
X146214000Y-129736000D02*
X144804000Y-129736000D01*
X142724000Y-129696000D02*
X141280000Y-129696000D01*
X146248000Y-129696000D02*
X144804000Y-129696000D01*
X142724000Y-129656000D02*
X141248000Y-129656000D01*
X146280000Y-129656000D02*
X144804000Y-129656000D01*
X142724000Y-129616000D02*
X141216000Y-129616000D01*
X146312000Y-129616000D02*
X144804000Y-129616000D01*
X142724000Y-129576000D02*
X141186000Y-129576000D01*
X146342000Y-129576000D02*
X144804000Y-129576000D01*
X142724000Y-129536000D02*
X141157000Y-129536000D01*
X146371000Y-129536000D02*
X144804000Y-129536000D01*
X142724000Y-129496000D02*
X141128000Y-129496000D01*
X146400000Y-129496000D02*
X144804000Y-129496000D01*
X142724000Y-129456000D02*
X141100000Y-129456000D01*
X146428000Y-129456000D02*
X144804000Y-129456000D01*
X142724000Y-129416000D02*
X141074000Y-129416000D01*
X146454000Y-129416000D02*
X144804000Y-129416000D01*
X142724000Y-129376000D02*
X141048000Y-129376000D01*
X146480000Y-129376000D02*
X144804000Y-129376000D01*
X142724000Y-129336000D02*
X141022000Y-129336000D01*
X146506000Y-129336000D02*
X144804000Y-129336000D01*
X142724000Y-129296000D02*
X140998000Y-129296000D01*
X146530000Y-129296000D02*
X144804000Y-129296000D01*
X142724000Y-129256000D02*
X140974000Y-129256000D01*
X146554000Y-129256000D02*
X144804000Y-129256000D01*
X142724000Y-129216000D02*
X140952000Y-129216000D01*
X146576000Y-129216000D02*
X144804000Y-129216000D01*
X142724000Y-129176000D02*
X140930000Y-129176000D01*
X146598000Y-129176000D02*
X144804000Y-129176000D01*
X142724000Y-129136000D02*
X140908000Y-129136000D01*
X146620000Y-129136000D02*
X144804000Y-129136000D01*
X142724000Y-129096000D02*
X140888000Y-129096000D01*
X146640000Y-129096000D02*
X144804000Y-129096000D01*
X142724000Y-129056000D02*
X140868000Y-129056000D01*
X146660000Y-129056000D02*
X144804000Y-129056000D01*
X142724000Y-129016000D02*
X140848000Y-129016000D01*
X146680000Y-129016000D02*
X144804000Y-129016000D01*
X142724000Y-128976000D02*
X140830000Y-128976000D01*
X146698000Y-128976000D02*
X144804000Y-128976000D01*
X142724000Y-128936000D02*
X140812000Y-128936000D01*
X146716000Y-128936000D02*
X144804000Y-128936000D01*
X142724000Y-128896000D02*
X140794000Y-128896000D01*
X146734000Y-128896000D02*
X144804000Y-128896000D01*
X142724000Y-128856000D02*
X140778000Y-128856000D01*
X146750000Y-128856000D02*
X144804000Y-128856000D01*
X142724000Y-128816000D02*
X140762000Y-128816000D01*
X146766000Y-128816000D02*
X144804000Y-128816000D01*
X142724000Y-128776000D02*
X140746000Y-128776000D01*
X146782000Y-128776000D02*
X144804000Y-128776000D01*
X142724000Y-128736000D02*
X140731000Y-128736000D01*
X146797000Y-128736000D02*
X144804000Y-128736000D01*
X142724000Y-128696000D02*
X140717000Y-128696000D01*
X146811000Y-128696000D02*
X144804000Y-128696000D01*
X142724000Y-128656000D02*
X140703000Y-128656000D01*
X146825000Y-128656000D02*
X144804000Y-128656000D01*
X142724000Y-128616000D02*
X140690000Y-128616000D01*
X146838000Y-128616000D02*
X144804000Y-128616000D01*
X142724000Y-128576000D02*
X140678000Y-128576000D01*
X146850000Y-128576000D02*
X144804000Y-128576000D01*
X142724000Y-128536000D02*
X140666000Y-128536000D01*
X146862000Y-128536000D02*
X144804000Y-128536000D01*
X142724000Y-128496000D02*
X140654000Y-128496000D01*
X146874000Y-128496000D02*
X144804000Y-128496000D01*
X142724000Y-128456000D02*
X140643000Y-128456000D01*
X146885000Y-128456000D02*
X144804000Y-128456000D01*
X142724000Y-128416000D02*
X140633000Y-128416000D01*
X146895000Y-128416000D02*
X144804000Y-128416000D01*
X142724000Y-128376000D02*
X140623000Y-128376000D01*
X146905000Y-128376000D02*
X144804000Y-128376000D01*
X142724000Y-128336000D02*
X140614000Y-128336000D01*
X146914000Y-128336000D02*
X144804000Y-128336000D01*
X142724000Y-128295000D02*
X140605000Y-128295000D01*
X146923000Y-128295000D02*
X144804000Y-128295000D01*
X142724000Y-128255000D02*
X140597000Y-128255000D01*
X146931000Y-128255000D02*
X144804000Y-128255000D01*
X142724000Y-128215000D02*
X140589000Y-128215000D01*
X146939000Y-128215000D02*
X144804000Y-128215000D01*
X142724000Y-128175000D02*
X140582000Y-128175000D01*
X146946000Y-128175000D02*
X144804000Y-128175000D01*
X142724000Y-128135000D02*
X140575000Y-128135000D01*
X146953000Y-128135000D02*
X144804000Y-128135000D01*
X142724000Y-128095000D02*
X140569000Y-128095000D01*
X146959000Y-128095000D02*
X144804000Y-128095000D01*
X142724000Y-128055000D02*
X140563000Y-128055000D01*
X146965000Y-128055000D02*
X144804000Y-128055000D01*
X142724000Y-128015000D02*
X140558000Y-128015000D01*
X146970000Y-128015000D02*
X144804000Y-128015000D01*
X142724000Y-127975000D02*
X140553000Y-127975000D01*
X146975000Y-127975000D02*
X144804000Y-127975000D01*
X142724000Y-127935000D02*
X140549000Y-127935000D01*
X146979000Y-127935000D02*
X144804000Y-127935000D01*
X142724000Y-127895000D02*
X140546000Y-127895000D01*
X146982000Y-127895000D02*
X144804000Y-127895000D01*
X142724000Y-127855000D02*
X140542000Y-127855000D01*
X146986000Y-127855000D02*
X144804000Y-127855000D01*
X146988000Y-127815000D02*
X140540000Y-127815000D01*
X146991000Y-127775000D02*
X140537000Y-127775000D01*
X146992000Y-127735000D02*
X140536000Y-127735000D01*
X146994000Y-127695000D02*
X140534000Y-127695000D01*
X146994000Y-127655000D02*
X140534000Y-127655000D01*
X146994000Y-127615000D02*
X140534000Y-127615000D01*
X147034000Y-127615000D02*
G75*
G03*
X147034000Y-127615000I-3270000J0D01*
G01*
X159318000Y-158810000D02*
X159318000Y-153610000D01*
X138938000Y-158810000D02*
X159318000Y-158810000D01*
X136338000Y-153610000D02*
X159318000Y-153610000D01*
X138938000Y-158810000D02*
X138938000Y-156210000D01*
X138938000Y-156210000D02*
X136338000Y-156210000D01*
X136338000Y-156210000D02*
X136338000Y-153610000D01*
X137668000Y-158810000D02*
X136338000Y-158810000D01*
X136338000Y-158810000D02*
X136338000Y-157480000D01*
X126044000Y-118678000D02*
X126044000Y-116018000D01*
X120904000Y-118678000D02*
X126044000Y-118678000D01*
X120904000Y-116018000D02*
X126044000Y-116018000D01*
X120904000Y-118678000D02*
X120904000Y-116018000D01*
X119634000Y-118678000D02*
X118304000Y-118678000D01*
X118304000Y-118678000D02*
X118304000Y-117348000D01*
X114360000Y-122996000D02*
X114360000Y-120336000D01*
X109220000Y-122996000D02*
X114360000Y-122996000D01*
X109220000Y-120336000D02*
X114360000Y-120336000D01*
X109220000Y-122996000D02*
X109220000Y-120336000D01*
X107950000Y-122996000D02*
X106620000Y-122996000D01*
X106620000Y-122996000D02*
X106620000Y-121666000D01*
X106620000Y-118678000D02*
X106620000Y-117348000D01*
X107950000Y-118678000D02*
X106620000Y-118678000D01*
X109220000Y-118678000D02*
X109220000Y-116018000D01*
X109220000Y-116018000D02*
X114360000Y-116018000D01*
X109220000Y-118678000D02*
X114360000Y-118678000D01*
X114360000Y-118678000D02*
X114360000Y-116018000D01*
X94936000Y-118678000D02*
X94936000Y-117348000D01*
X96266000Y-118678000D02*
X94936000Y-118678000D01*
X97536000Y-118678000D02*
X97536000Y-116018000D01*
X97536000Y-116018000D02*
X102676000Y-116018000D01*
X97536000Y-118678000D02*
X102676000Y-118678000D01*
X102676000Y-118678000D02*
X102676000Y-116018000D01*
X83252000Y-122996000D02*
X83252000Y-121666000D01*
X84582000Y-122996000D02*
X83252000Y-122996000D01*
X85852000Y-122996000D02*
X85852000Y-120336000D01*
X85852000Y-120336000D02*
X90992000Y-120336000D01*
X85852000Y-122996000D02*
X90992000Y-122996000D01*
X90992000Y-122996000D02*
X90992000Y-120336000D01*
X117126000Y-129440000D02*
X117126000Y-132180000D01*
X117126000Y-132180000D02*
X123666000Y-132180000D01*
X123666000Y-132180000D02*
X123666000Y-129440000D01*
X123666000Y-129440000D02*
X117126000Y-129440000D01*
X116356000Y-130810000D02*
X117126000Y-130810000D01*
X124436000Y-130810000D02*
X123666000Y-130810000D01*
X116356000Y-127254000D02*
X117126000Y-127254000D01*
X124436000Y-127254000D02*
X123666000Y-127254000D01*
X117126000Y-128624000D02*
X123666000Y-128624000D01*
X117126000Y-125884000D02*
X117126000Y-128624000D01*
X123666000Y-125884000D02*
X117126000Y-125884000D01*
X123666000Y-128624000D02*
X123666000Y-125884000D01*
X129564000Y-123698000D02*
X130334000Y-123698000D01*
X137644000Y-123698000D02*
X136874000Y-123698000D01*
X130334000Y-125068000D02*
X136874000Y-125068000D01*
X130334000Y-122328000D02*
X130334000Y-125068000D01*
X136874000Y-122328000D02*
X130334000Y-122328000D01*
X136874000Y-125068000D02*
X136874000Y-122328000D01*
X68156000Y-157346000D02*
X78656000Y-157346000D01*
X68156000Y-136786000D02*
X68156000Y-157346000D01*
X78656000Y-136786000D02*
X68156000Y-136786000D01*
X78656000Y-157346000D02*
X78656000Y-136786000D01*
X71156000Y-157286000D02*
X72406000Y-157286000D01*
X71156000Y-136846000D02*
X71156000Y-157286000D01*
X75656000Y-136846000D02*
X71156000Y-136846000D01*
X75656000Y-157286000D02*
X75656000Y-136846000D01*
X74406000Y-157286000D02*
X75656000Y-157286000D01*
X72406000Y-157286000D02*
G75*
G02*
X74406000Y-157286000I1000000J0D01*
G01*
X86852000Y-157286000D02*
X88102000Y-157286000D01*
X88102000Y-157286000D02*
X88102000Y-136846000D01*
X88102000Y-136846000D02*
X83602000Y-136846000D01*
X83602000Y-136846000D02*
X83602000Y-157286000D01*
X83602000Y-157286000D02*
X84852000Y-157286000D01*
X91102000Y-157346000D02*
X91102000Y-136786000D01*
X91102000Y-136786000D02*
X80602000Y-136786000D01*
X80602000Y-136786000D02*
X80602000Y-157346000D01*
X80602000Y-157346000D02*
X91102000Y-157346000D01*
X84852000Y-157286000D02*
G75*
G02*
X86852000Y-157286000I1000000J0D01*
G01*
X99298000Y-154746000D02*
X100548000Y-154746000D01*
X100548000Y-154746000D02*
X100548000Y-136846000D01*
X100548000Y-136846000D02*
X96048000Y-136846000D01*
X96048000Y-136846000D02*
X96048000Y-154746000D01*
X96048000Y-154746000D02*
X97298000Y-154746000D01*
X103548000Y-154806000D02*
X103548000Y-136786000D01*
X103548000Y-136786000D02*
X93048000Y-136786000D01*
X93048000Y-136786000D02*
X93048000Y-154806000D01*
X93048000Y-154806000D02*
X103548000Y-154806000D01*
X97298000Y-154746000D02*
G75*
G02*
X99298000Y-154746000I1000000J0D01*
G01*
X85478000Y-124798000D02*
X85478000Y-135298000D01*
X103498000Y-124798000D02*
X85478000Y-124798000D01*
X103498000Y-135298000D02*
X103498000Y-124798000D01*
X85478000Y-135298000D02*
X103498000Y-135298000D01*
X85538000Y-127798000D02*
X85538000Y-129048000D01*
X103438000Y-127798000D02*
X85538000Y-127798000D01*
X103438000Y-132298000D02*
X103438000Y-127798000D01*
X85538000Y-132298000D02*
X103438000Y-132298000D01*
X85538000Y-131048000D02*
X85538000Y-132298000D01*
X85538000Y-129048000D02*
G75*
G02*
X85538000Y-131048000I0J-1000000D01*
G01*
D13*
X161930000Y-118995000D02*
X162530000Y-118995000D01*
X162530000Y-118995000D02*
X162530000Y-120195000D01*
X148930000Y-118995000D02*
X148330000Y-118995000D01*
X148330000Y-118995000D02*
X148330000Y-120395000D01*
X148930000Y-131195000D02*
X148330000Y-131195000D01*
X148330000Y-131195000D02*
X148330000Y-129695000D01*
D12*
X90992000Y-118678000D02*
X90992000Y-116018000D01*
X85852000Y-118678000D02*
X90992000Y-118678000D01*
X85852000Y-116018000D02*
X90992000Y-116018000D01*
X85852000Y-118678000D02*
X85852000Y-116018000D01*
X84582000Y-118678000D02*
X83252000Y-118678000D01*
X83252000Y-118678000D02*
X83252000Y-117348000D01*
X94936000Y-122996000D02*
X94936000Y-121666000D01*
X96266000Y-122996000D02*
X94936000Y-122996000D01*
X97536000Y-122996000D02*
X97536000Y-120336000D01*
X97536000Y-120336000D02*
X102676000Y-120336000D01*
X97536000Y-122996000D02*
X102676000Y-122996000D01*
X102676000Y-122996000D02*
X102676000Y-120336000D01*
X66608000Y-157286000D02*
X65278000Y-157286000D01*
X66608000Y-155956000D02*
X66608000Y-157286000D01*
X64008000Y-157286000D02*
X61408000Y-157286000D01*
X64008000Y-154686000D02*
X64008000Y-157286000D01*
X66608000Y-154686000D02*
X64008000Y-154686000D01*
X61408000Y-157286000D02*
X61408000Y-134306000D01*
X66608000Y-154686000D02*
X66608000Y-134306000D01*
X66608000Y-134306000D02*
X61408000Y-134306000D01*
X118304000Y-122996000D02*
X118304000Y-121666000D01*
X119634000Y-122996000D02*
X118304000Y-122996000D01*
X120904000Y-122996000D02*
X120904000Y-120336000D01*
X120904000Y-120336000D02*
X123504000Y-120336000D01*
X120904000Y-122996000D02*
X123504000Y-122996000D01*
X123504000Y-122996000D02*
X123504000Y-120336000D01*
D14*
X133437333Y-117038380D02*
X133104000Y-116562190D01*
X132865904Y-117038380D02*
X132865904Y-116038380D01*
X133246857Y-116038380D01*
X133342095Y-116086000D01*
X133389714Y-116133619D01*
X133437333Y-116228857D01*
X133437333Y-116371714D01*
X133389714Y-116466952D01*
X133342095Y-116514571D01*
X133246857Y-116562190D01*
X132865904Y-116562190D01*
X134342095Y-116038380D02*
X133865904Y-116038380D01*
X133818285Y-116514571D01*
X133865904Y-116466952D01*
X133961142Y-116419333D01*
X134199238Y-116419333D01*
X134294476Y-116466952D01*
X134342095Y-116514571D01*
X134389714Y-116609809D01*
X134389714Y-116847904D01*
X134342095Y-116943142D01*
X134294476Y-116990761D01*
X134199238Y-117038380D01*
X133961142Y-117038380D01*
X133865904Y-116990761D01*
X133818285Y-116943142D01*
X133437333Y-120594380D02*
X133104000Y-120118190D01*
X132865904Y-120594380D02*
X132865904Y-119594380D01*
X133246857Y-119594380D01*
X133342095Y-119642000D01*
X133389714Y-119689619D01*
X133437333Y-119784857D01*
X133437333Y-119927714D01*
X133389714Y-120022952D01*
X133342095Y-120070571D01*
X133246857Y-120118190D01*
X132865904Y-120118190D01*
X133818285Y-119689619D02*
X133865904Y-119642000D01*
X133961142Y-119594380D01*
X134199238Y-119594380D01*
X134294476Y-119642000D01*
X134342095Y-119689619D01*
X134389714Y-119784857D01*
X134389714Y-119880095D01*
X134342095Y-120022952D01*
X133770666Y-120594380D01*
X134389714Y-120594380D01*
X133437333Y-127706380D02*
X133104000Y-127230190D01*
X132865904Y-127706380D02*
X132865904Y-126706380D01*
X133246857Y-126706380D01*
X133342095Y-126754000D01*
X133389714Y-126801619D01*
X133437333Y-126896857D01*
X133437333Y-127039714D01*
X133389714Y-127134952D01*
X133342095Y-127182571D01*
X133246857Y-127230190D01*
X132865904Y-127230190D01*
X133770666Y-126706380D02*
X134437333Y-126706380D01*
X134008761Y-127706380D01*
X133437333Y-131262380D02*
X133104000Y-130786190D01*
X132865904Y-131262380D02*
X132865904Y-130262380D01*
X133246857Y-130262380D01*
X133342095Y-130310000D01*
X133389714Y-130357619D01*
X133437333Y-130452857D01*
X133437333Y-130595714D01*
X133389714Y-130690952D01*
X133342095Y-130738571D01*
X133246857Y-130786190D01*
X132865904Y-130786190D01*
X134389714Y-131262380D02*
X133818285Y-131262380D01*
X134104000Y-131262380D02*
X134104000Y-130262380D01*
X134008761Y-130405238D01*
X133913523Y-130500476D01*
X133818285Y-130548095D01*
X105918095Y-141692380D02*
X105918095Y-142501904D01*
X105965714Y-142597142D01*
X106013333Y-142644761D01*
X106108571Y-142692380D01*
X106299047Y-142692380D01*
X106394285Y-142644761D01*
X106441904Y-142597142D01*
X106489523Y-142501904D01*
X106489523Y-141692380D01*
X107441904Y-141692380D02*
X106965714Y-141692380D01*
X106918095Y-142168571D01*
X106965714Y-142120952D01*
X107060952Y-142073333D01*
X107299047Y-142073333D01*
X107394285Y-142120952D01*
X107441904Y-142168571D01*
X107489523Y-142263809D01*
X107489523Y-142501904D01*
X107441904Y-142597142D01*
X107394285Y-142644761D01*
X107299047Y-142692380D01*
X107060952Y-142692380D01*
X106965714Y-142644761D01*
X106918095Y-142597142D01*
X74120476Y-120610380D02*
X74787142Y-121610380D01*
X74787142Y-120610380D02*
X74120476Y-121610380D01*
X75691904Y-121610380D02*
X75120476Y-121610380D01*
X75406190Y-121610380D02*
X75406190Y-120610380D01*
X75310952Y-120753238D01*
X75215714Y-120848476D01*
X75120476Y-120896095D01*
X95210333Y-160123142D02*
X95162714Y-160170761D01*
X95019857Y-160218380D01*
X94924619Y-160218380D01*
X94781761Y-160170761D01*
X94686523Y-160075523D01*
X94638904Y-159980285D01*
X94591285Y-159789809D01*
X94591285Y-159646952D01*
X94638904Y-159456476D01*
X94686523Y-159361238D01*
X94781761Y-159266000D01*
X94924619Y-159218380D01*
X95019857Y-159218380D01*
X95162714Y-159266000D01*
X95210333Y-159313619D01*
X96162714Y-160218380D02*
X95591285Y-160218380D01*
X95877000Y-160218380D02*
X95877000Y-159218380D01*
X95781761Y-159361238D01*
X95686523Y-159456476D01*
X95591285Y-159504095D01*
X79081333Y-159869142D02*
X79033714Y-159916761D01*
X78890857Y-159964380D01*
X78795619Y-159964380D01*
X78652761Y-159916761D01*
X78557523Y-159821523D01*
X78509904Y-159726285D01*
X78462285Y-159535809D01*
X78462285Y-159392952D01*
X78509904Y-159202476D01*
X78557523Y-159107238D01*
X78652761Y-159012000D01*
X78795619Y-158964380D01*
X78890857Y-158964380D01*
X79033714Y-159012000D01*
X79081333Y-159059619D01*
X79462285Y-159059619D02*
X79509904Y-159012000D01*
X79605142Y-158964380D01*
X79843238Y-158964380D01*
X79938476Y-159012000D01*
X79986095Y-159059619D01*
X80033714Y-159154857D01*
X80033714Y-159250095D01*
X79986095Y-159392952D01*
X79414666Y-159964380D01*
X80033714Y-159964380D01*
X83145333Y-130659142D02*
X83097714Y-130706761D01*
X82954857Y-130754380D01*
X82859619Y-130754380D01*
X82716761Y-130706761D01*
X82621523Y-130611523D01*
X82573904Y-130516285D01*
X82526285Y-130325809D01*
X82526285Y-130182952D01*
X82573904Y-129992476D01*
X82621523Y-129897238D01*
X82716761Y-129802000D01*
X82859619Y-129754380D01*
X82954857Y-129754380D01*
X83097714Y-129802000D01*
X83145333Y-129849619D01*
X83478666Y-129754380D02*
X84097714Y-129754380D01*
X83764380Y-130135333D01*
X83907238Y-130135333D01*
X84002476Y-130182952D01*
X84050095Y-130230571D01*
X84097714Y-130325809D01*
X84097714Y-130563904D01*
X84050095Y-130659142D01*
X84002476Y-130706761D01*
X83907238Y-130754380D01*
X83621523Y-130754380D01*
X83526285Y-130706761D01*
X83478666Y-130659142D01*
X66635333Y-159869142D02*
X66587714Y-159916761D01*
X66444857Y-159964380D01*
X66349619Y-159964380D01*
X66206761Y-159916761D01*
X66111523Y-159821523D01*
X66063904Y-159726285D01*
X66016285Y-159535809D01*
X66016285Y-159392952D01*
X66063904Y-159202476D01*
X66111523Y-159107238D01*
X66206761Y-159012000D01*
X66349619Y-158964380D01*
X66444857Y-158964380D01*
X66587714Y-159012000D01*
X66635333Y-159059619D01*
X67492476Y-159297714D02*
X67492476Y-159964380D01*
X67254380Y-158916761D02*
X67016285Y-159631047D01*
X67635333Y-159631047D01*
X106513333Y-131421142D02*
X106465714Y-131468761D01*
X106322857Y-131516380D01*
X106227619Y-131516380D01*
X106084761Y-131468761D01*
X105989523Y-131373523D01*
X105941904Y-131278285D01*
X105894285Y-131087809D01*
X105894285Y-130944952D01*
X105941904Y-130754476D01*
X105989523Y-130659238D01*
X106084761Y-130564000D01*
X106227619Y-130516380D01*
X106322857Y-130516380D01*
X106465714Y-130564000D01*
X106513333Y-130611619D01*
X107418095Y-130516380D02*
X106941904Y-130516380D01*
X106894285Y-130992571D01*
X106941904Y-130944952D01*
X107037142Y-130897333D01*
X107275238Y-130897333D01*
X107370476Y-130944952D01*
X107418095Y-130992571D01*
X107465714Y-131087809D01*
X107465714Y-131325904D01*
X107418095Y-131421142D01*
X107370476Y-131468761D01*
X107275238Y-131516380D01*
X107037142Y-131516380D01*
X106941904Y-131468761D01*
X106894285Y-131421142D01*
X146645333Y-115927142D02*
X146597714Y-115974761D01*
X146454857Y-116022380D01*
X146359619Y-116022380D01*
X146216761Y-115974761D01*
X146121523Y-115879523D01*
X146073904Y-115784285D01*
X146026285Y-115593809D01*
X146026285Y-115450952D01*
X146073904Y-115260476D01*
X146121523Y-115165238D01*
X146216761Y-115070000D01*
X146359619Y-115022380D01*
X146454857Y-115022380D01*
X146597714Y-115070000D01*
X146645333Y-115117619D01*
X147502476Y-115022380D02*
X147312000Y-115022380D01*
X147216761Y-115070000D01*
X147169142Y-115117619D01*
X147073904Y-115260476D01*
X147026285Y-115450952D01*
X147026285Y-115831904D01*
X147073904Y-115927142D01*
X147121523Y-115974761D01*
X147216761Y-116022380D01*
X147407238Y-116022380D01*
X147502476Y-115974761D01*
X147550095Y-115927142D01*
X147597714Y-115831904D01*
X147597714Y-115593809D01*
X147550095Y-115498571D01*
X147502476Y-115450952D01*
X147407238Y-115403333D01*
X147216761Y-115403333D01*
X147121523Y-115450952D01*
X147073904Y-115498571D01*
X147026285Y-115593809D01*
X146645333Y-124055142D02*
X146597714Y-124102761D01*
X146454857Y-124150380D01*
X146359619Y-124150380D01*
X146216761Y-124102761D01*
X146121523Y-124007523D01*
X146073904Y-123912285D01*
X146026285Y-123721809D01*
X146026285Y-123578952D01*
X146073904Y-123388476D01*
X146121523Y-123293238D01*
X146216761Y-123198000D01*
X146359619Y-123150380D01*
X146454857Y-123150380D01*
X146597714Y-123198000D01*
X146645333Y-123245619D01*
X146978666Y-123150380D02*
X147645333Y-123150380D01*
X147216761Y-124150380D01*
X137080666Y-159726380D02*
X137080666Y-160440666D01*
X137033047Y-160583523D01*
X136937809Y-160678761D01*
X136794952Y-160726380D01*
X136699714Y-160726380D01*
X137509238Y-159821619D02*
X137556857Y-159774000D01*
X137652095Y-159726380D01*
X137890190Y-159726380D01*
X137985428Y-159774000D01*
X138033047Y-159821619D01*
X138080666Y-159916857D01*
X138080666Y-160012095D01*
X138033047Y-160154952D01*
X137461619Y-160726380D01*
X138080666Y-160726380D01*
X116546380Y-118181333D02*
X117260666Y-118181333D01*
X117403523Y-118228952D01*
X117498761Y-118324190D01*
X117546380Y-118467047D01*
X117546380Y-118562285D01*
X117546380Y-117705142D02*
X116546380Y-117705142D01*
X116546380Y-117324190D01*
X116594000Y-117228952D01*
X116641619Y-117181333D01*
X116736857Y-117133714D01*
X116879714Y-117133714D01*
X116974952Y-117181333D01*
X117022571Y-117228952D01*
X117070190Y-117324190D01*
X117070190Y-117705142D01*
X117546380Y-116181333D02*
X117546380Y-116752761D01*
X117546380Y-116467047D02*
X116546380Y-116467047D01*
X116689238Y-116562285D01*
X116784476Y-116657523D01*
X116832095Y-116752761D01*
X104862380Y-122499333D02*
X105576666Y-122499333D01*
X105719523Y-122546952D01*
X105814761Y-122642190D01*
X105862380Y-122785047D01*
X105862380Y-122880285D01*
X105862380Y-122023142D02*
X104862380Y-122023142D01*
X104862380Y-121642190D01*
X104910000Y-121546952D01*
X104957619Y-121499333D01*
X105052857Y-121451714D01*
X105195714Y-121451714D01*
X105290952Y-121499333D01*
X105338571Y-121546952D01*
X105386190Y-121642190D01*
X105386190Y-122023142D01*
X104957619Y-121070761D02*
X104910000Y-121023142D01*
X104862380Y-120927904D01*
X104862380Y-120689809D01*
X104910000Y-120594571D01*
X104957619Y-120546952D01*
X105052857Y-120499333D01*
X105148095Y-120499333D01*
X105290952Y-120546952D01*
X105862380Y-121118380D01*
X105862380Y-120499333D01*
X104862380Y-118054333D02*
X105576666Y-118054333D01*
X105719523Y-118101952D01*
X105814761Y-118197190D01*
X105862380Y-118340047D01*
X105862380Y-118435285D01*
X105862380Y-117578142D02*
X104862380Y-117578142D01*
X104862380Y-117197190D01*
X104910000Y-117101952D01*
X104957619Y-117054333D01*
X105052857Y-117006714D01*
X105195714Y-117006714D01*
X105290952Y-117054333D01*
X105338571Y-117101952D01*
X105386190Y-117197190D01*
X105386190Y-117578142D01*
X104862380Y-116673380D02*
X104862380Y-116054333D01*
X105243333Y-116387666D01*
X105243333Y-116244809D01*
X105290952Y-116149571D01*
X105338571Y-116101952D01*
X105433809Y-116054333D01*
X105671904Y-116054333D01*
X105767142Y-116101952D01*
X105814761Y-116149571D01*
X105862380Y-116244809D01*
X105862380Y-116530523D01*
X105814761Y-116625761D01*
X105767142Y-116673380D01*
X93178380Y-118181333D02*
X93892666Y-118181333D01*
X94035523Y-118228952D01*
X94130761Y-118324190D01*
X94178380Y-118467047D01*
X94178380Y-118562285D01*
X94178380Y-117705142D02*
X93178380Y-117705142D01*
X93178380Y-117324190D01*
X93226000Y-117228952D01*
X93273619Y-117181333D01*
X93368857Y-117133714D01*
X93511714Y-117133714D01*
X93606952Y-117181333D01*
X93654571Y-117228952D01*
X93702190Y-117324190D01*
X93702190Y-117705142D01*
X93178380Y-116228952D02*
X93178380Y-116705142D01*
X93654571Y-116752761D01*
X93606952Y-116705142D01*
X93559333Y-116609904D01*
X93559333Y-116371809D01*
X93606952Y-116276571D01*
X93654571Y-116228952D01*
X93749809Y-116181333D01*
X93987904Y-116181333D01*
X94083142Y-116228952D01*
X94130761Y-116276571D01*
X94178380Y-116371809D01*
X94178380Y-116609904D01*
X94130761Y-116705142D01*
X94083142Y-116752761D01*
X81494380Y-122499333D02*
X82208666Y-122499333D01*
X82351523Y-122546952D01*
X82446761Y-122642190D01*
X82494380Y-122785047D01*
X82494380Y-122880285D01*
X82494380Y-122023142D02*
X81494380Y-122023142D01*
X81494380Y-121642190D01*
X81542000Y-121546952D01*
X81589619Y-121499333D01*
X81684857Y-121451714D01*
X81827714Y-121451714D01*
X81922952Y-121499333D01*
X81970571Y-121546952D01*
X82018190Y-121642190D01*
X82018190Y-122023142D01*
X81922952Y-120880285D02*
X81875333Y-120975523D01*
X81827714Y-121023142D01*
X81732476Y-121070761D01*
X81684857Y-121070761D01*
X81589619Y-121023142D01*
X81542000Y-120975523D01*
X81494380Y-120880285D01*
X81494380Y-120689809D01*
X81542000Y-120594571D01*
X81589619Y-120546952D01*
X81684857Y-120499333D01*
X81732476Y-120499333D01*
X81827714Y-120546952D01*
X81875333Y-120594571D01*
X81922952Y-120689809D01*
X81922952Y-120880285D01*
X81970571Y-120975523D01*
X82018190Y-121023142D01*
X82113428Y-121070761D01*
X82303904Y-121070761D01*
X82399142Y-121023142D01*
X82446761Y-120975523D01*
X82494380Y-120880285D01*
X82494380Y-120689809D01*
X82446761Y-120594571D01*
X82399142Y-120546952D01*
X82303904Y-120499333D01*
X82113428Y-120499333D01*
X82018190Y-120546952D01*
X81970571Y-120594571D01*
X81922952Y-120689809D01*
X120229333Y-131262380D02*
X119896000Y-130786190D01*
X119657904Y-131262380D02*
X119657904Y-130262380D01*
X120038857Y-130262380D01*
X120134095Y-130310000D01*
X120181714Y-130357619D01*
X120229333Y-130452857D01*
X120229333Y-130595714D01*
X120181714Y-130690952D01*
X120134095Y-130738571D01*
X120038857Y-130786190D01*
X119657904Y-130786190D01*
X120562666Y-130262380D02*
X121181714Y-130262380D01*
X120848380Y-130643333D01*
X120991238Y-130643333D01*
X121086476Y-130690952D01*
X121134095Y-130738571D01*
X121181714Y-130833809D01*
X121181714Y-131071904D01*
X121134095Y-131167142D01*
X121086476Y-131214761D01*
X120991238Y-131262380D01*
X120705523Y-131262380D01*
X120610285Y-131214761D01*
X120562666Y-131167142D01*
X120229333Y-127706380D02*
X119896000Y-127230190D01*
X119657904Y-127706380D02*
X119657904Y-126706380D01*
X120038857Y-126706380D01*
X120134095Y-126754000D01*
X120181714Y-126801619D01*
X120229333Y-126896857D01*
X120229333Y-127039714D01*
X120181714Y-127134952D01*
X120134095Y-127182571D01*
X120038857Y-127230190D01*
X119657904Y-127230190D01*
X121086476Y-127039714D02*
X121086476Y-127706380D01*
X120848380Y-126658761D02*
X120610285Y-127373047D01*
X121229333Y-127373047D01*
X133437333Y-124150380D02*
X133104000Y-123674190D01*
X132865904Y-124150380D02*
X132865904Y-123150380D01*
X133246857Y-123150380D01*
X133342095Y-123198000D01*
X133389714Y-123245619D01*
X133437333Y-123340857D01*
X133437333Y-123483714D01*
X133389714Y-123578952D01*
X133342095Y-123626571D01*
X133246857Y-123674190D01*
X132865904Y-123674190D01*
X134294476Y-123150380D02*
X134104000Y-123150380D01*
X134008761Y-123198000D01*
X133961142Y-123245619D01*
X133865904Y-123388476D01*
X133818285Y-123578952D01*
X133818285Y-123959904D01*
X133865904Y-124055142D01*
X133913523Y-124102761D01*
X134008761Y-124150380D01*
X134199238Y-124150380D01*
X134294476Y-124102761D01*
X134342095Y-124055142D01*
X134389714Y-123959904D01*
X134389714Y-123721809D01*
X134342095Y-123626571D01*
X134294476Y-123578952D01*
X134199238Y-123531333D01*
X134008761Y-123531333D01*
X133913523Y-123578952D01*
X133865904Y-123626571D01*
X133818285Y-123721809D01*
X73406095Y-157948380D02*
X73406095Y-158757904D01*
X73453714Y-158853142D01*
X73501333Y-158900761D01*
X73596571Y-158948380D01*
X73787047Y-158948380D01*
X73882285Y-158900761D01*
X73929904Y-158853142D01*
X73977523Y-158757904D01*
X73977523Y-157948380D01*
X74977523Y-158948380D02*
X74406095Y-158948380D01*
X74691809Y-158948380D02*
X74691809Y-157948380D01*
X74596571Y-158091238D01*
X74501333Y-158186476D01*
X74406095Y-158234095D01*
X85852095Y-157948380D02*
X85852095Y-158757904D01*
X85899714Y-158853142D01*
X85947333Y-158900761D01*
X86042571Y-158948380D01*
X86233047Y-158948380D01*
X86328285Y-158900761D01*
X86375904Y-158853142D01*
X86423523Y-158757904D01*
X86423523Y-157948380D01*
X86852095Y-158043619D02*
X86899714Y-157996000D01*
X86994952Y-157948380D01*
X87233047Y-157948380D01*
X87328285Y-157996000D01*
X87375904Y-158043619D01*
X87423523Y-158138857D01*
X87423523Y-158234095D01*
X87375904Y-158376952D01*
X86804476Y-158948380D01*
X87423523Y-158948380D01*
X98044095Y-155916380D02*
X98044095Y-156725904D01*
X98091714Y-156821142D01*
X98139333Y-156868761D01*
X98234571Y-156916380D01*
X98425047Y-156916380D01*
X98520285Y-156868761D01*
X98567904Y-156821142D01*
X98615523Y-156725904D01*
X98615523Y-155916380D01*
X98996476Y-155916380D02*
X99615523Y-155916380D01*
X99282190Y-156297333D01*
X99425047Y-156297333D01*
X99520285Y-156344952D01*
X99567904Y-156392571D01*
X99615523Y-156487809D01*
X99615523Y-156725904D01*
X99567904Y-156821142D01*
X99520285Y-156868761D01*
X99425047Y-156916380D01*
X99139333Y-156916380D01*
X99044095Y-156868761D01*
X98996476Y-156821142D01*
X83312095Y-131532380D02*
X83312095Y-132341904D01*
X83359714Y-132437142D01*
X83407333Y-132484761D01*
X83502571Y-132532380D01*
X83693047Y-132532380D01*
X83788285Y-132484761D01*
X83835904Y-132437142D01*
X83883523Y-132341904D01*
X83883523Y-131532380D01*
X84788285Y-131865714D02*
X84788285Y-132532380D01*
X84550190Y-131484761D02*
X84312095Y-132199047D01*
X84931142Y-132199047D01*
X152963714Y-132437142D02*
X152916095Y-132484761D01*
X152773238Y-132532380D01*
X152678000Y-132532380D01*
X152535142Y-132484761D01*
X152439904Y-132389523D01*
X152392285Y-132294285D01*
X152344666Y-132103809D01*
X152344666Y-131960952D01*
X152392285Y-131770476D01*
X152439904Y-131675238D01*
X152535142Y-131580000D01*
X152678000Y-131532380D01*
X152773238Y-131532380D01*
X152916095Y-131580000D01*
X152963714Y-131627619D01*
X153582761Y-131532380D02*
X153773238Y-131532380D01*
X153868476Y-131580000D01*
X153963714Y-131675238D01*
X154011333Y-131865714D01*
X154011333Y-132199047D01*
X153963714Y-132389523D01*
X153868476Y-132484761D01*
X153773238Y-132532380D01*
X153582761Y-132532380D01*
X153487523Y-132484761D01*
X153392285Y-132389523D01*
X153344666Y-132199047D01*
X153344666Y-131865714D01*
X153392285Y-131675238D01*
X153487523Y-131580000D01*
X153582761Y-131532380D01*
X154439904Y-132532380D02*
X154439904Y-131532380D01*
X155011333Y-132532380D01*
X155011333Y-131532380D01*
X156011333Y-132532380D02*
X155439904Y-132532380D01*
X155725619Y-132532380D02*
X155725619Y-131532380D01*
X155630380Y-131675238D01*
X155535142Y-131770476D01*
X155439904Y-131818095D01*
X81494380Y-118181333D02*
X82208666Y-118181333D01*
X82351523Y-118228952D01*
X82446761Y-118324190D01*
X82494380Y-118467047D01*
X82494380Y-118562285D01*
X82494380Y-117705142D02*
X81494380Y-117705142D01*
X81494380Y-117324190D01*
X81542000Y-117228952D01*
X81589619Y-117181333D01*
X81684857Y-117133714D01*
X81827714Y-117133714D01*
X81922952Y-117181333D01*
X81970571Y-117228952D01*
X82018190Y-117324190D01*
X82018190Y-117705142D01*
X82494380Y-116657523D02*
X82494380Y-116467047D01*
X82446761Y-116371809D01*
X82399142Y-116324190D01*
X82256285Y-116228952D01*
X82065809Y-116181333D01*
X81684857Y-116181333D01*
X81589619Y-116228952D01*
X81542000Y-116276571D01*
X81494380Y-116371809D01*
X81494380Y-116562285D01*
X81542000Y-116657523D01*
X81589619Y-116705142D01*
X81684857Y-116752761D01*
X81922952Y-116752761D01*
X82018190Y-116705142D01*
X82065809Y-116657523D01*
X82113428Y-116562285D01*
X82113428Y-116371809D01*
X82065809Y-116276571D01*
X82018190Y-116228952D01*
X81922952Y-116181333D01*
X61237904Y-161234380D02*
X61237904Y-160234380D01*
X61618857Y-160234380D01*
X61714095Y-160282000D01*
X61761714Y-160329619D01*
X61809333Y-160424857D01*
X61809333Y-160567714D01*
X61761714Y-160662952D01*
X61714095Y-160710571D01*
X61618857Y-160758190D01*
X61237904Y-160758190D01*
X62761714Y-161234380D02*
X62190285Y-161234380D01*
X62476000Y-161234380D02*
X62476000Y-160234380D01*
X62380761Y-160377238D01*
X62285523Y-160472476D01*
X62190285Y-160520095D01*
X93178380Y-122499333D02*
X93892666Y-122499333D01*
X94035523Y-122546952D01*
X94130761Y-122642190D01*
X94178380Y-122785047D01*
X94178380Y-122880285D01*
X94178380Y-122023142D02*
X93178380Y-122023142D01*
X93178380Y-121642190D01*
X93226000Y-121546952D01*
X93273619Y-121499333D01*
X93368857Y-121451714D01*
X93511714Y-121451714D01*
X93606952Y-121499333D01*
X93654571Y-121546952D01*
X93702190Y-121642190D01*
X93702190Y-122023142D01*
X93511714Y-120594571D02*
X94178380Y-120594571D01*
X93130761Y-120832666D02*
X93845047Y-121070761D01*
X93845047Y-120451714D01*
X61904666Y-157948380D02*
X61904666Y-158662666D01*
X61857047Y-158805523D01*
X61761809Y-158900761D01*
X61618952Y-158948380D01*
X61523714Y-158948380D01*
X62380857Y-158948380D02*
X62380857Y-157948380D01*
X62761809Y-157948380D01*
X62857047Y-157996000D01*
X62904666Y-158043619D01*
X62952285Y-158138857D01*
X62952285Y-158281714D01*
X62904666Y-158376952D01*
X62857047Y-158424571D01*
X62761809Y-158472190D01*
X62380857Y-158472190D01*
X63809428Y-157948380D02*
X63618952Y-157948380D01*
X63523714Y-157996000D01*
X63476095Y-158043619D01*
X63380857Y-158186476D01*
X63333238Y-158376952D01*
X63333238Y-158757904D01*
X63380857Y-158853142D01*
X63428476Y-158900761D01*
X63523714Y-158948380D01*
X63714190Y-158948380D01*
X63809428Y-158900761D01*
X63857047Y-158853142D01*
X63904666Y-158757904D01*
X63904666Y-158519809D01*
X63857047Y-158424571D01*
X63809428Y-158376952D01*
X63714190Y-158329333D01*
X63523714Y-158329333D01*
X63428476Y-158376952D01*
X63380857Y-158424571D01*
X63333238Y-158519809D01*
X116546380Y-122499333D02*
X117260666Y-122499333D01*
X117403523Y-122546952D01*
X117498761Y-122642190D01*
X117546380Y-122785047D01*
X117546380Y-122880285D01*
X117546380Y-122023142D02*
X116546380Y-122023142D01*
X116546380Y-121642190D01*
X116594000Y-121546952D01*
X116641619Y-121499333D01*
X116736857Y-121451714D01*
X116879714Y-121451714D01*
X116974952Y-121499333D01*
X117022571Y-121546952D01*
X117070190Y-121642190D01*
X117070190Y-122023142D01*
X116546380Y-121118380D02*
X116546380Y-120451714D01*
X117546380Y-120880285D01*
M02*
