G04 #@! TF.GenerationSoftware,KiCad,Pcbnew,(6.0.10)*
G04 #@! TF.CreationDate,2023-01-09T23:53:56+00:00*
G04 #@! TF.ProjectId,rc2014-ym2149,72633230-3134-42d7-996d-323134392e6b,6.2-pre*
G04 #@! TF.SameCoordinates,Original*
G04 #@! TF.FileFunction,Legend,Top*
G04 #@! TF.FilePolarity,Positive*
%FSLAX46Y46*%
G04 Gerber Fmt 4.6, Leading zero omitted, Abs format (unit mm)*
G04 Created by KiCad (PCBNEW (6.0.10)) date 2023-01-09 23:53:56*
%MOMM*%
%LPD*%
G01*
G04 APERTURE LIST*
%ADD10C,0.150000*%
%ADD11C,0.120000*%
%ADD12C,0.100000*%
%ADD13C,0.010000*%
%ADD14R,1.600000X2.400000*%
%ADD15O,1.600000X2.400000*%
%ADD16C,1.600000*%
%ADD17R,1.600000X1.600000*%
%ADD18R,1.700000X1.700000*%
%ADD19O,1.700000X1.700000*%
%ADD20R,2.400000X1.600000*%
%ADD21O,2.400000X1.600000*%
%ADD22O,1.600000X1.600000*%
%ADD23C,1.200000*%
%ADD24R,2.500000X1.800000*%
%ADD25R,1.800000X2.500000*%
%ADD26C,3.200000*%
G04 APERTURE END LIST*
D10*
X109093095Y-152106380D02*
X109093095Y-152915904D01*
X109140714Y-153011142D01*
X109188333Y-153058761D01*
X109283571Y-153106380D01*
X109474047Y-153106380D01*
X109569285Y-153058761D01*
X109616904Y-153011142D01*
X109664523Y-152915904D01*
X109664523Y-152106380D01*
X110616904Y-152106380D02*
X110140714Y-152106380D01*
X110093095Y-152582571D01*
X110140714Y-152534952D01*
X110235952Y-152487333D01*
X110474047Y-152487333D01*
X110569285Y-152534952D01*
X110616904Y-152582571D01*
X110664523Y-152677809D01*
X110664523Y-152915904D01*
X110616904Y-153011142D01*
X110569285Y-153058761D01*
X110474047Y-153106380D01*
X110235952Y-153106380D01*
X110140714Y-153058761D01*
X110093095Y-153011142D01*
X98639333Y-159869142D02*
X98591714Y-159916761D01*
X98448857Y-159964380D01*
X98353619Y-159964380D01*
X98210761Y-159916761D01*
X98115523Y-159821523D01*
X98067904Y-159726285D01*
X98020285Y-159535809D01*
X98020285Y-159392952D01*
X98067904Y-159202476D01*
X98115523Y-159107238D01*
X98210761Y-159012000D01*
X98353619Y-158964380D01*
X98448857Y-158964380D01*
X98591714Y-159012000D01*
X98639333Y-159059619D01*
X99591714Y-159964380D02*
X99020285Y-159964380D01*
X99306000Y-159964380D02*
X99306000Y-158964380D01*
X99210761Y-159107238D01*
X99115523Y-159202476D01*
X99020285Y-159250095D01*
X86193333Y-159869142D02*
X86145714Y-159916761D01*
X86002857Y-159964380D01*
X85907619Y-159964380D01*
X85764761Y-159916761D01*
X85669523Y-159821523D01*
X85621904Y-159726285D01*
X85574285Y-159535809D01*
X85574285Y-159392952D01*
X85621904Y-159202476D01*
X85669523Y-159107238D01*
X85764761Y-159012000D01*
X85907619Y-158964380D01*
X86002857Y-158964380D01*
X86145714Y-159012000D01*
X86193333Y-159059619D01*
X86574285Y-159059619D02*
X86621904Y-159012000D01*
X86717142Y-158964380D01*
X86955238Y-158964380D01*
X87050476Y-159012000D01*
X87098095Y-159059619D01*
X87145714Y-159154857D01*
X87145714Y-159250095D01*
X87098095Y-159392952D01*
X86526666Y-159964380D01*
X87145714Y-159964380D01*
X83145333Y-130659142D02*
X83097714Y-130706761D01*
X82954857Y-130754380D01*
X82859619Y-130754380D01*
X82716761Y-130706761D01*
X82621523Y-130611523D01*
X82573904Y-130516285D01*
X82526285Y-130325809D01*
X82526285Y-130182952D01*
X82573904Y-129992476D01*
X82621523Y-129897238D01*
X82716761Y-129802000D01*
X82859619Y-129754380D01*
X82954857Y-129754380D01*
X83097714Y-129802000D01*
X83145333Y-129849619D01*
X83478666Y-129754380D02*
X84097714Y-129754380D01*
X83764380Y-130135333D01*
X83907238Y-130135333D01*
X84002476Y-130182952D01*
X84050095Y-130230571D01*
X84097714Y-130325809D01*
X84097714Y-130563904D01*
X84050095Y-130659142D01*
X84002476Y-130706761D01*
X83907238Y-130754380D01*
X83621523Y-130754380D01*
X83526285Y-130706761D01*
X83478666Y-130659142D01*
X73747333Y-159869142D02*
X73699714Y-159916761D01*
X73556857Y-159964380D01*
X73461619Y-159964380D01*
X73318761Y-159916761D01*
X73223523Y-159821523D01*
X73175904Y-159726285D01*
X73128285Y-159535809D01*
X73128285Y-159392952D01*
X73175904Y-159202476D01*
X73223523Y-159107238D01*
X73318761Y-159012000D01*
X73461619Y-158964380D01*
X73556857Y-158964380D01*
X73699714Y-159012000D01*
X73747333Y-159059619D01*
X74604476Y-159297714D02*
X74604476Y-159964380D01*
X74366380Y-158916761D02*
X74128285Y-159631047D01*
X74747333Y-159631047D01*
X106513333Y-131421142D02*
X106465714Y-131468761D01*
X106322857Y-131516380D01*
X106227619Y-131516380D01*
X106084761Y-131468761D01*
X105989523Y-131373523D01*
X105941904Y-131278285D01*
X105894285Y-131087809D01*
X105894285Y-130944952D01*
X105941904Y-130754476D01*
X105989523Y-130659238D01*
X106084761Y-130564000D01*
X106227619Y-130516380D01*
X106322857Y-130516380D01*
X106465714Y-130564000D01*
X106513333Y-130611619D01*
X107418095Y-130516380D02*
X106941904Y-130516380D01*
X106894285Y-130992571D01*
X106941904Y-130944952D01*
X107037142Y-130897333D01*
X107275238Y-130897333D01*
X107370476Y-130944952D01*
X107418095Y-130992571D01*
X107465714Y-131087809D01*
X107465714Y-131325904D01*
X107418095Y-131421142D01*
X107370476Y-131468761D01*
X107275238Y-131516380D01*
X107037142Y-131516380D01*
X106941904Y-131468761D01*
X106894285Y-131421142D01*
X146645333Y-115927142D02*
X146597714Y-115974761D01*
X146454857Y-116022380D01*
X146359619Y-116022380D01*
X146216761Y-115974761D01*
X146121523Y-115879523D01*
X146073904Y-115784285D01*
X146026285Y-115593809D01*
X146026285Y-115450952D01*
X146073904Y-115260476D01*
X146121523Y-115165238D01*
X146216761Y-115070000D01*
X146359619Y-115022380D01*
X146454857Y-115022380D01*
X146597714Y-115070000D01*
X146645333Y-115117619D01*
X147502476Y-115022380D02*
X147312000Y-115022380D01*
X147216761Y-115070000D01*
X147169142Y-115117619D01*
X147073904Y-115260476D01*
X147026285Y-115450952D01*
X147026285Y-115831904D01*
X147073904Y-115927142D01*
X147121523Y-115974761D01*
X147216761Y-116022380D01*
X147407238Y-116022380D01*
X147502476Y-115974761D01*
X147550095Y-115927142D01*
X147597714Y-115831904D01*
X147597714Y-115593809D01*
X147550095Y-115498571D01*
X147502476Y-115450952D01*
X147407238Y-115403333D01*
X147216761Y-115403333D01*
X147121523Y-115450952D01*
X147073904Y-115498571D01*
X147026285Y-115593809D01*
X146645333Y-124055142D02*
X146597714Y-124102761D01*
X146454857Y-124150380D01*
X146359619Y-124150380D01*
X146216761Y-124102761D01*
X146121523Y-124007523D01*
X146073904Y-123912285D01*
X146026285Y-123721809D01*
X146026285Y-123578952D01*
X146073904Y-123388476D01*
X146121523Y-123293238D01*
X146216761Y-123198000D01*
X146359619Y-123150380D01*
X146454857Y-123150380D01*
X146597714Y-123198000D01*
X146645333Y-123245619D01*
X146978666Y-123150380D02*
X147645333Y-123150380D01*
X147216761Y-124150380D01*
X137080666Y-159726380D02*
X137080666Y-160440666D01*
X137033047Y-160583523D01*
X136937809Y-160678761D01*
X136794952Y-160726380D01*
X136699714Y-160726380D01*
X137509238Y-159821619D02*
X137556857Y-159774000D01*
X137652095Y-159726380D01*
X137890190Y-159726380D01*
X137985428Y-159774000D01*
X138033047Y-159821619D01*
X138080666Y-159916857D01*
X138080666Y-160012095D01*
X138033047Y-160154952D01*
X137461619Y-160726380D01*
X138080666Y-160726380D01*
X104862380Y-122499333D02*
X105576666Y-122499333D01*
X105719523Y-122546952D01*
X105814761Y-122642190D01*
X105862380Y-122785047D01*
X105862380Y-122880285D01*
X105862380Y-122023142D02*
X104862380Y-122023142D01*
X104862380Y-121642190D01*
X104910000Y-121546952D01*
X104957619Y-121499333D01*
X105052857Y-121451714D01*
X105195714Y-121451714D01*
X105290952Y-121499333D01*
X105338571Y-121546952D01*
X105386190Y-121642190D01*
X105386190Y-122023142D01*
X105862380Y-120499333D02*
X105862380Y-121070761D01*
X105862380Y-120785047D02*
X104862380Y-120785047D01*
X105005238Y-120880285D01*
X105100476Y-120975523D01*
X105148095Y-121070761D01*
X104862380Y-117927333D02*
X105576666Y-117927333D01*
X105719523Y-117974952D01*
X105814761Y-118070190D01*
X105862380Y-118213047D01*
X105862380Y-118308285D01*
X105862380Y-117451142D02*
X104862380Y-117451142D01*
X104862380Y-117070190D01*
X104910000Y-116974952D01*
X104957619Y-116927333D01*
X105052857Y-116879714D01*
X105195714Y-116879714D01*
X105290952Y-116927333D01*
X105338571Y-116974952D01*
X105386190Y-117070190D01*
X105386190Y-117451142D01*
X104957619Y-116498761D02*
X104910000Y-116451142D01*
X104862380Y-116355904D01*
X104862380Y-116117809D01*
X104910000Y-116022571D01*
X104957619Y-115974952D01*
X105052857Y-115927333D01*
X105148095Y-115927333D01*
X105290952Y-115974952D01*
X105862380Y-116546380D01*
X105862380Y-115927333D01*
X93178380Y-122372333D02*
X93892666Y-122372333D01*
X94035523Y-122419952D01*
X94130761Y-122515190D01*
X94178380Y-122658047D01*
X94178380Y-122753285D01*
X94178380Y-121896142D02*
X93178380Y-121896142D01*
X93178380Y-121515190D01*
X93226000Y-121419952D01*
X93273619Y-121372333D01*
X93368857Y-121324714D01*
X93511714Y-121324714D01*
X93606952Y-121372333D01*
X93654571Y-121419952D01*
X93702190Y-121515190D01*
X93702190Y-121896142D01*
X93178380Y-120991380D02*
X93178380Y-120372333D01*
X93559333Y-120705666D01*
X93559333Y-120562809D01*
X93606952Y-120467571D01*
X93654571Y-120419952D01*
X93749809Y-120372333D01*
X93987904Y-120372333D01*
X94083142Y-120419952D01*
X94130761Y-120467571D01*
X94178380Y-120562809D01*
X94178380Y-120848523D01*
X94130761Y-120943761D01*
X94083142Y-120991380D01*
X93178380Y-118181333D02*
X93892666Y-118181333D01*
X94035523Y-118228952D01*
X94130761Y-118324190D01*
X94178380Y-118467047D01*
X94178380Y-118562285D01*
X94178380Y-117705142D02*
X93178380Y-117705142D01*
X93178380Y-117324190D01*
X93226000Y-117228952D01*
X93273619Y-117181333D01*
X93368857Y-117133714D01*
X93511714Y-117133714D01*
X93606952Y-117181333D01*
X93654571Y-117228952D01*
X93702190Y-117324190D01*
X93702190Y-117705142D01*
X93178380Y-116228952D02*
X93178380Y-116705142D01*
X93654571Y-116752761D01*
X93606952Y-116705142D01*
X93559333Y-116609904D01*
X93559333Y-116371809D01*
X93606952Y-116276571D01*
X93654571Y-116228952D01*
X93749809Y-116181333D01*
X93987904Y-116181333D01*
X94083142Y-116228952D01*
X94130761Y-116276571D01*
X94178380Y-116371809D01*
X94178380Y-116609904D01*
X94130761Y-116705142D01*
X94083142Y-116752761D01*
X81494380Y-122499333D02*
X82208666Y-122499333D01*
X82351523Y-122546952D01*
X82446761Y-122642190D01*
X82494380Y-122785047D01*
X82494380Y-122880285D01*
X82494380Y-122023142D02*
X81494380Y-122023142D01*
X81494380Y-121642190D01*
X81542000Y-121546952D01*
X81589619Y-121499333D01*
X81684857Y-121451714D01*
X81827714Y-121451714D01*
X81922952Y-121499333D01*
X81970571Y-121546952D01*
X82018190Y-121642190D01*
X82018190Y-122023142D01*
X81922952Y-120880285D02*
X81875333Y-120975523D01*
X81827714Y-121023142D01*
X81732476Y-121070761D01*
X81684857Y-121070761D01*
X81589619Y-121023142D01*
X81542000Y-120975523D01*
X81494380Y-120880285D01*
X81494380Y-120689809D01*
X81542000Y-120594571D01*
X81589619Y-120546952D01*
X81684857Y-120499333D01*
X81732476Y-120499333D01*
X81827714Y-120546952D01*
X81875333Y-120594571D01*
X81922952Y-120689809D01*
X81922952Y-120880285D01*
X81970571Y-120975523D01*
X82018190Y-121023142D01*
X82113428Y-121070761D01*
X82303904Y-121070761D01*
X82399142Y-121023142D01*
X82446761Y-120975523D01*
X82494380Y-120880285D01*
X82494380Y-120689809D01*
X82446761Y-120594571D01*
X82399142Y-120546952D01*
X82303904Y-120499333D01*
X82113428Y-120499333D01*
X82018190Y-120546952D01*
X81970571Y-120594571D01*
X81922952Y-120689809D01*
X76454095Y-158202380D02*
X76454095Y-159011904D01*
X76501714Y-159107142D01*
X76549333Y-159154761D01*
X76644571Y-159202380D01*
X76835047Y-159202380D01*
X76930285Y-159154761D01*
X76977904Y-159107142D01*
X77025523Y-159011904D01*
X77025523Y-158202380D01*
X78025523Y-159202380D02*
X77454095Y-159202380D01*
X77739809Y-159202380D02*
X77739809Y-158202380D01*
X77644571Y-158345238D01*
X77549333Y-158440476D01*
X77454095Y-158488095D01*
X88900095Y-158202380D02*
X88900095Y-159011904D01*
X88947714Y-159107142D01*
X88995333Y-159154761D01*
X89090571Y-159202380D01*
X89281047Y-159202380D01*
X89376285Y-159154761D01*
X89423904Y-159107142D01*
X89471523Y-159011904D01*
X89471523Y-158202380D01*
X89900095Y-158297619D02*
X89947714Y-158250000D01*
X90042952Y-158202380D01*
X90281047Y-158202380D01*
X90376285Y-158250000D01*
X90423904Y-158297619D01*
X90471523Y-158392857D01*
X90471523Y-158488095D01*
X90423904Y-158630952D01*
X89852476Y-159202380D01*
X90471523Y-159202380D01*
X101346095Y-156932380D02*
X101346095Y-157741904D01*
X101393714Y-157837142D01*
X101441333Y-157884761D01*
X101536571Y-157932380D01*
X101727047Y-157932380D01*
X101822285Y-157884761D01*
X101869904Y-157837142D01*
X101917523Y-157741904D01*
X101917523Y-156932380D01*
X102298476Y-156932380D02*
X102917523Y-156932380D01*
X102584190Y-157313333D01*
X102727047Y-157313333D01*
X102822285Y-157360952D01*
X102869904Y-157408571D01*
X102917523Y-157503809D01*
X102917523Y-157741904D01*
X102869904Y-157837142D01*
X102822285Y-157884761D01*
X102727047Y-157932380D01*
X102441333Y-157932380D01*
X102346095Y-157884761D01*
X102298476Y-157837142D01*
X83058095Y-133310380D02*
X83058095Y-134119904D01*
X83105714Y-134215142D01*
X83153333Y-134262761D01*
X83248571Y-134310380D01*
X83439047Y-134310380D01*
X83534285Y-134262761D01*
X83581904Y-134215142D01*
X83629523Y-134119904D01*
X83629523Y-133310380D01*
X84534285Y-133643714D02*
X84534285Y-134310380D01*
X84296190Y-133262761D02*
X84058095Y-133977047D01*
X84677142Y-133977047D01*
X133437333Y-117038380D02*
X133104000Y-116562190D01*
X132865904Y-117038380D02*
X132865904Y-116038380D01*
X133246857Y-116038380D01*
X133342095Y-116086000D01*
X133389714Y-116133619D01*
X133437333Y-116228857D01*
X133437333Y-116371714D01*
X133389714Y-116466952D01*
X133342095Y-116514571D01*
X133246857Y-116562190D01*
X132865904Y-116562190D01*
X134342095Y-116038380D02*
X133865904Y-116038380D01*
X133818285Y-116514571D01*
X133865904Y-116466952D01*
X133961142Y-116419333D01*
X134199238Y-116419333D01*
X134294476Y-116466952D01*
X134342095Y-116514571D01*
X134389714Y-116609809D01*
X134389714Y-116847904D01*
X134342095Y-116943142D01*
X134294476Y-116990761D01*
X134199238Y-117038380D01*
X133961142Y-117038380D01*
X133865904Y-116990761D01*
X133818285Y-116943142D01*
X133437333Y-120594380D02*
X133104000Y-120118190D01*
X132865904Y-120594380D02*
X132865904Y-119594380D01*
X133246857Y-119594380D01*
X133342095Y-119642000D01*
X133389714Y-119689619D01*
X133437333Y-119784857D01*
X133437333Y-119927714D01*
X133389714Y-120022952D01*
X133342095Y-120070571D01*
X133246857Y-120118190D01*
X132865904Y-120118190D01*
X133818285Y-119689619D02*
X133865904Y-119642000D01*
X133961142Y-119594380D01*
X134199238Y-119594380D01*
X134294476Y-119642000D01*
X134342095Y-119689619D01*
X134389714Y-119784857D01*
X134389714Y-119880095D01*
X134342095Y-120022952D01*
X133770666Y-120594380D01*
X134389714Y-120594380D01*
X133437333Y-131262380D02*
X133104000Y-130786190D01*
X132865904Y-131262380D02*
X132865904Y-130262380D01*
X133246857Y-130262380D01*
X133342095Y-130310000D01*
X133389714Y-130357619D01*
X133437333Y-130452857D01*
X133437333Y-130595714D01*
X133389714Y-130690952D01*
X133342095Y-130738571D01*
X133246857Y-130786190D01*
X132865904Y-130786190D01*
X134389714Y-131262380D02*
X133818285Y-131262380D01*
X134104000Y-131262380D02*
X134104000Y-130262380D01*
X134008761Y-130405238D01*
X133913523Y-130500476D01*
X133818285Y-130548095D01*
X133437333Y-127706380D02*
X133104000Y-127230190D01*
X132865904Y-127706380D02*
X132865904Y-126706380D01*
X133246857Y-126706380D01*
X133342095Y-126754000D01*
X133389714Y-126801619D01*
X133437333Y-126896857D01*
X133437333Y-127039714D01*
X133389714Y-127134952D01*
X133342095Y-127182571D01*
X133246857Y-127230190D01*
X132865904Y-127230190D01*
X133770666Y-126706380D02*
X134437333Y-126706380D01*
X134008761Y-127706380D01*
X133437333Y-124150380D02*
X133104000Y-123674190D01*
X132865904Y-124150380D02*
X132865904Y-123150380D01*
X133246857Y-123150380D01*
X133342095Y-123198000D01*
X133389714Y-123245619D01*
X133437333Y-123340857D01*
X133437333Y-123483714D01*
X133389714Y-123578952D01*
X133342095Y-123626571D01*
X133246857Y-123674190D01*
X132865904Y-123674190D01*
X134294476Y-123150380D02*
X134104000Y-123150380D01*
X134008761Y-123198000D01*
X133961142Y-123245619D01*
X133865904Y-123388476D01*
X133818285Y-123578952D01*
X133818285Y-123959904D01*
X133865904Y-124055142D01*
X133913523Y-124102761D01*
X134008761Y-124150380D01*
X134199238Y-124150380D01*
X134294476Y-124102761D01*
X134342095Y-124055142D01*
X134389714Y-123959904D01*
X134389714Y-123721809D01*
X134342095Y-123626571D01*
X134294476Y-123578952D01*
X134199238Y-123531333D01*
X134008761Y-123531333D01*
X133913523Y-123578952D01*
X133865904Y-123626571D01*
X133818285Y-123721809D01*
X120229333Y-131262380D02*
X119896000Y-130786190D01*
X119657904Y-131262380D02*
X119657904Y-130262380D01*
X120038857Y-130262380D01*
X120134095Y-130310000D01*
X120181714Y-130357619D01*
X120229333Y-130452857D01*
X120229333Y-130595714D01*
X120181714Y-130690952D01*
X120134095Y-130738571D01*
X120038857Y-130786190D01*
X119657904Y-130786190D01*
X120562666Y-130262380D02*
X121181714Y-130262380D01*
X120848380Y-130643333D01*
X120991238Y-130643333D01*
X121086476Y-130690952D01*
X121134095Y-130738571D01*
X121181714Y-130833809D01*
X121181714Y-131071904D01*
X121134095Y-131167142D01*
X121086476Y-131214761D01*
X120991238Y-131262380D01*
X120705523Y-131262380D01*
X120610285Y-131214761D01*
X120562666Y-131167142D01*
X120229333Y-127706380D02*
X119896000Y-127230190D01*
X119657904Y-127706380D02*
X119657904Y-126706380D01*
X120038857Y-126706380D01*
X120134095Y-126754000D01*
X120181714Y-126801619D01*
X120229333Y-126896857D01*
X120229333Y-127039714D01*
X120181714Y-127134952D01*
X120134095Y-127182571D01*
X120038857Y-127230190D01*
X119657904Y-127230190D01*
X121086476Y-127039714D02*
X121086476Y-127706380D01*
X120848380Y-126658761D02*
X120610285Y-127373047D01*
X121229333Y-127373047D01*
X154415714Y-132452142D02*
X154368095Y-132499761D01*
X154225238Y-132547380D01*
X154130000Y-132547380D01*
X153987142Y-132499761D01*
X153891904Y-132404523D01*
X153844285Y-132309285D01*
X153796666Y-132118809D01*
X153796666Y-131975952D01*
X153844285Y-131785476D01*
X153891904Y-131690238D01*
X153987142Y-131595000D01*
X154130000Y-131547380D01*
X154225238Y-131547380D01*
X154368095Y-131595000D01*
X154415714Y-131642619D01*
X155034761Y-131547380D02*
X155225238Y-131547380D01*
X155320476Y-131595000D01*
X155415714Y-131690238D01*
X155463333Y-131880714D01*
X155463333Y-132214047D01*
X155415714Y-132404523D01*
X155320476Y-132499761D01*
X155225238Y-132547380D01*
X155034761Y-132547380D01*
X154939523Y-132499761D01*
X154844285Y-132404523D01*
X154796666Y-132214047D01*
X154796666Y-131880714D01*
X154844285Y-131690238D01*
X154939523Y-131595000D01*
X155034761Y-131547380D01*
X155891904Y-132547380D02*
X155891904Y-131547380D01*
X156463333Y-132547380D01*
X156463333Y-131547380D01*
X157463333Y-132547380D02*
X156891904Y-132547380D01*
X157177619Y-132547380D02*
X157177619Y-131547380D01*
X157082380Y-131690238D01*
X156987142Y-131785476D01*
X156891904Y-131833095D01*
X81494380Y-118181333D02*
X82208666Y-118181333D01*
X82351523Y-118228952D01*
X82446761Y-118324190D01*
X82494380Y-118467047D01*
X82494380Y-118562285D01*
X82494380Y-117705142D02*
X81494380Y-117705142D01*
X81494380Y-117324190D01*
X81542000Y-117228952D01*
X81589619Y-117181333D01*
X81684857Y-117133714D01*
X81827714Y-117133714D01*
X81922952Y-117181333D01*
X81970571Y-117228952D01*
X82018190Y-117324190D01*
X82018190Y-117705142D01*
X82494380Y-116657523D02*
X82494380Y-116467047D01*
X82446761Y-116371809D01*
X82399142Y-116324190D01*
X82256285Y-116228952D01*
X82065809Y-116181333D01*
X81684857Y-116181333D01*
X81589619Y-116228952D01*
X81542000Y-116276571D01*
X81494380Y-116371809D01*
X81494380Y-116562285D01*
X81542000Y-116657523D01*
X81589619Y-116705142D01*
X81684857Y-116752761D01*
X81922952Y-116752761D01*
X82018190Y-116705142D01*
X82065809Y-116657523D01*
X82113428Y-116562285D01*
X82113428Y-116371809D01*
X82065809Y-116276571D01*
X82018190Y-116228952D01*
X81922952Y-116181333D01*
X61904666Y-157948380D02*
X61904666Y-158662666D01*
X61857047Y-158805523D01*
X61761809Y-158900761D01*
X61618952Y-158948380D01*
X61523714Y-158948380D01*
X62380857Y-158948380D02*
X62380857Y-157948380D01*
X62761809Y-157948380D01*
X62857047Y-157996000D01*
X62904666Y-158043619D01*
X62952285Y-158138857D01*
X62952285Y-158281714D01*
X62904666Y-158376952D01*
X62857047Y-158424571D01*
X62761809Y-158472190D01*
X62380857Y-158472190D01*
X63809428Y-157948380D02*
X63618952Y-157948380D01*
X63523714Y-157996000D01*
X63476095Y-158043619D01*
X63380857Y-158186476D01*
X63333238Y-158376952D01*
X63333238Y-158757904D01*
X63380857Y-158853142D01*
X63428476Y-158900761D01*
X63523714Y-158948380D01*
X63714190Y-158948380D01*
X63809428Y-158900761D01*
X63857047Y-158853142D01*
X63904666Y-158757904D01*
X63904666Y-158519809D01*
X63857047Y-158424571D01*
X63809428Y-158376952D01*
X63714190Y-158329333D01*
X63523714Y-158329333D01*
X63428476Y-158376952D01*
X63380857Y-158424571D01*
X63333238Y-158519809D01*
X116546380Y-122499333D02*
X117260666Y-122499333D01*
X117403523Y-122546952D01*
X117498761Y-122642190D01*
X117546380Y-122785047D01*
X117546380Y-122880285D01*
X117546380Y-122023142D02*
X116546380Y-122023142D01*
X116546380Y-121642190D01*
X116594000Y-121546952D01*
X116641619Y-121499333D01*
X116736857Y-121451714D01*
X116879714Y-121451714D01*
X116974952Y-121499333D01*
X117022571Y-121546952D01*
X117070190Y-121642190D01*
X117070190Y-122023142D01*
X116546380Y-121118380D02*
X116546380Y-120451714D01*
X117546380Y-120880285D01*
X70056476Y-134834380D02*
X70723142Y-135834380D01*
X70723142Y-134834380D02*
X70056476Y-135834380D01*
X71627904Y-135834380D02*
X71056476Y-135834380D01*
X71342190Y-135834380D02*
X71342190Y-134834380D01*
X71246952Y-134977238D01*
X71151714Y-135072476D01*
X71056476Y-135120095D01*
X61237904Y-160472380D02*
X61237904Y-159472380D01*
X61618857Y-159472380D01*
X61714095Y-159520000D01*
X61761714Y-159567619D01*
X61809333Y-159662857D01*
X61809333Y-159805714D01*
X61761714Y-159900952D01*
X61714095Y-159948571D01*
X61618857Y-159996190D01*
X61237904Y-159996190D01*
X62761714Y-160472380D02*
X62190285Y-160472380D01*
X62476000Y-160472380D02*
X62476000Y-159472380D01*
X62380761Y-159615238D01*
X62285523Y-159710476D01*
X62190285Y-159758095D01*
D11*
X159445000Y-136180000D02*
X108525000Y-136180000D01*
X108525000Y-148300000D02*
X159445000Y-148300000D01*
X108465000Y-133180000D02*
X108465000Y-151300000D01*
X108525000Y-143240000D02*
X108525000Y-148300000D01*
X108465000Y-151300000D02*
X159505000Y-151300000D01*
X159445000Y-148300000D02*
X159445000Y-136180000D01*
X159505000Y-151300000D02*
X159505000Y-133180000D01*
X108525000Y-136180000D02*
X108525000Y-141240000D01*
X159505000Y-133180000D02*
X108465000Y-133180000D01*
X108525000Y-143240000D02*
G75*
G03*
X108525000Y-141240000I0J1000000D01*
G01*
X97250000Y-158092000D02*
X97250000Y-158717000D01*
X93210000Y-158092000D02*
X97250000Y-158092000D01*
X93210000Y-158092000D02*
X93210000Y-158717000D01*
X97250000Y-160307000D02*
X97250000Y-160932000D01*
X93210000Y-160932000D02*
X97250000Y-160932000D01*
X93210000Y-160307000D02*
X93210000Y-160932000D01*
X80804000Y-158092000D02*
X84844000Y-158092000D01*
X80804000Y-160932000D02*
X84844000Y-160932000D01*
X80804000Y-158092000D02*
X80804000Y-158717000D01*
X84844000Y-160307000D02*
X84844000Y-160932000D01*
X84844000Y-158092000D02*
X84844000Y-158717000D01*
X80804000Y-160307000D02*
X80804000Y-160932000D01*
X82517000Y-124960000D02*
X81892000Y-124960000D01*
X81892000Y-124960000D02*
X81892000Y-129000000D01*
X84732000Y-124960000D02*
X84732000Y-129000000D01*
X84732000Y-124960000D02*
X84107000Y-124960000D01*
X84732000Y-129000000D02*
X84107000Y-129000000D01*
X82517000Y-129000000D02*
X81892000Y-129000000D01*
X72398000Y-160932000D02*
X72398000Y-160307000D01*
X72398000Y-158717000D02*
X72398000Y-158092000D01*
X72398000Y-160932000D02*
X68358000Y-160932000D01*
X68358000Y-160932000D02*
X68358000Y-160307000D01*
X72398000Y-158092000D02*
X68358000Y-158092000D01*
X68358000Y-158717000D02*
X68358000Y-158092000D01*
X112490000Y-129644000D02*
X112490000Y-130269000D01*
X112490000Y-131859000D02*
X112490000Y-132484000D01*
X108450000Y-132484000D02*
X112490000Y-132484000D01*
X108450000Y-129644000D02*
X108450000Y-130269000D01*
X108450000Y-131859000D02*
X108450000Y-132484000D01*
X108450000Y-129644000D02*
X112490000Y-129644000D01*
X142724000Y-119880000D02*
X140575000Y-119880000D01*
X142724000Y-120801000D02*
X140868000Y-120801000D01*
X146946000Y-119920000D02*
X144804000Y-119920000D01*
X142724000Y-121081000D02*
X141022000Y-121081000D01*
X146991000Y-119520000D02*
X140537000Y-119520000D01*
X142724000Y-121121000D02*
X141048000Y-121121000D01*
X142724000Y-120521000D02*
X140746000Y-120521000D01*
X146850000Y-120321000D02*
X144804000Y-120321000D01*
X145988000Y-121721000D02*
X141540000Y-121721000D01*
X142724000Y-119640000D02*
X140546000Y-119640000D01*
X142724000Y-121041000D02*
X140998000Y-121041000D01*
X146620000Y-120881000D02*
X144804000Y-120881000D01*
X142724000Y-120841000D02*
X140888000Y-120841000D01*
X142724000Y-120721000D02*
X140830000Y-120721000D01*
X144823000Y-122441000D02*
X142705000Y-122441000D01*
X146939000Y-119960000D02*
X144804000Y-119960000D01*
X142724000Y-121441000D02*
X141280000Y-121441000D01*
X145114000Y-122321000D02*
X142414000Y-122321000D01*
X142724000Y-120000000D02*
X140597000Y-120000000D01*
X146214000Y-121481000D02*
X144804000Y-121481000D01*
X146874000Y-120241000D02*
X144804000Y-120241000D01*
X146905000Y-120121000D02*
X144804000Y-120121000D01*
X142724000Y-120761000D02*
X140848000Y-120761000D01*
X142724000Y-120040000D02*
X140605000Y-120040000D01*
X146734000Y-120641000D02*
X144804000Y-120641000D01*
X145603000Y-115859759D02*
X145603000Y-116489759D01*
X142724000Y-121281000D02*
X141157000Y-121281000D01*
X146953000Y-119880000D02*
X144804000Y-119880000D01*
X146895000Y-120161000D02*
X144804000Y-120161000D01*
X146797000Y-120481000D02*
X144804000Y-120481000D01*
X145478000Y-122121000D02*
X142050000Y-122121000D01*
X142724000Y-121361000D02*
X141216000Y-121361000D01*
X146979000Y-119680000D02*
X144804000Y-119680000D01*
X146107000Y-121601000D02*
X144804000Y-121601000D01*
X142724000Y-119600000D02*
X140542000Y-119600000D01*
X142724000Y-121561000D02*
X141384000Y-121561000D01*
X142724000Y-120121000D02*
X140623000Y-120121000D01*
X142724000Y-120481000D02*
X140731000Y-120481000D01*
X146480000Y-121121000D02*
X144804000Y-121121000D01*
X142724000Y-119960000D02*
X140589000Y-119960000D01*
X142724000Y-121601000D02*
X141421000Y-121601000D01*
X142724000Y-120241000D02*
X140654000Y-120241000D01*
X142724000Y-121401000D02*
X141248000Y-121401000D01*
X146400000Y-121241000D02*
X144804000Y-121241000D01*
X146248000Y-121441000D02*
X144804000Y-121441000D01*
X146959000Y-119840000D02*
X144804000Y-119840000D01*
X142724000Y-120561000D02*
X140762000Y-120561000D01*
X142724000Y-121641000D02*
X141459000Y-121641000D01*
X146371000Y-121281000D02*
X144804000Y-121281000D01*
X146312000Y-121361000D02*
X144804000Y-121361000D01*
X144929000Y-122401000D02*
X142599000Y-122401000D01*
X142724000Y-121521000D02*
X141348000Y-121521000D01*
X145196000Y-122281000D02*
X142332000Y-122281000D01*
X142724000Y-121321000D02*
X141186000Y-121321000D01*
X146069000Y-121641000D02*
X144804000Y-121641000D01*
X142724000Y-119920000D02*
X140582000Y-119920000D01*
X144166000Y-122601000D02*
X143362000Y-122601000D01*
X146680000Y-120761000D02*
X144804000Y-120761000D01*
X142724000Y-120161000D02*
X140633000Y-120161000D01*
X145345000Y-122201000D02*
X142183000Y-122201000D01*
X146992000Y-119480000D02*
X140536000Y-119480000D01*
X142724000Y-120401000D02*
X140703000Y-120401000D01*
X146660000Y-120801000D02*
X144804000Y-120801000D01*
X146994000Y-119360000D02*
X140534000Y-119360000D01*
X142724000Y-120201000D02*
X140643000Y-120201000D01*
X146811000Y-120441000D02*
X144804000Y-120441000D01*
X145946000Y-121761000D02*
X141582000Y-121761000D01*
X144566000Y-122521000D02*
X142962000Y-122521000D01*
X142724000Y-120921000D02*
X140930000Y-120921000D01*
X146965000Y-119800000D02*
X144804000Y-119800000D01*
X146825000Y-120401000D02*
X144804000Y-120401000D01*
X145654000Y-122001000D02*
X141874000Y-122001000D01*
X146970000Y-119760000D02*
X144804000Y-119760000D01*
X146640000Y-120841000D02*
X144804000Y-120841000D01*
X146994000Y-119440000D02*
X140534000Y-119440000D01*
X145901000Y-121801000D02*
X141627000Y-121801000D01*
X142724000Y-120961000D02*
X140952000Y-120961000D01*
X146931000Y-120000000D02*
X144804000Y-120000000D01*
X142724000Y-121241000D02*
X141128000Y-121241000D01*
X142724000Y-119800000D02*
X140563000Y-119800000D01*
X142724000Y-120601000D02*
X140778000Y-120601000D01*
X145808000Y-121881000D02*
X141720000Y-121881000D01*
X146530000Y-121041000D02*
X144804000Y-121041000D01*
X142724000Y-121001000D02*
X140974000Y-121001000D01*
X142724000Y-121481000D02*
X141314000Y-121481000D01*
X146716000Y-120681000D02*
X144804000Y-120681000D01*
X145026000Y-122361000D02*
X142502000Y-122361000D01*
X146988000Y-119560000D02*
X140540000Y-119560000D01*
X146598000Y-120921000D02*
X144804000Y-120921000D01*
X146994000Y-119400000D02*
X140534000Y-119400000D01*
X146750000Y-120601000D02*
X144804000Y-120601000D01*
X142724000Y-119840000D02*
X140569000Y-119840000D01*
X146782000Y-120521000D02*
X144804000Y-120521000D01*
X145414000Y-122161000D02*
X142114000Y-122161000D01*
X146180000Y-121521000D02*
X144804000Y-121521000D01*
X142724000Y-120641000D02*
X140794000Y-120641000D01*
X146506000Y-121081000D02*
X144804000Y-121081000D01*
X142724000Y-119720000D02*
X140553000Y-119720000D01*
X142724000Y-121201000D02*
X141100000Y-121201000D01*
X146986000Y-119600000D02*
X144804000Y-119600000D01*
X142724000Y-120881000D02*
X140908000Y-120881000D01*
X142724000Y-119760000D02*
X140558000Y-119760000D01*
X146982000Y-119640000D02*
X144804000Y-119640000D01*
X146428000Y-121201000D02*
X144804000Y-121201000D01*
X146029000Y-121681000D02*
X141499000Y-121681000D01*
X142724000Y-119680000D02*
X140549000Y-119680000D01*
X146923000Y-120040000D02*
X144804000Y-120040000D01*
X142724000Y-120081000D02*
X140614000Y-120081000D01*
X145856000Y-121841000D02*
X141672000Y-121841000D01*
X142724000Y-120681000D02*
X140812000Y-120681000D01*
X146698000Y-120721000D02*
X144804000Y-120721000D01*
X145759000Y-121921000D02*
X141769000Y-121921000D01*
X146838000Y-120361000D02*
X144804000Y-120361000D01*
X146342000Y-121321000D02*
X144804000Y-121321000D01*
X142724000Y-120361000D02*
X140690000Y-120361000D01*
X145598000Y-122041000D02*
X141930000Y-122041000D01*
X142724000Y-120321000D02*
X140678000Y-120321000D01*
X145273000Y-122241000D02*
X142255000Y-122241000D01*
X146280000Y-121401000D02*
X144804000Y-121401000D01*
X145918000Y-116174759D02*
X145288000Y-116174759D01*
X146975000Y-119720000D02*
X144804000Y-119720000D01*
X144397000Y-122561000D02*
X143131000Y-122561000D01*
X146144000Y-121561000D02*
X144804000Y-121561000D01*
X146766000Y-120561000D02*
X144804000Y-120561000D01*
X142724000Y-120441000D02*
X140717000Y-120441000D01*
X144704000Y-122481000D02*
X142824000Y-122481000D01*
X146454000Y-121161000D02*
X144804000Y-121161000D01*
X145540000Y-122081000D02*
X141988000Y-122081000D01*
X146885000Y-120201000D02*
X144804000Y-120201000D01*
X146576000Y-120961000D02*
X144804000Y-120961000D01*
X142724000Y-121161000D02*
X141074000Y-121161000D01*
X146914000Y-120081000D02*
X144804000Y-120081000D01*
X145708000Y-121961000D02*
X141820000Y-121961000D01*
X146862000Y-120281000D02*
X144804000Y-120281000D01*
X146554000Y-121001000D02*
X144804000Y-121001000D01*
X142724000Y-120281000D02*
X140666000Y-120281000D01*
X147034000Y-119360000D02*
G75*
G03*
X147034000Y-119360000I-3270000J0D01*
G01*
X145946000Y-130016000D02*
X141582000Y-130016000D01*
X142724000Y-129176000D02*
X140930000Y-129176000D01*
X142724000Y-129696000D02*
X141280000Y-129696000D01*
X145345000Y-130456000D02*
X142183000Y-130456000D01*
X142724000Y-128215000D02*
X140589000Y-128215000D01*
X145114000Y-130576000D02*
X142414000Y-130576000D01*
X146180000Y-129776000D02*
X144804000Y-129776000D01*
X146680000Y-129016000D02*
X144804000Y-129016000D01*
X144929000Y-130656000D02*
X142599000Y-130656000D01*
X142724000Y-128456000D02*
X140643000Y-128456000D01*
X145414000Y-130416000D02*
X142114000Y-130416000D01*
X146982000Y-127895000D02*
X144804000Y-127895000D01*
X142724000Y-128936000D02*
X140812000Y-128936000D01*
X146862000Y-128536000D02*
X144804000Y-128536000D01*
X146734000Y-128896000D02*
X144804000Y-128896000D01*
X146640000Y-129096000D02*
X144804000Y-129096000D01*
X145759000Y-130176000D02*
X141769000Y-130176000D01*
X146716000Y-128936000D02*
X144804000Y-128936000D01*
X145918000Y-124429759D02*
X145288000Y-124429759D01*
X146766000Y-128816000D02*
X144804000Y-128816000D01*
X142724000Y-128376000D02*
X140623000Y-128376000D01*
X145808000Y-130136000D02*
X141720000Y-130136000D01*
X145654000Y-130256000D02*
X141874000Y-130256000D01*
X146576000Y-129216000D02*
X144804000Y-129216000D01*
X146986000Y-127855000D02*
X144804000Y-127855000D01*
X142724000Y-129336000D02*
X141022000Y-129336000D01*
X146994000Y-127655000D02*
X140534000Y-127655000D01*
X146144000Y-129816000D02*
X144804000Y-129816000D01*
X142724000Y-128696000D02*
X140717000Y-128696000D01*
X146248000Y-129696000D02*
X144804000Y-129696000D01*
X142724000Y-129016000D02*
X140848000Y-129016000D01*
X142724000Y-127935000D02*
X140549000Y-127935000D01*
X146992000Y-127735000D02*
X140536000Y-127735000D01*
X145273000Y-130496000D02*
X142255000Y-130496000D01*
X142724000Y-128416000D02*
X140633000Y-128416000D01*
X142724000Y-128175000D02*
X140582000Y-128175000D01*
X142724000Y-128776000D02*
X140746000Y-128776000D01*
X146698000Y-128976000D02*
X144804000Y-128976000D01*
X142724000Y-127975000D02*
X140553000Y-127975000D01*
X146946000Y-128175000D02*
X144804000Y-128175000D01*
X146554000Y-129256000D02*
X144804000Y-129256000D01*
X146620000Y-129136000D02*
X144804000Y-129136000D01*
X146782000Y-128776000D02*
X144804000Y-128776000D01*
X146939000Y-128215000D02*
X144804000Y-128215000D01*
X146371000Y-129536000D02*
X144804000Y-129536000D01*
X142724000Y-129416000D02*
X141074000Y-129416000D01*
X144823000Y-130696000D02*
X142705000Y-130696000D01*
X146598000Y-129176000D02*
X144804000Y-129176000D01*
X146979000Y-127935000D02*
X144804000Y-127935000D01*
X142724000Y-129896000D02*
X141459000Y-129896000D01*
X145708000Y-130216000D02*
X141820000Y-130216000D01*
X146931000Y-128255000D02*
X144804000Y-128255000D01*
X146994000Y-127695000D02*
X140534000Y-127695000D01*
X142724000Y-129776000D02*
X141348000Y-129776000D01*
X146069000Y-129896000D02*
X144804000Y-129896000D01*
X146214000Y-129736000D02*
X144804000Y-129736000D01*
X146885000Y-128456000D02*
X144804000Y-128456000D01*
X146953000Y-128135000D02*
X144804000Y-128135000D01*
X146838000Y-128616000D02*
X144804000Y-128616000D01*
X146905000Y-128376000D02*
X144804000Y-128376000D01*
X146825000Y-128656000D02*
X144804000Y-128656000D01*
X146975000Y-127975000D02*
X144804000Y-127975000D01*
X144397000Y-130816000D02*
X143131000Y-130816000D01*
X142724000Y-129856000D02*
X141421000Y-129856000D01*
X146660000Y-129056000D02*
X144804000Y-129056000D01*
X146811000Y-128696000D02*
X144804000Y-128696000D01*
X142724000Y-128015000D02*
X140558000Y-128015000D01*
X144704000Y-130736000D02*
X142824000Y-130736000D01*
X146428000Y-129456000D02*
X144804000Y-129456000D01*
X146454000Y-129416000D02*
X144804000Y-129416000D01*
X146280000Y-129656000D02*
X144804000Y-129656000D01*
X142724000Y-128135000D02*
X140575000Y-128135000D01*
X142724000Y-128896000D02*
X140794000Y-128896000D01*
X142724000Y-129296000D02*
X140998000Y-129296000D01*
X146991000Y-127775000D02*
X140537000Y-127775000D01*
X142724000Y-129536000D02*
X141157000Y-129536000D01*
X146506000Y-129336000D02*
X144804000Y-129336000D01*
X142724000Y-128616000D02*
X140690000Y-128616000D01*
X142724000Y-127855000D02*
X140542000Y-127855000D01*
X142724000Y-129096000D02*
X140888000Y-129096000D01*
X142724000Y-129376000D02*
X141048000Y-129376000D01*
X142724000Y-129496000D02*
X141128000Y-129496000D01*
X146965000Y-128055000D02*
X144804000Y-128055000D01*
X142724000Y-128336000D02*
X140614000Y-128336000D01*
X146895000Y-128416000D02*
X144804000Y-128416000D01*
X145026000Y-130616000D02*
X142502000Y-130616000D01*
X142724000Y-128816000D02*
X140762000Y-128816000D01*
X142724000Y-128095000D02*
X140569000Y-128095000D01*
X145478000Y-130376000D02*
X142050000Y-130376000D01*
X145540000Y-130336000D02*
X141988000Y-130336000D01*
X145856000Y-130096000D02*
X141672000Y-130096000D01*
X142724000Y-128736000D02*
X140731000Y-128736000D01*
X146874000Y-128496000D02*
X144804000Y-128496000D01*
X142724000Y-129816000D02*
X141384000Y-129816000D01*
X142724000Y-128496000D02*
X140654000Y-128496000D01*
X146107000Y-129856000D02*
X144804000Y-129856000D01*
X142724000Y-128656000D02*
X140703000Y-128656000D01*
X142724000Y-129456000D02*
X141100000Y-129456000D01*
X142724000Y-129576000D02*
X141186000Y-129576000D01*
X142724000Y-129616000D02*
X141216000Y-129616000D01*
X146530000Y-129296000D02*
X144804000Y-129296000D01*
X142724000Y-129736000D02*
X141314000Y-129736000D01*
X146480000Y-129376000D02*
X144804000Y-129376000D01*
X142724000Y-128856000D02*
X140778000Y-128856000D01*
X146400000Y-129496000D02*
X144804000Y-129496000D01*
X145901000Y-130056000D02*
X141627000Y-130056000D01*
X142724000Y-129136000D02*
X140908000Y-129136000D01*
X142724000Y-128536000D02*
X140666000Y-128536000D01*
X142724000Y-129256000D02*
X140974000Y-129256000D01*
X142724000Y-128976000D02*
X140830000Y-128976000D01*
X142724000Y-128295000D02*
X140605000Y-128295000D01*
X142724000Y-128055000D02*
X140563000Y-128055000D01*
X142724000Y-129656000D02*
X141248000Y-129656000D01*
X146750000Y-128856000D02*
X144804000Y-128856000D01*
X142724000Y-127895000D02*
X140546000Y-127895000D01*
X146312000Y-129616000D02*
X144804000Y-129616000D01*
X145598000Y-130296000D02*
X141930000Y-130296000D01*
X146988000Y-127815000D02*
X140540000Y-127815000D01*
X146914000Y-128336000D02*
X144804000Y-128336000D01*
X146959000Y-128095000D02*
X144804000Y-128095000D01*
X146923000Y-128295000D02*
X144804000Y-128295000D01*
X146342000Y-129576000D02*
X144804000Y-129576000D01*
X146970000Y-128015000D02*
X144804000Y-128015000D01*
X146994000Y-127615000D02*
X140534000Y-127615000D01*
X142724000Y-128255000D02*
X140597000Y-128255000D01*
X145603000Y-124114759D02*
X145603000Y-124744759D01*
X144566000Y-130776000D02*
X142962000Y-130776000D01*
X144166000Y-130856000D02*
X143362000Y-130856000D01*
X145988000Y-129976000D02*
X141540000Y-129976000D01*
X142724000Y-129216000D02*
X140952000Y-129216000D01*
X146850000Y-128576000D02*
X144804000Y-128576000D01*
X145196000Y-130536000D02*
X142332000Y-130536000D01*
X142724000Y-129056000D02*
X140868000Y-129056000D01*
X142724000Y-128576000D02*
X140678000Y-128576000D01*
X146029000Y-129936000D02*
X141499000Y-129936000D01*
X146797000Y-128736000D02*
X144804000Y-128736000D01*
X147034000Y-127615000D02*
G75*
G03*
X147034000Y-127615000I-3270000J0D01*
G01*
X136338000Y-158810000D02*
X136338000Y-157480000D01*
X136338000Y-156210000D02*
X136338000Y-153610000D01*
X136338000Y-153610000D02*
X159318000Y-153610000D01*
X138938000Y-158810000D02*
X138938000Y-156210000D01*
X138938000Y-158810000D02*
X159318000Y-158810000D01*
X137668000Y-158810000D02*
X136338000Y-158810000D01*
X159318000Y-158810000D02*
X159318000Y-153610000D01*
X138938000Y-156210000D02*
X136338000Y-156210000D01*
X109220000Y-120336000D02*
X114360000Y-120336000D01*
X106620000Y-122996000D02*
X106620000Y-121666000D01*
X109220000Y-122996000D02*
X109220000Y-120336000D01*
X109220000Y-122996000D02*
X114360000Y-122996000D01*
X114360000Y-122996000D02*
X114360000Y-120336000D01*
X107950000Y-122996000D02*
X106620000Y-122996000D01*
X109220000Y-118678000D02*
X114360000Y-118678000D01*
X114360000Y-118678000D02*
X114360000Y-116018000D01*
X106620000Y-118678000D02*
X106620000Y-117348000D01*
X109220000Y-118678000D02*
X109220000Y-116018000D01*
X109220000Y-116018000D02*
X114360000Y-116018000D01*
X107950000Y-118678000D02*
X106620000Y-118678000D01*
X97536000Y-122996000D02*
X102676000Y-122996000D01*
X97536000Y-120336000D02*
X102676000Y-120336000D01*
X97536000Y-122996000D02*
X97536000Y-120336000D01*
X102676000Y-122996000D02*
X102676000Y-120336000D01*
X96266000Y-122996000D02*
X94936000Y-122996000D01*
X94936000Y-122996000D02*
X94936000Y-121666000D01*
X97536000Y-118678000D02*
X102676000Y-118678000D01*
X102676000Y-118678000D02*
X102676000Y-116018000D01*
X97536000Y-118678000D02*
X97536000Y-116018000D01*
X96266000Y-118678000D02*
X94936000Y-118678000D01*
X94936000Y-118678000D02*
X94936000Y-117348000D01*
X97536000Y-116018000D02*
X102676000Y-116018000D01*
X90992000Y-122996000D02*
X90992000Y-120336000D01*
X85852000Y-122996000D02*
X90992000Y-122996000D01*
X83252000Y-122996000D02*
X83252000Y-121666000D01*
X85852000Y-120336000D02*
X90992000Y-120336000D01*
X85852000Y-122996000D02*
X85852000Y-120336000D01*
X84582000Y-122996000D02*
X83252000Y-122996000D01*
X75656000Y-157286000D02*
X75656000Y-136846000D01*
X68156000Y-157346000D02*
X78656000Y-157346000D01*
X71156000Y-157286000D02*
X72406000Y-157286000D01*
X78656000Y-136786000D02*
X68156000Y-136786000D01*
X75656000Y-136846000D02*
X71156000Y-136846000D01*
X78656000Y-157346000D02*
X78656000Y-136786000D01*
X68156000Y-136786000D02*
X68156000Y-157346000D01*
X74406000Y-157286000D02*
X75656000Y-157286000D01*
X71156000Y-136846000D02*
X71156000Y-157286000D01*
X74406000Y-157286000D02*
G75*
G03*
X72406000Y-157286000I-1000000J0D01*
G01*
X91102000Y-136786000D02*
X80602000Y-136786000D01*
X91102000Y-157346000D02*
X91102000Y-136786000D01*
X86852000Y-157286000D02*
X88102000Y-157286000D01*
X80602000Y-157346000D02*
X91102000Y-157346000D01*
X80602000Y-136786000D02*
X80602000Y-157346000D01*
X83602000Y-157286000D02*
X84852000Y-157286000D01*
X88102000Y-157286000D02*
X88102000Y-136846000D01*
X83602000Y-136846000D02*
X83602000Y-157286000D01*
X88102000Y-136846000D02*
X83602000Y-136846000D01*
X86852000Y-157286000D02*
G75*
G03*
X84852000Y-157286000I-1000000J0D01*
G01*
X96048000Y-156016000D02*
X97298000Y-156016000D01*
X100548000Y-156016000D02*
X100548000Y-138116000D01*
X96048000Y-138116000D02*
X96048000Y-156016000D01*
X103548000Y-156076000D02*
X103548000Y-138056000D01*
X103548000Y-138056000D02*
X93048000Y-138056000D01*
X93048000Y-138056000D02*
X93048000Y-156076000D01*
X99298000Y-156016000D02*
X100548000Y-156016000D01*
X93048000Y-156076000D02*
X103548000Y-156076000D01*
X100548000Y-138116000D02*
X96048000Y-138116000D01*
X99298000Y-156016000D02*
G75*
G03*
X97298000Y-156016000I-1000000J0D01*
G01*
X85538000Y-131048000D02*
X85538000Y-132298000D01*
X103438000Y-127798000D02*
X85538000Y-127798000D01*
X103498000Y-135298000D02*
X103498000Y-124798000D01*
X103438000Y-132298000D02*
X103438000Y-127798000D01*
X85538000Y-127798000D02*
X85538000Y-129048000D01*
X85478000Y-135298000D02*
X103498000Y-135298000D01*
X103498000Y-124798000D02*
X85478000Y-124798000D01*
X85478000Y-124798000D02*
X85478000Y-135298000D01*
X85538000Y-132298000D02*
X103438000Y-132298000D01*
X85538000Y-131048000D02*
G75*
G03*
X85538000Y-129048000I0J1000000D01*
G01*
X137644000Y-116586000D02*
X136874000Y-116586000D01*
X136874000Y-117956000D02*
X136874000Y-115216000D01*
X130334000Y-115216000D02*
X130334000Y-117956000D01*
X129564000Y-116586000D02*
X130334000Y-116586000D01*
X136874000Y-115216000D02*
X130334000Y-115216000D01*
X130334000Y-117956000D02*
X136874000Y-117956000D01*
X130334000Y-118772000D02*
X130334000Y-121512000D01*
X137644000Y-120142000D02*
X136874000Y-120142000D01*
X130334000Y-121512000D02*
X136874000Y-121512000D01*
X136874000Y-121512000D02*
X136874000Y-118772000D01*
X136874000Y-118772000D02*
X130334000Y-118772000D01*
X129564000Y-120142000D02*
X130334000Y-120142000D01*
X137644000Y-130810000D02*
X136874000Y-130810000D01*
X136874000Y-132180000D02*
X136874000Y-129440000D01*
X129564000Y-130810000D02*
X130334000Y-130810000D01*
X130334000Y-132180000D02*
X136874000Y-132180000D01*
X130334000Y-129440000D02*
X130334000Y-132180000D01*
X136874000Y-129440000D02*
X130334000Y-129440000D01*
X136874000Y-128624000D02*
X136874000Y-125884000D01*
X130334000Y-128624000D02*
X136874000Y-128624000D01*
X137644000Y-127254000D02*
X136874000Y-127254000D01*
X136874000Y-125884000D02*
X130334000Y-125884000D01*
X130334000Y-125884000D02*
X130334000Y-128624000D01*
X129564000Y-127254000D02*
X130334000Y-127254000D01*
X130334000Y-122328000D02*
X130334000Y-125068000D01*
X130334000Y-125068000D02*
X136874000Y-125068000D01*
X136874000Y-125068000D02*
X136874000Y-122328000D01*
X129564000Y-123698000D02*
X130334000Y-123698000D01*
X137644000Y-123698000D02*
X136874000Y-123698000D01*
X136874000Y-122328000D02*
X130334000Y-122328000D01*
X117126000Y-132180000D02*
X123666000Y-132180000D01*
X124436000Y-130810000D02*
X123666000Y-130810000D01*
X123666000Y-129440000D02*
X117126000Y-129440000D01*
X116356000Y-130810000D02*
X117126000Y-130810000D01*
X123666000Y-132180000D02*
X123666000Y-129440000D01*
X117126000Y-129440000D02*
X117126000Y-132180000D01*
X117126000Y-128624000D02*
X123666000Y-128624000D01*
X117126000Y-125884000D02*
X117126000Y-128624000D01*
X116356000Y-127254000D02*
X117126000Y-127254000D01*
X124436000Y-127254000D02*
X123666000Y-127254000D01*
X123666000Y-128624000D02*
X123666000Y-125884000D01*
X123666000Y-125884000D02*
X117126000Y-125884000D01*
D12*
X161930000Y-118995000D02*
X162530000Y-118995000D01*
X148330000Y-118995000D02*
X148330000Y-120395000D01*
X162530000Y-118995000D02*
X162530000Y-120195000D01*
X148930000Y-118995000D02*
X148330000Y-118995000D01*
X148330000Y-131195000D02*
X148330000Y-129695000D01*
X148930000Y-131195000D02*
X148330000Y-131195000D01*
D11*
X84582000Y-118678000D02*
X83252000Y-118678000D01*
X90992000Y-118678000D02*
X90992000Y-116018000D01*
X85852000Y-118678000D02*
X85852000Y-116018000D01*
X85852000Y-118678000D02*
X90992000Y-118678000D01*
X85852000Y-116018000D02*
X90992000Y-116018000D01*
X83252000Y-118678000D02*
X83252000Y-117348000D01*
X66608000Y-154686000D02*
X64008000Y-154686000D01*
X66608000Y-134306000D02*
X61408000Y-134306000D01*
X66608000Y-154686000D02*
X66608000Y-134306000D01*
X66608000Y-155956000D02*
X66608000Y-157286000D01*
X66608000Y-157286000D02*
X65278000Y-157286000D01*
X64008000Y-157286000D02*
X61408000Y-157286000D01*
X61408000Y-157286000D02*
X61408000Y-134306000D01*
X64008000Y-154686000D02*
X64008000Y-157286000D01*
X123504000Y-122996000D02*
X123504000Y-120336000D01*
X119634000Y-122996000D02*
X118304000Y-122996000D01*
X120904000Y-122996000D02*
X123504000Y-122996000D01*
X120904000Y-120336000D02*
X123504000Y-120336000D01*
X120904000Y-122996000D02*
X120904000Y-120336000D01*
X118304000Y-122996000D02*
X118304000Y-121666000D01*
X79876000Y-123782000D02*
X69476000Y-123782000D01*
X79816000Y-131282000D02*
X79816000Y-126782000D01*
X79876000Y-134282000D02*
X79876000Y-123782000D01*
X69536000Y-130032000D02*
X69536000Y-131282000D01*
X69476000Y-123782000D02*
X69476000Y-134282000D01*
X69476000Y-134282000D02*
X79876000Y-134282000D01*
X79816000Y-126782000D02*
X69536000Y-126782000D01*
X69536000Y-126782000D02*
X69536000Y-128032000D01*
X69536000Y-131282000D02*
X79816000Y-131282000D01*
X69536000Y-130032000D02*
G75*
G03*
X69536000Y-128032000I0J1000000D01*
G01*
G36*
X108251814Y-153678931D02*
G01*
X108335635Y-154123555D01*
X108644920Y-154251053D01*
X108954206Y-154378551D01*
X109325246Y-154126246D01*
X109429157Y-154055996D01*
X109523087Y-153993272D01*
X109602652Y-153940938D01*
X109663470Y-153901857D01*
X109701157Y-153878893D01*
X109711421Y-153873942D01*
X109729910Y-153886676D01*
X109769420Y-153921882D01*
X109825522Y-153975062D01*
X109893787Y-154041718D01*
X109969786Y-154117354D01*
X110049092Y-154197472D01*
X110127275Y-154277574D01*
X110199907Y-154353164D01*
X110262559Y-154419745D01*
X110310803Y-154472818D01*
X110340210Y-154507887D01*
X110347241Y-154519623D01*
X110337123Y-154541260D01*
X110308759Y-154588662D01*
X110265129Y-154657193D01*
X110209218Y-154742215D01*
X110144006Y-154839093D01*
X110106219Y-154894350D01*
X110037343Y-154995248D01*
X109976140Y-155086299D01*
X109925578Y-155162970D01*
X109888628Y-155220728D01*
X109868258Y-155255043D01*
X109865197Y-155262254D01*
X109872136Y-155282748D01*
X109891051Y-155330513D01*
X109919087Y-155398832D01*
X109953391Y-155480989D01*
X109991109Y-155570270D01*
X110029387Y-155659958D01*
X110065370Y-155743338D01*
X110096206Y-155813694D01*
X110119039Y-155864310D01*
X110131017Y-155888471D01*
X110131724Y-155889422D01*
X110150531Y-155894036D01*
X110200618Y-155904328D01*
X110276793Y-155919287D01*
X110373865Y-155937901D01*
X110486643Y-155959159D01*
X110552442Y-155971418D01*
X110672950Y-155994362D01*
X110781797Y-156016195D01*
X110873476Y-156035722D01*
X110942481Y-156051748D01*
X110983304Y-156063079D01*
X110991511Y-156066674D01*
X110999548Y-156091006D01*
X111006033Y-156145959D01*
X111010970Y-156225108D01*
X111014364Y-156322026D01*
X111016218Y-156430287D01*
X111016538Y-156543465D01*
X111015327Y-156655135D01*
X111012590Y-156758868D01*
X111008331Y-156848241D01*
X111002555Y-156916826D01*
X110995267Y-156958197D01*
X110990895Y-156966810D01*
X110964764Y-156977133D01*
X110909393Y-156991892D01*
X110832107Y-157009352D01*
X110740230Y-157027780D01*
X110708158Y-157033741D01*
X110553524Y-157062066D01*
X110431375Y-157084876D01*
X110337673Y-157103080D01*
X110268384Y-157117583D01*
X110219471Y-157129292D01*
X110186897Y-157139115D01*
X110166628Y-157147956D01*
X110154626Y-157156724D01*
X110152947Y-157158457D01*
X110136184Y-157186371D01*
X110110614Y-157240695D01*
X110078788Y-157314777D01*
X110043260Y-157401965D01*
X110006583Y-157495608D01*
X109971311Y-157589052D01*
X109939996Y-157675647D01*
X109915193Y-157748740D01*
X109899454Y-157801678D01*
X109895332Y-157827811D01*
X109895676Y-157828726D01*
X109909641Y-157850086D01*
X109941322Y-157897084D01*
X109987391Y-157964827D01*
X110044518Y-158048423D01*
X110109373Y-158142982D01*
X110127843Y-158169854D01*
X110193699Y-158267275D01*
X110251650Y-158356163D01*
X110298538Y-158431412D01*
X110331207Y-158487920D01*
X110346500Y-158520581D01*
X110347241Y-158524593D01*
X110334392Y-158545684D01*
X110298888Y-158587464D01*
X110245293Y-158645445D01*
X110178171Y-158715135D01*
X110102087Y-158792045D01*
X110021604Y-158871683D01*
X109941287Y-158949561D01*
X109865699Y-159021186D01*
X109799405Y-159082070D01*
X109746969Y-159127721D01*
X109712955Y-159153650D01*
X109703545Y-159157883D01*
X109681643Y-159147912D01*
X109636800Y-159121020D01*
X109576321Y-159081736D01*
X109529789Y-159050117D01*
X109445475Y-158992098D01*
X109345626Y-158923784D01*
X109245473Y-158855579D01*
X109191627Y-158819075D01*
X109009371Y-158695800D01*
X108856381Y-158778520D01*
X108786682Y-158814759D01*
X108727414Y-158842926D01*
X108687311Y-158858991D01*
X108677103Y-158861226D01*
X108664829Y-158844722D01*
X108640613Y-158798082D01*
X108606263Y-158725609D01*
X108563588Y-158631606D01*
X108514394Y-158520374D01*
X108460490Y-158396215D01*
X108403684Y-158263432D01*
X108345782Y-158126327D01*
X108288593Y-157989202D01*
X108233924Y-157856358D01*
X108183584Y-157732098D01*
X108139380Y-157620725D01*
X108103119Y-157526539D01*
X108076609Y-157453844D01*
X108061658Y-157406941D01*
X108059254Y-157390833D01*
X108078311Y-157370286D01*
X108120036Y-157336933D01*
X108175706Y-157297702D01*
X108180378Y-157294599D01*
X108324264Y-157179423D01*
X108440283Y-157045053D01*
X108527430Y-156895784D01*
X108584699Y-156735913D01*
X108611086Y-156569737D01*
X108605585Y-156401552D01*
X108567190Y-156235655D01*
X108494895Y-156076342D01*
X108473626Y-156041487D01*
X108362996Y-155900737D01*
X108232302Y-155787714D01*
X108086064Y-155703003D01*
X107928808Y-155647194D01*
X107765057Y-155620874D01*
X107599333Y-155624630D01*
X107436162Y-155659050D01*
X107280065Y-155724723D01*
X107135567Y-155822235D01*
X107090869Y-155861813D01*
X106977112Y-155985703D01*
X106894218Y-156116124D01*
X106837356Y-156262315D01*
X106805687Y-156407088D01*
X106797869Y-156569860D01*
X106823938Y-156733440D01*
X106881245Y-156892298D01*
X106967144Y-157040906D01*
X107078986Y-157173735D01*
X107214123Y-157285256D01*
X107231883Y-157297011D01*
X107288150Y-157335508D01*
X107330923Y-157368863D01*
X107351372Y-157390160D01*
X107351669Y-157390833D01*
X107347279Y-157413871D01*
X107329876Y-157466157D01*
X107301268Y-157543390D01*
X107263265Y-157641268D01*
X107217674Y-157755491D01*
X107166303Y-157881758D01*
X107110962Y-158015767D01*
X107053458Y-158153218D01*
X106995601Y-158289808D01*
X106939198Y-158421237D01*
X106886058Y-158543205D01*
X106837990Y-158651409D01*
X106796801Y-158741549D01*
X106764301Y-158809323D01*
X106742297Y-158850430D01*
X106733436Y-158861226D01*
X106706360Y-158852819D01*
X106655697Y-158830272D01*
X106590183Y-158797613D01*
X106554159Y-158778520D01*
X106401168Y-158695800D01*
X106218912Y-158819075D01*
X106125875Y-158882228D01*
X106024015Y-158951727D01*
X105928562Y-159017165D01*
X105880750Y-159050117D01*
X105813505Y-159095273D01*
X105756564Y-159131057D01*
X105717354Y-159152938D01*
X105704619Y-159157563D01*
X105686083Y-159145085D01*
X105645059Y-159110252D01*
X105585525Y-159056678D01*
X105511458Y-158987983D01*
X105426835Y-158907781D01*
X105373315Y-158856286D01*
X105279681Y-158764286D01*
X105198759Y-158681999D01*
X105133823Y-158612945D01*
X105088142Y-158560644D01*
X105064989Y-158528616D01*
X105062768Y-158522116D01*
X105073076Y-158497394D01*
X105101561Y-158447405D01*
X105145063Y-158377212D01*
X105200423Y-158291875D01*
X105264480Y-158196456D01*
X105282697Y-158169854D01*
X105349073Y-158073167D01*
X105408622Y-157986117D01*
X105458016Y-157913595D01*
X105493925Y-157860493D01*
X105513019Y-157831703D01*
X105514864Y-157828726D01*
X105512105Y-157805782D01*
X105497462Y-157755336D01*
X105473487Y-157684041D01*
X105442734Y-157598547D01*
X105407756Y-157505507D01*
X105371107Y-157411574D01*
X105335339Y-157323399D01*
X105303006Y-157247634D01*
X105276662Y-157190931D01*
X105258858Y-157159943D01*
X105257593Y-157158457D01*
X105246706Y-157149601D01*
X105228318Y-157140843D01*
X105198394Y-157131277D01*
X105152897Y-157119996D01*
X105087791Y-157106093D01*
X104999039Y-157088663D01*
X104882607Y-157066798D01*
X104734458Y-157039591D01*
X104702382Y-157033741D01*
X104607314Y-157015374D01*
X104524435Y-156997405D01*
X104461070Y-156981569D01*
X104424542Y-156969600D01*
X104419644Y-156966810D01*
X104411573Y-156942072D01*
X104405013Y-156886790D01*
X104399967Y-156807389D01*
X104396441Y-156710296D01*
X104394439Y-156601938D01*
X104393964Y-156488740D01*
X104395023Y-156377128D01*
X104397618Y-156273529D01*
X104401754Y-156184368D01*
X104407437Y-156116072D01*
X104414669Y-156075066D01*
X104419029Y-156066674D01*
X104443302Y-156058208D01*
X104498574Y-156044435D01*
X104579338Y-156026550D01*
X104680088Y-156005748D01*
X104795317Y-155983223D01*
X104858098Y-155971418D01*
X104977213Y-155949151D01*
X105083435Y-155928979D01*
X105171573Y-155911915D01*
X105236434Y-155898969D01*
X105272826Y-155891155D01*
X105278816Y-155889422D01*
X105288939Y-155869890D01*
X105310338Y-155822843D01*
X105340161Y-155755003D01*
X105375555Y-155673091D01*
X105413668Y-155583828D01*
X105451647Y-155493935D01*
X105486640Y-155410135D01*
X105515794Y-155339147D01*
X105536257Y-155287694D01*
X105545177Y-155262497D01*
X105545343Y-155261396D01*
X105535231Y-155241519D01*
X105506883Y-155195777D01*
X105463277Y-155128717D01*
X105407394Y-155044884D01*
X105342213Y-154948826D01*
X105304321Y-154893650D01*
X105235275Y-154792481D01*
X105173950Y-154700630D01*
X105123337Y-154622744D01*
X105086429Y-154563469D01*
X105066218Y-154527451D01*
X105063299Y-154519377D01*
X105075847Y-154500584D01*
X105110537Y-154460457D01*
X105162937Y-154403493D01*
X105228616Y-154334185D01*
X105303144Y-154257031D01*
X105382087Y-154176525D01*
X105461017Y-154097163D01*
X105535500Y-154023440D01*
X105601106Y-153959852D01*
X105653404Y-153910894D01*
X105687961Y-153881061D01*
X105699522Y-153873942D01*
X105718346Y-153883953D01*
X105763369Y-153912078D01*
X105830213Y-153955454D01*
X105914501Y-154011218D01*
X106011856Y-154076506D01*
X106085293Y-154126246D01*
X106456333Y-154378551D01*
X107074905Y-154123555D01*
X107158725Y-153678931D01*
X107242546Y-153234307D01*
X108167994Y-153234307D01*
X108251814Y-153678931D01*
G37*
D13*
X108251814Y-153678931D02*
X108335635Y-154123555D01*
X108644920Y-154251053D01*
X108954206Y-154378551D01*
X109325246Y-154126246D01*
X109429157Y-154055996D01*
X109523087Y-153993272D01*
X109602652Y-153940938D01*
X109663470Y-153901857D01*
X109701157Y-153878893D01*
X109711421Y-153873942D01*
X109729910Y-153886676D01*
X109769420Y-153921882D01*
X109825522Y-153975062D01*
X109893787Y-154041718D01*
X109969786Y-154117354D01*
X110049092Y-154197472D01*
X110127275Y-154277574D01*
X110199907Y-154353164D01*
X110262559Y-154419745D01*
X110310803Y-154472818D01*
X110340210Y-154507887D01*
X110347241Y-154519623D01*
X110337123Y-154541260D01*
X110308759Y-154588662D01*
X110265129Y-154657193D01*
X110209218Y-154742215D01*
X110144006Y-154839093D01*
X110106219Y-154894350D01*
X110037343Y-154995248D01*
X109976140Y-155086299D01*
X109925578Y-155162970D01*
X109888628Y-155220728D01*
X109868258Y-155255043D01*
X109865197Y-155262254D01*
X109872136Y-155282748D01*
X109891051Y-155330513D01*
X109919087Y-155398832D01*
X109953391Y-155480989D01*
X109991109Y-155570270D01*
X110029387Y-155659958D01*
X110065370Y-155743338D01*
X110096206Y-155813694D01*
X110119039Y-155864310D01*
X110131017Y-155888471D01*
X110131724Y-155889422D01*
X110150531Y-155894036D01*
X110200618Y-155904328D01*
X110276793Y-155919287D01*
X110373865Y-155937901D01*
X110486643Y-155959159D01*
X110552442Y-155971418D01*
X110672950Y-155994362D01*
X110781797Y-156016195D01*
X110873476Y-156035722D01*
X110942481Y-156051748D01*
X110983304Y-156063079D01*
X110991511Y-156066674D01*
X110999548Y-156091006D01*
X111006033Y-156145959D01*
X111010970Y-156225108D01*
X111014364Y-156322026D01*
X111016218Y-156430287D01*
X111016538Y-156543465D01*
X111015327Y-156655135D01*
X111012590Y-156758868D01*
X111008331Y-156848241D01*
X111002555Y-156916826D01*
X110995267Y-156958197D01*
X110990895Y-156966810D01*
X110964764Y-156977133D01*
X110909393Y-156991892D01*
X110832107Y-157009352D01*
X110740230Y-157027780D01*
X110708158Y-157033741D01*
X110553524Y-157062066D01*
X110431375Y-157084876D01*
X110337673Y-157103080D01*
X110268384Y-157117583D01*
X110219471Y-157129292D01*
X110186897Y-157139115D01*
X110166628Y-157147956D01*
X110154626Y-157156724D01*
X110152947Y-157158457D01*
X110136184Y-157186371D01*
X110110614Y-157240695D01*
X110078788Y-157314777D01*
X110043260Y-157401965D01*
X110006583Y-157495608D01*
X109971311Y-157589052D01*
X109939996Y-157675647D01*
X109915193Y-157748740D01*
X109899454Y-157801678D01*
X109895332Y-157827811D01*
X109895676Y-157828726D01*
X109909641Y-157850086D01*
X109941322Y-157897084D01*
X109987391Y-157964827D01*
X110044518Y-158048423D01*
X110109373Y-158142982D01*
X110127843Y-158169854D01*
X110193699Y-158267275D01*
X110251650Y-158356163D01*
X110298538Y-158431412D01*
X110331207Y-158487920D01*
X110346500Y-158520581D01*
X110347241Y-158524593D01*
X110334392Y-158545684D01*
X110298888Y-158587464D01*
X110245293Y-158645445D01*
X110178171Y-158715135D01*
X110102087Y-158792045D01*
X110021604Y-158871683D01*
X109941287Y-158949561D01*
X109865699Y-159021186D01*
X109799405Y-159082070D01*
X109746969Y-159127721D01*
X109712955Y-159153650D01*
X109703545Y-159157883D01*
X109681643Y-159147912D01*
X109636800Y-159121020D01*
X109576321Y-159081736D01*
X109529789Y-159050117D01*
X109445475Y-158992098D01*
X109345626Y-158923784D01*
X109245473Y-158855579D01*
X109191627Y-158819075D01*
X109009371Y-158695800D01*
X108856381Y-158778520D01*
X108786682Y-158814759D01*
X108727414Y-158842926D01*
X108687311Y-158858991D01*
X108677103Y-158861226D01*
X108664829Y-158844722D01*
X108640613Y-158798082D01*
X108606263Y-158725609D01*
X108563588Y-158631606D01*
X108514394Y-158520374D01*
X108460490Y-158396215D01*
X108403684Y-158263432D01*
X108345782Y-158126327D01*
X108288593Y-157989202D01*
X108233924Y-157856358D01*
X108183584Y-157732098D01*
X108139380Y-157620725D01*
X108103119Y-157526539D01*
X108076609Y-157453844D01*
X108061658Y-157406941D01*
X108059254Y-157390833D01*
X108078311Y-157370286D01*
X108120036Y-157336933D01*
X108175706Y-157297702D01*
X108180378Y-157294599D01*
X108324264Y-157179423D01*
X108440283Y-157045053D01*
X108527430Y-156895784D01*
X108584699Y-156735913D01*
X108611086Y-156569737D01*
X108605585Y-156401552D01*
X108567190Y-156235655D01*
X108494895Y-156076342D01*
X108473626Y-156041487D01*
X108362996Y-155900737D01*
X108232302Y-155787714D01*
X108086064Y-155703003D01*
X107928808Y-155647194D01*
X107765057Y-155620874D01*
X107599333Y-155624630D01*
X107436162Y-155659050D01*
X107280065Y-155724723D01*
X107135567Y-155822235D01*
X107090869Y-155861813D01*
X106977112Y-155985703D01*
X106894218Y-156116124D01*
X106837356Y-156262315D01*
X106805687Y-156407088D01*
X106797869Y-156569860D01*
X106823938Y-156733440D01*
X106881245Y-156892298D01*
X106967144Y-157040906D01*
X107078986Y-157173735D01*
X107214123Y-157285256D01*
X107231883Y-157297011D01*
X107288150Y-157335508D01*
X107330923Y-157368863D01*
X107351372Y-157390160D01*
X107351669Y-157390833D01*
X107347279Y-157413871D01*
X107329876Y-157466157D01*
X107301268Y-157543390D01*
X107263265Y-157641268D01*
X107217674Y-157755491D01*
X107166303Y-157881758D01*
X107110962Y-158015767D01*
X107053458Y-158153218D01*
X106995601Y-158289808D01*
X106939198Y-158421237D01*
X106886058Y-158543205D01*
X106837990Y-158651409D01*
X106796801Y-158741549D01*
X106764301Y-158809323D01*
X106742297Y-158850430D01*
X106733436Y-158861226D01*
X106706360Y-158852819D01*
X106655697Y-158830272D01*
X106590183Y-158797613D01*
X106554159Y-158778520D01*
X106401168Y-158695800D01*
X106218912Y-158819075D01*
X106125875Y-158882228D01*
X106024015Y-158951727D01*
X105928562Y-159017165D01*
X105880750Y-159050117D01*
X105813505Y-159095273D01*
X105756564Y-159131057D01*
X105717354Y-159152938D01*
X105704619Y-159157563D01*
X105686083Y-159145085D01*
X105645059Y-159110252D01*
X105585525Y-159056678D01*
X105511458Y-158987983D01*
X105426835Y-158907781D01*
X105373315Y-158856286D01*
X105279681Y-158764286D01*
X105198759Y-158681999D01*
X105133823Y-158612945D01*
X105088142Y-158560644D01*
X105064989Y-158528616D01*
X105062768Y-158522116D01*
X105073076Y-158497394D01*
X105101561Y-158447405D01*
X105145063Y-158377212D01*
X105200423Y-158291875D01*
X105264480Y-158196456D01*
X105282697Y-158169854D01*
X105349073Y-158073167D01*
X105408622Y-157986117D01*
X105458016Y-157913595D01*
X105493925Y-157860493D01*
X105513019Y-157831703D01*
X105514864Y-157828726D01*
X105512105Y-157805782D01*
X105497462Y-157755336D01*
X105473487Y-157684041D01*
X105442734Y-157598547D01*
X105407756Y-157505507D01*
X105371107Y-157411574D01*
X105335339Y-157323399D01*
X105303006Y-157247634D01*
X105276662Y-157190931D01*
X105258858Y-157159943D01*
X105257593Y-157158457D01*
X105246706Y-157149601D01*
X105228318Y-157140843D01*
X105198394Y-157131277D01*
X105152897Y-157119996D01*
X105087791Y-157106093D01*
X104999039Y-157088663D01*
X104882607Y-157066798D01*
X104734458Y-157039591D01*
X104702382Y-157033741D01*
X104607314Y-157015374D01*
X104524435Y-156997405D01*
X104461070Y-156981569D01*
X104424542Y-156969600D01*
X104419644Y-156966810D01*
X104411573Y-156942072D01*
X104405013Y-156886790D01*
X104399967Y-156807389D01*
X104396441Y-156710296D01*
X104394439Y-156601938D01*
X104393964Y-156488740D01*
X104395023Y-156377128D01*
X104397618Y-156273529D01*
X104401754Y-156184368D01*
X104407437Y-156116072D01*
X104414669Y-156075066D01*
X104419029Y-156066674D01*
X104443302Y-156058208D01*
X104498574Y-156044435D01*
X104579338Y-156026550D01*
X104680088Y-156005748D01*
X104795317Y-155983223D01*
X104858098Y-155971418D01*
X104977213Y-155949151D01*
X105083435Y-155928979D01*
X105171573Y-155911915D01*
X105236434Y-155898969D01*
X105272826Y-155891155D01*
X105278816Y-155889422D01*
X105288939Y-155869890D01*
X105310338Y-155822843D01*
X105340161Y-155755003D01*
X105375555Y-155673091D01*
X105413668Y-155583828D01*
X105451647Y-155493935D01*
X105486640Y-155410135D01*
X105515794Y-155339147D01*
X105536257Y-155287694D01*
X105545177Y-155262497D01*
X105545343Y-155261396D01*
X105535231Y-155241519D01*
X105506883Y-155195777D01*
X105463277Y-155128717D01*
X105407394Y-155044884D01*
X105342213Y-154948826D01*
X105304321Y-154893650D01*
X105235275Y-154792481D01*
X105173950Y-154700630D01*
X105123337Y-154622744D01*
X105086429Y-154563469D01*
X105066218Y-154527451D01*
X105063299Y-154519377D01*
X105075847Y-154500584D01*
X105110537Y-154460457D01*
X105162937Y-154403493D01*
X105228616Y-154334185D01*
X105303144Y-154257031D01*
X105382087Y-154176525D01*
X105461017Y-154097163D01*
X105535500Y-154023440D01*
X105601106Y-153959852D01*
X105653404Y-153910894D01*
X105687961Y-153881061D01*
X105699522Y-153873942D01*
X105718346Y-153883953D01*
X105763369Y-153912078D01*
X105830213Y-153955454D01*
X105914501Y-154011218D01*
X106011856Y-154076506D01*
X106085293Y-154126246D01*
X106456333Y-154378551D01*
X107074905Y-154123555D01*
X107158725Y-153678931D01*
X107242546Y-153234307D01*
X108167994Y-153234307D01*
X108251814Y-153678931D01*
G36*
X127039593Y-154258394D02*
G01*
X127114300Y-154266900D01*
X127129170Y-154693202D01*
X127014310Y-154677459D01*
X126876161Y-154672862D01*
X126741615Y-154693491D01*
X126626934Y-154735650D01*
X126562871Y-154780005D01*
X126492000Y-154847904D01*
X126492000Y-155905200D01*
X126060200Y-155905200D01*
X126060200Y-154279600D01*
X126250700Y-154279600D01*
X126341753Y-154282507D01*
X126409111Y-154290197D01*
X126440366Y-154301123D01*
X126441200Y-154303346D01*
X126449551Y-154343170D01*
X126465579Y-154391215D01*
X126489958Y-154455338D01*
X126618287Y-154368979D01*
X126774919Y-154290442D01*
X126940477Y-154256217D01*
X127039593Y-154258394D01*
G37*
X127039593Y-154258394D02*
X127114300Y-154266900D01*
X127129170Y-154693202D01*
X127014310Y-154677459D01*
X126876161Y-154672862D01*
X126741615Y-154693491D01*
X126626934Y-154735650D01*
X126562871Y-154780005D01*
X126492000Y-154847904D01*
X126492000Y-155905200D01*
X126060200Y-155905200D01*
X126060200Y-154279600D01*
X126250700Y-154279600D01*
X126341753Y-154282507D01*
X126409111Y-154290197D01*
X126440366Y-154301123D01*
X126441200Y-154303346D01*
X126449551Y-154343170D01*
X126465579Y-154391215D01*
X126489958Y-154455338D01*
X126618287Y-154368979D01*
X126774919Y-154290442D01*
X126940477Y-154256217D01*
X127039593Y-154258394D01*
G36*
X116645405Y-153698961D02*
G01*
X116777430Y-153706986D01*
X116876024Y-153720409D01*
X116900553Y-153726447D01*
X117004661Y-153777613D01*
X117109028Y-153862316D01*
X117198812Y-153965588D01*
X117259171Y-154072461D01*
X117267482Y-154096485D01*
X117297611Y-154273386D01*
X117291113Y-154460474D01*
X117248815Y-154634297D01*
X117248475Y-154635200D01*
X117168777Y-154795560D01*
X117047632Y-154969494D01*
X116890331Y-155150672D01*
X116702164Y-155332767D01*
X116573862Y-155442098D01*
X116472825Y-155524200D01*
X117322600Y-155524200D01*
X117322600Y-155905200D01*
X115773200Y-155905200D01*
X115773200Y-155534694D01*
X115982667Y-155383397D01*
X116075538Y-155311053D01*
X116191490Y-155212808D01*
X116318387Y-155099371D01*
X116444092Y-154981451D01*
X116499538Y-154927300D01*
X116624666Y-154800918D01*
X116717149Y-154701487D01*
X116782466Y-154622382D01*
X116826098Y-154556982D01*
X116852949Y-154500206D01*
X116882498Y-154369298D01*
X116867432Y-154256433D01*
X116808569Y-154165694D01*
X116781072Y-154142333D01*
X116752253Y-154123569D01*
X116718265Y-154109565D01*
X116671297Y-154099457D01*
X116603540Y-154092381D01*
X116507182Y-154087473D01*
X116374412Y-154083869D01*
X116228622Y-154081210D01*
X115747800Y-154073320D01*
X115747800Y-153924172D01*
X115748132Y-153853896D01*
X115754815Y-153806426D01*
X115776380Y-153775770D01*
X115821354Y-153755933D01*
X115898268Y-153740924D01*
X116015652Y-153724749D01*
X116035387Y-153722106D01*
X116174940Y-153707906D01*
X116331540Y-153699357D01*
X116492569Y-153696397D01*
X116645405Y-153698961D01*
G37*
X116645405Y-153698961D02*
X116777430Y-153706986D01*
X116876024Y-153720409D01*
X116900553Y-153726447D01*
X117004661Y-153777613D01*
X117109028Y-153862316D01*
X117198812Y-153965588D01*
X117259171Y-154072461D01*
X117267482Y-154096485D01*
X117297611Y-154273386D01*
X117291113Y-154460474D01*
X117248815Y-154634297D01*
X117248475Y-154635200D01*
X117168777Y-154795560D01*
X117047632Y-154969494D01*
X116890331Y-155150672D01*
X116702164Y-155332767D01*
X116573862Y-155442098D01*
X116472825Y-155524200D01*
X117322600Y-155524200D01*
X117322600Y-155905200D01*
X115773200Y-155905200D01*
X115773200Y-155534694D01*
X115982667Y-155383397D01*
X116075538Y-155311053D01*
X116191490Y-155212808D01*
X116318387Y-155099371D01*
X116444092Y-154981451D01*
X116499538Y-154927300D01*
X116624666Y-154800918D01*
X116717149Y-154701487D01*
X116782466Y-154622382D01*
X116826098Y-154556982D01*
X116852949Y-154500206D01*
X116882498Y-154369298D01*
X116867432Y-154256433D01*
X116808569Y-154165694D01*
X116781072Y-154142333D01*
X116752253Y-154123569D01*
X116718265Y-154109565D01*
X116671297Y-154099457D01*
X116603540Y-154092381D01*
X116507182Y-154087473D01*
X116374412Y-154083869D01*
X116228622Y-154081210D01*
X115747800Y-154073320D01*
X115747800Y-153924172D01*
X115748132Y-153853896D01*
X115754815Y-153806426D01*
X115776380Y-153775770D01*
X115821354Y-153755933D01*
X115898268Y-153740924D01*
X116015652Y-153724749D01*
X116035387Y-153722106D01*
X116174940Y-153707906D01*
X116331540Y-153699357D01*
X116492569Y-153696397D01*
X116645405Y-153698961D01*
G36*
X117586246Y-154363518D02*
G01*
X117589439Y-154239942D01*
X117593833Y-154147566D01*
X117600008Y-154079857D01*
X117608544Y-154030283D01*
X117620024Y-153992311D01*
X117635028Y-153959410D01*
X117652527Y-153927859D01*
X117736524Y-153822170D01*
X117830327Y-153750059D01*
X117876923Y-153724261D01*
X117921398Y-153705780D01*
X117973574Y-153693151D01*
X118043275Y-153684910D01*
X118140323Y-153679595D01*
X118274542Y-153675742D01*
X118338600Y-153674329D01*
X118534461Y-153672887D01*
X118687602Y-153679300D01*
X118805774Y-153695661D01*
X118896729Y-153724063D01*
X118968218Y-153766599D01*
X119027992Y-153825360D01*
X119061621Y-153869507D01*
X119138700Y-153979176D01*
X119138700Y-155591409D01*
X119071116Y-155693535D01*
X119020901Y-155760847D01*
X118966145Y-155811399D01*
X118898773Y-155847665D01*
X118810711Y-155872121D01*
X118693885Y-155887242D01*
X118540219Y-155895502D01*
X118402100Y-155898593D01*
X118223971Y-155899680D01*
X118089247Y-155896589D01*
X117990673Y-155888894D01*
X117920990Y-155876167D01*
X117897586Y-155868852D01*
X117765552Y-155795630D01*
X117668467Y-155685744D01*
X117611951Y-155556605D01*
X117599856Y-155505933D01*
X117590732Y-155443561D01*
X117584336Y-155362963D01*
X117580424Y-155257616D01*
X117578754Y-155120996D01*
X117579081Y-154946578D01*
X117581133Y-154730399D01*
X117582302Y-154635667D01*
X118008268Y-154635667D01*
X118008400Y-154779383D01*
X118009596Y-154987465D01*
X118013078Y-155159994D01*
X118018687Y-155293146D01*
X118026262Y-155383100D01*
X118035460Y-155425702D01*
X118069762Y-155469341D01*
X118122985Y-155497919D01*
X118203915Y-155513605D01*
X118321338Y-155518562D01*
X118407584Y-155517427D01*
X118527334Y-155512283D01*
X118607146Y-155502787D01*
X118657824Y-155486953D01*
X118686984Y-155466123D01*
X118701091Y-155448064D01*
X118711951Y-155421502D01*
X118719980Y-155380182D01*
X118725596Y-155317848D01*
X118729217Y-155228246D01*
X118731261Y-155105120D01*
X118732146Y-154942217D01*
X118732300Y-154787565D01*
X118732630Y-154576724D01*
X118731818Y-154411203D01*
X118727160Y-154285543D01*
X118715951Y-154194288D01*
X118695486Y-154131982D01*
X118663061Y-154093166D01*
X118615971Y-154072385D01*
X118551512Y-154064181D01*
X118466980Y-154063097D01*
X118373548Y-154063700D01*
X118266759Y-154063422D01*
X118183074Y-154066259D01*
X118119683Y-154077715D01*
X118073778Y-154103294D01*
X118042552Y-154148499D01*
X118023197Y-154218835D01*
X118012903Y-154319805D01*
X118008863Y-154456915D01*
X118008268Y-154635667D01*
X117582302Y-154635667D01*
X117583670Y-154524826D01*
X117586246Y-154363518D01*
G37*
X117586246Y-154363518D02*
X117589439Y-154239942D01*
X117593833Y-154147566D01*
X117600008Y-154079857D01*
X117608544Y-154030283D01*
X117620024Y-153992311D01*
X117635028Y-153959410D01*
X117652527Y-153927859D01*
X117736524Y-153822170D01*
X117830327Y-153750059D01*
X117876923Y-153724261D01*
X117921398Y-153705780D01*
X117973574Y-153693151D01*
X118043275Y-153684910D01*
X118140323Y-153679595D01*
X118274542Y-153675742D01*
X118338600Y-153674329D01*
X118534461Y-153672887D01*
X118687602Y-153679300D01*
X118805774Y-153695661D01*
X118896729Y-153724063D01*
X118968218Y-153766599D01*
X119027992Y-153825360D01*
X119061621Y-153869507D01*
X119138700Y-153979176D01*
X119138700Y-155591409D01*
X119071116Y-155693535D01*
X119020901Y-155760847D01*
X118966145Y-155811399D01*
X118898773Y-155847665D01*
X118810711Y-155872121D01*
X118693885Y-155887242D01*
X118540219Y-155895502D01*
X118402100Y-155898593D01*
X118223971Y-155899680D01*
X118089247Y-155896589D01*
X117990673Y-155888894D01*
X117920990Y-155876167D01*
X117897586Y-155868852D01*
X117765552Y-155795630D01*
X117668467Y-155685744D01*
X117611951Y-155556605D01*
X117599856Y-155505933D01*
X117590732Y-155443561D01*
X117584336Y-155362963D01*
X117580424Y-155257616D01*
X117578754Y-155120996D01*
X117579081Y-154946578D01*
X117581133Y-154730399D01*
X117582302Y-154635667D01*
X118008268Y-154635667D01*
X118008400Y-154779383D01*
X118009596Y-154987465D01*
X118013078Y-155159994D01*
X118018687Y-155293146D01*
X118026262Y-155383100D01*
X118035460Y-155425702D01*
X118069762Y-155469341D01*
X118122985Y-155497919D01*
X118203915Y-155513605D01*
X118321338Y-155518562D01*
X118407584Y-155517427D01*
X118527334Y-155512283D01*
X118607146Y-155502787D01*
X118657824Y-155486953D01*
X118686984Y-155466123D01*
X118701091Y-155448064D01*
X118711951Y-155421502D01*
X118719980Y-155380182D01*
X118725596Y-155317848D01*
X118729217Y-155228246D01*
X118731261Y-155105120D01*
X118732146Y-154942217D01*
X118732300Y-154787565D01*
X118732630Y-154576724D01*
X118731818Y-154411203D01*
X118727160Y-154285543D01*
X118715951Y-154194288D01*
X118695486Y-154131982D01*
X118663061Y-154093166D01*
X118615971Y-154072385D01*
X118551512Y-154064181D01*
X118466980Y-154063097D01*
X118373548Y-154063700D01*
X118266759Y-154063422D01*
X118183074Y-154066259D01*
X118119683Y-154077715D01*
X118073778Y-154103294D01*
X118042552Y-154148499D01*
X118023197Y-154218835D01*
X118012903Y-154319805D01*
X118008863Y-154456915D01*
X118008268Y-154635667D01*
X117582302Y-154635667D01*
X117583670Y-154524826D01*
X117586246Y-154363518D01*
G36*
X113865150Y-157980260D02*
G01*
X113897314Y-157846356D01*
X113913376Y-157804298D01*
X113978518Y-157698596D01*
X114070791Y-157620359D01*
X114194695Y-157567905D01*
X114354732Y-157539551D01*
X114555405Y-157533617D01*
X114630989Y-157536277D01*
X114797421Y-157550248D01*
X114922441Y-157576430D01*
X115014747Y-157618682D01*
X115083036Y-157680861D01*
X115131850Y-157758431D01*
X115169556Y-157870263D01*
X115188632Y-158006775D01*
X115188540Y-158148170D01*
X115168743Y-158274650D01*
X115147474Y-158334530D01*
X115111406Y-158396297D01*
X115065007Y-158442000D01*
X115000384Y-158474247D01*
X114909645Y-158495647D01*
X114784896Y-158508809D01*
X114618245Y-158516342D01*
X114595441Y-158516981D01*
X114243182Y-158526407D01*
X114256974Y-158629231D01*
X114279217Y-158709780D01*
X114316372Y-158776540D01*
X114324376Y-158785477D01*
X114348005Y-158805842D01*
X114377001Y-158820170D01*
X114419903Y-158829431D01*
X114485246Y-158834595D01*
X114581568Y-158836630D01*
X114717405Y-158836506D01*
X114770793Y-158836168D01*
X115163600Y-158833436D01*
X115163600Y-158967806D01*
X115162763Y-159034073D01*
X115154334Y-159078298D01*
X115129436Y-159106723D01*
X115079191Y-159125589D01*
X114994722Y-159141140D01*
X114896900Y-159155337D01*
X114755739Y-159170346D01*
X114602164Y-159178105D01*
X114449386Y-159178787D01*
X114310618Y-159172563D01*
X114199072Y-159159605D01*
X114141009Y-159145495D01*
X114052937Y-159108090D01*
X113993580Y-159062449D01*
X113945625Y-158992607D01*
X113919213Y-158940940D01*
X113881130Y-158827847D01*
X113854586Y-158678415D01*
X113839649Y-158505792D01*
X113836385Y-158323126D01*
X113841414Y-158216600D01*
X114242736Y-158216600D01*
X114472754Y-158216600D01*
X114594019Y-158214193D01*
X114674365Y-158206016D01*
X114723488Y-158190636D01*
X114742685Y-158176685D01*
X114774522Y-158113670D01*
X114780042Y-158029410D01*
X114759212Y-157946133D01*
X114743059Y-157917451D01*
X114714808Y-157886725D01*
X114674989Y-157869580D01*
X114609551Y-157862275D01*
X114531096Y-157861000D01*
X114412310Y-157868296D01*
X114333799Y-157895184D01*
X114286495Y-157949160D01*
X114261334Y-158037721D01*
X114254964Y-158089342D01*
X114242736Y-158216600D01*
X113841414Y-158216600D01*
X113844863Y-158143566D01*
X113865150Y-157980260D01*
G37*
X113865150Y-157980260D02*
X113897314Y-157846356D01*
X113913376Y-157804298D01*
X113978518Y-157698596D01*
X114070791Y-157620359D01*
X114194695Y-157567905D01*
X114354732Y-157539551D01*
X114555405Y-157533617D01*
X114630989Y-157536277D01*
X114797421Y-157550248D01*
X114922441Y-157576430D01*
X115014747Y-157618682D01*
X115083036Y-157680861D01*
X115131850Y-157758431D01*
X115169556Y-157870263D01*
X115188632Y-158006775D01*
X115188540Y-158148170D01*
X115168743Y-158274650D01*
X115147474Y-158334530D01*
X115111406Y-158396297D01*
X115065007Y-158442000D01*
X115000384Y-158474247D01*
X114909645Y-158495647D01*
X114784896Y-158508809D01*
X114618245Y-158516342D01*
X114595441Y-158516981D01*
X114243182Y-158526407D01*
X114256974Y-158629231D01*
X114279217Y-158709780D01*
X114316372Y-158776540D01*
X114324376Y-158785477D01*
X114348005Y-158805842D01*
X114377001Y-158820170D01*
X114419903Y-158829431D01*
X114485246Y-158834595D01*
X114581568Y-158836630D01*
X114717405Y-158836506D01*
X114770793Y-158836168D01*
X115163600Y-158833436D01*
X115163600Y-158967806D01*
X115162763Y-159034073D01*
X115154334Y-159078298D01*
X115129436Y-159106723D01*
X115079191Y-159125589D01*
X114994722Y-159141140D01*
X114896900Y-159155337D01*
X114755739Y-159170346D01*
X114602164Y-159178105D01*
X114449386Y-159178787D01*
X114310618Y-159172563D01*
X114199072Y-159159605D01*
X114141009Y-159145495D01*
X114052937Y-159108090D01*
X113993580Y-159062449D01*
X113945625Y-158992607D01*
X113919213Y-158940940D01*
X113881130Y-158827847D01*
X113854586Y-158678415D01*
X113839649Y-158505792D01*
X113836385Y-158323126D01*
X113841414Y-158216600D01*
X114242736Y-158216600D01*
X114472754Y-158216600D01*
X114594019Y-158214193D01*
X114674365Y-158206016D01*
X114723488Y-158190636D01*
X114742685Y-158176685D01*
X114774522Y-158113670D01*
X114780042Y-158029410D01*
X114759212Y-157946133D01*
X114743059Y-157917451D01*
X114714808Y-157886725D01*
X114674989Y-157869580D01*
X114609551Y-157862275D01*
X114531096Y-157861000D01*
X114412310Y-157868296D01*
X114333799Y-157895184D01*
X114286495Y-157949160D01*
X114261334Y-158037721D01*
X114254964Y-158089342D01*
X114242736Y-158216600D01*
X113841414Y-158216600D01*
X113844863Y-158143566D01*
X113865150Y-157980260D01*
G36*
X127736600Y-155905200D02*
G01*
X127304800Y-155905200D01*
X127304800Y-154254200D01*
X127736600Y-154254200D01*
X127736600Y-155905200D01*
G37*
X127736600Y-155905200D02*
X127304800Y-155905200D01*
X127304800Y-154254200D01*
X127736600Y-154254200D01*
X127736600Y-155905200D01*
G36*
X120843788Y-153676012D02*
G01*
X121004352Y-153681340D01*
X121005600Y-153681384D01*
X121159535Y-153687403D01*
X121303707Y-153694209D01*
X121427110Y-153701195D01*
X121518741Y-153707754D01*
X121559141Y-153711909D01*
X121668182Y-153726895D01*
X121660741Y-153895297D01*
X121653300Y-154063700D01*
X121163511Y-154070601D01*
X120673723Y-154077502D01*
X120649161Y-154142104D01*
X120636836Y-154199677D01*
X120628020Y-154288852D01*
X120624600Y-154390458D01*
X120624600Y-154576793D01*
X120857102Y-154593296D01*
X120995953Y-154601268D01*
X121148564Y-154607125D01*
X121284932Y-154609753D01*
X121301602Y-154609800D01*
X121513600Y-154609800D01*
X121513600Y-154959939D01*
X121066691Y-154978557D01*
X120619783Y-154997176D01*
X120628541Y-155220502D01*
X120634741Y-155323122D01*
X120643806Y-155406166D01*
X120654155Y-155456676D01*
X120658393Y-155464964D01*
X120689294Y-155472182D01*
X120762768Y-155479696D01*
X120870595Y-155486958D01*
X121004554Y-155493420D01*
X121156426Y-155498535D01*
X121166393Y-155498800D01*
X121653300Y-155511500D01*
X121660732Y-155679534D01*
X121668165Y-155847568D01*
X121546432Y-155862797D01*
X121455422Y-155871407D01*
X121334810Y-155878872D01*
X121194543Y-155885005D01*
X121044569Y-155889617D01*
X120894834Y-155892520D01*
X120755286Y-155893524D01*
X120635871Y-155892442D01*
X120546537Y-155889084D01*
X120497231Y-155883263D01*
X120495404Y-155882715D01*
X120371573Y-155821419D01*
X120287229Y-155730673D01*
X120256577Y-155668161D01*
X120245181Y-155631992D01*
X120236257Y-155586173D01*
X120229601Y-155524965D01*
X120225007Y-155442628D01*
X120222270Y-155333422D01*
X120221183Y-155191606D01*
X120221541Y-155011441D01*
X120223139Y-154787187D01*
X120223513Y-154744938D01*
X120225720Y-154506964D01*
X120228406Y-154314286D01*
X120232782Y-154161408D01*
X120240059Y-154042831D01*
X120251450Y-153953058D01*
X120268166Y-153886590D01*
X120291419Y-153837931D01*
X120322420Y-153801581D01*
X120362382Y-153772044D01*
X120412515Y-153743822D01*
X120448286Y-153725072D01*
X120490959Y-153703772D01*
X120531100Y-153688648D01*
X120577582Y-153679006D01*
X120639276Y-153674150D01*
X120725054Y-153673383D01*
X120843788Y-153676012D01*
G37*
X120843788Y-153676012D02*
X121004352Y-153681340D01*
X121005600Y-153681384D01*
X121159535Y-153687403D01*
X121303707Y-153694209D01*
X121427110Y-153701195D01*
X121518741Y-153707754D01*
X121559141Y-153711909D01*
X121668182Y-153726895D01*
X121660741Y-153895297D01*
X121653300Y-154063700D01*
X121163511Y-154070601D01*
X120673723Y-154077502D01*
X120649161Y-154142104D01*
X120636836Y-154199677D01*
X120628020Y-154288852D01*
X120624600Y-154390458D01*
X120624600Y-154576793D01*
X120857102Y-154593296D01*
X120995953Y-154601268D01*
X121148564Y-154607125D01*
X121284932Y-154609753D01*
X121301602Y-154609800D01*
X121513600Y-154609800D01*
X121513600Y-154959939D01*
X121066691Y-154978557D01*
X120619783Y-154997176D01*
X120628541Y-155220502D01*
X120634741Y-155323122D01*
X120643806Y-155406166D01*
X120654155Y-155456676D01*
X120658393Y-155464964D01*
X120689294Y-155472182D01*
X120762768Y-155479696D01*
X120870595Y-155486958D01*
X121004554Y-155493420D01*
X121156426Y-155498535D01*
X121166393Y-155498800D01*
X121653300Y-155511500D01*
X121660732Y-155679534D01*
X121668165Y-155847568D01*
X121546432Y-155862797D01*
X121455422Y-155871407D01*
X121334810Y-155878872D01*
X121194543Y-155885005D01*
X121044569Y-155889617D01*
X120894834Y-155892520D01*
X120755286Y-155893524D01*
X120635871Y-155892442D01*
X120546537Y-155889084D01*
X120497231Y-155883263D01*
X120495404Y-155882715D01*
X120371573Y-155821419D01*
X120287229Y-155730673D01*
X120256577Y-155668161D01*
X120245181Y-155631992D01*
X120236257Y-155586173D01*
X120229601Y-155524965D01*
X120225007Y-155442628D01*
X120222270Y-155333422D01*
X120221183Y-155191606D01*
X120221541Y-155011441D01*
X120223139Y-154787187D01*
X120223513Y-154744938D01*
X120225720Y-154506964D01*
X120228406Y-154314286D01*
X120232782Y-154161408D01*
X120240059Y-154042831D01*
X120251450Y-153953058D01*
X120268166Y-153886590D01*
X120291419Y-153837931D01*
X120322420Y-153801581D01*
X120362382Y-153772044D01*
X120412515Y-153743822D01*
X120448286Y-153725072D01*
X120490959Y-153703772D01*
X120531100Y-153688648D01*
X120577582Y-153679006D01*
X120639276Y-153674150D01*
X120725054Y-153673383D01*
X120843788Y-153676012D01*
G36*
X120067694Y-158791122D02*
G01*
X120101329Y-158825723D01*
X120114200Y-158891377D01*
X120116211Y-158970172D01*
X120114129Y-159073483D01*
X120100541Y-159136161D01*
X120065561Y-159168344D01*
X119999301Y-159180174D01*
X119909885Y-159181800D01*
X119804177Y-159177981D01*
X119742810Y-159165803D01*
X119720795Y-159147374D01*
X119715021Y-159105162D01*
X119713207Y-159029728D01*
X119715242Y-158950524D01*
X119722900Y-158788100D01*
X119898426Y-158780496D01*
X120003368Y-158778927D01*
X120067694Y-158791122D01*
G37*
X120067694Y-158791122D02*
X120101329Y-158825723D01*
X120114200Y-158891377D01*
X120116211Y-158970172D01*
X120114129Y-159073483D01*
X120100541Y-159136161D01*
X120065561Y-159168344D01*
X119999301Y-159180174D01*
X119909885Y-159181800D01*
X119804177Y-159177981D01*
X119742810Y-159165803D01*
X119720795Y-159147374D01*
X119715021Y-159105162D01*
X119713207Y-159029728D01*
X119715242Y-158950524D01*
X119722900Y-158788100D01*
X119898426Y-158780496D01*
X120003368Y-158778927D01*
X120067694Y-158791122D01*
G36*
X121488200Y-158826200D02*
G01*
X121920000Y-158826200D01*
X121920000Y-159181800D01*
X120624600Y-159181800D01*
X120624600Y-158826200D01*
X121056400Y-158826200D01*
X121056400Y-158102300D01*
X121056186Y-157916469D01*
X121055583Y-157748321D01*
X121054646Y-157604221D01*
X121053431Y-157490533D01*
X121051994Y-157413621D01*
X121050391Y-157379852D01*
X121050050Y-157378835D01*
X121024294Y-157385004D01*
X120961754Y-157400963D01*
X120874767Y-157423555D01*
X120853200Y-157429200D01*
X120760315Y-157452993D01*
X120686978Y-157470753D01*
X120646602Y-157479257D01*
X120643650Y-157479564D01*
X120633157Y-157456863D01*
X120626238Y-157397914D01*
X120624600Y-157342208D01*
X120624600Y-157204417D01*
X120849864Y-157075508D01*
X120953683Y-157017098D01*
X121029306Y-156979680D01*
X121092377Y-156958584D01*
X121158540Y-156949140D01*
X121243440Y-156946677D01*
X121281664Y-156946600D01*
X121488200Y-156946600D01*
X121488200Y-158826200D01*
G37*
X121488200Y-158826200D02*
X121920000Y-158826200D01*
X121920000Y-159181800D01*
X120624600Y-159181800D01*
X120624600Y-158826200D01*
X121056400Y-158826200D01*
X121056400Y-158102300D01*
X121056186Y-157916469D01*
X121055583Y-157748321D01*
X121054646Y-157604221D01*
X121053431Y-157490533D01*
X121051994Y-157413621D01*
X121050391Y-157379852D01*
X121050050Y-157378835D01*
X121024294Y-157385004D01*
X120961754Y-157400963D01*
X120874767Y-157423555D01*
X120853200Y-157429200D01*
X120760315Y-157452993D01*
X120686978Y-157470753D01*
X120646602Y-157479257D01*
X120643650Y-157479564D01*
X120633157Y-157456863D01*
X120626238Y-157397914D01*
X120624600Y-157342208D01*
X120624600Y-157204417D01*
X120849864Y-157075508D01*
X120953683Y-157017098D01*
X121029306Y-156979680D01*
X121092377Y-156958584D01*
X121158540Y-156949140D01*
X121243440Y-156946677D01*
X121281664Y-156946600D01*
X121488200Y-156946600D01*
X121488200Y-158826200D01*
G36*
X124872750Y-153674604D02*
G01*
X125058104Y-153677551D01*
X125200148Y-153680873D01*
X125306369Y-153685296D01*
X125384253Y-153691544D01*
X125441289Y-153700341D01*
X125484965Y-153712413D01*
X125522768Y-153728484D01*
X125544378Y-153739615D01*
X125674715Y-153836043D01*
X125766021Y-153963799D01*
X125816999Y-154120199D01*
X125826350Y-154302559D01*
X125825100Y-154320209D01*
X125796229Y-154479495D01*
X125736233Y-154602757D01*
X125641824Y-154696466D01*
X125629620Y-154704963D01*
X125584881Y-154740547D01*
X125576606Y-154760279D01*
X125584594Y-154762200D01*
X125643804Y-154783304D01*
X125711049Y-154838209D01*
X125773713Y-154914303D01*
X125817691Y-154995186D01*
X125846136Y-155106393D01*
X125858616Y-155244759D01*
X125854532Y-155389020D01*
X125833283Y-155517915D01*
X125832519Y-155520785D01*
X125770401Y-155656523D01*
X125665735Y-155771329D01*
X125568054Y-155836463D01*
X125531071Y-155854657D01*
X125492043Y-155868600D01*
X125443616Y-155878984D01*
X125378432Y-155886500D01*
X125289136Y-155891838D01*
X125168372Y-155895690D01*
X125008784Y-155898745D01*
X124885450Y-155900566D01*
X124307600Y-155908633D01*
X124307600Y-155524200D01*
X124739400Y-155524200D01*
X125027072Y-155524200D01*
X125152898Y-155523502D01*
X125238492Y-155520182D01*
X125294417Y-155512403D01*
X125331237Y-155498325D01*
X125359512Y-155476111D01*
X125370978Y-155464342D01*
X125424330Y-155373937D01*
X125447342Y-155260441D01*
X125440364Y-155141244D01*
X125403745Y-155033739D01*
X125361171Y-154975262D01*
X125330996Y-154948563D01*
X125297114Y-154931093D01*
X125248616Y-154920911D01*
X125174589Y-154916077D01*
X125064124Y-154914652D01*
X125019954Y-154914600D01*
X124739400Y-154914600D01*
X124739400Y-155524200D01*
X124307600Y-155524200D01*
X124307600Y-154559000D01*
X124739400Y-154559000D01*
X125002674Y-154559000D01*
X125126292Y-154557681D01*
X125210798Y-154552503D01*
X125267836Y-154541628D01*
X125309055Y-154523221D01*
X125331930Y-154507099D01*
X125385523Y-154441921D01*
X125414071Y-154369054D01*
X125416644Y-154277763D01*
X125396514Y-154185287D01*
X125359462Y-154110257D01*
X125323235Y-154076205D01*
X125279030Y-154065698D01*
X125197085Y-154057338D01*
X125090451Y-154052165D01*
X125007769Y-154051000D01*
X124739400Y-154051000D01*
X124739400Y-154559000D01*
X124307600Y-154559000D01*
X124307600Y-153666508D01*
X124872750Y-153674604D01*
G37*
X124872750Y-153674604D02*
X125058104Y-153677551D01*
X125200148Y-153680873D01*
X125306369Y-153685296D01*
X125384253Y-153691544D01*
X125441289Y-153700341D01*
X125484965Y-153712413D01*
X125522768Y-153728484D01*
X125544378Y-153739615D01*
X125674715Y-153836043D01*
X125766021Y-153963799D01*
X125816999Y-154120199D01*
X125826350Y-154302559D01*
X125825100Y-154320209D01*
X125796229Y-154479495D01*
X125736233Y-154602757D01*
X125641824Y-154696466D01*
X125629620Y-154704963D01*
X125584881Y-154740547D01*
X125576606Y-154760279D01*
X125584594Y-154762200D01*
X125643804Y-154783304D01*
X125711049Y-154838209D01*
X125773713Y-154914303D01*
X125817691Y-154995186D01*
X125846136Y-155106393D01*
X125858616Y-155244759D01*
X125854532Y-155389020D01*
X125833283Y-155517915D01*
X125832519Y-155520785D01*
X125770401Y-155656523D01*
X125665735Y-155771329D01*
X125568054Y-155836463D01*
X125531071Y-155854657D01*
X125492043Y-155868600D01*
X125443616Y-155878984D01*
X125378432Y-155886500D01*
X125289136Y-155891838D01*
X125168372Y-155895690D01*
X125008784Y-155898745D01*
X124885450Y-155900566D01*
X124307600Y-155908633D01*
X124307600Y-155524200D01*
X124739400Y-155524200D01*
X125027072Y-155524200D01*
X125152898Y-155523502D01*
X125238492Y-155520182D01*
X125294417Y-155512403D01*
X125331237Y-155498325D01*
X125359512Y-155476111D01*
X125370978Y-155464342D01*
X125424330Y-155373937D01*
X125447342Y-155260441D01*
X125440364Y-155141244D01*
X125403745Y-155033739D01*
X125361171Y-154975262D01*
X125330996Y-154948563D01*
X125297114Y-154931093D01*
X125248616Y-154920911D01*
X125174589Y-154916077D01*
X125064124Y-154914652D01*
X125019954Y-154914600D01*
X124739400Y-154914600D01*
X124739400Y-155524200D01*
X124307600Y-155524200D01*
X124307600Y-154559000D01*
X124739400Y-154559000D01*
X125002674Y-154559000D01*
X125126292Y-154557681D01*
X125210798Y-154552503D01*
X125267836Y-154541628D01*
X125309055Y-154523221D01*
X125331930Y-154507099D01*
X125385523Y-154441921D01*
X125414071Y-154369054D01*
X125416644Y-154277763D01*
X125396514Y-154185287D01*
X125359462Y-154110257D01*
X125323235Y-154076205D01*
X125279030Y-154065698D01*
X125197085Y-154057338D01*
X125090451Y-154052165D01*
X125007769Y-154051000D01*
X124739400Y-154051000D01*
X124739400Y-154559000D01*
X124307600Y-154559000D01*
X124307600Y-153666508D01*
X124872750Y-153674604D01*
G36*
X121847797Y-154862814D02*
G01*
X121874210Y-154670696D01*
X121921159Y-154522239D01*
X121991816Y-154413362D01*
X122089355Y-154339986D01*
X122216948Y-154298031D01*
X122295289Y-154287359D01*
X122420544Y-154288296D01*
X122566357Y-154306986D01*
X122707437Y-154339311D01*
X122789950Y-154367895D01*
X122806320Y-154371526D01*
X122818104Y-154361960D01*
X122826048Y-154332421D01*
X122830899Y-154276138D01*
X122833405Y-154186338D01*
X122834312Y-154056247D01*
X122834400Y-153964817D01*
X122834400Y-153543000D01*
X123240800Y-153543000D01*
X123240800Y-155879800D01*
X123065484Y-155879800D01*
X122972857Y-155878697D01*
X122918173Y-155872270D01*
X122888582Y-155855843D01*
X122871231Y-155824738D01*
X122864698Y-155806734D01*
X122839227Y-155733668D01*
X122681904Y-155811644D01*
X122501023Y-155880833D01*
X122334616Y-155902175D01*
X122183579Y-155875609D01*
X122123200Y-155849242D01*
X122013000Y-155762891D01*
X121929408Y-155633729D01*
X121872580Y-155462315D01*
X121842673Y-155249208D01*
X121841633Y-155155821D01*
X122253967Y-155155821D01*
X122269329Y-155305330D01*
X122299704Y-155421979D01*
X122343680Y-155498602D01*
X122359927Y-155513161D01*
X122430931Y-155538380D01*
X122531831Y-155540574D01*
X122647736Y-155520685D01*
X122742641Y-155488931D01*
X122834400Y-155450592D01*
X122834400Y-154664243D01*
X122701050Y-154634763D01*
X122548778Y-154610274D01*
X122434343Y-154615873D01*
X122352666Y-154655496D01*
X122298667Y-154733083D01*
X122267269Y-154852571D01*
X122255029Y-154980615D01*
X122253967Y-155155821D01*
X121841633Y-155155821D01*
X121839841Y-154994966D01*
X121847797Y-154862814D01*
G37*
X121847797Y-154862814D02*
X121874210Y-154670696D01*
X121921159Y-154522239D01*
X121991816Y-154413362D01*
X122089355Y-154339986D01*
X122216948Y-154298031D01*
X122295289Y-154287359D01*
X122420544Y-154288296D01*
X122566357Y-154306986D01*
X122707437Y-154339311D01*
X122789950Y-154367895D01*
X122806320Y-154371526D01*
X122818104Y-154361960D01*
X122826048Y-154332421D01*
X122830899Y-154276138D01*
X122833405Y-154186338D01*
X122834312Y-154056247D01*
X122834400Y-153964817D01*
X122834400Y-153543000D01*
X123240800Y-153543000D01*
X123240800Y-155879800D01*
X123065484Y-155879800D01*
X122972857Y-155878697D01*
X122918173Y-155872270D01*
X122888582Y-155855843D01*
X122871231Y-155824738D01*
X122864698Y-155806734D01*
X122839227Y-155733668D01*
X122681904Y-155811644D01*
X122501023Y-155880833D01*
X122334616Y-155902175D01*
X122183579Y-155875609D01*
X122123200Y-155849242D01*
X122013000Y-155762891D01*
X121929408Y-155633729D01*
X121872580Y-155462315D01*
X121842673Y-155249208D01*
X121841633Y-155155821D01*
X122253967Y-155155821D01*
X122269329Y-155305330D01*
X122299704Y-155421979D01*
X122343680Y-155498602D01*
X122359927Y-155513161D01*
X122430931Y-155538380D01*
X122531831Y-155540574D01*
X122647736Y-155520685D01*
X122742641Y-155488931D01*
X122834400Y-155450592D01*
X122834400Y-154664243D01*
X122701050Y-154634763D01*
X122548778Y-154610274D01*
X122434343Y-154615873D01*
X122352666Y-154655496D01*
X122298667Y-154733083D01*
X122267269Y-154852571D01*
X122255029Y-154980615D01*
X122253967Y-155155821D01*
X121841633Y-155155821D01*
X121839841Y-154994966D01*
X121847797Y-154862814D01*
G36*
X113928646Y-154363518D02*
G01*
X113931839Y-154239942D01*
X113936233Y-154147566D01*
X113942408Y-154079857D01*
X113950944Y-154030283D01*
X113962424Y-153992311D01*
X113977428Y-153959410D01*
X113994927Y-153927859D01*
X114078924Y-153822170D01*
X114172727Y-153750059D01*
X114219323Y-153724261D01*
X114263798Y-153705780D01*
X114315974Y-153693151D01*
X114385675Y-153684910D01*
X114482723Y-153679595D01*
X114616942Y-153675742D01*
X114681000Y-153674329D01*
X114876861Y-153672887D01*
X115030002Y-153679300D01*
X115148174Y-153695661D01*
X115239129Y-153724063D01*
X115310618Y-153766599D01*
X115370392Y-153825360D01*
X115404021Y-153869507D01*
X115481100Y-153979176D01*
X115481100Y-155591409D01*
X115413516Y-155693535D01*
X115363301Y-155760847D01*
X115308545Y-155811399D01*
X115241173Y-155847665D01*
X115153111Y-155872121D01*
X115036285Y-155887242D01*
X114882619Y-155895502D01*
X114744500Y-155898593D01*
X114566371Y-155899680D01*
X114431647Y-155896589D01*
X114333073Y-155888894D01*
X114263390Y-155876167D01*
X114239986Y-155868852D01*
X114107952Y-155795630D01*
X114010867Y-155685744D01*
X113954351Y-155556605D01*
X113942256Y-155505933D01*
X113933132Y-155443561D01*
X113926736Y-155362963D01*
X113922824Y-155257616D01*
X113921154Y-155120996D01*
X113921481Y-154946578D01*
X113923533Y-154730399D01*
X113924702Y-154635667D01*
X114350668Y-154635667D01*
X114350800Y-154779383D01*
X114351996Y-154987465D01*
X114355478Y-155159994D01*
X114361087Y-155293146D01*
X114368662Y-155383100D01*
X114377860Y-155425702D01*
X114412162Y-155469341D01*
X114465385Y-155497919D01*
X114546315Y-155513605D01*
X114663738Y-155518562D01*
X114749984Y-155517427D01*
X114869734Y-155512283D01*
X114949546Y-155502787D01*
X115000224Y-155486953D01*
X115029384Y-155466123D01*
X115043491Y-155448064D01*
X115054351Y-155421502D01*
X115062380Y-155380182D01*
X115067996Y-155317848D01*
X115071617Y-155228246D01*
X115073661Y-155105120D01*
X115074546Y-154942217D01*
X115074700Y-154787565D01*
X115075030Y-154576724D01*
X115074218Y-154411203D01*
X115069560Y-154285543D01*
X115058351Y-154194288D01*
X115037886Y-154131982D01*
X115005461Y-154093166D01*
X114958371Y-154072385D01*
X114893912Y-154064181D01*
X114809380Y-154063097D01*
X114715948Y-154063700D01*
X114609159Y-154063422D01*
X114525474Y-154066259D01*
X114462083Y-154077715D01*
X114416178Y-154103294D01*
X114384952Y-154148499D01*
X114365597Y-154218835D01*
X114355303Y-154319805D01*
X114351263Y-154456915D01*
X114350668Y-154635667D01*
X113924702Y-154635667D01*
X113926070Y-154524826D01*
X113928646Y-154363518D01*
G37*
X113928646Y-154363518D02*
X113931839Y-154239942D01*
X113936233Y-154147566D01*
X113942408Y-154079857D01*
X113950944Y-154030283D01*
X113962424Y-153992311D01*
X113977428Y-153959410D01*
X113994927Y-153927859D01*
X114078924Y-153822170D01*
X114172727Y-153750059D01*
X114219323Y-153724261D01*
X114263798Y-153705780D01*
X114315974Y-153693151D01*
X114385675Y-153684910D01*
X114482723Y-153679595D01*
X114616942Y-153675742D01*
X114681000Y-153674329D01*
X114876861Y-153672887D01*
X115030002Y-153679300D01*
X115148174Y-153695661D01*
X115239129Y-153724063D01*
X115310618Y-153766599D01*
X115370392Y-153825360D01*
X115404021Y-153869507D01*
X115481100Y-153979176D01*
X115481100Y-155591409D01*
X115413516Y-155693535D01*
X115363301Y-155760847D01*
X115308545Y-155811399D01*
X115241173Y-155847665D01*
X115153111Y-155872121D01*
X115036285Y-155887242D01*
X114882619Y-155895502D01*
X114744500Y-155898593D01*
X114566371Y-155899680D01*
X114431647Y-155896589D01*
X114333073Y-155888894D01*
X114263390Y-155876167D01*
X114239986Y-155868852D01*
X114107952Y-155795630D01*
X114010867Y-155685744D01*
X113954351Y-155556605D01*
X113942256Y-155505933D01*
X113933132Y-155443561D01*
X113926736Y-155362963D01*
X113922824Y-155257616D01*
X113921154Y-155120996D01*
X113921481Y-154946578D01*
X113923533Y-154730399D01*
X113924702Y-154635667D01*
X114350668Y-154635667D01*
X114350800Y-154779383D01*
X114351996Y-154987465D01*
X114355478Y-155159994D01*
X114361087Y-155293146D01*
X114368662Y-155383100D01*
X114377860Y-155425702D01*
X114412162Y-155469341D01*
X114465385Y-155497919D01*
X114546315Y-155513605D01*
X114663738Y-155518562D01*
X114749984Y-155517427D01*
X114869734Y-155512283D01*
X114949546Y-155502787D01*
X115000224Y-155486953D01*
X115029384Y-155466123D01*
X115043491Y-155448064D01*
X115054351Y-155421502D01*
X115062380Y-155380182D01*
X115067996Y-155317848D01*
X115071617Y-155228246D01*
X115073661Y-155105120D01*
X115074546Y-154942217D01*
X115074700Y-154787565D01*
X115075030Y-154576724D01*
X115074218Y-154411203D01*
X115069560Y-154285543D01*
X115058351Y-154194288D01*
X115037886Y-154131982D01*
X115005461Y-154093166D01*
X114958371Y-154072385D01*
X114893912Y-154064181D01*
X114809380Y-154063097D01*
X114715948Y-154063700D01*
X114609159Y-154063422D01*
X114525474Y-154066259D01*
X114462083Y-154077715D01*
X114416178Y-154103294D01*
X114384952Y-154148499D01*
X114365597Y-154218835D01*
X114355303Y-154319805D01*
X114351263Y-154456915D01*
X114350668Y-154635667D01*
X113924702Y-154635667D01*
X113926070Y-154524826D01*
X113928646Y-154363518D01*
G36*
X112987805Y-153698961D02*
G01*
X113119830Y-153706986D01*
X113218424Y-153720409D01*
X113242953Y-153726447D01*
X113347061Y-153777613D01*
X113451428Y-153862316D01*
X113541212Y-153965588D01*
X113601571Y-154072461D01*
X113609882Y-154096485D01*
X113640011Y-154273386D01*
X113633513Y-154460474D01*
X113591215Y-154634297D01*
X113590875Y-154635200D01*
X113511177Y-154795560D01*
X113390032Y-154969494D01*
X113232731Y-155150672D01*
X113044564Y-155332767D01*
X112916262Y-155442098D01*
X112815225Y-155524200D01*
X113665000Y-155524200D01*
X113665000Y-155905200D01*
X112115600Y-155905200D01*
X112115600Y-155534694D01*
X112325067Y-155383397D01*
X112417938Y-155311053D01*
X112533890Y-155212808D01*
X112660787Y-155099371D01*
X112786492Y-154981451D01*
X112841938Y-154927300D01*
X112967066Y-154800918D01*
X113059549Y-154701487D01*
X113124866Y-154622382D01*
X113168498Y-154556982D01*
X113195349Y-154500206D01*
X113224898Y-154369298D01*
X113209832Y-154256433D01*
X113150969Y-154165694D01*
X113123472Y-154142333D01*
X113094653Y-154123569D01*
X113060665Y-154109565D01*
X113013697Y-154099457D01*
X112945940Y-154092381D01*
X112849582Y-154087473D01*
X112716812Y-154083869D01*
X112571022Y-154081210D01*
X112090200Y-154073320D01*
X112090200Y-153924172D01*
X112090532Y-153853896D01*
X112097215Y-153806426D01*
X112118780Y-153775770D01*
X112163754Y-153755933D01*
X112240668Y-153740924D01*
X112358052Y-153724749D01*
X112377787Y-153722106D01*
X112517340Y-153707906D01*
X112673940Y-153699357D01*
X112834969Y-153696397D01*
X112987805Y-153698961D01*
G37*
X112987805Y-153698961D02*
X113119830Y-153706986D01*
X113218424Y-153720409D01*
X113242953Y-153726447D01*
X113347061Y-153777613D01*
X113451428Y-153862316D01*
X113541212Y-153965588D01*
X113601571Y-154072461D01*
X113609882Y-154096485D01*
X113640011Y-154273386D01*
X113633513Y-154460474D01*
X113591215Y-154634297D01*
X113590875Y-154635200D01*
X113511177Y-154795560D01*
X113390032Y-154969494D01*
X113232731Y-155150672D01*
X113044564Y-155332767D01*
X112916262Y-155442098D01*
X112815225Y-155524200D01*
X113665000Y-155524200D01*
X113665000Y-155905200D01*
X112115600Y-155905200D01*
X112115600Y-155534694D01*
X112325067Y-155383397D01*
X112417938Y-155311053D01*
X112533890Y-155212808D01*
X112660787Y-155099371D01*
X112786492Y-154981451D01*
X112841938Y-154927300D01*
X112967066Y-154800918D01*
X113059549Y-154701487D01*
X113124866Y-154622382D01*
X113168498Y-154556982D01*
X113195349Y-154500206D01*
X113224898Y-154369298D01*
X113209832Y-154256433D01*
X113150969Y-154165694D01*
X113123472Y-154142333D01*
X113094653Y-154123569D01*
X113060665Y-154109565D01*
X113013697Y-154099457D01*
X112945940Y-154092381D01*
X112849582Y-154087473D01*
X112716812Y-154083869D01*
X112571022Y-154081210D01*
X112090200Y-154073320D01*
X112090200Y-153924172D01*
X112090532Y-153853896D01*
X112097215Y-153806426D01*
X112118780Y-153775770D01*
X112163754Y-153755933D01*
X112240668Y-153740924D01*
X112358052Y-153724749D01*
X112377787Y-153722106D01*
X112517340Y-153707906D01*
X112673940Y-153699357D01*
X112834969Y-153696397D01*
X112987805Y-153698961D01*
G36*
X128995264Y-154236440D02*
G01*
X129143975Y-154278271D01*
X129159968Y-154285950D01*
X129244217Y-154340341D01*
X129305283Y-154413802D01*
X129336129Y-154469942D01*
X129355313Y-154510394D01*
X129370262Y-154549503D01*
X129381625Y-154594220D01*
X129390050Y-154651499D01*
X129396185Y-154728291D01*
X129400679Y-154831550D01*
X129404181Y-154968227D01*
X129407340Y-155145276D01*
X129408991Y-155250992D01*
X129419024Y-155905200D01*
X128981200Y-155905200D01*
X128981200Y-154683690D01*
X128915679Y-154618169D01*
X128867266Y-154577507D01*
X128817991Y-154562607D01*
X128744819Y-154567117D01*
X128735198Y-154568406D01*
X128636675Y-154592048D01*
X128538935Y-154630507D01*
X128521319Y-154639758D01*
X128422400Y-154695354D01*
X128422400Y-155905200D01*
X127990600Y-155905200D01*
X127990600Y-154254200D01*
X128165318Y-154254200D01*
X128257842Y-154255322D01*
X128312854Y-154261962D01*
X128343642Y-154279026D01*
X128363489Y-154311423D01*
X128371600Y-154330400D01*
X128401374Y-154386501D01*
X128435654Y-154402507D01*
X128487374Y-154380517D01*
X128524750Y-154355265D01*
X128672938Y-154276324D01*
X128834014Y-154236253D01*
X128995264Y-154236440D01*
G37*
X128995264Y-154236440D02*
X129143975Y-154278271D01*
X129159968Y-154285950D01*
X129244217Y-154340341D01*
X129305283Y-154413802D01*
X129336129Y-154469942D01*
X129355313Y-154510394D01*
X129370262Y-154549503D01*
X129381625Y-154594220D01*
X129390050Y-154651499D01*
X129396185Y-154728291D01*
X129400679Y-154831550D01*
X129404181Y-154968227D01*
X129407340Y-155145276D01*
X129408991Y-155250992D01*
X129419024Y-155905200D01*
X128981200Y-155905200D01*
X128981200Y-154683690D01*
X128915679Y-154618169D01*
X128867266Y-154577507D01*
X128817991Y-154562607D01*
X128744819Y-154567117D01*
X128735198Y-154568406D01*
X128636675Y-154592048D01*
X128538935Y-154630507D01*
X128521319Y-154639758D01*
X128422400Y-154695354D01*
X128422400Y-155905200D01*
X127990600Y-155905200D01*
X127990600Y-154254200D01*
X128165318Y-154254200D01*
X128257842Y-154255322D01*
X128312854Y-154261962D01*
X128343642Y-154279026D01*
X128363489Y-154311423D01*
X128371600Y-154330400D01*
X128401374Y-154386501D01*
X128435654Y-154402507D01*
X128487374Y-154380517D01*
X128524750Y-154355265D01*
X128672938Y-154276324D01*
X128834014Y-154236253D01*
X128995264Y-154236440D01*
G36*
X129620197Y-154862814D02*
G01*
X129646610Y-154670696D01*
X129693559Y-154522239D01*
X129764216Y-154413362D01*
X129861755Y-154339986D01*
X129989348Y-154298031D01*
X130067689Y-154287359D01*
X130192944Y-154288296D01*
X130338757Y-154306986D01*
X130479837Y-154339311D01*
X130562350Y-154367895D01*
X130578720Y-154371526D01*
X130590504Y-154361960D01*
X130598448Y-154332421D01*
X130603299Y-154276138D01*
X130605805Y-154186338D01*
X130606712Y-154056247D01*
X130606800Y-153964817D01*
X130606800Y-153543000D01*
X131013200Y-153543000D01*
X131013200Y-155879800D01*
X130837884Y-155879800D01*
X130745257Y-155878697D01*
X130690573Y-155872270D01*
X130660982Y-155855843D01*
X130643631Y-155824738D01*
X130637098Y-155806734D01*
X130611627Y-155733668D01*
X130454304Y-155811644D01*
X130273423Y-155880833D01*
X130107016Y-155902175D01*
X129955979Y-155875609D01*
X129895600Y-155849242D01*
X129785400Y-155762891D01*
X129701808Y-155633729D01*
X129644980Y-155462315D01*
X129615073Y-155249208D01*
X129614033Y-155155821D01*
X130026367Y-155155821D01*
X130041729Y-155305330D01*
X130072104Y-155421979D01*
X130116080Y-155498602D01*
X130132327Y-155513161D01*
X130203331Y-155538380D01*
X130304231Y-155540574D01*
X130420136Y-155520685D01*
X130515041Y-155488931D01*
X130606800Y-155450592D01*
X130606800Y-154664243D01*
X130473450Y-154634763D01*
X130321178Y-154610274D01*
X130206743Y-154615873D01*
X130125066Y-154655496D01*
X130071067Y-154733083D01*
X130039669Y-154852571D01*
X130027429Y-154980615D01*
X130026367Y-155155821D01*
X129614033Y-155155821D01*
X129612241Y-154994966D01*
X129620197Y-154862814D01*
G37*
X129620197Y-154862814D02*
X129646610Y-154670696D01*
X129693559Y-154522239D01*
X129764216Y-154413362D01*
X129861755Y-154339986D01*
X129989348Y-154298031D01*
X130067689Y-154287359D01*
X130192944Y-154288296D01*
X130338757Y-154306986D01*
X130479837Y-154339311D01*
X130562350Y-154367895D01*
X130578720Y-154371526D01*
X130590504Y-154361960D01*
X130598448Y-154332421D01*
X130603299Y-154276138D01*
X130605805Y-154186338D01*
X130606712Y-154056247D01*
X130606800Y-153964817D01*
X130606800Y-153543000D01*
X131013200Y-153543000D01*
X131013200Y-155879800D01*
X130837884Y-155879800D01*
X130745257Y-155878697D01*
X130690573Y-155872270D01*
X130660982Y-155855843D01*
X130643631Y-155824738D01*
X130637098Y-155806734D01*
X130611627Y-155733668D01*
X130454304Y-155811644D01*
X130273423Y-155880833D01*
X130107016Y-155902175D01*
X129955979Y-155875609D01*
X129895600Y-155849242D01*
X129785400Y-155762891D01*
X129701808Y-155633729D01*
X129644980Y-155462315D01*
X129615073Y-155249208D01*
X129614033Y-155155821D01*
X130026367Y-155155821D01*
X130041729Y-155305330D01*
X130072104Y-155421979D01*
X130116080Y-155498602D01*
X130132327Y-155513161D01*
X130203331Y-155538380D01*
X130304231Y-155540574D01*
X130420136Y-155520685D01*
X130515041Y-155488931D01*
X130606800Y-155450592D01*
X130606800Y-154664243D01*
X130473450Y-154634763D01*
X130321178Y-154610274D01*
X130206743Y-154615873D01*
X130125066Y-154655496D01*
X130071067Y-154733083D01*
X130039669Y-154852571D01*
X130027429Y-154980615D01*
X130026367Y-155155821D01*
X129614033Y-155155821D01*
X129612241Y-154994966D01*
X129620197Y-154862814D01*
G36*
X127533958Y-153675120D02*
G01*
X127723900Y-153682700D01*
X127723900Y-154063700D01*
X127517567Y-154071025D01*
X127415368Y-154073780D01*
X127352837Y-154071430D01*
X127318907Y-154061441D01*
X127302510Y-154041280D01*
X127295664Y-154020225D01*
X127281822Y-153931235D01*
X127281723Y-153835247D01*
X127294302Y-153752776D01*
X127311708Y-153711725D01*
X127337662Y-153688609D01*
X127380867Y-153676373D01*
X127453433Y-153673021D01*
X127533958Y-153675120D01*
G37*
X127533958Y-153675120D02*
X127723900Y-153682700D01*
X127723900Y-154063700D01*
X127517567Y-154071025D01*
X127415368Y-154073780D01*
X127352837Y-154071430D01*
X127318907Y-154061441D01*
X127302510Y-154041280D01*
X127295664Y-154020225D01*
X127281822Y-153931235D01*
X127281723Y-153835247D01*
X127294302Y-153752776D01*
X127311708Y-153711725D01*
X127337662Y-153688609D01*
X127380867Y-153676373D01*
X127453433Y-153673021D01*
X127533958Y-153675120D01*
G36*
X132178550Y-154703660D02*
G01*
X132210714Y-154569756D01*
X132226776Y-154527698D01*
X132291918Y-154421996D01*
X132384191Y-154343759D01*
X132508095Y-154291305D01*
X132668132Y-154262951D01*
X132868805Y-154257017D01*
X132944389Y-154259677D01*
X133110821Y-154273648D01*
X133235841Y-154299830D01*
X133328147Y-154342082D01*
X133396436Y-154404261D01*
X133445250Y-154481831D01*
X133482956Y-154593663D01*
X133502032Y-154730175D01*
X133501940Y-154871570D01*
X133482143Y-154998050D01*
X133460874Y-155057930D01*
X133424806Y-155119697D01*
X133378407Y-155165400D01*
X133313784Y-155197647D01*
X133223045Y-155219047D01*
X133098296Y-155232209D01*
X132931645Y-155239742D01*
X132908841Y-155240381D01*
X132556582Y-155249807D01*
X132570374Y-155352631D01*
X132592617Y-155433180D01*
X132629772Y-155499940D01*
X132637776Y-155508877D01*
X132661405Y-155529242D01*
X132690401Y-155543570D01*
X132733303Y-155552831D01*
X132798646Y-155557995D01*
X132894968Y-155560030D01*
X133030805Y-155559906D01*
X133084193Y-155559568D01*
X133477000Y-155556836D01*
X133477000Y-155691206D01*
X133476163Y-155757473D01*
X133467734Y-155801698D01*
X133442836Y-155830123D01*
X133392591Y-155848989D01*
X133308122Y-155864540D01*
X133210300Y-155878737D01*
X133069139Y-155893746D01*
X132915564Y-155901505D01*
X132762786Y-155902187D01*
X132624018Y-155895963D01*
X132512472Y-155883005D01*
X132454409Y-155868895D01*
X132366337Y-155831490D01*
X132306980Y-155785849D01*
X132259025Y-155716007D01*
X132232613Y-155664340D01*
X132194530Y-155551247D01*
X132167986Y-155401815D01*
X132153049Y-155229192D01*
X132149785Y-155046526D01*
X132154814Y-154940000D01*
X132556136Y-154940000D01*
X132786154Y-154940000D01*
X132907419Y-154937593D01*
X132987765Y-154929416D01*
X133036888Y-154914036D01*
X133056085Y-154900085D01*
X133087922Y-154837070D01*
X133093442Y-154752810D01*
X133072612Y-154669533D01*
X133056459Y-154640851D01*
X133028208Y-154610125D01*
X132988389Y-154592980D01*
X132922951Y-154585675D01*
X132844496Y-154584400D01*
X132725710Y-154591696D01*
X132647199Y-154618584D01*
X132599895Y-154672560D01*
X132574734Y-154761121D01*
X132568364Y-154812742D01*
X132556136Y-154940000D01*
X132154814Y-154940000D01*
X132158263Y-154866966D01*
X132178550Y-154703660D01*
G37*
X132178550Y-154703660D02*
X132210714Y-154569756D01*
X132226776Y-154527698D01*
X132291918Y-154421996D01*
X132384191Y-154343759D01*
X132508095Y-154291305D01*
X132668132Y-154262951D01*
X132868805Y-154257017D01*
X132944389Y-154259677D01*
X133110821Y-154273648D01*
X133235841Y-154299830D01*
X133328147Y-154342082D01*
X133396436Y-154404261D01*
X133445250Y-154481831D01*
X133482956Y-154593663D01*
X133502032Y-154730175D01*
X133501940Y-154871570D01*
X133482143Y-154998050D01*
X133460874Y-155057930D01*
X133424806Y-155119697D01*
X133378407Y-155165400D01*
X133313784Y-155197647D01*
X133223045Y-155219047D01*
X133098296Y-155232209D01*
X132931645Y-155239742D01*
X132908841Y-155240381D01*
X132556582Y-155249807D01*
X132570374Y-155352631D01*
X132592617Y-155433180D01*
X132629772Y-155499940D01*
X132637776Y-155508877D01*
X132661405Y-155529242D01*
X132690401Y-155543570D01*
X132733303Y-155552831D01*
X132798646Y-155557995D01*
X132894968Y-155560030D01*
X133030805Y-155559906D01*
X133084193Y-155559568D01*
X133477000Y-155556836D01*
X133477000Y-155691206D01*
X133476163Y-155757473D01*
X133467734Y-155801698D01*
X133442836Y-155830123D01*
X133392591Y-155848989D01*
X133308122Y-155864540D01*
X133210300Y-155878737D01*
X133069139Y-155893746D01*
X132915564Y-155901505D01*
X132762786Y-155902187D01*
X132624018Y-155895963D01*
X132512472Y-155883005D01*
X132454409Y-155868895D01*
X132366337Y-155831490D01*
X132306980Y-155785849D01*
X132259025Y-155716007D01*
X132232613Y-155664340D01*
X132194530Y-155551247D01*
X132167986Y-155401815D01*
X132153049Y-155229192D01*
X132149785Y-155046526D01*
X132154814Y-154940000D01*
X132556136Y-154940000D01*
X132786154Y-154940000D01*
X132907419Y-154937593D01*
X132987765Y-154929416D01*
X133036888Y-154914036D01*
X133056085Y-154900085D01*
X133087922Y-154837070D01*
X133093442Y-154752810D01*
X133072612Y-154669533D01*
X133056459Y-154640851D01*
X133028208Y-154610125D01*
X132988389Y-154592980D01*
X132922951Y-154585675D01*
X132844496Y-154584400D01*
X132725710Y-154591696D01*
X132647199Y-154618584D01*
X132599895Y-154672560D01*
X132574734Y-154761121D01*
X132568364Y-154812742D01*
X132556136Y-154940000D01*
X132154814Y-154940000D01*
X132158263Y-154866966D01*
X132178550Y-154703660D01*
G36*
X135225024Y-154258251D02*
G01*
X135229358Y-154259561D01*
X135223041Y-154284869D01*
X135205084Y-154354208D01*
X135176820Y-154462490D01*
X135139582Y-154604632D01*
X135094705Y-154775547D01*
X135043520Y-154970149D01*
X134987362Y-155183354D01*
X134953268Y-155312657D01*
X134886123Y-155566906D01*
X134830262Y-155777000D01*
X134784065Y-155947918D01*
X134745915Y-156084639D01*
X134714191Y-156192142D01*
X134687274Y-156275406D01*
X134663546Y-156339410D01*
X134641388Y-156389132D01*
X134619180Y-156429553D01*
X134595303Y-156465651D01*
X134568138Y-156502405D01*
X134565065Y-156506457D01*
X134505053Y-156583098D01*
X134460511Y-156627976D01*
X134416983Y-156650376D01*
X134360011Y-156659584D01*
X134322726Y-156662098D01*
X134246618Y-156662791D01*
X134194041Y-156656255D01*
X134180732Y-156649398D01*
X134183115Y-156619166D01*
X134197518Y-156548935D01*
X134221872Y-156447516D01*
X134254110Y-156323717D01*
X134275991Y-156243740D01*
X134383259Y-155858380D01*
X134275190Y-155831168D01*
X134153694Y-155780344D01*
X134046673Y-155698870D01*
X133973394Y-155602516D01*
X133957198Y-155559306D01*
X133930672Y-155474630D01*
X133896050Y-155356243D01*
X133855566Y-155211901D01*
X133811455Y-155049360D01*
X133782201Y-154938792D01*
X133738044Y-154770375D01*
X133697641Y-154616633D01*
X133662940Y-154484942D01*
X133635886Y-154382684D01*
X133618427Y-154317237D01*
X133613059Y-154297631D01*
X133610951Y-154276016D01*
X133626003Y-154263178D01*
X133667279Y-154257475D01*
X133743844Y-154257269D01*
X133823701Y-154259531D01*
X134047473Y-154266900D01*
X134180200Y-154813000D01*
X134228515Y-155010717D01*
X134267131Y-155164507D01*
X134298068Y-155279871D01*
X134323345Y-155362310D01*
X134344982Y-155417328D01*
X134364998Y-155450426D01*
X134385413Y-155467106D01*
X134408246Y-155472870D01*
X134422605Y-155473381D01*
X134441287Y-155470632D01*
X134458180Y-155458593D01*
X134475293Y-155431555D01*
X134494635Y-155383808D01*
X134518213Y-155309644D01*
X134548035Y-155203352D01*
X134586111Y-155059225D01*
X134634449Y-154871552D01*
X134634813Y-154870131D01*
X134789326Y-154266900D01*
X135009463Y-154259561D01*
X135108009Y-154257056D01*
X135183702Y-154256620D01*
X135225024Y-154258251D01*
G37*
X135225024Y-154258251D02*
X135229358Y-154259561D01*
X135223041Y-154284869D01*
X135205084Y-154354208D01*
X135176820Y-154462490D01*
X135139582Y-154604632D01*
X135094705Y-154775547D01*
X135043520Y-154970149D01*
X134987362Y-155183354D01*
X134953268Y-155312657D01*
X134886123Y-155566906D01*
X134830262Y-155777000D01*
X134784065Y-155947918D01*
X134745915Y-156084639D01*
X134714191Y-156192142D01*
X134687274Y-156275406D01*
X134663546Y-156339410D01*
X134641388Y-156389132D01*
X134619180Y-156429553D01*
X134595303Y-156465651D01*
X134568138Y-156502405D01*
X134565065Y-156506457D01*
X134505053Y-156583098D01*
X134460511Y-156627976D01*
X134416983Y-156650376D01*
X134360011Y-156659584D01*
X134322726Y-156662098D01*
X134246618Y-156662791D01*
X134194041Y-156656255D01*
X134180732Y-156649398D01*
X134183115Y-156619166D01*
X134197518Y-156548935D01*
X134221872Y-156447516D01*
X134254110Y-156323717D01*
X134275991Y-156243740D01*
X134383259Y-155858380D01*
X134275190Y-155831168D01*
X134153694Y-155780344D01*
X134046673Y-155698870D01*
X133973394Y-155602516D01*
X133957198Y-155559306D01*
X133930672Y-155474630D01*
X133896050Y-155356243D01*
X133855566Y-155211901D01*
X133811455Y-155049360D01*
X133782201Y-154938792D01*
X133738044Y-154770375D01*
X133697641Y-154616633D01*
X133662940Y-154484942D01*
X133635886Y-154382684D01*
X133618427Y-154317237D01*
X133613059Y-154297631D01*
X133610951Y-154276016D01*
X133626003Y-154263178D01*
X133667279Y-154257475D01*
X133743844Y-154257269D01*
X133823701Y-154259531D01*
X134047473Y-154266900D01*
X134180200Y-154813000D01*
X134228515Y-155010717D01*
X134267131Y-155164507D01*
X134298068Y-155279871D01*
X134323345Y-155362310D01*
X134344982Y-155417328D01*
X134364998Y-155450426D01*
X134385413Y-155467106D01*
X134408246Y-155472870D01*
X134422605Y-155473381D01*
X134441287Y-155470632D01*
X134458180Y-155458593D01*
X134475293Y-155431555D01*
X134494635Y-155383808D01*
X134518213Y-155309644D01*
X134548035Y-155203352D01*
X134586111Y-155059225D01*
X134634449Y-154871552D01*
X134634813Y-154870131D01*
X134789326Y-154266900D01*
X135009463Y-154259561D01*
X135108009Y-154257056D01*
X135183702Y-154256620D01*
X135225024Y-154258251D01*
G36*
X112706150Y-156950910D02*
G01*
X112910427Y-156954286D01*
X113070883Y-156958982D01*
X113194494Y-156966602D01*
X113288236Y-156978749D01*
X113359088Y-156997028D01*
X113414025Y-157023044D01*
X113460025Y-157058399D01*
X113504064Y-157104699D01*
X113534991Y-157141480D01*
X113600551Y-157247216D01*
X113642181Y-157379717D01*
X113661322Y-157545827D01*
X113660196Y-157736566D01*
X113650239Y-157873373D01*
X113633420Y-157974310D01*
X113606863Y-158054150D01*
X113592477Y-158084246D01*
X113523139Y-158180029D01*
X113430163Y-158259667D01*
X113351681Y-158299772D01*
X113346243Y-158308740D01*
X113350085Y-158332630D01*
X113365310Y-158376429D01*
X113394020Y-158445124D01*
X113438317Y-158543703D01*
X113500303Y-158677154D01*
X113582082Y-158850462D01*
X113597678Y-158883350D01*
X113739283Y-159181800D01*
X113266416Y-159181800D01*
X113093412Y-158775193D01*
X113035304Y-158641028D01*
X112982236Y-158522969D01*
X112938000Y-158429105D01*
X112906388Y-158367527D01*
X112892653Y-158346880D01*
X112854074Y-158333064D01*
X112781720Y-158319000D01*
X112706150Y-158309376D01*
X112547400Y-158293578D01*
X112547400Y-159181800D01*
X112115600Y-159181800D01*
X112115600Y-157962600D01*
X112547400Y-157962600D01*
X112839500Y-157962600D01*
X112969122Y-157961568D01*
X113058030Y-157957527D01*
X113116285Y-157949052D01*
X113153946Y-157934720D01*
X113179713Y-157914486D01*
X113223044Y-157841027D01*
X113247543Y-157737386D01*
X113253182Y-157620452D01*
X113239936Y-157507115D01*
X113207777Y-157414262D01*
X113180569Y-157376569D01*
X113153092Y-157355054D01*
X113115227Y-157340853D01*
X113056852Y-157332512D01*
X112967849Y-157328579D01*
X112839500Y-157327600D01*
X112547400Y-157327600D01*
X112547400Y-157962600D01*
X112115600Y-157962600D01*
X112115600Y-156942507D01*
X112706150Y-156950910D01*
G37*
X112706150Y-156950910D02*
X112910427Y-156954286D01*
X113070883Y-156958982D01*
X113194494Y-156966602D01*
X113288236Y-156978749D01*
X113359088Y-156997028D01*
X113414025Y-157023044D01*
X113460025Y-157058399D01*
X113504064Y-157104699D01*
X113534991Y-157141480D01*
X113600551Y-157247216D01*
X113642181Y-157379717D01*
X113661322Y-157545827D01*
X113660196Y-157736566D01*
X113650239Y-157873373D01*
X113633420Y-157974310D01*
X113606863Y-158054150D01*
X113592477Y-158084246D01*
X113523139Y-158180029D01*
X113430163Y-158259667D01*
X113351681Y-158299772D01*
X113346243Y-158308740D01*
X113350085Y-158332630D01*
X113365310Y-158376429D01*
X113394020Y-158445124D01*
X113438317Y-158543703D01*
X113500303Y-158677154D01*
X113582082Y-158850462D01*
X113597678Y-158883350D01*
X113739283Y-159181800D01*
X113266416Y-159181800D01*
X113093412Y-158775193D01*
X113035304Y-158641028D01*
X112982236Y-158522969D01*
X112938000Y-158429105D01*
X112906388Y-158367527D01*
X112892653Y-158346880D01*
X112854074Y-158333064D01*
X112781720Y-158319000D01*
X112706150Y-158309376D01*
X112547400Y-158293578D01*
X112547400Y-159181800D01*
X112115600Y-159181800D01*
X112115600Y-157962600D01*
X112547400Y-157962600D01*
X112839500Y-157962600D01*
X112969122Y-157961568D01*
X113058030Y-157957527D01*
X113116285Y-157949052D01*
X113153946Y-157934720D01*
X113179713Y-157914486D01*
X113223044Y-157841027D01*
X113247543Y-157737386D01*
X113253182Y-157620452D01*
X113239936Y-157507115D01*
X113207777Y-157414262D01*
X113180569Y-157376569D01*
X113153092Y-157355054D01*
X113115227Y-157340853D01*
X113056852Y-157332512D01*
X112967849Y-157328579D01*
X112839500Y-157327600D01*
X112547400Y-157327600D01*
X112547400Y-157962600D01*
X112115600Y-157962600D01*
X112115600Y-156942507D01*
X112706150Y-156950910D01*
G36*
X118628822Y-156977555D02*
G01*
X118777367Y-156982620D01*
X118924376Y-156990329D01*
X119056815Y-157000226D01*
X119161648Y-157011854D01*
X119170450Y-157013146D01*
X119278400Y-157029488D01*
X119278400Y-157353000D01*
X118869571Y-157353000D01*
X118714326Y-157353525D01*
X118601149Y-157355732D01*
X118521311Y-157360563D01*
X118466085Y-157368961D01*
X118426744Y-157381870D01*
X118394561Y-157400234D01*
X118387567Y-157405104D01*
X118328982Y-157471814D01*
X118280567Y-157573671D01*
X118248024Y-157695223D01*
X118237000Y-157813213D01*
X118237000Y-157908606D01*
X118332250Y-157891153D01*
X118393932Y-157884503D01*
X118493140Y-157879020D01*
X118616605Y-157875242D01*
X118751055Y-157873709D01*
X118762238Y-157873700D01*
X118901761Y-157874479D01*
X119000436Y-157877676D01*
X119068199Y-157884575D01*
X119114989Y-157896462D01*
X119150743Y-157914623D01*
X119167068Y-157926069D01*
X119233897Y-157980035D01*
X119281451Y-158032704D01*
X119313307Y-158094299D01*
X119333042Y-158175043D01*
X119344232Y-158285157D01*
X119350453Y-158434865D01*
X119350917Y-158451547D01*
X119353020Y-158627794D01*
X119347167Y-158762396D01*
X119331366Y-158864158D01*
X119303625Y-158941885D01*
X119261952Y-159004380D01*
X119215280Y-159051058D01*
X119150349Y-159100350D01*
X119078742Y-159135904D01*
X118991062Y-159159723D01*
X118877915Y-159173810D01*
X118729905Y-159180168D01*
X118605300Y-159181100D01*
X118457922Y-159179526D01*
X118350194Y-159174408D01*
X118271021Y-159164511D01*
X118209305Y-159148596D01*
X118168829Y-159132436D01*
X118063272Y-159061914D01*
X117978022Y-158954210D01*
X117912380Y-158807198D01*
X117865646Y-158618749D01*
X117837121Y-158386738D01*
X117830373Y-158216600D01*
X118229632Y-158216600D01*
X118244682Y-158396119D01*
X118272813Y-158562385D01*
X118325583Y-158684518D01*
X118402909Y-158762337D01*
X118416190Y-158769950D01*
X118475360Y-158786456D01*
X118563942Y-158794882D01*
X118666307Y-158795710D01*
X118766822Y-158789424D01*
X118849857Y-158776504D01*
X118899779Y-158757433D01*
X118902616Y-158754943D01*
X118922184Y-158706215D01*
X118933087Y-158608413D01*
X118935500Y-158505382D01*
X118934029Y-158397040D01*
X118924704Y-158319877D01*
X118900156Y-158268604D01*
X118853015Y-158237931D01*
X118775914Y-158222566D01*
X118661483Y-158217219D01*
X118533261Y-158216600D01*
X118229632Y-158216600D01*
X117830373Y-158216600D01*
X117826106Y-158109037D01*
X117825980Y-158089600D01*
X117831376Y-157828659D01*
X117851166Y-157611450D01*
X117886784Y-157432585D01*
X117939662Y-157286676D01*
X118011235Y-157168336D01*
X118094731Y-157079262D01*
X118214809Y-157006111D01*
X118304320Y-156982799D01*
X118379264Y-156977188D01*
X118491777Y-156975593D01*
X118628822Y-156977555D01*
G37*
X118628822Y-156977555D02*
X118777367Y-156982620D01*
X118924376Y-156990329D01*
X119056815Y-157000226D01*
X119161648Y-157011854D01*
X119170450Y-157013146D01*
X119278400Y-157029488D01*
X119278400Y-157353000D01*
X118869571Y-157353000D01*
X118714326Y-157353525D01*
X118601149Y-157355732D01*
X118521311Y-157360563D01*
X118466085Y-157368961D01*
X118426744Y-157381870D01*
X118394561Y-157400234D01*
X118387567Y-157405104D01*
X118328982Y-157471814D01*
X118280567Y-157573671D01*
X118248024Y-157695223D01*
X118237000Y-157813213D01*
X118237000Y-157908606D01*
X118332250Y-157891153D01*
X118393932Y-157884503D01*
X118493140Y-157879020D01*
X118616605Y-157875242D01*
X118751055Y-157873709D01*
X118762238Y-157873700D01*
X118901761Y-157874479D01*
X119000436Y-157877676D01*
X119068199Y-157884575D01*
X119114989Y-157896462D01*
X119150743Y-157914623D01*
X119167068Y-157926069D01*
X119233897Y-157980035D01*
X119281451Y-158032704D01*
X119313307Y-158094299D01*
X119333042Y-158175043D01*
X119344232Y-158285157D01*
X119350453Y-158434865D01*
X119350917Y-158451547D01*
X119353020Y-158627794D01*
X119347167Y-158762396D01*
X119331366Y-158864158D01*
X119303625Y-158941885D01*
X119261952Y-159004380D01*
X119215280Y-159051058D01*
X119150349Y-159100350D01*
X119078742Y-159135904D01*
X118991062Y-159159723D01*
X118877915Y-159173810D01*
X118729905Y-159180168D01*
X118605300Y-159181100D01*
X118457922Y-159179526D01*
X118350194Y-159174408D01*
X118271021Y-159164511D01*
X118209305Y-159148596D01*
X118168829Y-159132436D01*
X118063272Y-159061914D01*
X117978022Y-158954210D01*
X117912380Y-158807198D01*
X117865646Y-158618749D01*
X117837121Y-158386738D01*
X117830373Y-158216600D01*
X118229632Y-158216600D01*
X118244682Y-158396119D01*
X118272813Y-158562385D01*
X118325583Y-158684518D01*
X118402909Y-158762337D01*
X118416190Y-158769950D01*
X118475360Y-158786456D01*
X118563942Y-158794882D01*
X118666307Y-158795710D01*
X118766822Y-158789424D01*
X118849857Y-158776504D01*
X118899779Y-158757433D01*
X118902616Y-158754943D01*
X118922184Y-158706215D01*
X118933087Y-158608413D01*
X118935500Y-158505382D01*
X118934029Y-158397040D01*
X118924704Y-158319877D01*
X118900156Y-158268604D01*
X118853015Y-158237931D01*
X118775914Y-158222566D01*
X118661483Y-158217219D01*
X118533261Y-158216600D01*
X118229632Y-158216600D01*
X117830373Y-158216600D01*
X117826106Y-158109037D01*
X117825980Y-158089600D01*
X117831376Y-157828659D01*
X117851166Y-157611450D01*
X117886784Y-157432585D01*
X117939662Y-157286676D01*
X118011235Y-157168336D01*
X118094731Y-157079262D01*
X118214809Y-157006111D01*
X118304320Y-156982799D01*
X118379264Y-156977188D01*
X118491777Y-156975593D01*
X118628822Y-156977555D01*
G36*
X131724400Y-153517600D02*
G01*
X131724400Y-154453609D01*
X131725197Y-154735712D01*
X131727563Y-154974660D01*
X131731455Y-155168930D01*
X131736833Y-155317000D01*
X131743654Y-155417346D01*
X131751879Y-155468444D01*
X131751944Y-155468634D01*
X131780424Y-155522026D01*
X131830783Y-155561581D01*
X131910694Y-155596468D01*
X132041900Y-155645287D01*
X132049577Y-155775243D01*
X132057254Y-155905200D01*
X131833677Y-155905160D01*
X131695471Y-155900809D01*
X131595536Y-155886687D01*
X131521988Y-155861102D01*
X131521200Y-155860710D01*
X131438135Y-155795878D01*
X131368800Y-155689300D01*
X131305300Y-155562300D01*
X131297157Y-154539949D01*
X131289015Y-153517599D01*
X131506707Y-153517599D01*
X131724400Y-153517600D01*
G37*
X131724400Y-153517600D02*
X131724400Y-154453609D01*
X131725197Y-154735712D01*
X131727563Y-154974660D01*
X131731455Y-155168930D01*
X131736833Y-155317000D01*
X131743654Y-155417346D01*
X131751879Y-155468444D01*
X131751944Y-155468634D01*
X131780424Y-155522026D01*
X131830783Y-155561581D01*
X131910694Y-155596468D01*
X132041900Y-155645287D01*
X132049577Y-155775243D01*
X132057254Y-155905200D01*
X131833677Y-155905160D01*
X131695471Y-155900809D01*
X131595536Y-155886687D01*
X131521988Y-155861102D01*
X131521200Y-155860710D01*
X131438135Y-155795878D01*
X131368800Y-155689300D01*
X131305300Y-155562300D01*
X131297157Y-154539949D01*
X131289015Y-153517599D01*
X131506707Y-153517599D01*
X131724400Y-153517600D01*
G36*
X115897448Y-158070550D02*
G01*
X115945103Y-158228177D01*
X115988664Y-158369307D01*
X116025822Y-158486695D01*
X116054266Y-158573095D01*
X116071688Y-158621263D01*
X116075308Y-158628526D01*
X116087111Y-158610798D01*
X116111140Y-158551038D01*
X116145067Y-158455885D01*
X116186567Y-158331977D01*
X116233313Y-158185954D01*
X116256246Y-158112182D01*
X116304957Y-157955074D01*
X116349307Y-157813991D01*
X116386932Y-157696299D01*
X116415467Y-157609361D01*
X116432548Y-157560540D01*
X116435748Y-157553156D01*
X116466419Y-157542749D01*
X116535424Y-157536456D01*
X116630396Y-157535188D01*
X116667470Y-157536099D01*
X116884345Y-157543500D01*
X116598630Y-158356300D01*
X116312916Y-159169100D01*
X116074781Y-159176293D01*
X115836647Y-159183487D01*
X115572661Y-158388893D01*
X115508837Y-158196891D01*
X115449862Y-158019680D01*
X115397712Y-157863185D01*
X115354366Y-157733332D01*
X115321800Y-157636045D01*
X115301992Y-157577250D01*
X115296920Y-157562550D01*
X115304236Y-157546591D01*
X115344752Y-157536639D01*
X115424899Y-157531738D01*
X115510518Y-157530800D01*
X115735872Y-157530800D01*
X115897448Y-158070550D01*
G37*
X115897448Y-158070550D02*
X115945103Y-158228177D01*
X115988664Y-158369307D01*
X116025822Y-158486695D01*
X116054266Y-158573095D01*
X116071688Y-158621263D01*
X116075308Y-158628526D01*
X116087111Y-158610798D01*
X116111140Y-158551038D01*
X116145067Y-158455885D01*
X116186567Y-158331977D01*
X116233313Y-158185954D01*
X116256246Y-158112182D01*
X116304957Y-157955074D01*
X116349307Y-157813991D01*
X116386932Y-157696299D01*
X116415467Y-157609361D01*
X116432548Y-157560540D01*
X116435748Y-157553156D01*
X116466419Y-157542749D01*
X116535424Y-157536456D01*
X116630396Y-157535188D01*
X116667470Y-157536099D01*
X116884345Y-157543500D01*
X116598630Y-158356300D01*
X116312916Y-159169100D01*
X116074781Y-159176293D01*
X115836647Y-159183487D01*
X115572661Y-158388893D01*
X115508837Y-158196891D01*
X115449862Y-158019680D01*
X115397712Y-157863185D01*
X115354366Y-157733332D01*
X115321800Y-157636045D01*
X115301992Y-157577250D01*
X115296920Y-157562550D01*
X115304236Y-157546591D01*
X115344752Y-157536639D01*
X115424899Y-157531738D01*
X115510518Y-157530800D01*
X115735872Y-157530800D01*
X115897448Y-158070550D01*
%LPC*%
D14*
X109855000Y-149860000D03*
D15*
X112395000Y-149860000D03*
X114935000Y-149860000D03*
X117475000Y-149860000D03*
X120015000Y-149860000D03*
X122555000Y-149860000D03*
X125095000Y-149860000D03*
X127635000Y-149860000D03*
X130175000Y-149860000D03*
X132715000Y-149860000D03*
X135255000Y-149860000D03*
X137795000Y-149860000D03*
X140335000Y-149860000D03*
X142875000Y-149860000D03*
X145415000Y-149860000D03*
X147955000Y-149860000D03*
X150495000Y-149860000D03*
X153035000Y-149860000D03*
X155575000Y-149860000D03*
X158115000Y-149860000D03*
X158115000Y-134620000D03*
X155575000Y-134620000D03*
X153035000Y-134620000D03*
X150495000Y-134620000D03*
X147955000Y-134620000D03*
X145415000Y-134620000D03*
X142875000Y-134620000D03*
X140335000Y-134620000D03*
X137795000Y-134620000D03*
X135255000Y-134620000D03*
X132715000Y-134620000D03*
X130175000Y-134620000D03*
X127635000Y-134620000D03*
X125095000Y-134620000D03*
X122555000Y-134620000D03*
X120015000Y-134620000D03*
X117475000Y-134620000D03*
X114935000Y-134620000D03*
X112395000Y-134620000D03*
X109855000Y-134620000D03*
D16*
X93980000Y-159512000D03*
X96480000Y-159512000D03*
X81574000Y-159512000D03*
X84074000Y-159512000D03*
X83312000Y-125730000D03*
X83312000Y-128230000D03*
X71628000Y-159512000D03*
X69128000Y-159512000D03*
X109220000Y-131064000D03*
X111720000Y-131064000D03*
D17*
X143764000Y-118110000D03*
D16*
X143764000Y-120610000D03*
D17*
X143764000Y-126365000D03*
D16*
X143764000Y-128865000D03*
D18*
X137668000Y-157480000D03*
D19*
X137668000Y-154940000D03*
X140208000Y-157480000D03*
X140208000Y-154940000D03*
X142748000Y-157480000D03*
X142748000Y-154940000D03*
X145288000Y-157480000D03*
X145288000Y-154940000D03*
X147828000Y-157480000D03*
X147828000Y-154940000D03*
X150368000Y-157480000D03*
X150368000Y-154940000D03*
X152908000Y-157480000D03*
X152908000Y-154940000D03*
X155448000Y-157480000D03*
X155448000Y-154940000D03*
X157988000Y-157480000D03*
X157988000Y-154940000D03*
D18*
X107950000Y-121666000D03*
D19*
X110490000Y-121666000D03*
X113030000Y-121666000D03*
D18*
X107950000Y-117348000D03*
D19*
X110490000Y-117348000D03*
X113030000Y-117348000D03*
D18*
X96266000Y-121666000D03*
D19*
X98806000Y-121666000D03*
X101346000Y-121666000D03*
D18*
X96266000Y-117348000D03*
D19*
X98806000Y-117348000D03*
X101346000Y-117348000D03*
D18*
X84582000Y-121666000D03*
D19*
X87122000Y-121666000D03*
X89662000Y-121666000D03*
D20*
X77216000Y-155956000D03*
D21*
X77216000Y-153416000D03*
X77216000Y-150876000D03*
X77216000Y-148336000D03*
X77216000Y-145796000D03*
X77216000Y-143256000D03*
X77216000Y-140716000D03*
X77216000Y-138176000D03*
X69596000Y-138176000D03*
X69596000Y-140716000D03*
X69596000Y-143256000D03*
X69596000Y-145796000D03*
X69596000Y-148336000D03*
X69596000Y-150876000D03*
X69596000Y-153416000D03*
X69596000Y-155956000D03*
D20*
X89662000Y-155956000D03*
D21*
X89662000Y-153416000D03*
X89662000Y-150876000D03*
X89662000Y-148336000D03*
X89662000Y-145796000D03*
X89662000Y-143256000D03*
X89662000Y-140716000D03*
X89662000Y-138176000D03*
X82042000Y-138176000D03*
X82042000Y-140716000D03*
X82042000Y-143256000D03*
X82042000Y-145796000D03*
X82042000Y-148336000D03*
X82042000Y-150876000D03*
X82042000Y-153416000D03*
X82042000Y-155956000D03*
D20*
X102108000Y-154686000D03*
D21*
X102108000Y-152146000D03*
X102108000Y-149606000D03*
X102108000Y-147066000D03*
X102108000Y-144526000D03*
X102108000Y-141986000D03*
X102108000Y-139446000D03*
X94488000Y-139446000D03*
X94488000Y-141986000D03*
X94488000Y-144526000D03*
X94488000Y-147066000D03*
X94488000Y-149606000D03*
X94488000Y-152146000D03*
X94488000Y-154686000D03*
D14*
X86868000Y-133858000D03*
D15*
X89408000Y-133858000D03*
X91948000Y-133858000D03*
X94488000Y-133858000D03*
X97028000Y-133858000D03*
X99568000Y-133858000D03*
X102108000Y-133858000D03*
X102108000Y-126238000D03*
X99568000Y-126238000D03*
X97028000Y-126238000D03*
X94488000Y-126238000D03*
X91948000Y-126238000D03*
X89408000Y-126238000D03*
X86868000Y-126238000D03*
D16*
X138684000Y-116586000D03*
D22*
X128524000Y-116586000D03*
D16*
X128524000Y-120142000D03*
D22*
X138684000Y-120142000D03*
D16*
X128524000Y-130810000D03*
D22*
X138684000Y-130810000D03*
D16*
X138684000Y-127254000D03*
D22*
X128524000Y-127254000D03*
D16*
X138684000Y-123698000D03*
D22*
X128524000Y-123698000D03*
D16*
X115316000Y-130810000D03*
D22*
X125476000Y-130810000D03*
D16*
X125476000Y-127254000D03*
D22*
X115316000Y-127254000D03*
D23*
X156130000Y-120095000D03*
X158630000Y-130095000D03*
X156130000Y-130095000D03*
X158630000Y-120095000D03*
X151130000Y-125095000D03*
D24*
X151130000Y-130095000D03*
X151130000Y-127595000D03*
D25*
X156130000Y-125095000D03*
D24*
X151130000Y-120095000D03*
X151130000Y-122595000D03*
D18*
X84582000Y-117348000D03*
D19*
X87122000Y-117348000D03*
X89662000Y-117348000D03*
D18*
X65278000Y-155956000D03*
D19*
X62738000Y-155956000D03*
X65278000Y-153416000D03*
X62738000Y-153416000D03*
X65278000Y-150876000D03*
X62738000Y-150876000D03*
X65278000Y-148336000D03*
X62738000Y-148336000D03*
X65278000Y-145796000D03*
X62738000Y-145796000D03*
X65278000Y-143256000D03*
X62738000Y-143256000D03*
X65278000Y-140716000D03*
X62738000Y-140716000D03*
X65278000Y-138176000D03*
X62738000Y-138176000D03*
X65278000Y-135636000D03*
X62738000Y-135636000D03*
D18*
X119634000Y-121666000D03*
D19*
X122174000Y-121666000D03*
D14*
X70866000Y-132842000D03*
D15*
X73406000Y-132842000D03*
X75946000Y-132842000D03*
X78486000Y-132842000D03*
X78486000Y-125222000D03*
X75946000Y-125222000D03*
X73406000Y-125222000D03*
X70866000Y-125222000D03*
D26*
X65532000Y-131382000D03*
D18*
X62000000Y-163000000D03*
D19*
X64540000Y-163000000D03*
X67080000Y-163000000D03*
X69620000Y-163000000D03*
X72160000Y-163000000D03*
X74700000Y-163000000D03*
X77240000Y-163000000D03*
X79780000Y-163000000D03*
X82320000Y-163000000D03*
X84860000Y-163000000D03*
X87400000Y-163000000D03*
X89940000Y-163000000D03*
X92480000Y-163000000D03*
X95020000Y-163000000D03*
X97560000Y-163000000D03*
X100100000Y-163000000D03*
X102640000Y-163000000D03*
X105180000Y-163000000D03*
X107720000Y-163000000D03*
X110260000Y-163000000D03*
X112800000Y-163000000D03*
X115340000Y-163000000D03*
X117880000Y-163000000D03*
X120420000Y-163000000D03*
X122960000Y-163000000D03*
X125500000Y-163000000D03*
X128040000Y-163000000D03*
X130580000Y-163000000D03*
X133120000Y-163000000D03*
X135660000Y-163000000D03*
X138200000Y-163000000D03*
X140740000Y-163000000D03*
X143280000Y-163000000D03*
X145820000Y-163000000D03*
X148360000Y-163000000D03*
X150900000Y-163000000D03*
X153440000Y-163000000D03*
X155980000Y-163000000D03*
X158520000Y-163000000D03*
M02*
